G04 Layer_Physical_Order=2*
G04 Layer_Color=16711680*
%FSLAX23Y23*%
%MOIN*%
G70*
G01*
G75*
%ADD10O,0.059X0.079*%
%ADD11R,0.059X0.079*%
%ADD12O,0.079X0.059*%
%ADD13R,0.079X0.059*%
%ADD14C,0.047*%
%ADD15C,0.063*%
%ADD16C,0.079*%
%ADD17R,0.079X0.079*%
%ADD18O,0.079X0.039*%
%ADD19O,0.079X0.039*%
%ADD20R,0.063X0.063*%
%ADD21R,0.063X0.063*%
%ADD22C,0.118*%
%ADD23O,0.071X0.063*%
%ADD24R,0.071X0.063*%
%ADD25C,0.059*%
%ADD26C,0.067*%
%ADD27R,0.067X0.067*%
%ADD28R,0.043X0.059*%
%ADD29O,0.028X0.098*%
%ADD30R,0.059X0.043*%
%ADD31C,0.020*%
%ADD32C,0.012*%
G36*
X1834Y1817D02*
Y1673D01*
X1835Y1667D01*
X1839Y1662D01*
X1851Y1650D01*
X1856Y1646D01*
X1862Y1645D01*
X1875D01*
X1883Y1637D01*
Y1600D01*
X1879Y1599D01*
X1872Y1593D01*
X1867Y1594D01*
Y1614D01*
X1865Y1620D01*
X1862Y1626D01*
X1850Y1637D01*
X1845Y1641D01*
X1839Y1642D01*
X1826D01*
X1815Y1652D01*
Y1808D01*
X1819Y1810D01*
X1827Y1816D01*
X1829Y1819D01*
X1834Y1817D01*
D02*
G37*
G36*
X5301Y2975D02*
X5307Y2966D01*
X5316Y2959D01*
X5317Y2959D01*
Y2882D01*
X5316Y2882D01*
X5307Y2875D01*
X5301Y2867D01*
X5297Y2857D01*
X5292Y2857D01*
Y2984D01*
X5297Y2985D01*
X5301Y2975D01*
D02*
G37*
G36*
X866Y1743D02*
Y1295D01*
X867Y1289D01*
X870Y1284D01*
X897Y1257D01*
X896Y1254D01*
X895Y1252D01*
X814D01*
X792Y1274D01*
Y1739D01*
X797Y1740D01*
X799Y1738D01*
X807Y1731D01*
X817Y1727D01*
X827Y1726D01*
X837Y1727D01*
X847Y1731D01*
X855Y1738D01*
X861Y1744D01*
X866Y1743D01*
D02*
G37*
G36*
X2672Y2947D02*
Y2936D01*
X2668Y2934D01*
X2660Y2928D01*
X2654Y2920D01*
X2650Y2910D01*
X2648Y2900D01*
Y2880D01*
X2650Y2870D01*
X2654Y2860D01*
X2660Y2852D01*
X2668Y2845D01*
X2678Y2841D01*
X2688Y2840D01*
X2699Y2841D01*
X2708Y2845D01*
X2712Y2849D01*
X2717Y2846D01*
Y2707D01*
X2663Y2652D01*
X2658Y2646D01*
X2657Y2638D01*
Y2414D01*
X2641Y2398D01*
X2489D01*
X2457Y2430D01*
Y2469D01*
X2456Y2476D01*
X2451Y2483D01*
X2434Y2500D01*
X2451Y2517D01*
X2456Y2524D01*
X2457Y2531D01*
Y2848D01*
X2462Y2850D01*
X2468Y2845D01*
X2478Y2841D01*
X2488Y2840D01*
X2499Y2841D01*
X2508Y2845D01*
X2516Y2852D01*
X2523Y2860D01*
X2527Y2870D01*
X2528Y2880D01*
Y2900D01*
X2527Y2910D01*
X2523Y2920D01*
X2516Y2928D01*
X2508Y2934D01*
X2504Y2936D01*
Y2950D01*
X2515Y2960D01*
X2659D01*
X2672Y2947D01*
D02*
G37*
G36*
X4219Y1644D02*
Y1597D01*
X4215Y1596D01*
X4207Y1589D01*
X4202Y1583D01*
X4197Y1584D01*
Y1602D01*
X4196Y1609D01*
X4193Y1614D01*
X4173Y1634D01*
X4168Y1637D01*
X4161Y1638D01*
X4102D01*
X4096Y1637D01*
X4091Y1634D01*
X4071Y1614D01*
X4068Y1609D01*
X4066Y1602D01*
Y1593D01*
X4061Y1591D01*
X4056Y1595D01*
Y1606D01*
X4054Y1614D01*
X4050Y1621D01*
X4038Y1632D01*
X4031Y1637D01*
X4024Y1638D01*
X3865D01*
X3859Y1646D01*
X3857Y1648D01*
X3858Y1653D01*
X4210D01*
X4219Y1644D01*
D02*
G37*
G36*
X1744Y636D02*
X1749Y628D01*
X1757Y622D01*
X1766Y621D01*
X1775Y622D01*
X1783Y628D01*
X1788Y635D01*
X1792Y635D01*
X1793Y635D01*
X1796Y632D01*
Y613D01*
X1797Y605D01*
X1802Y599D01*
X1820Y580D01*
X1827Y576D01*
X1835Y574D01*
X1957D01*
X1964Y576D01*
X1971Y580D01*
X1972Y582D01*
X1996Y559D01*
Y497D01*
X1950Y451D01*
X1946Y445D01*
X1944Y437D01*
Y323D01*
X1922Y301D01*
X1703D01*
X1702Y301D01*
X1696Y310D01*
X1687Y317D01*
X1677Y321D01*
X1666Y322D01*
X1655Y321D01*
X1645Y317D01*
X1637Y310D01*
X1630Y301D01*
X1626Y291D01*
X1624Y280D01*
X1626Y269D01*
X1630Y259D01*
X1637Y251D01*
X1645Y244D01*
X1646Y244D01*
Y234D01*
X1625Y213D01*
X981D01*
X965Y229D01*
Y566D01*
X977Y578D01*
X1460D01*
X1476Y562D01*
Y508D01*
X1477Y500D01*
X1482Y494D01*
X1502Y473D01*
X1509Y469D01*
X1517Y467D01*
X1642D01*
Y452D01*
X1644Y443D01*
X1649Y435D01*
X1657Y430D01*
X1666Y428D01*
X1675Y430D01*
X1683Y435D01*
X1689Y443D01*
X1689Y443D01*
X1694D01*
X1694Y443D01*
X1699Y435D01*
X1707Y430D01*
X1716Y428D01*
X1725Y430D01*
X1733Y435D01*
X1739Y443D01*
X1739Y443D01*
X1744D01*
X1744Y443D01*
X1749Y435D01*
X1750Y434D01*
Y415D01*
X1732Y397D01*
X1067D01*
X1052Y411D01*
Y457D01*
X1080D01*
Y543D01*
X993D01*
Y457D01*
X1020D01*
Y405D01*
X1021Y399D01*
X1025Y393D01*
X1049Y369D01*
X1054Y365D01*
X1061Y364D01*
X1739D01*
X1745Y365D01*
X1750Y369D01*
X1778Y396D01*
X1781Y402D01*
X1782Y408D01*
Y434D01*
X1783Y435D01*
X1789Y443D01*
X1789Y443D01*
X1794D01*
X1794Y443D01*
X1799Y435D01*
X1807Y430D01*
X1816Y428D01*
X1825Y430D01*
X1833Y435D01*
X1839Y443D01*
X1840Y452D01*
Y471D01*
X1876D01*
X1876Y470D01*
X1882Y463D01*
X1889Y458D01*
X1897Y455D01*
X1906Y453D01*
X1914Y455D01*
X1922Y458D01*
X1929Y463D01*
X1935Y470D01*
X1938Y479D01*
X1939Y487D01*
X1938Y496D01*
X1935Y504D01*
X1929Y511D01*
X1922Y517D01*
X1914Y520D01*
X1906Y521D01*
X1897Y520D01*
X1889Y517D01*
X1882Y511D01*
X1876Y504D01*
X1876Y504D01*
X1840D01*
Y523D01*
X1839Y532D01*
X1833Y540D01*
X1825Y545D01*
X1816Y547D01*
X1807Y545D01*
X1799Y540D01*
X1794Y532D01*
X1794Y532D01*
X1789D01*
X1789Y532D01*
X1783Y540D01*
X1782Y541D01*
Y569D01*
X1781Y575D01*
X1778Y580D01*
X1767Y590D01*
X1762Y594D01*
X1756Y595D01*
X1739D01*
X1732Y602D01*
Y627D01*
X1733Y628D01*
X1739Y636D01*
X1739Y636D01*
X1744D01*
X1744Y636D01*
D02*
G37*
G36*
X2738Y865D02*
X2735Y862D01*
X2728Y854D01*
X2724Y845D01*
X2723Y834D01*
X2724Y824D01*
X2728Y814D01*
X2733Y809D01*
X2730Y804D01*
X2669D01*
X2663Y802D01*
X2658Y799D01*
X2641Y782D01*
X2636Y785D01*
Y858D01*
X2648Y870D01*
X2736D01*
X2738Y865D01*
D02*
G37*
G36*
X4012Y1593D02*
X4007Y1589D01*
X4001Y1581D01*
X3997Y1571D01*
X3996Y1561D01*
Y1541D01*
X3997Y1531D01*
X4001Y1521D01*
X4007Y1513D01*
X4015Y1507D01*
X4025Y1503D01*
X4035Y1501D01*
X4046Y1503D01*
X4055Y1507D01*
X4061Y1511D01*
X4066Y1509D01*
Y1499D01*
X4052Y1485D01*
X3109D01*
X3103Y1491D01*
Y1505D01*
X3107Y1507D01*
X3115Y1513D01*
X3121Y1521D01*
X3125Y1531D01*
X3126Y1541D01*
Y1561D01*
X3125Y1571D01*
X3121Y1581D01*
X3115Y1589D01*
X3115Y1591D01*
X3116Y1594D01*
X3157D01*
X3158Y1591D01*
X3158Y1589D01*
X3152Y1581D01*
X3148Y1571D01*
X3147Y1561D01*
Y1541D01*
X3148Y1531D01*
X3152Y1521D01*
X3158Y1513D01*
X3167Y1507D01*
X3176Y1503D01*
X3187Y1501D01*
X3197Y1503D01*
X3207Y1507D01*
X3215Y1513D01*
X3221Y1521D01*
X3225Y1531D01*
X3226Y1541D01*
Y1561D01*
X3225Y1571D01*
X3221Y1581D01*
X3215Y1589D01*
X3215Y1591D01*
X3216Y1594D01*
X3257D01*
X3258Y1591D01*
X3258Y1589D01*
X3252Y1581D01*
X3248Y1571D01*
X3247Y1561D01*
Y1541D01*
X3248Y1531D01*
X3252Y1521D01*
X3258Y1513D01*
X3267Y1507D01*
X3276Y1503D01*
X3287Y1501D01*
X3297Y1503D01*
X3307Y1507D01*
X3315Y1513D01*
X3321Y1521D01*
X3325Y1531D01*
X3326Y1541D01*
Y1561D01*
X3325Y1571D01*
X3321Y1581D01*
X3315Y1589D01*
X3315Y1591D01*
X3316Y1594D01*
X3357D01*
X3358Y1591D01*
X3358Y1589D01*
X3352Y1581D01*
X3348Y1571D01*
X3347Y1561D01*
Y1541D01*
X3348Y1531D01*
X3352Y1521D01*
X3358Y1513D01*
X3367Y1507D01*
X3376Y1503D01*
X3387Y1501D01*
X3397Y1503D01*
X3407Y1507D01*
X3415Y1513D01*
X3421Y1521D01*
X3425Y1531D01*
X3426Y1541D01*
Y1561D01*
X3425Y1571D01*
X3421Y1581D01*
X3415Y1589D01*
X3415Y1591D01*
X3416Y1594D01*
X3457D01*
X3458Y1591D01*
X3458Y1589D01*
X3452Y1581D01*
X3448Y1571D01*
X3447Y1561D01*
Y1541D01*
X3448Y1531D01*
X3452Y1521D01*
X3458Y1513D01*
X3467Y1507D01*
X3476Y1503D01*
X3487Y1501D01*
X3497Y1503D01*
X3507Y1507D01*
X3515Y1513D01*
X3521Y1521D01*
X3525Y1531D01*
X3526Y1541D01*
Y1561D01*
X3525Y1571D01*
X3521Y1581D01*
X3515Y1589D01*
X3515Y1591D01*
X3516Y1594D01*
X3556D01*
X3558Y1590D01*
X3558Y1589D01*
X3552Y1581D01*
X3548Y1571D01*
X3547Y1561D01*
Y1541D01*
X3548Y1531D01*
X3552Y1521D01*
X3558Y1513D01*
X3567Y1507D01*
X3576Y1503D01*
X3587Y1501D01*
X3597Y1503D01*
X3607Y1507D01*
X3615Y1513D01*
X3621Y1521D01*
X3625Y1531D01*
X3626Y1541D01*
Y1561D01*
X3625Y1571D01*
X3621Y1581D01*
X3615Y1589D01*
X3614Y1589D01*
X3614Y1595D01*
X3617Y1598D01*
X3796D01*
X3803Y1590D01*
X3811Y1584D01*
X3820Y1580D01*
X3831Y1578D01*
X3841Y1580D01*
X3851Y1584D01*
X3859Y1590D01*
X3865Y1598D01*
X3910D01*
X3912Y1593D01*
X3907Y1589D01*
X3901Y1581D01*
X3897Y1571D01*
X3896Y1567D01*
X3741D01*
X3739Y1571D01*
X3733Y1579D01*
X3725Y1586D01*
X3715Y1590D01*
X3705Y1591D01*
X3694Y1590D01*
X3685Y1586D01*
X3677Y1579D01*
X3670Y1571D01*
X3666Y1561D01*
X3665Y1551D01*
X3666Y1541D01*
X3670Y1531D01*
X3677Y1523D01*
X3685Y1517D01*
X3694Y1513D01*
X3705Y1511D01*
X3715Y1513D01*
X3725Y1517D01*
X3733Y1523D01*
X3739Y1531D01*
X3741Y1535D01*
X3756D01*
X3760Y1534D01*
X3897D01*
X3897Y1531D01*
X3901Y1521D01*
X3907Y1513D01*
X3915Y1507D01*
X3925Y1503D01*
X3935Y1501D01*
X3946Y1503D01*
X3955Y1507D01*
X3964Y1513D01*
X3970Y1521D01*
X3974Y1531D01*
X3975Y1541D01*
Y1561D01*
X3974Y1571D01*
X3970Y1581D01*
X3964Y1589D01*
X3959Y1593D01*
X3961Y1598D01*
X4010D01*
X4012Y1593D01*
D02*
G37*
G36*
X3140Y1998D02*
X3138Y1994D01*
X3132Y1994D01*
X3122Y1993D01*
X3112Y1989D01*
X3104Y1983D01*
X3098Y1975D01*
X3094Y1965D01*
X3092Y1955D01*
X3094Y1944D01*
X3098Y1935D01*
X3104Y1926D01*
X3112Y1920D01*
X3116Y1918D01*
Y1895D01*
X3111Y1892D01*
X3107Y1896D01*
X3103Y1897D01*
Y1913D01*
X3102Y1920D01*
X3098Y1925D01*
X3074Y1948D01*
X3069Y1952D01*
X3063Y1953D01*
X2909D01*
X2903Y1952D01*
X2898Y1948D01*
X2874Y1925D01*
X2871Y1920D01*
X2870Y1913D01*
Y1794D01*
X2859Y1784D01*
X2326D01*
X2315Y1794D01*
Y1808D01*
X2319Y1810D01*
X2327Y1816D01*
X2334Y1825D01*
X2338Y1834D01*
X2339Y1844D01*
Y1864D01*
X2338Y1874D01*
X2334Y1884D01*
X2327Y1892D01*
X2319Y1899D01*
X2310Y1903D01*
X2299Y1904D01*
X2289Y1903D01*
X2279Y1899D01*
X2273Y1894D01*
X2268Y1896D01*
Y2001D01*
X2288Y2021D01*
X2421D01*
X2423Y2016D01*
X2420Y2012D01*
X2416Y2002D01*
X2414Y1992D01*
X2416Y1982D01*
X2420Y1972D01*
X2426Y1964D01*
X2434Y1958D01*
X2438Y1956D01*
Y1904D01*
X2360D01*
Y1805D01*
X2439D01*
Y1838D01*
X2443Y1839D01*
X2448Y1843D01*
X2466Y1860D01*
X2469Y1865D01*
X2471Y1872D01*
Y1956D01*
X2474Y1958D01*
X2483Y1964D01*
X2489Y1972D01*
X2493Y1982D01*
X2494Y1992D01*
X2493Y2002D01*
X2489Y2012D01*
X2486Y2016D01*
X2488Y2021D01*
X3117D01*
X3140Y1998D01*
D02*
G37*
G36*
X1692Y2148D02*
X1691Y2142D01*
X1687Y2139D01*
X1682Y2131D01*
X1680Y2122D01*
Y2107D01*
X1602D01*
X1602Y2110D01*
X1598Y2120D01*
X1591Y2128D01*
X1583Y2135D01*
X1573Y2139D01*
X1563Y2140D01*
X1553Y2139D01*
X1543Y2135D01*
X1535Y2128D01*
X1528Y2120D01*
X1524Y2110D01*
X1524Y2103D01*
X1374Y1953D01*
X1350D01*
X1343Y1952D01*
X1336Y1947D01*
X1313Y1924D01*
X1308Y1918D01*
X1307Y1910D01*
Y1815D01*
X1296D01*
Y1796D01*
X1266D01*
X1262Y1805D01*
X1255Y1814D01*
X1247Y1820D01*
X1237Y1824D01*
X1227Y1825D01*
X1217Y1824D01*
X1207Y1820D01*
X1199Y1814D01*
X1193Y1805D01*
X1189Y1796D01*
X1187Y1785D01*
Y1766D01*
X1189Y1755D01*
X1193Y1746D01*
X1199Y1738D01*
X1207Y1731D01*
Y1716D01*
X1200Y1709D01*
X1103D01*
X1098Y1714D01*
Y1732D01*
X1103Y1734D01*
X1107Y1731D01*
X1117Y1727D01*
X1127Y1726D01*
X1137Y1727D01*
X1147Y1731D01*
X1155Y1738D01*
X1162Y1746D01*
X1166Y1755D01*
X1167Y1766D01*
Y1785D01*
X1166Y1796D01*
X1162Y1805D01*
X1155Y1814D01*
X1147Y1820D01*
X1143Y1821D01*
Y1885D01*
X1142Y1891D01*
X1139Y1896D01*
X1125Y1909D01*
X1137Y1922D01*
X1141Y1927D01*
X1142Y1933D01*
Y1954D01*
X1172Y1984D01*
X1299D01*
X1305Y1985D01*
X1311Y1989D01*
X1334Y2012D01*
X1338Y2017D01*
X1339Y2024D01*
Y2039D01*
X1343Y2040D01*
X1351Y2047D01*
X1357Y2055D01*
X1359Y2059D01*
X1433D01*
X1439Y2060D01*
X1445Y2063D01*
X1452Y2071D01*
X1456Y2076D01*
X1457Y2083D01*
Y2143D01*
X1463Y2149D01*
X1691D01*
X1692Y2148D01*
D02*
G37*
G36*
X5384Y656D02*
X5385Y655D01*
Y522D01*
X5379Y516D01*
X5331D01*
X5330Y521D01*
X5334Y524D01*
X5358Y548D01*
X5361Y553D01*
X5363Y559D01*
Y641D01*
X5366Y643D01*
X5375Y649D01*
X5380Y656D01*
X5384Y656D01*
D02*
G37*
G36*
X866Y2043D02*
Y1925D01*
X867Y1919D01*
X870Y1914D01*
X875Y1909D01*
X870Y1905D01*
X867Y1900D01*
X866Y1894D01*
Y1809D01*
X861Y1807D01*
X855Y1814D01*
X847Y1820D01*
X837Y1824D01*
X827Y1825D01*
X817Y1824D01*
X807Y1820D01*
X799Y1814D01*
X797Y1811D01*
X792Y1812D01*
Y1915D01*
X798Y1921D01*
X811D01*
X817Y1922D01*
X822Y1926D01*
X838Y1941D01*
X842Y1947D01*
X843Y1953D01*
Y2030D01*
X847Y2031D01*
X855Y2038D01*
X861Y2044D01*
X866Y2043D01*
D02*
G37*
G36*
X5110Y654D02*
X5110Y654D01*
X5102Y647D01*
X5096Y639D01*
X5092Y630D01*
X5090Y619D01*
Y600D01*
X5092Y589D01*
X5096Y580D01*
X5102Y571D01*
X5110Y565D01*
X5114Y564D01*
Y551D01*
X5115Y545D01*
X5119Y539D01*
X5134Y524D01*
X5138Y521D01*
X5137Y516D01*
X4956D01*
X4947Y525D01*
Y564D01*
X4950Y565D01*
X4959Y571D01*
X4965Y580D01*
X4969Y589D01*
X4970Y600D01*
Y619D01*
X4969Y630D01*
X4965Y639D01*
X4959Y647D01*
X4953Y652D01*
X4954Y657D01*
X5006D01*
X5008Y652D01*
X5002Y647D01*
X4996Y639D01*
X4992Y630D01*
X4990Y619D01*
Y600D01*
X4992Y589D01*
X4996Y580D01*
X5002Y571D01*
X5010Y565D01*
X5020Y561D01*
X5030Y560D01*
X5041Y561D01*
X5050Y565D01*
X5059Y571D01*
X5065Y580D01*
X5069Y589D01*
X5070Y600D01*
Y619D01*
X5069Y630D01*
X5065Y639D01*
X5059Y647D01*
X5053Y652D01*
X5054Y657D01*
X5102D01*
X5108Y658D01*
X5110Y654D01*
D02*
G37*
G36*
X4767Y575D02*
Y457D01*
X4768Y450D01*
X4772Y445D01*
X4784Y433D01*
X4788Y431D01*
X4787Y426D01*
X4704D01*
X4701Y428D01*
Y566D01*
X4706Y568D01*
X4710Y565D01*
X4720Y561D01*
X4730Y560D01*
X4741Y561D01*
X4750Y565D01*
X4759Y571D01*
X4762Y576D01*
X4767Y575D01*
D02*
G37*
G36*
X5301Y2825D02*
X5307Y2816D01*
X5316Y2809D01*
X5317Y2809D01*
Y2732D01*
X5316Y2732D01*
X5307Y2725D01*
X5301Y2717D01*
X5297Y2707D01*
X5292Y2707D01*
Y2834D01*
X5297Y2835D01*
X5301Y2825D01*
D02*
G37*
G36*
X1932Y2235D02*
X1937Y2227D01*
X1938Y2226D01*
Y2199D01*
X1939Y2193D01*
X1943Y2188D01*
X1953Y2178D01*
X1958Y2174D01*
X1965Y2173D01*
X1985D01*
X1988Y2170D01*
Y2140D01*
X1987Y2139D01*
X1982Y2131D01*
X1982Y2131D01*
X1977D01*
X1977Y2131D01*
X1971Y2139D01*
X1964Y2144D01*
X1954Y2146D01*
X1945Y2144D01*
X1937Y2139D01*
X1932Y2131D01*
X1932Y2131D01*
X1927D01*
X1927Y2131D01*
X1921Y2139D01*
X1914Y2144D01*
X1904Y2146D01*
X1895Y2144D01*
X1887Y2139D01*
X1882Y2131D01*
X1882Y2131D01*
X1877D01*
X1877Y2131D01*
X1871Y2139D01*
X1864Y2144D01*
X1854Y2146D01*
X1845Y2144D01*
X1837Y2139D01*
X1832Y2131D01*
X1832Y2131D01*
X1827D01*
X1827Y2131D01*
X1821Y2139D01*
X1814Y2144D01*
X1804Y2146D01*
X1795Y2144D01*
X1787Y2139D01*
X1782Y2131D01*
X1782Y2131D01*
X1777D01*
X1777Y2131D01*
X1771Y2139D01*
X1771Y2140D01*
Y2151D01*
X1769Y2157D01*
X1766Y2163D01*
X1752Y2176D01*
X1752Y2179D01*
X1752Y2182D01*
X1766Y2196D01*
X1769Y2201D01*
X1771Y2207D01*
Y2226D01*
X1771Y2227D01*
X1777Y2235D01*
X1777Y2235D01*
X1782D01*
X1782Y2235D01*
X1787Y2227D01*
X1795Y2222D01*
X1804Y2220D01*
X1814Y2222D01*
X1821Y2227D01*
X1827Y2235D01*
X1827Y2235D01*
X1832D01*
X1832Y2235D01*
X1837Y2227D01*
X1845Y2222D01*
X1854Y2220D01*
X1864Y2222D01*
X1871Y2227D01*
X1877Y2235D01*
X1877Y2235D01*
X1882D01*
X1882Y2235D01*
X1887Y2227D01*
X1895Y2222D01*
X1904Y2220D01*
X1914Y2222D01*
X1921Y2227D01*
X1927Y2235D01*
X1927Y2235D01*
X1932D01*
X1932Y2235D01*
D02*
G37*
G36*
X2622Y962D02*
Y945D01*
X2623Y939D01*
X2626Y933D01*
X2637Y923D01*
X2642Y919D01*
X2648Y918D01*
X2727D01*
X2728Y914D01*
X2734Y907D01*
X2733Y902D01*
X2642D01*
X2636Y901D01*
X2630Y897D01*
X2619Y886D01*
X2615Y888D01*
Y921D01*
X2613Y927D01*
X2610Y933D01*
X2597Y946D01*
X2592Y949D01*
X2585Y950D01*
X2519D01*
X2517Y954D01*
X2511Y962D01*
X2510Y963D01*
X2511Y968D01*
X2615D01*
X2622Y962D01*
D02*
G37*
G36*
X5776Y1014D02*
X5775Y1014D01*
X5768Y1005D01*
X5764Y995D01*
X5763Y984D01*
X5764Y973D01*
X5768Y963D01*
X5775Y955D01*
X5784Y948D01*
X5792Y944D01*
Y162D01*
X5777Y146D01*
X5609D01*
X5607Y151D01*
X5622Y166D01*
X5625Y171D01*
X5626Y177D01*
Y1009D01*
X5637Y1019D01*
X5674D01*
X5676Y1014D01*
X5675Y1014D01*
X5668Y1005D01*
X5664Y995D01*
X5663Y984D01*
X5664Y973D01*
X5668Y963D01*
X5675Y955D01*
X5684Y948D01*
X5692Y944D01*
Y662D01*
X5689Y661D01*
X5680Y654D01*
X5674Y646D01*
X5670Y636D01*
X5669Y626D01*
X5670Y616D01*
X5674Y606D01*
X5680Y598D01*
X5689Y591D01*
X5698Y587D01*
X5709Y586D01*
X5719Y587D01*
X5729Y591D01*
X5737Y598D01*
X5743Y606D01*
X5747Y616D01*
X5749Y626D01*
X5747Y636D01*
X5743Y646D01*
X5737Y654D01*
X5729Y661D01*
X5725Y662D01*
Y944D01*
X5734Y948D01*
X5742Y955D01*
X5749Y963D01*
X5753Y973D01*
X5754Y984D01*
X5753Y995D01*
X5749Y1005D01*
X5742Y1014D01*
X5741Y1014D01*
X5743Y1019D01*
X5774D01*
X5776Y1014D01*
D02*
G37*
G36*
X5668Y1263D02*
X5675Y1255D01*
X5677Y1253D01*
X5676Y1248D01*
X5417D01*
X5410Y1247D01*
X5405Y1243D01*
X5390Y1228D01*
X5387Y1223D01*
X5385Y1217D01*
Y699D01*
X5384Y698D01*
X5380Y698D01*
X5375Y705D01*
X5366Y712D01*
X5363Y713D01*
Y1257D01*
X5374Y1268D01*
X5667D01*
X5668Y1263D01*
D02*
G37*
G36*
X3628Y1235D02*
X3634Y1226D01*
X3640Y1222D01*
X3638Y1217D01*
X3437D01*
X3429Y1216D01*
X3423Y1211D01*
X3399Y1187D01*
X3395Y1181D01*
X3393Y1173D01*
Y1119D01*
X3388Y1117D01*
X3383Y1121D01*
X3378Y1123D01*
Y1222D01*
X3396Y1240D01*
X3626D01*
X3628Y1235D01*
D02*
G37*
G36*
X4914Y418D02*
Y355D01*
X4910Y354D01*
X4902Y347D01*
X4896Y339D01*
X4892Y330D01*
X4890Y319D01*
Y300D01*
X4892Y289D01*
X4896Y280D01*
X4902Y271D01*
X4910Y265D01*
X4914Y264D01*
Y239D01*
X4915Y233D01*
X4919Y228D01*
X4933Y213D01*
X4938Y210D01*
X4936Y205D01*
X4652D01*
X4647Y211D01*
Y264D01*
X4650Y265D01*
X4659Y271D01*
X4660Y273D01*
X4665Y272D01*
Y252D01*
X4666Y246D01*
X4670Y241D01*
X4681Y229D01*
X4687Y225D01*
X4693Y224D01*
X4815D01*
X4821Y225D01*
X4826Y229D01*
X4842Y244D01*
X4845Y249D01*
X4847Y256D01*
Y264D01*
X4850Y265D01*
X4859Y271D01*
X4865Y280D01*
X4869Y289D01*
X4870Y300D01*
Y319D01*
X4869Y330D01*
X4865Y339D01*
X4859Y347D01*
X4850Y354D01*
X4847Y355D01*
Y390D01*
X4845Y396D01*
X4842Y402D01*
X4822Y421D01*
X4818Y424D01*
X4820Y429D01*
X4904D01*
X4914Y418D01*
D02*
G37*
G36*
X5677Y1116D02*
X5675Y1114D01*
X5668Y1105D01*
X5667Y1100D01*
X5572D01*
X5566Y1099D01*
X5561Y1096D01*
X5536Y1071D01*
X5532Y1065D01*
X5531Y1059D01*
Y223D01*
X5513Y205D01*
X5481D01*
X5480Y210D01*
X5484Y213D01*
X5504Y233D01*
X5507Y238D01*
X5508Y244D01*
Y1111D01*
X5518Y1121D01*
X5676D01*
X5677Y1116D01*
D02*
G37*
G36*
X759Y1735D02*
Y1268D01*
X761Y1262D01*
X764Y1256D01*
X791Y1229D01*
X789Y1225D01*
X759D01*
X743Y1240D01*
Y1730D01*
X747Y1731D01*
X754Y1737D01*
X759Y1735D01*
D02*
G37*
G36*
X4107Y1513D02*
X4115Y1507D01*
X4119Y1505D01*
Y1457D01*
X4100Y1437D01*
X2758D01*
X2755Y1440D01*
X2756Y1446D01*
X2760Y1450D01*
X2767Y1458D01*
X2771Y1468D01*
X2772Y1478D01*
X2771Y1484D01*
X2776Y1487D01*
X2809Y1454D01*
X2815Y1450D01*
X2823Y1448D01*
X3016D01*
X3023Y1450D01*
X3030Y1454D01*
X3050Y1474D01*
X3055Y1481D01*
X3056Y1489D01*
Y1509D01*
X3061Y1511D01*
X3067Y1507D01*
X3070Y1505D01*
Y1484D01*
X3072Y1478D01*
X3075Y1473D01*
X3091Y1457D01*
X3096Y1454D01*
X3102Y1452D01*
X4059D01*
X4065Y1454D01*
X4071Y1457D01*
X4094Y1481D01*
X4098Y1486D01*
X4099Y1492D01*
Y1516D01*
X4104Y1518D01*
X4107Y1513D01*
D02*
G37*
G36*
X4697Y393D02*
X4804D01*
X4814Y383D01*
Y355D01*
X4810Y354D01*
X4802Y347D01*
X4796Y339D01*
X4792Y330D01*
X4790Y319D01*
Y300D01*
X4792Y289D01*
X4796Y280D01*
X4802Y271D01*
X4810Y265D01*
X4810Y265D01*
X4811Y260D01*
X4808Y256D01*
X4742D01*
X4741Y261D01*
X4750Y265D01*
X4759Y271D01*
X4765Y280D01*
X4769Y289D01*
X4770Y300D01*
Y319D01*
X4769Y330D01*
X4765Y339D01*
X4759Y347D01*
X4750Y354D01*
X4741Y358D01*
X4730Y359D01*
X4720Y358D01*
X4710Y354D01*
X4702Y348D01*
X4701Y348D01*
X4697Y349D01*
Y378D01*
X4696Y384D01*
X4693Y389D01*
X4693Y391D01*
X4696Y393D01*
X4697Y393D01*
D02*
G37*
G36*
X1007Y1731D02*
X1011Y1730D01*
Y1370D01*
X1012Y1364D01*
X1016Y1359D01*
X1039Y1336D01*
X1037Y1331D01*
X1016D01*
X997Y1351D01*
Y1733D01*
X1002Y1735D01*
X1007Y1731D01*
D02*
G37*
G36*
X4759Y1560D02*
Y1231D01*
X4753Y1225D01*
X4729D01*
X4727Y1230D01*
X4743Y1246D01*
X4747Y1252D01*
X4749Y1260D01*
Y1535D01*
X4747Y1543D01*
X4743Y1550D01*
X4727Y1565D01*
X4720Y1570D01*
X4713Y1571D01*
X4674D01*
X4670Y1581D01*
X4667Y1585D01*
X4669Y1590D01*
X4729D01*
X4759Y1560D01*
D02*
G37*
G36*
X4554Y779D02*
Y721D01*
X4516Y682D01*
X4512Y676D01*
X4510Y668D01*
Y654D01*
X4502Y647D01*
X4496Y639D01*
X4492Y630D01*
X4453D01*
X4445Y628D01*
X4438Y624D01*
X4416Y601D01*
X4412Y595D01*
X4410Y587D01*
Y512D01*
X4397D01*
Y433D01*
X4410D01*
Y333D01*
X4412Y326D01*
X4416Y319D01*
X4440Y295D01*
X4447Y291D01*
X4454Y289D01*
X4491D01*
Y260D01*
X4566D01*
Y177D01*
X4568Y171D01*
X4571Y166D01*
X4586Y151D01*
X4584Y146D01*
X4330D01*
X4315Y160D01*
Y678D01*
X4322Y685D01*
X4500D01*
X4506Y686D01*
X4511Y689D01*
X4537Y715D01*
X4540Y720D01*
X4541Y726D01*
Y777D01*
X4545Y778D01*
X4549Y782D01*
X4554Y779D01*
D02*
G37*
G36*
X5668Y1063D02*
X5674Y1057D01*
X5671Y1052D01*
X5630D01*
X5624Y1050D01*
X5618Y1047D01*
X5599Y1027D01*
X5595Y1022D01*
X5594Y1016D01*
Y184D01*
X5584Y174D01*
X5534D01*
X5534Y174D01*
X5532Y179D01*
X5559Y205D01*
X5562Y210D01*
X5563Y217D01*
Y1052D01*
X5579Y1068D01*
X5667D01*
X5668Y1063D01*
D02*
G37*
G36*
X6284Y15D02*
X5359D01*
X5359Y20D01*
X5361Y21D01*
X5370Y25D01*
X5379Y31D01*
X5385Y39D01*
X5389Y49D01*
X5390Y59D01*
X5389Y69D01*
X5385Y79D01*
X5379Y87D01*
X5370Y94D01*
X5361Y98D01*
X5350Y99D01*
X5340Y98D01*
X5330Y94D01*
X5322Y87D01*
X5316Y79D01*
X5312Y69D01*
X5311Y59D01*
X5307Y56D01*
X4136D01*
X4134Y60D01*
X4158Y84D01*
X4161Y89D01*
X4163Y95D01*
Y641D01*
X4166Y643D01*
X4175Y649D01*
X4181Y657D01*
X4185Y667D01*
X4186Y677D01*
X4185Y687D01*
X4181Y697D01*
X4175Y705D01*
X4166Y712D01*
X4157Y716D01*
X4146Y717D01*
X4136Y716D01*
X4127Y712D01*
X4118Y705D01*
X4112Y697D01*
X4108Y687D01*
X4107Y677D01*
X4108Y667D01*
X4112Y657D01*
X4118Y649D01*
X4127Y643D01*
X4130Y641D01*
Y102D01*
X4106Y77D01*
X4079D01*
X4077Y82D01*
X4086Y91D01*
X4090Y96D01*
X4091Y102D01*
Y1057D01*
X4090Y1063D01*
X4086Y1069D01*
X4067Y1088D01*
X4061Y1092D01*
X4055Y1093D01*
X3902D01*
X3901Y1097D01*
X3897Y1107D01*
X3891Y1115D01*
X3883Y1121D01*
X3873Y1125D01*
X3863Y1126D01*
X3852Y1125D01*
X3843Y1121D01*
X3834Y1115D01*
X3828Y1107D01*
X3824Y1097D01*
X3823Y1087D01*
Y1067D01*
X3824Y1057D01*
X3828Y1047D01*
X3834Y1039D01*
X3843Y1032D01*
X3852Y1028D01*
X3863Y1027D01*
X3873Y1028D01*
X3883Y1032D01*
X3891Y1039D01*
X3897Y1047D01*
X3901Y1057D01*
X3902Y1061D01*
X4048D01*
X4059Y1050D01*
Y109D01*
X4049Y99D01*
X2695D01*
X2666Y129D01*
Y761D01*
X2676Y771D01*
X2738D01*
X2740Y766D01*
X2735Y762D01*
X2728Y754D01*
X2724Y745D01*
X2723Y734D01*
X2724Y724D01*
X2728Y714D01*
X2735Y706D01*
X2743Y700D01*
X2753Y696D01*
X2763Y694D01*
X2783D01*
X2793Y696D01*
X2803Y700D01*
X2811Y706D01*
X2817Y714D01*
X2821Y724D01*
X2823Y734D01*
X2821Y745D01*
X2817Y754D01*
X2811Y762D01*
X2806Y766D01*
X2808Y771D01*
X2933D01*
X2939Y772D01*
X2945Y776D01*
X2968Y800D01*
X2972Y805D01*
X2973Y811D01*
Y1205D01*
X2972Y1211D01*
X2968Y1216D01*
X2933Y1252D01*
X2927Y1255D01*
X2921Y1256D01*
X2611D01*
X2609Y1260D01*
X2603Y1268D01*
X2595Y1275D01*
X2585Y1279D01*
X2575Y1280D01*
X2564Y1279D01*
X2555Y1275D01*
X2547Y1268D01*
X2540Y1260D01*
X2536Y1250D01*
X2535Y1240D01*
X2536Y1230D01*
X2540Y1220D01*
X2547Y1212D01*
X2555Y1206D01*
X2564Y1202D01*
X2575Y1200D01*
X2585Y1202D01*
X2595Y1206D01*
X2603Y1212D01*
X2609Y1220D01*
X2611Y1224D01*
X2915D01*
X2940Y1198D01*
Y818D01*
X2926Y804D01*
X2815D01*
X2813Y809D01*
X2817Y814D01*
X2821Y824D01*
X2823Y834D01*
X2821Y845D01*
X2817Y854D01*
X2811Y862D01*
X2808Y865D01*
X2810Y870D01*
X2854D01*
X2861Y871D01*
X2866Y874D01*
X2882Y890D01*
X2885Y895D01*
X2886Y902D01*
Y957D01*
X2885Y963D01*
X2882Y968D01*
X2854Y996D01*
X2849Y999D01*
X2843Y1000D01*
X2811D01*
X2810Y1005D01*
X2811Y1006D01*
X2817Y1014D01*
X2821Y1024D01*
X2822Y1029D01*
X2773D01*
X2724D01*
X2724Y1024D01*
X2728Y1014D01*
X2735Y1006D01*
X2736Y1005D01*
X2734Y1000D01*
X2676D01*
X2674Y1003D01*
Y1024D01*
X2672Y1030D01*
X2669Y1035D01*
X2658Y1046D01*
X2653Y1049D01*
X2647Y1050D01*
X2519D01*
X2517Y1054D01*
X2511Y1062D01*
X2503Y1069D01*
X2493Y1073D01*
X2483Y1074D01*
X2463D01*
X2453Y1073D01*
X2443Y1069D01*
X2435Y1062D01*
X2428Y1054D01*
X2424Y1045D01*
X2423Y1034D01*
X2424Y1024D01*
X2428Y1014D01*
X2435Y1006D01*
X2436Y1005D01*
X2434Y1000D01*
X2314D01*
X2296Y1019D01*
Y1236D01*
X2295Y1242D01*
X2291Y1248D01*
X2269Y1269D01*
X2269Y1269D01*
X2259Y1279D01*
X2254Y1283D01*
X2248Y1284D01*
X916D01*
X898Y1302D01*
Y1732D01*
X903Y1734D01*
X907Y1731D01*
X917Y1727D01*
X922Y1727D01*
Y1776D01*
Y1825D01*
X917Y1824D01*
X907Y1820D01*
X903Y1817D01*
X898Y1819D01*
Y1887D01*
X904Y1893D01*
X1096D01*
X1111Y1878D01*
Y1821D01*
X1107Y1820D01*
X1103Y1817D01*
X1098Y1819D01*
Y1828D01*
X1096Y1835D01*
X1092Y1842D01*
X1065Y1869D01*
X1059Y1873D01*
X1051Y1875D01*
X996D01*
X988Y1873D01*
X982Y1869D01*
X962Y1849D01*
X958Y1842D01*
X956Y1835D01*
Y1819D01*
X951Y1817D01*
X947Y1820D01*
X937Y1824D01*
X932Y1825D01*
Y1776D01*
Y1727D01*
X937Y1727D01*
X947Y1731D01*
X951Y1734D01*
X956Y1732D01*
Y1342D01*
X958Y1335D01*
X962Y1328D01*
X994Y1297D01*
X1000Y1292D01*
X1008Y1291D01*
X2318D01*
X2338Y1271D01*
Y1203D01*
X2330Y1197D01*
X2324Y1188D01*
X2320Y1179D01*
X2318Y1169D01*
X2320Y1158D01*
X2324Y1149D01*
X2330Y1140D01*
X2338Y1134D01*
X2348Y1130D01*
X2358Y1129D01*
X2369Y1130D01*
X2378Y1134D01*
X2386Y1140D01*
X2393Y1149D01*
X2397Y1158D01*
X2398Y1169D01*
X2397Y1179D01*
X2393Y1188D01*
X2386Y1197D01*
X2378Y1203D01*
Y1271D01*
X2398Y1291D01*
X3228D01*
X3234Y1285D01*
X3228Y1277D01*
X3223Y1267D01*
X3222Y1256D01*
X3223Y1245D01*
X3228Y1235D01*
X3234Y1226D01*
X3243Y1220D01*
X3244Y1219D01*
Y1122D01*
X3243Y1121D01*
X3234Y1115D01*
X3228Y1107D01*
X3224Y1097D01*
X3194D01*
Y1116D01*
X3131D01*
Y1037D01*
X3194D01*
Y1057D01*
X3224D01*
X3228Y1047D01*
X3234Y1039D01*
X3243Y1032D01*
X3252Y1028D01*
X3263Y1027D01*
X3273Y1028D01*
X3283Y1032D01*
X3291Y1039D01*
X3297Y1047D01*
X3301Y1057D01*
X3302Y1067D01*
Y1087D01*
X3301Y1097D01*
X3297Y1107D01*
X3291Y1115D01*
X3284Y1120D01*
Y1219D01*
X3285Y1220D01*
X3293Y1226D01*
X3300Y1235D01*
X3304Y1245D01*
X3306Y1256D01*
X3304Y1267D01*
X3300Y1277D01*
X3293Y1286D01*
X3293Y1287D01*
X3297Y1291D01*
X3633D01*
X3635Y1286D01*
X3634Y1286D01*
X3628Y1277D01*
X3626Y1272D01*
X3390D01*
X3384Y1271D01*
X3378Y1267D01*
X3351Y1240D01*
X3347Y1235D01*
X3346Y1228D01*
Y1123D01*
X3343Y1121D01*
X3334Y1115D01*
X3328Y1107D01*
X3324Y1097D01*
X3323Y1087D01*
Y1067D01*
X3324Y1057D01*
X3328Y1047D01*
X3334Y1039D01*
X3343Y1032D01*
X3346Y1031D01*
Y999D01*
X3328Y981D01*
X3075D01*
X3069Y980D01*
X3063Y976D01*
X3048Y960D01*
X3044Y955D01*
X3043Y949D01*
Y665D01*
X3029Y650D01*
X2819D01*
X2817Y654D01*
X2811Y662D01*
X2803Y669D01*
X2793Y673D01*
X2783Y674D01*
X2763D01*
X2753Y673D01*
X2743Y669D01*
X2735Y662D01*
X2728Y654D01*
X2724Y645D01*
X2723Y634D01*
X2724Y624D01*
X2728Y614D01*
X2735Y606D01*
X2743Y600D01*
X2753Y596D01*
X2763Y594D01*
X2783D01*
X2793Y596D01*
X2803Y600D01*
X2811Y606D01*
X2817Y614D01*
X2819Y618D01*
X3035D01*
X3042Y619D01*
X3047Y623D01*
X3071Y646D01*
X3074Y652D01*
X3075Y658D01*
Y942D01*
X3082Y948D01*
X3335D01*
X3341Y950D01*
X3346Y953D01*
X3374Y981D01*
X3377Y986D01*
X3378Y992D01*
Y1031D01*
X3383Y1032D01*
X3388Y1037D01*
X3393Y1034D01*
Y913D01*
X3348Y868D01*
X3344Y862D01*
X3342Y854D01*
Y821D01*
X3334Y815D01*
X3328Y807D01*
X3324Y797D01*
X3323Y787D01*
Y767D01*
X3324Y757D01*
X3328Y747D01*
X3334Y739D01*
X3343Y732D01*
X3352Y728D01*
X3363Y727D01*
X3373Y728D01*
X3383Y732D01*
X3391Y739D01*
X3397Y747D01*
X3401Y757D01*
X3402Y767D01*
Y787D01*
X3401Y797D01*
X3397Y807D01*
X3391Y815D01*
X3383Y821D01*
Y846D01*
X3428Y890D01*
X3432Y897D01*
X3433Y905D01*
Y1033D01*
X3438Y1036D01*
X3443Y1032D01*
X3452Y1028D01*
X3463Y1027D01*
X3473Y1028D01*
X3483Y1032D01*
X3491Y1039D01*
X3492Y1038D01*
X3496Y1037D01*
Y953D01*
X3497Y947D01*
X3500Y941D01*
X3546Y895D01*
Y823D01*
X3543Y821D01*
X3534Y815D01*
X3528Y807D01*
X3524Y797D01*
X3523Y787D01*
Y767D01*
X3524Y757D01*
X3528Y747D01*
X3534Y739D01*
X3543Y732D01*
X3546Y731D01*
Y664D01*
X3545Y663D01*
X3538Y658D01*
X3533Y651D01*
X3529Y643D01*
X3528Y634D01*
X3529Y625D01*
X3533Y617D01*
X3538Y610D01*
X3545Y604D01*
X3546Y604D01*
Y186D01*
X3547Y180D01*
X3551Y174D01*
X3579Y146D01*
X3584Y142D01*
X3591Y141D01*
X3740D01*
X3746Y142D01*
X3752Y146D01*
X3775Y170D01*
X3779Y175D01*
X3780Y181D01*
Y196D01*
X3785Y198D01*
X3793Y204D01*
X3800Y213D01*
X3804Y223D01*
X3806Y234D01*
X3804Y245D01*
X3800Y255D01*
X3793Y263D01*
X3785Y270D01*
X3775Y274D01*
X3764Y276D01*
X3753Y274D01*
X3743Y270D01*
X3734Y263D01*
X3728Y255D01*
X3723Y245D01*
X3722Y234D01*
X3723Y223D01*
X3728Y213D01*
X3734Y204D01*
X3743Y198D01*
X3748Y196D01*
Y188D01*
X3733Y174D01*
X3597D01*
X3578Y193D01*
Y534D01*
X3579Y536D01*
Y604D01*
X3579Y604D01*
X3586Y610D01*
X3592Y617D01*
X3595Y625D01*
X3596Y634D01*
X3595Y643D01*
X3592Y651D01*
X3586Y658D01*
X3579Y663D01*
X3579Y663D01*
Y731D01*
X3583Y732D01*
X3591Y739D01*
X3597Y747D01*
X3601Y757D01*
X3602Y767D01*
Y787D01*
X3601Y797D01*
X3597Y807D01*
X3591Y815D01*
X3583Y821D01*
X3579Y823D01*
Y902D01*
X3578Y908D01*
X3574Y913D01*
X3528Y959D01*
Y1039D01*
X3533Y1041D01*
X3534Y1039D01*
X3543Y1032D01*
X3546Y1031D01*
Y993D01*
X3548Y986D01*
X3551Y981D01*
X3575Y957D01*
X3580Y954D01*
X3587Y952D01*
X3740D01*
X3746Y954D01*
X3752Y957D01*
X3774Y979D01*
X3778Y985D01*
X3779Y991D01*
Y1031D01*
X3783Y1032D01*
X3791Y1039D01*
X3797Y1047D01*
X3801Y1057D01*
X3802Y1067D01*
Y1087D01*
X3801Y1097D01*
X3797Y1107D01*
X3791Y1115D01*
X3783Y1121D01*
X3779Y1123D01*
Y1291D01*
X3798Y1311D01*
X4578D01*
X4580Y1306D01*
X4586Y1297D01*
X4595Y1291D01*
X4605Y1286D01*
X4616Y1285D01*
X4627Y1286D01*
X4637Y1291D01*
X4645Y1297D01*
X4652Y1306D01*
X4656Y1316D01*
X4658Y1327D01*
X4656Y1338D01*
X4652Y1348D01*
X4645Y1356D01*
X4637Y1363D01*
X4627Y1367D01*
X4616Y1369D01*
X4605Y1367D01*
X4595Y1363D01*
X4586Y1356D01*
X4580Y1348D01*
X4578Y1343D01*
X3791D01*
X3785Y1342D01*
X3780Y1338D01*
X3762Y1320D01*
X3757Y1322D01*
Y1334D01*
X3756Y1340D01*
X3752Y1345D01*
X3747Y1349D01*
X3741Y1350D01*
X3712D01*
X3710Y1352D01*
X3704Y1353D01*
X3277D01*
X3271Y1352D01*
X3268Y1350D01*
X3255D01*
X3253Y1352D01*
X3247Y1353D01*
X2379D01*
X2373Y1352D01*
X2371Y1350D01*
X2346D01*
X2344Y1352D01*
X2337Y1353D01*
X1068D01*
X1043Y1377D01*
Y1730D01*
X1047Y1731D01*
X1053Y1735D01*
X1058Y1733D01*
Y1706D01*
X1059Y1698D01*
X1063Y1691D01*
X1080Y1675D01*
X1087Y1670D01*
X1094Y1669D01*
X1209D01*
X1216Y1670D01*
X1223Y1675D01*
X1241Y1693D01*
X1246Y1700D01*
X1247Y1707D01*
Y1731D01*
X1255Y1738D01*
X1262Y1746D01*
X1266Y1755D01*
X1296D01*
Y1736D01*
X1359D01*
Y1815D01*
X1347D01*
Y1901D01*
X1359Y1913D01*
X1382D01*
X1390Y1914D01*
X1396Y1919D01*
X1543Y2066D01*
X1543Y2065D01*
X1553Y2061D01*
X1563Y2060D01*
X1573Y2061D01*
X1583Y2065D01*
X1584Y2066D01*
X1680D01*
Y2051D01*
X1682Y2042D01*
X1687Y2034D01*
X1695Y2029D01*
X1704Y2027D01*
X1714Y2029D01*
X1721Y2034D01*
X1727Y2042D01*
X1727Y2042D01*
X1732D01*
X1732Y2042D01*
X1737Y2034D01*
X1745Y2029D01*
X1754Y2027D01*
X1764Y2029D01*
X1771Y2034D01*
X1777Y2042D01*
X1777Y2042D01*
X1782D01*
X1782Y2042D01*
X1787Y2034D01*
X1788Y2033D01*
Y1988D01*
X1785Y1985D01*
X1626D01*
X1620Y1983D01*
X1615Y1980D01*
X1595Y1960D01*
X1591Y1955D01*
X1590Y1949D01*
Y1453D01*
X1591Y1447D01*
X1595Y1441D01*
X1622Y1414D01*
X1628Y1410D01*
X1634Y1409D01*
X2173D01*
X2179Y1410D01*
X2185Y1414D01*
X2211Y1440D01*
X2214Y1445D01*
X2215Y1451D01*
Y1508D01*
X2219Y1510D01*
X2227Y1516D01*
X2234Y1525D01*
X2238Y1534D01*
X2239Y1544D01*
Y1564D01*
X2238Y1574D01*
X2234Y1584D01*
X2227Y1592D01*
X2219Y1599D01*
X2210Y1603D01*
X2199Y1604D01*
X2189Y1603D01*
X2179Y1599D01*
X2171Y1592D01*
X2165Y1584D01*
X2161Y1574D01*
X2159Y1564D01*
Y1544D01*
X2161Y1534D01*
X2165Y1525D01*
X2171Y1516D01*
X2179Y1510D01*
X2183Y1508D01*
Y1458D01*
X2167Y1441D01*
X1641D01*
X1623Y1459D01*
Y1942D01*
X1633Y1952D01*
X1750D01*
X1752Y1948D01*
X1741Y1937D01*
X1737Y1931D01*
X1736Y1925D01*
Y1890D01*
X1731Y1888D01*
X1727Y1892D01*
X1719Y1899D01*
X1710Y1903D01*
X1704Y1903D01*
Y1854D01*
Y1805D01*
X1710Y1806D01*
X1719Y1810D01*
X1727Y1816D01*
X1731Y1821D01*
X1736Y1819D01*
Y1684D01*
X1733Y1682D01*
X1717D01*
X1710Y1680D01*
X1705Y1677D01*
X1688Y1659D01*
X1684Y1654D01*
X1683Y1648D01*
Y1600D01*
X1679Y1599D01*
X1671Y1592D01*
X1665Y1584D01*
X1661Y1574D01*
X1659Y1564D01*
Y1544D01*
X1661Y1534D01*
X1665Y1525D01*
X1671Y1516D01*
X1679Y1510D01*
X1689Y1506D01*
X1699Y1505D01*
X1710Y1506D01*
X1719Y1510D01*
X1727Y1516D01*
X1734Y1525D01*
X1738Y1534D01*
X1739Y1544D01*
Y1564D01*
X1738Y1574D01*
X1734Y1584D01*
X1727Y1592D01*
X1719Y1599D01*
X1715Y1600D01*
Y1641D01*
X1723Y1649D01*
X1740D01*
X1746Y1650D01*
X1752Y1654D01*
X1763Y1666D01*
X1767Y1671D01*
X1768Y1677D01*
Y1812D01*
X1773Y1815D01*
X1779Y1810D01*
X1783Y1808D01*
Y1646D01*
X1784Y1639D01*
X1788Y1634D01*
X1807Y1615D01*
X1813Y1611D01*
X1819Y1610D01*
X1832D01*
X1834Y1607D01*
Y1592D01*
X1829Y1590D01*
X1827Y1592D01*
X1819Y1599D01*
X1810Y1603D01*
X1799Y1604D01*
X1789Y1603D01*
X1779Y1599D01*
X1771Y1592D01*
X1765Y1584D01*
X1761Y1574D01*
X1759Y1564D01*
Y1544D01*
X1761Y1534D01*
X1765Y1525D01*
X1771Y1516D01*
X1779Y1510D01*
X1783Y1508D01*
Y1472D01*
X1784Y1466D01*
X1788Y1461D01*
X1796Y1453D01*
X1801Y1450D01*
X1807Y1448D01*
X2039D01*
X2046Y1450D01*
X2051Y1453D01*
X2059Y1461D01*
X2062Y1466D01*
X2063Y1472D01*
Y1518D01*
X2068Y1520D01*
X2071Y1516D01*
X2079Y1510D01*
X2089Y1506D01*
X2099Y1505D01*
X2110Y1506D01*
X2119Y1510D01*
X2127Y1516D01*
X2134Y1525D01*
X2138Y1534D01*
X2139Y1544D01*
Y1564D01*
X2138Y1574D01*
X2134Y1584D01*
X2127Y1592D01*
X2119Y1599D01*
X2110Y1603D01*
X2099Y1604D01*
X2089Y1603D01*
X2079Y1599D01*
X2071Y1592D01*
X2068Y1589D01*
X2063Y1591D01*
Y1643D01*
X2078Y1657D01*
X2232D01*
X2238Y1658D01*
X2244Y1662D01*
X2263Y1681D01*
X2267Y1687D01*
X2268Y1693D01*
Y1812D01*
X2273Y1815D01*
X2279Y1810D01*
X2283Y1808D01*
Y1787D01*
X2284Y1781D01*
X2288Y1776D01*
X2307Y1756D01*
X2313Y1753D01*
X2319Y1751D01*
X2866D01*
X2872Y1753D01*
X2878Y1756D01*
X2897Y1776D01*
X2901Y1781D01*
X2902Y1787D01*
Y1907D01*
X2916Y1921D01*
X3056D01*
X3070Y1907D01*
Y1897D01*
X3067Y1896D01*
X3058Y1889D01*
X3052Y1881D01*
X3048Y1871D01*
X3047Y1861D01*
Y1841D01*
X3048Y1831D01*
X3052Y1821D01*
X3058Y1813D01*
X3067Y1807D01*
X3076Y1803D01*
X3087Y1801D01*
X3097Y1803D01*
X3107Y1807D01*
X3111Y1810D01*
X3116Y1808D01*
Y1675D01*
X3117Y1669D01*
X3121Y1664D01*
X3126Y1658D01*
X3132Y1654D01*
X3138Y1653D01*
X3803D01*
X3805Y1648D01*
X3803Y1646D01*
X3796Y1638D01*
X3606D01*
X3599Y1637D01*
X3592Y1632D01*
X3587Y1627D01*
X3585Y1628D01*
X3579Y1633D01*
X3571Y1634D01*
X3059D01*
X3051Y1633D01*
X3045Y1628D01*
X3022Y1605D01*
X3017Y1599D01*
X3016Y1594D01*
X3011Y1592D01*
X3007Y1596D01*
X2997Y1600D01*
X2987Y1601D01*
X2976Y1600D01*
X2967Y1596D01*
X2958Y1589D01*
X2952Y1581D01*
X2948Y1571D01*
X2948Y1567D01*
X2814D01*
X2808Y1574D01*
Y1709D01*
X2806Y1715D01*
X2803Y1720D01*
X2783Y1740D01*
X2778Y1743D01*
X2772Y1745D01*
X2323D01*
X2317Y1743D01*
X2311Y1740D01*
X2288Y1716D01*
X2284Y1711D01*
X2283Y1705D01*
Y1600D01*
X2279Y1599D01*
X2271Y1592D01*
X2265Y1584D01*
X2261Y1574D01*
X2259Y1564D01*
Y1544D01*
X2261Y1534D01*
X2265Y1525D01*
X2271Y1516D01*
X2279Y1510D01*
X2289Y1506D01*
X2299Y1505D01*
X2310Y1506D01*
X2319Y1510D01*
X2327Y1516D01*
X2334Y1525D01*
X2338Y1534D01*
X2339Y1544D01*
Y1564D01*
X2338Y1574D01*
X2334Y1584D01*
X2327Y1592D01*
X2319Y1599D01*
X2315Y1600D01*
Y1698D01*
X2330Y1712D01*
X2765D01*
X2775Y1702D01*
Y1567D01*
X2776Y1561D01*
X2780Y1555D01*
X2796Y1540D01*
X2801Y1536D01*
X2807Y1535D01*
X2948D01*
X2948Y1531D01*
X2952Y1521D01*
X2958Y1513D01*
X2967Y1507D01*
X2976Y1503D01*
X2987Y1501D01*
X2997Y1503D01*
X3007Y1507D01*
X3011Y1510D01*
X3016Y1508D01*
Y1497D01*
X3007Y1489D01*
X2831D01*
X2760Y1560D01*
Y1634D01*
X2759Y1642D01*
X2754Y1648D01*
X2727Y1676D01*
X2720Y1680D01*
X2713Y1682D01*
X2531D01*
X2524Y1680D01*
X2517Y1676D01*
X2485Y1643D01*
X2481Y1637D01*
X2479Y1629D01*
Y1594D01*
X2468D01*
Y1575D01*
X2438D01*
X2434Y1584D01*
X2427Y1592D01*
X2419Y1599D01*
X2410Y1603D01*
X2399Y1604D01*
X2389Y1603D01*
X2379Y1599D01*
X2371Y1592D01*
X2365Y1584D01*
X2361Y1574D01*
X2359Y1564D01*
Y1544D01*
X2361Y1534D01*
X2365Y1525D01*
X2371Y1516D01*
X2372Y1516D01*
X2372Y1511D01*
X2368Y1507D01*
X2358Y1508D01*
X2348Y1507D01*
X2338Y1503D01*
X2330Y1497D01*
X2324Y1488D01*
X2320Y1479D01*
X2318Y1469D01*
X2320Y1458D01*
X2324Y1449D01*
X2330Y1440D01*
X2338Y1434D01*
X2348Y1430D01*
X2358Y1429D01*
X2369Y1430D01*
X2378Y1434D01*
X2386Y1440D01*
X2393Y1449D01*
X2397Y1458D01*
X2398Y1469D01*
X2397Y1478D01*
X2414Y1495D01*
X2418Y1502D01*
X2419Y1509D01*
Y1510D01*
X2427Y1516D01*
X2434Y1525D01*
X2438Y1534D01*
X2468D01*
Y1515D01*
X2531D01*
Y1594D01*
X2519D01*
Y1621D01*
X2540Y1641D01*
X2704D01*
X2720Y1625D01*
Y1551D01*
X2721Y1543D01*
X2726Y1537D01*
X2741Y1522D01*
X2739Y1517D01*
X2732Y1518D01*
X2722Y1516D01*
X2712Y1512D01*
X2704Y1506D01*
X2698Y1498D01*
X2694Y1488D01*
X2692Y1478D01*
X2694Y1468D01*
X2698Y1458D01*
X2704Y1450D01*
X2712Y1443D01*
X2717Y1441D01*
Y1436D01*
X2719Y1429D01*
X2722Y1424D01*
X2737Y1410D01*
X2742Y1406D01*
X2748Y1405D01*
X4106D01*
X4113Y1406D01*
X4118Y1410D01*
X4147Y1439D01*
X4150Y1444D01*
X4152Y1450D01*
Y1505D01*
X4155Y1507D01*
X4160Y1510D01*
X4165Y1508D01*
Y1441D01*
X4166Y1435D01*
X4170Y1429D01*
X4189Y1410D01*
X4195Y1406D01*
X4201Y1405D01*
X4413D01*
X4420Y1406D01*
X4425Y1410D01*
X4447Y1432D01*
X4450Y1437D01*
X4452Y1443D01*
Y1505D01*
X4455Y1507D01*
X4463Y1513D01*
X4468Y1512D01*
Y1408D01*
X4458Y1398D01*
X1534D01*
X1517Y1415D01*
Y1905D01*
X1521Y1906D01*
X1529Y1913D01*
X1535Y1921D01*
X1539Y1931D01*
X1541Y1941D01*
X1539Y1951D01*
X1535Y1961D01*
X1529Y1969D01*
X1521Y1975D01*
X1511Y1979D01*
X1501Y1981D01*
X1490Y1979D01*
X1481Y1975D01*
X1473Y1969D01*
X1466Y1961D01*
X1462Y1951D01*
X1461Y1941D01*
X1462Y1931D01*
X1466Y1921D01*
X1473Y1913D01*
X1481Y1906D01*
X1485Y1905D01*
Y1409D01*
X1486Y1402D01*
X1489Y1397D01*
X1516Y1370D01*
X1521Y1367D01*
X1528Y1366D01*
X4465D01*
X4471Y1367D01*
X4476Y1370D01*
X4496Y1390D01*
X4499Y1395D01*
X4500Y1402D01*
Y1514D01*
X4505Y1515D01*
X4507Y1513D01*
X4515Y1507D01*
X4525Y1503D01*
X4535Y1501D01*
X4546Y1503D01*
X4555Y1507D01*
X4564Y1513D01*
X4570Y1521D01*
X4574Y1531D01*
X4597D01*
X4601Y1521D01*
X4607Y1513D01*
X4615Y1507D01*
X4625Y1503D01*
X4635Y1501D01*
X4646Y1503D01*
X4655Y1507D01*
X4664Y1513D01*
X4670Y1521D01*
X4674Y1531D01*
X4704D01*
X4708Y1527D01*
Y1268D01*
X4700Y1260D01*
X4453D01*
X4445Y1259D01*
X4438Y1254D01*
X4411Y1227D01*
X4407Y1220D01*
X4405Y1213D01*
Y1167D01*
X4397Y1161D01*
X4391Y1153D01*
X4387Y1143D01*
X4360D01*
X4343Y1160D01*
Y1193D01*
X4342Y1201D01*
X4337Y1207D01*
X4312Y1232D01*
X4305Y1237D01*
X4298Y1238D01*
X3865D01*
X3859Y1246D01*
X3851Y1253D01*
X3841Y1257D01*
X3831Y1258D01*
X3820Y1257D01*
X3811Y1253D01*
X3803Y1246D01*
X3796Y1238D01*
X3792Y1228D01*
X3791Y1218D01*
X3792Y1208D01*
X3796Y1198D01*
X3803Y1190D01*
X3811Y1184D01*
X3820Y1180D01*
X3831Y1178D01*
X3841Y1180D01*
X3851Y1184D01*
X3859Y1190D01*
X3865Y1198D01*
X4289D01*
X4303Y1185D01*
Y1151D01*
X4304Y1143D01*
X4309Y1137D01*
X4323Y1123D01*
X4312Y1113D01*
X4308Y1106D01*
X4307Y1098D01*
Y768D01*
X4308Y760D01*
X4312Y753D01*
X4328Y738D01*
X4335Y733D01*
X4343Y732D01*
X4465D01*
X4472Y733D01*
X4479Y738D01*
X4490Y749D01*
X4495Y755D01*
X4496Y763D01*
Y779D01*
X4501Y782D01*
X4505Y778D01*
X4509Y777D01*
Y733D01*
X4493Y717D01*
X4315D01*
X4309Y716D01*
X4303Y712D01*
X4288Y697D01*
X4284Y691D01*
X4283Y685D01*
Y154D01*
X4284Y147D01*
X4288Y142D01*
X4311Y118D01*
X4317Y115D01*
X4323Y114D01*
X5783D01*
X5790Y115D01*
X5795Y118D01*
X5820Y144D01*
X5824Y149D01*
X5825Y155D01*
Y944D01*
X5834Y948D01*
X5842Y955D01*
X5849Y963D01*
X5853Y973D01*
X5854Y984D01*
X5853Y995D01*
X5849Y1005D01*
X5842Y1014D01*
X5834Y1020D01*
X5823Y1025D01*
X5822Y1025D01*
X5822Y1025D01*
X5821Y1030D01*
X5824Y1035D01*
X5825Y1041D01*
Y1044D01*
X5834Y1048D01*
X5842Y1055D01*
X5849Y1063D01*
X5853Y1073D01*
X5854Y1084D01*
X5853Y1095D01*
X5849Y1105D01*
X5842Y1114D01*
X5834Y1120D01*
X5823Y1125D01*
X5813Y1126D01*
X5805D01*
X5801Y1126D01*
X5799Y1130D01*
X5811Y1142D01*
X5813D01*
X5823Y1144D01*
X5834Y1148D01*
X5842Y1155D01*
X5849Y1163D01*
X5853Y1173D01*
X5854Y1184D01*
X5853Y1195D01*
X5849Y1205D01*
X5842Y1214D01*
X5834Y1220D01*
X5823Y1225D01*
X5813Y1226D01*
X5805D01*
X5795Y1225D01*
X5793Y1227D01*
X5792Y1229D01*
X5805Y1242D01*
X5813D01*
X5823Y1244D01*
X5834Y1248D01*
X5842Y1255D01*
X5849Y1263D01*
X5853Y1273D01*
X5854Y1284D01*
X5853Y1295D01*
X5849Y1305D01*
X5842Y1314D01*
X5834Y1320D01*
X5823Y1325D01*
X5813Y1326D01*
X5805D01*
X5794Y1325D01*
X5784Y1320D01*
X5775Y1314D01*
X5768Y1305D01*
X5764Y1295D01*
X5763Y1284D01*
X5764Y1273D01*
X5768Y1263D01*
X5774Y1257D01*
X5765Y1248D01*
X5742D01*
X5740Y1253D01*
X5742Y1255D01*
X5749Y1263D01*
X5753Y1273D01*
X5754Y1284D01*
X5753Y1295D01*
X5749Y1305D01*
X5742Y1314D01*
X5734Y1320D01*
X5723Y1325D01*
X5713Y1326D01*
X5705D01*
X5694Y1325D01*
X5684Y1320D01*
X5675Y1314D01*
X5668Y1305D01*
X5667Y1300D01*
X5367D01*
X5361Y1299D01*
X5355Y1296D01*
X5335Y1275D01*
X5331Y1270D01*
X5330Y1264D01*
Y713D01*
X5327Y712D01*
X5318Y705D01*
X5312Y697D01*
X5308Y687D01*
X5307Y677D01*
X5308Y667D01*
X5312Y657D01*
X5318Y649D01*
X5327Y643D01*
X5330Y641D01*
Y566D01*
X5316Y552D01*
X5152D01*
X5147Y558D01*
Y564D01*
X5150Y565D01*
X5159Y571D01*
X5165Y580D01*
X5169Y589D01*
X5170Y600D01*
Y619D01*
X5169Y630D01*
X5165Y639D01*
X5159Y647D01*
X5150Y654D01*
X5141Y658D01*
X5130Y659D01*
X5120Y658D01*
X5112Y654D01*
X5109Y659D01*
X5114Y662D01*
X5134Y681D01*
X5137Y687D01*
X5138Y693D01*
Y992D01*
X5137Y998D01*
X5134Y1004D01*
X5118Y1019D01*
X5113Y1023D01*
X5106Y1024D01*
X4948D01*
X4941Y1030D01*
Y1077D01*
X4945Y1078D01*
X4953Y1085D01*
X4960Y1093D01*
X4964Y1103D01*
X4965Y1113D01*
Y1133D01*
X4964Y1143D01*
X4960Y1153D01*
X4953Y1161D01*
X4945Y1167D01*
X4936Y1171D01*
X4925Y1173D01*
X4915Y1171D01*
X4905Y1167D01*
X4899Y1163D01*
X4894Y1165D01*
Y1186D01*
X4900Y1192D01*
X5005D01*
X5009Y1189D01*
Y1169D01*
X5005Y1167D01*
X4997Y1161D01*
X4991Y1153D01*
X4987Y1143D01*
X4985Y1133D01*
Y1113D01*
X4987Y1103D01*
X4991Y1093D01*
X4997Y1085D01*
X5005Y1078D01*
X5015Y1074D01*
X5025Y1073D01*
X5036Y1074D01*
X5045Y1078D01*
X5053Y1085D01*
X5060Y1093D01*
X5064Y1103D01*
X5065Y1113D01*
Y1133D01*
X5064Y1143D01*
X5060Y1153D01*
X5053Y1161D01*
X5045Y1167D01*
X5041Y1169D01*
Y1195D01*
X5040Y1201D01*
X5037Y1207D01*
X5023Y1220D01*
X5018Y1224D01*
X5012Y1225D01*
X4894D01*
X4887Y1224D01*
X4882Y1220D01*
X4866Y1204D01*
X4863Y1199D01*
X4862Y1193D01*
Y1158D01*
X4857Y1157D01*
X4853Y1161D01*
X4845Y1167D01*
X4841Y1169D01*
Y1220D01*
X4861Y1240D01*
X5190D01*
X5214Y1216D01*
Y655D01*
X5210Y654D01*
X5202Y647D01*
X5196Y639D01*
X5192Y630D01*
X5190Y619D01*
Y600D01*
X5192Y589D01*
X5196Y580D01*
X5202Y571D01*
X5210Y565D01*
X5220Y561D01*
X5230Y560D01*
X5241Y561D01*
X5250Y565D01*
X5259Y571D01*
X5265Y580D01*
X5269Y589D01*
X5270Y600D01*
Y619D01*
X5269Y630D01*
X5265Y639D01*
X5259Y647D01*
X5250Y654D01*
X5247Y655D01*
Y1222D01*
X5245Y1229D01*
X5242Y1234D01*
X5208Y1267D01*
X5203Y1271D01*
X5197Y1272D01*
X4854D01*
X4848Y1271D01*
X4843Y1267D01*
X4814Y1238D01*
X4810Y1233D01*
X4809Y1227D01*
Y1169D01*
X4805Y1167D01*
X4797Y1161D01*
X4791Y1153D01*
X4787Y1143D01*
X4785Y1133D01*
Y1113D01*
X4787Y1103D01*
X4791Y1093D01*
X4797Y1085D01*
X4805Y1078D01*
X4815Y1074D01*
X4825Y1073D01*
X4836Y1074D01*
X4845Y1078D01*
X4853Y1085D01*
X4857Y1089D01*
X4862Y1087D01*
Y967D01*
X4855Y961D01*
X4740D01*
X4734Y960D01*
X4729Y956D01*
X4714Y941D01*
X4710Y936D01*
X4709Y930D01*
Y869D01*
X4705Y867D01*
X4697Y861D01*
X4691Y853D01*
X4687Y843D01*
X4685Y833D01*
Y813D01*
X4687Y803D01*
X4691Y793D01*
X4697Y785D01*
X4705Y778D01*
X4715Y774D01*
X4725Y773D01*
X4736Y774D01*
X4745Y778D01*
X4753Y785D01*
X4760Y793D01*
X4764Y803D01*
X4765Y813D01*
Y833D01*
X4764Y843D01*
X4760Y853D01*
X4753Y861D01*
X4745Y867D01*
X4741Y869D01*
Y923D01*
X4747Y929D01*
X4862D01*
X4868Y930D01*
X4874Y933D01*
X4889Y949D01*
X4893Y954D01*
X4894Y961D01*
Y1081D01*
X4899Y1083D01*
X4905Y1078D01*
X4909Y1077D01*
Y1024D01*
X4910Y1017D01*
X4914Y1012D01*
X4929Y996D01*
X4935Y993D01*
X4941Y992D01*
X5100D01*
X5106Y985D01*
Y700D01*
X5096Y689D01*
X4941D01*
X4935Y688D01*
X4929Y685D01*
X4919Y674D01*
X4915Y669D01*
X4914Y663D01*
Y655D01*
X4910Y654D01*
X4902Y647D01*
X4896Y639D01*
X4892Y630D01*
X4890Y619D01*
Y600D01*
X4892Y589D01*
X4896Y580D01*
X4902Y571D01*
X4910Y565D01*
X4914Y564D01*
Y519D01*
X4915Y512D01*
X4919Y507D01*
X4937Y489D01*
X4943Y485D01*
X4949Y484D01*
X5386D01*
X5392Y485D01*
X5397Y489D01*
X5413Y504D01*
X5417Y510D01*
X5418Y516D01*
Y1210D01*
X5423Y1215D01*
X5670D01*
X5673Y1210D01*
X5668Y1205D01*
X5667Y1200D01*
X5476D01*
X5469Y1199D01*
X5464Y1196D01*
X5437Y1169D01*
X5434Y1164D01*
X5433Y1157D01*
Y393D01*
X5415Y375D01*
X5386D01*
X5385Y379D01*
X5379Y387D01*
X5370Y394D01*
X5367Y395D01*
Y421D01*
X5365Y427D01*
X5362Y433D01*
X5350Y445D01*
X5345Y448D01*
X5339Y449D01*
X5157D01*
X5151Y448D01*
X5146Y445D01*
X5119Y417D01*
X5115Y412D01*
X5114Y406D01*
Y355D01*
X5110Y354D01*
X5102Y347D01*
X5096Y339D01*
X5092Y330D01*
X5090Y319D01*
Y300D01*
X5092Y289D01*
X5096Y280D01*
X5102Y271D01*
X5110Y265D01*
X5120Y261D01*
X5130Y260D01*
X5141Y261D01*
X5150Y265D01*
X5159Y271D01*
X5165Y280D01*
X5169Y289D01*
X5170Y300D01*
Y319D01*
X5169Y330D01*
X5165Y339D01*
X5159Y347D01*
X5150Y354D01*
X5147Y355D01*
Y399D01*
X5164Y417D01*
X5332D01*
X5334Y415D01*
Y395D01*
X5330Y394D01*
X5322Y387D01*
X5316Y379D01*
X5312Y369D01*
X5311Y359D01*
X5312Y349D01*
X5316Y339D01*
X5322Y331D01*
X5330Y325D01*
X5340Y321D01*
X5350Y319D01*
X5361Y321D01*
X5370Y325D01*
X5379Y331D01*
X5385Y339D01*
X5386Y343D01*
X5422D01*
X5428Y344D01*
X5434Y348D01*
X5460Y374D01*
X5464Y380D01*
X5465Y386D01*
Y1151D01*
X5482Y1168D01*
X5667D01*
X5668Y1163D01*
X5673Y1158D01*
X5670Y1153D01*
X5511D01*
X5505Y1152D01*
X5499Y1148D01*
X5481Y1130D01*
X5477Y1124D01*
X5476Y1118D01*
Y251D01*
X5466Y241D01*
X4952D01*
X4947Y246D01*
Y264D01*
X4950Y265D01*
X4959Y271D01*
X4965Y280D01*
X4969Y289D01*
X4970Y300D01*
Y319D01*
X4969Y330D01*
X4965Y339D01*
X4959Y347D01*
X4950Y354D01*
X4947Y355D01*
Y425D01*
X4945Y431D01*
X4942Y437D01*
X4922Y456D01*
X4917Y460D01*
X4911Y461D01*
X4802D01*
X4800Y463D01*
Y567D01*
X4805Y569D01*
X4810Y565D01*
X4820Y561D01*
X4830Y560D01*
X4841Y561D01*
X4850Y565D01*
X4859Y571D01*
X4865Y580D01*
X4869Y589D01*
X4870Y600D01*
Y619D01*
X4869Y630D01*
X4865Y639D01*
X4859Y647D01*
X4850Y654D01*
X4841Y658D01*
X4830Y659D01*
X4820Y658D01*
X4810Y654D01*
X4805Y649D01*
X4800Y652D01*
Y667D01*
X4806Y673D01*
X4882D01*
X4888Y674D01*
X4893Y678D01*
X4937Y721D01*
X4940Y726D01*
X4941Y732D01*
Y777D01*
X4945Y778D01*
X4953Y785D01*
X4960Y793D01*
X4964Y803D01*
X4965Y813D01*
Y833D01*
X4964Y843D01*
X4960Y853D01*
X4953Y861D01*
X4945Y867D01*
X4936Y871D01*
X4925Y873D01*
X4915Y871D01*
X4905Y867D01*
X4897Y861D01*
X4891Y853D01*
X4887Y843D01*
X4885Y833D01*
Y813D01*
X4887Y803D01*
X4891Y793D01*
X4897Y785D01*
X4905Y778D01*
X4909Y777D01*
Y739D01*
X4875Y705D01*
X4799D01*
X4793Y704D01*
X4790Y708D01*
X4837Y755D01*
X4840Y760D01*
X4841Y766D01*
Y777D01*
X4845Y778D01*
X4853Y785D01*
X4860Y793D01*
X4864Y803D01*
X4865Y813D01*
Y833D01*
X4864Y843D01*
X4860Y853D01*
X4853Y861D01*
X4845Y867D01*
X4836Y871D01*
X4825Y873D01*
X4815Y871D01*
X4805Y867D01*
X4797Y861D01*
X4791Y853D01*
X4787Y843D01*
X4785Y833D01*
Y813D01*
X4787Y803D01*
X4791Y793D01*
X4797Y785D01*
X4805Y778D01*
X4808Y777D01*
X4808Y772D01*
X4718Y682D01*
X4705D01*
X4698Y680D01*
X4693Y677D01*
X4673Y657D01*
X4670Y652D01*
X4669Y646D01*
Y642D01*
X4664Y641D01*
X4659Y647D01*
X4650Y654D01*
X4641Y658D01*
X4630Y659D01*
X4620Y658D01*
X4610Y654D01*
X4602Y647D01*
X4596Y639D01*
X4592Y630D01*
X4590Y619D01*
Y600D01*
X4592Y589D01*
X4596Y580D01*
X4602Y571D01*
X4610Y565D01*
X4620Y561D01*
X4630Y560D01*
X4641Y561D01*
X4650Y565D01*
X4659Y571D01*
X4664Y578D01*
X4669Y576D01*
Y421D01*
X4670Y415D01*
X4673Y410D01*
X4677Y406D01*
X4675Y402D01*
X4673Y402D01*
X4594D01*
X4588Y401D01*
X4583Y397D01*
X4571Y385D01*
X4568Y380D01*
X4566Y374D01*
Y359D01*
X4491D01*
Y330D01*
X4463D01*
X4451Y342D01*
Y433D01*
X4461D01*
Y512D01*
X4451D01*
Y579D01*
X4461Y589D01*
X4492D01*
X4496Y580D01*
X4502Y571D01*
X4510Y565D01*
X4520Y561D01*
X4530Y560D01*
X4541Y561D01*
X4550Y565D01*
X4559Y571D01*
X4565Y580D01*
X4569Y589D01*
X4570Y600D01*
Y619D01*
X4569Y630D01*
X4565Y639D01*
X4559Y647D01*
X4551Y654D01*
Y660D01*
X4589Y698D01*
X4593Y705D01*
X4595Y712D01*
Y780D01*
X4600Y783D01*
X4605Y778D01*
X4609Y777D01*
Y737D01*
X4610Y731D01*
X4614Y726D01*
X4622Y717D01*
X4628Y713D01*
X4634Y712D01*
X4645D01*
X4647Y708D01*
X4653Y700D01*
X4661Y694D01*
X4671Y690D01*
X4681Y688D01*
X4691Y690D01*
X4701Y694D01*
X4709Y700D01*
X4716Y708D01*
X4720Y718D01*
X4721Y728D01*
X4720Y739D01*
X4716Y748D01*
X4709Y757D01*
X4701Y763D01*
X4691Y767D01*
X4681Y768D01*
X4671Y767D01*
X4661Y763D01*
X4653Y757D01*
X4647Y748D01*
X4646Y748D01*
X4641Y749D01*
Y777D01*
X4645Y778D01*
X4653Y785D01*
X4660Y793D01*
X4664Y803D01*
X4665Y813D01*
Y833D01*
X4664Y843D01*
X4660Y853D01*
X4653Y861D01*
X4645Y867D01*
X4636Y871D01*
X4625Y873D01*
X4615Y871D01*
X4605Y867D01*
X4600Y863D01*
X4595Y865D01*
Y870D01*
X4593Y878D01*
X4589Y885D01*
X4562Y912D01*
X4555Y916D01*
X4547Y918D01*
X4492D01*
X4484Y916D01*
X4478Y912D01*
X4462Y896D01*
X4457Y889D01*
X4456Y881D01*
Y872D01*
X4441D01*
Y970D01*
X4456Y984D01*
X4654D01*
X4660Y985D01*
X4665Y989D01*
X4689Y1012D01*
X4692Y1017D01*
X4693Y1024D01*
Y1082D01*
X4698Y1084D01*
X4705Y1078D01*
X4715Y1074D01*
X4725Y1073D01*
X4736Y1074D01*
X4745Y1078D01*
X4753Y1085D01*
X4760Y1093D01*
X4764Y1103D01*
X4765Y1113D01*
Y1133D01*
X4764Y1143D01*
X4760Y1153D01*
X4753Y1161D01*
X4745Y1167D01*
X4736Y1171D01*
X4725Y1173D01*
X4715Y1171D01*
X4705Y1167D01*
X4698Y1162D01*
X4693Y1164D01*
Y1190D01*
X4696Y1192D01*
X4760D01*
X4766Y1194D01*
X4771Y1197D01*
X4787Y1213D01*
X4791Y1218D01*
X4792Y1224D01*
Y1567D01*
X4791Y1573D01*
X4787Y1578D01*
X4758Y1607D01*
X4760Y1612D01*
X4888D01*
X4891Y1606D01*
X4897Y1598D01*
X4905Y1591D01*
X4915Y1587D01*
X4925Y1586D01*
X4936Y1587D01*
X4945Y1591D01*
X4953Y1598D01*
X4960Y1606D01*
X4964Y1616D01*
X4965Y1626D01*
X4964Y1636D01*
X4960Y1646D01*
X4953Y1654D01*
X4945Y1661D01*
X4936Y1664D01*
X4925Y1666D01*
X4915Y1664D01*
X4905Y1661D01*
X4897Y1654D01*
X4891Y1646D01*
X4890Y1644D01*
X4353D01*
X4346Y1643D01*
X4341Y1640D01*
X4324Y1622D01*
X4320Y1617D01*
X4319Y1611D01*
Y1597D01*
X4315Y1596D01*
X4307Y1589D01*
X4301Y1581D01*
X4297Y1571D01*
X4296Y1561D01*
Y1541D01*
X4297Y1531D01*
X4301Y1521D01*
X4307Y1513D01*
X4315Y1507D01*
X4325Y1503D01*
X4335Y1501D01*
X4346Y1503D01*
X4355Y1507D01*
X4364Y1513D01*
X4370Y1521D01*
X4374Y1531D01*
X4375Y1541D01*
Y1561D01*
X4374Y1571D01*
X4370Y1581D01*
X4364Y1589D01*
X4355Y1596D01*
X4352Y1597D01*
Y1604D01*
X4359Y1612D01*
X4480D01*
X4482Y1607D01*
X4473Y1598D01*
X4469Y1593D01*
X4469Y1591D01*
X4464Y1589D01*
X4455Y1596D01*
X4446Y1600D01*
X4435Y1601D01*
X4425Y1600D01*
X4415Y1596D01*
X4407Y1589D01*
X4401Y1581D01*
X4397Y1571D01*
X4396Y1561D01*
Y1541D01*
X4397Y1531D01*
X4401Y1521D01*
X4407Y1513D01*
X4415Y1507D01*
X4419Y1505D01*
Y1450D01*
X4407Y1437D01*
X4208D01*
X4197Y1448D01*
Y1518D01*
X4202Y1520D01*
X4207Y1513D01*
X4215Y1507D01*
X4225Y1503D01*
X4235Y1501D01*
X4246Y1503D01*
X4255Y1507D01*
X4264Y1513D01*
X4270Y1521D01*
X4274Y1531D01*
X4275Y1541D01*
Y1561D01*
X4274Y1571D01*
X4270Y1581D01*
X4264Y1589D01*
X4255Y1596D01*
X4252Y1597D01*
Y1650D01*
X4250Y1657D01*
X4247Y1662D01*
X4228Y1681D01*
X4223Y1684D01*
X4217Y1686D01*
X3148D01*
Y1818D01*
X3153Y1820D01*
X3158Y1813D01*
X3167Y1807D01*
X3170Y1805D01*
Y1750D01*
X3172Y1744D01*
X3175Y1739D01*
X3205Y1709D01*
X3210Y1705D01*
X3217Y1704D01*
X4110D01*
X4116Y1705D01*
X4122Y1709D01*
X4147Y1734D01*
X4150Y1739D01*
X4152Y1746D01*
Y1805D01*
X4155Y1807D01*
X4164Y1813D01*
X4170Y1821D01*
X4174Y1831D01*
X4175Y1841D01*
Y1861D01*
X4174Y1871D01*
X4170Y1881D01*
X4164Y1889D01*
X4155Y1896D01*
X4146Y1900D01*
X4135Y1901D01*
X4125Y1900D01*
X4115Y1896D01*
X4107Y1889D01*
X4101Y1881D01*
X4097Y1871D01*
X4096Y1861D01*
Y1841D01*
X4097Y1831D01*
X4101Y1821D01*
X4107Y1813D01*
X4115Y1807D01*
X4119Y1805D01*
Y1752D01*
X4104Y1737D01*
X3223D01*
X3203Y1757D01*
Y1805D01*
X3207Y1807D01*
X3215Y1813D01*
X3215Y1814D01*
X3220Y1812D01*
Y1783D01*
X3221Y1777D01*
X3225Y1772D01*
X3237Y1760D01*
X3242Y1757D01*
X3248Y1755D01*
X3327D01*
X3333Y1757D01*
X3338Y1760D01*
X3350Y1772D01*
X3354Y1777D01*
X3355Y1783D01*
Y1810D01*
X3360Y1812D01*
X3367Y1807D01*
X3370Y1805D01*
Y1787D01*
X3372Y1780D01*
X3375Y1775D01*
X3394Y1756D01*
X3399Y1753D01*
X3406Y1751D01*
X4012D01*
X4018Y1753D01*
X4023Y1756D01*
X4047Y1780D01*
X4050Y1785D01*
X4052Y1791D01*
Y1805D01*
X4055Y1807D01*
X4064Y1813D01*
X4070Y1821D01*
X4074Y1831D01*
X4075Y1841D01*
Y1861D01*
X4074Y1871D01*
X4070Y1881D01*
X4064Y1889D01*
X4055Y1896D01*
X4046Y1900D01*
X4035Y1901D01*
X4025Y1900D01*
X4015Y1896D01*
X4007Y1889D01*
X4001Y1881D01*
X3997Y1871D01*
X3996Y1861D01*
Y1841D01*
X3997Y1831D01*
X4001Y1821D01*
X4007Y1813D01*
X4015Y1807D01*
X4019Y1805D01*
Y1798D01*
X4005Y1784D01*
X3412D01*
X3403Y1793D01*
Y1805D01*
X3407Y1807D01*
X3415Y1813D01*
X3421Y1821D01*
X3425Y1831D01*
X3426Y1841D01*
Y1861D01*
X3425Y1871D01*
X3421Y1881D01*
X3415Y1889D01*
X3407Y1896D01*
X3397Y1900D01*
X3387Y1901D01*
X3376Y1900D01*
X3367Y1896D01*
X3360Y1890D01*
X3355Y1892D01*
Y1903D01*
X3361Y1909D01*
X3466D01*
X3470Y1904D01*
Y1897D01*
X3467Y1896D01*
X3458Y1889D01*
X3452Y1881D01*
X3448Y1871D01*
X3447Y1861D01*
Y1841D01*
X3448Y1831D01*
X3452Y1821D01*
X3458Y1813D01*
X3467Y1807D01*
X3476Y1803D01*
X3487Y1801D01*
X3497Y1803D01*
X3507Y1807D01*
X3515Y1813D01*
X3521Y1821D01*
X3525Y1831D01*
X3526Y1841D01*
Y1861D01*
X3525Y1871D01*
X3521Y1881D01*
X3515Y1889D01*
X3507Y1896D01*
X3503Y1897D01*
Y1911D01*
X3502Y1917D01*
X3498Y1922D01*
X3484Y1937D01*
X3479Y1940D01*
X3472Y1941D01*
X3354D01*
X3348Y1940D01*
X3343Y1937D01*
X3327Y1921D01*
X3324Y1916D01*
X3322Y1909D01*
Y1888D01*
X3317Y1886D01*
X3315Y1889D01*
X3307Y1896D01*
X3303Y1897D01*
Y1928D01*
X3302Y1934D01*
X3298Y1939D01*
X3143Y2094D01*
X3138Y2098D01*
X3132Y2099D01*
X2173D01*
X2167Y2098D01*
X2162Y2094D01*
X2138Y2071D01*
X2135Y2065D01*
X2133Y2059D01*
Y1892D01*
X2129Y1891D01*
X2127Y1892D01*
X2119Y1898D01*
Y2079D01*
X2178Y2137D01*
X2654D01*
X2661Y2139D01*
X2668Y2143D01*
X2695Y2171D01*
X2700Y2177D01*
X2701Y2185D01*
Y2346D01*
X2703Y2347D01*
X2706Y2348D01*
X2712Y2343D01*
X2722Y2339D01*
X2732Y2338D01*
X2743Y2339D01*
X2752Y2343D01*
X2760Y2350D01*
X2767Y2358D01*
X2768Y2362D01*
X2807D01*
X2813Y2363D01*
X2819Y2366D01*
X2846Y2394D01*
X2850Y2399D01*
X2851Y2406D01*
Y2855D01*
X2856Y2857D01*
X2860Y2852D01*
X2868Y2845D01*
X2872Y2844D01*
Y2831D01*
X2873Y2825D01*
X2877Y2819D01*
X2894Y2802D01*
X2899Y2798D01*
X2906Y2797D01*
X3226D01*
X3228Y2792D01*
X3234Y2784D01*
X3243Y2777D01*
X3248Y2775D01*
Y2071D01*
X3249Y2065D01*
X3252Y2059D01*
X3280Y2032D01*
X3285Y2028D01*
X3291Y2027D01*
X4599D01*
X4619Y2007D01*
Y1901D01*
X4596D01*
Y1802D01*
X4675D01*
Y1901D01*
X4652D01*
Y2011D01*
X4668Y2027D01*
X5969D01*
X5975Y2028D01*
X5980Y2032D01*
X6023Y2075D01*
X6027Y2080D01*
X6028Y2087D01*
Y2622D01*
X6027Y2628D01*
X6023Y2634D01*
X5993Y2664D01*
X5987Y2668D01*
X5981Y2669D01*
X5851D01*
X5849Y2674D01*
X5842Y2682D01*
X5834Y2689D01*
X5823Y2693D01*
X5813Y2695D01*
X5805D01*
X5794Y2693D01*
X5784Y2689D01*
X5775Y2682D01*
X5768Y2674D01*
X5764Y2664D01*
X5763Y2653D01*
X5764Y2642D01*
X5768Y2632D01*
X5775Y2623D01*
X5784Y2617D01*
X5794Y2612D01*
X5805Y2611D01*
X5813D01*
X5823Y2612D01*
X5834Y2617D01*
X5842Y2623D01*
X5849Y2632D01*
X5851Y2637D01*
X5974D01*
X5996Y2615D01*
Y2093D01*
X5962Y2060D01*
X4661D01*
X4655Y2058D01*
X4650Y2055D01*
X4633Y2038D01*
X4617Y2055D01*
X4612Y2058D01*
X4606Y2060D01*
X3298D01*
X3280Y2078D01*
Y2775D01*
X3285Y2777D01*
X3293Y2784D01*
X3300Y2792D01*
X3304Y2803D01*
X3306Y2813D01*
X3304Y2824D01*
X3300Y2834D01*
X3293Y2843D01*
X3285Y2850D01*
X3275Y2854D01*
X3264Y2855D01*
X3253Y2854D01*
X3243Y2850D01*
X3234Y2843D01*
X3228Y2834D01*
X3226Y2830D01*
X2912D01*
X2904Y2837D01*
Y2844D01*
X2908Y2845D01*
X2916Y2852D01*
X2923Y2860D01*
X2927Y2870D01*
X2928Y2880D01*
Y2900D01*
X2927Y2910D01*
X2923Y2920D01*
X2916Y2928D01*
X2908Y2934D01*
X2899Y2938D01*
X2888Y2939D01*
X2878Y2938D01*
X2868Y2934D01*
X2860Y2928D01*
X2856Y2922D01*
X2851Y2924D01*
Y2966D01*
X2861Y2976D01*
X2874D01*
X2880Y2977D01*
X2885Y2981D01*
X2900Y2995D01*
X2903Y3000D01*
X2904Y3006D01*
Y3144D01*
X2908Y3145D01*
X2916Y3152D01*
X2923Y3160D01*
X2927Y3170D01*
X2928Y3180D01*
Y3200D01*
X2927Y3210D01*
X2923Y3220D01*
X2916Y3228D01*
X2908Y3234D01*
X2904Y3236D01*
Y3248D01*
X2908Y3251D01*
X3222D01*
X3224Y3247D01*
X3230Y3238D01*
X3239Y3231D01*
X3249Y3227D01*
X3260Y3226D01*
X3271Y3227D01*
X3281Y3231D01*
X3289Y3238D01*
X3296Y3247D01*
X3298Y3251D01*
X3533D01*
X3547Y3237D01*
Y2291D01*
X3548Y2285D01*
X3552Y2280D01*
X3579Y2252D01*
X3584Y2249D01*
X3591Y2248D01*
X5795D01*
X5801Y2249D01*
X5807Y2252D01*
X5820Y2266D01*
X5824Y2271D01*
X5825Y2277D01*
Y2313D01*
X5834Y2317D01*
X5842Y2323D01*
X5849Y2332D01*
X5853Y2342D01*
X5854Y2353D01*
X5853Y2364D01*
X5849Y2374D01*
X5842Y2382D01*
X5834Y2389D01*
X5823Y2393D01*
X5813Y2395D01*
X5805D01*
X5794Y2393D01*
X5784Y2389D01*
X5775Y2382D01*
X5768Y2374D01*
X5764Y2364D01*
X5763Y2353D01*
X5764Y2342D01*
X5768Y2332D01*
X5775Y2323D01*
X5784Y2317D01*
X5792Y2313D01*
Y2284D01*
X5789Y2280D01*
X3597D01*
X3579Y2298D01*
Y3244D01*
X3578Y3250D01*
X3574Y3256D01*
X3551Y3279D01*
X3546Y3283D01*
X3539Y3284D01*
X3298D01*
X3296Y3289D01*
X3289Y3297D01*
X3281Y3304D01*
X3271Y3308D01*
X3260Y3310D01*
X3249Y3308D01*
X3239Y3304D01*
X3230Y3297D01*
X3224Y3289D01*
X3222Y3284D01*
X2902D01*
X2895Y3283D01*
X2890Y3279D01*
X2877Y3266D01*
X2873Y3261D01*
X2872Y3254D01*
Y3236D01*
X2868Y3234D01*
X2860Y3228D01*
X2854Y3220D01*
X2850Y3210D01*
X2848Y3200D01*
Y3180D01*
X2850Y3170D01*
X2854Y3160D01*
X2860Y3152D01*
X2868Y3145D01*
X2872Y3144D01*
Y3013D01*
X2867Y3008D01*
X2857D01*
X2854Y3008D01*
X2852Y3008D01*
X2851Y3008D01*
X2849Y3012D01*
X2849Y3016D01*
Y3046D01*
X2822D01*
Y3012D01*
X2844D01*
X2844Y3012D01*
X2844Y3012D01*
X2847Y3012D01*
X2847Y3009D01*
X2847Y3007D01*
X2846Y3006D01*
X2843Y3004D01*
X2823Y2984D01*
X2820Y2979D01*
X2818Y2972D01*
Y2933D01*
X2813Y2930D01*
X2808Y2934D01*
X2799Y2938D01*
X2793Y2939D01*
Y2890D01*
Y2841D01*
X2799Y2841D01*
X2808Y2845D01*
X2813Y2849D01*
X2818Y2847D01*
Y2412D01*
X2800Y2394D01*
X2768D01*
X2767Y2398D01*
X2760Y2406D01*
X2752Y2412D01*
X2743Y2416D01*
X2732Y2418D01*
X2722Y2416D01*
X2712Y2412D01*
X2704Y2406D01*
X2702Y2404D01*
X2698Y2405D01*
X2697Y2406D01*
Y2629D01*
X2752Y2684D01*
X2756Y2690D01*
X2758Y2698D01*
Y2847D01*
X2763Y2850D01*
X2768Y2845D01*
X2778Y2841D01*
X2783Y2841D01*
Y2890D01*
Y2939D01*
X2778Y2938D01*
X2768Y2934D01*
X2763Y2930D01*
X2758Y2932D01*
Y3012D01*
X2769D01*
Y3091D01*
X2758D01*
Y3131D01*
X2771Y3144D01*
X2778Y3141D01*
X2788Y3140D01*
X2799Y3141D01*
X2808Y3145D01*
X2816Y3152D01*
X2823Y3160D01*
X2827Y3170D01*
X2828Y3180D01*
Y3200D01*
X2827Y3210D01*
X2823Y3220D01*
X2816Y3228D01*
X2808Y3234D01*
Y3315D01*
X2813Y3320D01*
X3632D01*
X3640Y3312D01*
Y3304D01*
X3639Y3304D01*
X3630Y3297D01*
X3624Y3289D01*
X3619Y3279D01*
X3618Y3268D01*
X3619Y3257D01*
X3624Y3247D01*
X3630Y3238D01*
X3639Y3231D01*
X3640Y3231D01*
Y3147D01*
X3634Y3143D01*
X3628Y3134D01*
X3623Y3124D01*
X3622Y3113D01*
X3623Y3103D01*
X3628Y3092D01*
X3634Y3084D01*
X3640Y3080D01*
Y2997D01*
X3634Y2993D01*
X3628Y2984D01*
X3623Y2974D01*
X3622Y2963D01*
X3623Y2953D01*
X3628Y2942D01*
X3634Y2934D01*
X3640Y2930D01*
Y2847D01*
X3634Y2843D01*
X3628Y2834D01*
X3623Y2824D01*
X3622Y2813D01*
X3623Y2803D01*
X3628Y2792D01*
X3634Y2784D01*
X3643Y2777D01*
X3644Y2777D01*
Y2368D01*
X3645Y2360D01*
X3649Y2353D01*
X3686Y2316D01*
X3693Y2312D01*
X3701Y2310D01*
X5488D01*
X5496Y2312D01*
X5502Y2316D01*
X5542Y2356D01*
X5546Y2362D01*
X5548Y2370D01*
Y2417D01*
X5563Y2433D01*
X5668D01*
X5668Y2432D01*
X5675Y2423D01*
X5684Y2417D01*
X5694Y2412D01*
X5705Y2411D01*
X5713D01*
X5723Y2412D01*
X5734Y2417D01*
X5742Y2423D01*
X5749Y2432D01*
X5753Y2442D01*
X5754Y2453D01*
X5753Y2464D01*
X5749Y2474D01*
X5742Y2482D01*
X5734Y2489D01*
X5723Y2493D01*
X5713Y2495D01*
X5705D01*
X5694Y2493D01*
X5684Y2489D01*
X5675Y2482D01*
X5668Y2474D01*
X5668Y2473D01*
X5563D01*
X5548Y2489D01*
Y2559D01*
X5546Y2567D01*
X5542Y2573D01*
X5510Y2605D01*
X5504Y2609D01*
X5496Y2611D01*
X5367D01*
X5357Y2620D01*
Y2659D01*
X5358Y2659D01*
X5367Y2666D01*
X5373Y2675D01*
X5377Y2685D01*
X5379Y2696D01*
X5377Y2707D01*
X5373Y2717D01*
X5367Y2725D01*
X5358Y2732D01*
X5357Y2732D01*
Y2809D01*
X5358Y2809D01*
X5367Y2816D01*
X5373Y2825D01*
X5377Y2835D01*
X5379Y2846D01*
X5377Y2857D01*
X5373Y2867D01*
X5367Y2875D01*
X5358Y2882D01*
X5357Y2882D01*
Y2959D01*
X5358Y2959D01*
X5367Y2966D01*
X5373Y2975D01*
X5377Y2985D01*
X5379Y2996D01*
X5377Y3007D01*
X5373Y3017D01*
X5367Y3025D01*
X5358Y3032D01*
X5357Y3032D01*
Y3109D01*
X5358Y3109D01*
X5367Y3116D01*
X5373Y3125D01*
X5377Y3135D01*
X5379Y3146D01*
X5377Y3157D01*
X5373Y3167D01*
X5367Y3175D01*
X5361Y3180D01*
X5363Y3185D01*
X5529D01*
X5559Y3155D01*
Y2886D01*
X5560Y2880D01*
X5563Y2874D01*
X5596Y2841D01*
X5602Y2838D01*
X5608Y2837D01*
X5667D01*
X5668Y2832D01*
X5675Y2823D01*
X5684Y2817D01*
X5694Y2812D01*
X5705Y2811D01*
X5713D01*
X5723Y2812D01*
X5734Y2817D01*
X5742Y2823D01*
X5749Y2832D01*
X5753Y2842D01*
X5754Y2853D01*
X5753Y2864D01*
X5749Y2874D01*
X5742Y2882D01*
X5734Y2889D01*
X5723Y2893D01*
X5713Y2895D01*
X5705D01*
X5694Y2893D01*
X5684Y2889D01*
X5675Y2882D01*
X5668Y2874D01*
X5667Y2869D01*
X5615D01*
X5591Y2893D01*
Y3161D01*
X5590Y3168D01*
X5586Y3173D01*
X5552Y3208D01*
X5554Y3212D01*
X5678D01*
X5692Y3198D01*
Y2994D01*
X5663D01*
Y2911D01*
X5754D01*
Y2994D01*
X5725D01*
Y3205D01*
X5724Y3211D01*
X5720Y3216D01*
X5697Y3240D01*
X5691Y3243D01*
X5685Y3245D01*
X5260D01*
X5254Y3243D01*
X5248Y3240D01*
X5221Y3212D01*
X5217Y3207D01*
X5216Y3201D01*
Y2723D01*
X5205Y2712D01*
X4975D01*
X4973Y2717D01*
X4967Y2725D01*
X4958Y2732D01*
X4953Y2734D01*
Y2740D01*
X4952Y2746D01*
X4948Y2752D01*
X4933Y2767D01*
X4927Y2771D01*
X4921Y2772D01*
X4558D01*
X4546Y2784D01*
Y2801D01*
X4550Y2802D01*
X4558Y2808D01*
X4564Y2817D01*
X4568Y2826D01*
X4570Y2837D01*
Y2856D01*
X4568Y2867D01*
X4564Y2876D01*
X4558Y2884D01*
X4550Y2891D01*
X4540Y2895D01*
X4530Y2896D01*
X4520Y2895D01*
X4510Y2891D01*
X4502Y2884D01*
X4498Y2879D01*
X4493Y2881D01*
Y2911D01*
X4507Y2925D01*
X4600D01*
X4614Y2911D01*
Y2892D01*
X4610Y2891D01*
X4602Y2884D01*
X4595Y2876D01*
X4591Y2867D01*
X4590Y2856D01*
Y2837D01*
X4591Y2826D01*
X4595Y2817D01*
X4602Y2808D01*
X4610Y2802D01*
X4620Y2798D01*
X4630Y2797D01*
X4640Y2798D01*
X4650Y2802D01*
X4658Y2808D01*
X4664Y2817D01*
X4668Y2826D01*
X4669Y2830D01*
X4898D01*
X4901Y2825D01*
X4907Y2816D01*
X4916Y2809D01*
X4926Y2805D01*
X4937Y2804D01*
X4948Y2805D01*
X4958Y2809D01*
X4967Y2816D01*
X4973Y2825D01*
X4975Y2829D01*
X5157D01*
X5163Y2831D01*
X5168Y2834D01*
X5193Y2859D01*
X5196Y2864D01*
X5197Y2870D01*
Y3257D01*
X5215Y3275D01*
X5769D01*
X5792Y3252D01*
Y2993D01*
X5784Y2989D01*
X5775Y2982D01*
X5768Y2974D01*
X5764Y2964D01*
X5763Y2953D01*
X5764Y2942D01*
X5768Y2932D01*
X5775Y2923D01*
X5784Y2917D01*
X5794Y2912D01*
X5805Y2911D01*
X5813D01*
X5823Y2912D01*
X5834Y2917D01*
X5842Y2923D01*
X5849Y2932D01*
X5853Y2942D01*
X5854Y2953D01*
X5853Y2964D01*
X5849Y2974D01*
X5842Y2982D01*
X5834Y2989D01*
X5825Y2993D01*
Y3258D01*
X5824Y3264D01*
X5820Y3270D01*
X5787Y3303D01*
X5782Y3306D01*
X5776Y3308D01*
X5209D01*
X5202Y3306D01*
X5197Y3303D01*
X5170Y3275D01*
X5166Y3270D01*
X5165Y3264D01*
Y2877D01*
X5150Y2862D01*
X4975D01*
X4973Y2867D01*
X4967Y2875D01*
X4958Y2882D01*
X4948Y2886D01*
X4937Y2888D01*
X4926Y2886D01*
X4916Y2882D01*
X4907Y2875D01*
X4901Y2867D01*
X4899Y2863D01*
X4669D01*
X4668Y2867D01*
X4664Y2876D01*
X4658Y2884D01*
X4650Y2891D01*
X4646Y2892D01*
Y2917D01*
X4645Y2924D01*
X4641Y2929D01*
X4618Y2952D01*
X4613Y2956D01*
X4606Y2957D01*
X4500D01*
X4494Y2956D01*
X4489Y2952D01*
X4465Y2929D01*
X4461Y2924D01*
X4460Y2917D01*
Y2889D01*
X4455Y2887D01*
X4450Y2891D01*
X4440Y2895D01*
X4435Y2896D01*
Y2846D01*
Y2797D01*
X4440Y2798D01*
X4450Y2802D01*
X4455Y2806D01*
X4460Y2804D01*
Y2605D01*
X4440Y2585D01*
X4371D01*
X4369Y2588D01*
X4363Y2597D01*
X4355Y2603D01*
X4345Y2607D01*
X4335Y2608D01*
X4324Y2607D01*
X4315Y2603D01*
X4306Y2597D01*
X4300Y2588D01*
X4296Y2579D01*
X4295Y2569D01*
X4296Y2558D01*
X4300Y2549D01*
X4306Y2540D01*
X4315Y2534D01*
X4324Y2530D01*
X4335Y2529D01*
X4345Y2530D01*
X4355Y2534D01*
X4363Y2540D01*
X4369Y2549D01*
X4371Y2552D01*
X4446D01*
X4453Y2554D01*
X4458Y2557D01*
X4488Y2587D01*
X4491Y2592D01*
X4493Y2598D01*
Y2812D01*
X4498Y2814D01*
X4502Y2808D01*
X4510Y2802D01*
X4514Y2801D01*
Y2777D01*
X4515Y2771D01*
X4518Y2766D01*
X4528Y2756D01*
X4520Y2748D01*
X4517Y2742D01*
X4515Y2736D01*
Y2503D01*
X4497Y2485D01*
X4272D01*
X4271Y2488D01*
X4264Y2497D01*
X4256Y2503D01*
X4247Y2507D01*
X4236Y2508D01*
X4226Y2507D01*
X4216Y2503D01*
X4208Y2497D01*
X4202Y2488D01*
X4198Y2479D01*
X4196Y2469D01*
X4198Y2458D01*
X4202Y2449D01*
X4208Y2440D01*
X4216Y2434D01*
X4226Y2430D01*
X4236Y2429D01*
X4247Y2430D01*
X4256Y2434D01*
X4264Y2440D01*
X4271Y2449D01*
X4272Y2452D01*
X4504D01*
X4510Y2454D01*
X4515Y2457D01*
X4543Y2485D01*
X4546Y2490D01*
X4548Y2496D01*
Y2730D01*
X4558Y2740D01*
X4914D01*
X4917Y2736D01*
X4915Y2731D01*
X4907Y2725D01*
X4901Y2717D01*
X4897Y2707D01*
X4895Y2696D01*
X4897Y2685D01*
X4901Y2675D01*
X4907Y2666D01*
X4916Y2659D01*
X4926Y2655D01*
X4937Y2654D01*
X4948Y2655D01*
X4958Y2659D01*
X4967Y2666D01*
X4973Y2675D01*
X4975Y2679D01*
X5211D01*
X5218Y2681D01*
X5223Y2684D01*
X5244Y2705D01*
X5247Y2710D01*
X5249Y2717D01*
Y3194D01*
X5267Y3212D01*
X5277D01*
X5279Y3208D01*
X5264Y3193D01*
X5261Y3187D01*
X5259Y3181D01*
Y2436D01*
X5230Y2406D01*
X4168D01*
X4146Y2428D01*
Y2801D01*
X4150Y2802D01*
X4158Y2808D01*
X4164Y2817D01*
X4168Y2826D01*
X4170Y2837D01*
Y2856D01*
X4168Y2867D01*
X4164Y2876D01*
X4158Y2884D01*
X4150Y2891D01*
X4146Y2892D01*
Y2899D01*
X4160Y2913D01*
X4304D01*
X4314Y2904D01*
Y2892D01*
X4310Y2891D01*
X4302Y2884D01*
X4295Y2876D01*
X4291Y2867D01*
X4290Y2856D01*
Y2837D01*
X4291Y2826D01*
X4295Y2817D01*
X4302Y2808D01*
X4310Y2802D01*
X4320Y2798D01*
X4330Y2797D01*
X4340Y2798D01*
X4350Y2802D01*
X4358Y2808D01*
X4364Y2817D01*
X4368Y2826D01*
X4370Y2837D01*
Y2856D01*
X4368Y2867D01*
X4364Y2876D01*
X4358Y2884D01*
X4350Y2891D01*
X4346Y2892D01*
Y2910D01*
X4345Y2916D01*
X4341Y2922D01*
X4322Y2941D01*
X4317Y2944D01*
X4311Y2945D01*
X4160D01*
X4146Y2959D01*
Y3037D01*
X4156Y3047D01*
X4209D01*
X4215Y3048D01*
X4220Y3052D01*
X4241Y3073D01*
X4245Y3078D01*
X4246Y3084D01*
Y3101D01*
X4250Y3102D01*
X4254Y3105D01*
X4259Y3103D01*
Y3087D01*
X4261Y3079D01*
X4265Y3072D01*
X4289Y3049D01*
X4295Y3044D01*
X4303Y3043D01*
X4417D01*
X4425Y3044D01*
X4432Y3049D01*
X4444Y3061D01*
X4449Y3068D01*
X4450Y3076D01*
Y3102D01*
X4458Y3108D01*
X4459Y3110D01*
X4464Y3108D01*
Y3016D01*
X4465Y3010D01*
X4469Y3004D01*
X4489Y2985D01*
X4494Y2981D01*
X4500Y2980D01*
X4598D01*
X4605Y2981D01*
X4610Y2985D01*
X4630Y3005D01*
X4650Y2984D01*
X4656Y2981D01*
X4662Y2979D01*
X4899D01*
X4901Y2975D01*
X4907Y2966D01*
X4916Y2959D01*
X4926Y2955D01*
X4937Y2954D01*
X4948Y2955D01*
X4958Y2959D01*
X4967Y2966D01*
X4973Y2975D01*
X4975Y2979D01*
X5094D01*
X5100Y2981D01*
X5106Y2984D01*
X5137Y3016D01*
X5141Y3021D01*
X5142Y3028D01*
Y3308D01*
X5168Y3334D01*
X5863D01*
X5893Y3304D01*
Y2877D01*
X5885Y2869D01*
X5851D01*
X5849Y2874D01*
X5842Y2882D01*
X5834Y2889D01*
X5823Y2893D01*
X5813Y2895D01*
X5805D01*
X5794Y2893D01*
X5784Y2889D01*
X5775Y2882D01*
X5768Y2874D01*
X5764Y2864D01*
X5763Y2853D01*
X5764Y2842D01*
X5768Y2832D01*
X5775Y2823D01*
X5784Y2817D01*
X5794Y2812D01*
X5805Y2811D01*
X5813D01*
X5823Y2812D01*
X5834Y2817D01*
X5842Y2823D01*
X5849Y2832D01*
X5851Y2837D01*
X5892D01*
X5898Y2838D01*
X5904Y2841D01*
X5921Y2859D01*
X5924Y2864D01*
X5926Y2870D01*
Y3311D01*
X5924Y3317D01*
X5921Y3322D01*
X5882Y3362D01*
X5876Y3365D01*
X5870Y3367D01*
X5161D01*
X5155Y3365D01*
X5150Y3362D01*
X5115Y3326D01*
X5111Y3321D01*
X5110Y3315D01*
Y3034D01*
X5087Y3012D01*
X4975D01*
X4973Y3017D01*
X4967Y3025D01*
X4958Y3032D01*
X4948Y3036D01*
X4937Y3038D01*
X4926Y3036D01*
X4916Y3032D01*
X4907Y3025D01*
X4901Y3017D01*
X4899Y3012D01*
X4669D01*
X4646Y3034D01*
Y3097D01*
X4669D01*
Y3196D01*
X4590D01*
Y3097D01*
X4614D01*
Y3034D01*
X4592Y3012D01*
X4507D01*
X4497Y3022D01*
Y3107D01*
X4501Y3109D01*
X4502Y3108D01*
X4510Y3102D01*
X4520Y3098D01*
X4530Y3097D01*
X4540Y3098D01*
X4550Y3102D01*
X4558Y3108D01*
X4564Y3117D01*
X4568Y3126D01*
X4570Y3137D01*
Y3156D01*
X4568Y3167D01*
X4564Y3176D01*
X4558Y3184D01*
X4550Y3191D01*
X4546Y3192D01*
Y3204D01*
X4558Y3216D01*
X4903D01*
X4921Y3198D01*
Y3184D01*
X4916Y3182D01*
X4907Y3175D01*
X4901Y3167D01*
X4897Y3157D01*
X4895Y3146D01*
X4897Y3135D01*
X4901Y3125D01*
X4907Y3116D01*
X4916Y3109D01*
X4926Y3105D01*
X4937Y3104D01*
X4948Y3105D01*
X4958Y3109D01*
X4967Y3116D01*
X4973Y3125D01*
X4977Y3135D01*
X4979Y3146D01*
X4977Y3157D01*
X4973Y3167D01*
X4967Y3175D01*
X4958Y3182D01*
X4953Y3184D01*
Y3205D01*
X4952Y3211D01*
X4948Y3216D01*
X4932Y3232D01*
X4948Y3248D01*
X4952Y3254D01*
X4953Y3260D01*
Y3391D01*
X4956Y3393D01*
X5942D01*
X5956Y3379D01*
Y2791D01*
X5934Y2769D01*
X5851D01*
X5849Y2774D01*
X5842Y2782D01*
X5834Y2789D01*
X5823Y2793D01*
X5813Y2795D01*
X5805D01*
X5794Y2793D01*
X5784Y2789D01*
X5775Y2782D01*
X5768Y2774D01*
X5764Y2764D01*
X5763Y2753D01*
X5764Y2742D01*
X5768Y2732D01*
X5775Y2723D01*
X5784Y2717D01*
X5794Y2712D01*
X5805Y2711D01*
X5813D01*
X5823Y2712D01*
X5834Y2717D01*
X5842Y2723D01*
X5849Y2732D01*
X5851Y2737D01*
X5941D01*
X5947Y2738D01*
X5952Y2741D01*
X5972Y2761D01*
X5993Y2741D01*
X5999Y2737D01*
X6005Y2736D01*
X6044D01*
X6059Y2722D01*
Y1798D01*
X6033Y1772D01*
X4566D01*
X4552Y1786D01*
Y1805D01*
X4555Y1807D01*
X4564Y1813D01*
X4570Y1821D01*
X4574Y1831D01*
X4575Y1841D01*
Y1861D01*
X4574Y1871D01*
X4570Y1881D01*
X4564Y1889D01*
X4555Y1896D01*
X4546Y1900D01*
X4535Y1901D01*
X4525Y1900D01*
X4515Y1896D01*
X4507Y1889D01*
X4501Y1881D01*
X4497Y1871D01*
X4496Y1861D01*
Y1841D01*
X4497Y1831D01*
X4501Y1821D01*
X4507Y1813D01*
X4515Y1807D01*
X4519Y1805D01*
Y1780D01*
X4520Y1773D01*
X4524Y1768D01*
X4548Y1744D01*
X4553Y1741D01*
X4559Y1740D01*
X6039D01*
X6046Y1741D01*
X6051Y1744D01*
X6086Y1780D01*
X6090Y1785D01*
X6091Y1791D01*
Y2728D01*
X6090Y2735D01*
X6086Y2740D01*
X6063Y2763D01*
X6057Y2767D01*
X6051Y2768D01*
X6011D01*
X5989Y2791D01*
Y3386D01*
X5987Y3392D01*
X5984Y3397D01*
X5960Y3421D01*
X5955Y3424D01*
X5949Y3426D01*
X4949D01*
X4943Y3424D01*
X4937Y3421D01*
X4926Y3409D01*
X4922Y3404D01*
X4921Y3398D01*
Y3267D01*
X4903Y3249D01*
X4551D01*
X4545Y3247D01*
X4540Y3244D01*
X4518Y3222D01*
X4515Y3217D01*
X4514Y3211D01*
Y3192D01*
X4510Y3191D01*
X4502Y3184D01*
X4501Y3184D01*
X4497Y3185D01*
Y3214D01*
X4558Y3275D01*
X4866D01*
X4872Y3276D01*
X4878Y3280D01*
X4905Y3307D01*
X4909Y3313D01*
X4910Y3319D01*
Y3430D01*
X4916Y3437D01*
X6129D01*
Y1747D01*
X6104Y1721D01*
X4471D01*
X4452Y1741D01*
Y1805D01*
X4455Y1807D01*
X4464Y1813D01*
X4470Y1821D01*
X4474Y1831D01*
X4475Y1841D01*
Y1861D01*
X4474Y1871D01*
X4470Y1881D01*
X4464Y1889D01*
X4455Y1896D01*
X4446Y1900D01*
X4435Y1901D01*
X4425Y1900D01*
X4415Y1896D01*
X4407Y1889D01*
X4401Y1881D01*
X4397Y1871D01*
X4396Y1861D01*
Y1841D01*
X4397Y1831D01*
X4401Y1821D01*
X4407Y1813D01*
X4415Y1807D01*
X4419Y1805D01*
Y1734D01*
X4420Y1728D01*
X4424Y1722D01*
X4453Y1693D01*
X4458Y1690D01*
X4465Y1689D01*
X6110D01*
X6116Y1690D01*
X6122Y1693D01*
X6157Y1729D01*
X6161Y1734D01*
X6162Y1740D01*
Y3445D01*
X6161Y3451D01*
X6157Y3456D01*
X6149Y3464D01*
X6144Y3468D01*
X6138Y3469D01*
X4909D01*
X4903Y3468D01*
X4898Y3464D01*
X4882Y3448D01*
X4879Y3443D01*
X4877Y3437D01*
Y3326D01*
X4859Y3308D01*
X4551D01*
X4545Y3306D01*
X4540Y3303D01*
X4469Y3232D01*
X4465Y3227D01*
X4464Y3220D01*
Y3184D01*
X4459Y3183D01*
X4458Y3184D01*
X4450Y3191D01*
Y3265D01*
X4469D01*
Y3328D01*
X4390D01*
Y3265D01*
X4410D01*
Y3191D01*
X4402Y3184D01*
X4395Y3176D01*
X4391Y3167D01*
X4390Y3156D01*
Y3137D01*
X4391Y3126D01*
X4395Y3117D01*
X4402Y3108D01*
X4410Y3102D01*
Y3084D01*
X4409Y3083D01*
X4312D01*
X4300Y3095D01*
Y3104D01*
X4305Y3106D01*
X4310Y3102D01*
X4320Y3098D01*
X4330Y3097D01*
X4340Y3098D01*
X4350Y3102D01*
X4358Y3108D01*
X4364Y3117D01*
X4368Y3126D01*
X4370Y3137D01*
Y3156D01*
X4368Y3167D01*
X4364Y3176D01*
X4358Y3184D01*
X4350Y3191D01*
X4346Y3192D01*
Y3308D01*
X4351Y3310D01*
X4360Y3317D01*
X4366Y3326D01*
X4370Y3336D01*
X4372Y3346D01*
X4370Y3357D01*
X4366Y3367D01*
X4360Y3376D01*
X4351Y3383D01*
X4346Y3385D01*
Y3580D01*
X4345Y3586D01*
X4341Y3591D01*
X4315Y3618D01*
X4309Y3621D01*
X4303Y3623D01*
X1909D01*
X1903Y3621D01*
X1898Y3618D01*
X1874Y3594D01*
X1871Y3589D01*
X1870Y3583D01*
Y2583D01*
X1871Y2576D01*
X1874Y2571D01*
X1886Y2559D01*
X1891Y2556D01*
X1898Y2555D01*
X2151D01*
X2153Y2550D01*
X2159Y2541D01*
X2168Y2535D01*
X2178Y2530D01*
X2189Y2529D01*
X2200Y2530D01*
X2210Y2535D01*
X2219Y2541D01*
X2225Y2550D01*
X2229Y2560D01*
X2231Y2571D01*
X2229Y2582D01*
X2225Y2592D01*
X2219Y2600D01*
X2210Y2607D01*
X2200Y2611D01*
X2189Y2613D01*
X2178Y2611D01*
X2168Y2607D01*
X2159Y2600D01*
X2153Y2592D01*
X2151Y2587D01*
X1904D01*
X1902Y2589D01*
Y3576D01*
X1916Y3590D01*
X4296D01*
X4314Y3573D01*
Y3385D01*
X4309Y3383D01*
X4304Y3379D01*
X4299Y3381D01*
Y3532D01*
X4297Y3540D01*
X4293Y3547D01*
X4266Y3573D01*
X4260Y3578D01*
X4252Y3579D01*
X1949D01*
X1941Y3578D01*
X1935Y3573D01*
X1915Y3554D01*
X1910Y3547D01*
X1909Y3539D01*
Y3083D01*
X1910Y3075D01*
X1915Y3068D01*
X1950Y3033D01*
X1957Y3029D01*
X1965Y3027D01*
X2397D01*
X2417Y3007D01*
Y2933D01*
X2412Y2931D01*
X2408Y2934D01*
X2399Y2938D01*
X2388Y2939D01*
X2378Y2938D01*
X2368Y2934D01*
X2360Y2928D01*
X2354Y2920D01*
X2350Y2910D01*
X2348Y2900D01*
Y2880D01*
X2350Y2870D01*
X2354Y2860D01*
X2360Y2852D01*
X2368Y2845D01*
X2372Y2844D01*
Y2726D01*
X2352Y2706D01*
X2226D01*
X2224Y2711D01*
X2218Y2719D01*
X2209Y2726D01*
X2199Y2730D01*
X2188Y2732D01*
X2177Y2730D01*
X2167Y2726D01*
X2159Y2719D01*
X2152Y2711D01*
X2150Y2706D01*
X2018D01*
X2004Y2719D01*
Y2739D01*
X2009Y2741D01*
X2018Y2748D01*
X2024Y2756D01*
X2029Y2766D01*
X2030Y2777D01*
X2029Y2788D01*
X2024Y2798D01*
X2018Y2807D01*
X2009Y2813D01*
X1999Y2818D01*
X1988Y2819D01*
X1977Y2818D01*
X1967Y2813D01*
X1959Y2807D01*
X1952Y2798D01*
X1948Y2788D01*
X1946Y2777D01*
X1948Y2766D01*
X1952Y2756D01*
X1959Y2748D01*
X1967Y2741D01*
X1972Y2739D01*
Y2713D01*
X1973Y2706D01*
X1977Y2701D01*
X2000Y2678D01*
X2005Y2675D01*
X2011Y2674D01*
X2150D01*
X2152Y2669D01*
X2159Y2660D01*
X2167Y2654D01*
X2177Y2649D01*
X2188Y2648D01*
X2199Y2649D01*
X2209Y2654D01*
X2218Y2660D01*
X2224Y2669D01*
X2226Y2674D01*
X2359D01*
X2365Y2675D01*
X2371Y2678D01*
X2400Y2707D01*
X2403Y2713D01*
X2404Y2719D01*
Y2844D01*
X2408Y2845D01*
X2412Y2848D01*
X2417Y2846D01*
Y2540D01*
X2397Y2520D01*
X1597D01*
X1591Y2528D01*
X1583Y2535D01*
X1573Y2539D01*
X1563Y2540D01*
X1553Y2539D01*
X1531Y2561D01*
X1524Y2565D01*
X1517Y2567D01*
X1208D01*
X1201Y2575D01*
X1193Y2581D01*
X1184Y2585D01*
X1173Y2586D01*
X1163Y2585D01*
X1153Y2581D01*
X1145Y2575D01*
X1139Y2566D01*
X1135Y2557D01*
X1133Y2546D01*
X1135Y2536D01*
X1139Y2527D01*
X1145Y2518D01*
X1153Y2512D01*
X1163Y2508D01*
X1173Y2507D01*
X1184Y2508D01*
X1193Y2512D01*
X1201Y2518D01*
X1208Y2526D01*
X1508D01*
X1524Y2510D01*
X1523Y2500D01*
X1524Y2490D01*
X1528Y2480D01*
X1535Y2472D01*
X1543Y2465D01*
X1553Y2461D01*
X1563Y2460D01*
X1573Y2461D01*
X1583Y2465D01*
X1591Y2472D01*
X1597Y2480D01*
X2397D01*
X2417Y2460D01*
Y2421D01*
X2418Y2414D01*
X2423Y2407D01*
X2466Y2364D01*
X2473Y2359D01*
X2480Y2358D01*
X2641D01*
X2661Y2338D01*
Y2193D01*
X2645Y2178D01*
X2169D01*
X2162Y2176D01*
X2155Y2172D01*
X2085Y2102D01*
X2084Y2100D01*
X2079Y2101D01*
Y2122D01*
X2077Y2131D01*
X2071Y2139D01*
X2064Y2144D01*
X2059Y2145D01*
Y2087D01*
Y2028D01*
X2064Y2029D01*
X2071Y2034D01*
X2074Y2038D01*
X2079Y2036D01*
Y1898D01*
X2071Y1892D01*
X2065Y1884D01*
X2061Y1875D01*
X2038D01*
X2034Y1884D01*
X2027Y1892D01*
X2019Y1899D01*
X2010Y1903D01*
X1999Y1904D01*
X1989Y1903D01*
X1979Y1899D01*
X1971Y1892D01*
X1965Y1884D01*
X1961Y1875D01*
X1938D01*
X1934Y1884D01*
X1927Y1892D01*
X1923Y1896D01*
X1924Y1901D01*
X1941D01*
X1947Y1902D01*
X1952Y1906D01*
X1966Y1919D01*
X1969Y1925D01*
X1971Y1931D01*
Y2033D01*
X1971Y2034D01*
X1977Y2042D01*
X1977Y2042D01*
X1982D01*
X1982Y2042D01*
X1987Y2034D01*
X1995Y2029D01*
X2004Y2027D01*
X2014Y2029D01*
X2021Y2034D01*
X2027Y2042D01*
X2027Y2042D01*
X2032D01*
X2032Y2042D01*
X2037Y2034D01*
X2045Y2029D01*
X2049Y2028D01*
Y2087D01*
Y2145D01*
X2045Y2144D01*
X2037Y2139D01*
X2032Y2131D01*
X2032Y2131D01*
X2027D01*
X2027Y2131D01*
X2021Y2139D01*
X2021Y2140D01*
Y2177D01*
X2019Y2183D01*
X2016Y2188D01*
X2004Y2200D01*
X1998Y2204D01*
X1992Y2205D01*
X1971D01*
X1971Y2206D01*
Y2226D01*
X1971Y2227D01*
X1977Y2235D01*
X1977Y2235D01*
X1982D01*
X1982Y2235D01*
X1987Y2227D01*
X1995Y2222D01*
X2004Y2220D01*
X2014Y2222D01*
X2021Y2227D01*
X2027Y2235D01*
X2027Y2235D01*
X2032D01*
X2032Y2235D01*
X2037Y2227D01*
X2045Y2222D01*
X2049Y2221D01*
Y2280D01*
Y2338D01*
X2045Y2337D01*
X2037Y2332D01*
X2032Y2324D01*
X2032Y2324D01*
X2027D01*
X2027Y2324D01*
X2021Y2332D01*
X2021Y2333D01*
Y2362D01*
X2019Y2368D01*
X2016Y2374D01*
X2003Y2386D01*
X1998Y2390D01*
X1992Y2391D01*
X1359D01*
X1357Y2395D01*
X1351Y2403D01*
X1343Y2409D01*
X1337Y2412D01*
X1338Y2417D01*
X2072D01*
X2090Y2399D01*
Y2256D01*
X2091Y2250D01*
X2095Y2244D01*
X2111Y2229D01*
X2116Y2225D01*
X2122Y2224D01*
X2539D01*
X2540Y2220D01*
X2547Y2212D01*
X2555Y2206D01*
X2564Y2202D01*
X2575Y2200D01*
X2585Y2202D01*
X2595Y2206D01*
X2603Y2212D01*
X2609Y2220D01*
X2613Y2230D01*
X2615Y2240D01*
X2613Y2250D01*
X2609Y2260D01*
X2603Y2268D01*
X2595Y2275D01*
X2585Y2279D01*
X2575Y2280D01*
X2564Y2279D01*
X2555Y2275D01*
X2547Y2268D01*
X2540Y2260D01*
X2539Y2256D01*
X2129D01*
X2123Y2263D01*
Y2406D01*
X2121Y2412D01*
X2118Y2417D01*
X2090Y2445D01*
X2085Y2448D01*
X2079Y2449D01*
X1051D01*
X1045Y2448D01*
X1039Y2445D01*
X1016Y2421D01*
X1012Y2416D01*
X1011Y2409D01*
Y2122D01*
X1007Y2120D01*
X999Y2114D01*
X993Y2105D01*
X989Y2096D01*
X987Y2085D01*
Y2066D01*
X989Y2055D01*
X993Y2046D01*
X999Y2038D01*
X1007Y2031D01*
X1017Y2027D01*
X1027Y2026D01*
X1037Y2027D01*
X1047Y2031D01*
X1055Y2038D01*
X1062Y2046D01*
X1066Y2055D01*
X1067Y2066D01*
Y2085D01*
X1066Y2096D01*
X1062Y2105D01*
X1055Y2114D01*
X1047Y2120D01*
X1043Y2122D01*
Y2403D01*
X1058Y2417D01*
X1308D01*
X1309Y2412D01*
X1303Y2409D01*
X1295Y2403D01*
X1288Y2395D01*
X1284Y2385D01*
X1283Y2375D01*
X1284Y2364D01*
X1288Y2355D01*
X1295Y2347D01*
X1303Y2340D01*
X1313Y2336D01*
X1323Y2335D01*
X1333Y2336D01*
X1343Y2340D01*
X1351Y2347D01*
X1357Y2355D01*
X1359Y2359D01*
X1985D01*
X1988Y2355D01*
Y2333D01*
X1987Y2332D01*
X1982Y2324D01*
X1982Y2324D01*
X1977D01*
X1977Y2324D01*
X1971Y2332D01*
X1964Y2337D01*
X1954Y2339D01*
X1945Y2337D01*
X1937Y2332D01*
X1932Y2324D01*
X1932Y2324D01*
X1927D01*
X1927Y2324D01*
X1921Y2332D01*
X1914Y2337D01*
X1904Y2339D01*
X1895Y2337D01*
X1887Y2332D01*
X1882Y2324D01*
X1882Y2324D01*
X1877D01*
X1877Y2324D01*
X1871Y2332D01*
X1864Y2337D01*
X1854Y2339D01*
X1845Y2337D01*
X1837Y2332D01*
X1832Y2324D01*
X1832Y2324D01*
X1827D01*
X1827Y2324D01*
X1821Y2332D01*
X1814Y2337D01*
X1804Y2339D01*
X1795Y2337D01*
X1787Y2332D01*
X1782Y2324D01*
X1782Y2324D01*
X1777D01*
X1777Y2324D01*
X1771Y2332D01*
X1764Y2337D01*
X1754Y2339D01*
X1745Y2337D01*
X1737Y2332D01*
X1732Y2324D01*
X1732Y2324D01*
X1727D01*
X1727Y2324D01*
X1721Y2332D01*
X1714Y2337D01*
X1709Y2338D01*
Y2280D01*
Y2221D01*
X1714Y2222D01*
X1721Y2227D01*
X1727Y2235D01*
X1727Y2235D01*
X1732D01*
X1732Y2235D01*
X1737Y2227D01*
X1738Y2226D01*
Y2214D01*
X1733Y2209D01*
X1406D01*
X1399Y2208D01*
X1394Y2204D01*
X1378Y2189D01*
X1375Y2183D01*
X1374Y2177D01*
Y2158D01*
X1370Y2157D01*
X1362Y2150D01*
X1355Y2142D01*
X1351Y2132D01*
X1350Y2122D01*
X1351Y2112D01*
X1353Y2108D01*
X1349Y2105D01*
X1343Y2109D01*
X1333Y2113D01*
X1323Y2115D01*
X1313Y2113D01*
X1303Y2109D01*
X1295Y2103D01*
X1288Y2095D01*
X1284Y2085D01*
X1283Y2075D01*
X1284Y2064D01*
X1288Y2055D01*
X1295Y2047D01*
X1303Y2040D01*
X1307Y2039D01*
Y2030D01*
X1292Y2016D01*
X1165D01*
X1159Y2015D01*
X1154Y2011D01*
X1115Y1972D01*
X1111Y1967D01*
X1110Y1961D01*
Y1940D01*
X1096Y1926D01*
X904D01*
X898Y1932D01*
Y2032D01*
X903Y2035D01*
X907Y2031D01*
X917Y2027D01*
X927Y2026D01*
X937Y2027D01*
X947Y2031D01*
X955Y2038D01*
X962Y2046D01*
X966Y2055D01*
X967Y2066D01*
Y2085D01*
X966Y2096D01*
X962Y2105D01*
X955Y2114D01*
X947Y2120D01*
X937Y2124D01*
X927Y2125D01*
X917Y2124D01*
X907Y2120D01*
X903Y2117D01*
X898Y2119D01*
Y2907D01*
X903Y2908D01*
X903Y2908D01*
X908Y2901D01*
X917Y2895D01*
X920Y2893D01*
Y2815D01*
X922Y2809D01*
X925Y2804D01*
X981Y2748D01*
X986Y2745D01*
X992Y2744D01*
X1807D01*
X1813Y2745D01*
X1819Y2748D01*
X1858Y2788D01*
X1861Y2793D01*
X1863Y2799D01*
Y3596D01*
X1896Y3629D01*
X4863D01*
X4881Y3611D01*
Y3520D01*
X4883Y3513D01*
X4886Y3508D01*
X4910Y3485D01*
X4915Y3481D01*
X4921Y3480D01*
X6173D01*
Y763D01*
X6155Y745D01*
X5917D01*
X5916Y748D01*
X5909Y757D01*
X5901Y763D01*
X5891Y767D01*
X5881Y768D01*
X5871Y767D01*
X5861Y763D01*
X5853Y757D01*
X5847Y748D01*
X5843Y739D01*
X5841Y728D01*
X5843Y718D01*
X5847Y708D01*
X5853Y700D01*
X5861Y694D01*
X5871Y690D01*
X5881Y688D01*
X5891Y690D01*
X5901Y694D01*
X5909Y700D01*
X5916Y708D01*
X5917Y712D01*
X6161D01*
X6168Y713D01*
X6173Y717D01*
X6200Y744D01*
X6204Y750D01*
X6205Y756D01*
Y3488D01*
X6204Y3494D01*
X6200Y3500D01*
X6193Y3508D01*
X6187Y3511D01*
X6181Y3512D01*
X4928D01*
X4914Y3526D01*
Y3618D01*
X4913Y3624D01*
X4909Y3630D01*
X4882Y3657D01*
X4876Y3661D01*
X4870Y3662D01*
X1890D01*
X1884Y3661D01*
X1878Y3657D01*
X1835Y3614D01*
X1831Y3609D01*
X1830Y3602D01*
Y2806D01*
X1800Y2776D01*
X999D01*
X953Y2822D01*
Y2893D01*
X957Y2895D01*
X965Y2901D01*
X971Y2910D01*
X975Y2919D01*
X976Y2930D01*
Y2949D01*
X975Y2960D01*
X971Y2969D01*
X965Y2977D01*
X957Y2984D01*
X947Y2988D01*
X937Y2989D01*
X926Y2988D01*
X917Y2984D01*
X908Y2977D01*
X903Y2971D01*
X898Y2972D01*
Y2993D01*
X912Y3007D01*
X1017D01*
X1020Y3004D01*
Y2985D01*
X1017Y2984D01*
X1008Y2977D01*
X1002Y2969D01*
X998Y2960D01*
X997Y2949D01*
Y2930D01*
X998Y2919D01*
X1002Y2910D01*
X1008Y2901D01*
X1017Y2895D01*
X1026Y2891D01*
X1037Y2890D01*
X1047Y2891D01*
X1057Y2895D01*
X1062Y2899D01*
X1067Y2897D01*
Y2869D01*
X1069Y2862D01*
X1073Y2855D01*
X1096Y2832D01*
X1102Y2828D01*
X1110Y2826D01*
X1139D01*
X1145Y2818D01*
X1153Y2812D01*
X1163Y2808D01*
X1173Y2807D01*
X1184Y2808D01*
X1193Y2812D01*
X1201Y2818D01*
X1208Y2826D01*
X1220D01*
X1228Y2828D01*
X1235Y2832D01*
X1251Y2848D01*
X1255Y2855D01*
X1257Y2863D01*
Y2895D01*
X1265Y2901D01*
X1271Y2910D01*
X1275Y2919D01*
X1305D01*
Y2900D01*
X1368D01*
Y2979D01*
X1305D01*
Y2960D01*
X1275D01*
X1271Y2969D01*
X1265Y2977D01*
X1257Y2984D01*
X1247Y2988D01*
X1237Y2989D01*
X1226Y2988D01*
X1217Y2984D01*
X1208Y2977D01*
X1202Y2969D01*
X1198Y2960D01*
X1197Y2949D01*
Y2930D01*
X1198Y2919D01*
X1202Y2910D01*
X1208Y2901D01*
X1216Y2895D01*
Y2871D01*
X1212Y2867D01*
X1207Y2867D01*
X1201Y2875D01*
X1193Y2881D01*
X1184Y2885D01*
X1173Y2886D01*
X1163Y2885D01*
X1153Y2881D01*
X1145Y2875D01*
X1139Y2867D01*
X1119D01*
X1107Y2878D01*
Y2896D01*
X1112Y2898D01*
X1117Y2895D01*
X1126Y2891D01*
X1137Y2890D01*
X1147Y2891D01*
X1157Y2895D01*
X1165Y2901D01*
X1171Y2910D01*
X1175Y2919D01*
X1176Y2930D01*
Y2949D01*
X1175Y2960D01*
X1171Y2969D01*
X1165Y2977D01*
X1157Y2984D01*
X1153Y2985D01*
Y3000D01*
X1176Y3023D01*
X1764D01*
X1770Y3024D01*
X1775Y3028D01*
X1811Y3063D01*
X1814Y3069D01*
X1815Y3075D01*
Y3635D01*
X1849Y3669D01*
X4907D01*
X4921Y3655D01*
Y3583D01*
X4922Y3576D01*
X4926Y3571D01*
X4969Y3528D01*
X4974Y3524D01*
X4980Y3523D01*
X6198D01*
X6224Y3497D01*
Y672D01*
X6194Y642D01*
X6045D01*
X6043Y646D01*
X6037Y654D01*
X6029Y661D01*
X6019Y664D01*
X6009Y666D01*
X5998Y664D01*
X5989Y661D01*
X5980Y654D01*
X5974Y646D01*
X5970Y636D01*
X5969Y626D01*
X5970Y616D01*
X5974Y606D01*
X5980Y598D01*
X5989Y591D01*
X5998Y587D01*
X6009Y586D01*
X6019Y587D01*
X6029Y591D01*
X6037Y598D01*
X6043Y606D01*
X6045Y610D01*
X6201D01*
X6207Y611D01*
X6212Y615D01*
X6252Y654D01*
X6255Y659D01*
X6256Y665D01*
Y3504D01*
X6255Y3510D01*
X6252Y3515D01*
X6216Y3551D01*
X6211Y3554D01*
X6205Y3556D01*
X4987D01*
X4953Y3589D01*
Y3661D01*
X4952Y3668D01*
X4948Y3673D01*
X4925Y3697D01*
X4920Y3700D01*
X4913Y3701D01*
X1843D01*
X1836Y3700D01*
X1831Y3697D01*
X1798Y3664D01*
X1794Y3666D01*
Y3678D01*
X1835Y3720D01*
X4952D01*
X4968Y3704D01*
Y3610D01*
X4969Y3602D01*
X4974Y3596D01*
X4998Y3572D01*
X5004Y3568D01*
X5012Y3566D01*
X5535D01*
X5543Y3568D01*
X5550Y3572D01*
X5585Y3608D01*
X5590Y3614D01*
X5591Y3622D01*
Y3815D01*
X5590Y3823D01*
X5585Y3829D01*
X5550Y3865D01*
X5543Y3869D01*
X5535Y3871D01*
X1508D01*
X1500Y3869D01*
X1494Y3865D01*
X1474Y3845D01*
X1469Y3838D01*
X1468Y3831D01*
Y3497D01*
X1444Y3473D01*
X295D01*
X288Y3471D01*
X281Y3467D01*
X249Y3436D01*
X245Y3429D01*
X244Y3421D01*
Y358D01*
X245Y351D01*
X249Y344D01*
X297Y297D01*
X303Y292D01*
X311Y291D01*
X775D01*
X791Y275D01*
Y102D01*
X792Y95D01*
X797Y88D01*
X844Y41D01*
X851Y36D01*
X858Y35D01*
X2213D01*
X2220Y36D01*
X2227Y41D01*
X2286Y100D01*
X2290Y106D01*
X2292Y114D01*
Y302D01*
X2304Y314D01*
X2346D01*
X2354Y316D01*
X2361Y320D01*
X2377Y336D01*
X2381Y342D01*
X2382Y350D01*
Y370D01*
X2394D01*
Y389D01*
X2448D01*
X2456Y391D01*
X2461Y395D01*
X2463Y394D01*
X2483D01*
X2493Y396D01*
X2503Y400D01*
X2511Y406D01*
X2517Y414D01*
X2521Y424D01*
X2523Y434D01*
X2521Y445D01*
X2517Y454D01*
X2511Y462D01*
X2503Y469D01*
X2493Y473D01*
X2483Y474D01*
X2463D01*
X2453Y473D01*
X2443Y469D01*
X2435Y462D01*
X2428Y454D01*
X2424Y445D01*
X2423Y434D01*
X2423Y433D01*
X2420Y430D01*
X2394D01*
Y449D01*
X2382D01*
Y476D01*
X2381Y484D01*
X2377Y491D01*
X2365Y502D01*
X2358Y507D01*
X2350Y508D01*
X2036D01*
Y567D01*
X2034Y575D01*
X2030Y581D01*
X1993Y619D01*
Y1051D01*
X1991Y1059D01*
X1987Y1065D01*
X1946Y1106D01*
X1939Y1111D01*
X1931Y1112D01*
X1187D01*
Y1134D01*
X1104D01*
Y1112D01*
X963D01*
Y1131D01*
X880D01*
Y1110D01*
X649D01*
X641Y1108D01*
X635Y1104D01*
X604Y1074D01*
X577Y1101D01*
X571Y1105D01*
X563Y1107D01*
X504D01*
X473Y1138D01*
Y2377D01*
X495Y2399D01*
X495Y2399D01*
X501Y2399D01*
X506Y2392D01*
X515Y2386D01*
X525Y2382D01*
X535Y2380D01*
X546Y2382D01*
X556Y2386D01*
X565Y2392D01*
X572Y2401D01*
X576Y2411D01*
X577Y2422D01*
X576Y2433D01*
X572Y2443D01*
X565Y2452D01*
X556Y2458D01*
X546Y2462D01*
X535Y2464D01*
X525Y2462D01*
X515Y2458D01*
X506Y2452D01*
X500Y2444D01*
X495Y2444D01*
X494Y2444D01*
X485Y2453D01*
Y2999D01*
X497Y3011D01*
X616D01*
Y2984D01*
X608Y2977D01*
X602Y2969D01*
X598Y2960D01*
X597Y2949D01*
Y2930D01*
X598Y2919D01*
X602Y2910D01*
X608Y2901D01*
X617Y2895D01*
X626Y2891D01*
X637Y2890D01*
X647Y2891D01*
X657Y2895D01*
X665Y2901D01*
X671Y2910D01*
X675Y2919D01*
X698D01*
X702Y2910D01*
X708Y2901D01*
X717Y2895D01*
X726Y2891D01*
X737Y2890D01*
X747Y2891D01*
X757Y2895D01*
X765Y2901D01*
X771Y2910D01*
X775Y2919D01*
X776Y2930D01*
Y2949D01*
X775Y2960D01*
X771Y2969D01*
X765Y2977D01*
X757Y2984D01*
X747Y2988D01*
X737Y2989D01*
X726Y2988D01*
X717Y2984D01*
X708Y2977D01*
X702Y2969D01*
X698Y2960D01*
X675D01*
X671Y2969D01*
X665Y2977D01*
X657Y2984D01*
Y3021D01*
X655Y3029D01*
X651Y3035D01*
X640Y3046D01*
X634Y3050D01*
X626Y3052D01*
X488D01*
X480Y3050D01*
X474Y3046D01*
X450Y3022D01*
X446Y3016D01*
X444Y3008D01*
Y2445D01*
X446Y2437D01*
X450Y2431D01*
X460Y2421D01*
X438Y2400D01*
X434Y2394D01*
X433Y2386D01*
Y1130D01*
X434Y1122D01*
X438Y1116D01*
X482Y1072D01*
X488Y1068D01*
X496Y1066D01*
X555D01*
X580Y1041D01*
X580Y1041D01*
Y749D01*
X551D01*
Y651D01*
X649D01*
Y749D01*
X620D01*
Y1033D01*
X657Y1070D01*
X880D01*
Y1048D01*
X963D01*
Y1072D01*
X1104D01*
Y1051D01*
X1187D01*
Y1072D01*
X1923D01*
X1952Y1043D01*
Y619D01*
X1948Y615D01*
X1843D01*
X1836Y621D01*
Y632D01*
X1839Y636D01*
X1840Y645D01*
Y716D01*
X1839Y725D01*
X1833Y733D01*
X1825Y738D01*
X1816Y740D01*
X1807Y738D01*
X1799Y733D01*
X1794Y725D01*
X1794Y725D01*
X1789D01*
X1789Y725D01*
X1783Y733D01*
X1780Y735D01*
Y843D01*
X1779Y849D01*
X1775Y854D01*
X1756Y874D01*
X1750Y877D01*
X1744Y878D01*
X1608D01*
Y904D01*
X1525D01*
Y878D01*
X1420D01*
X1406Y893D01*
Y986D01*
X1410Y988D01*
X1418Y994D01*
X1424Y1002D01*
X1428Y1012D01*
X1430Y1022D01*
X1428Y1032D01*
X1424Y1042D01*
X1418Y1050D01*
X1410Y1057D01*
X1400Y1061D01*
X1390Y1062D01*
X1379Y1061D01*
X1370Y1057D01*
X1362Y1050D01*
X1355Y1042D01*
X1351Y1032D01*
X1350Y1022D01*
X1351Y1012D01*
X1355Y1002D01*
X1362Y994D01*
X1370Y988D01*
X1374Y986D01*
Y892D01*
X1369Y892D01*
X1368Y895D01*
X1367Y902D01*
X1363Y912D01*
X1356Y921D01*
X1348Y928D01*
X1338Y932D01*
X1332Y933D01*
Y891D01*
Y850D01*
X1338Y851D01*
X1348Y855D01*
X1356Y862D01*
X1363Y870D01*
X1367Y881D01*
X1368Y887D01*
X1369Y891D01*
X1374Y890D01*
Y886D01*
X1375Y880D01*
X1378Y874D01*
X1402Y851D01*
X1407Y847D01*
X1413Y846D01*
X1525D01*
Y821D01*
X1608D01*
Y846D01*
X1737D01*
X1748Y836D01*
Y731D01*
X1744Y725D01*
X1744Y725D01*
X1739D01*
X1739Y725D01*
X1733Y733D01*
X1732Y734D01*
Y768D01*
X1731Y774D01*
X1728Y780D01*
X1704Y803D01*
X1699Y806D01*
X1693Y808D01*
X1368D01*
Y833D01*
X1285D01*
Y750D01*
X1368D01*
Y775D01*
X1686D01*
X1700Y761D01*
Y734D01*
X1699Y733D01*
X1694Y725D01*
X1694Y725D01*
X1689D01*
X1689Y725D01*
X1683Y733D01*
X1675Y738D01*
X1671Y739D01*
Y680D01*
Y622D01*
X1675Y622D01*
X1683Y628D01*
X1689Y636D01*
X1689Y636D01*
X1694D01*
X1694Y636D01*
X1699Y628D01*
X1700Y627D01*
Y601D01*
X1697Y599D01*
X1570D01*
X1563Y605D01*
Y685D01*
X1562Y691D01*
X1559Y697D01*
X1544Y711D01*
X1538Y715D01*
X1532Y716D01*
X1177D01*
X1174Y722D01*
X1167Y731D01*
X1158Y738D01*
X1148Y742D01*
X1136Y744D01*
X1125Y742D01*
X1114Y738D01*
X1105Y731D01*
X1098Y722D01*
X1096Y716D01*
X889D01*
X883Y715D01*
X878Y711D01*
X859Y693D01*
X855Y687D01*
X854Y681D01*
Y142D01*
X855Y136D01*
X859Y130D01*
X886Y103D01*
X891Y99D01*
X898Y98D01*
X2039D01*
X2046Y99D01*
X2051Y103D01*
X2078Y129D01*
X2081Y135D01*
X2082Y141D01*
Y242D01*
X2087Y244D01*
X2096Y251D01*
X2102Y259D01*
X2107Y269D01*
X2108Y280D01*
X2107Y291D01*
X2102Y301D01*
X2096Y310D01*
X2087Y317D01*
X2077Y321D01*
X2066Y322D01*
X2055Y321D01*
X2045Y317D01*
X2037Y310D01*
X2030Y301D01*
X2026Y291D01*
X2024Y280D01*
X2026Y269D01*
X2030Y259D01*
X2037Y251D01*
X2045Y244D01*
X2050Y242D01*
Y148D01*
X2033Y130D01*
X904D01*
X886Y148D01*
Y674D01*
X896Y684D01*
X1096D01*
X1098Y678D01*
X1105Y669D01*
X1114Y662D01*
X1125Y658D01*
X1136Y656D01*
X1148Y658D01*
X1158Y662D01*
X1167Y669D01*
X1174Y678D01*
X1177Y684D01*
X1526D01*
X1531Y678D01*
Y598D01*
X1532Y592D01*
X1536Y587D01*
X1552Y571D01*
X1557Y568D01*
X1563Y566D01*
X1690D01*
X1700Y557D01*
Y541D01*
X1699Y540D01*
X1694Y532D01*
X1694Y532D01*
X1689D01*
X1689Y532D01*
X1683Y540D01*
X1675Y545D01*
X1666Y547D01*
X1657Y545D01*
X1649Y540D01*
X1644Y532D01*
X1642Y523D01*
Y508D01*
X1525D01*
X1516Y516D01*
Y571D01*
X1515Y579D01*
X1510Y585D01*
X1483Y613D01*
X1476Y617D01*
X1469Y619D01*
X969D01*
X961Y617D01*
X954Y613D01*
X931Y589D01*
X926Y583D01*
X925Y575D01*
Y220D01*
X926Y213D01*
X931Y206D01*
X958Y179D01*
X965Y174D01*
X972Y173D01*
X1634D01*
X1642Y174D01*
X1648Y179D01*
X1680Y211D01*
X1685Y217D01*
X1686Y225D01*
Y244D01*
X1687Y244D01*
X1696Y251D01*
X1702Y259D01*
X1703Y260D01*
X1930D01*
X1938Y262D01*
X1944Y266D01*
X1979Y301D01*
X1983Y307D01*
X1985Y315D01*
Y429D01*
X2024Y468D01*
X2342D01*
Y449D01*
X2331D01*
Y370D01*
X2342D01*
Y358D01*
X2338Y354D01*
X2295D01*
X2288Y353D01*
X2281Y349D01*
X2257Y325D01*
X2253Y318D01*
X2251Y311D01*
Y123D01*
X2204Y75D01*
X867D01*
X831Y111D01*
Y283D01*
X830Y291D01*
X825Y298D01*
X798Y325D01*
X791Y330D01*
X783Y331D01*
X319D01*
X284Y367D01*
Y3413D01*
X304Y3433D01*
X1453D01*
X1460Y3434D01*
X1467Y3438D01*
X1502Y3474D01*
X1507Y3480D01*
X1508Y3488D01*
Y3822D01*
X1516Y3830D01*
X5527D01*
X5551Y3807D01*
Y3630D01*
X5527Y3607D01*
X5020D01*
X5008Y3619D01*
Y3713D01*
X5007Y3720D01*
X5002Y3727D01*
X4975Y3754D01*
X4968Y3759D01*
X4961Y3760D01*
X1827D01*
X1819Y3759D01*
X1812Y3754D01*
X1759Y3701D01*
X1755Y3695D01*
X1753Y3687D01*
Y3128D01*
X1720Y3095D01*
X1119D01*
X1112Y3093D01*
X1105Y3089D01*
X1073Y3057D01*
X1069Y3050D01*
X1067Y3043D01*
Y2982D01*
X1062Y2980D01*
X1057Y2984D01*
X1053Y2985D01*
Y3011D01*
X1052Y3017D01*
X1048Y3022D01*
X1035Y3035D01*
X1030Y3039D01*
X1024Y3040D01*
X906D01*
X899Y3039D01*
X894Y3035D01*
X871Y3012D01*
X867Y3006D01*
X866Y3000D01*
Y2983D01*
X861Y2980D01*
X857Y2984D01*
X847Y2988D01*
X842Y2988D01*
Y2939D01*
Y2890D01*
X847Y2891D01*
X857Y2895D01*
X861Y2898D01*
X866Y2896D01*
Y2109D01*
X861Y2107D01*
X855Y2114D01*
X847Y2120D01*
X837Y2124D01*
X827Y2125D01*
X817Y2124D01*
X807Y2120D01*
X799Y2114D01*
X793Y2105D01*
X789Y2096D01*
X787Y2085D01*
Y2066D01*
X789Y2055D01*
X793Y2046D01*
X799Y2038D01*
X807Y2031D01*
X811Y2030D01*
Y1959D01*
X804Y1953D01*
X791D01*
X785Y1952D01*
X780Y1948D01*
X764Y1933D01*
X761Y1927D01*
X759Y1921D01*
Y1816D01*
X754Y1814D01*
X747Y1820D01*
X737Y1824D01*
X727Y1825D01*
X717Y1824D01*
X707Y1820D01*
X699Y1814D01*
X693Y1805D01*
X689Y1796D01*
X687Y1785D01*
Y1766D01*
X689Y1755D01*
X693Y1746D01*
X699Y1738D01*
X707Y1731D01*
X711Y1730D01*
Y1233D01*
X712Y1227D01*
X716Y1222D01*
X739Y1198D01*
X738Y1194D01*
X737Y1193D01*
X656D01*
X643Y1206D01*
Y1730D01*
X647Y1731D01*
X655Y1738D01*
X662Y1746D01*
X666Y1755D01*
X667Y1766D01*
Y1785D01*
X666Y1796D01*
X662Y1805D01*
X655Y1814D01*
X647Y1820D01*
X637Y1824D01*
X627Y1825D01*
X617Y1824D01*
X607Y1820D01*
X599Y1814D01*
X593Y1805D01*
X589Y1796D01*
X587Y1785D01*
Y1766D01*
X589Y1755D01*
X593Y1746D01*
X599Y1738D01*
X607Y1731D01*
X611Y1730D01*
Y1200D01*
X612Y1193D01*
X616Y1188D01*
X638Y1166D01*
X643Y1162D01*
X650Y1161D01*
X2037D01*
X2059Y1139D01*
Y772D01*
X2055Y771D01*
X2047Y764D01*
X2040Y756D01*
X2036Y747D01*
X2035Y736D01*
X2036Y726D01*
X2040Y716D01*
X2047Y708D01*
X2055Y702D01*
X2064Y698D01*
X2075Y696D01*
X2085Y698D01*
X2095Y702D01*
X2103Y708D01*
X2109Y716D01*
X2113Y726D01*
X2115Y736D01*
X2113Y747D01*
X2109Y756D01*
X2103Y764D01*
X2095Y771D01*
X2091Y772D01*
Y1146D01*
X2090Y1152D01*
X2086Y1157D01*
X2056Y1187D01*
X2058Y1192D01*
X2058Y1192D01*
X2139D01*
X2145Y1186D01*
Y555D01*
X2146Y549D01*
X2150Y544D01*
X2171Y523D01*
X2176Y519D01*
X2182Y518D01*
X2427D01*
X2428Y514D01*
X2435Y506D01*
X2443Y500D01*
X2453Y496D01*
X2463Y494D01*
X2483D01*
X2493Y496D01*
X2503Y500D01*
X2511Y506D01*
X2517Y514D01*
X2521Y524D01*
X2523Y534D01*
X2521Y545D01*
X2517Y554D01*
X2511Y562D01*
X2503Y569D01*
X2493Y573D01*
X2483Y574D01*
X2463D01*
X2453Y573D01*
X2443Y569D01*
X2435Y562D01*
X2428Y554D01*
X2427Y550D01*
X2189D01*
X2178Y562D01*
Y1193D01*
X2176Y1199D01*
X2173Y1204D01*
X2162Y1215D01*
X2164Y1220D01*
X2198D01*
X2208Y1210D01*
Y657D01*
X2209Y651D01*
X2213Y646D01*
X2236Y623D01*
X2241Y619D01*
X2248Y618D01*
X2427D01*
X2428Y614D01*
X2435Y606D01*
X2443Y600D01*
X2453Y596D01*
X2463Y594D01*
X2483D01*
X2493Y596D01*
X2503Y600D01*
X2511Y606D01*
X2517Y614D01*
X2521Y624D01*
X2523Y634D01*
X2521Y645D01*
X2517Y654D01*
X2511Y662D01*
X2503Y669D01*
X2493Y673D01*
X2483Y674D01*
X2463D01*
X2453Y673D01*
X2443Y669D01*
X2435Y662D01*
X2428Y654D01*
X2427Y650D01*
X2254D01*
X2241Y664D01*
Y1217D01*
X2239Y1223D01*
X2236Y1228D01*
X2217Y1247D01*
X2218Y1250D01*
X2219Y1252D01*
X2241D01*
X2246Y1246D01*
X2246Y1246D01*
X2263Y1230D01*
Y1012D01*
X2265Y1006D01*
X2268Y1000D01*
X2296Y973D01*
X2301Y969D01*
X2307Y968D01*
X2434D01*
X2436Y963D01*
X2435Y962D01*
X2428Y954D01*
X2424Y945D01*
X2423Y934D01*
X2424Y924D01*
X2428Y914D01*
X2435Y906D01*
X2443Y900D01*
X2453Y896D01*
X2463Y894D01*
X2483D01*
X2493Y896D01*
X2503Y900D01*
X2511Y906D01*
X2517Y914D01*
X2519Y918D01*
X2579D01*
X2582Y915D01*
Y75D01*
X2583Y69D01*
X2587Y63D01*
X2622Y28D01*
X2628Y24D01*
X2634Y23D01*
X5331D01*
X5333Y24D01*
X5340Y21D01*
X5342Y20D01*
X5342Y15D01*
X15D01*
Y3922D01*
X6284D01*
Y15D01*
D02*
G37*
G36*
X3220Y1918D02*
Y1890D01*
X3215Y1889D01*
X3215Y1889D01*
X3207Y1896D01*
X3197Y1900D01*
X3187Y1901D01*
X3176Y1900D01*
X3167Y1896D01*
X3158Y1889D01*
X3153Y1882D01*
X3148Y1884D01*
Y1918D01*
X3152Y1920D01*
X3160Y1926D01*
X3167Y1935D01*
X3171Y1944D01*
X3172Y1955D01*
X3171Y1960D01*
X3176Y1963D01*
X3220Y1918D01*
D02*
G37*
G36*
X4214Y3488D02*
Y3192D01*
X4210Y3191D01*
X4202Y3184D01*
X4195Y3176D01*
X4191Y3167D01*
X4190Y3156D01*
Y3137D01*
X4191Y3126D01*
X4195Y3117D01*
X4202Y3108D01*
X4210Y3102D01*
X4214Y3101D01*
Y3091D01*
X4202Y3079D01*
X4150D01*
X4143Y3078D01*
X4138Y3074D01*
X4130Y3066D01*
X4122Y3074D01*
X4116Y3078D01*
X4110Y3079D01*
X4054D01*
X4046Y3087D01*
Y3101D01*
X4050Y3102D01*
X4058Y3108D01*
X4064Y3117D01*
X4068Y3126D01*
X4070Y3137D01*
Y3156D01*
X4068Y3167D01*
X4064Y3176D01*
X4058Y3184D01*
X4050Y3191D01*
X4040Y3195D01*
X4030Y3196D01*
X4020Y3195D01*
X4010Y3191D01*
X4002Y3184D01*
X3995Y3176D01*
X3991Y3167D01*
X3990Y3156D01*
Y3137D01*
X3991Y3126D01*
X3995Y3117D01*
X4002Y3108D01*
X4010Y3102D01*
X4014Y3101D01*
Y3080D01*
X4015Y3074D01*
X4018Y3069D01*
X4036Y3052D01*
X4041Y3048D01*
X4047Y3047D01*
X4104D01*
X4114Y3037D01*
Y2953D01*
X4115Y2947D01*
X4118Y2941D01*
X4131Y2929D01*
X4118Y2917D01*
X4115Y2912D01*
X4114Y2906D01*
Y2892D01*
X4110Y2891D01*
X4102Y2884D01*
X4095Y2876D01*
X4091Y2867D01*
X4090Y2856D01*
Y2837D01*
X4091Y2826D01*
X4095Y2817D01*
X4102Y2808D01*
X4110Y2802D01*
X4114Y2801D01*
Y2421D01*
X4115Y2415D01*
X4118Y2410D01*
X4150Y2378D01*
X4155Y2375D01*
X4161Y2374D01*
X5236D01*
X5242Y2375D01*
X5248Y2378D01*
X5287Y2418D01*
X5291Y2423D01*
X5292Y2429D01*
Y2684D01*
X5297Y2685D01*
X5301Y2675D01*
X5307Y2666D01*
X5316Y2659D01*
X5317Y2659D01*
Y2612D01*
X5318Y2604D01*
X5323Y2598D01*
X5344Y2576D01*
X5351Y2572D01*
X5358Y2570D01*
X5488D01*
X5507Y2551D01*
Y2480D01*
X5509Y2473D01*
X5513Y2466D01*
X5527Y2453D01*
X5513Y2440D01*
X5509Y2433D01*
X5507Y2425D01*
Y2378D01*
X5480Y2351D01*
X3709D01*
X3684Y2376D01*
Y2777D01*
X3685Y2777D01*
X3693Y2784D01*
X3700Y2792D01*
X3704Y2803D01*
X3706Y2813D01*
X3704Y2824D01*
X3700Y2834D01*
X3693Y2843D01*
X3685Y2850D01*
X3680Y2852D01*
Y2925D01*
X3685Y2927D01*
X3693Y2934D01*
X3700Y2942D01*
X3704Y2953D01*
X3706Y2963D01*
X3704Y2974D01*
X3700Y2984D01*
X3693Y2993D01*
X3685Y3000D01*
X3680Y3002D01*
Y3075D01*
X3685Y3077D01*
X3693Y3084D01*
X3700Y3092D01*
X3704Y3103D01*
X3706Y3113D01*
X3704Y3124D01*
X3700Y3134D01*
X3693Y3143D01*
X3685Y3150D01*
X3680Y3152D01*
Y3231D01*
X3681Y3231D01*
X3689Y3238D01*
X3696Y3247D01*
X3700Y3257D01*
X3702Y3268D01*
X3700Y3279D01*
X3696Y3289D01*
X3689Y3297D01*
X3681Y3304D01*
X3680Y3304D01*
Y3320D01*
X3679Y3328D01*
X3674Y3335D01*
X3655Y3354D01*
X3648Y3358D01*
X3641Y3360D01*
X2804D01*
X2797Y3358D01*
X2790Y3354D01*
X2774Y3338D01*
X2769Y3331D01*
X2768Y3324D01*
Y3234D01*
X2760Y3228D01*
X2754Y3220D01*
X2750Y3210D01*
X2748Y3200D01*
Y3180D01*
X2748Y3179D01*
X2726Y3157D01*
X2723Y3160D01*
X2723Y3160D01*
X2727Y3170D01*
X2728Y3180D01*
Y3200D01*
X2727Y3210D01*
X2723Y3220D01*
X2716Y3228D01*
X2708Y3234D01*
X2704Y3236D01*
Y3259D01*
X2709Y3261D01*
X2717Y3267D01*
X2724Y3275D01*
X2727Y3285D01*
X2729Y3295D01*
X2727Y3306D01*
X2724Y3315D01*
X2717Y3323D01*
X2709Y3330D01*
X2704Y3332D01*
Y3352D01*
X2709Y3354D01*
X2718Y3360D01*
X2724Y3369D01*
X2729Y3379D01*
X2730Y3390D01*
X2729Y3401D01*
X2724Y3411D01*
X2718Y3419D01*
X2709Y3426D01*
X2699Y3430D01*
X2688Y3432D01*
X2677Y3430D01*
X2667Y3426D01*
X2659Y3419D01*
X2652Y3411D01*
X2648Y3401D01*
X2646Y3390D01*
X2648Y3379D01*
X2652Y3369D01*
X2659Y3360D01*
X2667Y3354D01*
X2672Y3352D01*
Y3331D01*
X2669Y3330D01*
X2661Y3323D01*
X2654Y3315D01*
X2650Y3306D01*
X2649Y3295D01*
X2650Y3285D01*
X2654Y3275D01*
X2661Y3267D01*
X2669Y3261D01*
X2672Y3260D01*
Y3236D01*
X2668Y3234D01*
X2660Y3228D01*
X2654Y3220D01*
X2650Y3210D01*
X2648Y3200D01*
Y3180D01*
X2650Y3170D01*
X2654Y3160D01*
X2660Y3152D01*
X2668Y3145D01*
X2678Y3141D01*
X2688Y3140D01*
X2699Y3141D01*
X2708Y3145D01*
X2716Y3152D01*
X2720Y3148D01*
X2719Y3147D01*
X2717Y3139D01*
Y3091D01*
X2706D01*
Y3012D01*
X2717D01*
Y2933D01*
X2712Y2931D01*
X2708Y2934D01*
X2704Y2936D01*
Y2954D01*
X2703Y2960D01*
X2700Y2965D01*
X2677Y2988D01*
X2672Y2991D01*
X2665Y2993D01*
X2515D01*
X2504Y3003D01*
Y3080D01*
X2515Y3090D01*
X2563D01*
X2569Y3091D01*
X2574Y3095D01*
X2600Y3120D01*
X2603Y3125D01*
X2604Y3131D01*
Y3144D01*
X2608Y3145D01*
X2616Y3152D01*
X2623Y3160D01*
X2627Y3170D01*
X2628Y3180D01*
Y3200D01*
X2627Y3210D01*
X2623Y3220D01*
X2616Y3228D01*
X2608Y3234D01*
X2604Y3236D01*
Y3495D01*
X2617Y3507D01*
X4194D01*
X4214Y3488D01*
D02*
G37*
G36*
X3270Y1921D02*
Y1897D01*
X3267Y1896D01*
X3258Y1889D01*
X3257Y1888D01*
X3252Y1889D01*
Y1925D01*
X3251Y1931D01*
X3248Y1937D01*
X3135Y2049D01*
X3130Y2053D01*
X3124Y2054D01*
X2282D01*
X2275Y2053D01*
X2270Y2049D01*
X2241Y2019D01*
X2237Y2014D01*
X2236Y2008D01*
Y1969D01*
X2231Y1967D01*
X2229Y1969D01*
X2221Y1975D01*
X2211Y1979D01*
X2201Y1981D01*
X2190Y1979D01*
X2181Y1975D01*
X2173Y1969D01*
X2171Y1967D01*
X2166Y1969D01*
Y2052D01*
X2180Y2066D01*
X3125D01*
X3270Y1921D01*
D02*
G37*
G36*
X5301Y3125D02*
X5307Y3116D01*
X5316Y3109D01*
X5317Y3109D01*
Y3032D01*
X5316Y3032D01*
X5307Y3025D01*
X5301Y3017D01*
X5297Y3007D01*
X5292Y3007D01*
Y3134D01*
X5297Y3135D01*
X5301Y3125D01*
D02*
G37*
G36*
X2236Y1819D02*
Y1700D01*
X2226Y1689D01*
X2071D01*
X2065Y1688D01*
X2059Y1685D01*
X2036Y1661D01*
X2032Y1656D01*
X2031Y1650D01*
Y1595D01*
X2026Y1593D01*
X2019Y1599D01*
X2010Y1603D01*
X1999Y1604D01*
X1989Y1603D01*
X1979Y1599D01*
X1974Y1595D01*
X1969Y1597D01*
Y1690D01*
X1975Y1696D01*
X2130D01*
X2136Y1698D01*
X2141Y1701D01*
X2161Y1721D01*
X2165Y1726D01*
X2166Y1732D01*
Y1815D01*
X2171Y1817D01*
X2171Y1816D01*
X2179Y1810D01*
X2189Y1806D01*
X2199Y1805D01*
X2210Y1806D01*
X2219Y1810D01*
X2227Y1816D01*
X2231Y1821D01*
X2236Y1819D01*
D02*
G37*
G36*
X4673Y1215D02*
X4666Y1208D01*
X4662Y1203D01*
X4661Y1197D01*
Y1159D01*
X4656Y1158D01*
X4653Y1161D01*
X4645Y1167D01*
X4636Y1171D01*
X4625Y1173D01*
X4615Y1171D01*
X4605Y1167D01*
X4597Y1161D01*
X4591Y1153D01*
X4587Y1143D01*
X4585Y1133D01*
Y1113D01*
X4587Y1103D01*
X4591Y1093D01*
X4597Y1085D01*
X4605Y1078D01*
X4615Y1074D01*
X4625Y1073D01*
X4636Y1074D01*
X4645Y1078D01*
X4653Y1085D01*
X4656Y1088D01*
X4661Y1086D01*
Y1030D01*
X4647Y1016D01*
X4449D01*
X4443Y1015D01*
X4437Y1011D01*
X4414Y988D01*
X4410Y983D01*
X4409Y976D01*
Y872D01*
X4386D01*
Y773D01*
X4381Y772D01*
X4351D01*
X4347Y776D01*
Y1090D01*
X4360Y1103D01*
X4387D01*
X4391Y1093D01*
X4397Y1085D01*
X4405Y1078D01*
X4415Y1074D01*
X4425Y1073D01*
X4436Y1074D01*
X4445Y1078D01*
X4453Y1085D01*
X4460Y1093D01*
X4464Y1103D01*
X4465Y1113D01*
Y1133D01*
X4464Y1143D01*
X4460Y1153D01*
X4453Y1161D01*
X4445Y1167D01*
Y1204D01*
X4461Y1220D01*
X4671D01*
X4673Y1215D01*
D02*
G37*
G36*
X4258Y3524D02*
Y3253D01*
X4259Y3248D01*
Y3190D01*
X4254Y3187D01*
X4250Y3191D01*
X4246Y3192D01*
Y3494D01*
X4245Y3501D01*
X4241Y3506D01*
X4214Y3534D01*
X4215Y3539D01*
X4215Y3539D01*
X4244D01*
X4258Y3524D01*
D02*
G37*
G36*
X2065Y1825D02*
X2071Y1816D01*
X2079Y1810D01*
X2089Y1806D01*
X2099Y1805D01*
X2110Y1806D01*
X2119Y1810D01*
X2127Y1816D01*
X2129Y1818D01*
X2133Y1816D01*
Y1739D01*
X2123Y1729D01*
X1969D01*
X1962Y1728D01*
X1957Y1724D01*
X1941Y1708D01*
X1938Y1703D01*
X1937Y1697D01*
Y1589D01*
X1932Y1587D01*
X1927Y1592D01*
X1919Y1599D01*
X1915Y1600D01*
Y1644D01*
X1914Y1650D01*
X1911Y1656D01*
X1893Y1673D01*
X1888Y1676D01*
X1882Y1678D01*
X1869D01*
X1867Y1680D01*
Y1815D01*
X1872Y1816D01*
X1879Y1810D01*
X1889Y1806D01*
X1899Y1805D01*
X1910Y1806D01*
X1919Y1810D01*
X1927Y1816D01*
X1934Y1825D01*
X1938Y1834D01*
X1961D01*
X1965Y1825D01*
X1971Y1816D01*
X1979Y1810D01*
X1989Y1806D01*
X1999Y1805D01*
X2010Y1806D01*
X2019Y1810D01*
X2027Y1816D01*
X2034Y1825D01*
X2038Y1834D01*
X2061D01*
X2065Y1825D01*
D02*
G37*
G36*
X2596Y3539D02*
X2598Y3534D01*
X2577Y3513D01*
X2573Y3508D01*
X2572Y3502D01*
Y3236D01*
X2568Y3234D01*
X2560Y3228D01*
X2554Y3220D01*
X2550Y3210D01*
X2548Y3200D01*
Y3180D01*
X2550Y3170D01*
X2554Y3160D01*
X2560Y3152D01*
X2568Y3145D01*
X2572Y3144D01*
Y3138D01*
X2556Y3123D01*
X2508D01*
X2502Y3121D01*
X2496Y3118D01*
X2488Y3110D01*
X2480Y3118D01*
X2475Y3121D01*
X2469Y3123D01*
X2412D01*
X2404Y3130D01*
Y3144D01*
X2408Y3145D01*
X2416Y3152D01*
X2423Y3160D01*
X2427Y3170D01*
X2428Y3180D01*
Y3200D01*
X2427Y3210D01*
X2423Y3220D01*
X2416Y3228D01*
X2408Y3234D01*
X2399Y3238D01*
X2388Y3239D01*
X2378Y3238D01*
X2368Y3234D01*
X2360Y3228D01*
X2354Y3220D01*
X2350Y3210D01*
X2348Y3200D01*
Y3180D01*
X2350Y3170D01*
X2354Y3160D01*
X2360Y3152D01*
X2368Y3145D01*
X2372Y3144D01*
Y3124D01*
X2373Y3117D01*
X2377Y3112D01*
X2394Y3095D01*
X2399Y3091D01*
X2406Y3090D01*
X2462D01*
X2472Y3080D01*
Y2996D01*
X2473Y2990D01*
X2477Y2985D01*
X2485Y2976D01*
X2477Y2968D01*
X2473Y2963D01*
X2472Y2957D01*
Y2936D01*
X2468Y2934D01*
X2463Y2930D01*
X2458Y2932D01*
Y3015D01*
X2456Y3023D01*
X2452Y3030D01*
X2420Y3062D01*
X2413Y3066D01*
X2406Y3067D01*
X1973D01*
X1949Y3091D01*
Y3151D01*
X1954Y3153D01*
X1959Y3148D01*
X1967Y3141D01*
X1977Y3137D01*
X1988Y3135D01*
X1999Y3137D01*
X2009Y3141D01*
X2018Y3148D01*
X2024Y3156D01*
X2029Y3166D01*
X2030Y3177D01*
X2029Y3188D01*
X2024Y3198D01*
X2018Y3207D01*
X2009Y3213D01*
X2004Y3215D01*
Y3359D01*
X2019Y3374D01*
X2250D01*
X2252Y3369D01*
X2259Y3360D01*
X2267Y3354D01*
X2277Y3349D01*
X2288Y3348D01*
X2299Y3349D01*
X2309Y3354D01*
X2318Y3360D01*
X2324Y3369D01*
X2326Y3374D01*
X2454D01*
X2472Y3355D01*
Y3236D01*
X2468Y3234D01*
X2460Y3228D01*
X2454Y3220D01*
X2450Y3210D01*
X2448Y3200D01*
Y3180D01*
X2450Y3170D01*
X2454Y3160D01*
X2460Y3152D01*
X2468Y3145D01*
X2478Y3141D01*
X2488Y3140D01*
X2499Y3141D01*
X2508Y3145D01*
X2516Y3152D01*
X2523Y3160D01*
X2527Y3170D01*
X2528Y3180D01*
Y3200D01*
X2527Y3210D01*
X2523Y3220D01*
X2516Y3228D01*
X2508Y3234D01*
X2504Y3236D01*
Y3362D01*
X2503Y3368D01*
X2500Y3374D01*
X2472Y3401D01*
X2467Y3405D01*
X2461Y3406D01*
X2326D01*
X2324Y3411D01*
X2318Y3419D01*
X2309Y3426D01*
X2299Y3430D01*
X2288Y3432D01*
X2277Y3430D01*
X2267Y3426D01*
X2259Y3419D01*
X2252Y3411D01*
X2250Y3406D01*
X2012D01*
X2006Y3405D01*
X2000Y3401D01*
X1977Y3378D01*
X1973Y3372D01*
X1972Y3366D01*
Y3215D01*
X1967Y3213D01*
X1959Y3207D01*
X1954Y3201D01*
X1949Y3203D01*
Y3531D01*
X1957Y3539D01*
X2596D01*
X2596Y3539D01*
D02*
G37*
%LPC*%
G36*
X2588Y2939D02*
X2578Y2938D01*
X2568Y2934D01*
X2560Y2928D01*
X2554Y2920D01*
X2550Y2910D01*
X2548Y2900D01*
Y2880D01*
X2550Y2870D01*
X2554Y2860D01*
X2560Y2852D01*
X2568Y2845D01*
X2572Y2844D01*
Y2728D01*
X2567Y2726D01*
X2559Y2719D01*
X2552Y2711D01*
X2548Y2701D01*
X2546Y2690D01*
X2548Y2679D01*
X2552Y2669D01*
X2559Y2660D01*
X2567Y2654D01*
X2572Y2652D01*
Y2609D01*
X2568Y2607D01*
X2559Y2600D01*
X2553Y2592D01*
X2549Y2582D01*
X2547Y2571D01*
X2549Y2560D01*
X2553Y2550D01*
X2559Y2541D01*
X2568Y2535D01*
X2578Y2530D01*
X2589Y2529D01*
X2600Y2530D01*
X2610Y2535D01*
X2619Y2541D01*
X2625Y2550D01*
X2629Y2560D01*
X2631Y2571D01*
X2629Y2582D01*
X2625Y2592D01*
X2619Y2600D01*
X2610Y2607D01*
X2604Y2609D01*
Y2652D01*
X2609Y2654D01*
X2618Y2660D01*
X2624Y2669D01*
X2629Y2679D01*
X2630Y2690D01*
X2629Y2701D01*
X2624Y2711D01*
X2618Y2719D01*
X2609Y2726D01*
X2604Y2728D01*
Y2844D01*
X2608Y2845D01*
X2616Y2852D01*
X2623Y2860D01*
X2627Y2870D01*
X2628Y2880D01*
Y2900D01*
X2627Y2910D01*
X2623Y2920D01*
X2616Y2928D01*
X2608Y2934D01*
X2599Y2938D01*
X2588Y2939D01*
D02*
G37*
G36*
X1236Y544D02*
X1225Y542D01*
X1214Y538D01*
X1205Y531D01*
X1198Y522D01*
X1194Y511D01*
X1192Y500D01*
X1194Y489D01*
X1198Y478D01*
X1205Y469D01*
X1214Y462D01*
X1225Y458D01*
X1236Y456D01*
X1248Y458D01*
X1258Y462D01*
X1267Y469D01*
X1274Y478D01*
X1279Y489D01*
X1280Y500D01*
X1279Y511D01*
X1274Y522D01*
X1267Y531D01*
X1258Y538D01*
X1248Y542D01*
X1236Y544D01*
D02*
G37*
G36*
X1322Y933D02*
X1316Y932D01*
X1306Y928D01*
X1297Y921D01*
X1291Y912D01*
X1286Y902D01*
X1286Y896D01*
X1322D01*
Y933D01*
D02*
G37*
G36*
X1187Y887D02*
X1151D01*
Y851D01*
X1157Y852D01*
X1167Y856D01*
X1175Y863D01*
X1182Y871D01*
X1186Y881D01*
X1187Y887D01*
D02*
G37*
G36*
X1322Y886D02*
X1286D01*
X1286Y881D01*
X1291Y870D01*
X1297Y862D01*
X1306Y855D01*
X1316Y851D01*
X1322Y850D01*
Y886D01*
D02*
G37*
G36*
X962Y885D02*
X926D01*
Y849D01*
X932Y849D01*
X942Y854D01*
X951Y860D01*
X958Y869D01*
X962Y879D01*
X962Y885D01*
D02*
G37*
G36*
X926Y931D02*
Y895D01*
X962D01*
X962Y901D01*
X958Y911D01*
X951Y919D01*
X942Y926D01*
X932Y930D01*
X926Y931D01*
D02*
G37*
G36*
X916D02*
X910Y930D01*
X900Y926D01*
X892Y919D01*
X885Y911D01*
X881Y901D01*
X880Y895D01*
X916D01*
Y931D01*
D02*
G37*
G36*
X1141Y887D02*
X1104D01*
X1105Y881D01*
X1109Y871D01*
X1116Y863D01*
X1125Y856D01*
X1135Y852D01*
X1141Y851D01*
Y887D01*
D02*
G37*
G36*
X2768Y1129D02*
X2724D01*
X2724Y1124D01*
X2728Y1114D01*
X2735Y1106D01*
X2743Y1100D01*
X2753Y1096D01*
X2763Y1094D01*
X2768D01*
Y1129D01*
D02*
G37*
G36*
X2822D02*
X2778D01*
Y1094D01*
X2783D01*
X2793Y1096D01*
X2803Y1100D01*
X2811Y1106D01*
X2817Y1114D01*
X2821Y1124D01*
X2822Y1129D01*
D02*
G37*
G36*
X2468D02*
X2424D01*
X2424Y1124D01*
X2428Y1114D01*
X2435Y1106D01*
X2443Y1100D01*
X2453Y1096D01*
X2463Y1094D01*
X2468D01*
Y1129D01*
D02*
G37*
G36*
X2522D02*
X2478D01*
Y1094D01*
X2483D01*
X2493Y1096D01*
X2503Y1100D01*
X2511Y1106D01*
X2517Y1114D01*
X2521Y1124D01*
X2522Y1129D01*
D02*
G37*
G36*
X2483Y1174D02*
X2478D01*
Y1139D01*
X2522D01*
X2521Y1145D01*
X2517Y1154D01*
X2511Y1162D01*
X2503Y1169D01*
X2493Y1173D01*
X2483Y1174D01*
D02*
G37*
G36*
X2783D02*
X2778D01*
Y1139D01*
X2822D01*
X2821Y1145D01*
X2817Y1154D01*
X2811Y1162D01*
X2803Y1169D01*
X2793Y1173D01*
X2783Y1174D01*
D02*
G37*
G36*
X2468D02*
X2463D01*
X2453Y1173D01*
X2443Y1169D01*
X2435Y1162D01*
X2428Y1154D01*
X2424Y1145D01*
X2424Y1139D01*
X2468D01*
Y1174D01*
D02*
G37*
G36*
X2768D02*
X2763D01*
X2753Y1173D01*
X2743Y1169D01*
X2735Y1162D01*
X2728Y1154D01*
X2724Y1145D01*
X2724Y1139D01*
X2768D01*
Y1174D01*
D02*
G37*
G36*
X3115Y1116D02*
X3088D01*
Y1082D01*
X3115D01*
Y1116D01*
D02*
G37*
G36*
X3078Y1072D02*
X3052D01*
Y1037D01*
X3078D01*
Y1072D01*
D02*
G37*
G36*
X3115D02*
X3088D01*
Y1037D01*
X3115D01*
Y1072D01*
D02*
G37*
G36*
X1141Y933D02*
X1135Y933D01*
X1125Y928D01*
X1116Y922D01*
X1109Y913D01*
X1105Y903D01*
X1104Y897D01*
X1141D01*
Y933D01*
D02*
G37*
G36*
X1151Y933D02*
Y897D01*
X1187D01*
X1186Y903D01*
X1182Y913D01*
X1175Y922D01*
X1167Y928D01*
X1157Y933D01*
X1151Y933D01*
D02*
G37*
G36*
X3078Y1116D02*
X3052D01*
Y1082D01*
X3078D01*
Y1116D01*
D02*
G37*
G36*
X2768Y1074D02*
X2763D01*
X2753Y1073D01*
X2743Y1069D01*
X2735Y1062D01*
X2728Y1054D01*
X2724Y1045D01*
X2724Y1039D01*
X2768D01*
Y1074D01*
D02*
G37*
G36*
X2783D02*
X2778D01*
Y1039D01*
X2822D01*
X2821Y1045D01*
X2817Y1054D01*
X2811Y1062D01*
X2803Y1069D01*
X2793Y1073D01*
X2783Y1074D01*
D02*
G37*
G36*
X916Y885D02*
X880D01*
X881Y879D01*
X885Y869D01*
X892Y860D01*
X900Y854D01*
X910Y849D01*
X916Y849D01*
Y885D01*
D02*
G37*
G36*
X4504Y467D02*
X4477D01*
Y433D01*
X4504D01*
Y467D01*
D02*
G37*
G36*
X4540D02*
X4514D01*
Y433D01*
X4540D01*
Y467D01*
D02*
G37*
G36*
X2314Y449D02*
X2288D01*
Y414D01*
X2314D01*
Y449D01*
D02*
G37*
G36*
X2822Y474D02*
X2723D01*
Y395D01*
X2822D01*
Y474D01*
D02*
G37*
G36*
X2278Y449D02*
X2251D01*
Y414D01*
X2278D01*
Y449D01*
D02*
G37*
G36*
X4504Y512D02*
X4477D01*
Y477D01*
X4504D01*
Y512D01*
D02*
G37*
G36*
X4540D02*
X4514D01*
Y477D01*
X4540D01*
Y512D01*
D02*
G37*
G36*
X595Y495D02*
X551D01*
X552Y487D01*
X557Y475D01*
X565Y465D01*
X575Y457D01*
X587Y452D01*
X595Y451D01*
Y495D01*
D02*
G37*
G36*
X649D02*
X605D01*
Y451D01*
X613Y452D01*
X625Y457D01*
X635Y465D01*
X643Y475D01*
X648Y487D01*
X649Y495D01*
D02*
G37*
G36*
X5030Y359D02*
X5020Y358D01*
X5010Y354D01*
X5002Y347D01*
X4996Y339D01*
X4992Y330D01*
X4990Y319D01*
Y300D01*
X4992Y289D01*
X4996Y280D01*
X5002Y271D01*
X5010Y265D01*
X5020Y261D01*
X5030Y260D01*
X5041Y261D01*
X5050Y265D01*
X5059Y271D01*
X5065Y280D01*
X5069Y289D01*
X5070Y300D01*
Y319D01*
X5069Y330D01*
X5065Y339D01*
X5059Y347D01*
X5050Y354D01*
X5041Y358D01*
X5030Y359D01*
D02*
G37*
G36*
X5225Y304D02*
X5190D01*
Y300D01*
X5192Y289D01*
X5196Y280D01*
X5202Y271D01*
X5210Y265D01*
X5220Y261D01*
X5225Y260D01*
Y304D01*
D02*
G37*
G36*
X3463Y826D02*
X3452Y825D01*
X3443Y821D01*
X3434Y815D01*
X3428Y807D01*
X3424Y797D01*
X3423Y787D01*
Y767D01*
X3424Y757D01*
X3428Y747D01*
X3434Y739D01*
X3443Y732D01*
X3446Y731D01*
Y264D01*
X3445Y263D01*
X3438Y258D01*
X3433Y251D01*
X3433Y250D01*
X3300D01*
X3298Y255D01*
X3292Y263D01*
X3283Y270D01*
X3273Y274D01*
X3262Y276D01*
X3251Y274D01*
X3241Y270D01*
X3233Y263D01*
X3226Y255D01*
X3222Y245D01*
X3220Y234D01*
X3222Y223D01*
X3226Y213D01*
X3233Y204D01*
X3241Y198D01*
X3251Y193D01*
X3262Y192D01*
X3273Y193D01*
X3283Y198D01*
X3292Y204D01*
X3298Y213D01*
X3300Y218D01*
X3433D01*
X3433Y217D01*
X3438Y210D01*
X3445Y204D01*
X3453Y201D01*
X3462Y200D01*
X3471Y201D01*
X3479Y204D01*
X3486Y210D01*
X3492Y217D01*
X3495Y225D01*
X3496Y234D01*
X3495Y243D01*
X3492Y251D01*
X3486Y258D01*
X3479Y263D01*
X3478Y264D01*
Y731D01*
X3483Y732D01*
X3491Y739D01*
X3497Y747D01*
X3501Y757D01*
X3502Y767D01*
Y787D01*
X3501Y797D01*
X3497Y807D01*
X3491Y815D01*
X3483Y821D01*
X3473Y825D01*
X3463Y826D01*
D02*
G37*
G36*
X197Y266D02*
X183Y265D01*
X170Y261D01*
X158Y255D01*
X148Y246D01*
X139Y235D01*
X133Y223D01*
X129Y210D01*
X127Y197D01*
X129Y183D01*
X133Y170D01*
X139Y158D01*
X148Y148D01*
X158Y139D01*
X170Y133D01*
X183Y129D01*
X197Y127D01*
X210Y129D01*
X223Y133D01*
X235Y139D01*
X246Y148D01*
X255Y158D01*
X261Y170D01*
X265Y183D01*
X266Y197D01*
X265Y210D01*
X261Y223D01*
X255Y235D01*
X246Y246D01*
X235Y255D01*
X223Y261D01*
X210Y265D01*
X197Y266D01*
D02*
G37*
G36*
X6102D02*
X6089Y265D01*
X6076Y261D01*
X6064Y255D01*
X6053Y246D01*
X6045Y235D01*
X6038Y223D01*
X6034Y210D01*
X6033Y197D01*
X6034Y183D01*
X6038Y170D01*
X6045Y158D01*
X6053Y148D01*
X6064Y139D01*
X6076Y133D01*
X6089Y129D01*
X6102Y127D01*
X6116Y129D01*
X6129Y133D01*
X6141Y139D01*
X6151Y148D01*
X6160Y158D01*
X6166Y170D01*
X6170Y183D01*
X6172Y197D01*
X6170Y210D01*
X6166Y223D01*
X6160Y235D01*
X6151Y246D01*
X6141Y255D01*
X6129Y261D01*
X6116Y265D01*
X6102Y266D01*
D02*
G37*
G36*
X2278Y404D02*
X2251D01*
Y370D01*
X2278D01*
Y404D01*
D02*
G37*
G36*
X2314D02*
X2288D01*
Y370D01*
X2314D01*
Y404D01*
D02*
G37*
G36*
X5235Y359D02*
Y314D01*
X5270D01*
Y319D01*
X5269Y330D01*
X5265Y339D01*
X5259Y347D01*
X5250Y354D01*
X5241Y358D01*
X5235Y359D01*
D02*
G37*
G36*
X5270Y304D02*
X5235D01*
Y260D01*
X5241Y261D01*
X5250Y265D01*
X5259Y271D01*
X5265Y280D01*
X5269Y289D01*
X5270Y300D01*
Y304D01*
D02*
G37*
G36*
X5225Y359D02*
X5220Y358D01*
X5210Y354D01*
X5202Y347D01*
X5196Y339D01*
X5192Y330D01*
X5190Y319D01*
Y314D01*
X5225D01*
Y359D01*
D02*
G37*
G36*
X2783Y574D02*
X2763D01*
X2753Y573D01*
X2743Y569D01*
X2735Y562D01*
X2728Y554D01*
X2724Y545D01*
X2723Y534D01*
X2724Y524D01*
X2728Y514D01*
X2735Y506D01*
X2743Y500D01*
X2753Y496D01*
X2763Y494D01*
X2783D01*
X2793Y496D01*
X2803Y500D01*
X2811Y506D01*
X2817Y514D01*
X2821Y524D01*
X2823Y534D01*
X2821Y545D01*
X2817Y554D01*
X2811Y562D01*
X2803Y569D01*
X2793Y573D01*
X2783Y574D01*
D02*
G37*
G36*
X5065Y818D02*
X5030D01*
Y774D01*
X5036Y774D01*
X5045Y778D01*
X5053Y785D01*
X5060Y793D01*
X5064Y803D01*
X5065Y813D01*
Y818D01*
D02*
G37*
G36*
X3858Y826D02*
X3852Y825D01*
X3843Y821D01*
X3834Y815D01*
X3828Y807D01*
X3824Y797D01*
X3823Y787D01*
Y782D01*
X3858D01*
Y826D01*
D02*
G37*
G36*
X5020Y818D02*
X4985D01*
Y813D01*
X4987Y803D01*
X4991Y793D01*
X4997Y785D01*
X5005Y778D01*
X5015Y774D01*
X5020Y774D01*
Y818D01*
D02*
G37*
G36*
X3858Y772D02*
X3823D01*
Y767D01*
X3824Y757D01*
X3828Y747D01*
X3834Y739D01*
X3843Y732D01*
X3852Y728D01*
X3858Y728D01*
Y772D01*
D02*
G37*
G36*
X3902D02*
X3868D01*
Y728D01*
X3873Y728D01*
X3883Y732D01*
X3891Y739D01*
X3897Y747D01*
X3901Y757D01*
X3902Y767D01*
Y772D01*
D02*
G37*
G36*
X5020Y872D02*
X5015Y871D01*
X5005Y867D01*
X4997Y861D01*
X4991Y853D01*
X4987Y843D01*
X4985Y833D01*
Y828D01*
X5020D01*
Y872D01*
D02*
G37*
G36*
X5030D02*
Y828D01*
X5065D01*
Y833D01*
X5064Y843D01*
X5060Y853D01*
X5053Y861D01*
X5045Y867D01*
X5036Y871D01*
X5030Y872D01*
D02*
G37*
G36*
X2483Y874D02*
X2463D01*
X2453Y873D01*
X2443Y869D01*
X2435Y862D01*
X2428Y854D01*
X2424Y845D01*
X2423Y834D01*
X2424Y824D01*
X2428Y814D01*
X2435Y806D01*
X2443Y800D01*
X2453Y796D01*
X2463Y794D01*
X2483D01*
X2493Y796D01*
X2503Y800D01*
X2511Y806D01*
X2517Y814D01*
X2521Y824D01*
X2523Y834D01*
X2521Y845D01*
X2517Y854D01*
X2511Y862D01*
X2503Y869D01*
X2493Y873D01*
X2483Y874D01*
D02*
G37*
G36*
X3868Y826D02*
Y782D01*
X3902D01*
Y787D01*
X3901Y797D01*
X3897Y807D01*
X3891Y815D01*
X3883Y821D01*
X3873Y825D01*
X3868Y826D01*
D02*
G37*
G36*
X3763Y826D02*
X3752Y825D01*
X3743Y821D01*
X3734Y815D01*
X3728Y807D01*
X3724Y797D01*
X3724Y793D01*
X3702D01*
X3701Y797D01*
X3697Y807D01*
X3691Y815D01*
X3683Y821D01*
X3673Y825D01*
X3663Y826D01*
X3652Y825D01*
X3643Y821D01*
X3634Y815D01*
X3628Y807D01*
X3624Y797D01*
X3623Y787D01*
Y767D01*
X3624Y757D01*
X3628Y747D01*
X3634Y739D01*
X3643Y732D01*
X3652Y728D01*
X3663Y727D01*
X3673Y728D01*
X3683Y732D01*
X3691Y739D01*
X3697Y747D01*
X3701Y757D01*
X3702Y761D01*
X3724D01*
X3724Y757D01*
X3728Y747D01*
X3734Y739D01*
X3743Y732D01*
X3746Y731D01*
Y672D01*
X3743Y670D01*
X3734Y663D01*
X3728Y655D01*
X3726Y650D01*
X3689D01*
X3683Y649D01*
X3678Y645D01*
X3651Y619D01*
X3647Y613D01*
X3646Y607D01*
Y264D01*
X3645Y263D01*
X3638Y258D01*
X3633Y251D01*
X3629Y243D01*
X3628Y234D01*
X3629Y225D01*
X3633Y217D01*
X3638Y210D01*
X3645Y204D01*
X3653Y201D01*
X3662Y200D01*
X3671Y201D01*
X3679Y204D01*
X3686Y210D01*
X3692Y217D01*
X3695Y225D01*
X3696Y234D01*
X3695Y243D01*
X3692Y251D01*
X3686Y258D01*
X3679Y263D01*
X3678Y264D01*
Y600D01*
X3696Y618D01*
X3726D01*
X3728Y613D01*
X3734Y604D01*
X3743Y598D01*
X3753Y593D01*
X3764Y592D01*
X3775Y593D01*
X3785Y598D01*
X3793Y604D01*
X3800Y613D01*
X3804Y623D01*
X3806Y634D01*
X3804Y645D01*
X3800Y655D01*
X3793Y663D01*
X3785Y670D01*
X3779Y673D01*
Y731D01*
X3783Y732D01*
X3791Y739D01*
X3797Y747D01*
X3801Y757D01*
X3802Y767D01*
Y787D01*
X3801Y797D01*
X3797Y807D01*
X3791Y815D01*
X3783Y821D01*
X3773Y825D01*
X3763Y826D01*
D02*
G37*
G36*
X1661Y675D02*
X1642D01*
Y645D01*
X1644Y636D01*
X1649Y628D01*
X1657Y622D01*
X1661Y622D01*
Y675D01*
D02*
G37*
G36*
X1939Y682D02*
X1911D01*
Y654D01*
X1914Y655D01*
X1922Y658D01*
X1929Y663D01*
X1935Y670D01*
X1938Y679D01*
X1939Y682D01*
D02*
G37*
G36*
X3302Y826D02*
X3223D01*
Y727D01*
X3246D01*
Y672D01*
X3241Y670D01*
X3233Y663D01*
X3226Y655D01*
X3222Y645D01*
X3220Y634D01*
X3222Y623D01*
X3226Y613D01*
X3233Y604D01*
X3241Y598D01*
X3251Y593D01*
X3262Y592D01*
X3273Y593D01*
X3283Y598D01*
X3292Y604D01*
X3298Y613D01*
X3300Y618D01*
X3333D01*
X3333Y617D01*
X3338Y610D01*
X3345Y604D01*
X3353Y601D01*
X3362Y600D01*
X3371Y601D01*
X3379Y604D01*
X3386Y610D01*
X3392Y617D01*
X3395Y625D01*
X3396Y634D01*
X3395Y643D01*
X3392Y651D01*
X3386Y658D01*
X3379Y663D01*
X3371Y667D01*
X3362Y668D01*
X3353Y667D01*
X3345Y663D01*
X3338Y658D01*
X3333Y651D01*
X3333Y650D01*
X3300D01*
X3298Y655D01*
X3292Y663D01*
X3283Y670D01*
X3279Y672D01*
Y727D01*
X3302D01*
Y826D01*
D02*
G37*
G36*
X595Y549D02*
X587Y548D01*
X575Y543D01*
X565Y535D01*
X557Y525D01*
X552Y513D01*
X551Y505D01*
X595D01*
Y549D01*
D02*
G37*
G36*
X605D02*
Y505D01*
X649D01*
X648Y513D01*
X643Y525D01*
X635Y535D01*
X625Y543D01*
X613Y548D01*
X605Y549D01*
D02*
G37*
G36*
X1911Y721D02*
Y692D01*
X1939D01*
X1938Y696D01*
X1935Y704D01*
X1929Y711D01*
X1922Y717D01*
X1914Y720D01*
X1911Y721D01*
D02*
G37*
G36*
X2375Y776D02*
X2364Y775D01*
X2355Y771D01*
X2347Y764D01*
X2340Y756D01*
X2336Y747D01*
X2335Y736D01*
X2336Y726D01*
X2340Y716D01*
X2347Y708D01*
X2355Y702D01*
X2364Y698D01*
X2375Y696D01*
X2385Y698D01*
X2395Y702D01*
X2403Y708D01*
X2409Y716D01*
X2411Y720D01*
X2426D01*
X2428Y714D01*
X2435Y706D01*
X2443Y700D01*
X2453Y696D01*
X2463Y694D01*
X2483D01*
X2493Y696D01*
X2503Y700D01*
X2511Y706D01*
X2517Y714D01*
X2521Y724D01*
X2523Y734D01*
X2521Y745D01*
X2517Y754D01*
X2511Y762D01*
X2503Y769D01*
X2493Y773D01*
X2483Y774D01*
X2463D01*
X2453Y773D01*
X2443Y769D01*
X2435Y762D01*
X2428Y754D01*
X2428Y752D01*
X2411D01*
X2409Y756D01*
X2403Y764D01*
X2395Y771D01*
X2385Y775D01*
X2375Y776D01*
D02*
G37*
G36*
X1901Y721D02*
X1897Y720D01*
X1889Y717D01*
X1882Y711D01*
X1876Y704D01*
X1873Y696D01*
X1872Y692D01*
X1901D01*
Y721D01*
D02*
G37*
G36*
Y682D02*
X1872D01*
X1873Y679D01*
X1876Y670D01*
X1882Y663D01*
X1889Y658D01*
X1897Y655D01*
X1901Y654D01*
Y682D01*
D02*
G37*
G36*
X1661Y739D02*
X1657Y738D01*
X1649Y733D01*
X1644Y725D01*
X1642Y716D01*
Y685D01*
X1661D01*
Y739D01*
D02*
G37*
G36*
X5713Y2795D02*
X5705D01*
X5694Y2793D01*
X5684Y2789D01*
X5675Y2782D01*
X5668Y2774D01*
X5667Y2769D01*
X5532D01*
X5531Y2772D01*
X5524Y2780D01*
X5516Y2786D01*
X5506Y2790D01*
X5496Y2792D01*
X5486Y2790D01*
X5476Y2786D01*
X5468Y2780D01*
X5462Y2772D01*
X5458Y2762D01*
X5456Y2752D01*
X5458Y2742D01*
X5462Y2732D01*
X5468Y2724D01*
X5476Y2717D01*
X5486Y2713D01*
X5496Y2712D01*
X5506Y2713D01*
X5516Y2717D01*
X5524Y2724D01*
X5531Y2732D01*
X5532Y2737D01*
X5667D01*
X5668Y2732D01*
X5675Y2723D01*
X5684Y2717D01*
X5694Y2712D01*
X5705Y2711D01*
X5713D01*
X5723Y2712D01*
X5734Y2717D01*
X5742Y2723D01*
X5749Y2732D01*
X5753Y2742D01*
X5754Y2753D01*
X5753Y2764D01*
X5749Y2774D01*
X5742Y2782D01*
X5734Y2789D01*
X5723Y2793D01*
X5713Y2795D01*
D02*
G37*
G36*
X132Y2822D02*
X95D01*
X96Y2816D01*
X100Y2806D01*
X107Y2797D01*
X116Y2791D01*
X126Y2786D01*
X132Y2786D01*
Y2822D01*
D02*
G37*
G36*
X4736Y2726D02*
Y2690D01*
X4772D01*
X4771Y2696D01*
X4767Y2706D01*
X4760Y2715D01*
X4752Y2721D01*
X4742Y2725D01*
X4736Y2726D01*
D02*
G37*
G36*
X4772Y2680D02*
X4736D01*
Y2644D01*
X4742Y2645D01*
X4752Y2649D01*
X4760Y2655D01*
X4767Y2664D01*
X4771Y2674D01*
X4772Y2680D01*
D02*
G37*
G36*
X4726Y2726D02*
X4720Y2725D01*
X4710Y2721D01*
X4701Y2715D01*
X4694Y2706D01*
X4690Y2696D01*
X4690Y2690D01*
X4726D01*
Y2726D01*
D02*
G37*
G36*
X142Y2868D02*
Y2832D01*
X178D01*
X177Y2838D01*
X173Y2848D01*
X166Y2856D01*
X158Y2863D01*
X147Y2867D01*
X142Y2868D01*
D02*
G37*
G36*
X132D02*
X126Y2867D01*
X116Y2863D01*
X107Y2856D01*
X100Y2848D01*
X96Y2838D01*
X95Y2832D01*
X132D01*
Y2868D01*
D02*
G37*
G36*
X178Y2822D02*
X142D01*
Y2786D01*
X147Y2786D01*
X158Y2791D01*
X166Y2797D01*
X173Y2806D01*
X177Y2816D01*
X178Y2822D01*
D02*
G37*
G36*
X4425Y2841D02*
X4390D01*
Y2837D01*
X4391Y2826D01*
X4395Y2817D01*
X4402Y2808D01*
X4410Y2802D01*
X4420Y2798D01*
X4425Y2797D01*
Y2841D01*
D02*
G37*
G36*
X5714Y2394D02*
Y2358D01*
X5754D01*
X5753Y2364D01*
X5749Y2374D01*
X5742Y2382D01*
X5734Y2389D01*
X5723Y2393D01*
X5714Y2394D01*
D02*
G37*
G36*
X5713Y2595D02*
X5705D01*
X5694Y2593D01*
X5684Y2589D01*
X5675Y2582D01*
X5668Y2574D01*
X5664Y2564D01*
X5663Y2553D01*
X5664Y2542D01*
X5668Y2532D01*
X5675Y2523D01*
X5684Y2517D01*
X5694Y2512D01*
X5705Y2511D01*
X5713D01*
X5723Y2512D01*
X5734Y2517D01*
X5742Y2523D01*
X5749Y2532D01*
X5753Y2542D01*
X5754Y2553D01*
X5753Y2564D01*
X5749Y2574D01*
X5742Y2582D01*
X5734Y2589D01*
X5723Y2593D01*
X5713Y2595D01*
D02*
G37*
G36*
X5704Y2394D02*
X5694Y2393D01*
X5684Y2389D01*
X5675Y2382D01*
X5668Y2374D01*
X5664Y2364D01*
X5664Y2358D01*
X5704D01*
Y2394D01*
D02*
G37*
G36*
Y2348D02*
X5664D01*
X5664Y2342D01*
X5668Y2332D01*
X5675Y2323D01*
X5684Y2317D01*
X5694Y2312D01*
X5704Y2311D01*
Y2348D01*
D02*
G37*
G36*
X5754D02*
X5714D01*
Y2311D01*
X5723Y2312D01*
X5734Y2317D01*
X5742Y2323D01*
X5749Y2332D01*
X5753Y2342D01*
X5754Y2348D01*
D02*
G37*
G36*
X4230Y2896D02*
X4220Y2895D01*
X4210Y2891D01*
X4202Y2884D01*
X4195Y2876D01*
X4191Y2867D01*
X4190Y2856D01*
Y2837D01*
X4191Y2826D01*
X4195Y2817D01*
X4202Y2808D01*
X4210Y2802D01*
X4214Y2801D01*
Y2723D01*
X4210Y2721D01*
X4201Y2715D01*
X4194Y2706D01*
X4190Y2696D01*
X4189Y2685D01*
X4190Y2674D01*
X4194Y2664D01*
X4201Y2655D01*
X4210Y2649D01*
X4220Y2645D01*
X4231Y2643D01*
X4242Y2645D01*
X4252Y2649D01*
X4260Y2655D01*
X4267Y2664D01*
X4269Y2669D01*
X4293D01*
X4294Y2664D01*
X4301Y2655D01*
X4310Y2649D01*
X4320Y2645D01*
X4331Y2643D01*
X4342Y2645D01*
X4352Y2649D01*
X4360Y2655D01*
X4367Y2664D01*
X4371Y2674D01*
X4373Y2685D01*
X4371Y2696D01*
X4367Y2706D01*
X4360Y2715D01*
X4352Y2721D01*
X4342Y2725D01*
X4331Y2727D01*
X4320Y2725D01*
X4310Y2721D01*
X4301Y2715D01*
X4294Y2706D01*
X4293Y2701D01*
X4269D01*
X4267Y2706D01*
X4260Y2715D01*
X4252Y2721D01*
X4246Y2724D01*
Y2801D01*
X4250Y2802D01*
X4258Y2808D01*
X4264Y2817D01*
X4268Y2826D01*
X4270Y2837D01*
Y2856D01*
X4268Y2867D01*
X4264Y2876D01*
X4258Y2884D01*
X4250Y2891D01*
X4240Y2895D01*
X4230Y2896D01*
D02*
G37*
G36*
X4726Y2680D02*
X4690D01*
X4690Y2674D01*
X4694Y2664D01*
X4701Y2655D01*
X4710Y2649D01*
X4720Y2645D01*
X4726Y2644D01*
Y2680D01*
D02*
G37*
G36*
X5713Y2695D02*
X5705D01*
X5694Y2693D01*
X5684Y2689D01*
X5675Y2682D01*
X5668Y2674D01*
X5664Y2664D01*
X5663Y2653D01*
X5664Y2642D01*
X5668Y2632D01*
X5675Y2623D01*
X5684Y2617D01*
X5694Y2612D01*
X5705Y2611D01*
X5713D01*
X5723Y2612D01*
X5734Y2617D01*
X5742Y2623D01*
X5749Y2632D01*
X5753Y2642D01*
X5754Y2653D01*
X5753Y2664D01*
X5749Y2674D01*
X5742Y2682D01*
X5734Y2689D01*
X5723Y2693D01*
X5713Y2695D01*
D02*
G37*
G36*
X537Y2989D02*
X526Y2988D01*
X517Y2984D01*
X508Y2977D01*
X502Y2969D01*
X498Y2960D01*
X497Y2949D01*
Y2930D01*
X498Y2919D01*
X502Y2910D01*
X508Y2901D01*
X517Y2895D01*
X520Y2893D01*
Y2865D01*
X516Y2863D01*
X507Y2856D01*
X500Y2848D01*
X496Y2838D01*
X495Y2827D01*
X496Y2816D01*
X500Y2806D01*
X507Y2797D01*
X516Y2791D01*
X520Y2789D01*
Y2661D01*
X515Y2658D01*
X506Y2652D01*
X499Y2643D01*
X495Y2633D01*
X494Y2622D01*
X495Y2611D01*
X499Y2601D01*
X506Y2592D01*
X515Y2586D01*
X525Y2582D01*
X535Y2580D01*
X546Y2582D01*
X556Y2586D01*
X565Y2592D01*
X572Y2601D01*
X576Y2611D01*
X577Y2622D01*
X576Y2633D01*
X572Y2643D01*
X565Y2652D01*
X556Y2658D01*
X553Y2660D01*
Y2789D01*
X558Y2791D01*
X566Y2797D01*
X573Y2806D01*
X577Y2816D01*
X578Y2827D01*
X577Y2838D01*
X573Y2848D01*
X566Y2856D01*
X558Y2863D01*
X553Y2865D01*
Y2893D01*
X557Y2895D01*
X565Y2901D01*
X571Y2910D01*
X575Y2919D01*
X576Y2930D01*
Y2949D01*
X575Y2960D01*
X571Y2969D01*
X565Y2977D01*
X557Y2984D01*
X547Y2988D01*
X537Y2989D01*
D02*
G37*
G36*
X4425Y2896D02*
X4420Y2895D01*
X4410Y2891D01*
X4402Y2884D01*
X4395Y2876D01*
X4391Y2867D01*
X4390Y2856D01*
Y2851D01*
X4425D01*
Y2896D01*
D02*
G37*
G36*
Y3371D02*
X4390D01*
Y3344D01*
X4425D01*
Y3371D01*
D02*
G37*
G36*
X4469D02*
X4435D01*
Y3344D01*
X4469D01*
Y3371D01*
D02*
G37*
G36*
X1689Y3335D02*
X1679Y3334D01*
X1669Y3330D01*
X1661Y3323D01*
X1654Y3315D01*
X1653Y3311D01*
X425D01*
X419Y3310D01*
X414Y3307D01*
X382Y3275D01*
X379Y3270D01*
X377Y3264D01*
Y646D01*
X379Y639D01*
X382Y634D01*
X426Y591D01*
X431Y587D01*
X437Y586D01*
X677D01*
X683Y587D01*
X689Y591D01*
X720Y622D01*
X724Y628D01*
X725Y634D01*
Y954D01*
X745Y974D01*
X883D01*
X885Y969D01*
X892Y960D01*
X900Y954D01*
X910Y949D01*
X921Y948D01*
X932Y949D01*
X942Y954D01*
X951Y960D01*
X958Y969D01*
X962Y979D01*
X963Y990D01*
X962Y1001D01*
X958Y1011D01*
X951Y1019D01*
X942Y1026D01*
X932Y1030D01*
X921Y1032D01*
X910Y1030D01*
X900Y1026D01*
X892Y1019D01*
X885Y1011D01*
X883Y1006D01*
X738D01*
X732Y1005D01*
X726Y1001D01*
X697Y972D01*
X694Y967D01*
X692Y961D01*
Y641D01*
X670Y619D01*
X444D01*
X410Y652D01*
Y3257D01*
X432Y3279D01*
X503D01*
X506Y3274D01*
X502Y3269D01*
X498Y3260D01*
X497Y3249D01*
Y3244D01*
X537D01*
X576D01*
Y3249D01*
X575Y3260D01*
X571Y3269D01*
X567Y3274D01*
X570Y3279D01*
X603D01*
X606Y3274D01*
X602Y3269D01*
X598Y3260D01*
X597Y3249D01*
Y3230D01*
X598Y3219D01*
X602Y3210D01*
X608Y3201D01*
X617Y3195D01*
X626Y3191D01*
X637Y3190D01*
X647Y3191D01*
X657Y3195D01*
X665Y3201D01*
X671Y3210D01*
X675Y3219D01*
X676Y3230D01*
Y3249D01*
X675Y3260D01*
X671Y3269D01*
X667Y3274D01*
X670Y3279D01*
X703D01*
X706Y3274D01*
X702Y3269D01*
X698Y3260D01*
X697Y3249D01*
Y3230D01*
X698Y3219D01*
X702Y3210D01*
X708Y3201D01*
X717Y3195D01*
X726Y3191D01*
X737Y3190D01*
X747Y3191D01*
X757Y3195D01*
X765Y3201D01*
X771Y3210D01*
X775Y3219D01*
X776Y3230D01*
Y3249D01*
X775Y3260D01*
X771Y3269D01*
X767Y3274D01*
X770Y3279D01*
X803D01*
X806Y3274D01*
X802Y3269D01*
X798Y3260D01*
X797Y3249D01*
Y3230D01*
X798Y3219D01*
X802Y3210D01*
X808Y3201D01*
X817Y3195D01*
X826Y3191D01*
X837Y3190D01*
X847Y3191D01*
X857Y3195D01*
X865Y3201D01*
X871Y3210D01*
X875Y3219D01*
X876Y3230D01*
Y3249D01*
X875Y3260D01*
X871Y3269D01*
X867Y3274D01*
X870Y3279D01*
X903D01*
X906Y3274D01*
X902Y3269D01*
X898Y3260D01*
X897Y3249D01*
Y3230D01*
X898Y3219D01*
X902Y3210D01*
X908Y3201D01*
X917Y3195D01*
X926Y3191D01*
X937Y3190D01*
X947Y3191D01*
X957Y3195D01*
X965Y3201D01*
X971Y3210D01*
X975Y3219D01*
X976Y3230D01*
Y3249D01*
X975Y3260D01*
X971Y3269D01*
X967Y3274D01*
X970Y3279D01*
X1003D01*
X1006Y3274D01*
X1002Y3269D01*
X998Y3260D01*
X997Y3249D01*
Y3230D01*
X998Y3219D01*
X1002Y3210D01*
X1008Y3201D01*
X1017Y3195D01*
X1026Y3191D01*
X1037Y3190D01*
X1047Y3191D01*
X1057Y3195D01*
X1065Y3201D01*
X1071Y3210D01*
X1075Y3219D01*
X1076Y3230D01*
Y3249D01*
X1075Y3260D01*
X1071Y3269D01*
X1067Y3274D01*
X1070Y3279D01*
X1103D01*
X1106Y3274D01*
X1102Y3269D01*
X1098Y3260D01*
X1097Y3249D01*
Y3230D01*
X1098Y3219D01*
X1102Y3210D01*
X1108Y3201D01*
X1117Y3195D01*
X1126Y3191D01*
X1137Y3190D01*
X1147Y3191D01*
X1157Y3195D01*
X1165Y3201D01*
X1171Y3210D01*
X1175Y3219D01*
X1176Y3230D01*
Y3249D01*
X1175Y3260D01*
X1171Y3269D01*
X1167Y3274D01*
X1170Y3279D01*
X1197D01*
Y3190D01*
X1276D01*
Y3279D01*
X1653D01*
X1654Y3275D01*
X1661Y3267D01*
X1669Y3261D01*
X1679Y3257D01*
X1689Y3255D01*
X1699Y3257D01*
X1709Y3261D01*
X1717Y3267D01*
X1724Y3275D01*
X1727Y3285D01*
X1729Y3295D01*
X1727Y3306D01*
X1724Y3315D01*
X1717Y3323D01*
X1709Y3330D01*
X1699Y3334D01*
X1689Y3335D01*
D02*
G37*
G36*
X532Y3234D02*
X497D01*
Y3230D01*
X498Y3219D01*
X502Y3210D01*
X508Y3201D01*
X517Y3195D01*
X526Y3191D01*
X532Y3190D01*
Y3234D01*
D02*
G37*
G36*
X576D02*
X542D01*
Y3190D01*
X547Y3191D01*
X557Y3195D01*
X565Y3201D01*
X571Y3210D01*
X575Y3219D01*
X576Y3230D01*
Y3234D01*
D02*
G37*
G36*
X197Y3810D02*
X183Y3808D01*
X170Y3804D01*
X158Y3798D01*
X148Y3789D01*
X139Y3779D01*
X133Y3767D01*
X129Y3754D01*
X127Y3740D01*
X129Y3727D01*
X133Y3714D01*
X139Y3702D01*
X148Y3691D01*
X158Y3682D01*
X170Y3676D01*
X183Y3672D01*
X197Y3671D01*
X210Y3672D01*
X223Y3676D01*
X235Y3682D01*
X246Y3691D01*
X255Y3702D01*
X261Y3714D01*
X265Y3727D01*
X266Y3740D01*
X265Y3754D01*
X261Y3767D01*
X255Y3779D01*
X246Y3789D01*
X235Y3798D01*
X223Y3804D01*
X210Y3808D01*
X197Y3810D01*
D02*
G37*
G36*
X6102D02*
X6089Y3808D01*
X6076Y3804D01*
X6064Y3798D01*
X6053Y3789D01*
X6045Y3779D01*
X6038Y3767D01*
X6034Y3754D01*
X6033Y3740D01*
X6034Y3727D01*
X6038Y3714D01*
X6045Y3702D01*
X6053Y3691D01*
X6064Y3682D01*
X6076Y3676D01*
X6089Y3672D01*
X6102Y3671D01*
X6116Y3672D01*
X6129Y3676D01*
X6141Y3682D01*
X6151Y3691D01*
X6160Y3702D01*
X6166Y3714D01*
X6170Y3727D01*
X6172Y3740D01*
X6170Y3754D01*
X6166Y3767D01*
X6160Y3779D01*
X6151Y3789D01*
X6141Y3798D01*
X6129Y3804D01*
X6116Y3808D01*
X6102Y3810D01*
D02*
G37*
G36*
X5480Y3808D02*
X1594D01*
X1588Y3806D01*
X1583Y3803D01*
X1559Y3779D01*
X1556Y3774D01*
X1555Y3768D01*
Y3393D01*
X1541Y3378D01*
X362D01*
X356Y3377D01*
X351Y3374D01*
X319Y3342D01*
X316Y3337D01*
X314Y3331D01*
Y390D01*
X316Y384D01*
X319Y378D01*
X343Y355D01*
X348Y351D01*
X354Y350D01*
X780D01*
X786Y351D01*
X791Y355D01*
X819Y382D01*
X822Y387D01*
X823Y394D01*
Y726D01*
X845Y748D01*
X1008D01*
X1014Y749D01*
X1019Y752D01*
X1035Y768D01*
X1039Y773D01*
X1040Y780D01*
Y974D01*
X1042Y976D01*
X1107D01*
X1109Y971D01*
X1116Y963D01*
X1125Y956D01*
X1135Y952D01*
X1146Y950D01*
X1157Y952D01*
X1167Y956D01*
X1175Y963D01*
X1182Y971D01*
X1186Y981D01*
X1188Y992D01*
X1186Y1003D01*
X1182Y1013D01*
X1175Y1022D01*
X1167Y1028D01*
X1157Y1033D01*
X1146Y1034D01*
X1135Y1033D01*
X1125Y1028D01*
X1116Y1022D01*
X1109Y1013D01*
X1107Y1008D01*
X1035D01*
X1029Y1007D01*
X1024Y1004D01*
X1012Y992D01*
X1009Y987D01*
X1007Y980D01*
Y786D01*
X1001Y780D01*
X839D01*
X832Y779D01*
X827Y775D01*
X796Y744D01*
X792Y738D01*
X791Y732D01*
Y400D01*
X773Y382D01*
X361D01*
X347Y396D01*
Y3324D01*
X369Y3346D01*
X1547D01*
X1553Y3347D01*
X1559Y3351D01*
X1582Y3374D01*
X1586Y3380D01*
X1587Y3386D01*
Y3761D01*
X1601Y3775D01*
X5474D01*
X5480Y3769D01*
Y3688D01*
X5476Y3686D01*
X5468Y3680D01*
X5462Y3672D01*
X5458Y3662D01*
X5456Y3652D01*
X5458Y3642D01*
X5462Y3632D01*
X5468Y3624D01*
X5476Y3617D01*
X5486Y3613D01*
X5496Y3612D01*
X5506Y3613D01*
X5516Y3617D01*
X5524Y3624D01*
X5531Y3632D01*
X5535Y3642D01*
X5536Y3652D01*
X5535Y3662D01*
X5531Y3672D01*
X5524Y3680D01*
X5516Y3686D01*
X5512Y3688D01*
Y3776D01*
X5511Y3782D01*
X5508Y3787D01*
X5492Y3803D01*
X5487Y3806D01*
X5480Y3808D01*
D02*
G37*
G36*
X4425Y3407D02*
X4390D01*
Y3381D01*
X4425D01*
Y3407D01*
D02*
G37*
G36*
X4469D02*
X4435D01*
Y3381D01*
X4469D01*
Y3407D01*
D02*
G37*
G36*
X832Y2988D02*
X826Y2988D01*
X817Y2984D01*
X808Y2977D01*
X802Y2969D01*
X798Y2960D01*
X797Y2949D01*
Y2944D01*
X832D01*
Y2988D01*
D02*
G37*
G36*
X1411Y2979D02*
X1384D01*
Y2944D01*
X1411D01*
Y2979D01*
D02*
G37*
G36*
X1448Y2934D02*
X1421D01*
Y2900D01*
X1448D01*
Y2934D01*
D02*
G37*
G36*
X832D02*
X797D01*
Y2930D01*
X798Y2919D01*
X802Y2910D01*
X808Y2901D01*
X817Y2895D01*
X826Y2891D01*
X832Y2890D01*
Y2934D01*
D02*
G37*
G36*
X1411D02*
X1384D01*
Y2900D01*
X1411D01*
Y2934D01*
D02*
G37*
G36*
X2849Y3091D02*
X2822D01*
Y3056D01*
X2849D01*
Y3091D01*
D02*
G37*
G36*
X2812D02*
X2785D01*
Y3056D01*
X2812D01*
Y3091D01*
D02*
G37*
G36*
X1448Y2979D02*
X1421D01*
Y2944D01*
X1448D01*
Y2979D01*
D02*
G37*
G36*
X2812Y3046D02*
X2785D01*
Y3012D01*
X2812D01*
Y3046D01*
D02*
G37*
G36*
X1438Y1815D02*
X1412D01*
Y1781D01*
X1438D01*
Y1815D01*
D02*
G37*
G36*
X4236Y2008D02*
X4226Y2007D01*
X4216Y2003D01*
X4208Y1997D01*
X4202Y1988D01*
X4198Y1979D01*
X4196Y1969D01*
X4198Y1958D01*
X4202Y1949D01*
X4208Y1940D01*
X4216Y1934D01*
X4220Y1932D01*
Y1897D01*
X4215Y1896D01*
X4207Y1889D01*
X4201Y1881D01*
X4197Y1871D01*
X4196Y1861D01*
Y1841D01*
X4197Y1831D01*
X4201Y1821D01*
X4207Y1813D01*
X4215Y1807D01*
X4225Y1803D01*
X4235Y1801D01*
X4246Y1803D01*
X4255Y1807D01*
X4264Y1813D01*
X4270Y1821D01*
X4274Y1831D01*
X4275Y1841D01*
Y1861D01*
X4274Y1871D01*
X4270Y1881D01*
X4264Y1889D01*
X4255Y1896D01*
X4252Y1897D01*
Y1932D01*
X4256Y1934D01*
X4264Y1940D01*
X4271Y1949D01*
X4275Y1958D01*
X4276Y1969D01*
X4275Y1979D01*
X4271Y1988D01*
X4264Y1997D01*
X4256Y2003D01*
X4247Y2007D01*
X4236Y2008D01*
D02*
G37*
G36*
X1402Y1815D02*
X1375D01*
Y1781D01*
X1402D01*
Y1815D01*
D02*
G37*
G36*
Y1771D02*
X1375D01*
Y1736D01*
X1402D01*
Y1771D01*
D02*
G37*
G36*
X1438D02*
X1412D01*
Y1736D01*
X1438D01*
Y1771D01*
D02*
G37*
G36*
X3930Y1846D02*
X3896D01*
Y1841D01*
X3897Y1831D01*
X3901Y1821D01*
X3907Y1813D01*
X3915Y1807D01*
X3925Y1803D01*
X3930Y1802D01*
Y1846D01*
D02*
G37*
G36*
X3026D02*
X2992D01*
Y1802D01*
X2997Y1803D01*
X3007Y1807D01*
X3015Y1813D01*
X3021Y1821D01*
X3025Y1831D01*
X3026Y1841D01*
Y1846D01*
D02*
G37*
G36*
X3975D02*
X3940D01*
Y1802D01*
X3946Y1803D01*
X3955Y1807D01*
X3964Y1813D01*
X3970Y1821D01*
X3974Y1831D01*
X3975Y1841D01*
Y1846D01*
D02*
G37*
G36*
X4335Y2008D02*
X4324Y2007D01*
X4315Y2003D01*
X4306Y1997D01*
X4300Y1988D01*
X4296Y1979D01*
X4295Y1969D01*
X4296Y1958D01*
X4300Y1949D01*
X4306Y1940D01*
X4315Y1934D01*
X4318Y1932D01*
Y1897D01*
X4315Y1896D01*
X4307Y1889D01*
X4301Y1881D01*
X4297Y1871D01*
X4296Y1861D01*
Y1841D01*
X4297Y1831D01*
X4301Y1821D01*
X4307Y1813D01*
X4315Y1807D01*
X4325Y1803D01*
X4335Y1801D01*
X4346Y1803D01*
X4355Y1807D01*
X4364Y1813D01*
X4370Y1821D01*
X4374Y1831D01*
X4375Y1841D01*
Y1861D01*
X4374Y1871D01*
X4370Y1881D01*
X4364Y1889D01*
X4355Y1896D01*
X4351Y1897D01*
Y1932D01*
X4355Y1934D01*
X4363Y1940D01*
X4369Y1949D01*
X4373Y1958D01*
X4375Y1969D01*
X4373Y1979D01*
X4369Y1988D01*
X4363Y1997D01*
X4355Y2003D01*
X4345Y2007D01*
X4335Y2008D01*
D02*
G37*
G36*
X2982Y1846D02*
X2947D01*
Y1841D01*
X2948Y1831D01*
X2952Y1821D01*
X2958Y1813D01*
X2967Y1807D01*
X2976Y1803D01*
X2982Y1802D01*
Y1846D01*
D02*
G37*
G36*
X2574Y1549D02*
X2547D01*
Y1515D01*
X2574D01*
Y1549D01*
D02*
G37*
G36*
X2610D02*
X2584D01*
Y1515D01*
X2610D01*
Y1549D01*
D02*
G37*
G36*
X5287Y1513D02*
X5273D01*
Y1488D01*
X5317D01*
X5316Y1491D01*
X5313Y1498D01*
X5309Y1504D01*
X5302Y1509D01*
X5295Y1512D01*
X5287Y1513D01*
D02*
G37*
G36*
X5813Y1526D02*
X5805D01*
X5794Y1525D01*
X5784Y1520D01*
X5775Y1514D01*
X5768Y1505D01*
X5764Y1495D01*
X5763Y1484D01*
X5764Y1473D01*
X5768Y1463D01*
X5775Y1455D01*
X5776Y1454D01*
X5774Y1449D01*
X5743D01*
X5741Y1454D01*
X5742Y1455D01*
X5749Y1463D01*
X5753Y1473D01*
X5754Y1484D01*
X5753Y1495D01*
X5749Y1505D01*
X5742Y1514D01*
X5734Y1520D01*
X5723Y1525D01*
X5713Y1526D01*
X5705D01*
X5694Y1525D01*
X5684Y1520D01*
X5675Y1514D01*
X5668Y1505D01*
X5664Y1495D01*
X5663Y1484D01*
X5664Y1473D01*
X5668Y1463D01*
X5675Y1455D01*
X5676Y1454D01*
X5674Y1449D01*
X5312D01*
X5309Y1454D01*
X5307Y1456D01*
Y1461D01*
X5309Y1462D01*
X5313Y1468D01*
X5316Y1475D01*
X5317Y1478D01*
X5268D01*
X5219D01*
X5219Y1475D01*
X5222Y1468D01*
X5227Y1462D01*
X5229Y1461D01*
Y1456D01*
X5227Y1454D01*
X5222Y1448D01*
X5219Y1441D01*
X5218Y1433D01*
X5219Y1425D01*
X5222Y1418D01*
X5227Y1412D01*
X5229Y1411D01*
Y1406D01*
X5227Y1404D01*
X5223Y1399D01*
X5025D01*
X5019Y1398D01*
X5013Y1395D01*
X5004Y1385D01*
X5001Y1380D01*
X5000Y1374D01*
Y1365D01*
X4995Y1363D01*
X4986Y1356D01*
X4980Y1348D01*
X4975Y1338D01*
X4974Y1327D01*
X4975Y1316D01*
X4980Y1306D01*
X4986Y1297D01*
X4995Y1291D01*
X5005Y1286D01*
X5016Y1285D01*
X5027Y1286D01*
X5037Y1291D01*
X5045Y1297D01*
X5052Y1306D01*
X5056Y1316D01*
X5058Y1327D01*
X5056Y1338D01*
X5052Y1348D01*
X5045Y1356D01*
X5038Y1362D01*
X5040Y1367D01*
X5223D01*
X5227Y1362D01*
X5233Y1357D01*
X5240Y1354D01*
X5248Y1353D01*
X5287D01*
X5295Y1354D01*
X5302Y1357D01*
X5309Y1362D01*
X5313Y1368D01*
X5316Y1375D01*
X5317Y1383D01*
X5316Y1391D01*
X5313Y1398D01*
X5309Y1404D01*
X5307Y1406D01*
Y1411D01*
X5309Y1412D01*
X5312Y1417D01*
X5671D01*
X5674Y1412D01*
X5668Y1405D01*
X5664Y1395D01*
X5663Y1384D01*
X5664Y1373D01*
X5668Y1363D01*
X5675Y1355D01*
X5684Y1348D01*
X5694Y1344D01*
X5705Y1342D01*
X5713D01*
X5723Y1344D01*
X5734Y1348D01*
X5742Y1355D01*
X5749Y1363D01*
X5753Y1373D01*
X5754Y1384D01*
X5753Y1395D01*
X5749Y1405D01*
X5744Y1412D01*
X5746Y1417D01*
X5771D01*
X5774Y1412D01*
X5768Y1405D01*
X5764Y1395D01*
X5763Y1384D01*
X5764Y1373D01*
X5768Y1363D01*
X5775Y1355D01*
X5784Y1348D01*
X5794Y1344D01*
X5805Y1342D01*
X5813D01*
X5823Y1344D01*
X5834Y1348D01*
X5842Y1355D01*
X5849Y1363D01*
X5853Y1373D01*
X5854Y1384D01*
X5853Y1395D01*
X5849Y1405D01*
X5842Y1414D01*
X5834Y1420D01*
X5824Y1424D01*
X5824Y1426D01*
X5820Y1431D01*
X5814Y1438D01*
X5816Y1443D01*
X5823Y1444D01*
X5834Y1448D01*
X5842Y1455D01*
X5849Y1463D01*
X5853Y1473D01*
X5854Y1484D01*
X5853Y1495D01*
X5849Y1505D01*
X5842Y1514D01*
X5834Y1520D01*
X5823Y1525D01*
X5813Y1526D01*
D02*
G37*
G36*
X5263Y1513D02*
X5248D01*
X5240Y1512D01*
X5233Y1509D01*
X5227Y1504D01*
X5222Y1498D01*
X5219Y1491D01*
X5219Y1488D01*
X5263D01*
Y1513D01*
D02*
G37*
G36*
X2610Y1594D02*
X2584D01*
Y1559D01*
X2610D01*
Y1594D01*
D02*
G37*
G36*
X527Y1825D02*
X517Y1824D01*
X507Y1820D01*
X499Y1814D01*
X493Y1805D01*
X489Y1796D01*
X487Y1785D01*
Y1766D01*
X489Y1755D01*
X493Y1746D01*
X499Y1738D01*
X507Y1731D01*
X517Y1727D01*
X527Y1726D01*
X537Y1727D01*
X547Y1731D01*
X555Y1738D01*
X562Y1746D01*
X566Y1755D01*
X567Y1766D01*
Y1785D01*
X566Y1796D01*
X562Y1805D01*
X555Y1814D01*
X547Y1820D01*
X537Y1824D01*
X527Y1825D01*
D02*
G37*
G36*
X2574Y1594D02*
X2547D01*
Y1559D01*
X2574D01*
Y1594D01*
D02*
G37*
G36*
X5813Y1626D02*
X5805D01*
X5794Y1625D01*
X5784Y1620D01*
X5775Y1614D01*
X5768Y1605D01*
X5764Y1595D01*
X5763Y1584D01*
X5764Y1573D01*
X5768Y1563D01*
X5775Y1555D01*
X5784Y1548D01*
X5794Y1544D01*
X5805Y1542D01*
X5813D01*
X5823Y1544D01*
X5834Y1548D01*
X5842Y1555D01*
X5849Y1563D01*
X5853Y1573D01*
X5854Y1584D01*
X5853Y1595D01*
X5849Y1605D01*
X5842Y1614D01*
X5834Y1620D01*
X5823Y1625D01*
X5813Y1626D01*
D02*
G37*
G36*
X5754Y1626D02*
X5663D01*
Y1543D01*
X5754D01*
Y1626D01*
D02*
G37*
G36*
X1694Y1849D02*
X1659D01*
Y1844D01*
X1661Y1834D01*
X1665Y1825D01*
X1671Y1816D01*
X1679Y1810D01*
X1689Y1806D01*
X1694Y1805D01*
Y1849D01*
D02*
G37*
G36*
X532Y2125D02*
Y2081D01*
X567D01*
Y2085D01*
X566Y2096D01*
X562Y2105D01*
X555Y2114D01*
X547Y2120D01*
X537Y2124D01*
X532Y2125D01*
D02*
G37*
G36*
X3264Y3005D02*
X3253Y3004D01*
X3243Y3000D01*
X3234Y2993D01*
X3228Y2984D01*
X3226Y2980D01*
X3003D01*
X2997Y2978D01*
X2991Y2975D01*
X2977Y2960D01*
X2973Y2955D01*
X2972Y2949D01*
Y2936D01*
X2968Y2934D01*
X2960Y2928D01*
X2954Y2920D01*
X2950Y2910D01*
X2948Y2900D01*
Y2880D01*
X2950Y2870D01*
X2954Y2860D01*
X2960Y2852D01*
X2968Y2845D01*
X2978Y2841D01*
X2988Y2840D01*
X2999Y2841D01*
X3008Y2845D01*
X3016Y2852D01*
X3023Y2860D01*
X3027Y2870D01*
X3028Y2880D01*
Y2900D01*
X3027Y2910D01*
X3023Y2920D01*
X3016Y2928D01*
X3008Y2934D01*
X3004Y2936D01*
Y2942D01*
X3009Y2947D01*
X3226D01*
X3228Y2942D01*
X3234Y2934D01*
X3243Y2927D01*
X3253Y2923D01*
X3264Y2922D01*
X3275Y2923D01*
X3285Y2927D01*
X3293Y2934D01*
X3300Y2942D01*
X3302Y2947D01*
X3353D01*
X3370Y2930D01*
Y2150D01*
X3371Y2143D01*
X3374Y2138D01*
X3398Y2115D01*
X3403Y2111D01*
X3409Y2110D01*
X4889D01*
X4891Y2106D01*
X4897Y2098D01*
X4905Y2091D01*
X4915Y2087D01*
X4925Y2086D01*
X4936Y2087D01*
X4945Y2091D01*
X4953Y2098D01*
X4960Y2106D01*
X4961Y2110D01*
X5937D01*
X5943Y2111D01*
X5948Y2115D01*
X5968Y2134D01*
X5972Y2139D01*
X5973Y2146D01*
Y2524D01*
X5972Y2530D01*
X5968Y2535D01*
X5939Y2564D01*
X5934Y2568D01*
X5928Y2569D01*
X5851D01*
X5849Y2574D01*
X5842Y2582D01*
X5834Y2589D01*
X5823Y2593D01*
X5813Y2595D01*
X5805D01*
X5794Y2593D01*
X5784Y2589D01*
X5775Y2582D01*
X5768Y2574D01*
X5764Y2564D01*
X5763Y2553D01*
X5764Y2542D01*
X5768Y2532D01*
X5775Y2523D01*
X5784Y2517D01*
X5794Y2512D01*
X5805Y2511D01*
X5813D01*
X5823Y2512D01*
X5834Y2517D01*
X5842Y2523D01*
X5849Y2532D01*
X5851Y2537D01*
X5921D01*
X5940Y2517D01*
Y2152D01*
X5930Y2142D01*
X4961D01*
X4960Y2146D01*
X4953Y2154D01*
X4945Y2161D01*
X4936Y2164D01*
X4925Y2166D01*
X4915Y2164D01*
X4905Y2161D01*
X4897Y2154D01*
X4891Y2146D01*
X4889Y2142D01*
X3416D01*
X3402Y2156D01*
Y2937D01*
X3401Y2943D01*
X3397Y2948D01*
X3371Y2975D01*
X3366Y2978D01*
X3359Y2980D01*
X3302D01*
X3300Y2984D01*
X3293Y2993D01*
X3285Y3000D01*
X3275Y3004D01*
X3264Y3005D01*
D02*
G37*
G36*
X522Y2125D02*
X517Y2124D01*
X507Y2120D01*
X499Y2114D01*
X493Y2105D01*
X489Y2096D01*
X487Y2085D01*
Y2081D01*
X522D01*
Y2125D01*
D02*
G37*
G36*
Y2071D02*
X487D01*
Y2066D01*
X489Y2055D01*
X493Y2046D01*
X499Y2038D01*
X507Y2031D01*
X517Y2027D01*
X522Y2027D01*
Y2071D01*
D02*
G37*
G36*
X567D02*
X532D01*
Y2027D01*
X537Y2027D01*
X547Y2031D01*
X555Y2038D01*
X562Y2046D01*
X566Y2055D01*
X567Y2066D01*
Y2071D01*
D02*
G37*
G36*
X1699Y2338D02*
X1695Y2337D01*
X1687Y2332D01*
X1682Y2324D01*
X1680Y2315D01*
Y2285D01*
X1699D01*
Y2338D01*
D02*
G37*
G36*
X2059D02*
Y2285D01*
X2079D01*
Y2315D01*
X2077Y2324D01*
X2071Y2332D01*
X2064Y2337D01*
X2059Y2338D01*
D02*
G37*
G36*
X2079Y2275D02*
X2059D01*
Y2221D01*
X2064Y2222D01*
X2071Y2227D01*
X2077Y2235D01*
X2079Y2244D01*
Y2275D01*
D02*
G37*
G36*
X3028Y3239D02*
X2949D01*
Y3140D01*
X3028D01*
Y3174D01*
X3233D01*
X3248Y3159D01*
Y3152D01*
X3243Y3150D01*
X3234Y3143D01*
X3228Y3134D01*
X3223Y3124D01*
X3222Y3113D01*
X3223Y3103D01*
X3228Y3092D01*
X3234Y3084D01*
X3240Y3079D01*
X3241Y3074D01*
X3238Y3071D01*
X3168D01*
X3167Y3075D01*
X3160Y3083D01*
X3152Y3089D01*
X3142Y3093D01*
X3132Y3094D01*
X3122Y3093D01*
X3112Y3089D01*
X3104Y3083D01*
X3098Y3075D01*
X3094Y3065D01*
X3092Y3055D01*
X3094Y3044D01*
X3098Y3035D01*
X3104Y3026D01*
X3112Y3020D01*
X3122Y3016D01*
X3132Y3015D01*
X3142Y3016D01*
X3152Y3020D01*
X3160Y3026D01*
X3167Y3035D01*
X3168Y3038D01*
X3247D01*
X3254Y3040D01*
X3259Y3043D01*
X3275Y3059D01*
X3279Y3065D01*
X3280Y3071D01*
Y3075D01*
X3285Y3077D01*
X3293Y3084D01*
X3300Y3092D01*
X3302Y3097D01*
X3443D01*
X3464Y3076D01*
Y2232D01*
X3465Y2226D01*
X3469Y2221D01*
X3496Y2193D01*
X3502Y2190D01*
X3508Y2189D01*
X5850D01*
X5857Y2190D01*
X5862Y2193D01*
X5893Y2225D01*
X5897Y2230D01*
X5898Y2236D01*
Y2433D01*
X5897Y2439D01*
X5893Y2445D01*
X5874Y2464D01*
X5868Y2468D01*
X5862Y2469D01*
X5851D01*
X5849Y2474D01*
X5842Y2482D01*
X5834Y2489D01*
X5823Y2493D01*
X5813Y2495D01*
X5805D01*
X5794Y2493D01*
X5784Y2489D01*
X5775Y2482D01*
X5768Y2474D01*
X5764Y2464D01*
X5763Y2453D01*
X5764Y2442D01*
X5768Y2432D01*
X5775Y2423D01*
X5784Y2417D01*
X5794Y2412D01*
X5805Y2411D01*
X5813D01*
X5823Y2412D01*
X5834Y2417D01*
X5842Y2423D01*
X5849Y2432D01*
X5851Y2437D01*
X5855D01*
X5866Y2426D01*
Y2243D01*
X5844Y2221D01*
X3515D01*
X3497Y2239D01*
Y3083D01*
X3495Y3089D01*
X3492Y3094D01*
X3461Y3125D01*
X3456Y3128D01*
X3450Y3130D01*
X3302D01*
X3300Y3134D01*
X3293Y3143D01*
X3285Y3150D01*
X3280Y3152D01*
Y3165D01*
X3279Y3172D01*
X3275Y3177D01*
X3251Y3201D01*
X3246Y3205D01*
X3239Y3206D01*
X3028D01*
Y3239D01*
D02*
G37*
G36*
X1699Y2275D02*
X1680D01*
Y2244D01*
X1682Y2235D01*
X1687Y2227D01*
X1695Y2222D01*
X1699Y2221D01*
Y2275D01*
D02*
G37*
G36*
X3940Y1900D02*
Y1856D01*
X3975D01*
Y1861D01*
X3974Y1871D01*
X3970Y1881D01*
X3964Y1889D01*
X3955Y1896D01*
X3946Y1900D01*
X3940Y1900D01*
D02*
G37*
G36*
X2992Y1900D02*
Y1856D01*
X3026D01*
Y1861D01*
X3025Y1871D01*
X3021Y1881D01*
X3015Y1889D01*
X3007Y1896D01*
X2997Y1900D01*
X2992Y1900D01*
D02*
G37*
G36*
X3930D02*
X3925Y1900D01*
X3915Y1896D01*
X3907Y1889D01*
X3901Y1881D01*
X3897Y1871D01*
X3896Y1861D01*
Y1856D01*
X3930D01*
Y1900D01*
D02*
G37*
G36*
X3626Y1901D02*
X3547D01*
Y1802D01*
X3626D01*
Y1835D01*
X3669D01*
X3670Y1831D01*
X3677Y1823D01*
X3685Y1817D01*
X3694Y1813D01*
X3705Y1811D01*
X3715Y1813D01*
X3725Y1817D01*
X3733Y1823D01*
X3739Y1831D01*
X3743Y1841D01*
X3745Y1851D01*
X3743Y1862D01*
X3739Y1871D01*
X3733Y1879D01*
X3725Y1886D01*
X3715Y1890D01*
X3705Y1891D01*
X3694Y1890D01*
X3685Y1886D01*
X3677Y1879D01*
X3670Y1871D01*
X3669Y1867D01*
X3626D01*
Y1901D01*
D02*
G37*
G36*
X2982Y1900D02*
X2976Y1900D01*
X2967Y1896D01*
X2958Y1889D01*
X2952Y1881D01*
X2948Y1871D01*
X2947Y1861D01*
Y1856D01*
X2982D01*
Y1900D01*
D02*
G37*
G36*
X1127Y2125D02*
X1117Y2124D01*
X1107Y2120D01*
X1099Y2114D01*
X1093Y2105D01*
X1089Y2096D01*
X1087Y2085D01*
Y2066D01*
X1089Y2055D01*
X1093Y2046D01*
X1099Y2038D01*
X1107Y2031D01*
X1117Y2027D01*
X1127Y2026D01*
X1137Y2027D01*
X1147Y2031D01*
X1155Y2038D01*
X1162Y2046D01*
X1166Y2055D01*
X1167Y2066D01*
Y2085D01*
X1166Y2096D01*
X1162Y2105D01*
X1155Y2114D01*
X1147Y2120D01*
X1137Y2124D01*
X1127Y2125D01*
D02*
G37*
G36*
X1267Y2125D02*
X1188D01*
Y2026D01*
X1267D01*
Y2125D01*
D02*
G37*
G36*
X727Y2125D02*
X717Y2124D01*
X707Y2120D01*
X699Y2114D01*
X693Y2105D01*
X689Y2096D01*
X687Y2085D01*
Y2066D01*
X689Y2055D01*
X693Y2046D01*
X699Y2038D01*
X707Y2031D01*
X717Y2027D01*
X727Y2026D01*
X737Y2027D01*
X747Y2031D01*
X755Y2038D01*
X762Y2046D01*
X766Y2055D01*
X767Y2066D01*
Y2085D01*
X766Y2096D01*
X762Y2105D01*
X755Y2114D01*
X747Y2120D01*
X737Y2124D01*
X727Y2125D01*
D02*
G37*
G36*
X1694Y1903D02*
X1689Y1903D01*
X1679Y1899D01*
X1671Y1892D01*
X1665Y1884D01*
X1661Y1874D01*
X1659Y1864D01*
Y1859D01*
X1694D01*
Y1903D01*
D02*
G37*
G36*
X627Y2125D02*
X617Y2124D01*
X607Y2120D01*
X599Y2114D01*
X593Y2105D01*
X589Y2096D01*
X587Y2085D01*
Y2066D01*
X589Y2055D01*
X593Y2046D01*
X599Y2038D01*
X607Y2031D01*
X617Y2027D01*
X627Y2026D01*
X637Y2027D01*
X647Y2031D01*
X655Y2038D01*
X662Y2046D01*
X666Y2055D01*
X667Y2066D01*
Y2085D01*
X666Y2096D01*
X662Y2105D01*
X655Y2114D01*
X647Y2120D01*
X637Y2124D01*
X627Y2125D01*
D02*
G37*
G36*
X4030Y2896D02*
X4020Y2895D01*
X4010Y2891D01*
X4002Y2884D01*
X3995Y2876D01*
X3991Y2867D01*
X3991Y2863D01*
X3869D01*
X3862Y2861D01*
X3857Y2858D01*
X3846Y2847D01*
X3842Y2849D01*
X3831Y2851D01*
X3820Y2849D01*
X3810Y2845D01*
X3801Y2838D01*
X3794Y2830D01*
X3790Y2819D01*
X3789Y2809D01*
X3790Y2798D01*
X3794Y2788D01*
X3801Y2779D01*
X3810Y2772D01*
X3814Y2770D01*
Y2723D01*
X3810Y2721D01*
X3801Y2715D01*
X3794Y2706D01*
X3790Y2696D01*
X3789Y2685D01*
X3790Y2674D01*
X3794Y2664D01*
X3801Y2655D01*
X3810Y2649D01*
X3820Y2645D01*
X3831Y2643D01*
X3842Y2645D01*
X3852Y2649D01*
X3860Y2655D01*
X3867Y2664D01*
X3871Y2674D01*
X3873Y2685D01*
X3871Y2696D01*
X3867Y2706D01*
X3860Y2715D01*
X3852Y2721D01*
X3847Y2723D01*
Y2770D01*
X3852Y2772D01*
X3860Y2779D01*
X3867Y2788D01*
X3871Y2798D01*
X3873Y2809D01*
X3871Y2819D01*
X3869Y2824D01*
X3875Y2830D01*
X3991D01*
X3991Y2826D01*
X3995Y2817D01*
X4002Y2808D01*
X4010Y2802D01*
X4020Y2798D01*
X4030Y2797D01*
X4040Y2798D01*
X4050Y2802D01*
X4058Y2808D01*
X4064Y2817D01*
X4068Y2826D01*
X4070Y2837D01*
Y2856D01*
X4068Y2867D01*
X4064Y2876D01*
X4058Y2884D01*
X4050Y2891D01*
X4040Y2895D01*
X4030Y2896D01*
D02*
G37*
G36*
X3930Y3388D02*
X3919Y3387D01*
X3909Y3383D01*
X3900Y3376D01*
X3894Y3367D01*
X3892Y3363D01*
X3858D01*
X3852Y3361D01*
X3847Y3358D01*
X3819Y3330D01*
X3816Y3325D01*
X3814Y3319D01*
Y3247D01*
X3810Y3245D01*
X3801Y3238D01*
X3794Y3230D01*
X3790Y3219D01*
X3789Y3209D01*
X3790Y3198D01*
X3794Y3188D01*
X3801Y3179D01*
X3810Y3172D01*
X3820Y3168D01*
X3831Y3167D01*
X3842Y3168D01*
X3852Y3172D01*
X3860Y3179D01*
X3867Y3188D01*
X3871Y3198D01*
X3873Y3209D01*
X3871Y3219D01*
X3867Y3230D01*
X3860Y3238D01*
X3852Y3245D01*
X3847Y3247D01*
Y3312D01*
X3865Y3330D01*
X3892D01*
X3894Y3326D01*
X3900Y3317D01*
X3909Y3310D01*
X3919Y3306D01*
X3930Y3305D01*
X3941Y3306D01*
X3951Y3310D01*
X3960Y3317D01*
X3966Y3326D01*
X3968Y3330D01*
X4100D01*
X4114Y3316D01*
Y3192D01*
X4110Y3191D01*
X4102Y3184D01*
X4095Y3176D01*
X4091Y3167D01*
X4090Y3156D01*
Y3137D01*
X4091Y3126D01*
X4095Y3117D01*
X4102Y3108D01*
X4110Y3102D01*
X4120Y3098D01*
X4130Y3097D01*
X4140Y3098D01*
X4150Y3102D01*
X4158Y3108D01*
X4164Y3117D01*
X4168Y3126D01*
X4170Y3137D01*
Y3156D01*
X4168Y3167D01*
X4164Y3176D01*
X4158Y3184D01*
X4150Y3191D01*
X4146Y3192D01*
Y3323D01*
X4145Y3329D01*
X4141Y3334D01*
X4118Y3358D01*
X4113Y3361D01*
X4106Y3363D01*
X3968D01*
X3966Y3367D01*
X3960Y3376D01*
X3951Y3383D01*
X3941Y3387D01*
X3930Y3388D01*
D02*
G37*
G36*
X4525Y1173D02*
X4515Y1171D01*
X4505Y1167D01*
X4497Y1161D01*
X4491Y1153D01*
X4487Y1143D01*
X4485Y1133D01*
Y1113D01*
X4487Y1103D01*
X4491Y1093D01*
X4497Y1085D01*
X4505Y1078D01*
X4515Y1074D01*
X4525Y1073D01*
X4536Y1074D01*
X4545Y1078D01*
X4553Y1085D01*
X4560Y1093D01*
X4564Y1103D01*
X4565Y1113D01*
Y1133D01*
X4564Y1143D01*
X4560Y1153D01*
X4553Y1161D01*
X4545Y1167D01*
X4536Y1171D01*
X4525Y1173D01*
D02*
G37*
%LPD*%
D10*
X1999Y1554D02*
D03*
X1899D02*
D03*
X1799D02*
D03*
X1699D02*
D03*
Y1854D02*
D03*
X1799D02*
D03*
X1899D02*
D03*
X1999D02*
D03*
X2299D02*
D03*
X2199D02*
D03*
X2099D02*
D03*
Y1554D02*
D03*
X2199D02*
D03*
X2299D02*
D03*
X2399D02*
D03*
X4930Y609D02*
D03*
X5030D02*
D03*
X5130D02*
D03*
X5230D02*
D03*
Y309D02*
D03*
X5130D02*
D03*
X5030D02*
D03*
X4930D02*
D03*
X4630D02*
D03*
X4730D02*
D03*
X4830D02*
D03*
Y609D02*
D03*
X4730D02*
D03*
X4630D02*
D03*
X4530D02*
D03*
X2987Y1851D02*
D03*
X3087D02*
D03*
X3187D02*
D03*
X3487D02*
D03*
X3387D02*
D03*
X3287D02*
D03*
X3387Y1551D02*
D03*
X3287D02*
D03*
X3187D02*
D03*
X3087D02*
D03*
X2987D02*
D03*
X3487D02*
D03*
X3587D02*
D03*
X2388Y3190D02*
D03*
X2488D02*
D03*
X2588D02*
D03*
X2888D02*
D03*
X2788D02*
D03*
X2688D02*
D03*
X2788Y2890D02*
D03*
X2688D02*
D03*
X2588D02*
D03*
X2488D02*
D03*
X2388D02*
D03*
X2888D02*
D03*
X2988D02*
D03*
X4030Y3146D02*
D03*
X4130D02*
D03*
X4230D02*
D03*
X4530D02*
D03*
X4430D02*
D03*
X4330D02*
D03*
X4430Y2846D02*
D03*
X4330D02*
D03*
X4230D02*
D03*
X4130D02*
D03*
X4030D02*
D03*
X4530D02*
D03*
X4630D02*
D03*
X4635Y1551D02*
D03*
X4535D02*
D03*
X4435D02*
D03*
X4335D02*
D03*
Y1851D02*
D03*
X4435D02*
D03*
X4535D02*
D03*
X4235D02*
D03*
X4135D02*
D03*
X4035D02*
D03*
X3935D02*
D03*
Y1551D02*
D03*
X4035D02*
D03*
X4135D02*
D03*
X4235D02*
D03*
X1237Y2939D02*
D03*
X1137D02*
D03*
X1037D02*
D03*
X937D02*
D03*
Y3239D02*
D03*
X1037D02*
D03*
X1137D02*
D03*
X837D02*
D03*
X737D02*
D03*
X637D02*
D03*
X537D02*
D03*
Y2939D02*
D03*
X637D02*
D03*
X737D02*
D03*
X837D02*
D03*
X5025Y823D02*
D03*
X4925D02*
D03*
X4825D02*
D03*
X4525D02*
D03*
X4625D02*
D03*
X4725D02*
D03*
X4625Y1123D02*
D03*
X4725D02*
D03*
X4825D02*
D03*
X4925D02*
D03*
X5025D02*
D03*
X4525D02*
D03*
X4425D02*
D03*
X3863Y777D02*
D03*
X3763D02*
D03*
X3663D02*
D03*
X3363D02*
D03*
X3463D02*
D03*
X3563D02*
D03*
X3463Y1077D02*
D03*
X3563D02*
D03*
X3663D02*
D03*
X3763D02*
D03*
X3863D02*
D03*
X3363D02*
D03*
X3263D02*
D03*
X827Y1776D02*
D03*
X727D02*
D03*
X627D02*
D03*
X527D02*
D03*
Y2076D02*
D03*
X627D02*
D03*
X727D02*
D03*
X827D02*
D03*
X1127D02*
D03*
X1027D02*
D03*
X927D02*
D03*
Y1776D02*
D03*
X1027D02*
D03*
X1127D02*
D03*
X1227D02*
D03*
D11*
X2399Y1854D02*
D03*
X4530Y309D02*
D03*
X3587Y1851D02*
D03*
X2988Y3190D02*
D03*
X4630Y3146D02*
D03*
X4635Y1851D02*
D03*
X1237Y3239D02*
D03*
X4425Y823D02*
D03*
X3263Y777D02*
D03*
X1227Y2076D02*
D03*
D12*
X2473Y434D02*
D03*
Y534D02*
D03*
Y634D02*
D03*
Y734D02*
D03*
X2773D02*
D03*
Y634D02*
D03*
Y534D02*
D03*
Y834D02*
D03*
Y934D02*
D03*
Y1034D02*
D03*
Y1134D02*
D03*
X2473D02*
D03*
Y1034D02*
D03*
Y934D02*
D03*
Y834D02*
D03*
D13*
X2773Y434D02*
D03*
D14*
X3462Y234D02*
D03*
X3662D02*
D03*
X3362Y634D02*
D03*
X3562D02*
D03*
X1906Y487D02*
D03*
Y687D02*
D03*
D15*
X3764Y634D02*
D03*
Y234D02*
D03*
X3262Y234D02*
D03*
Y634D02*
D03*
X1988Y2777D02*
D03*
Y3177D02*
D03*
X535Y2622D02*
D03*
Y2422D02*
D03*
X2066Y280D02*
D03*
X1666D02*
D03*
X2288Y3390D02*
D03*
X2688D02*
D03*
X137Y2827D02*
D03*
X537D02*
D03*
X3664Y1256D02*
D03*
X3264D02*
D03*
X4616Y1327D02*
D03*
X5016D02*
D03*
X921Y890D02*
D03*
Y990D02*
D03*
X1146Y892D02*
D03*
Y992D02*
D03*
X4731Y2685D02*
D03*
X4331D02*
D03*
X4231D02*
D03*
X3831D02*
D03*
X4937Y2696D02*
D03*
X5337D02*
D03*
X4937Y2846D02*
D03*
X5337D02*
D03*
X4937Y2996D02*
D03*
X5337D02*
D03*
X4937Y3146D02*
D03*
X5337D02*
D03*
X3264Y2813D02*
D03*
X3664D02*
D03*
X3264Y2963D02*
D03*
X3664D02*
D03*
X3264Y3113D02*
D03*
X3664D02*
D03*
X3260Y3268D02*
D03*
X3660D02*
D03*
X2189Y2571D02*
D03*
X2589D02*
D03*
X2588Y2690D02*
D03*
X2188D02*
D03*
X3831Y2809D02*
D03*
Y3209D02*
D03*
X3930Y3346D02*
D03*
X4330D02*
D03*
X1327Y891D02*
D03*
D16*
X600Y500D02*
D03*
D17*
Y700D02*
D03*
D18*
X5268Y1383D02*
D03*
Y1483D02*
D03*
D19*
Y1433D02*
D03*
D20*
X1567Y862D02*
D03*
D21*
X921Y1090D02*
D03*
X1146Y1092D02*
D03*
X1327Y791D02*
D03*
D22*
X6102Y197D02*
D03*
Y3740D02*
D03*
X197D02*
D03*
Y197D02*
D03*
D23*
X5809Y2353D02*
D03*
X5709D02*
D03*
X5809Y2453D02*
D03*
X5709D02*
D03*
X5809Y2553D02*
D03*
X5709D02*
D03*
X5809Y2653D02*
D03*
X5709D02*
D03*
X5809Y2753D02*
D03*
X5709D02*
D03*
X5809Y2853D02*
D03*
X5709D02*
D03*
X5809Y2953D02*
D03*
Y1584D02*
D03*
X5709Y1484D02*
D03*
X5809D02*
D03*
X5709Y1384D02*
D03*
X5809D02*
D03*
X5709Y1284D02*
D03*
X5809D02*
D03*
X5709Y1184D02*
D03*
X5809D02*
D03*
X5709Y1084D02*
D03*
X5809D02*
D03*
X5709Y984D02*
D03*
X5809D02*
D03*
D24*
X5709Y2953D02*
D03*
Y1584D02*
D03*
D25*
X2075Y736D02*
D03*
X2375D02*
D03*
X2358Y1469D02*
D03*
Y1169D02*
D03*
X3705Y1851D02*
D03*
Y1551D02*
D03*
X5350Y59D02*
D03*
Y359D02*
D03*
X5709Y626D02*
D03*
X6009D02*
D03*
X1173Y2846D02*
D03*
Y2546D02*
D03*
X1323Y2075D02*
D03*
Y2375D02*
D03*
X3831Y1218D02*
D03*
Y1618D02*
D03*
X1563Y2100D02*
D03*
Y2500D02*
D03*
X4236Y2469D02*
D03*
Y1969D02*
D03*
X4925Y1626D02*
D03*
Y2126D02*
D03*
X4335Y2569D02*
D03*
Y1969D02*
D03*
X2454Y1992D02*
D03*
X1854D02*
D03*
X2201Y1941D02*
D03*
X1501D02*
D03*
X5496Y2752D02*
D03*
Y3652D02*
D03*
X2732Y2378D02*
D03*
Y1478D02*
D03*
X1689Y3295D02*
D03*
X2689D02*
D03*
X2575Y1240D02*
D03*
Y2240D02*
D03*
X1390Y2122D02*
D03*
Y1022D02*
D03*
X3132Y3055D02*
D03*
Y1955D02*
D03*
X4146Y677D02*
D03*
X5346D02*
D03*
X5881Y728D02*
D03*
X4681D02*
D03*
D26*
X1136Y700D02*
D03*
X1236Y500D02*
D03*
D27*
X1036D02*
D03*
D28*
X2362Y409D02*
D03*
X2283D02*
D03*
X4429Y472D02*
D03*
X4509D02*
D03*
X1327Y1776D02*
D03*
X1407D02*
D03*
X3163Y1077D02*
D03*
X3083D02*
D03*
X1337Y2939D02*
D03*
X1416D02*
D03*
X2499Y1554D02*
D03*
X2579D02*
D03*
X2738Y3051D02*
D03*
X2817D02*
D03*
D29*
X1704Y2280D02*
D03*
X1754D02*
D03*
X1804D02*
D03*
X1854D02*
D03*
X1904D02*
D03*
X1954D02*
D03*
X2004D02*
D03*
X2054D02*
D03*
X1704Y2087D02*
D03*
X1754D02*
D03*
X1804D02*
D03*
X1854D02*
D03*
X1904D02*
D03*
X1954D02*
D03*
X2004D02*
D03*
X2054D02*
D03*
X1666Y680D02*
D03*
X1716D02*
D03*
X1766D02*
D03*
X1816D02*
D03*
X1666Y487D02*
D03*
X1716D02*
D03*
X1766D02*
D03*
X1816D02*
D03*
D30*
X4430Y3296D02*
D03*
Y3376D02*
D03*
D31*
X3660Y2817D02*
Y3268D01*
X4430Y333D02*
Y587D01*
X2016Y488D02*
Y567D01*
X1972Y610D02*
X2016Y567D01*
X2362Y350D02*
Y409D01*
X2346Y334D02*
X2362Y350D01*
X2448Y409D02*
X2473Y434D01*
X2362Y409D02*
X2448D01*
X1965Y315D02*
Y437D01*
X1930Y280D02*
X1965Y315D01*
X1666Y280D02*
X1930D01*
X1965Y437D02*
X2016Y488D01*
X2350D01*
X2362Y476D01*
Y433D02*
Y476D01*
X2295Y334D02*
X2346D01*
X2272Y311D02*
X2295Y334D01*
X5535Y3587D02*
X5571Y3622D01*
X5012Y3587D02*
X5535D01*
X4988Y3610D02*
X5012Y3587D01*
X1517Y2546D02*
X1563Y2500D01*
X1173Y2546D02*
X1517D01*
X1173Y2846D02*
X1220D01*
X1110D02*
X1173D01*
X3363Y777D02*
Y854D01*
X2740Y1551D02*
X2823Y1469D01*
X2531Y1661D02*
X2713D01*
X2740Y1551D02*
Y1634D01*
X2713Y1661D02*
X2740Y1634D01*
X2499Y1554D02*
Y1629D01*
X2531Y1661D01*
X2823Y1469D02*
X3016D01*
X3036Y1489D01*
X3059Y1614D02*
X3571D01*
X3587Y1598D01*
X3606Y1618D01*
X4024D02*
X4035Y1606D01*
Y1551D02*
Y1606D01*
X4575Y712D02*
Y870D01*
X4351Y1123D02*
X4425D01*
X4327Y1098D02*
X4351Y1123D01*
X4327Y768D02*
Y1098D01*
Y768D02*
X4343Y752D01*
X4465D01*
X4476Y763D01*
Y881D01*
X4492Y898D01*
X4547D01*
X4575Y870D01*
X4530Y668D02*
X4575Y712D01*
X4530Y609D02*
Y668D01*
X1327Y1776D02*
Y1910D01*
X1350Y1933D01*
X496Y1087D02*
X563D01*
X604Y1045D02*
X649Y1090D01*
X600Y1041D02*
X604Y1045D01*
X563Y1087D02*
X604Y1045D01*
X489Y2422D02*
X535D01*
X488Y2421D02*
X489Y2422D01*
X465Y2445D02*
X488Y2421D01*
X465Y2445D02*
Y3008D01*
X488Y3031D01*
X626D01*
X637Y3021D01*
Y2939D02*
Y3021D01*
Y2939D02*
X737D01*
X1087Y2869D02*
Y3043D01*
Y2869D02*
X1110Y2846D01*
X1220D02*
X1237Y2863D01*
Y2939D01*
X5528Y2480D02*
X5555Y2453D01*
X5528Y2480D02*
Y2559D01*
X5496Y2591D02*
X5528Y2559D01*
X5358Y2591D02*
X5496D01*
X5337Y2612D02*
X5358Y2591D01*
X5337Y2612D02*
Y2696D01*
X5555Y2453D02*
X5709D01*
X5528Y2425D02*
X5555Y2453D01*
X5528Y2370D02*
Y2425D01*
X5488Y2331D02*
X5528Y2370D01*
X3660Y3268D02*
Y3320D01*
X3641Y3340D02*
X3660Y3320D01*
X4635Y1551D02*
X4713D01*
X4728Y1535D01*
Y1260D02*
Y1535D01*
X4709Y1240D02*
X4728Y1260D01*
X4453Y1240D02*
X4709D01*
X4425Y1213D02*
X4453Y1240D01*
X4425Y1123D02*
Y1213D01*
X649Y1090D02*
X921D01*
X600Y700D02*
Y1041D01*
X921Y1090D02*
X924Y1092D01*
X1999Y1854D02*
X2099D01*
X1899D02*
X1999D01*
X3163Y1077D02*
X3263D01*
X3264Y1078D01*
Y1256D01*
X1666Y225D02*
Y280D01*
X1634Y193D02*
X1666Y225D01*
X972Y193D02*
X1634D01*
X945Y220D02*
X972Y193D01*
X945Y220D02*
Y575D01*
X969Y598D01*
X1469D01*
X1496Y571D01*
Y508D02*
Y571D01*
Y508D02*
X1517Y487D01*
X1666D01*
X1227Y1776D02*
X1327D01*
X1237Y2939D02*
X1337D01*
X5337Y2996D02*
Y3146D01*
Y2846D02*
Y2996D01*
Y2696D02*
Y2846D01*
X3660Y2817D02*
X3664Y2813D01*
X2399Y1554D02*
X2499D01*
X4535Y1551D02*
X4635D01*
X4430Y3146D02*
Y3296D01*
X3161Y1076D02*
X3163Y1077D01*
X3664Y2368D02*
Y2813D01*
Y2368D02*
X3701Y2331D01*
X5488D01*
X2099Y1854D02*
Y2087D01*
X2437Y2859D02*
X2438Y2859D01*
Y3015D01*
X2406Y3047D02*
X2438Y3015D01*
X1965Y3047D02*
X2406D01*
X4430Y3076D02*
Y3146D01*
X4417Y3063D02*
X4430Y3076D01*
X4303Y3063D02*
X4417D01*
X4280Y3087D02*
X4303Y3063D01*
X4279Y3253D02*
X4280Y3252D01*
Y3087D02*
Y3252D01*
X4252Y3559D02*
X4279Y3532D01*
Y3253D02*
Y3532D01*
X1929Y3083D02*
X1965Y3047D01*
X1929Y3083D02*
Y3539D01*
X1949Y3559D01*
X4252D01*
X2099Y2087D02*
X2169Y2157D01*
X2654D02*
X2681Y2185D01*
X2169Y2157D02*
X2654D01*
X2650Y2378D02*
X2681Y2346D01*
Y2185D02*
Y2346D01*
X2480Y2378D02*
X2650D01*
X2437Y2421D02*
X2480Y2378D01*
X1227Y1707D02*
Y1776D01*
X1209Y1689D02*
X1227Y1707D01*
X1094Y1689D02*
X1209D01*
X1078Y1706D02*
X1094Y1689D01*
X1078Y1706D02*
Y1828D01*
X1051Y1854D02*
X1078Y1828D01*
X996Y1854D02*
X1051D01*
X976Y1835D02*
X996Y1854D01*
X976Y1806D02*
Y1835D01*
Y1806D02*
X977Y1806D01*
X2650Y2378D02*
X2677Y2406D01*
Y2638D01*
X2738Y2698D01*
X783Y311D02*
X811Y283D01*
Y102D02*
Y283D01*
X2272Y114D02*
Y311D01*
X3036Y1591D02*
X3059Y1614D01*
X3036Y1489D02*
Y1591D01*
X2437Y2421D02*
Y2469D01*
Y2531D02*
Y2859D01*
X2406Y2500D02*
X2437Y2531D01*
X2406Y2500D02*
X2437Y2469D01*
X1563Y2500D02*
X2406D01*
X1576Y2087D02*
X1704D01*
X1563Y2100D02*
X1576Y2087D01*
X2399Y1509D02*
Y1554D01*
X2358Y1469D02*
X2399Y1509D01*
X2358Y1169D02*
Y1280D01*
X2327Y1311D02*
X2358Y1280D01*
X977Y1342D02*
Y1806D01*
Y1342D02*
X1008Y1311D01*
X2327D01*
X1488Y3831D02*
X1508Y3850D01*
X1488Y3488D02*
Y3831D01*
X1453Y3453D02*
X1488Y3488D01*
X453Y1130D02*
X496Y1087D01*
X453Y1130D02*
Y2386D01*
X488Y2421D01*
X264Y3421D02*
X295Y3453D01*
X1453D01*
X264Y358D02*
Y3421D01*
Y358D02*
X311Y311D01*
X783D01*
X1087Y3043D02*
X1119Y3075D01*
X1728D01*
X3264Y1287D02*
X3287Y1311D01*
X3693D01*
X3413Y905D02*
Y1173D01*
X3363Y854D02*
X3413Y905D01*
X3264Y1256D02*
Y1283D01*
Y1287D01*
X3413Y1173D02*
X3437Y1197D01*
X3689D02*
X3715Y1223D01*
X3437Y1197D02*
X3689D01*
X3715Y1277D02*
X3715Y1277D01*
X3715Y1277D02*
Y1289D01*
X3693Y1311D02*
X3715Y1289D01*
X3715Y1223D02*
Y1277D01*
X4454Y309D02*
X4530D01*
X4430Y333D02*
X4454Y309D01*
X4430Y587D02*
X4453Y609D01*
X4530D01*
X4961Y3740D02*
X4988Y3713D01*
X2804Y3340D02*
X3641D01*
X2788Y3190D02*
Y3324D01*
X2804Y3340D01*
X2738Y3139D02*
X2788Y3190D01*
X2738Y2698D02*
Y3051D01*
Y3139D01*
X811Y102D02*
X858Y55D01*
X2213D01*
X2272Y114D01*
X1816Y613D02*
Y680D01*
Y613D02*
X1835Y594D01*
X1957D01*
X1972Y610D01*
X1931Y1092D02*
X1972Y1051D01*
X1146Y1092D02*
X1931D01*
X1972Y610D02*
Y1051D01*
X924Y1092D02*
X1146D01*
X4988Y3610D02*
Y3713D01*
X1508Y3850D02*
X5535D01*
X5571Y3815D01*
Y3622D02*
Y3815D01*
X3606Y1618D02*
X3831D01*
X4024D01*
X4323Y1151D02*
X4351Y1123D01*
X3831Y1218D02*
X4298D01*
X4323Y1193D01*
Y1151D02*
Y1193D01*
X2358Y1280D02*
X2390Y1311D01*
X3236D01*
X3264Y1283D01*
X1350Y1933D02*
X1382D01*
X1549Y2100D02*
X1563D01*
X1382Y1933D02*
X1549Y2100D01*
X1728Y3075D02*
X1773Y3120D01*
Y3687D01*
X1827Y3740D01*
X4961D01*
D32*
X5486Y3652D02*
X5496Y3642D01*
X2688Y3190D02*
Y3390D01*
X1441Y2083D02*
Y2150D01*
X1433Y2075D02*
X1441Y2083D01*
X1323Y2075D02*
X1433D01*
X1165Y2000D02*
X1299D01*
X1323Y2024D01*
Y2075D01*
X1992Y2375D02*
X2004Y2362D01*
X1323Y2375D02*
X1992D01*
X906Y3024D02*
X1024D01*
X882Y3000D02*
X906Y3024D01*
X882Y2910D02*
Y3000D01*
X1024Y3024D02*
X1037Y3011D01*
X882Y1925D02*
Y2910D01*
X882Y2910D01*
X4602Y157D02*
X5591D01*
X4583Y177D02*
X4602Y157D01*
X4583Y177D02*
Y374D01*
X4323Y130D02*
X5783D01*
X4299Y154D02*
X4323Y130D01*
X4299Y154D02*
Y685D01*
X5809Y155D02*
Y984D01*
X5783Y130D02*
X5809Y155D01*
X5591Y157D02*
X5610Y177D01*
X4937Y3583D02*
Y3661D01*
X4913Y3685D02*
X4937Y3661D01*
X1843Y3685D02*
X4913D01*
X4921Y3496D02*
X6181D01*
X4898Y3520D02*
X4921Y3496D01*
X4898Y3520D02*
Y3618D01*
X6181Y3496D02*
X6189Y3488D01*
X6138Y3453D02*
X6146Y3445D01*
X4909Y3453D02*
X6138D01*
X4894Y3437D02*
X4909Y3453D01*
X5949Y3409D02*
X5972Y3386D01*
X4949Y3409D02*
X5949D01*
X4937Y3398D02*
X4949Y3409D01*
X6205Y3539D02*
X6240Y3504D01*
X4980Y3539D02*
X6205D01*
X4937Y3583D02*
X4980Y3539D01*
X1890Y3646D02*
X4870D01*
X4898Y3618D01*
X6189Y756D02*
Y3488D01*
X6240Y665D02*
Y3504D01*
X4894Y3319D02*
Y3437D01*
X3763Y634D02*
Y635D01*
X2588Y2571D02*
Y2690D01*
X3263Y634D02*
Y634D01*
X3563Y536D02*
Y634D01*
X1846Y2799D02*
Y3602D01*
X1807Y2760D02*
X1846Y2799D01*
X992Y2760D02*
X1807D01*
X937Y2815D02*
X992Y2760D01*
X3863Y1077D02*
X4055D01*
X4075Y1057D01*
X2773Y634D02*
X3035D01*
X3059Y658D01*
Y949D01*
X3075Y965D02*
X3335D01*
X3059Y949D02*
X3075Y965D01*
X2748Y1421D02*
X4106D01*
X2734Y1436D02*
X2748Y1421D01*
X2734Y1436D02*
Y1471D01*
X2732Y1472D02*
X2734Y1471D01*
X2732Y1472D02*
Y1478D01*
X1764Y683D02*
Y843D01*
X1744Y862D02*
X1764Y843D01*
X1567Y862D02*
X1744D01*
X1413D02*
X1567D01*
X1390Y886D02*
X1413Y862D01*
X1390Y886D02*
Y1022D01*
X1764Y683D02*
X1766Y680D01*
X1457Y2165D02*
X1740D01*
X1441Y2150D02*
X1457Y2165D01*
X1406Y2193D02*
X1740D01*
X1390Y2177D02*
X1406Y2193D01*
X1390Y2122D02*
Y2177D01*
X4161Y2390D02*
X5236D01*
X5276Y2429D01*
Y3181D01*
X5295Y3201D01*
X5535D01*
X5575Y3161D01*
Y2886D02*
Y3161D01*
Y2886D02*
X5608Y2853D01*
X5709D01*
X1501Y1409D02*
Y1941D01*
X1027Y1370D02*
Y1776D01*
X1799Y1646D02*
Y1854D01*
X2199Y1451D02*
Y1554D01*
X1799Y1472D02*
Y1554D01*
X2299Y1787D02*
Y1854D01*
X2399D02*
X2437D01*
X2199D02*
X2201Y1856D01*
Y1941D01*
X4484Y1402D02*
Y1587D01*
X4504Y1606D01*
X4736D01*
X4776Y1567D01*
X4335Y1611D02*
X4353Y1628D01*
X4923D01*
X4925Y1626D01*
X4425Y976D02*
X4449Y1000D01*
X4425Y823D02*
Y976D01*
X937Y2815D02*
Y2939D01*
X6161Y728D02*
X6189Y756D01*
X5881Y728D02*
X6161D01*
X4634D02*
X4681D01*
X4625Y737D02*
X4634Y728D01*
X4625Y737D02*
Y823D01*
X6201Y626D02*
X6240Y665D01*
X6009Y626D02*
X6201D01*
X5709D02*
Y984D01*
X4685Y421D02*
Y646D01*
X4705Y665D01*
X4724D01*
X4825Y766D01*
X4882Y689D02*
X4925Y732D01*
X4783Y457D02*
Y673D01*
X4799Y689D02*
X4882D01*
X4783Y673D02*
X4799Y689D01*
X5346Y677D02*
Y1264D01*
Y559D02*
Y677D01*
X1169Y3039D02*
X1764D01*
X1137Y3007D02*
X1169Y3039D01*
X1137Y2939D02*
Y3007D01*
X5486Y3652D02*
X5496D01*
X2323Y1728D02*
X2772D01*
X2299Y1705D02*
X2323Y1728D01*
X2299Y1554D02*
Y1705D01*
X2772Y1728D02*
X2791Y1709D01*
Y1567D02*
Y1709D01*
Y1567D02*
X2807Y1551D01*
X2987D01*
X2173Y2083D02*
X3132D01*
X3287Y1928D01*
Y1851D02*
Y1928D01*
X5122Y693D02*
Y992D01*
X5102Y673D02*
X5122Y693D01*
X4941Y673D02*
X5102D01*
X2657Y996D02*
X2669Y984D01*
X2657Y996D02*
Y1024D01*
X2647Y1034D02*
X2657Y1024D01*
X2473Y1034D02*
X2647D01*
X2307Y984D02*
X2622D01*
X2648Y934D02*
X2773D01*
X2622Y984D02*
X2638Y969D01*
Y945D02*
Y969D01*
Y945D02*
X2648Y934D01*
X2252Y2008D02*
X2282Y2038D01*
X3124D01*
X2150Y2059D02*
X2173Y2083D01*
X2150Y1732D02*
Y2059D01*
X1854Y1992D02*
X1854Y1992D01*
Y2087D01*
X2437Y1854D02*
X2454Y1872D01*
Y1992D01*
X3124Y2038D02*
X3236Y1925D01*
X2299Y1787D02*
X2319Y1768D01*
X2130Y1713D02*
X2150Y1732D01*
X3236Y1783D02*
Y1925D01*
Y1783D02*
X3248Y1772D01*
X3327D01*
X3339Y1783D01*
Y1909D01*
X3354Y1925D01*
X3472D01*
X3487Y1911D01*
Y1851D02*
Y1911D01*
X1850Y1504D02*
X1866Y1488D01*
X1850Y1504D02*
Y1614D01*
X1839Y1626D02*
X1850Y1614D01*
X1819Y1626D02*
X1839D01*
X1799Y1646D02*
X1819Y1626D01*
X3487Y1851D02*
X3488Y1853D01*
X1804Y1981D02*
Y2087D01*
X1606Y1453D02*
Y1949D01*
X1626Y1969D01*
X1791D01*
X1804Y1981D01*
X1752Y1677D02*
Y1925D01*
X1772Y1945D02*
X1890D01*
X1752Y1925D02*
X1772Y1945D01*
X1904Y1959D02*
Y2087D01*
X1890Y1945D02*
X1904Y1959D01*
X1941Y1917D02*
X1954Y1931D01*
Y2087D01*
X1870Y1917D02*
X1941D01*
X1850Y1898D02*
X1870Y1917D01*
X1850Y1673D02*
Y1898D01*
X1754Y2207D02*
Y2280D01*
X1740Y2193D02*
X1754Y2207D01*
Y2087D02*
Y2151D01*
X1740Y2165D02*
X1754Y2151D01*
X882Y1894D02*
X898Y1909D01*
X882Y1747D02*
Y1894D01*
Y1747D02*
X882Y1747D01*
X2280Y1012D02*
X2307Y984D01*
X807Y394D02*
Y732D01*
X780Y366D02*
X807Y394D01*
Y732D02*
X839Y764D01*
X5496Y2752D02*
X5497Y2753D01*
X5709D01*
X738Y990D02*
X921D01*
X709Y961D02*
X738Y990D01*
X4930Y663D02*
X4941Y673D01*
X4930Y609D02*
Y663D01*
X4925Y732D02*
Y823D01*
X4825Y766D02*
Y823D01*
X4930Y309D02*
Y425D01*
X4911Y445D02*
X4930Y425D01*
X4795Y445D02*
X4911D01*
X4783Y457D02*
X4795Y445D01*
X4685Y421D02*
X4697Y409D01*
X4811D01*
X4830Y390D01*
Y309D02*
Y390D01*
X4941Y1008D02*
X5106D01*
X5122Y992D01*
X4925Y1024D02*
X4941Y1008D01*
X4925Y1024D02*
Y1123D01*
X5130Y309D02*
Y406D01*
X5350Y359D02*
Y421D01*
X5130Y406D02*
X5157Y433D01*
X5339D01*
X5350Y421D01*
X5449Y386D02*
Y1157D01*
X5422Y359D02*
X5449Y386D01*
X5350Y359D02*
X5422D01*
X2473Y934D02*
X2585D01*
X3763Y634D02*
X3764D01*
X3689D02*
X3763D01*
Y635D02*
Y777D01*
X3462Y234D02*
Y776D01*
X3263Y634D02*
X3362D01*
X3262D02*
X3263D01*
Y634D02*
Y777D01*
X3563Y634D02*
Y777D01*
X3362Y1076D02*
X3363Y1077D01*
X3362Y992D02*
Y1076D01*
X3335Y965D02*
X3362Y992D01*
X827Y2075D02*
X827Y2076D01*
X827Y1953D02*
Y2075D01*
X811Y1937D02*
X827Y1953D01*
X791Y1937D02*
X811D01*
X776Y1921D02*
X791Y1937D01*
X2224Y657D02*
X2248Y634D01*
X2473D01*
X2182Y534D02*
X2473D01*
X4335Y1551D02*
Y1611D01*
X4925Y2126D02*
X5937D01*
X3409D02*
X4925D01*
X2004Y2087D02*
Y2177D01*
X1992Y2189D02*
X2004Y2177D01*
X1965Y2189D02*
X1992D01*
X1954Y2199D02*
X1965Y2189D01*
X1954Y2199D02*
Y2280D01*
X1126Y1933D02*
Y1961D01*
X1102Y1909D02*
X1126Y1933D01*
X1127Y1776D02*
Y1885D01*
X1102Y1909D02*
X1127Y1885D01*
X898Y1909D02*
X1102D01*
X882Y1925D02*
X898Y1909D01*
X1037Y2939D02*
Y3011D01*
X3705Y1551D02*
X3935D01*
X3587Y1851D02*
X3705D01*
X3935Y1550D02*
X3935Y1551D01*
X3760Y1550D02*
X3935D01*
X1699Y1554D02*
Y1648D01*
X1717Y1665D01*
X1740D01*
X1752Y1677D01*
X1899Y1554D02*
Y1644D01*
X1882Y1661D02*
X1899Y1644D01*
X1862Y1661D02*
X1882D01*
X1850Y1673D02*
X1862Y1661D01*
X5610Y177D02*
Y1016D01*
X5520Y189D02*
X5547Y217D01*
X4646Y189D02*
X5520D01*
X4630Y204D02*
X4646Y189D01*
X4630Y204D02*
Y309D01*
X4681Y252D02*
Y378D01*
X4583Y374D02*
X4594Y386D01*
X4673D01*
X4681Y378D01*
X4830Y256D02*
Y309D01*
X4681Y252D02*
X4693Y240D01*
X4815D01*
X4830Y256D01*
X5547Y217D02*
Y1059D01*
X5492Y244D02*
Y1118D01*
X4930Y239D02*
Y309D01*
X5472Y224D02*
X5492Y244D01*
X4945Y224D02*
X5472D01*
X4930Y239D02*
X4945Y224D01*
X5402Y516D02*
Y1217D01*
X5386Y500D02*
X5402Y516D01*
X4949Y500D02*
X5386D01*
X4930Y519D02*
X4949Y500D01*
X4930Y519D02*
Y609D01*
X5323Y535D02*
X5346Y559D01*
X5146Y535D02*
X5323D01*
X5130Y551D02*
X5146Y535D01*
X5130Y551D02*
Y609D01*
X5230D02*
Y1222D01*
X5809Y1041D02*
Y1084D01*
X5803Y1035D02*
X5809Y1041D01*
X5630Y1035D02*
X5803D01*
X5610Y1016D02*
X5630Y1035D01*
X5547Y1059D02*
X5572Y1084D01*
X5709D01*
X5417Y1232D02*
X5772D01*
X5809Y1269D01*
Y1284D01*
X5511Y1137D02*
X5783D01*
X5492Y1118D02*
X5511Y1137D01*
X5809Y1163D02*
Y1184D01*
X5783Y1137D02*
X5809Y1163D01*
X5476Y1184D02*
X5709D01*
X5449Y1157D02*
X5476Y1184D01*
X5402Y1217D02*
X5417Y1232D01*
X5367Y1284D02*
X5709D01*
X5346Y1264D02*
X5367Y1284D01*
X5197Y1256D02*
X5230Y1222D01*
X4854Y1256D02*
X5197D01*
X4825Y1227D02*
X4854Y1256D01*
X4825Y1123D02*
Y1227D01*
X4740Y945D02*
X4862D01*
X4725Y930D02*
X4740Y945D01*
X4725Y823D02*
Y930D01*
X4862Y945D02*
X4878Y961D01*
Y1193D01*
X4894Y1209D01*
X5012D01*
X5025Y1195D01*
Y1123D02*
Y1195D01*
X5016Y1327D02*
Y1374D01*
X5025Y1383D01*
X5268D01*
X5809Y1384D02*
Y1420D01*
X5795Y1433D02*
X5809Y1420D01*
X5268Y1433D02*
X5795D01*
X3791Y1327D02*
X4616D01*
X3763Y1298D02*
X3791Y1327D01*
X3663Y1077D02*
Y1148D01*
X3642Y1169D02*
X3663Y1148D01*
X3480Y1169D02*
X3642D01*
X3463Y1152D02*
X3480Y1169D01*
X3463Y1077D02*
Y1152D01*
X3362Y1077D02*
X3363Y1077D01*
X3362Y1077D02*
Y1228D01*
X3390Y1256D01*
X3664D01*
X3663Y777D02*
X3763D01*
X3662Y607D02*
X3689Y634D01*
X3662Y234D02*
Y607D01*
X3764Y181D02*
Y234D01*
X3740Y157D02*
X3764Y181D01*
X3591Y157D02*
X3740D01*
X3562Y186D02*
X3591Y157D01*
X3562Y186D02*
Y634D01*
X3763Y635D02*
X3764Y634D01*
X3462Y776D02*
X3463Y777D01*
X3262Y234D02*
X3462D01*
X3562Y634D02*
X3563Y634D01*
X3262Y634D02*
X3263Y634D01*
X2066Y141D02*
Y280D01*
X2039Y114D02*
X2066Y141D01*
X898Y114D02*
X2039D01*
X870Y142D02*
X898Y114D01*
X870Y142D02*
Y681D01*
X889Y700D01*
X1136D01*
X1563Y583D02*
X1697D01*
X1547Y598D02*
X1563Y583D01*
X1547Y598D02*
Y685D01*
X1532Y700D02*
X1547Y685D01*
X1136Y700D02*
X1532D01*
X1732Y579D02*
X1756D01*
X1716Y595D02*
X1732Y579D01*
X1756D02*
X1766Y569D01*
X1716Y595D02*
Y680D01*
X1766Y487D02*
Y569D01*
X1716Y487D02*
Y563D01*
X1697Y583D02*
X1716Y563D01*
X1061Y380D02*
X1739D01*
X1036Y405D02*
X1061Y380D01*
X1036Y405D02*
Y500D01*
X1766Y408D02*
Y487D01*
X1739Y380D02*
X1766Y408D01*
X535Y2622D02*
X537Y2623D01*
X4130Y2421D02*
Y2846D01*
Y2421D02*
X4161Y2390D01*
X4531Y2496D02*
Y2736D01*
X4504Y2469D02*
X4531Y2496D01*
X4236Y2469D02*
X4504D01*
X4230Y2686D02*
X4231Y2685D01*
X4230Y2686D02*
Y2846D01*
X4231Y2685D02*
X4331D01*
X3831D02*
Y2809D01*
X3869Y2846D02*
X4030D01*
X3831Y2809D02*
X3869Y2846D01*
X3831Y3319D02*
X3858Y3346D01*
X3831Y3209D02*
Y3319D01*
X4476Y2598D02*
Y2917D01*
X4446Y2569D02*
X4476Y2598D01*
X4335Y2569D02*
X4446D01*
X3386Y2150D02*
X3409Y2126D01*
X3386Y2150D02*
Y2937D01*
X3291Y2043D02*
X4606D01*
X3264Y2071D02*
X3291Y2043D01*
X3264Y2071D02*
Y2813D01*
X3508Y2205D02*
X5850D01*
X3480Y2232D02*
X3508Y2205D01*
X3591Y2264D02*
X5795D01*
X3563Y2291D02*
Y3244D01*
Y2291D02*
X3591Y2264D01*
X4330Y3346D02*
Y3580D01*
X4303Y3606D02*
X4330Y3580D01*
X1909Y3606D02*
X4303D01*
X4230Y3146D02*
Y3494D01*
X4201Y3524D02*
X4230Y3494D01*
X2610Y3524D02*
X4201D01*
X4435Y1443D02*
Y1551D01*
X4413Y1421D02*
X4435Y1443D01*
X4201Y1421D02*
X4413D01*
X4181Y1441D02*
X4201Y1421D01*
X4181Y1441D02*
Y1602D01*
X4161Y1622D02*
X4181Y1602D01*
X4102Y1622D02*
X4161D01*
X4083Y1602D02*
X4102Y1622D01*
X4083Y1492D02*
Y1602D01*
X4059Y1469D02*
X4083Y1492D01*
X3102Y1469D02*
X4059D01*
X3087Y1484D02*
X3102Y1469D01*
X3087Y1484D02*
Y1551D01*
X4135Y1450D02*
Y1551D01*
X4106Y1421D02*
X4135Y1450D01*
X4035Y1791D02*
Y1851D01*
X4012Y1768D02*
X4035Y1791D01*
X3406Y1768D02*
X4012D01*
X3387Y1787D02*
X3406Y1768D01*
X3387Y1787D02*
Y1851D01*
X3217Y1720D02*
X4110D01*
X3187Y1750D02*
X3217Y1720D01*
X3187Y1750D02*
Y1851D01*
X4135Y1746D02*
Y1851D01*
X4110Y1720D02*
X4135Y1746D01*
X4531Y2736D02*
X4551Y2756D01*
X4500Y2941D02*
X4606D01*
X4630Y2917D01*
Y2846D02*
Y2917D01*
X4476Y2917D02*
X4500Y2941D01*
X4235Y1851D02*
X4236Y1852D01*
Y1969D01*
X4335Y1852D02*
X4335Y1851D01*
X4335Y1852D02*
Y1969D01*
X4551Y3291D02*
X4866D01*
X4480Y3220D02*
X4551Y3291D01*
X4480Y3016D02*
Y3220D01*
X4866Y3291D02*
X4894Y3319D01*
X4598Y2996D02*
X4630Y3028D01*
X4500Y2996D02*
X4598D01*
X4480Y3016D02*
X4500Y2996D01*
X6146Y1740D02*
Y3445D01*
X6110Y1705D02*
X6146Y1740D01*
X4465Y1705D02*
X6110D01*
X4435Y1734D02*
X4465Y1705D01*
X4435Y1734D02*
Y1851D01*
X5972Y2784D02*
X6005Y2752D01*
X6051D01*
X6075Y2728D01*
Y1791D02*
Y2728D01*
X6039Y1756D02*
X6075Y1791D01*
X4559Y1756D02*
X6039D01*
X4535Y1780D02*
X4559Y1756D01*
X4535Y1780D02*
Y1851D01*
X2588Y3502D02*
X2610Y3524D01*
X2588Y3190D02*
Y3502D01*
X4661Y2043D02*
X5969D01*
X4635Y2013D02*
Y2017D01*
Y1851D02*
Y2013D01*
Y2017D02*
X4661Y2043D01*
X4606D02*
X4635Y2013D01*
X2388Y2719D02*
Y2890D01*
X2359Y2690D02*
X2388Y2719D01*
X2188Y2690D02*
X2359D01*
X2011D02*
X2188D01*
X1988Y2713D02*
X2011Y2690D01*
X1988Y2713D02*
Y2777D01*
X2588Y2690D02*
Y2890D01*
X2406Y3106D02*
X2469D01*
X2488Y3087D01*
Y3087D02*
Y3087D01*
X2508Y3106D02*
X2563D01*
X2488Y3087D02*
X2508Y3106D01*
X2488Y2996D02*
Y3087D01*
Y2996D02*
X2508Y2976D01*
X2688Y2890D02*
Y2954D01*
X2665Y2976D02*
X2688Y2954D01*
X2508Y2976D02*
X2665D01*
X2488Y2957D02*
X2508Y2976D01*
X2488Y2890D02*
Y2957D01*
X2588Y3131D02*
Y3190D01*
X2563Y3106D02*
X2588Y3131D01*
X2388Y3124D02*
X2406Y3106D01*
X2388Y3124D02*
Y3190D01*
X2488D02*
Y3362D01*
X2461Y3390D02*
X2488Y3362D01*
X2288Y3390D02*
X2461D01*
X2012D02*
X2288D01*
X1988Y3366D02*
X2012Y3390D01*
X1988Y3177D02*
Y3366D01*
X5969Y2043D02*
X6012Y2087D01*
Y2622D01*
X3359Y2963D02*
X3386Y2937D01*
X3264Y2963D02*
X3359D01*
X5981Y2653D02*
X6012Y2622D01*
X5809Y2653D02*
X5981D01*
X5941Y2753D02*
X5972Y2784D01*
X5809Y2753D02*
X5941D01*
X5972Y2784D02*
Y3386D01*
X5957Y2146D02*
Y2524D01*
X5937Y2126D02*
X5957Y2146D01*
X5928Y2553D02*
X5957Y2524D01*
X5809Y2553D02*
X5928D01*
X5862Y2453D02*
X5882Y2433D01*
Y2236D02*
Y2433D01*
X5850Y2205D02*
X5882Y2236D01*
X5809Y2453D02*
X5862D01*
X3480Y2232D02*
Y3083D01*
X3450Y3113D02*
X3480Y3083D01*
X3264Y3113D02*
X3450D01*
X3539Y3268D02*
X3563Y3244D01*
X3260Y3268D02*
X3539D01*
X5795Y2264D02*
X5809Y2277D01*
Y2353D01*
X2888Y2831D02*
Y2890D01*
Y2831D02*
X2906Y2813D01*
X3264D01*
X2988Y2890D02*
Y2949D01*
X3003Y2963D01*
X3264D01*
X2902Y3268D02*
X3260D01*
X2888Y3254D02*
X2902Y3268D01*
X2888Y3190D02*
Y3254D01*
X4047Y3063D02*
X4110D01*
X4130Y3043D01*
X4150Y3063D02*
X4209D01*
X4130Y3043D02*
X4150Y3063D01*
X4130Y2953D02*
Y3043D01*
Y2953D02*
X4154Y2929D01*
X4330Y2846D02*
Y2910D01*
X4311Y2929D02*
X4330Y2910D01*
X4154Y2929D02*
X4311D01*
X4130Y2906D02*
X4154Y2929D01*
X4130Y2846D02*
Y2906D01*
X4230Y3084D02*
Y3146D01*
X4209Y3063D02*
X4230Y3084D01*
X4030Y3080D02*
X4047Y3063D01*
X4030Y3080D02*
Y3146D01*
X4130D02*
Y3323D01*
X4106Y3346D02*
X4130Y3323D01*
X3930Y3346D02*
X4106D01*
X3858D02*
X3930D01*
X4330Y3146D02*
Y3346D01*
X5809Y2853D02*
X5892D01*
X5909Y2870D01*
Y3311D01*
X5870Y3350D02*
X5909Y3311D01*
X5161Y3350D02*
X5870D01*
X5126Y3315D02*
X5161Y3350D01*
X5126Y3028D02*
Y3315D01*
X5094Y2996D02*
X5126Y3028D01*
X4937Y2996D02*
X5094D01*
X5809Y2953D02*
Y3258D01*
X5776Y3291D02*
X5809Y3258D01*
X5209Y3291D02*
X5776D01*
X5181Y3264D02*
X5209Y3291D01*
X5181Y2870D02*
Y3264D01*
X5157Y2846D02*
X5181Y2870D01*
X4937Y2846D02*
X5157D01*
X5709Y2953D02*
Y3205D01*
X5685Y3228D02*
X5709Y3205D01*
X5260Y3228D02*
X5685D01*
X5232Y3201D02*
X5260Y3228D01*
X5232Y2717D02*
Y3201D01*
X5211Y2696D02*
X5232Y2717D01*
X4937Y2696D02*
X5211D01*
X4937Y3260D02*
Y3398D01*
X4909Y3232D02*
X4937Y3260D01*
X4937Y2696D02*
Y2740D01*
X4921Y2756D02*
X4937Y2740D01*
X4551Y2756D02*
X4921D01*
X4530Y2777D02*
X4551Y2756D01*
X4530Y2777D02*
Y2846D01*
X4936D02*
X4937Y2846D01*
X4630Y2846D02*
X4936D01*
X4937Y3146D02*
Y3205D01*
X4909Y3232D02*
X4937Y3205D01*
X4551Y3232D02*
X4909D01*
X4530Y3211D02*
X4551Y3232D01*
X4530Y3146D02*
Y3211D01*
X4662Y2996D02*
X4937D01*
X4630Y3028D02*
X4662Y2996D01*
X4630Y3028D02*
Y3146D01*
X2575Y1240D02*
X2921D01*
X2957Y1205D01*
X2248Y1268D02*
X2258Y1258D01*
X2280Y1236D01*
Y1012D02*
Y1236D01*
X2224Y657D02*
Y1217D01*
X727Y1233D02*
Y1776D01*
Y1233D02*
X752Y1209D01*
X2146D01*
X627Y1200D02*
Y1776D01*
Y1200D02*
X650Y1177D01*
X2205Y1236D02*
X2224Y1217D01*
X776Y1268D02*
Y1921D01*
Y1268D02*
X807Y1236D01*
X2205D01*
X882Y1295D02*
Y1747D01*
Y1295D02*
X909Y1268D01*
X2248D01*
X3130Y1957D02*
X3132Y1955D01*
Y1675D02*
Y1955D01*
Y3055D02*
X3247D01*
X3264Y3071D02*
Y3113D01*
X3247Y3055D02*
X3264Y3071D01*
X2988Y3190D02*
X3239D01*
X3264Y3165D01*
Y3113D02*
Y3165D01*
X2874Y2992D02*
X2888Y3006D01*
X2854Y2992D02*
X2874D01*
X2835Y2972D02*
X2854Y2992D01*
X2835Y2406D02*
Y2972D01*
X2807Y2378D02*
X2835Y2406D01*
X2732Y2378D02*
X2807D01*
X2888Y3006D02*
Y3190D01*
X1898Y2571D02*
X2189D01*
X2122Y2240D02*
X2575D01*
X2106Y2256D02*
X2122Y2240D01*
X331Y3331D02*
X362Y3362D01*
X331Y390D02*
Y3331D01*
Y390D02*
X354Y366D01*
X780D01*
X394Y646D02*
X437Y602D01*
X709Y634D02*
Y961D01*
X437Y602D02*
X677D01*
X709Y634D01*
X1571Y3768D02*
X1594Y3791D01*
X1571Y3386D02*
Y3768D01*
X1547Y3362D02*
X1571Y3386D01*
X362Y3362D02*
X1547D01*
X1764Y3039D02*
X1799Y3075D01*
Y3642D01*
X1843Y3685D01*
X1886Y2583D02*
X1898Y2571D01*
X1886Y2583D02*
Y3583D01*
X1909Y3606D01*
X1846Y3602D02*
X1890Y3646D01*
X3087Y1851D02*
Y1913D01*
X3063Y1937D02*
X3087Y1913D01*
X2909Y1937D02*
X3063D01*
X2886Y1913D02*
X2909Y1937D01*
X2886Y1787D02*
Y1913D01*
X2866Y1768D02*
X2886Y1787D01*
X2319Y1768D02*
X2866D01*
X2585Y934D02*
X2598Y921D01*
Y75D02*
Y921D01*
X3512Y1118D02*
X3531Y1138D01*
X3598D01*
X3610Y1126D01*
Y1024D02*
Y1126D01*
X3740Y969D02*
X3763Y991D01*
Y1077D01*
X3563Y993D02*
Y1077D01*
Y993D02*
X3587Y969D01*
X3740D01*
X3610Y1024D02*
X3630Y1004D01*
X3689D01*
X3709Y1024D01*
X3512Y953D02*
Y1118D01*
Y953D02*
X3563Y902D01*
Y777D02*
Y902D01*
X3709Y1024D02*
Y1126D01*
X3763Y1297D02*
X3763Y1297D01*
X3763Y1297D02*
Y1298D01*
Y1077D02*
X3763Y1077D01*
Y1297D01*
X3709Y1126D02*
X3741Y1158D01*
Y1288D01*
X3741Y1288D02*
X3741Y1288D01*
X3741Y1288D02*
Y1334D01*
X2650Y122D02*
Y768D01*
X2598Y75D02*
X2634Y39D01*
X5331D01*
X5350Y59D01*
X2620Y96D02*
X2655Y61D01*
X2650Y122D02*
X2689Y83D01*
X4055D01*
X4075Y102D01*
Y1057D01*
X2655Y61D02*
X4112D01*
X4146Y95D01*
Y677D01*
X2843Y984D02*
X2870Y957D01*
Y902D02*
Y957D01*
X2854Y886D02*
X2870Y902D01*
X2642Y886D02*
X2854D01*
X2620Y864D02*
X2642Y886D01*
X2620Y96D02*
Y864D01*
X2669Y984D02*
X2843D01*
X2957Y811D02*
Y1205D01*
X2933Y787D02*
X2957Y811D01*
X2669Y787D02*
X2933D01*
X2650Y768D02*
X2669Y787D01*
X4500Y701D02*
X4525Y726D01*
Y823D01*
X4299Y685D02*
X4315Y701D01*
X4500D01*
X4760Y1209D02*
X4776Y1224D01*
X4689Y1209D02*
X4760D01*
X4677Y1197D02*
X4689Y1209D01*
X4677Y1024D02*
Y1197D01*
X4654Y1000D02*
X4677Y1024D01*
X4776Y1224D02*
Y1567D01*
X4449Y1000D02*
X4654D01*
X1327Y791D02*
X1693D01*
X1716Y768D01*
Y680D02*
Y768D01*
X1816Y487D02*
X1906D01*
X1024Y980D02*
X1035Y992D01*
X1024Y780D02*
Y980D01*
X1008Y764D02*
X1024Y780D01*
X1035Y992D02*
X1146D01*
X839Y764D02*
X1008D01*
X1594Y3791D02*
X5480D01*
X5496Y3776D01*
Y3652D02*
Y3776D01*
X3132Y1675D02*
X3138Y1669D01*
X4217D01*
X4235Y1650D01*
Y1551D02*
Y1650D01*
X1027Y1370D02*
X1061Y1337D01*
X2337D01*
X2340Y1334D01*
X2376D01*
X2379Y1337D01*
X3247D01*
X3250Y1334D01*
X3274D01*
X3277Y1337D01*
X3704D01*
X3706Y1334D01*
X3741D01*
X1953Y1697D02*
X1969Y1713D01*
X1953Y1504D02*
Y1697D01*
X1937Y1488D02*
X1953Y1504D01*
X1969Y1713D02*
X2130D01*
X1866Y1488D02*
X1937D01*
X2232Y1673D02*
X2252Y1693D01*
X2071Y1673D02*
X2232D01*
X2047Y1650D02*
X2071Y1673D01*
X2047Y1472D02*
Y1650D01*
X2252Y1693D02*
Y2008D01*
X1799Y1472D02*
X1807Y1465D01*
X2039D01*
X2047Y1472D01*
X1501Y1409D02*
X1528Y1382D01*
X4465D01*
X4484Y1402D01*
X1606Y1453D02*
X1634Y1425D01*
X2173D01*
X2199Y1451D01*
X537Y2623D02*
Y2827D01*
Y2939D01*
X2146Y1209D02*
X2161Y1193D01*
Y555D02*
X2182Y534D01*
X2161Y555D02*
Y1193D01*
X2375Y736D02*
X2471D01*
X2473Y734D01*
X2075Y736D02*
Y1146D01*
X2043Y1177D02*
X2075Y1146D01*
X650Y1177D02*
X2043D01*
X1126Y1961D02*
X1165Y2000D01*
X2004Y2280D02*
Y2362D01*
X1027Y2409D02*
X1051Y2433D01*
X1027Y2076D02*
Y2409D01*
X2079Y2433D02*
X2106Y2406D01*
X1051Y2433D02*
X2079D01*
X2106Y2256D02*
Y2406D01*
X425Y3295D02*
X1689D01*
X394Y3264D02*
X425Y3295D01*
X394Y646D02*
Y3264D01*
M02*
