G04 Layer_Color=255*
%FSLAX23Y23*%
%MOIN*%
G70*
G01*
G75*
%ADD10O,0.059X0.079*%
%ADD11R,0.059X0.079*%
%ADD12O,0.079X0.059*%
%ADD13R,0.079X0.059*%
%ADD14C,0.047*%
%ADD15C,0.063*%
%ADD16C,0.079*%
%ADD17R,0.079X0.079*%
%ADD18O,0.079X0.039*%
%ADD19O,0.079X0.039*%
%ADD20R,0.063X0.063*%
%ADD21R,0.063X0.063*%
%ADD22C,0.118*%
%ADD23O,0.071X0.063*%
%ADD24R,0.071X0.063*%
%ADD25C,0.059*%
%ADD26C,0.067*%
%ADD27R,0.067X0.067*%
%ADD28R,0.043X0.059*%
%ADD29O,0.028X0.098*%
%ADD30R,0.059X0.043*%
D10*
X1999Y1554D02*
D03*
X1899D02*
D03*
X1799D02*
D03*
X1699D02*
D03*
Y1854D02*
D03*
X1799D02*
D03*
X1899D02*
D03*
X1999D02*
D03*
X2299D02*
D03*
X2199D02*
D03*
X2099D02*
D03*
Y1554D02*
D03*
X2199D02*
D03*
X2299D02*
D03*
X2399D02*
D03*
X4930Y609D02*
D03*
X5030D02*
D03*
X5130D02*
D03*
X5230D02*
D03*
Y309D02*
D03*
X5130D02*
D03*
X5030D02*
D03*
X4930D02*
D03*
X4630D02*
D03*
X4730D02*
D03*
X4830D02*
D03*
Y609D02*
D03*
X4730D02*
D03*
X4630D02*
D03*
X4530D02*
D03*
X2987Y1851D02*
D03*
X3087D02*
D03*
X3187D02*
D03*
X3487D02*
D03*
X3387D02*
D03*
X3287D02*
D03*
X3387Y1551D02*
D03*
X3287D02*
D03*
X3187D02*
D03*
X3087D02*
D03*
X2987D02*
D03*
X3487D02*
D03*
X3587D02*
D03*
X2388Y3190D02*
D03*
X2488D02*
D03*
X2588D02*
D03*
X2888D02*
D03*
X2788D02*
D03*
X2688D02*
D03*
X2788Y2890D02*
D03*
X2688D02*
D03*
X2588D02*
D03*
X2488D02*
D03*
X2388D02*
D03*
X2888D02*
D03*
X2988D02*
D03*
X4030Y3146D02*
D03*
X4130D02*
D03*
X4230D02*
D03*
X4530D02*
D03*
X4430D02*
D03*
X4330D02*
D03*
X4430Y2846D02*
D03*
X4330D02*
D03*
X4230D02*
D03*
X4130D02*
D03*
X4030D02*
D03*
X4530D02*
D03*
X4630D02*
D03*
X4635Y1551D02*
D03*
X4535D02*
D03*
X4435D02*
D03*
X4335D02*
D03*
Y1851D02*
D03*
X4435D02*
D03*
X4535D02*
D03*
X4235D02*
D03*
X4135D02*
D03*
X4035D02*
D03*
X3935D02*
D03*
Y1551D02*
D03*
X4035D02*
D03*
X4135D02*
D03*
X4235D02*
D03*
X1237Y2939D02*
D03*
X1137D02*
D03*
X1037D02*
D03*
X937D02*
D03*
Y3239D02*
D03*
X1037D02*
D03*
X1137D02*
D03*
X837D02*
D03*
X737D02*
D03*
X637D02*
D03*
X537D02*
D03*
Y2939D02*
D03*
X637D02*
D03*
X737D02*
D03*
X837D02*
D03*
X5025Y823D02*
D03*
X4925D02*
D03*
X4825D02*
D03*
X4525D02*
D03*
X4625D02*
D03*
X4725D02*
D03*
X4625Y1123D02*
D03*
X4725D02*
D03*
X4825D02*
D03*
X4925D02*
D03*
X5025D02*
D03*
X4525D02*
D03*
X4425D02*
D03*
X3863Y777D02*
D03*
X3763D02*
D03*
X3663D02*
D03*
X3363D02*
D03*
X3463D02*
D03*
X3563D02*
D03*
X3463Y1077D02*
D03*
X3563D02*
D03*
X3663D02*
D03*
X3763D02*
D03*
X3863D02*
D03*
X3363D02*
D03*
X3263D02*
D03*
X827Y1776D02*
D03*
X727D02*
D03*
X627D02*
D03*
X527D02*
D03*
Y2076D02*
D03*
X627D02*
D03*
X727D02*
D03*
X827D02*
D03*
X1127D02*
D03*
X1027D02*
D03*
X927D02*
D03*
Y1776D02*
D03*
X1027D02*
D03*
X1127D02*
D03*
X1227D02*
D03*
D11*
X2399Y1854D02*
D03*
X4530Y309D02*
D03*
X3587Y1851D02*
D03*
X2988Y3190D02*
D03*
X4630Y3146D02*
D03*
X4635Y1851D02*
D03*
X1237Y3239D02*
D03*
X4425Y823D02*
D03*
X3263Y777D02*
D03*
X1227Y2076D02*
D03*
D12*
X2473Y434D02*
D03*
Y534D02*
D03*
Y634D02*
D03*
Y734D02*
D03*
X2773D02*
D03*
Y634D02*
D03*
Y534D02*
D03*
Y834D02*
D03*
Y934D02*
D03*
Y1034D02*
D03*
Y1134D02*
D03*
X2473D02*
D03*
Y1034D02*
D03*
Y934D02*
D03*
Y834D02*
D03*
D13*
X2773Y434D02*
D03*
D14*
X3462Y234D02*
D03*
X3662D02*
D03*
X3362Y634D02*
D03*
X3562D02*
D03*
X1906Y487D02*
D03*
Y687D02*
D03*
D15*
X3764Y634D02*
D03*
Y234D02*
D03*
X3262Y234D02*
D03*
Y634D02*
D03*
X1988Y2777D02*
D03*
Y3177D02*
D03*
X535Y2622D02*
D03*
Y2422D02*
D03*
X2066Y280D02*
D03*
X1666D02*
D03*
X2288Y3390D02*
D03*
X2688D02*
D03*
X137Y2827D02*
D03*
X537D02*
D03*
X3664Y1256D02*
D03*
X3264D02*
D03*
X4616Y1327D02*
D03*
X5016D02*
D03*
X921Y890D02*
D03*
Y990D02*
D03*
X1146Y892D02*
D03*
Y992D02*
D03*
X4731Y2685D02*
D03*
X4331D02*
D03*
X4231D02*
D03*
X3831D02*
D03*
X4937Y2696D02*
D03*
X5337D02*
D03*
X4937Y2846D02*
D03*
X5337D02*
D03*
X4937Y2996D02*
D03*
X5337D02*
D03*
X4937Y3146D02*
D03*
X5337D02*
D03*
X3264Y2813D02*
D03*
X3664D02*
D03*
X3264Y2963D02*
D03*
X3664D02*
D03*
X3264Y3113D02*
D03*
X3664D02*
D03*
X3260Y3268D02*
D03*
X3660D02*
D03*
X2189Y2571D02*
D03*
X2589D02*
D03*
X2588Y2690D02*
D03*
X2188D02*
D03*
X3831Y2809D02*
D03*
Y3209D02*
D03*
X3930Y3346D02*
D03*
X4330D02*
D03*
X1327Y891D02*
D03*
D16*
X600Y500D02*
D03*
D17*
Y700D02*
D03*
D18*
X5268Y1383D02*
D03*
Y1483D02*
D03*
D19*
Y1433D02*
D03*
D20*
X1567Y862D02*
D03*
D21*
X921Y1090D02*
D03*
X1146Y1092D02*
D03*
X1327Y791D02*
D03*
D22*
X6102Y197D02*
D03*
Y3740D02*
D03*
X197D02*
D03*
Y197D02*
D03*
D23*
X5809Y2353D02*
D03*
X5709D02*
D03*
X5809Y2453D02*
D03*
X5709D02*
D03*
X5809Y2553D02*
D03*
X5709D02*
D03*
X5809Y2653D02*
D03*
X5709D02*
D03*
X5809Y2753D02*
D03*
X5709D02*
D03*
X5809Y2853D02*
D03*
X5709D02*
D03*
X5809Y2953D02*
D03*
Y1584D02*
D03*
X5709Y1484D02*
D03*
X5809D02*
D03*
X5709Y1384D02*
D03*
X5809D02*
D03*
X5709Y1284D02*
D03*
X5809D02*
D03*
X5709Y1184D02*
D03*
X5809D02*
D03*
X5709Y1084D02*
D03*
X5809D02*
D03*
X5709Y984D02*
D03*
X5809D02*
D03*
D24*
X5709Y2953D02*
D03*
Y1584D02*
D03*
D25*
X2075Y736D02*
D03*
X2375D02*
D03*
X2358Y1469D02*
D03*
Y1169D02*
D03*
X3705Y1851D02*
D03*
Y1551D02*
D03*
X5350Y59D02*
D03*
Y359D02*
D03*
X5709Y626D02*
D03*
X6009D02*
D03*
X1173Y2846D02*
D03*
Y2546D02*
D03*
X1323Y2075D02*
D03*
Y2375D02*
D03*
X3831Y1218D02*
D03*
Y1618D02*
D03*
X1563Y2100D02*
D03*
Y2500D02*
D03*
X4236Y2469D02*
D03*
Y1969D02*
D03*
X4925Y1626D02*
D03*
Y2126D02*
D03*
X4335Y2569D02*
D03*
Y1969D02*
D03*
X2454Y1992D02*
D03*
X1854D02*
D03*
X2201Y1941D02*
D03*
X1501D02*
D03*
X5496Y2752D02*
D03*
Y3652D02*
D03*
X2732Y2378D02*
D03*
Y1478D02*
D03*
X1689Y3295D02*
D03*
X2689D02*
D03*
X2575Y1240D02*
D03*
Y2240D02*
D03*
X1390Y2122D02*
D03*
Y1022D02*
D03*
X3132Y3055D02*
D03*
Y1955D02*
D03*
X4146Y677D02*
D03*
X5346D02*
D03*
X5881Y728D02*
D03*
X4681D02*
D03*
D26*
X1136Y700D02*
D03*
X1236Y500D02*
D03*
D27*
X1036D02*
D03*
D28*
X2362Y409D02*
D03*
X2283D02*
D03*
X4429Y472D02*
D03*
X4509D02*
D03*
X1327Y1776D02*
D03*
X1407D02*
D03*
X3163Y1077D02*
D03*
X3083D02*
D03*
X1337Y2939D02*
D03*
X1416D02*
D03*
X2499Y1554D02*
D03*
X2579D02*
D03*
X2738Y3051D02*
D03*
X2817D02*
D03*
D29*
X1704Y2280D02*
D03*
X1754D02*
D03*
X1804D02*
D03*
X1854D02*
D03*
X1904D02*
D03*
X1954D02*
D03*
X2004D02*
D03*
X2054D02*
D03*
X1704Y2087D02*
D03*
X1754D02*
D03*
X1804D02*
D03*
X1854D02*
D03*
X1904D02*
D03*
X1954D02*
D03*
X2004D02*
D03*
X2054D02*
D03*
X1666Y680D02*
D03*
X1716D02*
D03*
X1766D02*
D03*
X1816D02*
D03*
X1666Y487D02*
D03*
X1716D02*
D03*
X1766D02*
D03*
X1816D02*
D03*
D30*
X4430Y3296D02*
D03*
Y3376D02*
D03*
M02*
