G04 Layer_Color=16711935*
%FSLAX23Y23*%
%MOIN*%
G70*
G01*
G75*
%ADD34C,0.010*%
%ADD58C,0.006*%
D34*
X-116Y3937D02*
X-15D01*
X-116Y0D02*
X-15D01*
X-106Y2188D02*
Y3937D01*
Y0D02*
Y1717D01*
X-126Y3877D02*
X-106Y3937D01*
X-86Y3877D01*
X-106Y0D02*
X-86Y60D01*
X-126D02*
X-106Y0D01*
X6299Y-101D02*
Y-15D01*
X0Y-101D02*
Y-15D01*
X3370Y-91D02*
X6299D01*
X0D02*
X2898D01*
X6239Y-71D02*
X6299Y-91D01*
X6239Y-111D02*
X6299Y-91D01*
X0D02*
X60Y-111D01*
X0Y-91D02*
X60Y-71D01*
D58*
X-70Y1733D02*
Y1753D01*
Y1743D01*
X-130D01*
X-120Y1733D01*
Y1783D02*
X-130Y1793D01*
Y1813D01*
X-120Y1823D01*
X-80D01*
X-70Y1813D01*
Y1793D01*
X-80Y1783D01*
X-120D01*
Y1843D02*
X-130Y1853D01*
Y1873D01*
X-120Y1883D01*
X-80D01*
X-70Y1873D01*
Y1853D01*
X-80Y1843D01*
X-120D01*
X-70Y1903D02*
X-80D01*
Y1913D01*
X-70D01*
Y1903D01*
X-120Y1953D02*
X-130Y1963D01*
Y1982D01*
X-120Y1992D01*
X-80D01*
X-70Y1982D01*
Y1963D01*
X-80Y1953D01*
X-120D01*
Y2012D02*
X-130Y2022D01*
Y2042D01*
X-120Y2052D01*
X-80D01*
X-70Y2042D01*
Y2022D01*
X-80Y2012D01*
X-120D01*
X-70Y2072D02*
X-110D01*
Y2082D01*
X-100Y2092D01*
X-70D01*
X-100D01*
X-110Y2102D01*
X-100Y2112D01*
X-70D01*
Y2132D02*
X-110D01*
Y2142D01*
X-100Y2152D01*
X-70D01*
X-100D01*
X-110Y2162D01*
X-100Y2172D01*
X-70D01*
X2914Y-127D02*
X2934D01*
X2924D01*
Y-67D01*
X2914Y-77D01*
X3004Y-67D02*
X2984Y-77D01*
X2964Y-97D01*
Y-117D01*
X2974Y-127D01*
X2994D01*
X3004Y-117D01*
Y-107D01*
X2994Y-97D01*
X2964D01*
X3024Y-77D02*
X3034Y-67D01*
X3054D01*
X3064Y-77D01*
Y-117D01*
X3054Y-127D01*
X3034D01*
X3024Y-117D01*
Y-77D01*
X3084Y-127D02*
Y-117D01*
X3094D01*
Y-127D01*
X3084D01*
X3134Y-77D02*
X3144Y-67D01*
X3164D01*
X3174Y-77D01*
Y-117D01*
X3164Y-127D01*
X3144D01*
X3134Y-117D01*
Y-77D01*
X3194D02*
X3204Y-67D01*
X3224D01*
X3234Y-77D01*
Y-117D01*
X3224Y-127D01*
X3204D01*
X3194Y-117D01*
Y-77D01*
X3254Y-127D02*
Y-87D01*
X3264D01*
X3274Y-97D01*
Y-127D01*
Y-97D01*
X3284Y-87D01*
X3294Y-97D01*
Y-127D01*
X3314D02*
Y-87D01*
X3324D01*
X3334Y-97D01*
Y-127D01*
Y-97D01*
X3344Y-87D01*
X3354Y-97D01*
Y-127D01*
M02*
