G04 Layer_Color=2752767*
%FSLAX23Y23*%
%MOIN*%
G70*
G01*
G75*
%ADD34C,0.010*%
%ADD59C,0.002*%
%ADD60C,0.015*%
%ADD61C,0.016*%
D34*
X6602Y812D02*
X6601Y822D01*
X6597Y831D01*
X6590Y838D01*
X6581Y843D01*
X6572Y845D01*
X6562Y845D01*
X6552Y841D01*
X6545Y835D01*
X6539Y827D01*
X6536Y817D01*
Y807D01*
X6539Y798D01*
X6545Y790D01*
X6552Y783D01*
X6562Y780D01*
X6572Y779D01*
X6581Y781D01*
X6590Y786D01*
X6597Y793D01*
X6601Y802D01*
X6602Y812D01*
X6552Y646D02*
X6569Y629D01*
X6536Y646D02*
X6552D01*
X6536D02*
X6552Y662D01*
X6536Y679D02*
X6552Y662D01*
X6536Y679D02*
X6552D01*
X6569Y696D01*
X6586Y679D01*
X6602D01*
X6586Y662D02*
X6602Y679D01*
X6586Y662D02*
X6602Y646D01*
X6586D02*
X6602D01*
X6569Y629D02*
X6586Y646D01*
X6536Y479D02*
X6569Y496D01*
X6602Y479D01*
X6586Y512D02*
X6602Y479D01*
X6586Y512D02*
X6602Y546D01*
X6569Y529D02*
X6602Y546D01*
X6536D02*
X6569Y529D01*
X6536Y546D02*
X6552Y512D01*
X6536Y479D02*
X6552Y512D01*
X6536Y329D02*
X6602D01*
Y396D01*
X6536D02*
X6602D01*
X6536Y329D02*
Y396D01*
X6569Y179D02*
X6602Y246D01*
X6536D02*
X6602D01*
X6536D02*
X6569Y179D01*
X12866Y779D02*
X12846Y799D01*
Y819D01*
X12866Y839D01*
X12896Y779D02*
Y839D01*
X12916Y819D01*
X12936Y839D01*
Y779D01*
X12956D02*
X12976D01*
X12966D01*
Y819D01*
X12956D01*
X13006D02*
X13046Y779D01*
X13026Y799D01*
X13046Y819D01*
X13006Y779D01*
X13096D02*
X13076D01*
X13066Y789D01*
Y809D01*
X13076Y819D01*
X13096D01*
X13106Y809D01*
Y799D01*
X13066D01*
X13166Y839D02*
Y779D01*
X13136D01*
X13126Y789D01*
Y809D01*
X13136Y819D01*
X13166D01*
X13186Y779D02*
X13206Y799D01*
Y819D01*
X13186Y839D01*
X12886Y669D02*
X12856D01*
X12846Y659D01*
Y639D01*
X12856Y629D01*
X12886D01*
X12906Y679D02*
X12916Y689D01*
X12936D01*
X12946Y679D01*
Y669D01*
X12936Y659D01*
X12926D01*
X12936D01*
X12946Y649D01*
Y639D01*
X12936Y629D01*
X12916D01*
X12906Y639D01*
X12966Y679D02*
X12976Y689D01*
X12996D01*
X13006Y679D01*
Y639D01*
X12996Y629D01*
X12976D01*
X12966Y639D01*
Y679D01*
X13026D02*
X13036Y689D01*
X13056D01*
X13066Y679D01*
Y639D01*
X13056Y629D01*
X13036D01*
X13026Y639D01*
Y679D01*
X13086Y689D02*
Y629D01*
Y659D01*
X13096Y669D01*
X13116D01*
X13126Y659D01*
Y629D01*
X13146D02*
Y669D01*
X13176D01*
X13186Y659D01*
Y629D01*
X13206Y679D02*
X13216Y689D01*
X13236D01*
X13246Y679D01*
Y669D01*
X13236Y659D01*
X13226D01*
X13236D01*
X13246Y649D01*
Y639D01*
X13236Y629D01*
X13216D01*
X13206Y639D01*
X13266Y679D02*
X13276Y689D01*
X13296D01*
X13306Y679D01*
Y639D01*
X13296Y629D01*
X13276D01*
X13266Y639D01*
Y679D01*
X13326D02*
X13336Y689D01*
X13356D01*
X13366Y679D01*
Y639D01*
X13356Y629D01*
X13336D01*
X13326Y639D01*
Y679D01*
X12886Y519D02*
X12856D01*
X12846Y509D01*
Y489D01*
X12856Y479D01*
X12886D01*
X12906D02*
X12926D01*
X12916D01*
Y539D01*
X12906Y529D01*
X12996Y479D02*
X12956D01*
X12996Y519D01*
Y529D01*
X12986Y539D01*
X12966D01*
X12956Y529D01*
X13016D02*
X13026Y539D01*
X13046D01*
X13056Y529D01*
Y489D01*
X13046Y479D01*
X13026D01*
X13016Y489D01*
Y529D01*
X13076Y539D02*
Y479D01*
Y509D01*
X13086Y519D01*
X13106D01*
X13116Y509D01*
Y479D01*
X13136Y539D02*
X13176D01*
Y529D01*
X13136Y489D01*
Y479D01*
X13196Y529D02*
X13206Y539D01*
X13226D01*
X13236Y529D01*
Y489D01*
X13226Y479D01*
X13206D01*
X13196Y489D01*
Y529D01*
X12866Y329D02*
X12846Y349D01*
Y369D01*
X12866Y389D01*
X12896Y329D02*
Y389D01*
X12916Y369D01*
X12936Y389D01*
Y329D01*
X12956D02*
X12976D01*
X12966D01*
Y369D01*
X12956D01*
X13006D02*
X13046Y329D01*
X13026Y349D01*
X13046Y369D01*
X13006Y329D01*
X13096D02*
X13076D01*
X13066Y339D01*
Y359D01*
X13076Y369D01*
X13096D01*
X13106Y359D01*
Y349D01*
X13066D01*
X13166Y389D02*
Y329D01*
X13136D01*
X13126Y339D01*
Y359D01*
X13136Y369D01*
X13166D01*
X13186Y329D02*
X13206Y349D01*
Y369D01*
X13186Y389D01*
X12866Y179D02*
X12846Y199D01*
Y219D01*
X12866Y239D01*
X12896Y179D02*
Y239D01*
X12916Y219D01*
X12936Y239D01*
Y179D01*
X12956D02*
X12976D01*
X12966D01*
Y219D01*
X12956D01*
X13006D02*
X13046Y179D01*
X13026Y199D01*
X13046Y219D01*
X13006Y179D01*
X13096D02*
X13076D01*
X13066Y189D01*
Y209D01*
X13076Y219D01*
X13096D01*
X13106Y209D01*
Y199D01*
X13066D01*
X13166Y239D02*
Y179D01*
X13136D01*
X13126Y189D01*
Y209D01*
X13136Y219D01*
X13166D01*
X13186Y179D02*
X13206Y199D01*
Y219D01*
X13186Y239D01*
X12120Y779D02*
X12100Y799D01*
Y819D01*
X12120Y839D01*
X12150Y779D02*
Y839D01*
X12170Y819D01*
X12190Y839D01*
Y779D01*
X12210D02*
X12230D01*
X12220D01*
Y819D01*
X12210D01*
X12260D02*
X12300Y779D01*
X12280Y799D01*
X12300Y819D01*
X12260Y779D01*
X12350D02*
X12330D01*
X12320Y789D01*
Y809D01*
X12330Y819D01*
X12350D01*
X12360Y809D01*
Y799D01*
X12320D01*
X12420Y839D02*
Y779D01*
X12390D01*
X12380Y789D01*
Y809D01*
X12390Y819D01*
X12420D01*
X12440Y779D02*
X12460Y799D01*
Y819D01*
X12440Y839D01*
X12100Y629D02*
Y689D01*
X12130D01*
X12140Y679D01*
Y659D01*
X12130Y649D01*
X12100D01*
X12120D02*
X12140Y629D01*
X12170D02*
X12190D01*
X12200Y639D01*
Y659D01*
X12190Y669D01*
X12170D01*
X12160Y659D01*
Y639D01*
X12170Y629D01*
X12220Y669D02*
Y639D01*
X12230Y629D01*
X12260D01*
Y669D01*
X12280Y629D02*
Y669D01*
X12310D01*
X12320Y659D01*
Y629D01*
X12380Y689D02*
Y629D01*
X12350D01*
X12340Y639D01*
Y659D01*
X12350Y669D01*
X12380D01*
X12430Y629D02*
X12410D01*
X12400Y639D01*
Y659D01*
X12410Y669D01*
X12430D01*
X12440Y659D01*
Y649D01*
X12400D01*
X12500Y689D02*
Y629D01*
X12470D01*
X12460Y639D01*
Y659D01*
X12470Y669D01*
X12500D01*
X12100Y479D02*
Y539D01*
X12130D01*
X12140Y529D01*
Y509D01*
X12130Y499D01*
X12100D01*
X12120D02*
X12140Y479D01*
X12170D02*
X12190D01*
X12200Y489D01*
Y509D01*
X12190Y519D01*
X12170D01*
X12160Y509D01*
Y489D01*
X12170Y479D01*
X12220Y519D02*
Y489D01*
X12230Y479D01*
X12260D01*
Y519D01*
X12280Y479D02*
Y519D01*
X12310D01*
X12320Y509D01*
Y479D01*
X12380Y539D02*
Y479D01*
X12350D01*
X12340Y489D01*
Y509D01*
X12350Y519D01*
X12380D01*
X12430Y479D02*
X12410D01*
X12400Y489D01*
Y509D01*
X12410Y519D01*
X12430D01*
X12440Y509D01*
Y499D01*
X12400D01*
X12500Y539D02*
Y479D01*
X12470D01*
X12460Y489D01*
Y509D01*
X12470Y519D01*
X12500D01*
X12120Y329D02*
X12100Y349D01*
Y369D01*
X12120Y389D01*
X12150Y329D02*
Y389D01*
X12170Y369D01*
X12190Y389D01*
Y329D01*
X12210D02*
X12230D01*
X12220D01*
Y369D01*
X12210D01*
X12260D02*
X12300Y329D01*
X12280Y349D01*
X12300Y369D01*
X12260Y329D01*
X12350D02*
X12330D01*
X12320Y339D01*
Y359D01*
X12330Y369D01*
X12350D01*
X12360Y359D01*
Y349D01*
X12320D01*
X12420Y389D02*
Y329D01*
X12390D01*
X12380Y339D01*
Y359D01*
X12390Y369D01*
X12420D01*
X12440Y329D02*
X12460Y349D01*
Y369D01*
X12440Y389D01*
X12120Y179D02*
X12100Y199D01*
Y219D01*
X12120Y239D01*
X12150Y179D02*
Y239D01*
X12170Y219D01*
X12190Y239D01*
Y179D01*
X12210D02*
X12230D01*
X12220D01*
Y219D01*
X12210D01*
X12260D02*
X12300Y179D01*
X12280Y199D01*
X12300Y219D01*
X12260Y179D01*
X12350D02*
X12330D01*
X12320Y189D01*
Y209D01*
X12330Y219D01*
X12350D01*
X12360Y209D01*
Y199D01*
X12320D01*
X12420Y239D02*
Y179D01*
X12390D01*
X12380Y189D01*
Y209D01*
X12390Y219D01*
X12420D01*
X12440Y179D02*
X12460Y199D01*
Y219D01*
X12440Y239D01*
X11511Y779D02*
Y839D01*
X11541D01*
X11551Y829D01*
Y809D01*
X11541Y799D01*
X11511D01*
X11581Y819D02*
X11601D01*
X11611Y809D01*
Y779D01*
X11581D01*
X11571Y789D01*
X11581Y799D01*
X11611D01*
X11671Y839D02*
Y779D01*
X11641D01*
X11631Y789D01*
Y809D01*
X11641Y819D01*
X11671D01*
X11511Y629D02*
Y689D01*
X11541D01*
X11551Y679D01*
Y659D01*
X11541Y649D01*
X11511D01*
X11581Y669D02*
X11601D01*
X11611Y659D01*
Y629D01*
X11581D01*
X11571Y639D01*
X11581Y649D01*
X11611D01*
X11671Y689D02*
Y629D01*
X11641D01*
X11631Y639D01*
Y659D01*
X11641Y669D01*
X11671D01*
X11511Y479D02*
Y539D01*
X11541D01*
X11551Y529D01*
Y509D01*
X11541Y499D01*
X11511D01*
X11581Y519D02*
X11601D01*
X11611Y509D01*
Y479D01*
X11581D01*
X11571Y489D01*
X11581Y499D01*
X11611D01*
X11671Y539D02*
Y479D01*
X11641D01*
X11631Y489D01*
Y509D01*
X11641Y519D01*
X11671D01*
X11511Y329D02*
Y389D01*
X11541D01*
X11551Y379D01*
Y359D01*
X11541Y349D01*
X11511D01*
X11581Y369D02*
X11601D01*
X11611Y359D01*
Y329D01*
X11581D01*
X11571Y339D01*
X11581Y349D01*
X11611D01*
X11671Y389D02*
Y329D01*
X11641D01*
X11631Y339D01*
Y359D01*
X11641Y369D01*
X11671D01*
X11511Y179D02*
Y239D01*
X11541D01*
X11551Y229D01*
Y209D01*
X11541Y199D01*
X11511D01*
X11581Y219D02*
X11601D01*
X11611Y209D01*
Y179D01*
X11581D01*
X11571Y189D01*
X11581Y199D01*
X11611D01*
X11671Y239D02*
Y179D01*
X11641D01*
X11631Y189D01*
Y209D01*
X11641Y219D01*
X11671D01*
X10011Y839D02*
X10051D01*
X10031D01*
Y779D01*
X10081D02*
X10101D01*
X10111Y789D01*
Y809D01*
X10101Y819D01*
X10081D01*
X10071Y809D01*
Y789D01*
X10081Y779D01*
X10131Y759D02*
Y819D01*
X10161D01*
X10171Y809D01*
Y789D01*
X10161Y779D01*
X10131D01*
X10251Y839D02*
Y779D01*
X10291D01*
X10321Y819D02*
X10341D01*
X10351Y809D01*
Y779D01*
X10321D01*
X10311Y789D01*
X10321Y799D01*
X10351D01*
X10371Y819D02*
Y789D01*
X10381Y779D01*
X10411D01*
Y769D01*
X10401Y759D01*
X10391D01*
X10411Y779D02*
Y819D01*
X10461Y779D02*
X10441D01*
X10431Y789D01*
Y809D01*
X10441Y819D01*
X10461D01*
X10471Y809D01*
Y799D01*
X10431D01*
X10491Y819D02*
Y779D01*
Y799D01*
X10501Y809D01*
X10511Y819D01*
X10521D01*
X10611Y809D02*
X10651D01*
X10731Y839D02*
Y779D01*
X10761D01*
X10771Y789D01*
Y799D01*
X10761Y809D01*
X10731D01*
X10761D01*
X10771Y819D01*
Y829D01*
X10761Y839D01*
X10731D01*
X10801Y779D02*
X10821D01*
X10831Y789D01*
Y809D01*
X10821Y819D01*
X10801D01*
X10791Y809D01*
Y789D01*
X10801Y779D01*
X10861Y829D02*
Y819D01*
X10851D01*
X10871D01*
X10861D01*
Y789D01*
X10871Y779D01*
X10911Y829D02*
Y819D01*
X10901D01*
X10921D01*
X10911D01*
Y789D01*
X10921Y779D01*
X10961D02*
X10981D01*
X10991Y789D01*
Y809D01*
X10981Y819D01*
X10961D01*
X10951Y809D01*
Y789D01*
X10961Y779D01*
X11011D02*
Y819D01*
X11021D01*
X11031Y809D01*
Y779D01*
Y809D01*
X11041Y819D01*
X11051Y809D01*
Y779D01*
X11131Y839D02*
Y779D01*
X11171D01*
X11201Y819D02*
X11221D01*
X11231Y809D01*
Y779D01*
X11201D01*
X11191Y789D01*
X11201Y799D01*
X11231D01*
X11251Y819D02*
Y789D01*
X11261Y779D01*
X11291D01*
Y769D01*
X11281Y759D01*
X11271D01*
X11291Y779D02*
Y819D01*
X11341Y779D02*
X11321D01*
X11311Y789D01*
Y809D01*
X11321Y819D01*
X11341D01*
X11351Y809D01*
Y799D01*
X11311D01*
X11371Y819D02*
Y779D01*
Y799D01*
X11381Y809D01*
X11391Y819D01*
X11401D01*
X10011Y689D02*
X10051D01*
X10031D01*
Y629D01*
X10081D02*
X10101D01*
X10111Y639D01*
Y659D01*
X10101Y669D01*
X10081D01*
X10071Y659D01*
Y639D01*
X10081Y629D01*
X10131Y609D02*
Y669D01*
X10161D01*
X10171Y659D01*
Y639D01*
X10161Y629D01*
X10131D01*
X10251Y689D02*
Y629D01*
X10291D01*
X10321Y669D02*
X10341D01*
X10351Y659D01*
Y629D01*
X10321D01*
X10311Y639D01*
X10321Y649D01*
X10351D01*
X10371Y669D02*
Y639D01*
X10381Y629D01*
X10411D01*
Y619D01*
X10401Y609D01*
X10391D01*
X10411Y629D02*
Y669D01*
X10461Y629D02*
X10441D01*
X10431Y639D01*
Y659D01*
X10441Y669D01*
X10461D01*
X10471Y659D01*
Y649D01*
X10431D01*
X10491Y669D02*
Y629D01*
Y649D01*
X10501Y659D01*
X10511Y669D01*
X10521D01*
X10611Y659D02*
X10651D01*
X10731Y689D02*
Y629D01*
X10761D01*
X10771Y639D01*
Y649D01*
X10761Y659D01*
X10731D01*
X10761D01*
X10771Y669D01*
Y679D01*
X10761Y689D01*
X10731D01*
X10801Y629D02*
X10821D01*
X10831Y639D01*
Y659D01*
X10821Y669D01*
X10801D01*
X10791Y659D01*
Y639D01*
X10801Y629D01*
X10861Y679D02*
Y669D01*
X10851D01*
X10871D01*
X10861D01*
Y639D01*
X10871Y629D01*
X10911Y679D02*
Y669D01*
X10901D01*
X10921D01*
X10911D01*
Y639D01*
X10921Y629D01*
X10961D02*
X10981D01*
X10991Y639D01*
Y659D01*
X10981Y669D01*
X10961D01*
X10951Y659D01*
Y639D01*
X10961Y629D01*
X11011D02*
Y669D01*
X11021D01*
X11031Y659D01*
Y629D01*
Y659D01*
X11041Y669D01*
X11051Y659D01*
Y629D01*
X11131Y689D02*
Y629D01*
X11171D01*
X11201Y669D02*
X11221D01*
X11231Y659D01*
Y629D01*
X11201D01*
X11191Y639D01*
X11201Y649D01*
X11231D01*
X11251Y669D02*
Y639D01*
X11261Y629D01*
X11291D01*
Y619D01*
X11281Y609D01*
X11271D01*
X11291Y629D02*
Y669D01*
X11341Y629D02*
X11321D01*
X11311Y639D01*
Y659D01*
X11321Y669D01*
X11341D01*
X11351Y659D01*
Y649D01*
X11311D01*
X11371Y669D02*
Y629D01*
Y649D01*
X11381Y659D01*
X11391Y669D01*
X11401D01*
X10011Y539D02*
X10051D01*
X10031D01*
Y479D01*
X10081D02*
X10101D01*
X10111Y489D01*
Y509D01*
X10101Y519D01*
X10081D01*
X10071Y509D01*
Y489D01*
X10081Y479D01*
X10131Y459D02*
Y519D01*
X10161D01*
X10171Y509D01*
Y489D01*
X10161Y479D01*
X10131D01*
X10251Y539D02*
Y479D01*
X10291D01*
X10321Y519D02*
X10341D01*
X10351Y509D01*
Y479D01*
X10321D01*
X10311Y489D01*
X10321Y499D01*
X10351D01*
X10371Y519D02*
Y489D01*
X10381Y479D01*
X10411D01*
Y469D01*
X10401Y459D01*
X10391D01*
X10411Y479D02*
Y519D01*
X10461Y479D02*
X10441D01*
X10431Y489D01*
Y509D01*
X10441Y519D01*
X10461D01*
X10471Y509D01*
Y499D01*
X10431D01*
X10491Y519D02*
Y479D01*
Y499D01*
X10501Y509D01*
X10511Y519D01*
X10521D01*
X10611Y509D02*
X10651D01*
X10731Y539D02*
Y479D01*
X10761D01*
X10771Y489D01*
Y499D01*
X10761Y509D01*
X10731D01*
X10761D01*
X10771Y519D01*
Y529D01*
X10761Y539D01*
X10731D01*
X10801Y479D02*
X10821D01*
X10831Y489D01*
Y509D01*
X10821Y519D01*
X10801D01*
X10791Y509D01*
Y489D01*
X10801Y479D01*
X10861Y529D02*
Y519D01*
X10851D01*
X10871D01*
X10861D01*
Y489D01*
X10871Y479D01*
X10911Y529D02*
Y519D01*
X10901D01*
X10921D01*
X10911D01*
Y489D01*
X10921Y479D01*
X10961D02*
X10981D01*
X10991Y489D01*
Y509D01*
X10981Y519D01*
X10961D01*
X10951Y509D01*
Y489D01*
X10961Y479D01*
X11011D02*
Y519D01*
X11021D01*
X11031Y509D01*
Y479D01*
Y509D01*
X11041Y519D01*
X11051Y509D01*
Y479D01*
X11131Y539D02*
Y479D01*
X11171D01*
X11201Y519D02*
X11221D01*
X11231Y509D01*
Y479D01*
X11201D01*
X11191Y489D01*
X11201Y499D01*
X11231D01*
X11251Y519D02*
Y489D01*
X11261Y479D01*
X11291D01*
Y469D01*
X11281Y459D01*
X11271D01*
X11291Y479D02*
Y519D01*
X11341Y479D02*
X11321D01*
X11311Y489D01*
Y509D01*
X11321Y519D01*
X11341D01*
X11351Y509D01*
Y499D01*
X11311D01*
X11371Y519D02*
Y479D01*
Y499D01*
X11381Y509D01*
X11391Y519D01*
X11401D01*
X10011Y389D02*
X10051D01*
X10031D01*
Y329D01*
X10081D02*
X10101D01*
X10111Y339D01*
Y359D01*
X10101Y369D01*
X10081D01*
X10071Y359D01*
Y339D01*
X10081Y329D01*
X10131Y309D02*
Y369D01*
X10161D01*
X10171Y359D01*
Y339D01*
X10161Y329D01*
X10131D01*
X10251Y389D02*
Y329D01*
X10291D01*
X10321Y369D02*
X10341D01*
X10351Y359D01*
Y329D01*
X10321D01*
X10311Y339D01*
X10321Y349D01*
X10351D01*
X10371Y369D02*
Y339D01*
X10381Y329D01*
X10411D01*
Y319D01*
X10401Y309D01*
X10391D01*
X10411Y329D02*
Y369D01*
X10461Y329D02*
X10441D01*
X10431Y339D01*
Y359D01*
X10441Y369D01*
X10461D01*
X10471Y359D01*
Y349D01*
X10431D01*
X10491Y369D02*
Y329D01*
Y349D01*
X10501Y359D01*
X10511Y369D01*
X10521D01*
X10611Y359D02*
X10651D01*
X10731Y389D02*
Y329D01*
X10761D01*
X10771Y339D01*
Y349D01*
X10761Y359D01*
X10731D01*
X10761D01*
X10771Y369D01*
Y379D01*
X10761Y389D01*
X10731D01*
X10801Y329D02*
X10821D01*
X10831Y339D01*
Y359D01*
X10821Y369D01*
X10801D01*
X10791Y359D01*
Y339D01*
X10801Y329D01*
X10861Y379D02*
Y369D01*
X10851D01*
X10871D01*
X10861D01*
Y339D01*
X10871Y329D01*
X10911Y379D02*
Y369D01*
X10901D01*
X10921D01*
X10911D01*
Y339D01*
X10921Y329D01*
X10961D02*
X10981D01*
X10991Y339D01*
Y359D01*
X10981Y369D01*
X10961D01*
X10951Y359D01*
Y339D01*
X10961Y329D01*
X11011D02*
Y369D01*
X11021D01*
X11031Y359D01*
Y329D01*
Y359D01*
X11041Y369D01*
X11051Y359D01*
Y329D01*
X11131Y389D02*
Y329D01*
X11171D01*
X11201Y369D02*
X11221D01*
X11231Y359D01*
Y329D01*
X11201D01*
X11191Y339D01*
X11201Y349D01*
X11231D01*
X11251Y369D02*
Y339D01*
X11261Y329D01*
X11291D01*
Y319D01*
X11281Y309D01*
X11271D01*
X11291Y329D02*
Y369D01*
X11341Y329D02*
X11321D01*
X11311Y339D01*
Y359D01*
X11321Y369D01*
X11341D01*
X11351Y359D01*
Y349D01*
X11311D01*
X11371Y369D02*
Y329D01*
Y349D01*
X11381Y359D01*
X11391Y369D01*
X11401D01*
X10011Y239D02*
X10051D01*
X10031D01*
Y179D01*
X10081D02*
X10101D01*
X10111Y189D01*
Y209D01*
X10101Y219D01*
X10081D01*
X10071Y209D01*
Y189D01*
X10081Y179D01*
X10131Y159D02*
Y219D01*
X10161D01*
X10171Y209D01*
Y189D01*
X10161Y179D01*
X10131D01*
X10251Y239D02*
Y179D01*
X10291D01*
X10321Y219D02*
X10341D01*
X10351Y209D01*
Y179D01*
X10321D01*
X10311Y189D01*
X10321Y199D01*
X10351D01*
X10371Y219D02*
Y189D01*
X10381Y179D01*
X10411D01*
Y169D01*
X10401Y159D01*
X10391D01*
X10411Y179D02*
Y219D01*
X10461Y179D02*
X10441D01*
X10431Y189D01*
Y209D01*
X10441Y219D01*
X10461D01*
X10471Y209D01*
Y199D01*
X10431D01*
X10491Y219D02*
Y179D01*
Y199D01*
X10501Y209D01*
X10511Y219D01*
X10521D01*
X10611Y209D02*
X10651D01*
X10731Y239D02*
Y179D01*
X10761D01*
X10771Y189D01*
Y199D01*
X10761Y209D01*
X10731D01*
X10761D01*
X10771Y219D01*
Y229D01*
X10761Y239D01*
X10731D01*
X10801Y179D02*
X10821D01*
X10831Y189D01*
Y209D01*
X10821Y219D01*
X10801D01*
X10791Y209D01*
Y189D01*
X10801Y179D01*
X10861Y229D02*
Y219D01*
X10851D01*
X10871D01*
X10861D01*
Y189D01*
X10871Y179D01*
X10911Y229D02*
Y219D01*
X10901D01*
X10921D01*
X10911D01*
Y189D01*
X10921Y179D01*
X10961D02*
X10981D01*
X10991Y189D01*
Y209D01*
X10981Y219D01*
X10961D01*
X10951Y209D01*
Y189D01*
X10961Y179D01*
X11011D02*
Y219D01*
X11021D01*
X11031Y209D01*
Y179D01*
Y209D01*
X11041Y219D01*
X11051Y209D01*
Y179D01*
X11131Y239D02*
Y179D01*
X11171D01*
X11201Y219D02*
X11221D01*
X11231Y209D01*
Y179D01*
X11201D01*
X11191Y189D01*
X11201Y199D01*
X11231D01*
X11251Y219D02*
Y189D01*
X11261Y179D01*
X11291D01*
Y169D01*
X11281Y159D01*
X11271D01*
X11291Y179D02*
Y219D01*
X11341Y179D02*
X11321D01*
X11311Y189D01*
Y209D01*
X11321Y219D01*
X11341D01*
X11351Y209D01*
Y199D01*
X11311D01*
X11371Y219D02*
Y179D01*
Y199D01*
X11381Y209D01*
X11391Y219D01*
X11401D01*
X9277Y779D02*
Y839D01*
X9307D01*
X9317Y829D01*
Y809D01*
X9307Y799D01*
X9277D01*
X9297D02*
X9317Y779D01*
X9347D02*
X9367D01*
X9377Y789D01*
Y809D01*
X9367Y819D01*
X9347D01*
X9337Y809D01*
Y789D01*
X9347Y779D01*
X9397Y819D02*
Y789D01*
X9407Y779D01*
X9437D01*
Y819D01*
X9457Y779D02*
Y819D01*
X9487D01*
X9497Y809D01*
Y779D01*
X9557Y839D02*
Y779D01*
X9527D01*
X9517Y789D01*
Y809D01*
X9527Y819D01*
X9557D01*
X9277Y629D02*
Y689D01*
X9307D01*
X9317Y679D01*
Y659D01*
X9307Y649D01*
X9277D01*
X9297D02*
X9317Y629D01*
X9347D02*
X9367D01*
X9377Y639D01*
Y659D01*
X9367Y669D01*
X9347D01*
X9337Y659D01*
Y639D01*
X9347Y629D01*
X9397Y669D02*
Y639D01*
X9407Y629D01*
X9437D01*
Y669D01*
X9457Y629D02*
Y669D01*
X9487D01*
X9497Y659D01*
Y629D01*
X9557Y689D02*
Y629D01*
X9527D01*
X9517Y639D01*
Y659D01*
X9527Y669D01*
X9557D01*
X9277Y479D02*
Y539D01*
X9307D01*
X9317Y529D01*
Y509D01*
X9307Y499D01*
X9277D01*
X9297D02*
X9317Y479D01*
X9347D02*
X9367D01*
X9377Y489D01*
Y509D01*
X9367Y519D01*
X9347D01*
X9337Y509D01*
Y489D01*
X9347Y479D01*
X9397Y519D02*
Y489D01*
X9407Y479D01*
X9437D01*
Y519D01*
X9457Y479D02*
Y519D01*
X9487D01*
X9497Y509D01*
Y479D01*
X9557Y539D02*
Y479D01*
X9527D01*
X9517Y489D01*
Y509D01*
X9527Y519D01*
X9557D01*
X9277Y329D02*
Y389D01*
X9307D01*
X9317Y379D01*
Y359D01*
X9307Y349D01*
X9277D01*
X9297D02*
X9317Y329D01*
X9347D02*
X9367D01*
X9377Y339D01*
Y359D01*
X9367Y369D01*
X9347D01*
X9337Y359D01*
Y339D01*
X9347Y329D01*
X9397Y369D02*
Y339D01*
X9407Y329D01*
X9437D01*
Y369D01*
X9457Y329D02*
Y369D01*
X9487D01*
X9497Y359D01*
Y329D01*
X9557Y389D02*
Y329D01*
X9527D01*
X9517Y339D01*
Y359D01*
X9527Y369D01*
X9557D01*
X9277Y179D02*
Y239D01*
X9307D01*
X9317Y229D01*
Y209D01*
X9307Y199D01*
X9277D01*
X9297D02*
X9317Y179D01*
X9347D02*
X9367D01*
X9377Y189D01*
Y209D01*
X9367Y219D01*
X9347D01*
X9337Y209D01*
Y189D01*
X9347Y179D01*
X9397Y219D02*
Y189D01*
X9407Y179D01*
X9437D01*
Y219D01*
X9457Y179D02*
Y219D01*
X9487D01*
X9497Y209D01*
Y179D01*
X9557Y239D02*
Y179D01*
X9527D01*
X9517Y189D01*
Y209D01*
X9527Y219D01*
X9557D01*
X8771Y779D02*
Y839D01*
X8801D01*
X8811Y829D01*
Y809D01*
X8801Y799D01*
X8771D01*
X8831Y839D02*
X8871D01*
X8851D01*
Y779D01*
X8891Y839D02*
Y779D01*
Y809D01*
X8931D01*
Y839D01*
Y779D01*
X8771Y629D02*
Y689D01*
X8811Y629D01*
Y689D01*
X8831Y629D02*
Y689D01*
X8861D01*
X8871Y679D01*
Y659D01*
X8861Y649D01*
X8831D01*
X8891Y689D02*
X8931D01*
X8911D01*
Y629D01*
X8951Y689D02*
Y629D01*
Y659D01*
X8991D01*
Y689D01*
Y629D01*
X8771Y479D02*
Y539D01*
X8801D01*
X8811Y529D01*
Y509D01*
X8801Y499D01*
X8771D01*
X8831Y539D02*
X8871D01*
X8851D01*
Y479D01*
X8891Y539D02*
Y479D01*
Y509D01*
X8931D01*
Y539D01*
Y479D01*
X8771Y329D02*
Y389D01*
X8801D01*
X8811Y379D01*
Y359D01*
X8801Y349D01*
X8771D01*
X8831Y389D02*
X8871D01*
X8851D01*
Y329D01*
X8891Y389D02*
Y329D01*
Y359D01*
X8931D01*
Y389D01*
Y329D01*
X8771Y179D02*
Y239D01*
X8801D01*
X8811Y229D01*
Y209D01*
X8801Y199D01*
X8771D01*
X8831Y239D02*
X8871D01*
X8851D01*
Y179D01*
X8891Y239D02*
Y179D01*
Y209D01*
X8931D01*
Y239D01*
Y179D01*
X7652Y779D02*
X7672D01*
X7662D01*
Y839D01*
X7652Y829D01*
X7702Y779D02*
Y789D01*
X7712D01*
Y779D01*
X7702D01*
X7792D02*
X7752D01*
X7792Y819D01*
Y829D01*
X7782Y839D01*
X7762D01*
X7752Y829D01*
X7812D02*
X7822Y839D01*
X7842D01*
X7852Y829D01*
Y789D01*
X7842Y779D01*
X7822D01*
X7812Y789D01*
Y829D01*
X7872D02*
X7882Y839D01*
X7902D01*
X7912Y829D01*
Y789D01*
X7902Y779D01*
X7882D01*
X7872Y789D01*
Y829D01*
X7932Y779D02*
Y819D01*
X7942D01*
X7952Y809D01*
Y779D01*
Y809D01*
X7962Y819D01*
X7972Y809D01*
Y779D01*
X7992D02*
Y819D01*
X8002D01*
X8012Y809D01*
Y779D01*
Y809D01*
X8022Y819D01*
X8032Y809D01*
Y779D01*
X8132D02*
X8112Y799D01*
Y819D01*
X8132Y839D01*
X8192Y779D02*
Y839D01*
X8162Y809D01*
X8202D01*
X8222Y839D02*
X8262D01*
Y829D01*
X8222Y789D01*
Y779D01*
X8282D02*
Y789D01*
X8292D01*
Y779D01*
X8282D01*
X8371D02*
X8332D01*
X8371Y819D01*
Y829D01*
X8361Y839D01*
X8342D01*
X8332Y829D01*
X8421Y779D02*
Y839D01*
X8391Y809D01*
X8431D01*
X8451Y779D02*
Y819D01*
X8461D01*
X8471Y809D01*
Y779D01*
Y809D01*
X8481Y819D01*
X8491Y809D01*
Y779D01*
X8511D02*
X8531D01*
X8521D01*
Y819D01*
X8511D01*
X8561Y779D02*
X8581D01*
X8571D01*
Y839D01*
X8561D01*
X8611Y779D02*
X8631Y799D01*
Y819D01*
X8611Y839D01*
X7652Y679D02*
X7662Y689D01*
X7682D01*
X7692Y679D01*
Y669D01*
X7682Y659D01*
X7672D01*
X7682D01*
X7692Y649D01*
Y639D01*
X7682Y629D01*
X7662D01*
X7652Y639D01*
X7712Y629D02*
Y639D01*
X7722D01*
Y629D01*
X7712D01*
X7762Y679D02*
X7772Y689D01*
X7792D01*
X7802Y679D01*
Y639D01*
X7792Y629D01*
X7772D01*
X7762Y639D01*
Y679D01*
X7822D02*
X7832Y689D01*
X7852D01*
X7862Y679D01*
Y639D01*
X7852Y629D01*
X7832D01*
X7822Y639D01*
Y679D01*
X7882D02*
X7892Y689D01*
X7912D01*
X7922Y679D01*
Y639D01*
X7912Y629D01*
X7892D01*
X7882Y639D01*
Y679D01*
X7942Y629D02*
Y669D01*
X7952D01*
X7962Y659D01*
Y629D01*
Y659D01*
X7972Y669D01*
X7982Y659D01*
Y629D01*
X8002D02*
Y669D01*
X8012D01*
X8022Y659D01*
Y629D01*
Y659D01*
X8032Y669D01*
X8042Y659D01*
Y629D01*
X8142D02*
X8122Y649D01*
Y669D01*
X8142Y689D01*
X8172Y629D02*
X8192D01*
X8182D01*
Y689D01*
X8172Y679D01*
X8222Y629D02*
X8242D01*
X8232D01*
Y689D01*
X8222Y679D01*
X8272D02*
X8282Y689D01*
X8302D01*
X8312Y679D01*
Y669D01*
X8302Y659D01*
X8312Y649D01*
Y639D01*
X8302Y629D01*
X8282D01*
X8272Y639D01*
Y649D01*
X8282Y659D01*
X8272Y669D01*
Y679D01*
X8282Y659D02*
X8302D01*
X8332Y629D02*
Y639D01*
X8342D01*
Y629D01*
X8332D01*
X8381D02*
X8401D01*
X8391D01*
Y689D01*
X8381Y679D01*
X8431Y629D02*
X8451D01*
X8441D01*
Y689D01*
X8431Y679D01*
X8481Y629D02*
Y669D01*
X8491D01*
X8501Y659D01*
Y629D01*
Y659D01*
X8511Y669D01*
X8521Y659D01*
Y629D01*
X8541D02*
X8561D01*
X8551D01*
Y669D01*
X8541D01*
X8591Y629D02*
X8611D01*
X8601D01*
Y689D01*
X8591D01*
X8641Y629D02*
X8661Y649D01*
Y669D01*
X8641Y689D01*
X7652Y529D02*
X7662Y539D01*
X7682D01*
X7692Y529D01*
Y489D01*
X7682Y479D01*
X7662D01*
X7652Y489D01*
Y529D01*
X7712Y479D02*
Y489D01*
X7722D01*
Y479D01*
X7712D01*
X7762Y539D02*
X7802D01*
Y529D01*
X7762Y489D01*
Y479D01*
X7822Y529D02*
X7832Y539D01*
X7852D01*
X7862Y529D01*
Y489D01*
X7852Y479D01*
X7832D01*
X7822Y489D01*
Y529D01*
X7882D02*
X7892Y539D01*
X7912D01*
X7922Y529D01*
Y489D01*
X7912Y479D01*
X7892D01*
X7882Y489D01*
Y529D01*
X7942Y479D02*
Y519D01*
X7952D01*
X7962Y509D01*
Y479D01*
Y509D01*
X7972Y519D01*
X7982Y509D01*
Y479D01*
X8002D02*
Y519D01*
X8012D01*
X8022Y509D01*
Y479D01*
Y509D01*
X8032Y519D01*
X8042Y509D01*
Y479D01*
X8142D02*
X8122Y499D01*
Y519D01*
X8142Y539D01*
X8212Y479D02*
X8172D01*
X8212Y519D01*
Y529D01*
X8202Y539D01*
X8182D01*
X8172Y529D01*
X8232Y539D02*
X8272D01*
Y529D01*
X8232Y489D01*
Y479D01*
X8292D02*
Y489D01*
X8302D01*
Y479D01*
X8292D01*
X8381Y539D02*
X8342D01*
Y509D01*
X8361Y519D01*
X8371D01*
X8381Y509D01*
Y489D01*
X8371Y479D01*
X8352D01*
X8342Y489D01*
X8441Y539D02*
X8421Y529D01*
X8401Y509D01*
Y489D01*
X8411Y479D01*
X8431D01*
X8441Y489D01*
Y499D01*
X8431Y509D01*
X8401D01*
X8461Y479D02*
Y519D01*
X8471D01*
X8481Y509D01*
Y479D01*
Y509D01*
X8491Y519D01*
X8501Y509D01*
Y479D01*
X8521D02*
X8541D01*
X8531D01*
Y519D01*
X8521D01*
X8571Y479D02*
X8591D01*
X8581D01*
Y539D01*
X8571D01*
X8621Y479D02*
X8641Y499D01*
Y519D01*
X8621Y539D01*
X7652Y379D02*
X7662Y389D01*
X7682D01*
X7692Y379D01*
Y339D01*
X7682Y329D01*
X7662D01*
X7652Y339D01*
Y379D01*
X7712Y329D02*
Y339D01*
X7722D01*
Y329D01*
X7712D01*
X7762Y339D02*
X7772Y329D01*
X7792D01*
X7802Y339D01*
Y379D01*
X7792Y389D01*
X7772D01*
X7762Y379D01*
Y369D01*
X7772Y359D01*
X7802D01*
X7822Y379D02*
X7832Y389D01*
X7852D01*
X7862Y379D01*
Y339D01*
X7852Y329D01*
X7832D01*
X7822Y339D01*
Y379D01*
X7882D02*
X7892Y389D01*
X7912D01*
X7922Y379D01*
Y339D01*
X7912Y329D01*
X7892D01*
X7882Y339D01*
Y379D01*
X7942Y329D02*
Y369D01*
X7952D01*
X7962Y359D01*
Y329D01*
Y359D01*
X7972Y369D01*
X7982Y359D01*
Y329D01*
X8002D02*
Y369D01*
X8012D01*
X8022Y359D01*
Y329D01*
Y359D01*
X8032Y369D01*
X8042Y359D01*
Y329D01*
X8142D02*
X8122Y349D01*
Y369D01*
X8142Y389D01*
X8172Y379D02*
X8182Y389D01*
X8202D01*
X8212Y379D01*
Y369D01*
X8202Y359D01*
X8192D01*
X8202D01*
X8212Y349D01*
Y339D01*
X8202Y329D01*
X8182D01*
X8172Y339D01*
X8272Y389D02*
X8232D01*
Y359D01*
X8252Y369D01*
X8262D01*
X8272Y359D01*
Y339D01*
X8262Y329D01*
X8242D01*
X8232Y339D01*
X8292Y329D02*
Y339D01*
X8302D01*
Y329D01*
X8292D01*
X8371D02*
Y389D01*
X8342Y359D01*
X8381D01*
X8401Y379D02*
X8411Y389D01*
X8431D01*
X8441Y379D01*
Y369D01*
X8431Y359D01*
X8421D01*
X8431D01*
X8441Y349D01*
Y339D01*
X8431Y329D01*
X8411D01*
X8401Y339D01*
X8461Y329D02*
Y369D01*
X8471D01*
X8481Y359D01*
Y329D01*
Y359D01*
X8491Y369D01*
X8501Y359D01*
Y329D01*
X8521D02*
X8541D01*
X8531D01*
Y369D01*
X8521D01*
X8571Y329D02*
X8591D01*
X8581D01*
Y389D01*
X8571D01*
X8621Y329D02*
X8641Y349D01*
Y369D01*
X8621Y389D01*
X7652Y179D02*
X7672D01*
X7662D01*
Y239D01*
X7652Y229D01*
X7702Y179D02*
Y189D01*
X7712D01*
Y179D01*
X7702D01*
X7752Y229D02*
X7762Y239D01*
X7782D01*
X7792Y229D01*
Y189D01*
X7782Y179D01*
X7762D01*
X7752Y189D01*
Y229D01*
X7812D02*
X7822Y239D01*
X7842D01*
X7852Y229D01*
Y189D01*
X7842Y179D01*
X7822D01*
X7812Y189D01*
Y229D01*
X7872D02*
X7882Y239D01*
X7902D01*
X7912Y229D01*
Y189D01*
X7902Y179D01*
X7882D01*
X7872Y189D01*
Y229D01*
X7932Y179D02*
Y219D01*
X7942D01*
X7952Y209D01*
Y179D01*
Y209D01*
X7962Y219D01*
X7972Y209D01*
Y179D01*
X7992D02*
Y219D01*
X8002D01*
X8012Y209D01*
Y179D01*
Y209D01*
X8022Y219D01*
X8032Y209D01*
Y179D01*
X8132D02*
X8112Y199D01*
Y219D01*
X8132Y239D01*
X8162Y229D02*
X8172Y239D01*
X8192D01*
X8202Y229D01*
Y219D01*
X8192Y209D01*
X8182D01*
X8192D01*
X8202Y199D01*
Y189D01*
X8192Y179D01*
X8172D01*
X8162Y189D01*
X8222D02*
X8232Y179D01*
X8252D01*
X8262Y189D01*
Y229D01*
X8252Y239D01*
X8232D01*
X8222Y229D01*
Y219D01*
X8232Y209D01*
X8262D01*
X8282Y179D02*
Y189D01*
X8292D01*
Y179D01*
X8282D01*
X8332Y229D02*
X8342Y239D01*
X8361D01*
X8371Y229D01*
Y219D01*
X8361Y209D01*
X8352D01*
X8361D01*
X8371Y199D01*
Y189D01*
X8361Y179D01*
X8342D01*
X8332Y189D01*
X8391Y239D02*
X8431D01*
Y229D01*
X8391Y189D01*
Y179D01*
X8451D02*
Y219D01*
X8461D01*
X8471Y209D01*
Y179D01*
Y209D01*
X8481Y219D01*
X8491Y209D01*
Y179D01*
X8511D02*
X8531D01*
X8521D01*
Y219D01*
X8511D01*
X8561Y179D02*
X8581D01*
X8571D01*
Y239D01*
X8561D01*
X8611Y179D02*
X8631Y199D01*
Y219D01*
X8611Y239D01*
X7072Y79D02*
X7082Y89D01*
X7102D01*
X7112Y79D01*
Y69D01*
X7102Y59D01*
X7092D01*
X7102D01*
X7112Y49D01*
Y39D01*
X7102Y29D01*
X7082D01*
X7072Y39D01*
X7132Y29D02*
X7152D01*
X7142D01*
Y89D01*
X7132Y79D01*
X7182Y29D02*
X7202D01*
X7192D01*
Y89D01*
X7182Y79D01*
X7292Y89D02*
X7332D01*
X7312D01*
Y29D01*
X7362D02*
X7382D01*
X7392Y39D01*
Y59D01*
X7382Y69D01*
X7362D01*
X7352Y59D01*
Y39D01*
X7362Y29D01*
X7422Y79D02*
Y69D01*
X7412D01*
X7432D01*
X7422D01*
Y39D01*
X7432Y29D01*
X7472Y69D02*
X7492D01*
X7502Y59D01*
Y29D01*
X7472D01*
X7462Y39D01*
X7472Y49D01*
X7502D01*
X7522Y29D02*
X7542D01*
X7532D01*
Y89D01*
X7522D01*
X7112Y779D02*
X7072D01*
X7112Y819D01*
Y829D01*
X7102Y839D01*
X7082D01*
X7072Y829D01*
X7102Y629D02*
Y689D01*
X7072Y659D01*
X7112D01*
Y539D02*
X7092Y529D01*
X7072Y509D01*
Y489D01*
X7082Y479D01*
X7102D01*
X7112Y489D01*
Y499D01*
X7102Y509D01*
X7072D01*
Y329D02*
X7092D01*
X7082D01*
Y389D01*
X7072Y379D01*
X7122D02*
X7132Y389D01*
X7152D01*
X7162Y379D01*
Y339D01*
X7152Y329D01*
X7132D01*
X7122Y339D01*
Y379D01*
X7222Y329D02*
X7182D01*
X7222Y369D01*
Y379D01*
X7212Y389D01*
X7192D01*
X7182Y379D01*
X7072Y179D02*
X7092D01*
X7082D01*
Y239D01*
X7072Y229D01*
X7122Y189D02*
X7132Y179D01*
X7152D01*
X7162Y189D01*
Y229D01*
X7152Y239D01*
X7132D01*
X7122Y229D01*
Y219D01*
X7132Y209D01*
X7162D01*
X7182Y239D02*
X7222D01*
Y229D01*
X7182Y189D01*
Y179D01*
D59*
X610Y700D02*
X605Y709D01*
X595D01*
X590Y700D01*
X595Y691D01*
X605D01*
X610Y700D01*
Y500D02*
X605Y509D01*
X595D01*
X590Y500D01*
X595Y491D01*
X605D01*
X610Y500D01*
X1317Y881D02*
X1337D01*
Y901D01*
X1317D02*
X1337D01*
X1317Y881D02*
Y901D01*
Y781D02*
X1337D01*
Y801D01*
X1317D02*
X1337D01*
X1317Y781D02*
Y801D01*
X1036Y490D02*
X1046Y510D01*
X1026D02*
X1046D01*
X1026D02*
X1036Y490D01*
X1236D02*
X1246Y510D01*
X1226D02*
X1246D01*
X1226D02*
X1236Y490D01*
X1136Y690D02*
X1146Y710D01*
X1126D02*
X1146D01*
X1126D02*
X1136Y690D01*
X4671Y718D02*
X4691D01*
Y738D01*
X4671D02*
X4691D01*
X4671Y718D02*
Y738D01*
X5871Y718D02*
X5891D01*
Y738D01*
X5871D02*
X5891D01*
X5871Y718D02*
Y738D01*
X5336Y667D02*
X5356D01*
Y687D01*
X5336D02*
X5356D01*
X5336Y667D02*
Y687D01*
X4136Y667D02*
X4156D01*
Y687D01*
X4136D02*
X4156D01*
X4136Y667D02*
Y687D01*
X3122Y1945D02*
X3142D01*
Y1965D01*
X3122D02*
X3142D01*
X3122Y1945D02*
Y1965D01*
Y3045D02*
X3142D01*
Y3065D01*
X3122D02*
X3142D01*
X3122Y3045D02*
Y3065D01*
X1380Y1012D02*
X1400D01*
Y1032D01*
X1380D02*
X1400D01*
X1380Y1012D02*
Y1032D01*
Y2112D02*
X1400D01*
Y2132D01*
X1380D02*
X1400D01*
X1380Y2112D02*
Y2132D01*
X2565Y2230D02*
X2585D01*
Y2250D01*
X2565D02*
X2585D01*
X2565Y2230D02*
Y2250D01*
Y1230D02*
X2585D01*
Y1250D01*
X2565D02*
X2585D01*
X2565Y1230D02*
Y1250D01*
X2679Y3285D02*
X2699D01*
Y3305D01*
X2679D02*
X2699D01*
X2679Y3285D02*
Y3305D01*
X1679Y3285D02*
X1699D01*
Y3305D01*
X1679D02*
X1699D01*
X1679Y3285D02*
Y3305D01*
X2722Y1468D02*
X2742D01*
Y1488D01*
X2722D02*
X2742D01*
X2722Y1468D02*
Y1488D01*
Y2368D02*
X2742D01*
Y2388D01*
X2722D02*
X2742D01*
X2722Y2368D02*
Y2388D01*
X5486Y3642D02*
X5506D01*
Y3662D01*
X5486D02*
X5506D01*
X5486Y3642D02*
Y3662D01*
Y2742D02*
X5506D01*
Y2762D01*
X5486D02*
X5506D01*
X5486Y2742D02*
Y2762D01*
X1491Y1931D02*
X1511D01*
Y1951D01*
X1491D02*
X1511D01*
X1491Y1931D02*
Y1951D01*
X2191Y1931D02*
X2211D01*
Y1951D01*
X2191D02*
X2211D01*
X2191Y1931D02*
Y1951D01*
X1844Y1982D02*
X1864D01*
Y2002D01*
X1844D02*
X1864D01*
X1844Y1982D02*
Y2002D01*
X2444Y1982D02*
X2464D01*
Y2002D01*
X2444D02*
X2464D01*
X2444Y1982D02*
Y2002D01*
X4325Y1959D02*
X4345D01*
Y1979D01*
X4325D02*
X4345D01*
X4325Y1959D02*
Y1979D01*
Y2559D02*
X4345D01*
Y2579D01*
X4325D02*
X4345D01*
X4325Y2559D02*
Y2579D01*
X4915Y2116D02*
X4935D01*
Y2136D01*
X4915D02*
X4935D01*
X4915Y2116D02*
Y2136D01*
Y1616D02*
X4935D01*
Y1636D01*
X4915D02*
X4935D01*
X4915Y1616D02*
Y1636D01*
X4226Y1959D02*
X4246D01*
Y1979D01*
X4226D02*
X4246D01*
X4226Y1959D02*
Y1979D01*
Y2459D02*
X4246D01*
Y2479D01*
X4226D02*
X4246D01*
X4226Y2459D02*
Y2479D01*
X1553Y2490D02*
X1573D01*
Y2510D01*
X1553D02*
X1573D01*
X1553Y2490D02*
Y2510D01*
Y2090D02*
X1573D01*
Y2110D01*
X1553D02*
X1573D01*
X1553Y2090D02*
Y2110D01*
X3821Y1608D02*
X3841D01*
Y1628D01*
X3821D02*
X3841D01*
X3821Y1608D02*
Y1628D01*
Y1208D02*
X3841D01*
Y1228D01*
X3821D02*
X3841D01*
X3821Y1208D02*
Y1228D01*
X1313Y2365D02*
X1333D01*
Y2385D01*
X1313D02*
X1333D01*
X1313Y2365D02*
Y2385D01*
Y2065D02*
X1333D01*
Y2085D01*
X1313D02*
X1333D01*
X1313Y2065D02*
Y2085D01*
X1163Y2536D02*
X1183D01*
Y2556D01*
X1163D02*
X1183D01*
X1163Y2536D02*
Y2556D01*
Y2836D02*
X1183D01*
Y2856D01*
X1163D02*
X1183D01*
X1163Y2836D02*
Y2856D01*
X5999Y616D02*
X6019D01*
Y636D01*
X5999D02*
X6019D01*
X5999Y616D02*
Y636D01*
X5699Y616D02*
X5719D01*
Y636D01*
X5699D02*
X5719D01*
X5699Y616D02*
Y636D01*
X5340Y349D02*
X5360D01*
Y369D01*
X5340D02*
X5360D01*
X5340Y349D02*
Y369D01*
Y49D02*
X5360D01*
Y69D01*
X5340D02*
X5360D01*
X5340Y49D02*
Y69D01*
X3695Y1541D02*
X3715D01*
Y1561D01*
X3695D02*
X3715D01*
X3695Y1541D02*
Y1561D01*
Y1841D02*
X3715D01*
Y1861D01*
X3695D02*
X3715D01*
X3695Y1841D02*
Y1861D01*
X2348Y1159D02*
X2368D01*
Y1179D01*
X2348D02*
X2368D01*
X2348Y1159D02*
Y1179D01*
Y1459D02*
X2368D01*
Y1479D01*
X2348D02*
X2368D01*
X2348Y1459D02*
Y1479D01*
X2365Y726D02*
X2385D01*
Y746D01*
X2365D02*
X2385D01*
X2365Y726D02*
Y746D01*
X2065Y726D02*
X2085D01*
Y746D01*
X2065D02*
X2085D01*
X2065Y726D02*
Y746D01*
X4320Y3336D02*
X4340D01*
Y3356D01*
X4320D02*
X4340D01*
X4320Y3336D02*
Y3356D01*
X3920Y3336D02*
X3940D01*
Y3356D01*
X3920D02*
X3940D01*
X3920Y3336D02*
Y3356D01*
X3821Y3199D02*
X3841D01*
Y3219D01*
X3821D02*
X3841D01*
X3821Y3199D02*
Y3219D01*
Y2799D02*
X3841D01*
Y2819D01*
X3821D02*
X3841D01*
X3821Y2799D02*
Y2819D01*
X1896Y677D02*
X1906Y682D01*
X1916Y677D01*
X1911Y687D02*
X1916Y677D01*
X1911Y687D02*
X1916Y697D01*
X1906Y692D02*
X1916Y697D01*
X1896D02*
X1906Y692D01*
X1896Y697D02*
X1901Y687D01*
X1896Y677D02*
X1901Y687D01*
X1896Y477D02*
X1906Y482D01*
X1916Y477D01*
X1911Y487D02*
X1916Y477D01*
X1911Y487D02*
X1916Y497D01*
X1906Y492D02*
X1916Y497D01*
X1896D02*
X1906Y492D01*
X1896Y497D02*
X1901Y487D01*
X1896Y477D02*
X1901Y487D01*
X5809Y974D02*
X5819Y994D01*
X5799D02*
X5819D01*
X5799D02*
X5809Y974D01*
X5709D02*
X5719Y994D01*
X5699D02*
X5719D01*
X5699D02*
X5709Y974D01*
X5809Y1074D02*
X5819Y1094D01*
X5799D02*
X5819D01*
X5799D02*
X5809Y1074D01*
X5709D02*
X5719Y1094D01*
X5699D02*
X5719D01*
X5699D02*
X5709Y1074D01*
X5809Y1174D02*
X5819Y1194D01*
X5799D02*
X5819D01*
X5799D02*
X5809Y1174D01*
X5709D02*
X5719Y1194D01*
X5699D02*
X5719D01*
X5699D02*
X5709Y1174D01*
X5809Y1274D02*
X5819Y1294D01*
X5799D02*
X5819D01*
X5799D02*
X5809Y1274D01*
X5709D02*
X5719Y1294D01*
X5699D02*
X5719D01*
X5699D02*
X5709Y1274D01*
X5809Y1374D02*
X5819Y1394D01*
X5799D02*
X5819D01*
X5799D02*
X5809Y1374D01*
X5709D02*
X5719Y1394D01*
X5699D02*
X5719D01*
X5699D02*
X5709Y1374D01*
X5809Y1474D02*
X5819Y1494D01*
X5799D02*
X5819D01*
X5799D02*
X5809Y1474D01*
X5709D02*
X5719Y1494D01*
X5699D02*
X5719D01*
X5699D02*
X5709Y1474D01*
X5809Y1574D02*
X5819Y1594D01*
X5799D02*
X5819D01*
X5799D02*
X5809Y1574D01*
X5709D02*
X5719Y1594D01*
X5699D02*
X5719D01*
X5699D02*
X5709Y1574D01*
Y2943D02*
X5719Y2963D01*
X5699D02*
X5719D01*
X5699D02*
X5709Y2943D01*
X5809D02*
X5819Y2963D01*
X5799D02*
X5819D01*
X5799D02*
X5809Y2943D01*
X5709Y2843D02*
X5719Y2863D01*
X5699D02*
X5719D01*
X5699D02*
X5709Y2843D01*
X5809D02*
X5819Y2863D01*
X5799D02*
X5819D01*
X5799D02*
X5809Y2843D01*
X5709Y2743D02*
X5719Y2763D01*
X5699D02*
X5719D01*
X5699D02*
X5709Y2743D01*
X5809D02*
X5819Y2763D01*
X5799D02*
X5819D01*
X5799D02*
X5809Y2743D01*
X5709Y2643D02*
X5719Y2663D01*
X5699D02*
X5719D01*
X5699D02*
X5709Y2643D01*
X5809D02*
X5819Y2663D01*
X5799D02*
X5819D01*
X5799D02*
X5809Y2643D01*
X5709Y2543D02*
X5719Y2563D01*
X5699D02*
X5719D01*
X5699D02*
X5709Y2543D01*
X5809D02*
X5819Y2563D01*
X5799D02*
X5819D01*
X5799D02*
X5809Y2543D01*
X5709Y2443D02*
X5719Y2463D01*
X5699D02*
X5719D01*
X5699D02*
X5709Y2443D01*
X5809D02*
X5819Y2463D01*
X5799D02*
X5819D01*
X5799D02*
X5809Y2443D01*
X5709Y2343D02*
X5719Y2363D01*
X5699D02*
X5719D01*
X5699D02*
X5709Y2343D01*
X5809D02*
X5819Y2363D01*
X5799D02*
X5819D01*
X5799D02*
X5809Y2343D01*
X2178Y2680D02*
X2198D01*
Y2700D01*
X2178D02*
X2198D01*
X2178Y2680D02*
Y2700D01*
X2578Y2680D02*
X2598D01*
Y2700D01*
X2578D02*
X2598D01*
X2578Y2680D02*
Y2700D01*
X2579Y2561D02*
X2599D01*
Y2581D01*
X2579D02*
X2599D01*
X2579Y2561D02*
Y2581D01*
X2179Y2561D02*
X2199D01*
Y2581D01*
X2179D02*
X2199D01*
X2179Y2561D02*
Y2581D01*
X3650Y3258D02*
X3670D01*
Y3278D01*
X3650D02*
X3670D01*
X3650Y3258D02*
Y3278D01*
X3250Y3258D02*
X3270D01*
Y3278D01*
X3250D02*
X3270D01*
X3250Y3258D02*
Y3278D01*
X3654Y3103D02*
X3674D01*
Y3123D01*
X3654D02*
X3674D01*
X3654Y3103D02*
Y3123D01*
X3254Y3103D02*
X3274D01*
Y3123D01*
X3254D02*
X3274D01*
X3254Y3103D02*
Y3123D01*
X3654Y2953D02*
X3674D01*
Y2973D01*
X3654D02*
X3674D01*
X3654Y2953D02*
Y2973D01*
X3254Y2953D02*
X3274D01*
Y2973D01*
X3254D02*
X3274D01*
X3254Y2953D02*
Y2973D01*
X3654Y2803D02*
X3674D01*
Y2823D01*
X3654D02*
X3674D01*
X3654Y2803D02*
Y2823D01*
X3254Y2803D02*
X3274D01*
Y2823D01*
X3254D02*
X3274D01*
X3254Y2803D02*
Y2823D01*
X5327Y3136D02*
X5347D01*
Y3156D01*
X5327D02*
X5347D01*
X5327Y3136D02*
Y3156D01*
X4927Y3136D02*
X4947D01*
Y3156D01*
X4927D02*
X4947D01*
X4927Y3136D02*
Y3156D01*
X5327Y2986D02*
X5347D01*
Y3006D01*
X5327D02*
X5347D01*
X5327Y2986D02*
Y3006D01*
X4927Y2986D02*
X4947D01*
Y3006D01*
X4927D02*
X4947D01*
X4927Y2986D02*
Y3006D01*
X5327Y2836D02*
X5347D01*
Y2856D01*
X5327D02*
X5347D01*
X5327Y2836D02*
Y2856D01*
X4927Y2836D02*
X4947D01*
Y2856D01*
X4927D02*
X4947D01*
X4927Y2836D02*
Y2856D01*
X5327Y2686D02*
X5347D01*
Y2706D01*
X5327D02*
X5347D01*
X5327Y2686D02*
Y2706D01*
X4927Y2686D02*
X4947D01*
Y2706D01*
X4927D02*
X4947D01*
X4927Y2686D02*
Y2706D01*
X3821Y2675D02*
X3841D01*
Y2695D01*
X3821D02*
X3841D01*
X3821Y2675D02*
Y2695D01*
X4221Y2675D02*
X4241D01*
Y2695D01*
X4221D02*
X4241D01*
X4221Y2675D02*
Y2695D01*
X4321Y2675D02*
X4341D01*
Y2695D01*
X4321D02*
X4341D01*
X4321Y2675D02*
Y2695D01*
X4721Y2675D02*
X4741D01*
Y2695D01*
X4721D02*
X4741D01*
X4721Y2675D02*
Y2695D01*
X192Y192D02*
X197Y187D01*
X187Y192D02*
X192D01*
X187D02*
X192Y197D01*
X187Y202D02*
X192Y197D01*
X187Y202D02*
X192D01*
X197Y207D01*
X202Y202D01*
X207D01*
X202Y197D02*
X207Y202D01*
X202Y197D02*
X207Y192D01*
X202D02*
X207D01*
X197Y187D02*
X202Y192D01*
X192Y3735D02*
X197Y3730D01*
X187Y3735D02*
X192D01*
X187D02*
X192Y3740D01*
X187Y3745D02*
X192Y3740D01*
X187Y3745D02*
X192D01*
X197Y3750D01*
X202Y3745D01*
X207D01*
X202Y3740D02*
X207Y3745D01*
X202Y3740D02*
X207Y3735D01*
X202D02*
X207D01*
X197Y3730D02*
X202Y3735D01*
X6097D02*
X6102Y3730D01*
X6092Y3735D02*
X6097D01*
X6092D02*
X6097Y3740D01*
X6092Y3745D02*
X6097Y3740D01*
X6092Y3745D02*
X6097D01*
X6102Y3750D01*
X6107Y3745D01*
X6112D01*
X6107Y3740D02*
X6112Y3745D01*
X6107Y3740D02*
X6112Y3735D01*
X6107D02*
X6112D01*
X6102Y3730D02*
X6107Y3735D01*
X6097Y192D02*
X6102Y187D01*
X6092Y192D02*
X6097D01*
X6092D02*
X6097Y197D01*
X6092Y202D02*
X6097Y197D01*
X6092Y202D02*
X6097D01*
X6102Y207D01*
X6107Y202D01*
X6112D01*
X6107Y197D02*
X6112Y202D01*
X6107Y197D02*
X6112Y192D01*
X6107D02*
X6112D01*
X6102Y187D02*
X6107Y192D01*
X1136Y1082D02*
X1156D01*
Y1102D01*
X1136D02*
X1156D01*
X1136Y1082D02*
Y1102D01*
Y982D02*
X1156D01*
Y1002D01*
X1136D02*
X1156D01*
X1136Y982D02*
Y1002D01*
Y882D02*
X1156D01*
Y902D01*
X1136D02*
X1156D01*
X1136Y882D02*
Y902D01*
X911Y1080D02*
X931D01*
Y1100D01*
X911D02*
X931D01*
X911Y1080D02*
Y1100D01*
Y980D02*
X931D01*
Y1000D01*
X911D02*
X931D01*
X911Y980D02*
Y1000D01*
Y880D02*
X931D01*
Y900D01*
X911D02*
X931D01*
X911Y880D02*
Y900D01*
X1227Y1766D02*
X1237Y1786D01*
X1217D02*
X1237D01*
X1217D02*
X1227Y1766D01*
X1127D02*
X1137Y1786D01*
X1117D02*
X1137D01*
X1117D02*
X1127Y1766D01*
X1027D02*
X1037Y1786D01*
X1017D02*
X1037D01*
X1017D02*
X1027Y1766D01*
X927D02*
X937Y1786D01*
X917D02*
X937D01*
X917D02*
X927Y1766D01*
Y2066D02*
X937Y2086D01*
X917D02*
X937D01*
X917D02*
X927Y2066D01*
X1027D02*
X1037Y2086D01*
X1017D02*
X1037D01*
X1017D02*
X1027Y2066D01*
X1127D02*
X1137Y2086D01*
X1117D02*
X1137D01*
X1117D02*
X1127Y2066D01*
X1227D02*
X1237Y2086D01*
X1217D02*
X1237D01*
X1217D02*
X1227Y2066D01*
X827D02*
X837Y2086D01*
X817D02*
X837D01*
X817D02*
X827Y2066D01*
X727D02*
X737Y2086D01*
X717D02*
X737D01*
X717D02*
X727Y2066D01*
X627D02*
X637Y2086D01*
X617D02*
X637D01*
X617D02*
X627Y2066D01*
X527D02*
X537Y2086D01*
X517D02*
X537D01*
X517D02*
X527Y2066D01*
Y1766D02*
X537Y1786D01*
X517D02*
X537D01*
X517D02*
X527Y1766D01*
X627D02*
X637Y1786D01*
X617D02*
X637D01*
X617D02*
X627Y1766D01*
X727D02*
X737Y1786D01*
X717D02*
X737D01*
X717D02*
X727Y1766D01*
X827D02*
X837Y1786D01*
X817D02*
X837D01*
X817D02*
X827Y1766D01*
X3263Y1067D02*
X3273Y1087D01*
X3253D02*
X3273D01*
X3253D02*
X3263Y1067D01*
X3363D02*
X3373Y1087D01*
X3353D02*
X3373D01*
X3353D02*
X3363Y1067D01*
X3863D02*
X3873Y1087D01*
X3853D02*
X3873D01*
X3853D02*
X3863Y1067D01*
X3763D02*
X3773Y1087D01*
X3753D02*
X3773D01*
X3753D02*
X3763Y1067D01*
X3663D02*
X3673Y1087D01*
X3653D02*
X3673D01*
X3653D02*
X3663Y1067D01*
X3563D02*
X3573Y1087D01*
X3553D02*
X3573D01*
X3553D02*
X3563Y1067D01*
X3463D02*
X3473Y1087D01*
X3453D02*
X3473D01*
X3453D02*
X3463Y1067D01*
X3563Y767D02*
X3573Y787D01*
X3553D02*
X3573D01*
X3553D02*
X3563Y767D01*
X3463D02*
X3473Y787D01*
X3453D02*
X3473D01*
X3453D02*
X3463Y767D01*
X3363D02*
X3373Y787D01*
X3353D02*
X3373D01*
X3353D02*
X3363Y767D01*
X3263D02*
X3273Y787D01*
X3253D02*
X3273D01*
X3253D02*
X3263Y767D01*
X3663D02*
X3673Y787D01*
X3653D02*
X3673D01*
X3653D02*
X3663Y767D01*
X3763D02*
X3773Y787D01*
X3753D02*
X3773D01*
X3753D02*
X3763Y767D01*
X3863D02*
X3873Y787D01*
X3853D02*
X3873D01*
X3853D02*
X3863Y767D01*
X4425Y1113D02*
X4435Y1133D01*
X4415D02*
X4435D01*
X4415D02*
X4425Y1113D01*
X4525D02*
X4535Y1133D01*
X4515D02*
X4535D01*
X4515D02*
X4525Y1113D01*
X5025D02*
X5035Y1133D01*
X5015D02*
X5035D01*
X5015D02*
X5025Y1113D01*
X4925D02*
X4935Y1133D01*
X4915D02*
X4935D01*
X4915D02*
X4925Y1113D01*
X4825D02*
X4835Y1133D01*
X4815D02*
X4835D01*
X4815D02*
X4825Y1113D01*
X4725D02*
X4735Y1133D01*
X4715D02*
X4735D01*
X4715D02*
X4725Y1113D01*
X4625D02*
X4635Y1133D01*
X4615D02*
X4635D01*
X4615D02*
X4625Y1113D01*
X4725Y813D02*
X4735Y833D01*
X4715D02*
X4735D01*
X4715D02*
X4725Y813D01*
X4625D02*
X4635Y833D01*
X4615D02*
X4635D01*
X4615D02*
X4625Y813D01*
X4525D02*
X4535Y833D01*
X4515D02*
X4535D01*
X4515D02*
X4525Y813D01*
X4425D02*
X4435Y833D01*
X4415D02*
X4435D01*
X4415D02*
X4425Y813D01*
X4825D02*
X4835Y833D01*
X4815D02*
X4835D01*
X4815D02*
X4825Y813D01*
X4925D02*
X4935Y833D01*
X4915D02*
X4935D01*
X4915D02*
X4925Y813D01*
X5025D02*
X5035Y833D01*
X5015D02*
X5035D01*
X5015D02*
X5025Y813D01*
X837Y2929D02*
X847Y2949D01*
X827D02*
X847D01*
X827D02*
X837Y2929D01*
X737D02*
X747Y2949D01*
X727D02*
X747D01*
X727D02*
X737Y2929D01*
X637D02*
X647Y2949D01*
X627D02*
X647D01*
X627D02*
X637Y2929D01*
X537D02*
X547Y2949D01*
X527D02*
X547D01*
X527D02*
X537Y2929D01*
Y3229D02*
X547Y3249D01*
X527D02*
X547D01*
X527D02*
X537Y3229D01*
X637D02*
X647Y3249D01*
X627D02*
X647D01*
X627D02*
X637Y3229D01*
X737D02*
X747Y3249D01*
X727D02*
X747D01*
X727D02*
X737Y3229D01*
X837D02*
X847Y3249D01*
X827D02*
X847D01*
X827D02*
X837Y3229D01*
X1237D02*
X1247Y3249D01*
X1227D02*
X1247D01*
X1227D02*
X1237Y3229D01*
X1137D02*
X1147Y3249D01*
X1127D02*
X1147D01*
X1127D02*
X1137Y3229D01*
X1037D02*
X1047Y3249D01*
X1027D02*
X1047D01*
X1027D02*
X1037Y3229D01*
X937D02*
X947Y3249D01*
X927D02*
X947D01*
X927D02*
X937Y3229D01*
Y2929D02*
X947Y2949D01*
X927D02*
X947D01*
X927D02*
X937Y2929D01*
X1037D02*
X1047Y2949D01*
X1027D02*
X1047D01*
X1027D02*
X1037Y2929D01*
X1137D02*
X1147Y2949D01*
X1127D02*
X1147D01*
X1127D02*
X1137Y2929D01*
X1237D02*
X1247Y2949D01*
X1227D02*
X1247D01*
X1227D02*
X1237Y2929D01*
X4235Y1541D02*
X4245Y1561D01*
X4225D02*
X4245D01*
X4225D02*
X4235Y1541D01*
X4135D02*
X4145Y1561D01*
X4125D02*
X4145D01*
X4125D02*
X4135Y1541D01*
X4035D02*
X4045Y1561D01*
X4025D02*
X4045D01*
X4025D02*
X4035Y1541D01*
X3935D02*
X3945Y1561D01*
X3925D02*
X3945D01*
X3925D02*
X3935Y1541D01*
Y1841D02*
X3945Y1861D01*
X3925D02*
X3945D01*
X3925D02*
X3935Y1841D01*
X4035D02*
X4045Y1861D01*
X4025D02*
X4045D01*
X4025D02*
X4035Y1841D01*
X4135D02*
X4145Y1861D01*
X4125D02*
X4145D01*
X4125D02*
X4135Y1841D01*
X4235D02*
X4245Y1861D01*
X4225D02*
X4245D01*
X4225D02*
X4235Y1841D01*
X4635D02*
X4645Y1861D01*
X4625D02*
X4645D01*
X4625D02*
X4635Y1841D01*
X4535D02*
X4545Y1861D01*
X4525D02*
X4545D01*
X4525D02*
X4535Y1841D01*
X4435D02*
X4445Y1861D01*
X4425D02*
X4445D01*
X4425D02*
X4435Y1841D01*
X4335D02*
X4345Y1861D01*
X4325D02*
X4345D01*
X4325D02*
X4335Y1841D01*
Y1541D02*
X4345Y1561D01*
X4325D02*
X4345D01*
X4325D02*
X4335Y1541D01*
X4435D02*
X4445Y1561D01*
X4425D02*
X4445D01*
X4425D02*
X4435Y1541D01*
X4535D02*
X4545Y1561D01*
X4525D02*
X4545D01*
X4525D02*
X4535Y1541D01*
X4635D02*
X4645Y1561D01*
X4625D02*
X4645D01*
X4625D02*
X4635Y1541D01*
X4630Y2836D02*
X4640Y2856D01*
X4620D02*
X4640D01*
X4620D02*
X4630Y2836D01*
X4530D02*
X4540Y2856D01*
X4520D02*
X4540D01*
X4520D02*
X4530Y2836D01*
X4030D02*
X4040Y2856D01*
X4020D02*
X4040D01*
X4020D02*
X4030Y2836D01*
X4130D02*
X4140Y2856D01*
X4120D02*
X4140D01*
X4120D02*
X4130Y2836D01*
X4230D02*
X4240Y2856D01*
X4220D02*
X4240D01*
X4220D02*
X4230Y2836D01*
X4330D02*
X4340Y2856D01*
X4320D02*
X4340D01*
X4320D02*
X4330Y2836D01*
X4430D02*
X4440Y2856D01*
X4420D02*
X4440D01*
X4420D02*
X4430Y2836D01*
X4330Y3136D02*
X4340Y3156D01*
X4320D02*
X4340D01*
X4320D02*
X4330Y3136D01*
X4430D02*
X4440Y3156D01*
X4420D02*
X4440D01*
X4420D02*
X4430Y3136D01*
X4530D02*
X4540Y3156D01*
X4520D02*
X4540D01*
X4520D02*
X4530Y3136D01*
X4630D02*
X4640Y3156D01*
X4620D02*
X4640D01*
X4620D02*
X4630Y3136D01*
X4230D02*
X4240Y3156D01*
X4220D02*
X4240D01*
X4220D02*
X4230Y3136D01*
X4130D02*
X4140Y3156D01*
X4120D02*
X4140D01*
X4120D02*
X4130Y3136D01*
X4030D02*
X4040Y3156D01*
X4020D02*
X4040D01*
X4020D02*
X4030Y3136D01*
X1557Y852D02*
X1577D01*
Y872D01*
X1557D02*
X1577D01*
X1557Y852D02*
Y872D01*
X5006Y1317D02*
X5026D01*
Y1337D01*
X5006D02*
X5026D01*
X5006Y1317D02*
Y1337D01*
X4606Y1317D02*
X4626D01*
Y1337D01*
X4606D02*
X4626D01*
X4606Y1317D02*
Y1337D01*
X3254Y1246D02*
X3274D01*
Y1266D01*
X3254D02*
X3274D01*
X3254Y1246D02*
Y1266D01*
X3654Y1246D02*
X3674D01*
Y1266D01*
X3654D02*
X3674D01*
X3654Y1246D02*
Y1266D01*
X527Y2817D02*
X547D01*
Y2837D01*
X527D02*
X547D01*
X527Y2817D02*
Y2837D01*
X127Y2817D02*
X147D01*
Y2837D01*
X127D02*
X147D01*
X127Y2817D02*
Y2837D01*
X2678Y3380D02*
X2698D01*
Y3400D01*
X2678D02*
X2698D01*
X2678Y3380D02*
Y3400D01*
X2278Y3380D02*
X2298D01*
Y3400D01*
X2278D02*
X2298D01*
X2278Y3380D02*
Y3400D01*
X1656Y270D02*
X1676D01*
Y290D01*
X1656D02*
X1676D01*
X1656Y270D02*
Y290D01*
X2056Y270D02*
X2076D01*
Y290D01*
X2056D02*
X2076D01*
X2056Y270D02*
Y290D01*
X5258Y1473D02*
X5278D01*
Y1493D01*
X5258D02*
X5278D01*
X5258Y1473D02*
Y1493D01*
Y1423D02*
X5278D01*
Y1443D01*
X5258D02*
X5278D01*
X5258Y1423D02*
Y1443D01*
Y1373D02*
X5278D01*
Y1393D01*
X5258D02*
X5278D01*
X5258Y1373D02*
Y1393D01*
X525Y2412D02*
X545D01*
Y2432D01*
X525D02*
X545D01*
X525Y2412D02*
Y2432D01*
Y2612D02*
X545D01*
Y2632D01*
X525D02*
X545D01*
X525Y2612D02*
Y2632D01*
X1978Y3167D02*
X1998D01*
Y3187D01*
X1978D02*
X1998D01*
X1978Y3167D02*
Y3187D01*
Y2767D02*
X1998D01*
Y2787D01*
X1978D02*
X1998D01*
X1978Y2767D02*
Y2787D01*
X3252Y624D02*
X3272D01*
Y644D01*
X3252D02*
X3272D01*
X3252Y624D02*
Y644D01*
Y224D02*
X3272D01*
Y244D01*
X3252D02*
X3272D01*
X3252Y224D02*
Y244D01*
X3552Y624D02*
X3562Y629D01*
X3572Y624D01*
X3567Y634D02*
X3572Y624D01*
X3567Y634D02*
X3572Y644D01*
X3562Y639D02*
X3572Y644D01*
X3552D02*
X3562Y639D01*
X3552Y644D02*
X3557Y634D01*
X3552Y624D02*
X3557Y634D01*
X3352Y624D02*
X3362Y629D01*
X3372Y624D01*
X3367Y634D02*
X3372Y624D01*
X3367Y634D02*
X3372Y644D01*
X3362Y639D02*
X3372Y644D01*
X3352D02*
X3362Y639D01*
X3352Y644D02*
X3357Y634D01*
X3352Y624D02*
X3357Y634D01*
X3754Y224D02*
X3774D01*
Y244D01*
X3754D02*
X3774D01*
X3754Y224D02*
Y244D01*
Y624D02*
X3774D01*
Y644D01*
X3754D02*
X3774D01*
X3754Y624D02*
Y644D01*
X3652Y224D02*
X3662Y229D01*
X3672Y224D01*
X3667Y234D02*
X3672Y224D01*
X3667Y234D02*
X3672Y244D01*
X3662Y239D02*
X3672Y244D01*
X3652D02*
X3662Y239D01*
X3652Y244D02*
X3657Y234D01*
X3652Y224D02*
X3657Y234D01*
X3452Y224D02*
X3462Y229D01*
X3472Y224D01*
X3467Y234D02*
X3472Y224D01*
X3467Y234D02*
X3472Y244D01*
X3462Y239D02*
X3472Y244D01*
X3452D02*
X3462Y239D01*
X3452Y244D02*
X3457Y234D01*
X3452Y224D02*
X3457Y234D01*
X2988Y2880D02*
X2998Y2900D01*
X2978D02*
X2998D01*
X2978D02*
X2988Y2880D01*
X2888D02*
X2898Y2900D01*
X2878D02*
X2898D01*
X2878D02*
X2888Y2880D01*
X2388D02*
X2398Y2900D01*
X2378D02*
X2398D01*
X2378D02*
X2388Y2880D01*
X2488D02*
X2498Y2900D01*
X2478D02*
X2498D01*
X2478D02*
X2488Y2880D01*
X2588D02*
X2598Y2900D01*
X2578D02*
X2598D01*
X2578D02*
X2588Y2880D01*
X2688D02*
X2698Y2900D01*
X2678D02*
X2698D01*
X2678D02*
X2688Y2880D01*
X2788D02*
X2798Y2900D01*
X2778D02*
X2798D01*
X2778D02*
X2788Y2880D01*
X2688Y3180D02*
X2698Y3200D01*
X2678D02*
X2698D01*
X2678D02*
X2688Y3180D01*
X2788D02*
X2798Y3200D01*
X2778D02*
X2798D01*
X2778D02*
X2788Y3180D01*
X2888D02*
X2898Y3200D01*
X2878D02*
X2898D01*
X2878D02*
X2888Y3180D01*
X2988D02*
X2998Y3200D01*
X2978D02*
X2998D01*
X2978D02*
X2988Y3180D01*
X2588D02*
X2598Y3200D01*
X2578D02*
X2598D01*
X2578D02*
X2588Y3180D01*
X2488D02*
X2498Y3200D01*
X2478D02*
X2498D01*
X2478D02*
X2488Y3180D01*
X2388D02*
X2398Y3200D01*
X2378D02*
X2398D01*
X2378D02*
X2388Y3180D01*
X3587Y1541D02*
X3597Y1561D01*
X3577D02*
X3597D01*
X3577D02*
X3587Y1541D01*
X3487D02*
X3497Y1561D01*
X3477D02*
X3497D01*
X3477D02*
X3487Y1541D01*
X2987D02*
X2997Y1561D01*
X2977D02*
X2997D01*
X2977D02*
X2987Y1541D01*
X3087D02*
X3097Y1561D01*
X3077D02*
X3097D01*
X3077D02*
X3087Y1541D01*
X3187D02*
X3197Y1561D01*
X3177D02*
X3197D01*
X3177D02*
X3187Y1541D01*
X3287D02*
X3297Y1561D01*
X3277D02*
X3297D01*
X3277D02*
X3287Y1541D01*
X3387D02*
X3397Y1561D01*
X3377D02*
X3397D01*
X3377D02*
X3387Y1541D01*
X3287Y1841D02*
X3297Y1861D01*
X3277D02*
X3297D01*
X3277D02*
X3287Y1841D01*
X3387D02*
X3397Y1861D01*
X3377D02*
X3397D01*
X3377D02*
X3387Y1841D01*
X3487D02*
X3497Y1861D01*
X3477D02*
X3497D01*
X3477D02*
X3487Y1841D01*
X3587D02*
X3597Y1861D01*
X3577D02*
X3597D01*
X3577D02*
X3587Y1841D01*
X3187D02*
X3197Y1861D01*
X3177D02*
X3197D01*
X3177D02*
X3187Y1841D01*
X3087D02*
X3097Y1861D01*
X3077D02*
X3097D01*
X3077D02*
X3087Y1841D01*
X2987D02*
X2997Y1861D01*
X2977D02*
X2997D01*
X2977D02*
X2987Y1841D01*
X4530Y599D02*
X4540Y619D01*
X4520D02*
X4540D01*
X4520D02*
X4530Y599D01*
X4630D02*
X4640Y619D01*
X4620D02*
X4640D01*
X4620D02*
X4630Y599D01*
X4730D02*
X4740Y619D01*
X4720D02*
X4740D01*
X4720D02*
X4730Y599D01*
X4830D02*
X4840Y619D01*
X4820D02*
X4840D01*
X4820D02*
X4830Y599D01*
Y299D02*
X4840Y319D01*
X4820D02*
X4840D01*
X4820D02*
X4830Y299D01*
X4730D02*
X4740Y319D01*
X4720D02*
X4740D01*
X4720D02*
X4730Y299D01*
X4630D02*
X4640Y319D01*
X4620D02*
X4640D01*
X4620D02*
X4630Y299D01*
X4530D02*
X4540Y319D01*
X4520D02*
X4540D01*
X4520D02*
X4530Y299D01*
X4930D02*
X4940Y319D01*
X4920D02*
X4940D01*
X4920D02*
X4930Y299D01*
X5030D02*
X5040Y319D01*
X5020D02*
X5040D01*
X5020D02*
X5030Y299D01*
X5130D02*
X5140Y319D01*
X5120D02*
X5140D01*
X5120D02*
X5130Y299D01*
X5230D02*
X5240Y319D01*
X5220D02*
X5240D01*
X5220D02*
X5230Y299D01*
Y599D02*
X5240Y619D01*
X5220D02*
X5240D01*
X5220D02*
X5230Y599D01*
X5130D02*
X5140Y619D01*
X5120D02*
X5140D01*
X5120D02*
X5130Y599D01*
X5030D02*
X5040Y619D01*
X5020D02*
X5040D01*
X5020D02*
X5030Y599D01*
X4930D02*
X4940Y619D01*
X4920D02*
X4940D01*
X4920D02*
X4930Y599D01*
X2473Y824D02*
X2483Y844D01*
X2463D02*
X2483D01*
X2463D02*
X2473Y824D01*
Y924D02*
X2483Y944D01*
X2463D02*
X2483D01*
X2463D02*
X2473Y924D01*
Y1024D02*
X2483Y1044D01*
X2463D02*
X2483D01*
X2463D02*
X2473Y1024D01*
Y1124D02*
X2483Y1144D01*
X2463D02*
X2483D01*
X2463D02*
X2473Y1124D01*
X2773D02*
X2783Y1144D01*
X2763D02*
X2783D01*
X2763D02*
X2773Y1124D01*
Y1024D02*
X2783Y1044D01*
X2763D02*
X2783D01*
X2763D02*
X2773Y1024D01*
Y924D02*
X2783Y944D01*
X2763D02*
X2783D01*
X2763D02*
X2773Y924D01*
Y824D02*
X2783Y844D01*
X2763D02*
X2783D01*
X2763D02*
X2773Y824D01*
Y424D02*
X2783Y444D01*
X2763D02*
X2783D01*
X2763D02*
X2773Y424D01*
Y524D02*
X2783Y544D01*
X2763D02*
X2783D01*
X2763D02*
X2773Y524D01*
Y624D02*
X2783Y644D01*
X2763D02*
X2783D01*
X2763D02*
X2773Y624D01*
Y724D02*
X2783Y744D01*
X2763D02*
X2783D01*
X2763D02*
X2773Y724D01*
X2473D02*
X2483Y744D01*
X2463D02*
X2483D01*
X2463D02*
X2473Y724D01*
Y624D02*
X2483Y644D01*
X2463D02*
X2483D01*
X2463D02*
X2473Y624D01*
Y524D02*
X2483Y544D01*
X2463D02*
X2483D01*
X2463D02*
X2473Y524D01*
Y424D02*
X2483Y444D01*
X2463D02*
X2483D01*
X2463D02*
X2473Y424D01*
X2399Y1544D02*
X2409Y1564D01*
X2389D02*
X2409D01*
X2389D02*
X2399Y1544D01*
X2299D02*
X2309Y1564D01*
X2289D02*
X2309D01*
X2289D02*
X2299Y1544D01*
X2199D02*
X2209Y1564D01*
X2189D02*
X2209D01*
X2189D02*
X2199Y1544D01*
X2099D02*
X2109Y1564D01*
X2089D02*
X2109D01*
X2089D02*
X2099Y1544D01*
Y1844D02*
X2109Y1864D01*
X2089D02*
X2109D01*
X2089D02*
X2099Y1844D01*
X2199D02*
X2209Y1864D01*
X2189D02*
X2209D01*
X2189D02*
X2199Y1844D01*
X2299D02*
X2309Y1864D01*
X2289D02*
X2309D01*
X2289D02*
X2299Y1844D01*
X2399D02*
X2409Y1864D01*
X2389D02*
X2409D01*
X2389D02*
X2399Y1844D01*
X1999D02*
X2009Y1864D01*
X1989D02*
X2009D01*
X1989D02*
X1999Y1844D01*
X1899D02*
X1909Y1864D01*
X1889D02*
X1909D01*
X1889D02*
X1899Y1844D01*
X1799D02*
X1809Y1864D01*
X1789D02*
X1809D01*
X1789D02*
X1799Y1844D01*
X1699D02*
X1709Y1864D01*
X1689D02*
X1709D01*
X1689D02*
X1699Y1844D01*
Y1544D02*
X1709Y1564D01*
X1689D02*
X1709D01*
X1689D02*
X1699Y1544D01*
X1799D02*
X1809Y1564D01*
X1789D02*
X1809D01*
X1789D02*
X1799Y1544D01*
X1899D02*
X1909Y1564D01*
X1889D02*
X1909D01*
X1889D02*
X1899Y1544D01*
X1999D02*
X2009Y1564D01*
X1989D02*
X2009D01*
X1989D02*
X1999Y1544D01*
D60*
X6476Y884D02*
X17017D01*
X6476Y134D02*
X17017D01*
X6476Y-16D02*
X17017D01*
Y1034D01*
X6476D02*
X17017D01*
X6476Y-16D02*
Y1034D01*
X15638Y-16D02*
Y1034D01*
X14305Y-16D02*
Y1034D01*
X13451Y-16D02*
Y1034D01*
X12801Y-16D02*
Y1034D01*
X12055Y-16D02*
Y1034D01*
X11466Y-16D02*
Y1034D01*
X9966Y-16D02*
Y1034D01*
X9232Y-16D02*
Y1034D01*
X8726Y-16D02*
Y1034D01*
X7607Y-16D02*
Y1034D01*
X7027Y-16D02*
Y1034D01*
D61*
X15683Y1001D02*
Y929D01*
Y965D01*
X15731D01*
Y1001D01*
Y929D01*
X15767D02*
X15791D01*
X15803Y941D01*
Y965D01*
X15791Y977D01*
X15767D01*
X15755Y965D01*
Y941D01*
X15767Y929D01*
X15827D02*
X15851D01*
X15839D01*
Y1001D01*
X15827D01*
X15923Y929D02*
X15899D01*
X15887Y941D01*
Y965D01*
X15899Y977D01*
X15923D01*
X15935Y965D01*
Y953D01*
X15887D01*
X16031Y1001D02*
X16079D01*
X16055D01*
Y929D01*
X16115D02*
X16139D01*
X16151Y941D01*
Y965D01*
X16139Y977D01*
X16115D01*
X16103Y965D01*
Y941D01*
X16115Y929D01*
X16175D02*
X16199D01*
X16187D01*
Y1001D01*
X16175D01*
X16271Y929D02*
X16247D01*
X16235Y941D01*
Y965D01*
X16247Y977D01*
X16271D01*
X16283Y965D01*
Y953D01*
X16235D01*
X16307Y977D02*
Y929D01*
Y953D01*
X16319Y965D01*
X16331Y977D01*
X16343D01*
X16391D02*
X16415D01*
X16427Y965D01*
Y929D01*
X16391D01*
X16379Y941D01*
X16391Y953D01*
X16427D01*
X16451Y929D02*
Y977D01*
X16487D01*
X16499Y965D01*
Y929D01*
X16571Y977D02*
X16535D01*
X16523Y965D01*
Y941D01*
X16535Y929D01*
X16571D01*
X16631D02*
X16607D01*
X16595Y941D01*
Y965D01*
X16607Y977D01*
X16631D01*
X16643Y965D01*
Y953D01*
X16595D01*
X16763Y929D02*
X16739Y953D01*
Y977D01*
X16763Y1001D01*
X16799Y965D02*
X16847D01*
X16871Y929D02*
X16895Y953D01*
Y977D01*
X16871Y1001D01*
X14350D02*
Y929D01*
Y965D01*
X14398D01*
Y1001D01*
Y929D01*
X14434D02*
X14458D01*
X14470Y941D01*
Y965D01*
X14458Y977D01*
X14434D01*
X14422Y965D01*
Y941D01*
X14434Y929D01*
X14494D02*
X14518D01*
X14506D01*
Y1001D01*
X14494D01*
X14590Y929D02*
X14566D01*
X14554Y941D01*
Y965D01*
X14566Y977D01*
X14590D01*
X14602Y965D01*
Y953D01*
X14554D01*
X14698Y1001D02*
X14746D01*
X14722D01*
Y929D01*
X14782D02*
X14806D01*
X14818Y941D01*
Y965D01*
X14806Y977D01*
X14782D01*
X14770Y965D01*
Y941D01*
X14782Y929D01*
X14842D02*
X14866D01*
X14854D01*
Y1001D01*
X14842D01*
X14938Y929D02*
X14914D01*
X14902Y941D01*
Y965D01*
X14914Y977D01*
X14938D01*
X14950Y965D01*
Y953D01*
X14902D01*
X14974Y977D02*
Y929D01*
Y953D01*
X14986Y965D01*
X14998Y977D01*
X15010D01*
X15058D02*
X15082D01*
X15094Y965D01*
Y929D01*
X15058D01*
X15046Y941D01*
X15058Y953D01*
X15094D01*
X15118Y929D02*
Y977D01*
X15154D01*
X15166Y965D01*
Y929D01*
X15238Y977D02*
X15202D01*
X15190Y965D01*
Y941D01*
X15202Y929D01*
X15238D01*
X15298D02*
X15274D01*
X15262Y941D01*
Y965D01*
X15274Y977D01*
X15298D01*
X15310Y965D01*
Y953D01*
X15262D01*
X15430Y929D02*
X15406Y953D01*
Y977D01*
X15430Y1001D01*
X15466Y965D02*
X15513D01*
X15489Y989D02*
Y941D01*
X15537Y929D02*
X15561Y953D01*
Y977D01*
X15537Y1001D01*
X13496D02*
Y929D01*
X13532D01*
X13544Y941D01*
Y989D01*
X13532Y1001D01*
X13496D01*
X13604Y929D02*
X13580D01*
X13568Y941D01*
Y965D01*
X13580Y977D01*
X13604D01*
X13616Y965D01*
Y953D01*
X13568D01*
X13640Y929D02*
X13676D01*
X13688Y941D01*
X13676Y953D01*
X13652D01*
X13640Y965D01*
X13652Y977D01*
X13688D01*
X13760D02*
X13724D01*
X13712Y965D01*
Y941D01*
X13724Y929D01*
X13760D01*
X13784Y977D02*
Y929D01*
Y953D01*
X13796Y965D01*
X13808Y977D01*
X13820D01*
X13856Y929D02*
X13880D01*
X13868D01*
Y977D01*
X13856D01*
X13916Y905D02*
Y977D01*
X13952D01*
X13964Y965D01*
Y941D01*
X13952Y929D01*
X13916D01*
X14000Y989D02*
Y977D01*
X13988D01*
X14012D01*
X14000D01*
Y941D01*
X14012Y929D01*
X14048D02*
X14072D01*
X14060D01*
Y977D01*
X14048D01*
X14120Y929D02*
X14144D01*
X14156Y941D01*
Y965D01*
X14144Y977D01*
X14120D01*
X14108Y965D01*
Y941D01*
X14120Y929D01*
X14180D02*
Y977D01*
X14216D01*
X14228Y965D01*
Y929D01*
X12846Y1001D02*
X12894D01*
X12870D01*
Y929D01*
X12954D02*
X12930D01*
X12918Y941D01*
Y965D01*
X12930Y977D01*
X12954D01*
X12966Y965D01*
Y953D01*
X12918D01*
X12990Y929D02*
Y977D01*
X13002D01*
X13014Y965D01*
Y929D01*
Y965D01*
X13026Y977D01*
X13038Y965D01*
Y929D01*
X13062Y905D02*
Y977D01*
X13098D01*
X13110Y965D01*
Y941D01*
X13098Y929D01*
X13062D01*
X13134D02*
X13158D01*
X13146D01*
Y1001D01*
X13134D01*
X13206Y977D02*
X13230D01*
X13242Y965D01*
Y929D01*
X13206D01*
X13194Y941D01*
X13206Y953D01*
X13242D01*
X13278Y989D02*
Y977D01*
X13266D01*
X13290D01*
X13278D01*
Y941D01*
X13290Y929D01*
X13362D02*
X13338D01*
X13326Y941D01*
Y965D01*
X13338Y977D01*
X13362D01*
X13374Y965D01*
Y953D01*
X13326D01*
X12100Y929D02*
Y1001D01*
X12136D01*
X12148Y989D01*
Y965D01*
X12136Y953D01*
X12100D01*
X12184Y977D02*
X12208D01*
X12220Y965D01*
Y929D01*
X12184D01*
X12172Y941D01*
X12184Y953D01*
X12220D01*
X12292Y1001D02*
Y929D01*
X12256D01*
X12244Y941D01*
Y965D01*
X12256Y977D01*
X12292D01*
X12436Y989D02*
X12424Y1001D01*
X12400D01*
X12388Y989D01*
Y977D01*
X12400Y965D01*
X12424D01*
X12436Y953D01*
Y941D01*
X12424Y929D01*
X12400D01*
X12388Y941D01*
X12460Y1001D02*
Y929D01*
Y965D01*
X12472Y977D01*
X12496D01*
X12508Y965D01*
Y929D01*
X12544Y977D02*
X12568D01*
X12580Y965D01*
Y929D01*
X12544D01*
X12532Y941D01*
X12544Y953D01*
X12580D01*
X12604Y905D02*
Y977D01*
X12640D01*
X12652Y965D01*
Y941D01*
X12640Y929D01*
X12604D01*
X12712D02*
X12688D01*
X12676Y941D01*
Y965D01*
X12688Y977D01*
X12712D01*
X12724Y965D01*
Y953D01*
X12676D01*
X11511Y1001D02*
Y953D01*
X11535Y929D01*
X11559Y953D01*
Y1001D01*
X11583Y929D02*
X11607D01*
X11595D01*
Y977D01*
X11583D01*
X11655D02*
X11679D01*
X11691Y965D01*
Y929D01*
X11655D01*
X11643Y941D01*
X11655Y953D01*
X11691D01*
X11715Y929D02*
X11763Y977D01*
X11787Y929D02*
Y1001D01*
X11823D01*
X11835Y989D01*
Y965D01*
X11823Y953D01*
X11787D01*
X11871Y977D02*
X11895D01*
X11907Y965D01*
Y929D01*
X11871D01*
X11859Y941D01*
X11871Y953D01*
X11907D01*
X11978Y1001D02*
Y929D01*
X11942D01*
X11930Y941D01*
Y965D01*
X11942Y977D01*
X11978D01*
X10011Y1001D02*
Y929D01*
X10047D01*
X10059Y941D01*
Y989D01*
X10047Y1001D01*
X10011D01*
X10083Y977D02*
Y929D01*
Y953D01*
X10095Y965D01*
X10107Y977D01*
X10119D01*
X10155Y929D02*
X10179D01*
X10167D01*
Y977D01*
X10155D01*
X10215Y929D02*
X10239D01*
X10227D01*
Y1001D01*
X10215D01*
X10275Y929D02*
X10299D01*
X10287D01*
Y1001D01*
X10275D01*
X10407D02*
Y929D01*
X10455D01*
X10491Y977D02*
X10515D01*
X10527Y965D01*
Y929D01*
X10491D01*
X10479Y941D01*
X10491Y953D01*
X10527D01*
X10551Y977D02*
Y941D01*
X10563Y929D01*
X10599D01*
Y917D01*
X10587Y905D01*
X10575D01*
X10599Y929D02*
Y977D01*
X10659Y929D02*
X10635D01*
X10623Y941D01*
Y965D01*
X10635Y977D01*
X10659D01*
X10671Y965D01*
Y953D01*
X10623D01*
X10695Y977D02*
Y929D01*
Y953D01*
X10707Y965D01*
X10719Y977D01*
X10731D01*
X10839Y929D02*
Y1001D01*
X10875D01*
X10887Y989D01*
Y965D01*
X10875Y953D01*
X10839D01*
X10923Y977D02*
X10947D01*
X10959Y965D01*
Y929D01*
X10923D01*
X10911Y941D01*
X10923Y953D01*
X10959D01*
X10983Y929D02*
X11007D01*
X10995D01*
Y977D01*
X10983D01*
X11043D02*
Y929D01*
Y953D01*
X11055Y965D01*
X11067Y977D01*
X11079D01*
X9277Y1001D02*
Y929D01*
Y965D01*
X9325D01*
Y1001D01*
Y929D01*
X9361D02*
X9385D01*
X9397Y941D01*
Y965D01*
X9385Y977D01*
X9361D01*
X9349Y965D01*
Y941D01*
X9361Y929D01*
X9421D02*
X9445D01*
X9433D01*
Y1001D01*
X9421D01*
X9517Y929D02*
X9493D01*
X9481Y941D01*
Y965D01*
X9493Y977D01*
X9517D01*
X9529Y965D01*
Y953D01*
X9481D01*
X9625Y1001D02*
X9673D01*
X9649D01*
Y929D01*
X9697Y977D02*
Y941D01*
X9709Y929D01*
X9745D01*
Y917D01*
X9733Y905D01*
X9721D01*
X9745Y929D02*
Y977D01*
X9769Y905D02*
Y977D01*
X9805D01*
X9817Y965D01*
Y941D01*
X9805Y929D01*
X9769D01*
X9877D02*
X9853D01*
X9841Y941D01*
Y965D01*
X9853Y977D01*
X9877D01*
X9889Y965D01*
Y953D01*
X9841D01*
X8771Y929D02*
Y1001D01*
X8807D01*
X8819Y989D01*
Y965D01*
X8807Y953D01*
X8771D01*
X8843Y929D02*
X8867D01*
X8855D01*
Y1001D01*
X8843D01*
X8915Y977D02*
X8939D01*
X8951Y965D01*
Y929D01*
X8915D01*
X8903Y941D01*
X8915Y953D01*
X8951D01*
X8987Y989D02*
Y977D01*
X8975D01*
X8999D01*
X8987D01*
Y941D01*
X8999Y929D01*
X9071D02*
X9047D01*
X9035Y941D01*
Y965D01*
X9047Y977D01*
X9071D01*
X9083Y965D01*
Y953D01*
X9035D01*
X9155Y1001D02*
Y929D01*
X9119D01*
X9107Y941D01*
Y965D01*
X9119Y977D01*
X9155D01*
X7652Y1001D02*
Y929D01*
Y965D01*
X7700D01*
Y1001D01*
Y929D01*
X7736D02*
X7760D01*
X7772Y941D01*
Y965D01*
X7760Y977D01*
X7736D01*
X7724Y965D01*
Y941D01*
X7736Y929D01*
X7796D02*
X7820D01*
X7808D01*
Y1001D01*
X7796D01*
X7892Y929D02*
X7868D01*
X7856Y941D01*
Y965D01*
X7868Y977D01*
X7892D01*
X7904Y965D01*
Y953D01*
X7856D01*
X8048Y989D02*
X8036Y1001D01*
X8012D01*
X8000Y989D01*
Y977D01*
X8012Y965D01*
X8036D01*
X8048Y953D01*
Y941D01*
X8036Y929D01*
X8012D01*
X8000Y941D01*
X8072Y929D02*
X8096D01*
X8084D01*
Y977D01*
X8072D01*
X8132D02*
X8180D01*
X8132Y929D01*
X8180D01*
X8240D02*
X8216D01*
X8204Y941D01*
Y965D01*
X8216Y977D01*
X8240D01*
X8252Y965D01*
Y953D01*
X8204D01*
X7120Y989D02*
X7108Y1001D01*
X7084D01*
X7072Y989D01*
Y941D01*
X7084Y929D01*
X7108D01*
X7120Y941D01*
X7156Y929D02*
X7180D01*
X7192Y941D01*
Y965D01*
X7180Y977D01*
X7156D01*
X7144Y965D01*
Y941D01*
X7156Y929D01*
X7216Y977D02*
Y941D01*
X7228Y929D01*
X7264D01*
Y977D01*
X7288Y929D02*
Y977D01*
X7324D01*
X7336Y965D01*
Y929D01*
X7372Y989D02*
Y977D01*
X7360D01*
X7384D01*
X7372D01*
Y941D01*
X7384Y929D01*
X6614Y989D02*
X6602Y1001D01*
X6578D01*
X6566Y989D01*
Y977D01*
X6578Y965D01*
X6602D01*
X6614Y953D01*
Y941D01*
X6602Y929D01*
X6578D01*
X6566Y941D01*
X6638Y977D02*
Y941D01*
X6650Y929D01*
X6686D01*
Y917D01*
X6674Y905D01*
X6662D01*
X6686Y929D02*
Y977D01*
X6710Y929D02*
Y977D01*
X6722D01*
X6734Y965D01*
Y929D01*
Y965D01*
X6746Y977D01*
X6758Y965D01*
Y929D01*
X6782Y1001D02*
Y929D01*
X6818D01*
X6830Y941D01*
Y953D01*
Y965D01*
X6818Y977D01*
X6782D01*
X6866Y929D02*
X6890D01*
X6902Y941D01*
Y965D01*
X6890Y977D01*
X6866D01*
X6854Y965D01*
Y941D01*
X6866Y929D01*
X6926D02*
X6950D01*
X6938D01*
Y1001D01*
X6926D01*
M02*
