M48
;Layer_Color=9474304
;FILE_FORMAT=2:3
INCH,LZ
;TYPE=PLATED
T1F00S00C0.020
T2F00S00C0.024
T3F00S00C0.031
T4F00S00C0.039
T5F00S00C0.047
%
T01
X005Y-0461
X0376Y-0418
X0404Y-0379
X0439Y-035
X0469
X0439Y-0461
X0627Y-0199
X0411Y-0185
Y-03
X0401Y-0299
X0421Y-0305
X0461Y-03
X0381Y-0253
X0353
X0322Y-0305
X0251Y-0299
X0367Y-0182
X0199Y-0318
X0089Y-0308
X0004
X0049Y-0199
X043Y-0085
T02
X0322Y-03585
Y-0351
Y-03435
X0645Y-04325
Y-044
Y-04475
X045Y-01655
X0264Y-02455
Y-0253
Y-02605
X045Y-0158
Y-01505
X02395Y-0001
X0232
X02245
T03
X0021Y-0071
X0Y-001
X0291
X0312Y-0071
X0322
X0332
X0342
X0352
X0463Y0
X0291
X0172
X0
T04
X-0006Y-0352
Y-0342
X00178Y-03282
X00378
Y-03682
X00178
X0064Y-0353
Y-0343
X0089Y-0329
X0109
X01298Y-03292
Y-03692
X0109Y-0369
X0089
X0156Y-0354
Y-0344
X0212Y-0331
Y-0371
X0232
X0251Y-0363
Y-0343
X02688Y-03312
X0232Y-0331
X0294Y-0346
Y-0356
X02688Y-03712
X02622Y-04108
Y-04508
X0288Y-0438
Y-0428
X03133Y-04105
X0333Y-0411
Y-0451
X03133Y-04505
X0361Y-0436
Y-0426
X0366Y-0371
X0345
Y-0331
X0366
X0389Y-0336
X0399
X0409
X0419
X0429
X0439
X0449
Y-0366
X0439
X0429
X0419
X0409
X0399
X0389
X0486
X0509
X0529Y-0355
Y-0335
X0509Y-0326
X0486
X04903Y-0425
X0508
Y-04506
X04903
X04692Y-04578
Y-04178
X05618Y-04182
X0586Y-0425
X06037
Y-04506
X0586
X05618Y-04582
X05698Y-03662
X0548Y-0366
Y-0326
X05698Y-03262
X0603Y-0343
Y-0353
X0644Y-0362
X0654
X0664
X0674
Y-0332
X0664
X0654
X0644
X067Y-044
X068
X0705Y-0457
Y-0417
X0701Y-0358
Y-0338
X0703Y-0226
Y-0196
X0693
X0683
X0673
X0663
X0653
X0643
Y-0226
X0653
X0663
X0673
X0683
X0693
X0592Y-0235
X0582
X0572
X0562
X0552
X0542
Y-0265
X0552
X0562
X0572
X0582
X0592
X0585Y-017
X0575
X0565
X0555
X0545
X0535
X0525
X04968Y-01782
X0476Y-0178
X0487Y-0246
Y-0256
X0522Y-0265
X0532
Y-0235
X0522
X0451
X0441
X0431
X0421
X0411
X0401
X0391
Y-0265
X0401
X0411
X0421
X0431
X0441
X0451
X03902Y-01788
X0346Y-0171
X0336
X0326
X0316
X0306
X0296
X0286
X0276
X0239
X0229
X02288Y-02531
X02388
X0287Y-0273
X03038Y-02732
X0323Y-0273
X0342
X036Y-0263
Y-0243
X0342Y-0233
X0323
X03038Y-02332
X0287Y-0233
X02058Y-02322
Y-02722
X0163Y-0271
X0153
X0143
X0133
X0123
X0113
X0103
Y-0241
X0113
X0123
X0133
X0143
X0153
X0163
X01375Y-01703
X01275
X01175
X01075
X0199Y-0171
X0209
X0219
X00628Y-01775
X0054Y-0242
X0044
X0034
X0024
X0014
X0004
X-0006
Y-0272
X0004
X0014
X0024
X0034
X0044
X0054
X00628Y-01375
X0061Y-006
X0051
X0041
X0031
X0021
X0011
Y-005
Y-004
X0021
Y-005
X0031
Y-004
X0041
Y-005
X0051
Y-004
X0061
Y-005
Y-003
X0051
X0041
X0031
X0021
X0011
Y-002
X0021
X0031
X0041
X0051
X0061
Y-001
X0051
X0041
X0031
X0021
X0011
X0071
Y-002
Y-003
Y-004
Y-005
Y-006
X0081
X0091
X0101
X0111
X0121
X0131
X0141
X0151
X0161
Y-005
X0151
X0141
X0131
X0121
X0111
X0101
X0091
X0081
Y-004
X0091
X0101
X0111
X0121
X0131
X0141
X0151
X0161
Y-003
X0151
X0141
X0131
X0121
X0111
X0101
X0091
X0081
Y-002
X0091
X0101
X0111
X0121
X0131
X0141
X0151
X0161
Y-001
X0151
X0141
X0131
X0121
X0111
X0101
X0091
X0081
X00845Y-01523
Y-01623
X01075Y-01403
X01175
X01275
X01375
X01555Y-01453
Y-01653
X0199Y-0141
X0209
X0219
X0212Y-0055
X0252
X02368Y-00291
X02268
X0302Y-003
X0312
X0322
X0332
X0342
X0352
X0362
X0372
Y-002
Y-001
X0362
X0352
X0342
X0332
X0322
X0312
X0302
Y-002
X0312
X0322
X0332
X0342
X0352
X0362
Y-004
X0372
Y-005
X0362
X0352
Y-004
X0342
Y-005
X0332
Y-004
X0322
Y-005
X0312
Y-004
X0302
Y-005
Y-006
X0312
X0322
X0332
X0342
X0352
X0362
X0372
X0346Y-0141
X0336
X0326
X0316
X0306
X0296
X0286
X0276
X0239
X0229
X03902Y-01388
X0413Y-0158
X0423
X0476Y-0138
X04968Y-01382
X0525Y-014
X0535
Y-0083
X0525
Y-0053
X0535
X05Y-0066
Y-0076
X04762Y-00908
Y-00508
X0452Y-005
Y-004
Y-003
Y-002
Y-001
X0442
X0432
X0422
X0412
X0402
X0392
X0382
Y-002
X0392
X0402
X0412
X0422
X0432
X0442
Y-003
X0432
X0422
X0412
X0402
X0392
X0382
Y-004
X0392
X0402
X0412
X0422
X0432
X0442
Y-005
X0432
X0422
X0412
X0402
X0392
X0382
Y-006
X0392
X0402
X0412
X0422
X0432
X0442
X0452
X0545Y-0053
X0555
X0565
X0575
X0585
Y-0083
X0575
X0565
X0555
X0545
Y-014
X0555
X0565
X0575
X0585
X0652Y-0145
X0662
X0672
X0682
X0692
Y-0115
X0682
X0672
X0662
X0652
Y-0083
X0662
X0672
X0682
X0692
Y-0053
X0682
X0672
X0662
X0652
X0642
Y-0083
X0602Y-0014
X0572
X0702Y-0053
X0712
Y-0083
X0702
X0697Y-00073
X0712Y-00038
Y00362
X0697Y00527
X0687
X0677
X0667
X0657
X0602Y0056
Y0046
Y0036
Y0026
Y0016
Y0006
Y-0004
X0572
Y0006
Y0016
Y0026
Y0036
Y0046
Y0056
X0657Y-00073
X0667
X0677
X0687
X0452Y0
X0442
X0432
X0422
X0412
X0402
X0392
X0382
Y001
X0392
X0402
X0412
X0422
X0432
X0442
X0452
Y002
X0442
X0432
X0422
X0412
X0402
X0392
X0382
Y003
X0392
X0402
X0412
X0422
X0432
X0442
X0452
Y004
X0442
X0432
X0422
X0412
X0402
X0392
X0382
Y005
X0392
X0402
X0412
X0422
X0432
X0442
X0452
X0372
Y004
Y003
Y002
Y001
Y0
X0362
X0352
X0342
X0332
X0322
X0312
X0302
Y001
X0312
X0322
X0332
X0342
X0352
X0362
Y002
X0352
X0342
X0332
X0322
X0312
X0302
Y003
X0312
X0322
X0332
X0342
X0352
X0362
Y004
X0352
X0342
X0332
X0322
X0312
X0302
Y005
X0312
X0322
X0332
X0342
X0352
X0362
X0252Y0038
Y0021
X0212
Y0038
X0161Y004
Y005
X0151
X0141
X0131
X0121
X0111
X0101
X0091
X0081
X0071
Y004
Y003
X0081
Y004
X0091
Y003
X0101
Y004
X0111
Y003
X0121
Y004
X0131
Y003
X0141
Y004
X0151
Y003
X0161
Y002
X0151
X0141
X0131
X0121
X0111
X0101
X0091
X0081
X0071
Y001
X0081
X0091
X0101
X0111
X0121
X0131
X0141
X0151
X0161
Y0
X0151
X0141
X0131
X0121
X0111
X0101
X0091
X0081
X0071
X0061
Y001
X0051
X0041
X0031
X0021
X0011
Y002
Y003
Y004
Y005
X0021
X0031
X0041
X0051
X0061
Y004
X0051
X0041
X0031
X0021
Y003
X0031
X0041
X0051
X0061
Y002
X0051
X0041
X0031
X0021
Y0
X0031
X0041
X0051
X0011
T05
X-00045Y-04648
Y-04451
X0654Y-0296
X06737
X06638Y-02763
X00415Y-01673
X00218
X00317Y-01476
M30
