M48
;Layer_Color=9474304
;FILE_FORMAT=2:3
INCH,LZ
;TYPE=PLATED
T1F00S00C0.028
T2F00S00C0.035
T3F00S00C0.039
T4F00S00C0.047
;TYPE=NON_PLATED
T5F00S00C0.118
%
T01
X01906Y00487
X03462Y00234
X03662
X03562Y00634
X03362
X01906Y00687
T02
X01666Y0028
X02066
X03262Y00234
X03764Y00234
X0535Y00359
Y00059
X05346Y00677
X05709Y00626
X05881Y00728
X06009Y00626
X05268Y01383
Y01433
Y01483
X05016Y01327
X04925Y01626
X04616Y01327
X04681Y00728
X04146Y00677
X03764Y00634
X03831Y01218
Y01618
X03705Y01551
Y01851
X04236Y01969
X04335
X03132Y01955
X02454Y01992
X02201Y01941
X02358Y01469
Y01169
X02575Y0124
X02732Y01478
X03264Y01256
X03664
X03262Y00634
X02375Y00736
X02075
X01567Y00862
X01327Y00891
Y00791
X01146Y00892
Y00992
Y01092
X00921Y0109
Y0099
Y0089
X0139Y01022
X01501Y01941
X01563Y021
X0139Y02122
X01323Y02075
X01854Y01992
X00535Y02422
Y02622
X00537Y02827
X00137
X01173Y02846
Y02546
X01323Y02375
X01563Y025
X01988Y02777
Y03177
X01689Y03295
X02288Y0339
X02688
X02689Y03295
X0326Y03268
X03264Y03113
Y02963
Y02813
X03132Y03055
X03664Y03113
Y02963
Y02813
X0366Y03268
X02588Y0269
X02589Y02571
X02732Y02378
X02575Y0224
X02189Y02571
X02188Y0269
X03831Y02685
Y02809
Y03209
X0393Y03346
X0433
X04331Y02685
X04231
X04335Y02569
X04236Y02469
X04731Y02685
X04937Y02696
Y02846
Y02996
Y03146
X04925Y02126
X05337Y02696
Y02846
Y02996
Y03146
X05496Y02752
Y03652
T03
X01036Y005
X01236
X02473Y00534
Y00434
X02773
Y00534
X0453Y00309
X0463
X0473
X0483
X0493
X0503
X0513
X0523
X05709Y00984
Y01084
Y01184
Y01284
Y01384
Y01484
Y01584
X05809
Y01484
Y01384
Y01284
Y01184
Y01084
Y00984
X05025Y01123
X04925
X04825
X04725
X04625
X04525
X04425
Y00823
X04525
X04625
X04725
X04825
X04925
X05025
X0503Y00609
X0493
X0483
X0473
X0463
X0453
X0513
X0523
X03863Y00777
X03763
Y01077
X03863
X03935Y01551
X04035
X04135
X04235
X04335
X04435
X04535
X04635
Y01851
X04535
X04435
X04335
X04235
X04135
X04035
X03935
X03587
X03487
X03387
X03287
X03187
X03087
X02987
Y01551
X03087
X03187
X03287
X03387
X03487
X03587
X03563Y01077
X03463
X03363
X03263
Y00777
X03363
X03463
X03563
X03663
Y01077
X02773Y01034
Y00934
Y00834
Y00734
Y00634
X02473
Y00734
Y00834
Y00934
Y01034
Y01134
X02773
X02399Y01554
X02299
X02199
Y01854
X02299
X02399
X02099
X01999
X01899
X01799
X01699
Y01554
X01799
X01899
X01999
X02099
X01227Y01776
X01127
X01027
X00927
X00827
X00727
X00627
Y02076
X00727
X00827
X00927
X01027
X01127
X01227
X01136Y007
X00527Y01776
Y02076
X00537Y02939
Y03239
X00637
X00737
X00837
X00937
X01037
X01137
X01237
Y02939
X01137
X01037
X00937
X00837
X00737
X00637
X02388Y0289
X02488
X02588
X02688
X02788
X02888
X02988
Y0319
X02888
X02788
X02688
X02588
X02488
X02388
X0403Y03146
X0413
X0423
X0433
X0443
X0453
X0463
Y02846
X0453
X0443
X0433
X0423
X0413
X0403
X05709Y02853
Y02753
Y02653
Y02553
Y02453
Y02353
X05809
Y02453
Y02553
Y02653
Y02753
Y02853
Y02953
X05709
T04
X006Y005
Y007
T05
X00197Y00197
X06102
Y0374
X00197
M30
