G04 Layer_Color=2752767*
%FSLAX23Y23*%
%MOIN*%
G70*
G01*
G75*
%ADD40C,0.002*%
%ADD41C,0.003*%
D40*
X3512Y-718D02*
Y-702D01*
X3528D01*
Y-718D01*
X3512D01*
X3312D02*
Y-702D01*
X3328D01*
Y-718D01*
X3312D01*
X3112D02*
Y-702D01*
X3128D01*
Y-718D01*
X3112D01*
X3412D02*
Y-702D01*
X3428D01*
Y-718D01*
X3412D01*
X3212D02*
Y-702D01*
X3228D01*
Y-718D01*
X3212D01*
X1712Y-8D02*
Y8D01*
X1728D01*
Y-8D01*
X1712D01*
X-8Y-108D02*
Y-92D01*
X8D01*
Y-108D01*
X-8D01*
Y-8D02*
Y8D01*
X8D01*
Y-8D01*
X-8D01*
X202Y-718D02*
Y-702D01*
X218D01*
Y-718D01*
X202D01*
X2320Y-18D02*
X2312Y-2D01*
X2328D01*
X2320Y-18D01*
X2245D02*
X2237Y-2D01*
X2253D01*
X2245Y-18D01*
X2395D02*
X2387Y-2D01*
X2403D01*
X2395Y-18D01*
X4622Y-8D02*
Y8D01*
X4638D01*
Y-8D01*
X4622D01*
X2902Y-108D02*
Y-92D01*
X2918D01*
Y-108D01*
X2902D01*
Y-8D02*
Y8D01*
X2918D01*
Y-8D01*
X2902D01*
X-45Y-4459D02*
X-41Y-4455D01*
X-37D01*
X-41Y-4451D01*
X-37Y-4447D01*
X-41D01*
X-45Y-4443D01*
X-49Y-4447D01*
X-53D01*
X-49Y-4451D01*
X-53Y-4455D01*
X-49D01*
X-45Y-4459D01*
Y-4656D02*
X-41Y-4652D01*
X-37D01*
X-41Y-4648D01*
X-37Y-4644D01*
X-41D01*
X-45Y-4640D01*
X-49Y-4644D01*
X-53D01*
X-49Y-4648D01*
X-53Y-4652D01*
X-49D01*
X-45Y-4656D01*
X4500Y-1588D02*
X4492Y-1572D01*
X4508D01*
X4500Y-1588D01*
Y-1663D02*
X4492Y-1647D01*
X4508D01*
X4500Y-1663D01*
Y-1513D02*
X4492Y-1497D01*
X4508D01*
X4500Y-1513D01*
X218Y-1681D02*
X222Y-1677D01*
X226D01*
X222Y-1673D01*
X226Y-1669D01*
X222D01*
X218Y-1665D01*
X214Y-1669D01*
X210D01*
X214Y-1673D01*
X210Y-1677D01*
X214D01*
X218Y-1681D01*
X415D02*
X419Y-1677D01*
X423D01*
X419Y-1673D01*
X423Y-1669D01*
X419D01*
X415Y-1665D01*
X411Y-1669D01*
X407D01*
X411Y-1673D01*
X407Y-1677D01*
X411D01*
X415Y-1681D01*
X317Y-1484D02*
X321Y-1480D01*
X325D01*
X321Y-1476D01*
X325Y-1472D01*
X321D01*
X317Y-1468D01*
X313Y-1472D01*
X309D01*
X313Y-1476D01*
X309Y-1480D01*
X313D01*
X317Y-1484D01*
X3220Y-3518D02*
X3212Y-3502D01*
X3228D01*
X3220Y-3518D01*
Y-3593D02*
X3212Y-3577D01*
X3228D01*
X3220Y-3593D01*
Y-3443D02*
X3212Y-3427D01*
X3228D01*
X3220Y-3443D01*
X6540Y-2968D02*
X6544Y-2964D01*
X6548D01*
X6544Y-2960D01*
X6548Y-2956D01*
X6544D01*
X6540Y-2952D01*
X6536Y-2956D01*
X6532D01*
X6536Y-2960D01*
X6532Y-2964D01*
X6536D01*
X6540Y-2968D01*
X6737D02*
X6741Y-2964D01*
X6745D01*
X6741Y-2960D01*
X6745Y-2956D01*
X6741D01*
X6737Y-2952D01*
X6733Y-2956D01*
X6729D01*
X6733Y-2960D01*
X6729Y-2964D01*
X6733D01*
X6737Y-2968D01*
X6638Y-2771D02*
X6642Y-2767D01*
X6646D01*
X6642Y-2763D01*
X6646Y-2759D01*
X6642D01*
X6638Y-2755D01*
X6634Y-2759D01*
X6630D01*
X6634Y-2763D01*
X6630Y-2767D01*
X6634D01*
X6638Y-2771D01*
X6450Y-4408D02*
X6442Y-4392D01*
X6458D01*
X6450Y-4408D01*
Y-4333D02*
X6442Y-4317D01*
X6458D01*
X6450Y-4333D01*
Y-4483D02*
X6442Y-4467D01*
X6458D01*
X6450Y-4483D01*
X2640Y-2538D02*
X2632Y-2522D01*
X2648D01*
X2640Y-2538D01*
Y-2463D02*
X2632Y-2447D01*
X2648D01*
X2640Y-2463D01*
Y-2613D02*
X2632Y-2597D01*
X2648D01*
X2640Y-2613D01*
X3662Y-1828D02*
X3666Y-1820D01*
X3662Y-1812D01*
X3670Y-1816D01*
X3678Y-1812D01*
X3674Y-1820D01*
X3678Y-1828D01*
X3670Y-1824D01*
X3662Y-1828D01*
X3522Y-2538D02*
X3526Y-2530D01*
X3522Y-2522D01*
X3530Y-2526D01*
X3538Y-2522D01*
X3534Y-2530D01*
X3538Y-2538D01*
X3530Y-2534D01*
X3522Y-2538D01*
X6262Y-1998D02*
X6266Y-1990D01*
X6262Y-1982D01*
X6270Y-1986D01*
X6278Y-1982D01*
X6274Y-1990D01*
X6278Y-1998D01*
X6270Y-1994D01*
X6262Y-1998D01*
X482D02*
X486Y-1990D01*
X482Y-1982D01*
X490Y-1986D01*
X498Y-1982D01*
X494Y-1990D01*
X498Y-1998D01*
X490Y-1994D01*
X482Y-1998D01*
X492Y-4618D02*
X496Y-4610D01*
X492Y-4602D01*
X500Y-4606D01*
X508Y-4602D01*
X504Y-4610D01*
X508Y-4618D01*
X500Y-4614D01*
X492Y-4618D01*
X4382D02*
X4386Y-4610D01*
X4382Y-4602D01*
X4390Y-4606D01*
X4398Y-4602D01*
X4394Y-4610D01*
X4398Y-4618D01*
X4390Y-4614D01*
X4382Y-4618D01*
X4292Y-858D02*
X4296Y-850D01*
X4292Y-842D01*
X4300Y-846D01*
X4308Y-842D01*
X4304Y-850D01*
X4308Y-858D01*
X4300Y-854D01*
X4292Y-858D01*
X4102Y-1858D02*
X4106Y-1850D01*
X4102Y-1842D01*
X4110Y-1846D01*
X4118Y-1842D01*
X4114Y-1850D01*
X4118Y-1858D01*
X4110Y-1854D01*
X4102Y-1858D01*
X3802Y-2538D02*
X3806Y-2530D01*
X3802Y-2522D01*
X3810Y-2526D01*
X3818Y-2522D01*
X3814Y-2530D01*
X3818Y-2538D01*
X3810Y-2534D01*
X3802Y-2538D01*
X3752Y-4188D02*
X3756Y-4180D01*
X3752Y-4172D01*
X3760Y-4176D01*
X3768Y-4172D01*
X3764Y-4180D01*
X3768Y-4188D01*
X3760Y-4184D01*
X3752Y-4188D01*
X3212Y-3058D02*
X3216Y-3050D01*
X3212Y-3042D01*
X3220Y-3046D01*
X3228Y-3042D01*
X3224Y-3050D01*
X3228Y-3058D01*
X3220Y-3054D01*
X3212Y-3058D01*
X4202D02*
X4206Y-3050D01*
X4202Y-3042D01*
X4210Y-3046D01*
X4218Y-3042D01*
X4214Y-3050D01*
X4218Y-3058D01*
X4210Y-3054D01*
X4202Y-3058D01*
X2502Y-2998D02*
X2506Y-2990D01*
X2502Y-2982D01*
X2510Y-2986D01*
X2518Y-2982D01*
X2514Y-2990D01*
X2518Y-2998D01*
X2510Y-2994D01*
X2502Y-2998D01*
X4002D02*
X4006Y-2990D01*
X4002Y-2982D01*
X4010Y-2986D01*
X4018Y-2982D01*
X4014Y-2990D01*
X4018Y-2998D01*
X4010Y-2994D01*
X4002Y-2998D01*
X32Y-3088D02*
X36Y-3080D01*
X32Y-3072D01*
X40Y-3076D01*
X48Y-3072D01*
X44Y-3080D01*
X48Y-3088D01*
X40Y-3084D01*
X32Y-3088D01*
X882D02*
X886Y-3080D01*
X882Y-3072D01*
X890Y-3076D01*
X898Y-3072D01*
X894Y-3080D01*
X898Y-3088D01*
X890Y-3084D01*
X882Y-3088D01*
X4382Y-3508D02*
X4386Y-3500D01*
X4382Y-3492D01*
X4390Y-3496D01*
X4398Y-3492D01*
X4394Y-3500D01*
X4398Y-3508D01*
X4390Y-3504D01*
X4382Y-3508D01*
X4682D02*
X4686Y-3500D01*
X4682Y-3492D01*
X4690Y-3496D01*
X4698Y-3492D01*
X4694Y-3500D01*
X4698Y-3508D01*
X4690Y-3504D01*
X4682Y-3508D01*
X4602Y-3008D02*
X4606Y-3000D01*
X4602Y-2992D01*
X4610Y-2996D01*
X4618Y-2992D01*
X4614Y-3000D01*
X4618Y-3008D01*
X4610Y-3004D01*
X4602Y-3008D01*
X4102D02*
X4106Y-3000D01*
X4102Y-2992D01*
X4110Y-2996D01*
X4118Y-2992D01*
X4114Y-3000D01*
X4118Y-3008D01*
X4110Y-3004D01*
X4102Y-3008D01*
X1982Y-3188D02*
X1986Y-3180D01*
X1982Y-3172D01*
X1990Y-3176D01*
X1998Y-3172D01*
X1994Y-3180D01*
X1998Y-3188D01*
X1990Y-3184D01*
X1982Y-3188D01*
X4032Y-3798D02*
X4036Y-3790D01*
X4032Y-3782D01*
X4040Y-3786D01*
X4048Y-3782D01*
X4044Y-3790D01*
X4048Y-3798D01*
X4040Y-3794D01*
X4032Y-3798D01*
D41*
X3028Y0D02*
X3022Y8D01*
X3014Y5D01*
Y-5D01*
X3022Y-8D01*
X3028Y0D01*
Y-100D02*
X3022Y-92D01*
X3014Y-95D01*
Y-105D01*
X3022Y-108D01*
X3028Y-100D01*
X3128D02*
X3122Y-92D01*
X3114Y-95D01*
Y-105D01*
X3122Y-108D01*
X3128Y-100D01*
Y0D02*
X3122Y8D01*
X3114Y5D01*
Y-5D01*
X3122Y-8D01*
X3128Y0D01*
X3228Y-100D02*
X3222Y-92D01*
X3214Y-95D01*
Y-105D01*
X3222Y-108D01*
X3228Y-100D01*
Y0D02*
X3222Y8D01*
X3214Y5D01*
Y-5D01*
X3222Y-8D01*
X3228Y0D01*
X3328Y-100D02*
X3322Y-92D01*
X3314Y-95D01*
Y-105D01*
X3322Y-108D01*
X3328Y-100D01*
Y0D02*
X3322Y8D01*
X3314Y5D01*
Y-5D01*
X3322Y-8D01*
X3328Y0D01*
X3428Y-100D02*
X3422Y-92D01*
X3414Y-95D01*
Y-105D01*
X3422Y-108D01*
X3428Y-100D01*
Y0D02*
X3422Y8D01*
X3414Y5D01*
Y-5D01*
X3422Y-8D01*
X3428Y0D01*
X3528Y-100D02*
X3522Y-92D01*
X3514Y-95D01*
Y-105D01*
X3522Y-108D01*
X3528Y-100D01*
Y0D02*
X3522Y8D01*
X3514Y5D01*
Y-5D01*
X3522Y-8D01*
X3528Y0D01*
X3628Y-100D02*
X3622Y-92D01*
X3614Y-95D01*
Y-105D01*
X3622Y-108D01*
X3628Y-100D01*
Y0D02*
X3622Y8D01*
X3614Y5D01*
Y-5D01*
X3622Y-8D01*
X3628Y0D01*
X3728Y-100D02*
X3722Y-92D01*
X3714Y-95D01*
Y-105D01*
X3722Y-108D01*
X3728Y-100D01*
Y0D02*
X3722Y8D01*
X3714Y5D01*
Y-5D01*
X3722Y-8D01*
X3728Y0D01*
X3828Y-100D02*
X3822Y-92D01*
X3814Y-95D01*
Y-105D01*
X3822Y-108D01*
X3828Y-100D01*
Y0D02*
X3822Y8D01*
X3814Y5D01*
Y-5D01*
X3822Y-8D01*
X3828Y0D01*
X3928Y-100D02*
X3922Y-92D01*
X3914Y-95D01*
Y-105D01*
X3922Y-108D01*
X3928Y-100D01*
Y0D02*
X3922Y8D01*
X3914Y5D01*
Y-5D01*
X3922Y-8D01*
X3928Y0D01*
X4028Y-100D02*
X4022Y-92D01*
X4014Y-95D01*
Y-105D01*
X4022Y-108D01*
X4028Y-100D01*
Y0D02*
X4022Y8D01*
X4014Y5D01*
Y-5D01*
X4022Y-8D01*
X4028Y0D01*
X4128Y-100D02*
X4122Y-92D01*
X4114Y-95D01*
Y-105D01*
X4122Y-108D01*
X4128Y-100D01*
Y0D02*
X4122Y8D01*
X4114Y5D01*
Y-5D01*
X4122Y-8D01*
X4128Y0D01*
X4228Y-100D02*
X4222Y-92D01*
X4214Y-95D01*
Y-105D01*
X4222Y-108D01*
X4228Y-100D01*
Y0D02*
X4222Y8D01*
X4214Y5D01*
Y-5D01*
X4222Y-8D01*
X4228Y0D01*
X4328Y-100D02*
X4322Y-92D01*
X4314Y-95D01*
Y-105D01*
X4322Y-108D01*
X4328Y-100D01*
Y0D02*
X4322Y8D01*
X4314Y5D01*
Y-5D01*
X4322Y-8D01*
X4328Y0D01*
X4428Y-100D02*
X4422Y-92D01*
X4414Y-95D01*
Y-105D01*
X4422Y-108D01*
X4428Y-100D01*
Y0D02*
X4422Y8D01*
X4414Y5D01*
Y-5D01*
X4422Y-8D01*
X4428Y0D01*
X4528Y-100D02*
X4522Y-92D01*
X4514Y-95D01*
Y-105D01*
X4522Y-108D01*
X4528Y-100D01*
Y0D02*
X4522Y8D01*
X4514Y5D01*
Y-5D01*
X4522Y-8D01*
X4528Y0D01*
Y200D02*
X4522Y208D01*
X4514Y205D01*
Y195D01*
X4522Y192D01*
X4528Y200D01*
Y100D02*
X4522Y108D01*
X4514Y105D01*
Y95D01*
X4522Y92D01*
X4528Y100D01*
X4428Y200D02*
X4422Y208D01*
X4414Y205D01*
Y195D01*
X4422Y192D01*
X4428Y200D01*
Y100D02*
X4422Y108D01*
X4414Y105D01*
Y95D01*
X4422Y92D01*
X4428Y100D01*
X4328Y200D02*
X4322Y208D01*
X4314Y205D01*
Y195D01*
X4322Y192D01*
X4328Y200D01*
Y100D02*
X4322Y108D01*
X4314Y105D01*
Y95D01*
X4322Y92D01*
X4328Y100D01*
X4228Y200D02*
X4222Y208D01*
X4214Y205D01*
Y195D01*
X4222Y192D01*
X4228Y200D01*
Y100D02*
X4222Y108D01*
X4214Y105D01*
Y95D01*
X4222Y92D01*
X4228Y100D01*
X4128Y200D02*
X4122Y208D01*
X4114Y205D01*
Y195D01*
X4122Y192D01*
X4128Y200D01*
Y100D02*
X4122Y108D01*
X4114Y105D01*
Y95D01*
X4122Y92D01*
X4128Y100D01*
X4028Y200D02*
X4022Y208D01*
X4014Y205D01*
Y195D01*
X4022Y192D01*
X4028Y200D01*
Y100D02*
X4022Y108D01*
X4014Y105D01*
Y95D01*
X4022Y92D01*
X4028Y100D01*
X3928Y200D02*
X3922Y208D01*
X3914Y205D01*
Y195D01*
X3922Y192D01*
X3928Y200D01*
Y100D02*
X3922Y108D01*
X3914Y105D01*
Y95D01*
X3922Y92D01*
X3928Y100D01*
X3828Y200D02*
X3822Y208D01*
X3814Y205D01*
Y195D01*
X3822Y192D01*
X3828Y200D01*
Y100D02*
X3822Y108D01*
X3814Y105D01*
Y95D01*
X3822Y92D01*
X3828Y100D01*
X3728Y200D02*
X3722Y208D01*
X3714Y205D01*
Y195D01*
X3722Y192D01*
X3728Y200D01*
Y100D02*
X3722Y108D01*
X3714Y105D01*
Y95D01*
X3722Y92D01*
X3728Y100D01*
X3628Y200D02*
X3622Y208D01*
X3614Y205D01*
Y195D01*
X3622Y192D01*
X3628Y200D01*
Y100D02*
X3622Y108D01*
X3614Y105D01*
Y95D01*
X3622Y92D01*
X3628Y100D01*
X3528Y200D02*
X3522Y208D01*
X3514Y205D01*
Y195D01*
X3522Y192D01*
X3528Y200D01*
Y100D02*
X3522Y108D01*
X3514Y105D01*
Y95D01*
X3522Y92D01*
X3528Y100D01*
X3428Y200D02*
X3422Y208D01*
X3414Y205D01*
Y195D01*
X3422Y192D01*
X3428Y200D01*
Y100D02*
X3422Y108D01*
X3414Y105D01*
Y95D01*
X3422Y92D01*
X3428Y100D01*
X3328Y200D02*
X3322Y208D01*
X3314Y205D01*
Y195D01*
X3322Y192D01*
X3328Y200D01*
Y100D02*
X3322Y108D01*
X3314Y105D01*
Y95D01*
X3322Y92D01*
X3328Y100D01*
X3228Y200D02*
X3222Y208D01*
X3214Y205D01*
Y195D01*
X3222Y192D01*
X3228Y200D01*
Y100D02*
X3222Y108D01*
X3214Y105D01*
Y95D01*
X3222Y92D01*
X3228Y100D01*
X3128Y200D02*
X3122Y208D01*
X3114Y205D01*
Y195D01*
X3122Y192D01*
X3128Y200D01*
Y100D02*
X3122Y108D01*
X3114Y105D01*
Y95D01*
X3122Y92D01*
X3128Y100D01*
X3028D02*
X3022Y108D01*
X3014Y105D01*
Y95D01*
X3022Y92D01*
X3028Y100D01*
Y200D02*
X3022Y208D01*
X3014Y205D01*
Y195D01*
X3022Y192D01*
X3028Y200D01*
X4528Y400D02*
X4522Y408D01*
X4514Y405D01*
Y395D01*
X4522Y392D01*
X4528Y400D01*
Y300D02*
X4522Y308D01*
X4514Y305D01*
Y295D01*
X4522Y292D01*
X4528Y300D01*
X4428Y400D02*
X4422Y408D01*
X4414Y405D01*
Y395D01*
X4422Y392D01*
X4428Y400D01*
Y300D02*
X4422Y308D01*
X4414Y305D01*
Y295D01*
X4422Y292D01*
X4428Y300D01*
X4328Y400D02*
X4322Y408D01*
X4314Y405D01*
Y395D01*
X4322Y392D01*
X4328Y400D01*
Y300D02*
X4322Y308D01*
X4314Y305D01*
Y295D01*
X4322Y292D01*
X4328Y300D01*
X4228Y400D02*
X4222Y408D01*
X4214Y405D01*
Y395D01*
X4222Y392D01*
X4228Y400D01*
Y300D02*
X4222Y308D01*
X4214Y305D01*
Y295D01*
X4222Y292D01*
X4228Y300D01*
X4128Y400D02*
X4122Y408D01*
X4114Y405D01*
Y395D01*
X4122Y392D01*
X4128Y400D01*
Y300D02*
X4122Y308D01*
X4114Y305D01*
Y295D01*
X4122Y292D01*
X4128Y300D01*
X4028Y400D02*
X4022Y408D01*
X4014Y405D01*
Y395D01*
X4022Y392D01*
X4028Y400D01*
Y300D02*
X4022Y308D01*
X4014Y305D01*
Y295D01*
X4022Y292D01*
X4028Y300D01*
X3928Y400D02*
X3922Y408D01*
X3914Y405D01*
Y395D01*
X3922Y392D01*
X3928Y400D01*
Y300D02*
X3922Y308D01*
X3914Y305D01*
Y295D01*
X3922Y292D01*
X3928Y300D01*
X3828Y400D02*
X3822Y408D01*
X3814Y405D01*
Y395D01*
X3822Y392D01*
X3828Y400D01*
Y300D02*
X3822Y308D01*
X3814Y305D01*
Y295D01*
X3822Y292D01*
X3828Y300D01*
X3728Y400D02*
X3722Y408D01*
X3714Y405D01*
Y395D01*
X3722Y392D01*
X3728Y400D01*
Y300D02*
X3722Y308D01*
X3714Y305D01*
Y295D01*
X3722Y292D01*
X3728Y300D01*
X3628Y400D02*
X3622Y408D01*
X3614Y405D01*
Y395D01*
X3622Y392D01*
X3628Y400D01*
Y300D02*
X3622Y308D01*
X3614Y305D01*
Y295D01*
X3622Y292D01*
X3628Y300D01*
X3528Y400D02*
X3522Y408D01*
X3514Y405D01*
Y395D01*
X3522Y392D01*
X3528Y400D01*
Y300D02*
X3522Y308D01*
X3514Y305D01*
Y295D01*
X3522Y292D01*
X3528Y300D01*
X3428Y400D02*
X3422Y408D01*
X3414Y405D01*
Y395D01*
X3422Y392D01*
X3428Y400D01*
Y300D02*
X3422Y308D01*
X3414Y305D01*
Y295D01*
X3422Y292D01*
X3428Y300D01*
X3328Y400D02*
X3322Y408D01*
X3314Y405D01*
Y395D01*
X3322Y392D01*
X3328Y400D01*
Y300D02*
X3322Y308D01*
X3314Y305D01*
Y295D01*
X3322Y292D01*
X3328Y300D01*
X3228Y400D02*
X3222Y408D01*
X3214Y405D01*
Y395D01*
X3222Y392D01*
X3228Y400D01*
Y300D02*
X3222Y308D01*
X3214Y305D01*
Y295D01*
X3222Y292D01*
X3228Y300D01*
X3128Y400D02*
X3122Y408D01*
X3114Y405D01*
Y395D01*
X3122Y392D01*
X3128Y400D01*
Y300D02*
X3122Y308D01*
X3114Y305D01*
Y295D01*
X3122Y292D01*
X3128Y300D01*
X3028D02*
X3022Y308D01*
X3014Y305D01*
Y295D01*
X3022Y292D01*
X3028Y300D01*
Y400D02*
X3022Y408D01*
X3014Y405D01*
Y395D01*
X3022Y392D01*
X3028Y400D01*
X4528Y-200D02*
X4522Y-192D01*
X4514Y-195D01*
Y-205D01*
X4522Y-208D01*
X4528Y-200D01*
Y-300D02*
X4522Y-292D01*
X4514Y-295D01*
Y-305D01*
X4522Y-308D01*
X4528Y-300D01*
X4428Y-200D02*
X4422Y-192D01*
X4414Y-195D01*
Y-205D01*
X4422Y-208D01*
X4428Y-200D01*
Y-300D02*
X4422Y-292D01*
X4414Y-295D01*
Y-305D01*
X4422Y-308D01*
X4428Y-300D01*
X4328Y-200D02*
X4322Y-192D01*
X4314Y-195D01*
Y-205D01*
X4322Y-208D01*
X4328Y-200D01*
Y-300D02*
X4322Y-292D01*
X4314Y-295D01*
Y-305D01*
X4322Y-308D01*
X4328Y-300D01*
X4228Y-200D02*
X4222Y-192D01*
X4214Y-195D01*
Y-205D01*
X4222Y-208D01*
X4228Y-200D01*
Y-300D02*
X4222Y-292D01*
X4214Y-295D01*
Y-305D01*
X4222Y-308D01*
X4228Y-300D01*
X4128Y-200D02*
X4122Y-192D01*
X4114Y-195D01*
Y-205D01*
X4122Y-208D01*
X4128Y-200D01*
Y-300D02*
X4122Y-292D01*
X4114Y-295D01*
Y-305D01*
X4122Y-308D01*
X4128Y-300D01*
X4028Y-200D02*
X4022Y-192D01*
X4014Y-195D01*
Y-205D01*
X4022Y-208D01*
X4028Y-200D01*
Y-300D02*
X4022Y-292D01*
X4014Y-295D01*
Y-305D01*
X4022Y-308D01*
X4028Y-300D01*
X3928Y-200D02*
X3922Y-192D01*
X3914Y-195D01*
Y-205D01*
X3922Y-208D01*
X3928Y-200D01*
Y-300D02*
X3922Y-292D01*
X3914Y-295D01*
Y-305D01*
X3922Y-308D01*
X3928Y-300D01*
X3828Y-200D02*
X3822Y-192D01*
X3814Y-195D01*
Y-205D01*
X3822Y-208D01*
X3828Y-200D01*
Y-300D02*
X3822Y-292D01*
X3814Y-295D01*
Y-305D01*
X3822Y-308D01*
X3828Y-300D01*
X3728Y-200D02*
X3722Y-192D01*
X3714Y-195D01*
Y-205D01*
X3722Y-208D01*
X3728Y-200D01*
Y-300D02*
X3722Y-292D01*
X3714Y-295D01*
Y-305D01*
X3722Y-308D01*
X3728Y-300D01*
X3628Y-200D02*
X3622Y-192D01*
X3614Y-195D01*
Y-205D01*
X3622Y-208D01*
X3628Y-200D01*
Y-300D02*
X3622Y-292D01*
X3614Y-295D01*
Y-305D01*
X3622Y-308D01*
X3628Y-300D01*
X3528Y-200D02*
X3522Y-192D01*
X3514Y-195D01*
Y-205D01*
X3522Y-208D01*
X3528Y-200D01*
Y-300D02*
X3522Y-292D01*
X3514Y-295D01*
Y-305D01*
X3522Y-308D01*
X3528Y-300D01*
X3428Y-200D02*
X3422Y-192D01*
X3414Y-195D01*
Y-205D01*
X3422Y-208D01*
X3428Y-200D01*
Y-300D02*
X3422Y-292D01*
X3414Y-295D01*
Y-305D01*
X3422Y-308D01*
X3428Y-300D01*
X3328Y-200D02*
X3322Y-192D01*
X3314Y-195D01*
Y-205D01*
X3322Y-208D01*
X3328Y-200D01*
Y-300D02*
X3322Y-292D01*
X3314Y-295D01*
Y-305D01*
X3322Y-308D01*
X3328Y-300D01*
X3228Y-200D02*
X3222Y-192D01*
X3214Y-195D01*
Y-205D01*
X3222Y-208D01*
X3228Y-200D01*
Y-300D02*
X3222Y-292D01*
X3214Y-295D01*
Y-305D01*
X3222Y-308D01*
X3228Y-300D01*
X3128Y-200D02*
X3122Y-192D01*
X3114Y-195D01*
Y-205D01*
X3122Y-208D01*
X3128Y-200D01*
Y-300D02*
X3122Y-292D01*
X3114Y-295D01*
Y-305D01*
X3122Y-308D01*
X3128Y-300D01*
X3028D02*
X3022Y-292D01*
X3014Y-295D01*
Y-305D01*
X3022Y-308D01*
X3028Y-300D01*
Y-200D02*
X3022Y-192D01*
X3014Y-195D01*
Y-205D01*
X3022Y-208D01*
X3028Y-200D01*
X4528Y-400D02*
X4522Y-392D01*
X4514Y-395D01*
Y-405D01*
X4522Y-408D01*
X4528Y-400D01*
Y-500D02*
X4522Y-492D01*
X4514Y-495D01*
Y-505D01*
X4522Y-508D01*
X4528Y-500D01*
X4428Y-400D02*
X4422Y-392D01*
X4414Y-395D01*
Y-405D01*
X4422Y-408D01*
X4428Y-400D01*
Y-500D02*
X4422Y-492D01*
X4414Y-495D01*
Y-505D01*
X4422Y-508D01*
X4428Y-500D01*
X4328Y-400D02*
X4322Y-392D01*
X4314Y-395D01*
Y-405D01*
X4322Y-408D01*
X4328Y-400D01*
Y-500D02*
X4322Y-492D01*
X4314Y-495D01*
Y-505D01*
X4322Y-508D01*
X4328Y-500D01*
X4228Y-400D02*
X4222Y-392D01*
X4214Y-395D01*
Y-405D01*
X4222Y-408D01*
X4228Y-400D01*
Y-500D02*
X4222Y-492D01*
X4214Y-495D01*
Y-505D01*
X4222Y-508D01*
X4228Y-500D01*
X4128Y-400D02*
X4122Y-392D01*
X4114Y-395D01*
Y-405D01*
X4122Y-408D01*
X4128Y-400D01*
Y-500D02*
X4122Y-492D01*
X4114Y-495D01*
Y-505D01*
X4122Y-508D01*
X4128Y-500D01*
X4028Y-400D02*
X4022Y-392D01*
X4014Y-395D01*
Y-405D01*
X4022Y-408D01*
X4028Y-400D01*
Y-500D02*
X4022Y-492D01*
X4014Y-495D01*
Y-505D01*
X4022Y-508D01*
X4028Y-500D01*
X3928Y-400D02*
X3922Y-392D01*
X3914Y-395D01*
Y-405D01*
X3922Y-408D01*
X3928Y-400D01*
Y-500D02*
X3922Y-492D01*
X3914Y-495D01*
Y-505D01*
X3922Y-508D01*
X3928Y-500D01*
X3828Y-400D02*
X3822Y-392D01*
X3814Y-395D01*
Y-405D01*
X3822Y-408D01*
X3828Y-400D01*
Y-500D02*
X3822Y-492D01*
X3814Y-495D01*
Y-505D01*
X3822Y-508D01*
X3828Y-500D01*
X3728Y-400D02*
X3722Y-392D01*
X3714Y-395D01*
Y-405D01*
X3722Y-408D01*
X3728Y-400D01*
Y-500D02*
X3722Y-492D01*
X3714Y-495D01*
Y-505D01*
X3722Y-508D01*
X3728Y-500D01*
X3628Y-400D02*
X3622Y-392D01*
X3614Y-395D01*
Y-405D01*
X3622Y-408D01*
X3628Y-400D01*
Y-500D02*
X3622Y-492D01*
X3614Y-495D01*
Y-505D01*
X3622Y-508D01*
X3628Y-500D01*
X3528Y-400D02*
X3522Y-392D01*
X3514Y-395D01*
Y-405D01*
X3522Y-408D01*
X3528Y-400D01*
Y-500D02*
X3522Y-492D01*
X3514Y-495D01*
Y-505D01*
X3522Y-508D01*
X3528Y-500D01*
X3428Y-400D02*
X3422Y-392D01*
X3414Y-395D01*
Y-405D01*
X3422Y-408D01*
X3428Y-400D01*
Y-500D02*
X3422Y-492D01*
X3414Y-495D01*
Y-505D01*
X3422Y-508D01*
X3428Y-500D01*
X3328Y-400D02*
X3322Y-392D01*
X3314Y-395D01*
Y-405D01*
X3322Y-408D01*
X3328Y-400D01*
Y-500D02*
X3322Y-492D01*
X3314Y-495D01*
Y-505D01*
X3322Y-508D01*
X3328Y-500D01*
X3228Y-400D02*
X3222Y-392D01*
X3214Y-395D01*
Y-405D01*
X3222Y-408D01*
X3228Y-400D01*
Y-500D02*
X3222Y-492D01*
X3214Y-495D01*
Y-505D01*
X3222Y-508D01*
X3228Y-500D01*
X3128Y-400D02*
X3122Y-392D01*
X3114Y-395D01*
Y-405D01*
X3122Y-408D01*
X3128Y-400D01*
Y-500D02*
X3122Y-492D01*
X3114Y-495D01*
Y-505D01*
X3122Y-508D01*
X3128Y-500D01*
X3028D02*
X3022Y-492D01*
X3014Y-495D01*
Y-505D01*
X3022Y-508D01*
X3028Y-500D01*
Y-400D02*
X3022Y-392D01*
X3014Y-395D01*
Y-405D01*
X3022Y-408D01*
X3028Y-400D01*
Y-600D02*
X3022Y-592D01*
X3014Y-595D01*
Y-605D01*
X3022Y-608D01*
X3028Y-600D01*
X3128D02*
X3122Y-592D01*
X3114Y-595D01*
Y-605D01*
X3122Y-608D01*
X3128Y-600D01*
X3228D02*
X3222Y-592D01*
X3214Y-595D01*
Y-605D01*
X3222Y-608D01*
X3228Y-600D01*
X3328D02*
X3322Y-592D01*
X3314Y-595D01*
Y-605D01*
X3322Y-608D01*
X3328Y-600D01*
X3428D02*
X3422Y-592D01*
X3414Y-595D01*
Y-605D01*
X3422Y-608D01*
X3428Y-600D01*
X3528D02*
X3522Y-592D01*
X3514Y-595D01*
Y-605D01*
X3522Y-608D01*
X3528Y-600D01*
X3628D02*
X3622Y-592D01*
X3614Y-595D01*
Y-605D01*
X3622Y-608D01*
X3628Y-600D01*
X3728D02*
X3722Y-592D01*
X3714Y-595D01*
Y-605D01*
X3722Y-608D01*
X3728Y-600D01*
X3828D02*
X3822Y-592D01*
X3814Y-595D01*
Y-605D01*
X3822Y-608D01*
X3828Y-600D01*
X3928D02*
X3922Y-592D01*
X3914Y-595D01*
Y-605D01*
X3922Y-608D01*
X3928Y-600D01*
X4028D02*
X4022Y-592D01*
X4014Y-595D01*
Y-605D01*
X4022Y-608D01*
X4028Y-600D01*
X4128D02*
X4122Y-592D01*
X4114Y-595D01*
Y-605D01*
X4122Y-608D01*
X4128Y-600D01*
X4228D02*
X4222Y-592D01*
X4214Y-595D01*
Y-605D01*
X4222Y-608D01*
X4228Y-600D01*
X4328D02*
X4322Y-592D01*
X4314Y-595D01*
Y-605D01*
X4322Y-608D01*
X4328Y-600D01*
X4428D02*
X4422Y-592D01*
X4414Y-595D01*
Y-605D01*
X4422Y-608D01*
X4428Y-600D01*
X4528D02*
X4522Y-592D01*
X4514Y-595D01*
Y-605D01*
X4522Y-608D01*
X4528Y-600D01*
X3028Y500D02*
X3022Y508D01*
X3014Y505D01*
Y495D01*
X3022Y492D01*
X3028Y500D01*
X3128D02*
X3122Y508D01*
X3114Y505D01*
Y495D01*
X3122Y492D01*
X3128Y500D01*
X3228D02*
X3222Y508D01*
X3214Y505D01*
Y495D01*
X3222Y492D01*
X3228Y500D01*
X3328D02*
X3322Y508D01*
X3314Y505D01*
Y495D01*
X3322Y492D01*
X3328Y500D01*
X3428D02*
X3422Y508D01*
X3414Y505D01*
Y495D01*
X3422Y492D01*
X3428Y500D01*
X3528D02*
X3522Y508D01*
X3514Y505D01*
Y495D01*
X3522Y492D01*
X3528Y500D01*
X3628D02*
X3622Y508D01*
X3614Y505D01*
Y495D01*
X3622Y492D01*
X3628Y500D01*
X3728D02*
X3722Y508D01*
X3714Y505D01*
Y495D01*
X3722Y492D01*
X3728Y500D01*
X3828D02*
X3822Y508D01*
X3814Y505D01*
Y495D01*
X3822Y492D01*
X3828Y500D01*
X3928D02*
X3922Y508D01*
X3914Y505D01*
Y495D01*
X3922Y492D01*
X3928Y500D01*
X4028D02*
X4022Y508D01*
X4014Y505D01*
Y495D01*
X4022Y492D01*
X4028Y500D01*
X4128D02*
X4122Y508D01*
X4114Y505D01*
Y495D01*
X4122Y492D01*
X4128Y500D01*
X4228D02*
X4222Y508D01*
X4214Y505D01*
Y495D01*
X4222Y492D01*
X4228Y500D01*
X4328D02*
X4322Y508D01*
X4314Y505D01*
Y495D01*
X4322Y492D01*
X4328Y500D01*
X4428D02*
X4422Y508D01*
X4414Y505D01*
Y495D01*
X4422Y492D01*
X4428Y500D01*
X4528D02*
X4522Y508D01*
X4514Y505D01*
Y495D01*
X4522Y492D01*
X4528Y500D01*
X2528Y-550D02*
X2522Y-542D01*
X2514Y-545D01*
Y-555D01*
X2522Y-558D01*
X2528Y-550D01*
X2128D02*
X2122Y-542D01*
X2114Y-545D01*
Y-555D01*
X2122Y-558D01*
X2128Y-550D01*
X1618Y500D02*
X1612Y508D01*
X1604Y505D01*
Y495D01*
X1612Y492D01*
X1618Y500D01*
X1518D02*
X1512Y508D01*
X1504Y505D01*
Y495D01*
X1512Y492D01*
X1518Y500D01*
X1418D02*
X1412Y508D01*
X1404Y505D01*
Y495D01*
X1412Y492D01*
X1418Y500D01*
X1318D02*
X1312Y508D01*
X1304Y505D01*
Y495D01*
X1312Y492D01*
X1318Y500D01*
X1218D02*
X1212Y508D01*
X1204Y505D01*
Y495D01*
X1212Y492D01*
X1218Y500D01*
X1118D02*
X1112Y508D01*
X1104Y505D01*
Y495D01*
X1112Y492D01*
X1118Y500D01*
X1018D02*
X1012Y508D01*
X1004Y505D01*
Y495D01*
X1012Y492D01*
X1018Y500D01*
X918D02*
X912Y508D01*
X904Y505D01*
Y495D01*
X912Y492D01*
X918Y500D01*
X818D02*
X812Y508D01*
X804Y505D01*
Y495D01*
X812Y492D01*
X818Y500D01*
X718D02*
X712Y508D01*
X704Y505D01*
Y495D01*
X712Y492D01*
X718Y500D01*
X618D02*
X612Y508D01*
X604Y505D01*
Y495D01*
X612Y492D01*
X618Y500D01*
X518D02*
X512Y508D01*
X504Y505D01*
Y495D01*
X512Y492D01*
X518Y500D01*
X418D02*
X412Y508D01*
X404Y505D01*
Y495D01*
X412Y492D01*
X418Y500D01*
X318D02*
X312Y508D01*
X304Y505D01*
Y495D01*
X312Y492D01*
X318Y500D01*
X218D02*
X212Y508D01*
X204Y505D01*
Y495D01*
X212Y492D01*
X218Y500D01*
X118D02*
X112Y508D01*
X104Y505D01*
Y495D01*
X112Y492D01*
X118Y500D01*
X1618Y-600D02*
X1612Y-592D01*
X1604Y-595D01*
Y-605D01*
X1612Y-608D01*
X1618Y-600D01*
X1518D02*
X1512Y-592D01*
X1504Y-595D01*
Y-605D01*
X1512Y-608D01*
X1518Y-600D01*
X1418D02*
X1412Y-592D01*
X1404Y-595D01*
Y-605D01*
X1412Y-608D01*
X1418Y-600D01*
X1318D02*
X1312Y-592D01*
X1304Y-595D01*
Y-605D01*
X1312Y-608D01*
X1318Y-600D01*
X1218D02*
X1212Y-592D01*
X1204Y-595D01*
Y-605D01*
X1212Y-608D01*
X1218Y-600D01*
X1118D02*
X1112Y-592D01*
X1104Y-595D01*
Y-605D01*
X1112Y-608D01*
X1118Y-600D01*
X1018D02*
X1012Y-592D01*
X1004Y-595D01*
Y-605D01*
X1012Y-608D01*
X1018Y-600D01*
X918D02*
X912Y-592D01*
X904Y-595D01*
Y-605D01*
X912Y-608D01*
X918Y-600D01*
X818D02*
X812Y-592D01*
X804Y-595D01*
Y-605D01*
X812Y-608D01*
X818Y-600D01*
X718D02*
X712Y-592D01*
X704Y-595D01*
Y-605D01*
X712Y-608D01*
X718Y-600D01*
X618D02*
X612Y-592D01*
X604Y-595D01*
Y-605D01*
X612Y-608D01*
X618Y-600D01*
X518D02*
X512Y-592D01*
X504Y-595D01*
Y-605D01*
X512Y-608D01*
X518Y-600D01*
X418D02*
X412Y-592D01*
X404Y-595D01*
Y-605D01*
X412Y-608D01*
X418Y-600D01*
X318D02*
X312Y-592D01*
X304Y-595D01*
Y-605D01*
X312Y-608D01*
X318Y-600D01*
X218D02*
X212Y-592D01*
X204Y-595D01*
Y-605D01*
X212Y-608D01*
X218Y-600D01*
X118D02*
X112Y-592D01*
X104Y-595D01*
Y-605D01*
X112Y-608D01*
X118Y-600D01*
Y-400D02*
X112Y-392D01*
X104Y-395D01*
Y-405D01*
X112Y-408D01*
X118Y-400D01*
Y-500D02*
X112Y-492D01*
X104Y-495D01*
Y-505D01*
X112Y-508D01*
X118Y-500D01*
X218D02*
X212Y-492D01*
X204Y-495D01*
Y-505D01*
X212Y-508D01*
X218Y-500D01*
Y-400D02*
X212Y-392D01*
X204Y-395D01*
Y-405D01*
X212Y-408D01*
X218Y-400D01*
X318Y-500D02*
X312Y-492D01*
X304Y-495D01*
Y-505D01*
X312Y-508D01*
X318Y-500D01*
Y-400D02*
X312Y-392D01*
X304Y-395D01*
Y-405D01*
X312Y-408D01*
X318Y-400D01*
X418Y-500D02*
X412Y-492D01*
X404Y-495D01*
Y-505D01*
X412Y-508D01*
X418Y-500D01*
Y-400D02*
X412Y-392D01*
X404Y-395D01*
Y-405D01*
X412Y-408D01*
X418Y-400D01*
X518Y-500D02*
X512Y-492D01*
X504Y-495D01*
Y-505D01*
X512Y-508D01*
X518Y-500D01*
Y-400D02*
X512Y-392D01*
X504Y-395D01*
Y-405D01*
X512Y-408D01*
X518Y-400D01*
X618Y-500D02*
X612Y-492D01*
X604Y-495D01*
Y-505D01*
X612Y-508D01*
X618Y-500D01*
Y-400D02*
X612Y-392D01*
X604Y-395D01*
Y-405D01*
X612Y-408D01*
X618Y-400D01*
X718Y-500D02*
X712Y-492D01*
X704Y-495D01*
Y-505D01*
X712Y-508D01*
X718Y-500D01*
Y-400D02*
X712Y-392D01*
X704Y-395D01*
Y-405D01*
X712Y-408D01*
X718Y-400D01*
X818Y-500D02*
X812Y-492D01*
X804Y-495D01*
Y-505D01*
X812Y-508D01*
X818Y-500D01*
Y-400D02*
X812Y-392D01*
X804Y-395D01*
Y-405D01*
X812Y-408D01*
X818Y-400D01*
X918Y-500D02*
X912Y-492D01*
X904Y-495D01*
Y-505D01*
X912Y-508D01*
X918Y-500D01*
Y-400D02*
X912Y-392D01*
X904Y-395D01*
Y-405D01*
X912Y-408D01*
X918Y-400D01*
X1018Y-500D02*
X1012Y-492D01*
X1004Y-495D01*
Y-505D01*
X1012Y-508D01*
X1018Y-500D01*
Y-400D02*
X1012Y-392D01*
X1004Y-395D01*
Y-405D01*
X1012Y-408D01*
X1018Y-400D01*
X1118Y-500D02*
X1112Y-492D01*
X1104Y-495D01*
Y-505D01*
X1112Y-508D01*
X1118Y-500D01*
Y-400D02*
X1112Y-392D01*
X1104Y-395D01*
Y-405D01*
X1112Y-408D01*
X1118Y-400D01*
X1218Y-500D02*
X1212Y-492D01*
X1204Y-495D01*
Y-505D01*
X1212Y-508D01*
X1218Y-500D01*
Y-400D02*
X1212Y-392D01*
X1204Y-395D01*
Y-405D01*
X1212Y-408D01*
X1218Y-400D01*
X1318Y-500D02*
X1312Y-492D01*
X1304Y-495D01*
Y-505D01*
X1312Y-508D01*
X1318Y-500D01*
Y-400D02*
X1312Y-392D01*
X1304Y-395D01*
Y-405D01*
X1312Y-408D01*
X1318Y-400D01*
X1418Y-500D02*
X1412Y-492D01*
X1404Y-495D01*
Y-505D01*
X1412Y-508D01*
X1418Y-500D01*
Y-400D02*
X1412Y-392D01*
X1404Y-395D01*
Y-405D01*
X1412Y-408D01*
X1418Y-400D01*
X1518Y-500D02*
X1512Y-492D01*
X1504Y-495D01*
Y-505D01*
X1512Y-508D01*
X1518Y-500D01*
Y-400D02*
X1512Y-392D01*
X1504Y-395D01*
Y-405D01*
X1512Y-408D01*
X1518Y-400D01*
X1618Y-500D02*
X1612Y-492D01*
X1604Y-495D01*
Y-505D01*
X1612Y-508D01*
X1618Y-500D01*
Y-400D02*
X1612Y-392D01*
X1604Y-395D01*
Y-405D01*
X1612Y-408D01*
X1618Y-400D01*
X118Y-200D02*
X112Y-192D01*
X104Y-195D01*
Y-205D01*
X112Y-208D01*
X118Y-200D01*
Y-300D02*
X112Y-292D01*
X104Y-295D01*
Y-305D01*
X112Y-308D01*
X118Y-300D01*
X218D02*
X212Y-292D01*
X204Y-295D01*
Y-305D01*
X212Y-308D01*
X218Y-300D01*
Y-200D02*
X212Y-192D01*
X204Y-195D01*
Y-205D01*
X212Y-208D01*
X218Y-200D01*
X318Y-300D02*
X312Y-292D01*
X304Y-295D01*
Y-305D01*
X312Y-308D01*
X318Y-300D01*
Y-200D02*
X312Y-192D01*
X304Y-195D01*
Y-205D01*
X312Y-208D01*
X318Y-200D01*
X418Y-300D02*
X412Y-292D01*
X404Y-295D01*
Y-305D01*
X412Y-308D01*
X418Y-300D01*
Y-200D02*
X412Y-192D01*
X404Y-195D01*
Y-205D01*
X412Y-208D01*
X418Y-200D01*
X518Y-300D02*
X512Y-292D01*
X504Y-295D01*
Y-305D01*
X512Y-308D01*
X518Y-300D01*
Y-200D02*
X512Y-192D01*
X504Y-195D01*
Y-205D01*
X512Y-208D01*
X518Y-200D01*
X618Y-300D02*
X612Y-292D01*
X604Y-295D01*
Y-305D01*
X612Y-308D01*
X618Y-300D01*
Y-200D02*
X612Y-192D01*
X604Y-195D01*
Y-205D01*
X612Y-208D01*
X618Y-200D01*
X718Y-300D02*
X712Y-292D01*
X704Y-295D01*
Y-305D01*
X712Y-308D01*
X718Y-300D01*
Y-200D02*
X712Y-192D01*
X704Y-195D01*
Y-205D01*
X712Y-208D01*
X718Y-200D01*
X818Y-300D02*
X812Y-292D01*
X804Y-295D01*
Y-305D01*
X812Y-308D01*
X818Y-300D01*
Y-200D02*
X812Y-192D01*
X804Y-195D01*
Y-205D01*
X812Y-208D01*
X818Y-200D01*
X918Y-300D02*
X912Y-292D01*
X904Y-295D01*
Y-305D01*
X912Y-308D01*
X918Y-300D01*
Y-200D02*
X912Y-192D01*
X904Y-195D01*
Y-205D01*
X912Y-208D01*
X918Y-200D01*
X1018Y-300D02*
X1012Y-292D01*
X1004Y-295D01*
Y-305D01*
X1012Y-308D01*
X1018Y-300D01*
Y-200D02*
X1012Y-192D01*
X1004Y-195D01*
Y-205D01*
X1012Y-208D01*
X1018Y-200D01*
X1118Y-300D02*
X1112Y-292D01*
X1104Y-295D01*
Y-305D01*
X1112Y-308D01*
X1118Y-300D01*
Y-200D02*
X1112Y-192D01*
X1104Y-195D01*
Y-205D01*
X1112Y-208D01*
X1118Y-200D01*
X1218Y-300D02*
X1212Y-292D01*
X1204Y-295D01*
Y-305D01*
X1212Y-308D01*
X1218Y-300D01*
Y-200D02*
X1212Y-192D01*
X1204Y-195D01*
Y-205D01*
X1212Y-208D01*
X1218Y-200D01*
X1318Y-300D02*
X1312Y-292D01*
X1304Y-295D01*
Y-305D01*
X1312Y-308D01*
X1318Y-300D01*
Y-200D02*
X1312Y-192D01*
X1304Y-195D01*
Y-205D01*
X1312Y-208D01*
X1318Y-200D01*
X1418Y-300D02*
X1412Y-292D01*
X1404Y-295D01*
Y-305D01*
X1412Y-308D01*
X1418Y-300D01*
Y-200D02*
X1412Y-192D01*
X1404Y-195D01*
Y-205D01*
X1412Y-208D01*
X1418Y-200D01*
X1518Y-300D02*
X1512Y-292D01*
X1504Y-295D01*
Y-305D01*
X1512Y-308D01*
X1518Y-300D01*
Y-200D02*
X1512Y-192D01*
X1504Y-195D01*
Y-205D01*
X1512Y-208D01*
X1518Y-200D01*
X1618Y-300D02*
X1612Y-292D01*
X1604Y-295D01*
Y-305D01*
X1612Y-308D01*
X1618Y-300D01*
Y-200D02*
X1612Y-192D01*
X1604Y-195D01*
Y-205D01*
X1612Y-208D01*
X1618Y-200D01*
X118Y400D02*
X112Y408D01*
X104Y405D01*
Y395D01*
X112Y392D01*
X118Y400D01*
Y300D02*
X112Y308D01*
X104Y305D01*
Y295D01*
X112Y292D01*
X118Y300D01*
X218D02*
X212Y308D01*
X204Y305D01*
Y295D01*
X212Y292D01*
X218Y300D01*
Y400D02*
X212Y408D01*
X204Y405D01*
Y395D01*
X212Y392D01*
X218Y400D01*
X318Y300D02*
X312Y308D01*
X304Y305D01*
Y295D01*
X312Y292D01*
X318Y300D01*
Y400D02*
X312Y408D01*
X304Y405D01*
Y395D01*
X312Y392D01*
X318Y400D01*
X418Y300D02*
X412Y308D01*
X404Y305D01*
Y295D01*
X412Y292D01*
X418Y300D01*
Y400D02*
X412Y408D01*
X404Y405D01*
Y395D01*
X412Y392D01*
X418Y400D01*
X518Y300D02*
X512Y308D01*
X504Y305D01*
Y295D01*
X512Y292D01*
X518Y300D01*
Y400D02*
X512Y408D01*
X504Y405D01*
Y395D01*
X512Y392D01*
X518Y400D01*
X618Y300D02*
X612Y308D01*
X604Y305D01*
Y295D01*
X612Y292D01*
X618Y300D01*
Y400D02*
X612Y408D01*
X604Y405D01*
Y395D01*
X612Y392D01*
X618Y400D01*
X718Y300D02*
X712Y308D01*
X704Y305D01*
Y295D01*
X712Y292D01*
X718Y300D01*
Y400D02*
X712Y408D01*
X704Y405D01*
Y395D01*
X712Y392D01*
X718Y400D01*
X818Y300D02*
X812Y308D01*
X804Y305D01*
Y295D01*
X812Y292D01*
X818Y300D01*
Y400D02*
X812Y408D01*
X804Y405D01*
Y395D01*
X812Y392D01*
X818Y400D01*
X918Y300D02*
X912Y308D01*
X904Y305D01*
Y295D01*
X912Y292D01*
X918Y300D01*
Y400D02*
X912Y408D01*
X904Y405D01*
Y395D01*
X912Y392D01*
X918Y400D01*
X1018Y300D02*
X1012Y308D01*
X1004Y305D01*
Y295D01*
X1012Y292D01*
X1018Y300D01*
Y400D02*
X1012Y408D01*
X1004Y405D01*
Y395D01*
X1012Y392D01*
X1018Y400D01*
X1118Y300D02*
X1112Y308D01*
X1104Y305D01*
Y295D01*
X1112Y292D01*
X1118Y300D01*
Y400D02*
X1112Y408D01*
X1104Y405D01*
Y395D01*
X1112Y392D01*
X1118Y400D01*
X1218Y300D02*
X1212Y308D01*
X1204Y305D01*
Y295D01*
X1212Y292D01*
X1218Y300D01*
Y400D02*
X1212Y408D01*
X1204Y405D01*
Y395D01*
X1212Y392D01*
X1218Y400D01*
X1318Y300D02*
X1312Y308D01*
X1304Y305D01*
Y295D01*
X1312Y292D01*
X1318Y300D01*
Y400D02*
X1312Y408D01*
X1304Y405D01*
Y395D01*
X1312Y392D01*
X1318Y400D01*
X1418Y300D02*
X1412Y308D01*
X1404Y305D01*
Y295D01*
X1412Y292D01*
X1418Y300D01*
Y400D02*
X1412Y408D01*
X1404Y405D01*
Y395D01*
X1412Y392D01*
X1418Y400D01*
X1518Y300D02*
X1512Y308D01*
X1504Y305D01*
Y295D01*
X1512Y292D01*
X1518Y300D01*
Y400D02*
X1512Y408D01*
X1504Y405D01*
Y395D01*
X1512Y392D01*
X1518Y400D01*
X1618Y300D02*
X1612Y308D01*
X1604Y305D01*
Y295D01*
X1612Y292D01*
X1618Y300D01*
Y400D02*
X1612Y408D01*
X1604Y405D01*
Y395D01*
X1612Y392D01*
X1618Y400D01*
X118Y200D02*
X112Y208D01*
X104Y205D01*
Y195D01*
X112Y192D01*
X118Y200D01*
Y100D02*
X112Y108D01*
X104Y105D01*
Y95D01*
X112Y92D01*
X118Y100D01*
X218D02*
X212Y108D01*
X204Y105D01*
Y95D01*
X212Y92D01*
X218Y100D01*
Y200D02*
X212Y208D01*
X204Y205D01*
Y195D01*
X212Y192D01*
X218Y200D01*
X318Y100D02*
X312Y108D01*
X304Y105D01*
Y95D01*
X312Y92D01*
X318Y100D01*
Y200D02*
X312Y208D01*
X304Y205D01*
Y195D01*
X312Y192D01*
X318Y200D01*
X418Y100D02*
X412Y108D01*
X404Y105D01*
Y95D01*
X412Y92D01*
X418Y100D01*
Y200D02*
X412Y208D01*
X404Y205D01*
Y195D01*
X412Y192D01*
X418Y200D01*
X518Y100D02*
X512Y108D01*
X504Y105D01*
Y95D01*
X512Y92D01*
X518Y100D01*
Y200D02*
X512Y208D01*
X504Y205D01*
Y195D01*
X512Y192D01*
X518Y200D01*
X618Y100D02*
X612Y108D01*
X604Y105D01*
Y95D01*
X612Y92D01*
X618Y100D01*
Y200D02*
X612Y208D01*
X604Y205D01*
Y195D01*
X612Y192D01*
X618Y200D01*
X718Y100D02*
X712Y108D01*
X704Y105D01*
Y95D01*
X712Y92D01*
X718Y100D01*
Y200D02*
X712Y208D01*
X704Y205D01*
Y195D01*
X712Y192D01*
X718Y200D01*
X818Y100D02*
X812Y108D01*
X804Y105D01*
Y95D01*
X812Y92D01*
X818Y100D01*
Y200D02*
X812Y208D01*
X804Y205D01*
Y195D01*
X812Y192D01*
X818Y200D01*
X918Y100D02*
X912Y108D01*
X904Y105D01*
Y95D01*
X912Y92D01*
X918Y100D01*
Y200D02*
X912Y208D01*
X904Y205D01*
Y195D01*
X912Y192D01*
X918Y200D01*
X1018Y100D02*
X1012Y108D01*
X1004Y105D01*
Y95D01*
X1012Y92D01*
X1018Y100D01*
Y200D02*
X1012Y208D01*
X1004Y205D01*
Y195D01*
X1012Y192D01*
X1018Y200D01*
X1118Y100D02*
X1112Y108D01*
X1104Y105D01*
Y95D01*
X1112Y92D01*
X1118Y100D01*
Y200D02*
X1112Y208D01*
X1104Y205D01*
Y195D01*
X1112Y192D01*
X1118Y200D01*
X1218Y100D02*
X1212Y108D01*
X1204Y105D01*
Y95D01*
X1212Y92D01*
X1218Y100D01*
Y200D02*
X1212Y208D01*
X1204Y205D01*
Y195D01*
X1212Y192D01*
X1218Y200D01*
X1318Y100D02*
X1312Y108D01*
X1304Y105D01*
Y95D01*
X1312Y92D01*
X1318Y100D01*
Y200D02*
X1312Y208D01*
X1304Y205D01*
Y195D01*
X1312Y192D01*
X1318Y200D01*
X1418Y100D02*
X1412Y108D01*
X1404Y105D01*
Y95D01*
X1412Y92D01*
X1418Y100D01*
Y200D02*
X1412Y208D01*
X1404Y205D01*
Y195D01*
X1412Y192D01*
X1418Y200D01*
X1518Y100D02*
X1512Y108D01*
X1504Y105D01*
Y95D01*
X1512Y92D01*
X1518Y100D01*
Y200D02*
X1512Y208D01*
X1504Y205D01*
Y195D01*
X1512Y192D01*
X1518Y200D01*
X1618Y100D02*
X1612Y108D01*
X1604Y105D01*
Y95D01*
X1612Y92D01*
X1618Y100D01*
Y200D02*
X1612Y208D01*
X1604Y205D01*
Y195D01*
X1612Y192D01*
X1618Y200D01*
Y0D02*
X1612Y8D01*
X1604Y5D01*
Y-5D01*
X1612Y-8D01*
X1618Y0D01*
Y-100D02*
X1612Y-92D01*
X1604Y-95D01*
Y-105D01*
X1612Y-108D01*
X1618Y-100D01*
X1518Y0D02*
X1512Y8D01*
X1504Y5D01*
Y-5D01*
X1512Y-8D01*
X1518Y0D01*
Y-100D02*
X1512Y-92D01*
X1504Y-95D01*
Y-105D01*
X1512Y-108D01*
X1518Y-100D01*
X1418Y0D02*
X1412Y8D01*
X1404Y5D01*
Y-5D01*
X1412Y-8D01*
X1418Y0D01*
Y-100D02*
X1412Y-92D01*
X1404Y-95D01*
Y-105D01*
X1412Y-108D01*
X1418Y-100D01*
X1318Y0D02*
X1312Y8D01*
X1304Y5D01*
Y-5D01*
X1312Y-8D01*
X1318Y0D01*
Y-100D02*
X1312Y-92D01*
X1304Y-95D01*
Y-105D01*
X1312Y-108D01*
X1318Y-100D01*
X1218Y0D02*
X1212Y8D01*
X1204Y5D01*
Y-5D01*
X1212Y-8D01*
X1218Y0D01*
Y-100D02*
X1212Y-92D01*
X1204Y-95D01*
Y-105D01*
X1212Y-108D01*
X1218Y-100D01*
X1118Y0D02*
X1112Y8D01*
X1104Y5D01*
Y-5D01*
X1112Y-8D01*
X1118Y0D01*
Y-100D02*
X1112Y-92D01*
X1104Y-95D01*
Y-105D01*
X1112Y-108D01*
X1118Y-100D01*
X1018Y0D02*
X1012Y8D01*
X1004Y5D01*
Y-5D01*
X1012Y-8D01*
X1018Y0D01*
Y-100D02*
X1012Y-92D01*
X1004Y-95D01*
Y-105D01*
X1012Y-108D01*
X1018Y-100D01*
X918Y0D02*
X912Y8D01*
X904Y5D01*
Y-5D01*
X912Y-8D01*
X918Y0D01*
Y-100D02*
X912Y-92D01*
X904Y-95D01*
Y-105D01*
X912Y-108D01*
X918Y-100D01*
X818Y0D02*
X812Y8D01*
X804Y5D01*
Y-5D01*
X812Y-8D01*
X818Y0D01*
Y-100D02*
X812Y-92D01*
X804Y-95D01*
Y-105D01*
X812Y-108D01*
X818Y-100D01*
X718Y0D02*
X712Y8D01*
X704Y5D01*
Y-5D01*
X712Y-8D01*
X718Y0D01*
Y-100D02*
X712Y-92D01*
X704Y-95D01*
Y-105D01*
X712Y-108D01*
X718Y-100D01*
X618Y0D02*
X612Y8D01*
X604Y5D01*
Y-5D01*
X612Y-8D01*
X618Y0D01*
Y-100D02*
X612Y-92D01*
X604Y-95D01*
Y-105D01*
X612Y-108D01*
X618Y-100D01*
X518Y0D02*
X512Y8D01*
X504Y5D01*
Y-5D01*
X512Y-8D01*
X518Y0D01*
Y-100D02*
X512Y-92D01*
X504Y-95D01*
Y-105D01*
X512Y-108D01*
X518Y-100D01*
X418Y0D02*
X412Y8D01*
X404Y5D01*
Y-5D01*
X412Y-8D01*
X418Y0D01*
Y-100D02*
X412Y-92D01*
X404Y-95D01*
Y-105D01*
X412Y-108D01*
X418Y-100D01*
X318Y0D02*
X312Y8D01*
X304Y5D01*
Y-5D01*
X312Y-8D01*
X318Y0D01*
Y-100D02*
X312Y-92D01*
X304Y-95D01*
Y-105D01*
X312Y-108D01*
X318Y-100D01*
X218Y0D02*
X212Y8D01*
X204Y5D01*
Y-5D01*
X212Y-8D01*
X218Y0D01*
Y-100D02*
X212Y-92D01*
X204Y-95D01*
Y-105D01*
X212Y-108D01*
X218Y-100D01*
X118D02*
X112Y-92D01*
X104Y-95D01*
Y-105D01*
X112Y-108D01*
X118Y-100D01*
Y0D02*
X112Y8D01*
X104Y5D01*
Y-5D01*
X112Y-8D01*
X118Y0D01*
X5098Y-3660D02*
X5092Y-3652D01*
X5084Y-3655D01*
Y-3665D01*
X5092Y-3668D01*
X5098Y-3660D01*
Y-3260D02*
X5092Y-3252D01*
X5084Y-3255D01*
Y-3265D01*
X5092Y-3268D01*
X5098Y-3260D01*
X5008Y-660D02*
X5002Y-652D01*
X4994Y-655D01*
Y-665D01*
X5002Y-668D01*
X5008Y-660D01*
Y-760D02*
X5002Y-752D01*
X4994Y-755D01*
Y-765D01*
X5002Y-768D01*
X5008Y-760D01*
X2376Y-291D02*
X2371Y-284D01*
X2362Y-286D01*
Y-296D01*
X2371Y-299D01*
X2376Y-291D01*
X2276D02*
X2271Y-284D01*
X2262Y-286D01*
Y-296D01*
X2271Y-299D01*
X2276Y-291D01*
X2528Y380D02*
X2522Y388D01*
X2514Y385D01*
Y375D01*
X2522Y372D01*
X2528Y380D01*
X2128D02*
X2122Y388D01*
X2114Y385D01*
Y375D01*
X2122Y372D01*
X2128Y380D01*
Y210D02*
X2122Y218D01*
X2114Y215D01*
Y205D01*
X2122Y202D01*
X2128Y210D01*
X2528D02*
X2522Y218D01*
X2514Y215D01*
Y205D01*
X2522Y202D01*
X2528Y210D01*
X6028Y560D02*
X6022Y568D01*
X6014Y565D01*
Y555D01*
X6022Y552D01*
X6028Y560D01*
Y460D02*
X6022Y468D01*
X6014Y465D01*
Y455D01*
X6022Y452D01*
X6028Y460D01*
Y360D02*
X6022Y368D01*
X6014Y365D01*
Y355D01*
X6022Y352D01*
X6028Y360D01*
Y260D02*
X6022Y268D01*
X6014Y265D01*
Y255D01*
X6022Y252D01*
X6028Y260D01*
X5728D02*
X5722Y268D01*
X5714Y265D01*
Y255D01*
X5722Y252D01*
X5728Y260D01*
Y360D02*
X5722Y368D01*
X5714Y365D01*
Y355D01*
X5722Y352D01*
X5728Y360D01*
Y460D02*
X5722Y468D01*
X5714Y465D01*
Y455D01*
X5722Y452D01*
X5728Y460D01*
Y560D02*
X5722Y568D01*
X5714Y565D01*
Y555D01*
X5722Y552D01*
X5728Y560D01*
Y160D02*
X5722Y168D01*
X5714Y165D01*
Y155D01*
X5722Y152D01*
X5728Y160D01*
Y60D02*
X5722Y68D01*
X5714Y65D01*
Y55D01*
X5722Y52D01*
X5728Y60D01*
Y-40D02*
X5722Y-32D01*
X5714Y-35D01*
Y-45D01*
X5722Y-48D01*
X5728Y-40D01*
Y-140D02*
X5722Y-132D01*
X5714Y-135D01*
Y-145D01*
X5722Y-148D01*
X5728Y-140D01*
X6028D02*
X6022Y-132D01*
X6014Y-135D01*
Y-145D01*
X6022Y-148D01*
X6028Y-140D01*
Y-40D02*
X6022Y-32D01*
X6014Y-35D01*
Y-45D01*
X6022Y-48D01*
X6028Y-40D01*
Y60D02*
X6022Y68D01*
X6014Y65D01*
Y55D01*
X6022Y52D01*
X6028Y60D01*
Y160D02*
X6022Y168D01*
X6014Y165D01*
Y155D01*
X6022Y152D01*
X6028Y160D01*
X4700Y-4178D02*
X4694Y-4170D01*
X4685Y-4173D01*
Y-4182D01*
X4694Y-4185D01*
X4700Y-4178D01*
Y-4578D02*
X4694Y-4570D01*
X4685Y-4573D01*
Y-4582D01*
X4694Y-4585D01*
X4700Y-4578D01*
X1998Y-1410D02*
X1992Y-1402D01*
X1984Y-1405D01*
Y-1415D01*
X1992Y-1418D01*
X1998Y-1410D01*
X2098D02*
X2092Y-1402D01*
X2084Y-1405D01*
Y-1415D01*
X2092Y-1418D01*
X2098Y-1410D01*
X2198D02*
X2192Y-1402D01*
X2184Y-1405D01*
Y-1415D01*
X2192Y-1418D01*
X2198Y-1410D01*
X2298D02*
X2292Y-1402D01*
X2284Y-1405D01*
Y-1415D01*
X2292Y-1418D01*
X2298Y-1410D01*
Y-1710D02*
X2292Y-1702D01*
X2284Y-1705D01*
Y-1715D01*
X2292Y-1718D01*
X2298Y-1710D01*
X2198D02*
X2192Y-1702D01*
X2184Y-1705D01*
Y-1715D01*
X2192Y-1718D01*
X2198Y-1710D01*
X2098D02*
X2092Y-1702D01*
X2084Y-1705D01*
Y-1715D01*
X2092Y-1718D01*
X2098Y-1710D01*
X1998D02*
X1992Y-1702D01*
X1984Y-1705D01*
Y-1715D01*
X1992Y-1718D01*
X1998Y-1710D01*
X2398D02*
X2392Y-1702D01*
X2384Y-1705D01*
Y-1715D01*
X2392Y-1718D01*
X2398Y-1710D01*
Y-1410D02*
X2392Y-1402D01*
X2384Y-1405D01*
Y-1415D01*
X2392Y-1418D01*
X2398Y-1410D01*
X6928Y-1150D02*
X6922Y-1142D01*
X6914Y-1145D01*
Y-1155D01*
X6922Y-1158D01*
X6928Y-1150D01*
Y-1450D02*
X6922Y-1442D01*
X6914Y-1445D01*
Y-1455D01*
X6922Y-1458D01*
X6928Y-1450D01*
X6528D02*
X6522Y-1442D01*
X6514Y-1445D01*
Y-1455D01*
X6522Y-1458D01*
X6528Y-1450D01*
X6628D02*
X6622Y-1442D01*
X6614Y-1445D01*
Y-1455D01*
X6622Y-1458D01*
X6628Y-1450D01*
X6728D02*
X6722Y-1442D01*
X6714Y-1445D01*
Y-1455D01*
X6722Y-1458D01*
X6728Y-1450D01*
X6828D02*
X6822Y-1442D01*
X6814Y-1445D01*
Y-1455D01*
X6822Y-1458D01*
X6828Y-1450D01*
Y-1150D02*
X6822Y-1142D01*
X6814Y-1145D01*
Y-1155D01*
X6822Y-1158D01*
X6828Y-1150D01*
X6728D02*
X6722Y-1142D01*
X6714Y-1145D01*
Y-1155D01*
X6722Y-1158D01*
X6728Y-1150D01*
X6628D02*
X6622Y-1142D01*
X6614Y-1145D01*
Y-1155D01*
X6622Y-1158D01*
X6628Y-1150D01*
X6528D02*
X6522Y-1142D01*
X6514Y-1145D01*
Y-1155D01*
X6522Y-1158D01*
X6528Y-1150D01*
X3910Y-1388D02*
X3904Y-1380D01*
X3895Y-1383D01*
Y-1392D01*
X3904Y-1395D01*
X3910Y-1388D01*
Y-1788D02*
X3904Y-1780D01*
X3895Y-1783D01*
Y-1792D01*
X3904Y-1795D01*
X3910Y-1788D01*
X4238Y-1580D02*
X4232Y-1572D01*
X4224Y-1575D01*
Y-1585D01*
X4232Y-1588D01*
X4238Y-1580D01*
X4138D02*
X4132Y-1572D01*
X4124Y-1575D01*
Y-1585D01*
X4132Y-1588D01*
X4138Y-1580D01*
X5258Y-1400D02*
X5252Y-1392D01*
X5244Y-1395D01*
Y-1405D01*
X5252Y-1408D01*
X5258Y-1400D01*
X5358D02*
X5352Y-1392D01*
X5344Y-1395D01*
Y-1405D01*
X5352Y-1408D01*
X5358Y-1400D01*
X5558Y-1700D02*
X5552Y-1692D01*
X5544Y-1695D01*
Y-1705D01*
X5552Y-1708D01*
X5558Y-1700D01*
X5458D02*
X5452Y-1692D01*
X5444Y-1695D01*
Y-1705D01*
X5452Y-1708D01*
X5458Y-1700D01*
X5358D02*
X5352Y-1692D01*
X5344Y-1695D01*
Y-1705D01*
X5352Y-1708D01*
X5358Y-1700D01*
X5258D02*
X5252Y-1692D01*
X5244Y-1695D01*
Y-1705D01*
X5252Y-1708D01*
X5258Y-1700D01*
X5658D02*
X5652Y-1692D01*
X5644Y-1695D01*
Y-1705D01*
X5652Y-1708D01*
X5658Y-1700D01*
X5758D02*
X5752Y-1692D01*
X5744Y-1695D01*
Y-1705D01*
X5752Y-1708D01*
X5758Y-1700D01*
X5858D02*
X5852Y-1692D01*
X5844Y-1695D01*
Y-1705D01*
X5852Y-1708D01*
X5858Y-1700D01*
Y-1400D02*
X5852Y-1392D01*
X5844Y-1395D01*
Y-1405D01*
X5852Y-1408D01*
X5858Y-1400D01*
X5758D02*
X5752Y-1392D01*
X5744Y-1395D01*
Y-1405D01*
X5752Y-1408D01*
X5758Y-1400D01*
X5658D02*
X5652Y-1392D01*
X5644Y-1395D01*
Y-1405D01*
X5652Y-1408D01*
X5658Y-1400D01*
X5558D02*
X5552Y-1392D01*
X5544Y-1395D01*
Y-1405D01*
X5552Y-1408D01*
X5558Y-1400D01*
X5458D02*
X5452Y-1392D01*
X5444Y-1395D01*
Y-1405D01*
X5452Y-1408D01*
X5458Y-1400D01*
X4768Y-1780D02*
X4762Y-1772D01*
X4754Y-1775D01*
Y-1785D01*
X4762Y-1788D01*
X4768Y-1780D01*
Y-1380D02*
X4762Y-1372D01*
X4754Y-1375D01*
Y-1385D01*
X4762Y-1388D01*
X4768Y-1380D01*
X4976Y-1782D02*
X4971Y-1775D01*
X4962Y-1778D01*
Y-1787D01*
X4971Y-1790D01*
X4976Y-1782D01*
Y-1382D02*
X4971Y-1375D01*
X4962Y-1378D01*
Y-1387D01*
X4971Y-1390D01*
X4976Y-1382D01*
X5228Y-2350D02*
X5222Y-2342D01*
X5214Y-2345D01*
Y-2355D01*
X5222Y-2358D01*
X5228Y-2350D01*
X5328D02*
X5322Y-2342D01*
X5314Y-2345D01*
Y-2355D01*
X5322Y-2358D01*
X5328Y-2350D01*
X5428D02*
X5422Y-2342D01*
X5414Y-2345D01*
Y-2355D01*
X5422Y-2358D01*
X5428Y-2350D01*
X5528D02*
X5522Y-2342D01*
X5514Y-2345D01*
Y-2355D01*
X5522Y-2358D01*
X5528Y-2350D01*
Y-2650D02*
X5522Y-2642D01*
X5514Y-2645D01*
Y-2655D01*
X5522Y-2658D01*
X5528Y-2650D01*
X5428D02*
X5422Y-2642D01*
X5414Y-2645D01*
Y-2655D01*
X5422Y-2658D01*
X5428Y-2650D01*
X5328D02*
X5322Y-2642D01*
X5314Y-2645D01*
Y-2655D01*
X5322Y-2658D01*
X5328Y-2650D01*
X5228D02*
X5222Y-2642D01*
X5214Y-2645D01*
Y-2655D01*
X5222Y-2658D01*
X5228Y-2650D01*
X5628D02*
X5622Y-2642D01*
X5614Y-2645D01*
Y-2655D01*
X5622Y-2658D01*
X5628Y-2650D01*
X5728D02*
X5722Y-2642D01*
X5714Y-2645D01*
Y-2655D01*
X5722Y-2658D01*
X5728Y-2650D01*
X5828D02*
X5822Y-2642D01*
X5814Y-2645D01*
Y-2655D01*
X5822Y-2658D01*
X5828Y-2650D01*
X5928D02*
X5922Y-2642D01*
X5914Y-2645D01*
Y-2655D01*
X5922Y-2658D01*
X5928Y-2650D01*
Y-2350D02*
X5922Y-2342D01*
X5914Y-2345D01*
Y-2355D01*
X5922Y-2358D01*
X5928Y-2350D01*
X5828D02*
X5822Y-2342D01*
X5814Y-2345D01*
Y-2355D01*
X5822Y-2358D01*
X5828Y-2350D01*
X5728D02*
X5722Y-2342D01*
X5714Y-2345D01*
Y-2355D01*
X5722Y-2358D01*
X5728Y-2350D01*
X5628D02*
X5622Y-2342D01*
X5614Y-2345D01*
Y-2355D01*
X5622Y-2358D01*
X5628Y-2350D01*
X6438Y-1960D02*
X6432Y-1952D01*
X6424Y-1955D01*
Y-1965D01*
X6432Y-1968D01*
X6438Y-1960D01*
X6538D02*
X6532Y-1952D01*
X6524Y-1955D01*
Y-1965D01*
X6532Y-1968D01*
X6538Y-1960D01*
X6738Y-2260D02*
X6732Y-2252D01*
X6724Y-2255D01*
Y-2265D01*
X6732Y-2268D01*
X6738Y-2260D01*
X6638D02*
X6632Y-2252D01*
X6624Y-2255D01*
Y-2265D01*
X6632Y-2268D01*
X6638Y-2260D01*
X6538D02*
X6532Y-2252D01*
X6524Y-2255D01*
Y-2265D01*
X6532Y-2268D01*
X6538Y-2260D01*
X6438D02*
X6432Y-2252D01*
X6424Y-2255D01*
Y-2265D01*
X6432Y-2268D01*
X6438Y-2260D01*
X6838D02*
X6832Y-2252D01*
X6824Y-2255D01*
Y-2265D01*
X6832Y-2268D01*
X6838Y-2260D01*
X6938D02*
X6932Y-2252D01*
X6924Y-2255D01*
Y-2265D01*
X6932Y-2268D01*
X6938Y-2260D01*
X7038D02*
X7032Y-2252D01*
X7024Y-2255D01*
Y-2265D01*
X7032Y-2268D01*
X7038Y-2260D01*
Y-1960D02*
X7032Y-1952D01*
X7024Y-1955D01*
Y-1965D01*
X7032Y-1968D01*
X7038Y-1960D01*
X6938D02*
X6932Y-1952D01*
X6924Y-1955D01*
Y-1965D01*
X6932Y-1968D01*
X6938Y-1960D01*
X6838D02*
X6832Y-1952D01*
X6824Y-1955D01*
Y-1965D01*
X6832Y-1968D01*
X6838Y-1960D01*
X6738D02*
X6732Y-1952D01*
X6724Y-1955D01*
Y-1965D01*
X6732Y-1968D01*
X6738Y-1960D01*
X6638D02*
X6632Y-1952D01*
X6624Y-1955D01*
Y-1965D01*
X6632Y-1968D01*
X6638Y-1960D01*
X386Y-3682D02*
X381Y-3675D01*
X372Y-3678D01*
Y-3687D01*
X381Y-3690D01*
X386Y-3682D01*
Y-3282D02*
X381Y-3275D01*
X372Y-3278D01*
Y-3287D01*
X381Y-3290D01*
X386Y-3282D01*
X-52Y-3420D02*
X-58Y-3412D01*
X-66Y-3415D01*
Y-3425D01*
X-58Y-3428D01*
X-52Y-3420D01*
Y-3520D02*
X-58Y-3512D01*
X-66Y-3515D01*
Y-3525D01*
X-58Y-3528D01*
X-52Y-3520D01*
X186Y-3682D02*
X181Y-3675D01*
X172Y-3678D01*
Y-3687D01*
X181Y-3690D01*
X186Y-3682D01*
Y-3282D02*
X181Y-3275D01*
X172Y-3278D01*
Y-3287D01*
X181Y-3290D01*
X186Y-3282D01*
X648Y-3530D02*
X642Y-3522D01*
X634Y-3525D01*
Y-3535D01*
X642Y-3538D01*
X648Y-3530D01*
Y-3430D02*
X642Y-3422D01*
X634Y-3425D01*
Y-3435D01*
X642Y-3438D01*
X648Y-3430D01*
X898Y-3690D02*
X892Y-3682D01*
X884Y-3685D01*
Y-3695D01*
X892Y-3698D01*
X898Y-3690D01*
Y-3290D02*
X892Y-3282D01*
X884Y-3285D01*
Y-3295D01*
X892Y-3298D01*
X898Y-3290D01*
X-52Y-2420D02*
X-58Y-2412D01*
X-66Y-2415D01*
Y-2425D01*
X-58Y-2428D01*
X-52Y-2420D01*
X48D02*
X42Y-2412D01*
X34Y-2415D01*
Y-2425D01*
X42Y-2428D01*
X48Y-2420D01*
X248Y-2720D02*
X242Y-2712D01*
X234Y-2715D01*
Y-2725D01*
X242Y-2728D01*
X248Y-2720D01*
X148D02*
X142Y-2712D01*
X134Y-2715D01*
Y-2725D01*
X142Y-2728D01*
X148Y-2720D01*
X48D02*
X42Y-2712D01*
X34Y-2715D01*
Y-2725D01*
X42Y-2728D01*
X48Y-2720D01*
X-52D02*
X-58Y-2712D01*
X-66Y-2715D01*
Y-2725D01*
X-58Y-2728D01*
X-52Y-2720D01*
X348D02*
X342Y-2712D01*
X334Y-2715D01*
Y-2725D01*
X342Y-2728D01*
X348Y-2720D01*
X448D02*
X442Y-2712D01*
X434Y-2715D01*
Y-2725D01*
X442Y-2728D01*
X448Y-2720D01*
X548D02*
X542Y-2712D01*
X534Y-2715D01*
Y-2725D01*
X542Y-2728D01*
X548Y-2720D01*
Y-2420D02*
X542Y-2412D01*
X534Y-2415D01*
Y-2425D01*
X542Y-2428D01*
X548Y-2420D01*
X448D02*
X442Y-2412D01*
X434Y-2415D01*
Y-2425D01*
X442Y-2428D01*
X448Y-2420D01*
X348D02*
X342Y-2412D01*
X334Y-2415D01*
Y-2425D01*
X342Y-2428D01*
X348Y-2420D01*
X248D02*
X242Y-2412D01*
X234Y-2415D01*
Y-2425D01*
X242Y-2428D01*
X248Y-2420D01*
X148D02*
X142Y-2412D01*
X134Y-2415D01*
Y-2425D01*
X142Y-2428D01*
X148Y-2420D01*
X6428Y-530D02*
X6422Y-522D01*
X6414Y-525D01*
Y-535D01*
X6422Y-538D01*
X6428Y-530D01*
X6528D02*
X6522Y-522D01*
X6514Y-525D01*
Y-535D01*
X6522Y-538D01*
X6528Y-530D01*
X6628D02*
X6622Y-522D01*
X6614Y-525D01*
Y-535D01*
X6622Y-538D01*
X6628Y-530D01*
X6728D02*
X6722Y-522D01*
X6714Y-525D01*
Y-535D01*
X6722Y-538D01*
X6728Y-530D01*
Y-830D02*
X6722Y-822D01*
X6714Y-825D01*
Y-835D01*
X6722Y-838D01*
X6728Y-830D01*
X6628D02*
X6622Y-822D01*
X6614Y-825D01*
Y-835D01*
X6622Y-838D01*
X6628Y-830D01*
X6528D02*
X6522Y-822D01*
X6514Y-825D01*
Y-835D01*
X6522Y-838D01*
X6528Y-830D01*
X6428D02*
X6422Y-822D01*
X6414Y-825D01*
Y-835D01*
X6422Y-838D01*
X6428Y-830D01*
X6828D02*
X6822Y-822D01*
X6814Y-825D01*
Y-835D01*
X6822Y-838D01*
X6828Y-830D01*
X6928D02*
X6922Y-822D01*
X6914Y-825D01*
Y-835D01*
X6922Y-838D01*
X6928Y-830D01*
X7028D02*
X7022Y-822D01*
X7014Y-825D01*
Y-835D01*
X7022Y-838D01*
X7028Y-830D01*
X7128D02*
X7122Y-822D01*
X7114Y-825D01*
Y-835D01*
X7122Y-838D01*
X7128Y-830D01*
Y-530D02*
X7122Y-522D01*
X7114Y-525D01*
Y-535D01*
X7122Y-538D01*
X7128Y-530D01*
X7028D02*
X7022Y-522D01*
X7014Y-525D01*
Y-535D01*
X7022Y-538D01*
X7028Y-530D01*
X6928D02*
X6922Y-522D01*
X6914Y-525D01*
Y-535D01*
X6922Y-538D01*
X6928Y-530D01*
X6828D02*
X6822Y-522D01*
X6814Y-525D01*
Y-535D01*
X6822Y-538D01*
X6828Y-530D01*
X5258D02*
X5252Y-522D01*
X5244Y-525D01*
Y-535D01*
X5252Y-538D01*
X5258Y-530D01*
X5358D02*
X5352Y-522D01*
X5344Y-525D01*
Y-535D01*
X5352Y-538D01*
X5358Y-530D01*
X5558Y-830D02*
X5552Y-822D01*
X5544Y-825D01*
Y-835D01*
X5552Y-838D01*
X5558Y-830D01*
X5458D02*
X5452Y-822D01*
X5444Y-825D01*
Y-835D01*
X5452Y-838D01*
X5458Y-830D01*
X5358D02*
X5352Y-822D01*
X5344Y-825D01*
Y-835D01*
X5352Y-838D01*
X5358Y-830D01*
X5258D02*
X5252Y-822D01*
X5244Y-825D01*
Y-835D01*
X5252Y-838D01*
X5258Y-830D01*
X5658D02*
X5652Y-822D01*
X5644Y-825D01*
Y-835D01*
X5652Y-838D01*
X5658Y-830D01*
X5758D02*
X5752Y-822D01*
X5744Y-825D01*
Y-835D01*
X5752Y-838D01*
X5758Y-830D01*
X5858D02*
X5852Y-822D01*
X5844Y-825D01*
Y-835D01*
X5852Y-838D01*
X5858Y-830D01*
Y-530D02*
X5852Y-522D01*
X5844Y-525D01*
Y-535D01*
X5852Y-538D01*
X5858Y-530D01*
X5758D02*
X5752Y-522D01*
X5744Y-525D01*
Y-535D01*
X5752Y-538D01*
X5758Y-530D01*
X5658D02*
X5652Y-522D01*
X5644Y-525D01*
Y-535D01*
X5652Y-538D01*
X5658Y-530D01*
X5558D02*
X5552Y-522D01*
X5544Y-525D01*
Y-535D01*
X5552Y-538D01*
X5558Y-530D01*
X5458D02*
X5452Y-522D01*
X5444Y-525D01*
Y-535D01*
X5452Y-538D01*
X5458Y-530D01*
X1568Y-3540D02*
X1562Y-3532D01*
X1554Y-3535D01*
Y-3545D01*
X1562Y-3548D01*
X1568Y-3540D01*
Y-3440D02*
X1562Y-3432D01*
X1554Y-3435D01*
Y-3445D01*
X1562Y-3448D01*
X1568Y-3440D01*
X1098Y-3690D02*
X1092Y-3682D01*
X1084Y-3685D01*
Y-3695D01*
X1092Y-3698D01*
X1098Y-3690D01*
Y-3290D02*
X1092Y-3282D01*
X1084Y-3285D01*
Y-3295D01*
X1092Y-3298D01*
X1098Y-3290D01*
X4878Y-2560D02*
X4872Y-2552D01*
X4864Y-2555D01*
Y-2565D01*
X4872Y-2568D01*
X4878Y-2560D01*
Y-2460D02*
X4872Y-2452D01*
X4864Y-2455D01*
Y-2465D01*
X4872Y-2468D01*
X4878Y-2460D01*
X1306Y-3692D02*
X1301Y-3685D01*
X1292Y-3688D01*
Y-3697D01*
X1301Y-3700D01*
X1306Y-3692D01*
Y-3292D02*
X1301Y-3285D01*
X1292Y-3288D01*
Y-3297D01*
X1301Y-3300D01*
X1306Y-3292D01*
X4770Y-508D02*
X4764Y-500D01*
X4755Y-503D01*
Y-512D01*
X4764Y-515D01*
X4770Y-508D01*
Y-908D02*
X4764Y-900D01*
X4755Y-903D01*
Y-912D01*
X4764Y-915D01*
X4770Y-908D01*
X4868Y-3260D02*
X4862Y-3252D01*
X4854Y-3255D01*
Y-3265D01*
X4862Y-3268D01*
X4868Y-3260D01*
Y-3660D02*
X4862Y-3652D01*
X4854Y-3655D01*
Y-3665D01*
X4862Y-3668D01*
X4868Y-3660D01*
X7128Y-38D02*
X7122Y-30D01*
X7114Y-33D01*
Y-43D01*
X7122Y-46D01*
X7128Y-38D01*
Y362D02*
X7122Y370D01*
X7114Y367D01*
Y357D01*
X7122Y354D01*
X7128Y362D01*
X6978Y527D02*
X6972Y535D01*
X6964Y532D01*
Y522D01*
X6972Y519D01*
X6978Y527D01*
X6878D02*
X6872Y535D01*
X6864Y532D01*
Y522D01*
X6872Y519D01*
X6878Y527D01*
X6778D02*
X6772Y535D01*
X6764Y532D01*
Y522D01*
X6772Y519D01*
X6778Y527D01*
X6678D02*
X6672Y535D01*
X6664Y532D01*
Y522D01*
X6672Y519D01*
X6678Y527D01*
X6578D02*
X6572Y535D01*
X6564Y532D01*
Y522D01*
X6572Y519D01*
X6578Y527D01*
X6978Y-73D02*
X6972Y-65D01*
X6964Y-68D01*
Y-78D01*
X6972Y-81D01*
X6978Y-73D01*
X6878D02*
X6872Y-65D01*
X6864Y-68D01*
Y-78D01*
X6872Y-81D01*
X6878Y-73D01*
X6578D02*
X6572Y-65D01*
X6564Y-68D01*
Y-78D01*
X6572Y-81D01*
X6578Y-73D01*
X6778D02*
X6772Y-65D01*
X6764Y-68D01*
Y-78D01*
X6772Y-81D01*
X6778Y-73D01*
X6678D02*
X6672Y-65D01*
X6664Y-68D01*
Y-78D01*
X6672Y-81D01*
X6678Y-73D01*
X636Y-1775D02*
X631Y-1768D01*
X622Y-1771D01*
Y-1780D01*
X631Y-1783D01*
X636Y-1775D01*
Y-1375D02*
X631Y-1368D01*
X622Y-1371D01*
Y-1380D01*
X631Y-1383D01*
X636Y-1375D01*
X1083Y-1703D02*
X1077Y-1695D01*
X1069Y-1698D01*
Y-1708D01*
X1077Y-1711D01*
X1083Y-1703D01*
X1183D02*
X1177Y-1695D01*
X1169Y-1698D01*
Y-1708D01*
X1177Y-1711D01*
X1183Y-1703D01*
X1283D02*
X1277Y-1695D01*
X1269Y-1698D01*
Y-1708D01*
X1277Y-1711D01*
X1283Y-1703D01*
X1383D02*
X1377Y-1695D01*
X1369Y-1698D01*
Y-1708D01*
X1377Y-1711D01*
X1383Y-1703D01*
Y-1403D02*
X1377Y-1395D01*
X1369Y-1398D01*
Y-1408D01*
X1377Y-1411D01*
X1383Y-1403D01*
X1283D02*
X1277Y-1395D01*
X1269Y-1398D01*
Y-1408D01*
X1277Y-1411D01*
X1283Y-1403D01*
X1183D02*
X1177Y-1395D01*
X1169Y-1398D01*
Y-1408D01*
X1177Y-1411D01*
X1183Y-1403D01*
X1083D02*
X1077Y-1395D01*
X1069Y-1398D01*
Y-1408D01*
X1077Y-1411D01*
X1083Y-1403D01*
X853Y-1523D02*
X847Y-1515D01*
X839Y-1518D01*
Y-1528D01*
X847Y-1531D01*
X853Y-1523D01*
Y-1623D02*
X847Y-1615D01*
X839Y-1618D01*
Y-1628D01*
X847Y-1631D01*
X853Y-1623D01*
X1563Y-1453D02*
X1557Y-1445D01*
X1549Y-1448D01*
Y-1458D01*
X1557Y-1461D01*
X1563Y-1453D01*
Y-1653D02*
X1557Y-1645D01*
X1549Y-1648D01*
Y-1658D01*
X1557Y-1661D01*
X1563Y-1653D01*
X2768Y-1410D02*
X2762Y-1402D01*
X2754Y-1405D01*
Y-1415D01*
X2762Y-1418D01*
X2768Y-1410D01*
X2868D02*
X2862Y-1402D01*
X2854Y-1405D01*
Y-1415D01*
X2862Y-1418D01*
X2868Y-1410D01*
X2968D02*
X2962Y-1402D01*
X2954Y-1405D01*
Y-1415D01*
X2962Y-1418D01*
X2968Y-1410D01*
X3068D02*
X3062Y-1402D01*
X3054Y-1405D01*
Y-1415D01*
X3062Y-1418D01*
X3068Y-1410D01*
Y-1710D02*
X3062Y-1702D01*
X3054Y-1705D01*
Y-1715D01*
X3062Y-1718D01*
X3068Y-1710D01*
X2968D02*
X2962Y-1702D01*
X2954Y-1705D01*
Y-1715D01*
X2962Y-1718D01*
X2968Y-1710D01*
X2868D02*
X2862Y-1702D01*
X2854Y-1705D01*
Y-1715D01*
X2862Y-1718D01*
X2868Y-1710D01*
X2768D02*
X2762Y-1702D01*
X2754Y-1705D01*
Y-1715D01*
X2762Y-1718D01*
X2768Y-1710D01*
X3168D02*
X3162Y-1702D01*
X3154Y-1705D01*
Y-1715D01*
X3162Y-1718D01*
X3168Y-1710D01*
X3268D02*
X3262Y-1702D01*
X3254Y-1705D01*
Y-1715D01*
X3262Y-1718D01*
X3268Y-1710D01*
X3368D02*
X3362Y-1702D01*
X3354Y-1705D01*
Y-1715D01*
X3362Y-1718D01*
X3368Y-1710D01*
X3468D02*
X3462Y-1702D01*
X3454Y-1705D01*
Y-1715D01*
X3462Y-1718D01*
X3468Y-1710D01*
Y-1410D02*
X3462Y-1402D01*
X3454Y-1405D01*
Y-1415D01*
X3462Y-1418D01*
X3468Y-1410D01*
X3368D02*
X3362Y-1402D01*
X3354Y-1405D01*
Y-1415D01*
X3362Y-1418D01*
X3368Y-1410D01*
X3268D02*
X3262Y-1402D01*
X3254Y-1405D01*
Y-1415D01*
X3262Y-1418D01*
X3268Y-1410D01*
X3168D02*
X3162Y-1402D01*
X3154Y-1405D01*
Y-1415D01*
X3162Y-1418D01*
X3168Y-1410D01*
X1038Y-2410D02*
X1032Y-2402D01*
X1024Y-2405D01*
Y-2415D01*
X1032Y-2418D01*
X1038Y-2410D01*
X1138D02*
X1132Y-2402D01*
X1124Y-2405D01*
Y-2415D01*
X1132Y-2418D01*
X1138Y-2410D01*
X1338Y-2710D02*
X1332Y-2702D01*
X1324Y-2705D01*
Y-2715D01*
X1332Y-2718D01*
X1338Y-2710D01*
X1238D02*
X1232Y-2702D01*
X1224Y-2705D01*
Y-2715D01*
X1232Y-2718D01*
X1238Y-2710D01*
X1138D02*
X1132Y-2702D01*
X1124Y-2705D01*
Y-2715D01*
X1132Y-2718D01*
X1138Y-2710D01*
X1038D02*
X1032Y-2702D01*
X1024Y-2705D01*
Y-2715D01*
X1032Y-2718D01*
X1038Y-2710D01*
X1438D02*
X1432Y-2702D01*
X1424Y-2705D01*
Y-2715D01*
X1432Y-2718D01*
X1438Y-2710D01*
X1538D02*
X1532Y-2702D01*
X1524Y-2705D01*
Y-2715D01*
X1532Y-2718D01*
X1538Y-2710D01*
X1638D02*
X1632Y-2702D01*
X1624Y-2705D01*
Y-2715D01*
X1632Y-2718D01*
X1638Y-2710D01*
Y-2410D02*
X1632Y-2402D01*
X1624Y-2405D01*
Y-2415D01*
X1632Y-2418D01*
X1638Y-2410D01*
X1538D02*
X1532Y-2402D01*
X1524Y-2405D01*
Y-2415D01*
X1532Y-2418D01*
X1538Y-2410D01*
X1438D02*
X1432Y-2402D01*
X1424Y-2405D01*
Y-2415D01*
X1432Y-2418D01*
X1438Y-2410D01*
X1338D02*
X1332Y-2402D01*
X1324Y-2405D01*
Y-2415D01*
X1332Y-2418D01*
X1338Y-2410D01*
X1238D02*
X1232Y-2402D01*
X1224Y-2405D01*
Y-2415D01*
X1232Y-2418D01*
X1238Y-2410D01*
X2888Y-4380D02*
X2882Y-4372D01*
X2874Y-4375D01*
Y-4385D01*
X2882Y-4388D01*
X2888Y-4380D01*
Y-4280D02*
X2882Y-4272D01*
X2874Y-4275D01*
Y-4285D01*
X2882Y-4288D01*
X2888Y-4280D01*
X3338Y-4510D02*
X3332Y-4502D01*
X3324Y-4505D01*
Y-4515D01*
X3332Y-4518D01*
X3338Y-4510D01*
Y-4110D02*
X3332Y-4102D01*
X3324Y-4105D01*
Y-4115D01*
X3332Y-4118D01*
X3338Y-4110D01*
X3898Y-3360D02*
X3892Y-3352D01*
X3884Y-3355D01*
Y-3365D01*
X3892Y-3368D01*
X3898Y-3360D01*
X3998D02*
X3992Y-3352D01*
X3984Y-3355D01*
Y-3365D01*
X3992Y-3368D01*
X3998Y-3360D01*
X4198Y-3660D02*
X4192Y-3652D01*
X4184Y-3655D01*
Y-3665D01*
X4192Y-3668D01*
X4198Y-3660D01*
X4098D02*
X4092Y-3652D01*
X4084Y-3655D01*
Y-3665D01*
X4092Y-3668D01*
X4098Y-3660D01*
X3998D02*
X3992Y-3652D01*
X3984Y-3655D01*
Y-3665D01*
X3992Y-3668D01*
X3998Y-3660D01*
X3898D02*
X3892Y-3652D01*
X3884Y-3655D01*
Y-3665D01*
X3892Y-3668D01*
X3898Y-3660D01*
X4298D02*
X4292Y-3652D01*
X4284Y-3655D01*
Y-3665D01*
X4292Y-3668D01*
X4298Y-3660D01*
X4398D02*
X4392Y-3652D01*
X4384Y-3655D01*
Y-3665D01*
X4392Y-3668D01*
X4398Y-3660D01*
X4498D02*
X4492Y-3652D01*
X4484Y-3655D01*
Y-3665D01*
X4492Y-3668D01*
X4498Y-3660D01*
Y-3360D02*
X4492Y-3352D01*
X4484Y-3355D01*
Y-3365D01*
X4492Y-3368D01*
X4498Y-3360D01*
X4398D02*
X4392Y-3352D01*
X4384Y-3355D01*
Y-3365D01*
X4392Y-3368D01*
X4398Y-3360D01*
X4298D02*
X4292Y-3352D01*
X4284Y-3355D01*
Y-3365D01*
X4292Y-3368D01*
X4298Y-3360D01*
X4198D02*
X4192Y-3352D01*
X4184Y-3355D01*
Y-3365D01*
X4192Y-3368D01*
X4198Y-3360D01*
X4098D02*
X4092Y-3352D01*
X4084Y-3355D01*
Y-3365D01*
X4092Y-3368D01*
X4098Y-3360D01*
X3618Y-4360D02*
X3612Y-4352D01*
X3604Y-4355D01*
Y-4365D01*
X3612Y-4368D01*
X3618Y-4360D01*
Y-4260D02*
X3612Y-4252D01*
X3604Y-4255D01*
Y-4265D01*
X3612Y-4268D01*
X3618Y-4260D01*
X2630Y-4108D02*
X2624Y-4100D01*
X2615Y-4103D01*
Y-4112D01*
X2624Y-4115D01*
X2630Y-4108D01*
Y-4508D02*
X2624Y-4500D01*
X2615Y-4503D01*
Y-4512D01*
X2624Y-4515D01*
X2630Y-4508D01*
X3141Y-4105D02*
X3135Y-4097D01*
X3127Y-4100D01*
Y-4110D01*
X3135Y-4113D01*
X3141Y-4105D01*
Y-4505D02*
X3135Y-4497D01*
X3127Y-4500D01*
Y-4510D01*
X3135Y-4513D01*
X3141Y-4505D01*
X2696Y-3712D02*
X2691Y-3705D01*
X2682Y-3708D01*
Y-3717D01*
X2691Y-3720D01*
X2696Y-3712D01*
Y-3312D02*
X2691Y-3305D01*
X2682Y-3308D01*
Y-3317D01*
X2691Y-3320D01*
X2696Y-3312D01*
X3238Y-2730D02*
X3232Y-2722D01*
X3224Y-2725D01*
Y-2735D01*
X3232Y-2738D01*
X3238Y-2730D01*
Y-2330D02*
X3232Y-2322D01*
X3224Y-2325D01*
Y-2335D01*
X3232Y-2338D01*
X3238Y-2330D01*
X3428D02*
X3422Y-2322D01*
X3414Y-2325D01*
Y-2335D01*
X3422Y-2338D01*
X3428Y-2330D01*
Y-2730D02*
X3422Y-2722D01*
X3414Y-2725D01*
Y-2735D01*
X3422Y-2738D01*
X3428Y-2730D01*
X2128Y-3310D02*
X2122Y-3302D01*
X2114Y-3305D01*
Y-3315D01*
X2122Y-3318D01*
X2128Y-3310D01*
Y-3710D02*
X2122Y-3702D01*
X2114Y-3705D01*
Y-3715D01*
X2122Y-3718D01*
X2128Y-3710D01*
X2328D02*
X2322Y-3702D01*
X2314Y-3705D01*
Y-3715D01*
X2322Y-3718D01*
X2328Y-3710D01*
Y-3310D02*
X2322Y-3302D01*
X2314Y-3305D01*
Y-3315D01*
X2322Y-3318D01*
X2328Y-3310D01*
X3608Y-2630D02*
X3602Y-2622D01*
X3594Y-2625D01*
Y-2635D01*
X3602Y-2638D01*
X3608Y-2630D01*
Y-2430D02*
X3602Y-2422D01*
X3594Y-2425D01*
Y-2435D01*
X3602Y-2438D01*
X3608Y-2430D01*
X2948Y-3560D02*
X2942Y-3552D01*
X2934Y-3555D01*
Y-3565D01*
X2942Y-3568D01*
X2948Y-3560D01*
Y-3460D02*
X2942Y-3452D01*
X2934Y-3455D01*
Y-3465D01*
X2942Y-3468D01*
X2948Y-3460D01*
X7058Y-4570D02*
X7052Y-4562D01*
X7044Y-4565D01*
Y-4575D01*
X7052Y-4578D01*
X7058Y-4570D01*
Y-4170D02*
X7052Y-4162D01*
X7044Y-4165D01*
Y-4175D01*
X7052Y-4178D01*
X7058Y-4170D01*
X2066Y-2722D02*
X2061Y-2715D01*
X2052Y-2718D01*
Y-2727D01*
X2061Y-2730D01*
X2066Y-2722D01*
Y-2322D02*
X2061Y-2315D01*
X2052Y-2318D01*
Y-2327D01*
X2061Y-2330D01*
X2066Y-2322D01*
X3918Y-2350D02*
X3912Y-2342D01*
X3904Y-2345D01*
Y-2355D01*
X3912Y-2358D01*
X3918Y-2350D01*
X4018D02*
X4012Y-2342D01*
X4004Y-2345D01*
Y-2355D01*
X4012Y-2358D01*
X4018Y-2350D01*
X4218Y-2650D02*
X4212Y-2642D01*
X4204Y-2645D01*
Y-2655D01*
X4212Y-2658D01*
X4218Y-2650D01*
X4118D02*
X4112Y-2642D01*
X4104Y-2645D01*
Y-2655D01*
X4112Y-2658D01*
X4118Y-2650D01*
X4018D02*
X4012Y-2642D01*
X4004Y-2645D01*
Y-2655D01*
X4012Y-2658D01*
X4018Y-2650D01*
X3918D02*
X3912Y-2642D01*
X3904Y-2645D01*
Y-2655D01*
X3912Y-2658D01*
X3918Y-2650D01*
X4318D02*
X4312Y-2642D01*
X4304Y-2645D01*
Y-2655D01*
X4312Y-2658D01*
X4318Y-2650D01*
X4418D02*
X4412Y-2642D01*
X4404Y-2645D01*
Y-2655D01*
X4412Y-2658D01*
X4418Y-2650D01*
X4518D02*
X4512Y-2642D01*
X4504Y-2645D01*
Y-2655D01*
X4512Y-2658D01*
X4518Y-2650D01*
Y-2350D02*
X4512Y-2342D01*
X4504Y-2345D01*
Y-2355D01*
X4512Y-2358D01*
X4518Y-2350D01*
X4418D02*
X4412Y-2342D01*
X4404Y-2345D01*
Y-2355D01*
X4412Y-2358D01*
X4418Y-2350D01*
X4318D02*
X4312Y-2342D01*
X4304Y-2345D01*
Y-2355D01*
X4312Y-2358D01*
X4318Y-2350D01*
X4218D02*
X4212Y-2342D01*
X4204Y-2345D01*
Y-2355D01*
X4212Y-2358D01*
X4218Y-2350D01*
X4118D02*
X4112Y-2342D01*
X4104Y-2345D01*
Y-2355D01*
X4112Y-2358D01*
X4118Y-2350D01*
X2518Y-3630D02*
X2512Y-3622D01*
X2504Y-3625D01*
Y-3635D01*
X2512Y-3638D01*
X2518Y-3630D01*
Y-3430D02*
X2512Y-3422D01*
X2504Y-3425D01*
Y-3435D01*
X2512Y-3438D01*
X2518Y-3430D01*
X3458Y-3710D02*
X3452Y-3702D01*
X3444Y-3705D01*
Y-3715D01*
X3452Y-3718D01*
X3458Y-3710D01*
Y-3310D02*
X3452Y-3302D01*
X3444Y-3305D01*
Y-3315D01*
X3452Y-3318D01*
X3458Y-3310D01*
X6808Y-4400D02*
X6802Y-4392D01*
X6794Y-4395D01*
Y-4405D01*
X6802Y-4408D01*
X6808Y-4400D01*
X6708D02*
X6702Y-4392D01*
X6694Y-4395D01*
Y-4405D01*
X6702Y-4408D01*
X6708Y-4400D01*
X2396Y-2531D02*
X2391Y-2524D01*
X2382Y-2526D01*
Y-2536D01*
X2391Y-2539D01*
X2396Y-2531D01*
X2296D02*
X2291Y-2524D01*
X2282Y-2526D01*
Y-2536D01*
X2291Y-2539D01*
X2296Y-2531D01*
X5626Y-4582D02*
X5621Y-4575D01*
X5612Y-4578D01*
Y-4587D01*
X5621Y-4590D01*
X5626Y-4582D01*
Y-4182D02*
X5621Y-4175D01*
X5612Y-4178D01*
Y-4187D01*
X5621Y-4190D01*
X5626Y-4182D01*
X6448Y-3620D02*
X6442Y-3612D01*
X6434Y-3615D01*
Y-3625D01*
X6442Y-3628D01*
X6448Y-3620D01*
X6548D02*
X6542Y-3612D01*
X6534Y-3615D01*
Y-3625D01*
X6542Y-3628D01*
X6548Y-3620D01*
X6648D02*
X6642Y-3612D01*
X6634Y-3615D01*
Y-3625D01*
X6642Y-3628D01*
X6648Y-3620D01*
X6748D02*
X6742Y-3612D01*
X6734Y-3615D01*
Y-3625D01*
X6742Y-3628D01*
X6748Y-3620D01*
Y-3320D02*
X6742Y-3312D01*
X6734Y-3315D01*
Y-3325D01*
X6742Y-3328D01*
X6748Y-3320D01*
X6648D02*
X6642Y-3312D01*
X6634Y-3315D01*
Y-3325D01*
X6642Y-3328D01*
X6648Y-3320D01*
X6548D02*
X6542Y-3312D01*
X6534Y-3315D01*
Y-3325D01*
X6542Y-3328D01*
X6548Y-3320D01*
X6448D02*
X6442Y-3312D01*
X6434Y-3315D01*
Y-3325D01*
X6442Y-3328D01*
X6448Y-3320D01*
X5088Y-4250D02*
X5082Y-4242D01*
X5074Y-4245D01*
Y-4255D01*
X5082Y-4258D01*
X5088Y-4250D01*
X4911Y-4506D02*
X4905Y-4498D01*
X4896Y-4501D01*
Y-4511D01*
X4905Y-4514D01*
X4911Y-4506D01*
X5088D02*
X5082Y-4498D01*
X5074Y-4501D01*
Y-4511D01*
X5082Y-4514D01*
X5088Y-4506D01*
X4911Y-4250D02*
X4905Y-4242D01*
X4896Y-4245D01*
Y-4255D01*
X4905Y-4258D01*
X4911Y-4250D01*
X6045D02*
X6040Y-4242D01*
X6031Y-4245D01*
Y-4255D01*
X6040Y-4258D01*
X6045Y-4250D01*
X5868Y-4506D02*
X5862Y-4498D01*
X5854Y-4501D01*
Y-4511D01*
X5862Y-4514D01*
X5868Y-4506D01*
X6045D02*
X6040Y-4498D01*
X6031Y-4501D01*
Y-4511D01*
X6040Y-4514D01*
X6045Y-4506D01*
X5868Y-4250D02*
X5862Y-4242D01*
X5854Y-4245D01*
Y-4255D01*
X5862Y-4258D01*
X5868Y-4250D01*
X2878Y-2730D02*
X2872Y-2722D01*
X2864Y-2725D01*
Y-2735D01*
X2872Y-2738D01*
X2878Y-2730D01*
Y-2330D02*
X2872Y-2322D01*
X2864Y-2325D01*
Y-2335D01*
X2872Y-2338D01*
X2878Y-2330D01*
X5488Y-3660D02*
X5482Y-3652D01*
X5474Y-3655D01*
Y-3665D01*
X5482Y-3668D01*
X5488Y-3660D01*
Y-3260D02*
X5482Y-3252D01*
X5474Y-3255D01*
Y-3265D01*
X5482Y-3268D01*
X5488Y-3260D01*
X3046Y-2732D02*
X3041Y-2725D01*
X3032Y-2728D01*
Y-2737D01*
X3041Y-2740D01*
X3046Y-2732D01*
Y-2332D02*
X3041Y-2325D01*
X3032Y-2328D01*
Y-2337D01*
X3041Y-2340D01*
X3046Y-2332D01*
X3668Y-3310D02*
X3662Y-3302D01*
X3654Y-3305D01*
Y-3315D01*
X3662Y-3318D01*
X3668Y-3310D01*
Y-3710D02*
X3662Y-3702D01*
X3654Y-3705D01*
Y-3715D01*
X3662Y-3718D01*
X3668Y-3710D01*
X5298Y-3350D02*
X5292Y-3342D01*
X5284Y-3345D01*
Y-3355D01*
X5292Y-3358D01*
X5298Y-3350D01*
Y-3550D02*
X5292Y-3542D01*
X5284Y-3545D01*
Y-3555D01*
X5292Y-3558D01*
X5298Y-3550D01*
X6038Y-3430D02*
X6032Y-3422D01*
X6024Y-3425D01*
Y-3435D01*
X6032Y-3438D01*
X6038Y-3430D01*
Y-3530D02*
X6032Y-3522D01*
X6024Y-3525D01*
Y-3535D01*
X6032Y-3538D01*
X6038Y-3530D01*
X5706Y-3662D02*
X5701Y-3655D01*
X5692Y-3658D01*
Y-3667D01*
X5701Y-3670D01*
X5706Y-3662D01*
Y-3262D02*
X5701Y-3255D01*
X5692Y-3258D01*
Y-3267D01*
X5701Y-3270D01*
X5706Y-3262D01*
X7018Y-3580D02*
X7012Y-3572D01*
X7004Y-3575D01*
Y-3585D01*
X7012Y-3588D01*
X7018Y-3580D01*
Y-3380D02*
X7012Y-3372D01*
X7004Y-3375D01*
Y-3385D01*
X7012Y-3388D01*
X7018Y-3380D01*
M02*
