G04 Layer_Physical_Order=2*
G04 Layer_Color=16711680*
%FSLAX23Y23*%
%MOIN*%
G70*
G01*
G75*
%ADD10C,0.012*%
%ADD11C,0.020*%
%ADD12C,0.063*%
%ADD13C,0.079*%
%ADD14C,0.055*%
%ADD15R,0.055X0.055*%
%ADD16R,0.079X0.063*%
%ADD17O,0.079X0.063*%
%ADD18O,0.063X0.079*%
%ADD19R,0.063X0.079*%
%ADD20R,0.087X0.087*%
%ADD21C,0.087*%
%ADD22R,0.055X0.055*%
%ADD23C,0.059*%
G36*
X7432Y-4891D02*
X-418D01*
Y990D01*
X7432D01*
Y-4891D01*
D02*
G37*
%LPC*%
G36*
X3230Y-2678D02*
X3217Y-2680D01*
X3204Y-2685D01*
X3193Y-2693D01*
X3185Y-2704D01*
X3180Y-2717D01*
X3178Y-2730D01*
X3180Y-2743D01*
X3185Y-2756D01*
X3193Y-2767D01*
X3204Y-2775D01*
X3217Y-2780D01*
X3230Y-2782D01*
X3243Y-2780D01*
X3256Y-2775D01*
X3267Y-2767D01*
X3275Y-2756D01*
X3280Y-2743D01*
X3282Y-2730D01*
X3280Y-2717D01*
X3275Y-2704D01*
X3267Y-2693D01*
X3256Y-2685D01*
X3243Y-2680D01*
X3230Y-2678D01*
D02*
G37*
G36*
X2640Y-2415D02*
X2630Y-2417D01*
X2620Y-2421D01*
X2612Y-2427D01*
X2606Y-2435D01*
X2602Y-2445D01*
X2600Y-2455D01*
X2602Y-2465D01*
X2606Y-2475D01*
X2612Y-2483D01*
X2620Y-2489D01*
X2622Y-2490D01*
Y-2495D01*
X2620Y-2496D01*
X2612Y-2502D01*
X2606Y-2510D01*
X2602Y-2520D01*
X2600Y-2530D01*
X2602Y-2540D01*
X2606Y-2550D01*
X2612Y-2558D01*
X2618Y-2562D01*
X2616Y-2567D01*
X2602D01*
Y-2600D01*
X2640D01*
X2678D01*
Y-2567D01*
X2664D01*
X2662Y-2562D01*
X2668Y-2558D01*
X2674Y-2550D01*
X2678Y-2540D01*
X2680Y-2530D01*
X2678Y-2520D01*
X2674Y-2510D01*
X2668Y-2502D01*
X2660Y-2496D01*
X2658Y-2495D01*
Y-2490D01*
X2660Y-2489D01*
X2668Y-2483D01*
X2674Y-2475D01*
X2675Y-2473D01*
X2838D01*
X2852Y-2487D01*
Y-2682D01*
X2844Y-2685D01*
X2833Y-2693D01*
X2825Y-2704D01*
X2820Y-2717D01*
X2818Y-2730D01*
X2820Y-2743D01*
X2825Y-2756D01*
X2833Y-2767D01*
X2844Y-2775D01*
X2857Y-2780D01*
X2870Y-2782D01*
X2883Y-2780D01*
X2896Y-2775D01*
X2907Y-2767D01*
X2915Y-2756D01*
X2920Y-2743D01*
X2922Y-2730D01*
X2920Y-2717D01*
X2915Y-2704D01*
X2907Y-2693D01*
X2896Y-2685D01*
X2888Y-2682D01*
Y-2480D01*
X2887Y-2473D01*
X2883Y-2467D01*
X2858Y-2442D01*
X2852Y-2438D01*
X2845Y-2437D01*
X2675D01*
X2674Y-2435D01*
X2668Y-2427D01*
X2660Y-2421D01*
X2650Y-2417D01*
X2640Y-2415D01*
D02*
G37*
G36*
X140Y-2668D02*
X129Y-2670D01*
X118Y-2674D01*
X109Y-2681D01*
X102Y-2690D01*
X98Y-2701D01*
X96Y-2712D01*
Y-2728D01*
X98Y-2739D01*
X102Y-2750D01*
X109Y-2759D01*
X118Y-2766D01*
X129Y-2770D01*
X140Y-2772D01*
X151Y-2770D01*
X162Y-2766D01*
X171Y-2759D01*
X178Y-2750D01*
X182Y-2739D01*
X184Y-2728D01*
Y-2712D01*
X182Y-2701D01*
X178Y-2690D01*
X171Y-2681D01*
X162Y-2674D01*
X151Y-2670D01*
X140Y-2668D01*
D02*
G37*
G36*
X-17Y-2669D02*
X-103D01*
Y-2702D01*
X-140D01*
X-147Y-2703D01*
X-153Y-2707D01*
X-183Y-2737D01*
X-187Y-2743D01*
X-188Y-2750D01*
Y-3490D01*
X-187Y-3497D01*
X-183Y-3503D01*
X-153Y-3533D01*
X-147Y-3537D01*
X-140Y-3538D01*
X-107D01*
X-106Y-3542D01*
X-99Y-3551D01*
X-90Y-3558D01*
X-79Y-3562D01*
X-68Y-3564D01*
X-52D01*
X-41Y-3562D01*
X-30Y-3558D01*
X-21Y-3551D01*
X-14Y-3542D01*
X-10Y-3531D01*
X-8Y-3520D01*
X-10Y-3509D01*
X-14Y-3498D01*
X-21Y-3489D01*
X-30Y-3482D01*
X-41Y-3478D01*
X-52Y-3476D01*
X-68D01*
X-79Y-3478D01*
X-90Y-3482D01*
X-99Y-3489D01*
X-106Y-3498D01*
X-107Y-3502D01*
X-133D01*
X-152Y-3483D01*
Y-2757D01*
X-133Y-2738D01*
X-103D01*
Y-2771D01*
X-17D01*
Y-2669D01*
D02*
G37*
G36*
X340Y-2668D02*
X329Y-2670D01*
X318Y-2674D01*
X309Y-2681D01*
X302Y-2690D01*
X298Y-2701D01*
X296Y-2712D01*
Y-2728D01*
X298Y-2739D01*
X302Y-2750D01*
X309Y-2759D01*
X318Y-2766D01*
X329Y-2770D01*
X340Y-2772D01*
X351Y-2770D01*
X362Y-2766D01*
X371Y-2759D01*
X378Y-2750D01*
X382Y-2739D01*
X384Y-2728D01*
Y-2712D01*
X382Y-2701D01*
X378Y-2690D01*
X371Y-2681D01*
X362Y-2674D01*
X351Y-2670D01*
X340Y-2668D01*
D02*
G37*
G36*
X3038Y-2681D02*
X3025Y-2683D01*
X3013Y-2688D01*
X3002Y-2696D01*
X2994Y-2707D01*
X2989Y-2719D01*
X2987Y-2732D01*
X2989Y-2746D01*
X2994Y-2758D01*
X3002Y-2769D01*
X3013Y-2777D01*
X3025Y-2782D01*
X3038Y-2784D01*
X3052Y-2782D01*
X3064Y-2777D01*
X3075Y-2769D01*
X3083Y-2758D01*
X3088Y-2746D01*
X3090Y-2732D01*
X3088Y-2719D01*
X3083Y-2707D01*
X3075Y-2696D01*
X3064Y-2688D01*
X3052Y-2683D01*
X3038Y-2681D01*
D02*
G37*
G36*
X4210Y-2598D02*
X4199Y-2600D01*
X4188Y-2604D01*
X4179Y-2611D01*
X4172Y-2620D01*
X4168Y-2631D01*
X4166Y-2642D01*
Y-2658D01*
X4168Y-2669D01*
X4172Y-2680D01*
X4179Y-2689D01*
X4188Y-2696D01*
X4192Y-2697D01*
Y-3013D01*
X4189Y-3014D01*
X4181Y-3021D01*
X4174Y-3029D01*
X4170Y-3039D01*
X4168Y-3050D01*
X4170Y-3061D01*
X4174Y-3071D01*
X4181Y-3079D01*
X4189Y-3086D01*
X4199Y-3090D01*
X4210Y-3092D01*
X4221Y-3090D01*
X4231Y-3086D01*
X4239Y-3079D01*
X4246Y-3071D01*
X4250Y-3061D01*
X4252Y-3050D01*
X4250Y-3039D01*
X4246Y-3029D01*
X4239Y-3021D01*
X4231Y-3014D01*
X4228Y-3013D01*
Y-2697D01*
X4232Y-2696D01*
X4241Y-2689D01*
X4248Y-2680D01*
X4252Y-2669D01*
X4254Y-2658D01*
Y-2642D01*
X4252Y-2631D01*
X4248Y-2620D01*
X4241Y-2611D01*
X4232Y-2604D01*
X4221Y-2600D01*
X4210Y-2598D01*
D02*
G37*
G36*
X40Y-2668D02*
X29Y-2670D01*
X18Y-2674D01*
X9Y-2681D01*
X2Y-2690D01*
X-2Y-2701D01*
X-4Y-2712D01*
Y-2728D01*
X-2Y-2739D01*
X2Y-2750D01*
X9Y-2759D01*
X18Y-2766D01*
X22Y-2767D01*
Y-3043D01*
X19Y-3044D01*
X11Y-3051D01*
X4Y-3059D01*
X-0Y-3069D01*
X-2Y-3080D01*
X-0Y-3091D01*
X4Y-3101D01*
X11Y-3109D01*
X19Y-3116D01*
X29Y-3120D01*
X40Y-3122D01*
X51Y-3120D01*
X61Y-3116D01*
X69Y-3109D01*
X76Y-3101D01*
X80Y-3091D01*
X82Y-3080D01*
X80Y-3069D01*
X76Y-3059D01*
X69Y-3051D01*
X61Y-3044D01*
X58Y-3043D01*
Y-2767D01*
X62Y-2766D01*
X71Y-2759D01*
X78Y-2750D01*
X82Y-2739D01*
X84Y-2728D01*
Y-2712D01*
X82Y-2701D01*
X78Y-2690D01*
X71Y-2681D01*
X62Y-2674D01*
X51Y-2670D01*
X40Y-2668D01*
D02*
G37*
G36*
X4110Y-2598D02*
X4099Y-2600D01*
X4088Y-2604D01*
X4079Y-2611D01*
X4072Y-2620D01*
X4068Y-2631D01*
X4066Y-2642D01*
Y-2658D01*
X4068Y-2669D01*
X4072Y-2680D01*
X4079Y-2689D01*
X4088Y-2696D01*
X4092Y-2697D01*
Y-2963D01*
X4089Y-2964D01*
X4081Y-2971D01*
X4074Y-2979D01*
X4070Y-2989D01*
X4068Y-3000D01*
X4070Y-3011D01*
X4074Y-3021D01*
X4081Y-3029D01*
X4089Y-3036D01*
X4099Y-3040D01*
X4110Y-3042D01*
X4121Y-3040D01*
X4131Y-3036D01*
X4139Y-3029D01*
X4146Y-3021D01*
X4150Y-3011D01*
X4152Y-3000D01*
X4150Y-2989D01*
X4146Y-2979D01*
X4139Y-2971D01*
X4131Y-2964D01*
X4128Y-2963D01*
Y-2697D01*
X4132Y-2696D01*
X4141Y-2689D01*
X4148Y-2680D01*
X4152Y-2669D01*
X4154Y-2658D01*
Y-2642D01*
X4152Y-2631D01*
X4148Y-2620D01*
X4141Y-2611D01*
X4132Y-2604D01*
X4121Y-2600D01*
X4110Y-2598D01*
D02*
G37*
G36*
X6737Y-2904D02*
X6722Y-2906D01*
X6709Y-2912D01*
X6698Y-2921D01*
X6689Y-2932D01*
X6683Y-2946D01*
X6681Y-2960D01*
X6683Y-2974D01*
X6689Y-2988D01*
X6698Y-2999D01*
X6709Y-3008D01*
X6722Y-3014D01*
X6737Y-3016D01*
X6751Y-3014D01*
X6765Y-3008D01*
X6776Y-2999D01*
X6785Y-2988D01*
X6791Y-2974D01*
X6792Y-2960D01*
X6791Y-2946D01*
X6785Y-2932D01*
X6776Y-2921D01*
X6765Y-2912D01*
X6751Y-2906D01*
X6737Y-2904D01*
D02*
G37*
G36*
X4010Y-2598D02*
X3999Y-2600D01*
X3988Y-2604D01*
X3979Y-2611D01*
X3972Y-2620D01*
X3968Y-2631D01*
X3966Y-2642D01*
Y-2658D01*
X3968Y-2669D01*
X3972Y-2680D01*
X3979Y-2689D01*
X3988Y-2696D01*
X3992Y-2697D01*
Y-2953D01*
X3989Y-2954D01*
X3981Y-2961D01*
X3974Y-2969D01*
X3970Y-2979D01*
X3968Y-2990D01*
X3970Y-3001D01*
X3974Y-3011D01*
X3981Y-3019D01*
X3989Y-3026D01*
X3999Y-3030D01*
X4010Y-3032D01*
X4021Y-3030D01*
X4031Y-3026D01*
X4039Y-3019D01*
X4046Y-3011D01*
X4050Y-3001D01*
X4052Y-2990D01*
X4050Y-2979D01*
X4046Y-2969D01*
X4039Y-2961D01*
X4031Y-2954D01*
X4028Y-2953D01*
Y-2697D01*
X4032Y-2696D01*
X4041Y-2689D01*
X4048Y-2680D01*
X4052Y-2669D01*
X4054Y-2658D01*
Y-2642D01*
X4052Y-2631D01*
X4048Y-2620D01*
X4041Y-2611D01*
X4032Y-2604D01*
X4021Y-2600D01*
X4010Y-2598D01*
D02*
G37*
G36*
X535Y-2725D02*
X498D01*
Y-2728D01*
X500Y-2739D01*
X504Y-2749D01*
X510Y-2757D01*
X519Y-2764D01*
X529Y-2768D01*
X535Y-2769D01*
Y-2725D01*
D02*
G37*
G36*
X1672Y-2715D02*
X1635D01*
Y-2759D01*
X1641Y-2758D01*
X1651Y-2754D01*
X1660Y-2747D01*
X1666Y-2739D01*
X1670Y-2729D01*
X1672Y-2718D01*
Y-2715D01*
D02*
G37*
G36*
X1625D02*
X1588D01*
Y-2718D01*
X1590Y-2729D01*
X1594Y-2739D01*
X1600Y-2747D01*
X1609Y-2754D01*
X1619Y-2758D01*
X1625Y-2759D01*
Y-2715D01*
D02*
G37*
G36*
X6830Y-2208D02*
X6819Y-2210D01*
X6808Y-2214D01*
X6799Y-2221D01*
X6792Y-2230D01*
X6788Y-2241D01*
X6786Y-2252D01*
Y-2268D01*
X6788Y-2279D01*
X6792Y-2290D01*
X6799Y-2299D01*
X6808Y-2306D01*
Y-2711D01*
X6781Y-2738D01*
X6688D01*
X6687Y-2735D01*
X6678Y-2724D01*
X6666Y-2715D01*
X6653Y-2709D01*
X6638Y-2708D01*
X6624Y-2709D01*
X6611Y-2715D01*
X6599Y-2724D01*
X6590Y-2735D01*
X6589Y-2738D01*
X6478D01*
X6470Y-2740D01*
X6463Y-2744D01*
X6424Y-2783D01*
X6420Y-2790D01*
X6418Y-2798D01*
Y-3274D01*
X6409Y-3281D01*
X6402Y-3290D01*
X6398Y-3301D01*
X6396Y-3312D01*
Y-3328D01*
X6398Y-3339D01*
X6402Y-3350D01*
X6409Y-3359D01*
X6418Y-3366D01*
Y-3430D01*
X6420Y-3438D01*
X6424Y-3446D01*
X6464Y-3486D01*
X6472Y-3490D01*
X6480Y-3492D01*
X6691D01*
X6718Y-3519D01*
Y-3574D01*
X6709Y-3581D01*
X6702Y-3590D01*
X6698Y-3601D01*
X6696Y-3612D01*
Y-3628D01*
X6698Y-3639D01*
X6702Y-3650D01*
X6709Y-3659D01*
X6718Y-3666D01*
Y-3720D01*
X6720Y-3728D01*
X6724Y-3736D01*
X6774Y-3786D01*
X6782Y-3790D01*
X6790Y-3792D01*
X7141D01*
X7158Y-3809D01*
Y-4511D01*
X7121Y-4548D01*
X7096D01*
X7095Y-4544D01*
X7087Y-4533D01*
X7076Y-4525D01*
X7063Y-4520D01*
X7050Y-4518D01*
X7037Y-4520D01*
X7024Y-4525D01*
X7013Y-4533D01*
X7005Y-4544D01*
X7000Y-4557D01*
X6998Y-4570D01*
X7000Y-4583D01*
X7005Y-4596D01*
X7013Y-4607D01*
X7024Y-4615D01*
X7037Y-4620D01*
X7050Y-4622D01*
X7063Y-4620D01*
X7076Y-4615D01*
X7087Y-4607D01*
X7095Y-4596D01*
X7096Y-4592D01*
X7130D01*
X7138Y-4590D01*
X7146Y-4586D01*
X7196Y-4536D01*
X7200Y-4528D01*
X7202Y-4520D01*
Y-3800D01*
X7200Y-3792D01*
X7196Y-3784D01*
X7166Y-3754D01*
X7158Y-3750D01*
X7150Y-3748D01*
X6799D01*
X6762Y-3711D01*
Y-3666D01*
X6771Y-3659D01*
X6778Y-3650D01*
X6782Y-3639D01*
X6784Y-3628D01*
Y-3612D01*
X6782Y-3601D01*
X6778Y-3590D01*
X6771Y-3581D01*
X6762Y-3574D01*
Y-3510D01*
X6760Y-3502D01*
X6756Y-3494D01*
X6716Y-3454D01*
X6708Y-3450D01*
X6700Y-3448D01*
X6489D01*
X6462Y-3421D01*
Y-3366D01*
X6471Y-3359D01*
X6478Y-3350D01*
X6482Y-3339D01*
X6484Y-3328D01*
Y-3312D01*
X6482Y-3301D01*
X6478Y-3290D01*
X6471Y-3281D01*
X6462Y-3274D01*
Y-2808D01*
X6488Y-2782D01*
X6587D01*
X6590Y-2791D01*
X6599Y-2802D01*
X6611Y-2811D01*
X6624Y-2817D01*
X6638Y-2819D01*
X6653Y-2817D01*
X6666Y-2811D01*
X6678Y-2802D01*
X6687Y-2791D01*
X6690Y-2782D01*
X6790D01*
X6798Y-2780D01*
X6806Y-2776D01*
X6846Y-2736D01*
X6850Y-2728D01*
X6852Y-2720D01*
Y-2306D01*
X6861Y-2299D01*
X6868Y-2290D01*
X6872Y-2279D01*
X6874Y-2268D01*
Y-2252D01*
X6872Y-2241D01*
X6868Y-2230D01*
X6861Y-2221D01*
X6852Y-2214D01*
X6841Y-2210D01*
X6830Y-2208D01*
D02*
G37*
G36*
X545Y-2671D02*
Y-2715D01*
X582D01*
Y-2712D01*
X580Y-2701D01*
X576Y-2691D01*
X570Y-2683D01*
X561Y-2676D01*
X551Y-2672D01*
X545Y-2671D01*
D02*
G37*
G36*
X535D02*
X529Y-2672D01*
X519Y-2676D01*
X510Y-2683D01*
X504Y-2691D01*
X500Y-2701D01*
X498Y-2712D01*
Y-2715D01*
X535D01*
Y-2671D01*
D02*
G37*
G36*
X1572Y-2715D02*
X1535D01*
Y-2759D01*
X1541Y-2758D01*
X1551Y-2754D01*
X1560Y-2747D01*
X1566Y-2739D01*
X1570Y-2729D01*
X1572Y-2718D01*
Y-2715D01*
D02*
G37*
G36*
X1130Y-2658D02*
X1119Y-2660D01*
X1108Y-2664D01*
X1099Y-2671D01*
X1092Y-2680D01*
X1088Y-2691D01*
X1086Y-2702D01*
Y-2718D01*
X1088Y-2729D01*
X1092Y-2740D01*
X1099Y-2749D01*
X1108Y-2756D01*
X1119Y-2760D01*
X1130Y-2762D01*
X1141Y-2760D01*
X1152Y-2756D01*
X1161Y-2749D01*
X1168Y-2740D01*
X1172Y-2729D01*
X1174Y-2718D01*
Y-2702D01*
X1172Y-2691D01*
X1168Y-2680D01*
X1161Y-2671D01*
X1152Y-2664D01*
X1141Y-2660D01*
X1130Y-2658D01*
D02*
G37*
G36*
X582Y-2725D02*
X545D01*
Y-2769D01*
X551Y-2768D01*
X561Y-2764D01*
X570Y-2757D01*
X576Y-2749D01*
X580Y-2739D01*
X582Y-2728D01*
Y-2725D01*
D02*
G37*
G36*
X1330Y-2658D02*
X1319Y-2660D01*
X1308Y-2664D01*
X1299Y-2671D01*
X1292Y-2680D01*
X1288Y-2691D01*
X1286Y-2702D01*
Y-2718D01*
X1288Y-2729D01*
X1292Y-2740D01*
X1299Y-2749D01*
X1308Y-2756D01*
X1319Y-2760D01*
X1330Y-2762D01*
X1341Y-2760D01*
X1352Y-2756D01*
X1361Y-2749D01*
X1368Y-2740D01*
X1372Y-2729D01*
X1374Y-2718D01*
Y-2702D01*
X1372Y-2691D01*
X1368Y-2680D01*
X1361Y-2671D01*
X1352Y-2664D01*
X1341Y-2660D01*
X1330Y-2658D01*
D02*
G37*
G36*
X1525Y-2715D02*
X1488D01*
Y-2718D01*
X1490Y-2729D01*
X1494Y-2739D01*
X1500Y-2747D01*
X1509Y-2754D01*
X1519Y-2758D01*
X1525Y-2759D01*
Y-2715D01*
D02*
G37*
G36*
X1430Y-2658D02*
X1419Y-2660D01*
X1408Y-2664D01*
X1399Y-2671D01*
X1392Y-2680D01*
X1388Y-2691D01*
X1386Y-2702D01*
Y-2718D01*
X1388Y-2729D01*
X1392Y-2740D01*
X1399Y-2749D01*
X1408Y-2756D01*
X1419Y-2760D01*
X1430Y-2762D01*
X1441Y-2760D01*
X1452Y-2756D01*
X1461Y-2749D01*
X1468Y-2740D01*
X1472Y-2729D01*
X1474Y-2718D01*
Y-2702D01*
X1472Y-2691D01*
X1468Y-2680D01*
X1461Y-2671D01*
X1452Y-2664D01*
X1441Y-2660D01*
X1430Y-2658D01*
D02*
G37*
G36*
X1139Y-3295D02*
X1095D01*
Y-3339D01*
X1103Y-3338D01*
X1115Y-3333D01*
X1125Y-3325D01*
X1133Y-3315D01*
X1138Y-3303D01*
X1139Y-3295D01*
D02*
G37*
G36*
X1085D02*
X1041D01*
X1042Y-3303D01*
X1047Y-3315D01*
X1055Y-3325D01*
X1065Y-3333D01*
X1077Y-3338D01*
X1085Y-3339D01*
Y-3295D01*
D02*
G37*
G36*
X378Y-3231D02*
X365Y-3233D01*
X353Y-3238D01*
X342Y-3246D01*
X334Y-3257D01*
X329Y-3269D01*
X327Y-3282D01*
X329Y-3296D01*
X334Y-3308D01*
X342Y-3319D01*
X353Y-3327D01*
X365Y-3332D01*
X378Y-3334D01*
X392Y-3332D01*
X404Y-3327D01*
X415Y-3319D01*
X423Y-3308D01*
X428Y-3296D01*
X430Y-3282D01*
X428Y-3269D01*
X423Y-3257D01*
X415Y-3246D01*
X404Y-3238D01*
X392Y-3233D01*
X378Y-3231D01*
D02*
G37*
G36*
X228Y-3287D02*
X183D01*
Y-3332D01*
X191Y-3331D01*
X203Y-3326D01*
X214Y-3318D01*
X222Y-3307D01*
X227Y-3295D01*
X228Y-3287D01*
D02*
G37*
G36*
X173D02*
X129D01*
X130Y-3295D01*
X135Y-3307D01*
X143Y-3318D01*
X154Y-3326D01*
X166Y-3331D01*
X173Y-3332D01*
Y-3287D01*
D02*
G37*
G36*
X1348Y-3297D02*
X1303D01*
Y-3342D01*
X1311Y-3341D01*
X1323Y-3336D01*
X1334Y-3328D01*
X1342Y-3317D01*
X1347Y-3305D01*
X1348Y-3297D01*
D02*
G37*
G36*
X2320Y-3258D02*
X2307Y-3260D01*
X2294Y-3265D01*
X2283Y-3273D01*
X2275Y-3284D01*
X2270Y-3297D01*
X2268Y-3310D01*
X2270Y-3323D01*
X2275Y-3336D01*
X2283Y-3347D01*
X2294Y-3355D01*
X2307Y-3360D01*
X2320Y-3362D01*
X2333Y-3360D01*
X2346Y-3355D01*
X2357Y-3347D01*
X2365Y-3336D01*
X2370Y-3323D01*
X2372Y-3310D01*
X2370Y-3297D01*
X2365Y-3284D01*
X2357Y-3273D01*
X2346Y-3265D01*
X2333Y-3260D01*
X2320Y-3258D01*
D02*
G37*
G36*
X2120D02*
X2107Y-3260D01*
X2094Y-3265D01*
X2083Y-3273D01*
X2075Y-3284D01*
X2070Y-3297D01*
X2068Y-3310D01*
X2070Y-3323D01*
X2075Y-3336D01*
X2083Y-3347D01*
X2094Y-3355D01*
X2107Y-3360D01*
X2120Y-3362D01*
X2133Y-3360D01*
X2146Y-3355D01*
X2157Y-3347D01*
X2165Y-3336D01*
X2170Y-3323D01*
X2172Y-3310D01*
X2170Y-3297D01*
X2165Y-3284D01*
X2157Y-3273D01*
X2146Y-3265D01*
X2133Y-3260D01*
X2120Y-3258D01*
D02*
G37*
G36*
X3450D02*
X3437Y-3260D01*
X3424Y-3265D01*
X3413Y-3273D01*
X3405Y-3284D01*
X3400Y-3297D01*
X3398Y-3310D01*
X3400Y-3323D01*
X3405Y-3336D01*
X3413Y-3347D01*
X3424Y-3355D01*
X3437Y-3360D01*
X3450Y-3362D01*
X3463Y-3360D01*
X3476Y-3355D01*
X3487Y-3347D01*
X3495Y-3336D01*
X3500Y-3323D01*
X3502Y-3310D01*
X3500Y-3297D01*
X3495Y-3284D01*
X3487Y-3273D01*
X3476Y-3265D01*
X3463Y-3260D01*
X3450Y-3258D01*
D02*
G37*
G36*
X1293Y-3297D02*
X1249D01*
X1250Y-3305D01*
X1255Y-3317D01*
X1263Y-3328D01*
X1274Y-3336D01*
X1286Y-3341D01*
X1293Y-3342D01*
Y-3297D01*
D02*
G37*
G36*
X3660Y-3258D02*
X3647Y-3260D01*
X3634Y-3265D01*
X3623Y-3273D01*
X3615Y-3284D01*
X3610Y-3297D01*
X3608Y-3310D01*
X3610Y-3323D01*
X3615Y-3336D01*
X3623Y-3347D01*
X3634Y-3355D01*
X3647Y-3360D01*
X3660Y-3362D01*
X3673Y-3360D01*
X3686Y-3355D01*
X3697Y-3347D01*
X3705Y-3336D01*
X3710Y-3323D01*
X3712Y-3310D01*
X3710Y-3297D01*
X3705Y-3284D01*
X3697Y-3273D01*
X3686Y-3265D01*
X3673Y-3260D01*
X3660Y-3258D01*
D02*
G37*
G36*
X5090Y-3208D02*
X5077Y-3210D01*
X5064Y-3215D01*
X5053Y-3223D01*
X5045Y-3234D01*
X5040Y-3247D01*
X5038Y-3260D01*
X5040Y-3273D01*
X5045Y-3286D01*
X5053Y-3297D01*
X5064Y-3305D01*
X5077Y-3310D01*
X5090Y-3312D01*
X5103Y-3310D01*
X5116Y-3305D01*
X5127Y-3297D01*
X5135Y-3286D01*
X5140Y-3273D01*
X5142Y-3260D01*
X5140Y-3247D01*
X5135Y-3234D01*
X5127Y-3223D01*
X5116Y-3215D01*
X5103Y-3210D01*
X5090Y-3208D01*
D02*
G37*
G36*
X173Y-3233D02*
X166Y-3234D01*
X154Y-3239D01*
X143Y-3247D01*
X135Y-3258D01*
X130Y-3270D01*
X129Y-3277D01*
X173D01*
Y-3233D01*
D02*
G37*
G36*
X1095Y-3241D02*
Y-3285D01*
X1139D01*
X1138Y-3277D01*
X1133Y-3265D01*
X1125Y-3255D01*
X1115Y-3247D01*
X1103Y-3242D01*
X1095Y-3241D01*
D02*
G37*
G36*
X183Y-3233D02*
Y-3277D01*
X228D01*
X227Y-3270D01*
X222Y-3258D01*
X214Y-3247D01*
X203Y-3239D01*
X191Y-3234D01*
X183Y-3233D01*
D02*
G37*
G36*
X5703Y-3213D02*
Y-3257D01*
X5748D01*
X5747Y-3250D01*
X5742Y-3238D01*
X5734Y-3227D01*
X5723Y-3219D01*
X5711Y-3214D01*
X5703Y-3213D01*
D02*
G37*
G36*
X5693D02*
X5686Y-3214D01*
X5674Y-3219D01*
X5663Y-3227D01*
X5655Y-3238D01*
X5650Y-3250D01*
X5649Y-3257D01*
X5693D01*
Y-3213D01*
D02*
G37*
G36*
X1085Y-3241D02*
X1077Y-3242D01*
X1065Y-3247D01*
X1055Y-3255D01*
X1047Y-3265D01*
X1042Y-3277D01*
X1041Y-3285D01*
X1085D01*
Y-3241D01*
D02*
G37*
G36*
X5693Y-3267D02*
X5649D01*
X5650Y-3275D01*
X5655Y-3287D01*
X5663Y-3298D01*
X5674Y-3306D01*
X5686Y-3311D01*
X5693Y-3312D01*
Y-3267D01*
D02*
G37*
G36*
X5480Y-3208D02*
X5467Y-3210D01*
X5454Y-3215D01*
X5443Y-3223D01*
X5435Y-3234D01*
X5430Y-3247D01*
X5428Y-3260D01*
X5430Y-3273D01*
X5435Y-3286D01*
X5443Y-3297D01*
X5454Y-3305D01*
X5467Y-3310D01*
X5480Y-3312D01*
X5493Y-3310D01*
X5506Y-3305D01*
X5517Y-3297D01*
X5525Y-3286D01*
X5530Y-3273D01*
X5532Y-3260D01*
X5530Y-3247D01*
X5525Y-3234D01*
X5517Y-3223D01*
X5506Y-3215D01*
X5493Y-3210D01*
X5480Y-3208D01*
D02*
G37*
G36*
X5748Y-3267D02*
X5703D01*
Y-3312D01*
X5711Y-3311D01*
X5723Y-3306D01*
X5734Y-3298D01*
X5742Y-3287D01*
X5747Y-3275D01*
X5748Y-3267D01*
D02*
G37*
G36*
X1303Y-3243D02*
Y-3287D01*
X1348D01*
X1347Y-3280D01*
X1342Y-3268D01*
X1334Y-3257D01*
X1323Y-3249D01*
X1311Y-3244D01*
X1303Y-3243D01*
D02*
G37*
G36*
X1293D02*
X1286Y-3244D01*
X1274Y-3249D01*
X1263Y-3257D01*
X1255Y-3268D01*
X1250Y-3280D01*
X1249Y-3287D01*
X1293D01*
Y-3243D01*
D02*
G37*
G36*
X1030Y-2358D02*
X1019Y-2360D01*
X1008Y-2364D01*
X999Y-2371D01*
X992Y-2380D01*
X988Y-2391D01*
X986Y-2402D01*
Y-2418D01*
X988Y-2429D01*
X992Y-2440D01*
X999Y-2449D01*
X1008Y-2456D01*
X1019Y-2460D01*
X1030Y-2462D01*
X1041Y-2460D01*
X1052Y-2456D01*
X1061Y-2449D01*
X1068Y-2440D01*
X1072Y-2429D01*
X1074Y-2418D01*
Y-2402D01*
X1072Y-2391D01*
X1068Y-2380D01*
X1061Y-2371D01*
X1052Y-2364D01*
X1041Y-2360D01*
X1030Y-2358D01*
D02*
G37*
G36*
X340Y-2368D02*
X329Y-2370D01*
X318Y-2374D01*
X309Y-2381D01*
X302Y-2390D01*
X298Y-2401D01*
X296Y-2412D01*
Y-2428D01*
X298Y-2439D01*
X302Y-2450D01*
X309Y-2459D01*
X318Y-2466D01*
X329Y-2470D01*
X340Y-2472D01*
X351Y-2470D01*
X362Y-2466D01*
X371Y-2459D01*
X378Y-2450D01*
X382Y-2439D01*
X384Y-2428D01*
Y-2412D01*
X382Y-2401D01*
X378Y-2390D01*
X371Y-2381D01*
X362Y-2374D01*
X351Y-2370D01*
X340Y-2368D01*
D02*
G37*
G36*
X1130Y-2358D02*
X1119Y-2360D01*
X1108Y-2364D01*
X1099Y-2371D01*
X1092Y-2380D01*
X1088Y-2391D01*
X1086Y-2402D01*
Y-2418D01*
X1088Y-2429D01*
X1092Y-2440D01*
X1099Y-2449D01*
X1108Y-2456D01*
X1119Y-2460D01*
X1130Y-2462D01*
X1141Y-2460D01*
X1152Y-2456D01*
X1161Y-2449D01*
X1168Y-2440D01*
X1172Y-2429D01*
X1174Y-2418D01*
Y-2402D01*
X1172Y-2391D01*
X1168Y-2380D01*
X1161Y-2371D01*
X1152Y-2364D01*
X1141Y-2360D01*
X1130Y-2358D01*
D02*
G37*
G36*
X1472Y-2415D02*
X1435D01*
Y-2459D01*
X1441Y-2458D01*
X1451Y-2454D01*
X1460Y-2447D01*
X1466Y-2439D01*
X1470Y-2429D01*
X1472Y-2418D01*
Y-2415D01*
D02*
G37*
G36*
X1425D02*
X1388D01*
Y-2418D01*
X1390Y-2429D01*
X1394Y-2439D01*
X1400Y-2447D01*
X1409Y-2454D01*
X1419Y-2458D01*
X1425Y-2459D01*
Y-2415D01*
D02*
G37*
G36*
X240Y-2368D02*
X229Y-2370D01*
X218Y-2374D01*
X209Y-2381D01*
X202Y-2390D01*
X198Y-2401D01*
X196Y-2412D01*
Y-2428D01*
X198Y-2439D01*
X202Y-2450D01*
X209Y-2459D01*
X218Y-2466D01*
X229Y-2470D01*
X240Y-2472D01*
X251Y-2470D01*
X262Y-2466D01*
X271Y-2459D01*
X278Y-2450D01*
X282Y-2439D01*
X284Y-2428D01*
Y-2412D01*
X282Y-2401D01*
X278Y-2390D01*
X271Y-2381D01*
X262Y-2374D01*
X251Y-2370D01*
X240Y-2368D01*
D02*
G37*
G36*
X2388Y-2480D02*
X2377Y-2481D01*
X2366Y-2485D01*
X2357Y-2492D01*
X2350Y-2501D01*
X2346Y-2512D01*
X2345Y-2523D01*
Y-2539D01*
X2346Y-2550D01*
X2350Y-2561D01*
X2357Y-2570D01*
X2366Y-2577D01*
X2377Y-2581D01*
X2388Y-2583D01*
X2399Y-2581D01*
X2410Y-2577D01*
X2419Y-2570D01*
X2426Y-2561D01*
X2430Y-2550D01*
X2432Y-2539D01*
Y-2523D01*
X2430Y-2512D01*
X2426Y-2501D01*
X2419Y-2492D01*
X2410Y-2485D01*
X2399Y-2481D01*
X2388Y-2480D01*
D02*
G37*
G36*
X2678Y-2610D02*
X2645D01*
Y-2643D01*
X2678D01*
Y-2610D01*
D02*
G37*
G36*
X2331Y-2480D02*
X2245D01*
Y-2582D01*
X2331D01*
Y-2480D01*
D02*
G37*
G36*
X140Y-2368D02*
X129Y-2370D01*
X118Y-2374D01*
X109Y-2381D01*
X102Y-2390D01*
X98Y-2401D01*
X96Y-2412D01*
Y-2428D01*
X98Y-2439D01*
X102Y-2450D01*
X109Y-2459D01*
X118Y-2466D01*
X129Y-2470D01*
X140Y-2472D01*
X151Y-2470D01*
X162Y-2466D01*
X171Y-2459D01*
X178Y-2450D01*
X182Y-2439D01*
X184Y-2428D01*
Y-2412D01*
X182Y-2401D01*
X178Y-2390D01*
X171Y-2381D01*
X162Y-2374D01*
X151Y-2370D01*
X140Y-2368D01*
D02*
G37*
G36*
X40D02*
X29Y-2370D01*
X18Y-2374D01*
X9Y-2381D01*
X2Y-2390D01*
X-2Y-2401D01*
X-4Y-2412D01*
Y-2428D01*
X-2Y-2439D01*
X2Y-2450D01*
X9Y-2459D01*
X18Y-2466D01*
X29Y-2470D01*
X40Y-2472D01*
X51Y-2470D01*
X62Y-2466D01*
X71Y-2459D01*
X78Y-2450D01*
X82Y-2439D01*
X84Y-2428D01*
Y-2412D01*
X82Y-2401D01*
X78Y-2390D01*
X71Y-2381D01*
X62Y-2374D01*
X51Y-2370D01*
X40Y-2368D01*
D02*
G37*
G36*
X1425Y-2361D02*
X1419Y-2362D01*
X1409Y-2366D01*
X1400Y-2373D01*
X1394Y-2381D01*
X1390Y-2391D01*
X1388Y-2402D01*
Y-2405D01*
X1425D01*
Y-2361D01*
D02*
G37*
G36*
X5420Y-2298D02*
X5409Y-2300D01*
X5398Y-2304D01*
X5389Y-2311D01*
X5382Y-2320D01*
X5378Y-2331D01*
X5376Y-2342D01*
Y-2358D01*
X5378Y-2369D01*
X5382Y-2380D01*
X5389Y-2389D01*
X5398Y-2396D01*
X5409Y-2400D01*
X5420Y-2402D01*
X5431Y-2400D01*
X5442Y-2396D01*
X5451Y-2389D01*
X5458Y-2380D01*
X5462Y-2369D01*
X5464Y-2358D01*
Y-2342D01*
X5462Y-2331D01*
X5458Y-2320D01*
X5451Y-2311D01*
X5442Y-2304D01*
X5431Y-2300D01*
X5420Y-2298D01*
D02*
G37*
G36*
X5220D02*
X5209Y-2300D01*
X5198Y-2304D01*
X5189Y-2311D01*
X5182Y-2320D01*
X5178Y-2331D01*
X5176Y-2342D01*
Y-2358D01*
X5178Y-2369D01*
X5182Y-2380D01*
X5189Y-2389D01*
X5198Y-2396D01*
X5209Y-2400D01*
X5220Y-2402D01*
X5231Y-2400D01*
X5242Y-2396D01*
X5251Y-2389D01*
X5258Y-2380D01*
X5262Y-2369D01*
X5264Y-2358D01*
Y-2342D01*
X5262Y-2331D01*
X5258Y-2320D01*
X5251Y-2311D01*
X5242Y-2304D01*
X5231Y-2300D01*
X5220Y-2298D01*
D02*
G37*
G36*
X5520D02*
X5509Y-2300D01*
X5498Y-2304D01*
X5489Y-2311D01*
X5482Y-2320D01*
X5478Y-2331D01*
X5476Y-2342D01*
Y-2358D01*
X5478Y-2369D01*
X5482Y-2380D01*
X5489Y-2389D01*
X5498Y-2396D01*
X5509Y-2400D01*
X5520Y-2402D01*
X5531Y-2400D01*
X5542Y-2396D01*
X5551Y-2389D01*
X5558Y-2380D01*
X5562Y-2369D01*
X5564Y-2358D01*
Y-2342D01*
X5562Y-2331D01*
X5558Y-2320D01*
X5551Y-2311D01*
X5542Y-2304D01*
X5531Y-2300D01*
X5520Y-2298D01*
D02*
G37*
G36*
X5720D02*
X5709Y-2300D01*
X5698Y-2304D01*
X5689Y-2311D01*
X5682Y-2320D01*
X5678Y-2331D01*
X5676Y-2342D01*
Y-2358D01*
X5678Y-2369D01*
X5682Y-2380D01*
X5689Y-2389D01*
X5698Y-2396D01*
X5709Y-2400D01*
X5720Y-2402D01*
X5731Y-2400D01*
X5742Y-2396D01*
X5751Y-2389D01*
X5758Y-2380D01*
X5762Y-2369D01*
X5764Y-2358D01*
Y-2342D01*
X5762Y-2331D01*
X5758Y-2320D01*
X5751Y-2311D01*
X5742Y-2304D01*
X5731Y-2300D01*
X5720Y-2298D01*
D02*
G37*
G36*
X5620D02*
X5609Y-2300D01*
X5598Y-2304D01*
X5589Y-2311D01*
X5582Y-2320D01*
X5578Y-2331D01*
X5576Y-2342D01*
Y-2358D01*
X5578Y-2369D01*
X5582Y-2380D01*
X5589Y-2389D01*
X5598Y-2396D01*
X5609Y-2400D01*
X5620Y-2402D01*
X5631Y-2400D01*
X5642Y-2396D01*
X5651Y-2389D01*
X5658Y-2380D01*
X5662Y-2369D01*
X5664Y-2358D01*
Y-2342D01*
X5662Y-2331D01*
X5658Y-2320D01*
X5651Y-2311D01*
X5642Y-2304D01*
X5631Y-2300D01*
X5620Y-2298D01*
D02*
G37*
G36*
X4510D02*
X4499Y-2300D01*
X4488Y-2304D01*
X4479Y-2311D01*
X4472Y-2320D01*
X4468Y-2331D01*
X4466Y-2342D01*
Y-2358D01*
X4468Y-2369D01*
X4472Y-2380D01*
X4479Y-2389D01*
X4488Y-2396D01*
X4499Y-2400D01*
X4510Y-2402D01*
X4521Y-2400D01*
X4532Y-2396D01*
X4541Y-2389D01*
X4548Y-2380D01*
X4552Y-2369D01*
X4554Y-2358D01*
Y-2342D01*
X4552Y-2331D01*
X4548Y-2320D01*
X4541Y-2311D01*
X4532Y-2304D01*
X4521Y-2300D01*
X4510Y-2298D01*
D02*
G37*
G36*
X4010D02*
X3999Y-2300D01*
X3988Y-2304D01*
X3979Y-2311D01*
X3972Y-2320D01*
X3968Y-2331D01*
X3966Y-2342D01*
Y-2358D01*
X3968Y-2369D01*
X3972Y-2380D01*
X3979Y-2389D01*
X3988Y-2396D01*
X3999Y-2400D01*
X4010Y-2402D01*
X4021Y-2400D01*
X4032Y-2396D01*
X4041Y-2389D01*
X4048Y-2380D01*
X4052Y-2369D01*
X4054Y-2358D01*
Y-2342D01*
X4052Y-2331D01*
X4048Y-2320D01*
X4041Y-2311D01*
X4032Y-2304D01*
X4021Y-2300D01*
X4010Y-2298D01*
D02*
G37*
G36*
X1435Y-2361D02*
Y-2405D01*
X1472D01*
Y-2402D01*
X1470Y-2391D01*
X1466Y-2381D01*
X1460Y-2373D01*
X1451Y-2366D01*
X1441Y-2362D01*
X1435Y-2361D01*
D02*
G37*
G36*
X4110Y-1808D02*
X4099Y-1810D01*
X4089Y-1814D01*
X4081Y-1821D01*
X4074Y-1829D01*
X4070Y-1839D01*
X4068Y-1850D01*
X4070Y-1861D01*
X4074Y-1871D01*
X4081Y-1879D01*
X4089Y-1886D01*
X4092Y-1887D01*
Y-2303D01*
X4088Y-2304D01*
X4079Y-2311D01*
X4072Y-2320D01*
X4068Y-2331D01*
X4066Y-2342D01*
Y-2358D01*
X4068Y-2369D01*
X4072Y-2380D01*
X4079Y-2389D01*
X4088Y-2396D01*
X4099Y-2400D01*
X4110Y-2402D01*
X4121Y-2400D01*
X4132Y-2396D01*
X4141Y-2389D01*
X4148Y-2380D01*
X4152Y-2369D01*
X4154Y-2358D01*
Y-2342D01*
X4152Y-2331D01*
X4148Y-2320D01*
X4141Y-2311D01*
X4132Y-2304D01*
X4128Y-2303D01*
Y-1887D01*
X4131Y-1886D01*
X4139Y-1879D01*
X4146Y-1871D01*
X4150Y-1861D01*
X4152Y-1850D01*
X4150Y-1839D01*
X4146Y-1829D01*
X4139Y-1821D01*
X4131Y-1814D01*
X4121Y-1810D01*
X4110Y-1808D01*
D02*
G37*
G36*
X4630Y44D02*
X4619Y42D01*
X4608Y38D01*
X4599Y31D01*
X4592Y22D01*
X4588Y11D01*
X4586Y0D01*
X4588Y-11D01*
X4592Y-22D01*
X4599Y-31D01*
X4608Y-38D01*
X4612Y-39D01*
Y-983D01*
X4583Y-1012D01*
X4460D01*
X4453Y-1013D01*
X4447Y-1017D01*
X4397Y-1067D01*
X4393Y-1073D01*
X4392Y-1080D01*
Y-2303D01*
X4388Y-2304D01*
X4379Y-2311D01*
X4372Y-2320D01*
X4368Y-2331D01*
X4366Y-2342D01*
Y-2358D01*
X4368Y-2369D01*
X4372Y-2380D01*
X4379Y-2389D01*
X4388Y-2396D01*
X4399Y-2400D01*
X4410Y-2402D01*
X4421Y-2400D01*
X4432Y-2396D01*
X4441Y-2389D01*
X4448Y-2380D01*
X4452Y-2369D01*
X4454Y-2358D01*
Y-2342D01*
X4452Y-2331D01*
X4448Y-2320D01*
X4441Y-2311D01*
X4432Y-2304D01*
X4428Y-2303D01*
Y-1087D01*
X4467Y-1048D01*
X4590D01*
X4597Y-1047D01*
X4603Y-1043D01*
X4643Y-1003D01*
X4647Y-997D01*
X4648Y-990D01*
Y-39D01*
X4652Y-38D01*
X4661Y-31D01*
X4668Y-22D01*
X4672Y-11D01*
X4674Y0D01*
X4672Y11D01*
X4668Y22D01*
X4661Y31D01*
X4652Y38D01*
X4641Y42D01*
X4630Y44D01*
D02*
G37*
G36*
X4300Y-808D02*
X4289Y-810D01*
X4279Y-814D01*
X4271Y-821D01*
X4264Y-829D01*
X4260Y-839D01*
X4258Y-850D01*
X4260Y-861D01*
X4264Y-871D01*
X4271Y-879D01*
X4279Y-886D01*
X4282Y-887D01*
Y-1763D01*
X4197Y-1847D01*
X4193Y-1853D01*
X4192Y-1860D01*
Y-2303D01*
X4188Y-2304D01*
X4179Y-2311D01*
X4172Y-2320D01*
X4168Y-2331D01*
X4166Y-2342D01*
Y-2358D01*
X4168Y-2369D01*
X4172Y-2380D01*
X4179Y-2389D01*
X4188Y-2396D01*
X4199Y-2400D01*
X4210Y-2402D01*
X4221Y-2400D01*
X4232Y-2396D01*
X4241Y-2389D01*
X4248Y-2380D01*
X4252Y-2369D01*
X4254Y-2358D01*
Y-2342D01*
X4252Y-2331D01*
X4248Y-2320D01*
X4241Y-2311D01*
X4232Y-2304D01*
X4228Y-2303D01*
Y-1867D01*
X4313Y-1783D01*
X4317Y-1777D01*
X4318Y-1770D01*
Y-887D01*
X4321Y-886D01*
X4329Y-879D01*
X4336Y-871D01*
X4340Y-861D01*
X4342Y-850D01*
X4340Y-839D01*
X4336Y-829D01*
X4329Y-821D01*
X4321Y-814D01*
X4311Y-810D01*
X4300Y-808D01*
D02*
G37*
G36*
X5520Y-2598D02*
X5509Y-2600D01*
X5498Y-2604D01*
X5489Y-2611D01*
X5482Y-2620D01*
X5478Y-2631D01*
X5476Y-2642D01*
Y-2658D01*
X5478Y-2669D01*
X5482Y-2680D01*
X5489Y-2689D01*
X5498Y-2696D01*
X5509Y-2700D01*
X5520Y-2702D01*
X5531Y-2700D01*
X5542Y-2696D01*
X5551Y-2689D01*
X5558Y-2680D01*
X5562Y-2669D01*
X5564Y-2658D01*
Y-2642D01*
X5562Y-2631D01*
X5558Y-2620D01*
X5551Y-2611D01*
X5542Y-2604D01*
X5531Y-2600D01*
X5520Y-2598D01*
D02*
G37*
G36*
X5420D02*
X5409Y-2600D01*
X5398Y-2604D01*
X5389Y-2611D01*
X5382Y-2620D01*
X5378Y-2631D01*
X5376Y-2642D01*
Y-2658D01*
X5378Y-2669D01*
X5382Y-2680D01*
X5389Y-2689D01*
X5398Y-2696D01*
X5409Y-2700D01*
X5420Y-2702D01*
X5431Y-2700D01*
X5442Y-2696D01*
X5451Y-2689D01*
X5458Y-2680D01*
X5462Y-2669D01*
X5464Y-2658D01*
Y-2642D01*
X5462Y-2631D01*
X5458Y-2620D01*
X5451Y-2611D01*
X5442Y-2604D01*
X5431Y-2600D01*
X5420Y-2598D01*
D02*
G37*
G36*
X5620D02*
X5609Y-2600D01*
X5598Y-2604D01*
X5589Y-2611D01*
X5582Y-2620D01*
X5578Y-2631D01*
X5576Y-2642D01*
Y-2658D01*
X5578Y-2669D01*
X5582Y-2680D01*
X5589Y-2689D01*
X5598Y-2696D01*
X5609Y-2700D01*
X5620Y-2702D01*
X5631Y-2700D01*
X5642Y-2696D01*
X5651Y-2689D01*
X5658Y-2680D01*
X5662Y-2669D01*
X5664Y-2658D01*
Y-2642D01*
X5662Y-2631D01*
X5658Y-2620D01*
X5651Y-2611D01*
X5642Y-2604D01*
X5631Y-2600D01*
X5620Y-2598D01*
D02*
G37*
G36*
X5820D02*
X5809Y-2600D01*
X5798Y-2604D01*
X5789Y-2611D01*
X5782Y-2620D01*
X5778Y-2631D01*
X5776Y-2642D01*
Y-2658D01*
X5778Y-2669D01*
X5782Y-2680D01*
X5789Y-2689D01*
X5798Y-2696D01*
X5809Y-2700D01*
X5820Y-2702D01*
X5831Y-2700D01*
X5842Y-2696D01*
X5851Y-2689D01*
X5858Y-2680D01*
X5862Y-2669D01*
X5864Y-2658D01*
Y-2642D01*
X5862Y-2631D01*
X5858Y-2620D01*
X5851Y-2611D01*
X5842Y-2604D01*
X5831Y-2600D01*
X5820Y-2598D01*
D02*
G37*
G36*
X5720D02*
X5709Y-2600D01*
X5698Y-2604D01*
X5689Y-2611D01*
X5682Y-2620D01*
X5678Y-2631D01*
X5676Y-2642D01*
Y-2658D01*
X5678Y-2669D01*
X5682Y-2680D01*
X5689Y-2689D01*
X5698Y-2696D01*
X5709Y-2700D01*
X5720Y-2702D01*
X5731Y-2700D01*
X5742Y-2696D01*
X5751Y-2689D01*
X5758Y-2680D01*
X5762Y-2669D01*
X5764Y-2658D01*
Y-2642D01*
X5762Y-2631D01*
X5758Y-2620D01*
X5751Y-2611D01*
X5742Y-2604D01*
X5731Y-2600D01*
X5720Y-2598D01*
D02*
G37*
G36*
X5320D02*
X5309Y-2600D01*
X5298Y-2604D01*
X5289Y-2611D01*
X5282Y-2620D01*
X5278Y-2631D01*
X5276Y-2642D01*
Y-2658D01*
X5278Y-2669D01*
X5282Y-2680D01*
X5289Y-2689D01*
X5298Y-2696D01*
X5309Y-2700D01*
X5320Y-2702D01*
X5331Y-2700D01*
X5342Y-2696D01*
X5351Y-2689D01*
X5358Y-2680D01*
X5362Y-2669D01*
X5364Y-2658D01*
Y-2642D01*
X5362Y-2631D01*
X5358Y-2620D01*
X5351Y-2611D01*
X5342Y-2604D01*
X5331Y-2600D01*
X5320Y-2598D01*
D02*
G37*
G36*
X1535Y-2661D02*
Y-2705D01*
X1572D01*
Y-2702D01*
X1570Y-2691D01*
X1566Y-2681D01*
X1560Y-2673D01*
X1551Y-2666D01*
X1541Y-2662D01*
X1535Y-2661D01*
D02*
G37*
G36*
X1525D02*
X1519Y-2662D01*
X1509Y-2666D01*
X1500Y-2673D01*
X1494Y-2681D01*
X1490Y-2691D01*
X1488Y-2702D01*
Y-2705D01*
X1525D01*
Y-2661D01*
D02*
G37*
G36*
X1625D02*
X1619Y-2662D01*
X1609Y-2666D01*
X1600Y-2673D01*
X1594Y-2681D01*
X1590Y-2691D01*
X1588Y-2702D01*
Y-2705D01*
X1625D01*
Y-2661D01*
D02*
G37*
G36*
X4410Y-2598D02*
X4399Y-2600D01*
X4388Y-2604D01*
X4379Y-2611D01*
X4372Y-2620D01*
X4368Y-2631D01*
X4366Y-2642D01*
Y-2658D01*
X4368Y-2669D01*
X4372Y-2680D01*
X4379Y-2689D01*
X4388Y-2696D01*
X4399Y-2700D01*
X4410Y-2702D01*
X4421Y-2700D01*
X4432Y-2696D01*
X4441Y-2689D01*
X4448Y-2680D01*
X4452Y-2669D01*
X4454Y-2658D01*
Y-2642D01*
X4452Y-2631D01*
X4448Y-2620D01*
X4441Y-2611D01*
X4432Y-2604D01*
X4421Y-2600D01*
X4410Y-2598D01*
D02*
G37*
G36*
X1635Y-2661D02*
Y-2705D01*
X1672D01*
Y-2702D01*
X1670Y-2691D01*
X1666Y-2681D01*
X1660Y-2673D01*
X1651Y-2666D01*
X1641Y-2662D01*
X1635Y-2661D01*
D02*
G37*
G36*
X3953Y-2599D02*
X3867D01*
Y-2701D01*
X3953D01*
Y-2599D01*
D02*
G37*
G36*
X4515Y-2601D02*
Y-2645D01*
X4552D01*
Y-2642D01*
X4550Y-2631D01*
X4546Y-2621D01*
X4540Y-2613D01*
X4531Y-2606D01*
X4521Y-2602D01*
X4515Y-2601D01*
D02*
G37*
G36*
X4505D02*
X4499Y-2602D01*
X4489Y-2606D01*
X4480Y-2613D01*
X4474Y-2621D01*
X4470Y-2631D01*
X4468Y-2642D01*
Y-2645D01*
X4505D01*
Y-2601D01*
D02*
G37*
G36*
X5915D02*
X5909Y-2602D01*
X5899Y-2606D01*
X5890Y-2613D01*
X5884Y-2621D01*
X5880Y-2631D01*
X5878Y-2642D01*
Y-2645D01*
X5915D01*
Y-2601D01*
D02*
G37*
G36*
X2635Y-2610D02*
X2602D01*
Y-2643D01*
X2635D01*
Y-2610D01*
D02*
G37*
G36*
X5925Y-2601D02*
Y-2645D01*
X5962D01*
Y-2642D01*
X5960Y-2631D01*
X5956Y-2621D01*
X5950Y-2613D01*
X5941Y-2606D01*
X5931Y-2602D01*
X5925Y-2601D01*
D02*
G37*
G36*
X3600Y-2578D02*
X3587Y-2580D01*
X3574Y-2585D01*
X3563Y-2593D01*
X3555Y-2604D01*
X3550Y-2617D01*
X3548Y-2630D01*
X3550Y-2643D01*
X3555Y-2656D01*
X3563Y-2667D01*
X3574Y-2675D01*
X3587Y-2680D01*
X3600Y-2682D01*
X3613Y-2680D01*
X3626Y-2675D01*
X3637Y-2667D01*
X3645Y-2656D01*
X3650Y-2643D01*
X3652Y-2630D01*
X3650Y-2617D01*
X3645Y-2604D01*
X3637Y-2593D01*
X3626Y-2585D01*
X3613Y-2580D01*
X3600Y-2578D01*
D02*
G37*
G36*
X4505Y-2655D02*
X4468D01*
Y-2658D01*
X4470Y-2669D01*
X4474Y-2679D01*
X4480Y-2687D01*
X4489Y-2694D01*
X4499Y-2698D01*
X4505Y-2699D01*
Y-2655D01*
D02*
G37*
G36*
X5263Y-2599D02*
X5177D01*
Y-2701D01*
X5263D01*
Y-2599D01*
D02*
G37*
G36*
X4552Y-2655D02*
X4515D01*
Y-2699D01*
X4521Y-2698D01*
X4531Y-2694D01*
X4540Y-2687D01*
X4546Y-2679D01*
X4550Y-2669D01*
X4552Y-2658D01*
Y-2655D01*
D02*
G37*
G36*
X5962D02*
X5925D01*
Y-2699D01*
X5931Y-2698D01*
X5941Y-2694D01*
X5950Y-2687D01*
X5956Y-2679D01*
X5960Y-2669D01*
X5962Y-2658D01*
Y-2655D01*
D02*
G37*
G36*
X5915D02*
X5878D01*
Y-2658D01*
X5880Y-2669D01*
X5884Y-2679D01*
X5890Y-2687D01*
X5899Y-2694D01*
X5909Y-2698D01*
X5915Y-2699D01*
Y-2655D01*
D02*
G37*
G36*
X5090Y-3608D02*
X5077Y-3610D01*
X5064Y-3615D01*
X5053Y-3623D01*
X5045Y-3634D01*
X5040Y-3647D01*
X5038Y-3660D01*
X5040Y-3673D01*
X5045Y-3686D01*
X5053Y-3697D01*
X5064Y-3705D01*
X5068Y-3706D01*
Y-3771D01*
X5064Y-3774D01*
X5060Y-3782D01*
X5058Y-3790D01*
Y-4204D01*
X5054Y-4205D01*
X5043Y-4213D01*
X5035Y-4224D01*
X5030Y-4237D01*
X5028Y-4250D01*
X5030Y-4263D01*
X5035Y-4276D01*
X5043Y-4287D01*
X5054Y-4295D01*
X5067Y-4300D01*
X5080Y-4302D01*
X5093Y-4300D01*
X5106Y-4295D01*
X5117Y-4287D01*
X5125Y-4276D01*
X5130Y-4263D01*
X5132Y-4250D01*
X5130Y-4237D01*
X5125Y-4224D01*
X5117Y-4213D01*
X5106Y-4205D01*
X5102Y-4204D01*
Y-3799D01*
X5106Y-3796D01*
X5110Y-3788D01*
X5112Y-3780D01*
Y-3706D01*
X5116Y-3705D01*
X5127Y-3697D01*
X5135Y-3686D01*
X5140Y-3673D01*
X5142Y-3660D01*
X5140Y-3647D01*
X5135Y-3634D01*
X5127Y-3623D01*
X5116Y-3615D01*
X5103Y-3610D01*
X5090Y-3608D01*
D02*
G37*
G36*
X4903Y-4198D02*
X4889Y-4200D01*
X4877Y-4205D01*
X4866Y-4213D01*
X4858Y-4224D01*
X4853Y-4237D01*
X4851Y-4250D01*
X4853Y-4263D01*
X4858Y-4276D01*
X4866Y-4287D01*
X4877Y-4295D01*
X4889Y-4300D01*
X4903Y-4302D01*
X4916Y-4300D01*
X4929Y-4295D01*
X4939Y-4287D01*
X4948Y-4276D01*
X4953Y-4263D01*
X4954Y-4250D01*
X4953Y-4237D01*
X4948Y-4224D01*
X4939Y-4213D01*
X4929Y-4205D01*
X4916Y-4200D01*
X4903Y-4198D01*
D02*
G37*
G36*
X5860D02*
X5847Y-4200D01*
X5834Y-4205D01*
X5823Y-4213D01*
X5815Y-4224D01*
X5810Y-4237D01*
X5808Y-4250D01*
X5810Y-4263D01*
X5815Y-4276D01*
X5823Y-4287D01*
X5834Y-4295D01*
X5847Y-4300D01*
X5860Y-4302D01*
X5873Y-4300D01*
X5886Y-4295D01*
X5897Y-4287D01*
X5905Y-4276D01*
X5910Y-4263D01*
X5912Y-4250D01*
X5910Y-4237D01*
X5905Y-4224D01*
X5897Y-4213D01*
X5886Y-4205D01*
X5873Y-4200D01*
X5860Y-4198D01*
D02*
G37*
G36*
X5618Y-4131D02*
X5605Y-4133D01*
X5593Y-4138D01*
X5582Y-4146D01*
X5574Y-4157D01*
X5569Y-4169D01*
X5567Y-4182D01*
X5569Y-4196D01*
X5574Y-4208D01*
X5582Y-4219D01*
X5593Y-4227D01*
X5605Y-4232D01*
X5618Y-4234D01*
X5632Y-4232D01*
X5644Y-4227D01*
X5655Y-4219D01*
X5663Y-4208D01*
X5668Y-4196D01*
X5670Y-4182D01*
X5668Y-4169D01*
X5663Y-4157D01*
X5655Y-4146D01*
X5644Y-4138D01*
X5632Y-4133D01*
X5618Y-4131D01*
D02*
G37*
G36*
X6037Y-4198D02*
X6024Y-4200D01*
X6011Y-4205D01*
X6001Y-4213D01*
X5992Y-4224D01*
X5987Y-4237D01*
X5986Y-4250D01*
X5987Y-4263D01*
X5992Y-4276D01*
X6001Y-4287D01*
X6011Y-4295D01*
X6024Y-4300D01*
X6037Y-4302D01*
X6051Y-4300D01*
X6063Y-4295D01*
X6074Y-4287D01*
X6082Y-4276D01*
X6087Y-4263D01*
X6089Y-4250D01*
X6087Y-4237D01*
X6082Y-4224D01*
X6074Y-4213D01*
X6063Y-4205D01*
X6051Y-4200D01*
X6037Y-4198D01*
D02*
G37*
G36*
X1230Y-2658D02*
X1219Y-2660D01*
X1208Y-2664D01*
X1199Y-2671D01*
X1192Y-2680D01*
X1188Y-2691D01*
X1186Y-2702D01*
Y-2718D01*
X1188Y-2729D01*
X1192Y-2740D01*
X1199Y-2749D01*
X1208Y-2756D01*
X1212Y-2757D01*
Y-3000D01*
X1213Y-3007D01*
X1217Y-3013D01*
X1277Y-3073D01*
X1283Y-3077D01*
X1290Y-3078D01*
X1643D01*
X1682Y-3117D01*
Y-4040D01*
X1683Y-4047D01*
X1687Y-4053D01*
X1757Y-4123D01*
X1763Y-4127D01*
X1770Y-4128D01*
X2575D01*
X2577Y-4133D01*
X2585Y-4144D01*
X2596Y-4152D01*
X2608Y-4157D01*
X2622Y-4159D01*
X2635Y-4157D01*
X2647Y-4152D01*
X2658Y-4144D01*
X2663Y-4138D01*
X2668Y-4139D01*
Y-4340D01*
X2670Y-4348D01*
X2674Y-4356D01*
X2714Y-4396D01*
X2722Y-4400D01*
X2730Y-4402D01*
X2829D01*
Y-4423D01*
X2931D01*
Y-4363D01*
X2936Y-4361D01*
X2997Y-4423D01*
X3003Y-4427D01*
X3010Y-4428D01*
X4140D01*
X4147Y-4427D01*
X4153Y-4423D01*
X4203Y-4373D01*
X4207Y-4367D01*
X4208Y-4360D01*
Y-3707D01*
X4212Y-3706D01*
X4221Y-3699D01*
X4228Y-3690D01*
X4232Y-3679D01*
X4234Y-3668D01*
Y-3652D01*
X4232Y-3641D01*
X4228Y-3630D01*
X4221Y-3621D01*
X4212Y-3614D01*
X4201Y-3610D01*
X4190Y-3608D01*
X4179Y-3610D01*
X4168Y-3614D01*
X4159Y-3621D01*
X4152Y-3630D01*
X4148Y-3641D01*
X4146Y-3652D01*
Y-3668D01*
X4148Y-3679D01*
X4152Y-3690D01*
X4159Y-3699D01*
X4168Y-3706D01*
X4172Y-3707D01*
Y-4353D01*
X4133Y-4392D01*
X3661D01*
Y-4378D01*
X4030D01*
X4037Y-4377D01*
X4043Y-4373D01*
X4103Y-4313D01*
X4107Y-4307D01*
X4108Y-4300D01*
Y-3707D01*
X4112Y-3706D01*
X4121Y-3699D01*
X4128Y-3690D01*
X4132Y-3679D01*
X4134Y-3668D01*
Y-3652D01*
X4132Y-3641D01*
X4128Y-3630D01*
X4121Y-3621D01*
X4112Y-3614D01*
X4101Y-3610D01*
X4090Y-3608D01*
X4079Y-3610D01*
X4068Y-3614D01*
X4063Y-3618D01*
X4058Y-3616D01*
Y-3430D01*
X4057Y-3423D01*
X4053Y-3417D01*
X4027Y-3391D01*
X4028Y-3390D01*
X4032Y-3379D01*
X4034Y-3368D01*
Y-3352D01*
X4032Y-3341D01*
X4028Y-3330D01*
X4021Y-3321D01*
X4012Y-3314D01*
X4001Y-3310D01*
X3990Y-3308D01*
X3979Y-3310D01*
X3968Y-3314D01*
X3959Y-3321D01*
X3952Y-3330D01*
X3948Y-3341D01*
X3946Y-3352D01*
Y-3368D01*
X3948Y-3379D01*
X3952Y-3390D01*
X3959Y-3399D01*
X3968Y-3406D01*
X3979Y-3410D01*
X3990Y-3412D01*
X3995Y-3411D01*
X4022Y-3437D01*
Y-3616D01*
X4017Y-3618D01*
X4012Y-3614D01*
X4001Y-3610D01*
X3990Y-3608D01*
X3979Y-3610D01*
X3968Y-3614D01*
X3959Y-3621D01*
X3952Y-3630D01*
X3948Y-3641D01*
X3946Y-3652D01*
Y-3668D01*
X3948Y-3679D01*
X3952Y-3690D01*
X3959Y-3699D01*
X3968Y-3706D01*
X3972Y-3707D01*
Y-4183D01*
X3913Y-4242D01*
X3657D01*
X3656Y-4238D01*
X3649Y-4229D01*
X3640Y-4222D01*
X3629Y-4218D01*
X3618Y-4216D01*
X3602D01*
X3591Y-4218D01*
X3580Y-4222D01*
X3571Y-4229D01*
X3564Y-4238D01*
X3560Y-4249D01*
X3558Y-4260D01*
X3560Y-4271D01*
X3564Y-4282D01*
X3571Y-4291D01*
X3580Y-4298D01*
X3591Y-4302D01*
X3602Y-4304D01*
X3618D01*
X3629Y-4302D01*
X3640Y-4298D01*
X3649Y-4291D01*
X3656Y-4282D01*
X3657Y-4278D01*
X3920D01*
X3927Y-4277D01*
X3933Y-4273D01*
X4003Y-4203D01*
X4007Y-4197D01*
X4008Y-4190D01*
Y-3824D01*
X4013Y-3821D01*
X4019Y-3826D01*
X4029Y-3830D01*
X4040Y-3832D01*
X4051Y-3830D01*
X4061Y-3826D01*
X4067Y-3821D01*
X4072Y-3824D01*
Y-4293D01*
X4023Y-4342D01*
X3661D01*
Y-4317D01*
X3559D01*
Y-4342D01*
X3377D01*
X3348Y-4313D01*
Y-4158D01*
X3356Y-4155D01*
X3367Y-4147D01*
X3375Y-4136D01*
X3380Y-4123D01*
X3382Y-4110D01*
X3380Y-4097D01*
X3375Y-4084D01*
X3367Y-4073D01*
X3356Y-4065D01*
X3343Y-4060D01*
X3330Y-4058D01*
X3317Y-4060D01*
X3304Y-4065D01*
X3293Y-4073D01*
X3285Y-4084D01*
X3280Y-4097D01*
X3278Y-4110D01*
X3280Y-4123D01*
X3285Y-4136D01*
X3293Y-4147D01*
X3304Y-4155D01*
X3312Y-4158D01*
Y-4320D01*
X3313Y-4327D01*
X3317Y-4333D01*
X3357Y-4373D01*
X3363Y-4377D01*
X3370Y-4378D01*
X3559D01*
Y-4392D01*
X3017D01*
X2926Y-4301D01*
X2930Y-4291D01*
X2932Y-4280D01*
X2930Y-4269D01*
X2926Y-4258D01*
X2919Y-4249D01*
X2910Y-4242D01*
X2899Y-4238D01*
X2888Y-4236D01*
X2872D01*
X2861Y-4238D01*
X2850Y-4242D01*
X2841Y-4249D01*
X2834Y-4258D01*
X2830Y-4269D01*
X2828Y-4280D01*
X2830Y-4291D01*
X2834Y-4302D01*
X2841Y-4311D01*
X2850Y-4318D01*
X2861Y-4322D01*
X2872Y-4324D01*
X2888D01*
X2897Y-4322D01*
X2907Y-4332D01*
X2905Y-4337D01*
X2829D01*
Y-4358D01*
X2739D01*
X2712Y-4331D01*
Y-3758D01*
X2714Y-3757D01*
X2725Y-3749D01*
X2733Y-3738D01*
X2738Y-3726D01*
X2740Y-3712D01*
X2738Y-3699D01*
X2733Y-3687D01*
X2725Y-3676D01*
X2714Y-3668D01*
X2702Y-3663D01*
X2688Y-3661D01*
X2675Y-3663D01*
X2663Y-3668D01*
X2652Y-3676D01*
X2644Y-3687D01*
X2639Y-3699D01*
X2637Y-3712D01*
X2639Y-3726D01*
X2644Y-3738D01*
X2652Y-3749D01*
X2663Y-3757D01*
X2668Y-3759D01*
Y-4076D01*
X2663Y-4077D01*
X2658Y-4071D01*
X2647Y-4063D01*
X2635Y-4058D01*
X2622Y-4056D01*
X2608Y-4058D01*
X2596Y-4063D01*
X2585Y-4071D01*
X2577Y-4082D01*
X2573Y-4092D01*
X1777D01*
X1718Y-4033D01*
Y-3110D01*
X1717Y-3103D01*
X1713Y-3097D01*
X1663Y-3047D01*
X1657Y-3043D01*
X1650Y-3042D01*
X1297D01*
X1248Y-2993D01*
Y-2757D01*
X1252Y-2756D01*
X1261Y-2749D01*
X1268Y-2740D01*
X1272Y-2729D01*
X1274Y-2718D01*
Y-2702D01*
X1272Y-2691D01*
X1268Y-2680D01*
X1261Y-2671D01*
X1252Y-2664D01*
X1241Y-2660D01*
X1230Y-2658D01*
D02*
G37*
G36*
X3128Y-4456D02*
X3120Y-4457D01*
X3108Y-4462D01*
X3098Y-4470D01*
X3090Y-4480D01*
X3085Y-4492D01*
X3084Y-4500D01*
X3128D01*
Y-4456D01*
D02*
G37*
G36*
X2627Y-4458D02*
Y-4503D01*
X2671D01*
X2670Y-4495D01*
X2665Y-4483D01*
X2657Y-4472D01*
X2646Y-4464D01*
X2634Y-4459D01*
X2627Y-4458D01*
D02*
G37*
G36*
X3138Y-4456D02*
Y-4500D01*
X3182D01*
X3181Y-4492D01*
X3176Y-4480D01*
X3168Y-4470D01*
X3158Y-4462D01*
X3146Y-4457D01*
X3138Y-4456D01*
D02*
G37*
G36*
X6800Y-4348D02*
X6789Y-4350D01*
X6778Y-4354D01*
X6769Y-4361D01*
X6762Y-4370D01*
X6758Y-4381D01*
X6756Y-4392D01*
Y-4408D01*
X6758Y-4419D01*
X6762Y-4430D01*
X6769Y-4439D01*
X6778Y-4446D01*
X6789Y-4450D01*
X6800Y-4452D01*
X6811Y-4450D01*
X6822Y-4446D01*
X6831Y-4439D01*
X6838Y-4430D01*
X6842Y-4419D01*
X6844Y-4408D01*
Y-4392D01*
X6842Y-4381D01*
X6838Y-4370D01*
X6831Y-4361D01*
X6822Y-4354D01*
X6811Y-4350D01*
X6800Y-4348D01*
D02*
G37*
G36*
X6450Y-4285D02*
X6440Y-4287D01*
X6430Y-4291D01*
X6422Y-4297D01*
X6416Y-4305D01*
X6412Y-4315D01*
X6410Y-4325D01*
X6412Y-4335D01*
X6416Y-4345D01*
X6422Y-4353D01*
X6430Y-4359D01*
X6432Y-4360D01*
Y-4365D01*
X6430Y-4366D01*
X6422Y-4372D01*
X6416Y-4380D01*
X6412Y-4390D01*
X6410Y-4400D01*
X6412Y-4410D01*
X6416Y-4420D01*
X6422Y-4428D01*
X6428Y-4432D01*
X6426Y-4437D01*
X6412D01*
Y-4470D01*
X6450D01*
X6488D01*
Y-4437D01*
X6474D01*
X6472Y-4432D01*
X6478Y-4428D01*
X6484Y-4420D01*
X6488Y-4410D01*
X6490Y-4400D01*
X6488Y-4390D01*
X6484Y-4380D01*
X6478Y-4372D01*
X6470Y-4366D01*
X6468Y-4365D01*
Y-4360D01*
X6470Y-4359D01*
X6478Y-4353D01*
X6484Y-4345D01*
X6488Y-4335D01*
X6490Y-4325D01*
X6488Y-4315D01*
X6484Y-4305D01*
X6478Y-4297D01*
X6470Y-4291D01*
X6460Y-4287D01*
X6450Y-4285D01*
D02*
G37*
G36*
X4690Y-3458D02*
X4679Y-3460D01*
X4669Y-3464D01*
X4661Y-3471D01*
X4654Y-3479D01*
X4650Y-3489D01*
X4648Y-3500D01*
X4650Y-3511D01*
X4654Y-3521D01*
X4661Y-3529D01*
X4669Y-3536D01*
X4673Y-3538D01*
Y-4130D01*
X4666Y-4133D01*
X4655Y-4141D01*
X4647Y-4152D01*
X4642Y-4164D01*
X4640Y-4178D01*
X4642Y-4191D01*
X4647Y-4203D01*
X4655Y-4214D01*
X4666Y-4222D01*
X4678Y-4227D01*
X4692Y-4229D01*
X4705Y-4227D01*
X4717Y-4222D01*
X4728Y-4214D01*
X4736Y-4203D01*
X4741Y-4191D01*
X4743Y-4178D01*
X4741Y-4164D01*
X4736Y-4152D01*
X4728Y-4141D01*
X4717Y-4133D01*
X4710Y-4130D01*
Y-3537D01*
X4711Y-3536D01*
X4719Y-3529D01*
X4726Y-3521D01*
X4730Y-3511D01*
X4732Y-3500D01*
X4730Y-3489D01*
X4726Y-3479D01*
X4719Y-3471D01*
X4711Y-3464D01*
X4701Y-3460D01*
X4690Y-3458D01*
D02*
G37*
G36*
X178Y-3631D02*
X165Y-3633D01*
X153Y-3638D01*
X142Y-3646D01*
X134Y-3657D01*
X129Y-3669D01*
X127Y-3682D01*
X129Y-3696D01*
X134Y-3708D01*
X142Y-3719D01*
X153Y-3727D01*
X165Y-3732D01*
X178Y-3734D01*
X192Y-3732D01*
X204Y-3727D01*
X215Y-3719D01*
X223Y-3708D01*
X228Y-3696D01*
X230Y-3682D01*
X228Y-3669D01*
X223Y-3657D01*
X215Y-3646D01*
X204Y-3638D01*
X192Y-3633D01*
X178Y-3631D01*
D02*
G37*
G36*
X890Y-3638D02*
X877Y-3640D01*
X864Y-3645D01*
X853Y-3653D01*
X845Y-3664D01*
X840Y-3677D01*
X838Y-3690D01*
X840Y-3703D01*
X845Y-3716D01*
X853Y-3727D01*
X864Y-3735D01*
X877Y-3740D01*
X890Y-3742D01*
X903Y-3740D01*
X916Y-3735D01*
X927Y-3727D01*
X935Y-3716D01*
X940Y-3703D01*
X942Y-3690D01*
X940Y-3677D01*
X935Y-3664D01*
X927Y-3653D01*
X916Y-3645D01*
X903Y-3640D01*
X890Y-3638D01*
D02*
G37*
G36*
X5698Y-3611D02*
X5685Y-3613D01*
X5673Y-3618D01*
X5662Y-3626D01*
X5654Y-3637D01*
X5649Y-3649D01*
X5647Y-3662D01*
X5649Y-3676D01*
X5654Y-3688D01*
X5662Y-3699D01*
X5673Y-3707D01*
X5685Y-3712D01*
X5698Y-3714D01*
X5712Y-3712D01*
X5724Y-3707D01*
X5735Y-3699D01*
X5743Y-3688D01*
X5748Y-3676D01*
X5750Y-3662D01*
X5748Y-3649D01*
X5743Y-3637D01*
X5735Y-3626D01*
X5724Y-3618D01*
X5712Y-3613D01*
X5698Y-3611D01*
D02*
G37*
G36*
X4855Y-3665D02*
X4811D01*
X4812Y-3673D01*
X4817Y-3685D01*
X4825Y-3695D01*
X4835Y-3703D01*
X4847Y-3708D01*
X4855Y-3709D01*
Y-3665D01*
D02*
G37*
G36*
X5480Y-3608D02*
X5467Y-3610D01*
X5454Y-3615D01*
X5443Y-3623D01*
X5435Y-3634D01*
X5430Y-3647D01*
X5428Y-3660D01*
X5430Y-3673D01*
X5435Y-3686D01*
X5443Y-3697D01*
X5454Y-3705D01*
X5467Y-3710D01*
X5480Y-3712D01*
X5493Y-3710D01*
X5506Y-3705D01*
X5517Y-3697D01*
X5525Y-3686D01*
X5530Y-3673D01*
X5532Y-3660D01*
X5530Y-3647D01*
X5525Y-3634D01*
X5517Y-3623D01*
X5506Y-3615D01*
X5493Y-3610D01*
X5480Y-3608D01*
D02*
G37*
G36*
X2169Y-3715D02*
X2125D01*
Y-3759D01*
X2133Y-3758D01*
X2145Y-3753D01*
X2155Y-3745D01*
X2163Y-3735D01*
X2168Y-3723D01*
X2169Y-3715D01*
D02*
G37*
G36*
X3133Y-4053D02*
X3120Y-4055D01*
X3107Y-4060D01*
X3097Y-4069D01*
X3088Y-4079D01*
X3083Y-4092D01*
X3081Y-4105D01*
X3083Y-4118D01*
X3088Y-4131D01*
X3097Y-4142D01*
X3107Y-4150D01*
X3120Y-4155D01*
X3133Y-4157D01*
X3146Y-4155D01*
X3159Y-4150D01*
X3170Y-4142D01*
X3178Y-4131D01*
X3183Y-4118D01*
X3185Y-4105D01*
X3183Y-4092D01*
X3178Y-4079D01*
X3170Y-4069D01*
X3159Y-4060D01*
X3146Y-4055D01*
X3133Y-4053D01*
D02*
G37*
G36*
X7050Y-4118D02*
X7037Y-4120D01*
X7024Y-4125D01*
X7013Y-4133D01*
X7005Y-4144D01*
X7002Y-4152D01*
X6750D01*
X6743Y-4153D01*
X6737Y-4157D01*
X6687Y-4207D01*
X6683Y-4213D01*
X6682Y-4220D01*
Y-4349D01*
X6657D01*
Y-4451D01*
X6743D01*
Y-4349D01*
X6718D01*
Y-4227D01*
X6757Y-4188D01*
X7002D01*
X7005Y-4196D01*
X7013Y-4207D01*
X7024Y-4215D01*
X7037Y-4220D01*
X7050Y-4222D01*
X7063Y-4220D01*
X7076Y-4215D01*
X7087Y-4207D01*
X7095Y-4196D01*
X7100Y-4183D01*
X7102Y-4170D01*
X7100Y-4157D01*
X7095Y-4144D01*
X7087Y-4133D01*
X7076Y-4125D01*
X7063Y-4120D01*
X7050Y-4118D01*
D02*
G37*
G36*
X3450Y-3658D02*
X3437Y-3660D01*
X3424Y-3665D01*
X3413Y-3673D01*
X3405Y-3684D01*
X3400Y-3697D01*
X3398Y-3710D01*
X3400Y-3723D01*
X3405Y-3736D01*
X3413Y-3747D01*
X3424Y-3755D01*
X3437Y-3760D01*
X3450Y-3762D01*
X3463Y-3760D01*
X3476Y-3755D01*
X3487Y-3747D01*
X3495Y-3736D01*
X3500Y-3723D01*
X3502Y-3710D01*
X3500Y-3697D01*
X3495Y-3684D01*
X3487Y-3673D01*
X3476Y-3665D01*
X3463Y-3660D01*
X3450Y-3658D01*
D02*
G37*
G36*
X2115Y-3715D02*
X2071D01*
X2072Y-3723D01*
X2077Y-3735D01*
X2085Y-3745D01*
X2095Y-3753D01*
X2107Y-3758D01*
X2115Y-3759D01*
Y-3715D01*
D02*
G37*
G36*
X3660Y-3658D02*
X3647Y-3660D01*
X3634Y-3665D01*
X3623Y-3673D01*
X3615Y-3684D01*
X3610Y-3697D01*
X3608Y-3710D01*
X3610Y-3723D01*
X3615Y-3736D01*
X3623Y-3747D01*
X3634Y-3755D01*
X3647Y-3760D01*
X3660Y-3762D01*
X3673Y-3760D01*
X3686Y-3755D01*
X3697Y-3747D01*
X3705Y-3736D01*
X3710Y-3723D01*
X3712Y-3710D01*
X3710Y-3697D01*
X3705Y-3684D01*
X3697Y-3673D01*
X3686Y-3665D01*
X3673Y-3660D01*
X3660Y-3658D01*
D02*
G37*
G36*
X4741Y-4583D02*
X4697D01*
Y-4627D01*
X4704Y-4626D01*
X4716Y-4621D01*
X4727Y-4613D01*
X4735Y-4602D01*
X4740Y-4590D01*
X4741Y-4583D01*
D02*
G37*
G36*
X5618Y-4531D02*
X5605Y-4533D01*
X5593Y-4538D01*
X5582Y-4546D01*
X5574Y-4557D01*
X5569Y-4569D01*
X5567Y-4582D01*
X5569Y-4596D01*
X5574Y-4608D01*
X5582Y-4619D01*
X5593Y-4627D01*
X5605Y-4632D01*
X5618Y-4634D01*
X5632Y-4632D01*
X5644Y-4627D01*
X5655Y-4619D01*
X5663Y-4608D01*
X5668Y-4596D01*
X5670Y-4582D01*
X5668Y-4569D01*
X5663Y-4557D01*
X5655Y-4546D01*
X5644Y-4538D01*
X5632Y-4533D01*
X5618Y-4531D01*
D02*
G37*
G36*
X4687Y-4583D02*
X4642D01*
X4643Y-4590D01*
X4648Y-4602D01*
X4656Y-4613D01*
X4667Y-4621D01*
X4679Y-4626D01*
X4687Y-4627D01*
Y-4583D01*
D02*
G37*
G36*
X4697Y-4528D02*
Y-4573D01*
X4741D01*
X4740Y-4565D01*
X4735Y-4553D01*
X4727Y-4542D01*
X4716Y-4534D01*
X4704Y-4529D01*
X4697Y-4528D01*
D02*
G37*
G36*
X4687D02*
X4679Y-4529D01*
X4667Y-4534D01*
X4656Y-4542D01*
X4648Y-4553D01*
X4643Y-4565D01*
X4642Y-4573D01*
X4687D01*
Y-4528D01*
D02*
G37*
G36*
X-40Y-4595D02*
Y-4643D01*
X8D01*
X7Y-4634D01*
X2Y-4621D01*
X-7Y-4610D01*
X-18Y-4601D01*
X-31Y-4596D01*
X-40Y-4595D01*
D02*
G37*
G36*
X-50Y-4653D02*
X-98D01*
X-97Y-4662D01*
X-92Y-4675D01*
X-83Y-4686D01*
X-72Y-4695D01*
X-59Y-4700D01*
X-50Y-4701D01*
Y-4653D01*
D02*
G37*
G36*
X6920Y-1398D02*
X6909Y-1400D01*
X6898Y-1404D01*
X6889Y-1411D01*
X6882Y-1420D01*
X6878Y-1431D01*
X6876Y-1442D01*
Y-1458D01*
X6878Y-1469D01*
X6882Y-1480D01*
X6889Y-1489D01*
X6898Y-1496D01*
X6909Y-1500D01*
X6920Y-1502D01*
X6931Y-1500D01*
X6942Y-1496D01*
X6951Y-1489D01*
X6958Y-1480D01*
X6962Y-1469D01*
X6962Y-1468D01*
X7223D01*
X7282Y-1527D01*
Y-4643D01*
X7203Y-4722D01*
X1617D01*
X1578Y-4683D01*
Y-3583D01*
X1611D01*
Y-3497D01*
X1509D01*
Y-3583D01*
X1542D01*
Y-4690D01*
X1543Y-4697D01*
X1547Y-4703D01*
X1597Y-4753D01*
X1603Y-4757D01*
X1610Y-4758D01*
X7210D01*
X7217Y-4757D01*
X7223Y-4753D01*
X7313Y-4663D01*
X7317Y-4657D01*
X7318Y-4650D01*
Y-1520D01*
X7317Y-1513D01*
X7313Y-1507D01*
X7243Y-1437D01*
X7237Y-1433D01*
X7230Y-1432D01*
X6962D01*
X6962Y-1431D01*
X6958Y-1420D01*
X6951Y-1411D01*
X6942Y-1404D01*
X6931Y-1400D01*
X6920Y-1398D01*
D02*
G37*
G36*
X8Y-4653D02*
X-40D01*
Y-4701D01*
X-31Y-4700D01*
X-18Y-4695D01*
X-7Y-4686D01*
X2Y-4675D01*
X7Y-4662D01*
X8Y-4653D01*
D02*
G37*
G36*
X-50Y-4595D02*
X-59Y-4596D01*
X-72Y-4601D01*
X-83Y-4610D01*
X-92Y-4621D01*
X-97Y-4634D01*
X-98Y-4643D01*
X-50D01*
Y-4595D01*
D02*
G37*
G36*
X4390Y-3608D02*
X4379Y-3610D01*
X4368Y-3614D01*
X4359Y-3621D01*
X4352Y-3630D01*
X4348Y-3641D01*
X4346Y-3652D01*
Y-3668D01*
X4348Y-3679D01*
X4352Y-3690D01*
X4359Y-3699D01*
X4368Y-3706D01*
X4372Y-3707D01*
Y-4573D01*
X4369Y-4574D01*
X4361Y-4581D01*
X4354Y-4589D01*
X4350Y-4599D01*
X4348Y-4610D01*
X4350Y-4621D01*
X4354Y-4631D01*
X4361Y-4639D01*
X4369Y-4646D01*
X4379Y-4650D01*
X4390Y-4652D01*
X4401Y-4650D01*
X4411Y-4646D01*
X4419Y-4639D01*
X4426Y-4631D01*
X4430Y-4621D01*
X4432Y-4610D01*
X4430Y-4599D01*
X4426Y-4589D01*
X4419Y-4581D01*
X4411Y-4574D01*
X4408Y-4573D01*
Y-3707D01*
X4412Y-3706D01*
X4421Y-3699D01*
X4428Y-3690D01*
X4432Y-3679D01*
X4434Y-3668D01*
Y-3652D01*
X4432Y-3641D01*
X4428Y-3630D01*
X4421Y-3621D01*
X4412Y-3614D01*
X4401Y-3610D01*
X4390Y-3608D01*
D02*
G37*
G36*
X3330Y-4458D02*
X3317Y-4460D01*
X3304Y-4465D01*
X3293Y-4473D01*
X3285Y-4484D01*
X3280Y-4497D01*
X3278Y-4510D01*
X3280Y-4523D01*
X3285Y-4536D01*
X3293Y-4547D01*
X3304Y-4555D01*
X3317Y-4560D01*
X3330Y-4562D01*
X3343Y-4560D01*
X3356Y-4555D01*
X3367Y-4547D01*
X3375Y-4536D01*
X3380Y-4523D01*
X3382Y-4510D01*
X3380Y-4497D01*
X3375Y-4484D01*
X3367Y-4473D01*
X3356Y-4465D01*
X3343Y-4460D01*
X3330Y-4458D01*
D02*
G37*
G36*
X3128Y-4510D02*
X3084D01*
X3085Y-4518D01*
X3090Y-4530D01*
X3098Y-4540D01*
X3108Y-4548D01*
X3120Y-4553D01*
X3128Y-4554D01*
Y-4510D01*
D02*
G37*
G36*
X3182D02*
X3138D01*
Y-4554D01*
X3146Y-4553D01*
X3158Y-4548D01*
X3168Y-4540D01*
X3176Y-4530D01*
X3181Y-4518D01*
X3182Y-4510D01*
D02*
G37*
G36*
X6445Y-4480D02*
X6412D01*
Y-4513D01*
X6445D01*
Y-4480D01*
D02*
G37*
G36*
X2617Y-4458D02*
X2609Y-4459D01*
X2597Y-4464D01*
X2586Y-4472D01*
X2578Y-4483D01*
X2573Y-4495D01*
X2572Y-4503D01*
X2617D01*
Y-4458D01*
D02*
G37*
G36*
X6488Y-4480D02*
X6455D01*
Y-4513D01*
X6488D01*
Y-4480D01*
D02*
G37*
G36*
X2617Y-4513D02*
X2572D01*
X2573Y-4520D01*
X2578Y-4532D01*
X2586Y-4543D01*
X2597Y-4551D01*
X2609Y-4556D01*
X2617Y-4557D01*
Y-4513D01*
D02*
G37*
G36*
X5080Y-4454D02*
X5067Y-4456D01*
X5054Y-4461D01*
X5043Y-4469D01*
X5035Y-4480D01*
X5030Y-4493D01*
X5028Y-4506D01*
X5030Y-4519D01*
X5035Y-4532D01*
X5043Y-4542D01*
X5054Y-4551D01*
X5067Y-4556D01*
X5080Y-4558D01*
X5093Y-4556D01*
X5106Y-4551D01*
X5117Y-4542D01*
X5125Y-4532D01*
X5130Y-4519D01*
X5132Y-4506D01*
X5130Y-4493D01*
X5125Y-4480D01*
X5117Y-4469D01*
X5106Y-4461D01*
X5093Y-4456D01*
X5080Y-4454D01*
D02*
G37*
G36*
X4903D02*
X4889Y-4456D01*
X4877Y-4461D01*
X4866Y-4469D01*
X4858Y-4480D01*
X4853Y-4493D01*
X4851Y-4506D01*
X4853Y-4519D01*
X4858Y-4532D01*
X4866Y-4542D01*
X4877Y-4551D01*
X4889Y-4556D01*
X4903Y-4558D01*
X4916Y-4556D01*
X4929Y-4551D01*
X4939Y-4542D01*
X4948Y-4532D01*
X4953Y-4519D01*
X4954Y-4506D01*
X4953Y-4493D01*
X4948Y-4480D01*
X4939Y-4469D01*
X4929Y-4461D01*
X4916Y-4456D01*
X4903Y-4454D01*
D02*
G37*
G36*
X5860D02*
X5847Y-4456D01*
X5834Y-4461D01*
X5823Y-4469D01*
X5815Y-4480D01*
X5810Y-4493D01*
X5808Y-4506D01*
X5810Y-4519D01*
X5815Y-4532D01*
X5823Y-4542D01*
X5834Y-4551D01*
X5847Y-4556D01*
X5860Y-4558D01*
X5873Y-4556D01*
X5886Y-4551D01*
X5897Y-4542D01*
X5905Y-4532D01*
X5910Y-4519D01*
X5912Y-4506D01*
X5910Y-4493D01*
X5905Y-4480D01*
X5897Y-4469D01*
X5886Y-4461D01*
X5873Y-4456D01*
X5860Y-4454D01*
D02*
G37*
G36*
X2671Y-4513D02*
X2627D01*
Y-4557D01*
X2634Y-4556D01*
X2646Y-4551D01*
X2657Y-4543D01*
X2665Y-4532D01*
X2670Y-4520D01*
X2671Y-4513D01*
D02*
G37*
G36*
X6037Y-4454D02*
X6024Y-4456D01*
X6011Y-4461D01*
X6001Y-4469D01*
X5992Y-4480D01*
X5987Y-4493D01*
X5986Y-4506D01*
X5987Y-4519D01*
X5992Y-4532D01*
X6001Y-4542D01*
X6011Y-4551D01*
X6024Y-4556D01*
X6037Y-4558D01*
X6051Y-4556D01*
X6063Y-4551D01*
X6074Y-4542D01*
X6082Y-4532D01*
X6087Y-4519D01*
X6089Y-4506D01*
X6087Y-4493D01*
X6082Y-4480D01*
X6074Y-4469D01*
X6063Y-4461D01*
X6051Y-4456D01*
X6037Y-4454D01*
D02*
G37*
G36*
X2510Y-2948D02*
X2499Y-2950D01*
X2489Y-2954D01*
X2481Y-2961D01*
X2474Y-2969D01*
X2470Y-2979D01*
X2468Y-2990D01*
X2470Y-3001D01*
X2474Y-3011D01*
X2481Y-3019D01*
X2489Y-3026D01*
X2492Y-3027D01*
Y-3382D01*
X2484Y-3385D01*
X2473Y-3393D01*
X2465Y-3404D01*
X2460Y-3417D01*
X2458Y-3430D01*
X2460Y-3443D01*
X2465Y-3456D01*
X2473Y-3467D01*
X2484Y-3475D01*
X2497Y-3480D01*
X2510Y-3482D01*
X2523Y-3480D01*
X2536Y-3475D01*
X2547Y-3467D01*
X2555Y-3456D01*
X2560Y-3443D01*
X2562Y-3430D01*
X2560Y-3417D01*
X2555Y-3404D01*
X2547Y-3393D01*
X2536Y-3385D01*
X2528Y-3382D01*
Y-3027D01*
X2531Y-3026D01*
X2539Y-3019D01*
X2546Y-3011D01*
X2550Y-3001D01*
X2552Y-2990D01*
X2550Y-2979D01*
X2546Y-2969D01*
X2539Y-2961D01*
X2531Y-2954D01*
X2521Y-2950D01*
X2510Y-2948D01*
D02*
G37*
G36*
X2991Y-3417D02*
X2889D01*
Y-3503D01*
X2991D01*
Y-3417D01*
D02*
G37*
G36*
X6081Y-3387D02*
X5979D01*
Y-3473D01*
X6081D01*
Y-3387D01*
D02*
G37*
G36*
X7010Y-3328D02*
X6997Y-3330D01*
X6984Y-3335D01*
X6973Y-3343D01*
X6965Y-3354D01*
X6960Y-3367D01*
X6958Y-3380D01*
X6960Y-3393D01*
X6965Y-3406D01*
X6973Y-3417D01*
X6984Y-3425D01*
X6997Y-3430D01*
X7010Y-3432D01*
X7023Y-3430D01*
X7036Y-3425D01*
X7047Y-3417D01*
X7055Y-3406D01*
X7060Y-3393D01*
X7062Y-3380D01*
X7060Y-3367D01*
X7055Y-3354D01*
X7047Y-3343D01*
X7036Y-3335D01*
X7023Y-3330D01*
X7010Y-3328D01*
D02*
G37*
G36*
X-9Y-3377D02*
X-111D01*
Y-3463D01*
X-9D01*
Y-3377D01*
D02*
G37*
G36*
X6038Y-3488D02*
X6035D01*
Y-3525D01*
X6079D01*
X6078Y-3519D01*
X6074Y-3509D01*
X6067Y-3500D01*
X6059Y-3494D01*
X6049Y-3490D01*
X6038Y-3488D01*
D02*
G37*
G36*
X6025Y-3535D02*
X5981D01*
X5982Y-3541D01*
X5986Y-3551D01*
X5993Y-3560D01*
X6001Y-3566D01*
X6011Y-3570D01*
X6022Y-3572D01*
X6025D01*
Y-3535D01*
D02*
G37*
G36*
X691Y-3487D02*
X589D01*
Y-3573D01*
X691D01*
Y-3487D01*
D02*
G37*
G36*
X6079Y-3535D02*
X6035D01*
Y-3572D01*
X6038D01*
X6049Y-3570D01*
X6059Y-3566D01*
X6067Y-3560D01*
X6074Y-3551D01*
X6078Y-3541D01*
X6079Y-3535D01*
D02*
G37*
G36*
X6025Y-3488D02*
X6022D01*
X6011Y-3490D01*
X6001Y-3494D01*
X5993Y-3500D01*
X5986Y-3509D01*
X5982Y-3519D01*
X5981Y-3525D01*
X6025D01*
Y-3488D01*
D02*
G37*
G36*
X4610Y-2958D02*
X4599Y-2960D01*
X4589Y-2964D01*
X4581Y-2971D01*
X4574Y-2979D01*
X4570Y-2989D01*
X4568Y-3000D01*
X4570Y-3011D01*
X4574Y-3021D01*
X4581Y-3029D01*
X4589Y-3036D01*
X4592Y-3037D01*
Y-3503D01*
X4563Y-3532D01*
X4424D01*
X4421Y-3527D01*
X4426Y-3521D01*
X4430Y-3511D01*
X4432Y-3500D01*
X4430Y-3489D01*
X4426Y-3479D01*
X4419Y-3471D01*
X4411Y-3464D01*
X4408Y-3463D01*
Y-3407D01*
X4412Y-3406D01*
X4421Y-3399D01*
X4428Y-3390D01*
X4432Y-3379D01*
X4434Y-3368D01*
Y-3352D01*
X4432Y-3341D01*
X4428Y-3330D01*
X4421Y-3321D01*
X4412Y-3314D01*
X4401Y-3310D01*
X4390Y-3308D01*
X4379Y-3310D01*
X4368Y-3314D01*
X4359Y-3321D01*
X4352Y-3330D01*
X4348Y-3341D01*
X4346Y-3352D01*
Y-3368D01*
X4348Y-3379D01*
X4352Y-3390D01*
X4359Y-3399D01*
X4368Y-3406D01*
X4372Y-3407D01*
Y-3463D01*
X4369Y-3464D01*
X4361Y-3471D01*
X4354Y-3479D01*
X4350Y-3489D01*
X4348Y-3500D01*
X4350Y-3511D01*
X4354Y-3521D01*
X4359Y-3527D01*
X4356Y-3532D01*
X4330D01*
X4323Y-3533D01*
X4317Y-3537D01*
X4277Y-3577D01*
X4273Y-3583D01*
X4272Y-3590D01*
Y-3613D01*
X4268Y-3614D01*
X4259Y-3621D01*
X4252Y-3630D01*
X4248Y-3641D01*
X4246Y-3652D01*
Y-3668D01*
X4248Y-3679D01*
X4252Y-3690D01*
X4259Y-3699D01*
X4268Y-3706D01*
X4279Y-3710D01*
X4290Y-3712D01*
X4301Y-3710D01*
X4312Y-3706D01*
X4321Y-3699D01*
X4328Y-3690D01*
X4332Y-3679D01*
X4334Y-3668D01*
Y-3652D01*
X4332Y-3641D01*
X4328Y-3630D01*
X4321Y-3621D01*
X4312Y-3614D01*
X4308Y-3613D01*
Y-3597D01*
X4337Y-3568D01*
X4570D01*
X4577Y-3567D01*
X4583Y-3563D01*
X4623Y-3523D01*
X4627Y-3517D01*
X4628Y-3510D01*
Y-3037D01*
X4631Y-3036D01*
X4639Y-3029D01*
X4646Y-3021D01*
X4650Y-3011D01*
X4652Y-3000D01*
X4650Y-2989D01*
X4646Y-2979D01*
X4639Y-2971D01*
X4631Y-2964D01*
X4621Y-2960D01*
X4610Y-2958D01*
D02*
G37*
G36*
X3215Y-3397D02*
X3182D01*
Y-3430D01*
X3215D01*
Y-3397D01*
D02*
G37*
G36*
X6540Y-2904D02*
X6526Y-2906D01*
X6512Y-2912D01*
X6501Y-2921D01*
X6492Y-2932D01*
X6486Y-2946D01*
X6484Y-2960D01*
X6486Y-2974D01*
X6492Y-2988D01*
X6501Y-2999D01*
X6512Y-3008D01*
X6522Y-3012D01*
Y-3273D01*
X6518Y-3274D01*
X6509Y-3281D01*
X6502Y-3290D01*
X6498Y-3301D01*
X6496Y-3312D01*
Y-3328D01*
X6498Y-3339D01*
X6502Y-3350D01*
X6509Y-3359D01*
X6518Y-3366D01*
X6529Y-3370D01*
X6540Y-3372D01*
X6551Y-3370D01*
X6562Y-3366D01*
X6571Y-3359D01*
X6578Y-3350D01*
X6582Y-3339D01*
X6584Y-3328D01*
Y-3312D01*
X6582Y-3301D01*
X6578Y-3290D01*
X6571Y-3281D01*
X6562Y-3274D01*
X6558Y-3273D01*
Y-3012D01*
X6568Y-3008D01*
X6579Y-2999D01*
X6588Y-2988D01*
X6594Y-2974D01*
X6596Y-2960D01*
X6594Y-2946D01*
X6588Y-2932D01*
X6579Y-2921D01*
X6568Y-2912D01*
X6554Y-2906D01*
X6540Y-2904D01*
D02*
G37*
G36*
X5290Y-3298D02*
X5277Y-3300D01*
X5264Y-3305D01*
X5253Y-3313D01*
X5245Y-3324D01*
X5240Y-3337D01*
X5238Y-3350D01*
X5240Y-3363D01*
X5245Y-3376D01*
X5253Y-3387D01*
X5264Y-3395D01*
X5277Y-3400D01*
X5290Y-3402D01*
X5303Y-3400D01*
X5316Y-3395D01*
X5327Y-3387D01*
X5335Y-3376D01*
X5340Y-3363D01*
X5342Y-3350D01*
X5340Y-3337D01*
X5335Y-3324D01*
X5327Y-3313D01*
X5316Y-3305D01*
X5303Y-3300D01*
X5290Y-3298D01*
D02*
G37*
G36*
X6640Y-3268D02*
X6629Y-3270D01*
X6618Y-3274D01*
X6609Y-3281D01*
X6602Y-3290D01*
X6598Y-3301D01*
X6596Y-3312D01*
Y-3328D01*
X6598Y-3339D01*
X6602Y-3350D01*
X6609Y-3359D01*
X6618Y-3366D01*
X6629Y-3370D01*
X6640Y-3372D01*
X6651Y-3370D01*
X6662Y-3366D01*
X6671Y-3359D01*
X6678Y-3350D01*
X6682Y-3339D01*
X6684Y-3328D01*
Y-3312D01*
X6682Y-3301D01*
X6678Y-3290D01*
X6671Y-3281D01*
X6662Y-3274D01*
X6651Y-3270D01*
X6640Y-3268D01*
D02*
G37*
G36*
X2688Y-3261D02*
X2675Y-3263D01*
X2663Y-3268D01*
X2652Y-3276D01*
X2644Y-3287D01*
X2639Y-3299D01*
X2637Y-3312D01*
X2639Y-3326D01*
X2644Y-3338D01*
X2652Y-3349D01*
X2663Y-3357D01*
X2675Y-3362D01*
X2688Y-3364D01*
X2702Y-3362D01*
X2714Y-3357D01*
X2725Y-3349D01*
X2733Y-3338D01*
X2738Y-3326D01*
X2740Y-3312D01*
X2738Y-3299D01*
X2733Y-3287D01*
X2725Y-3276D01*
X2714Y-3268D01*
X2702Y-3263D01*
X2688Y-3261D01*
D02*
G37*
G36*
X6740Y-3268D02*
X6729Y-3270D01*
X6718Y-3274D01*
X6709Y-3281D01*
X6702Y-3290D01*
X6698Y-3301D01*
X6696Y-3312D01*
Y-3328D01*
X6698Y-3339D01*
X6702Y-3350D01*
X6709Y-3359D01*
X6718Y-3366D01*
X6729Y-3370D01*
X6740Y-3372D01*
X6751Y-3370D01*
X6762Y-3366D01*
X6771Y-3359D01*
X6778Y-3350D01*
X6782Y-3339D01*
X6784Y-3328D01*
Y-3312D01*
X6782Y-3301D01*
X6778Y-3290D01*
X6771Y-3281D01*
X6762Y-3274D01*
X6751Y-3270D01*
X6740Y-3268D01*
D02*
G37*
G36*
X4490Y-3308D02*
X4479Y-3310D01*
X4468Y-3314D01*
X4459Y-3321D01*
X4452Y-3330D01*
X4448Y-3341D01*
X4446Y-3352D01*
Y-3368D01*
X4448Y-3379D01*
X4452Y-3390D01*
X4459Y-3399D01*
X4468Y-3406D01*
X4479Y-3410D01*
X4490Y-3412D01*
X4501Y-3410D01*
X4512Y-3406D01*
X4521Y-3399D01*
X4528Y-3390D01*
X4532Y-3379D01*
X4534Y-3368D01*
Y-3352D01*
X4532Y-3341D01*
X4528Y-3330D01*
X4521Y-3321D01*
X4512Y-3314D01*
X4501Y-3310D01*
X4490Y-3308D01*
D02*
G37*
G36*
X3890D02*
X3879Y-3310D01*
X3868Y-3314D01*
X3859Y-3321D01*
X3852Y-3330D01*
X3848Y-3341D01*
X3846Y-3352D01*
Y-3368D01*
X3848Y-3379D01*
X3852Y-3390D01*
X3859Y-3399D01*
X3868Y-3406D01*
X3879Y-3410D01*
X3890Y-3412D01*
X3901Y-3410D01*
X3912Y-3406D01*
X3921Y-3399D01*
X3928Y-3390D01*
X3932Y-3379D01*
X3934Y-3368D01*
Y-3352D01*
X3932Y-3341D01*
X3928Y-3330D01*
X3921Y-3321D01*
X3912Y-3314D01*
X3901Y-3310D01*
X3890Y-3308D01*
D02*
G37*
G36*
X3258Y-3397D02*
X3225D01*
Y-3430D01*
X3258D01*
Y-3397D01*
D02*
G37*
G36*
X4310Y-2598D02*
X4299Y-2600D01*
X4288Y-2604D01*
X4279Y-2611D01*
X4272Y-2620D01*
X4268Y-2631D01*
X4266Y-2642D01*
Y-2658D01*
X4268Y-2669D01*
X4272Y-2680D01*
X4279Y-2689D01*
X4288Y-2696D01*
X4292Y-2697D01*
Y-3103D01*
X4273Y-3122D01*
X4130D01*
X4123Y-3123D01*
X4117Y-3127D01*
X4077Y-3167D01*
X4073Y-3173D01*
X4072Y-3180D01*
Y-3313D01*
X4068Y-3314D01*
X4059Y-3321D01*
X4052Y-3330D01*
X4048Y-3341D01*
X4046Y-3352D01*
Y-3368D01*
X4048Y-3379D01*
X4052Y-3390D01*
X4059Y-3399D01*
X4068Y-3406D01*
X4079Y-3410D01*
X4090Y-3412D01*
X4101Y-3410D01*
X4112Y-3406D01*
X4121Y-3399D01*
X4128Y-3390D01*
X4132Y-3379D01*
X4134Y-3368D01*
Y-3352D01*
X4132Y-3341D01*
X4128Y-3330D01*
X4121Y-3321D01*
X4112Y-3314D01*
X4108Y-3313D01*
Y-3187D01*
X4137Y-3158D01*
X4280D01*
X4287Y-3157D01*
X4293Y-3153D01*
X4323Y-3123D01*
X4327Y-3117D01*
X4328Y-3110D01*
Y-2697D01*
X4332Y-2696D01*
X4341Y-2689D01*
X4348Y-2680D01*
X4352Y-2669D01*
X4354Y-2658D01*
Y-2642D01*
X4352Y-2631D01*
X4348Y-2620D01*
X4341Y-2611D01*
X4332Y-2604D01*
X4321Y-2600D01*
X4310Y-2598D01*
D02*
G37*
G36*
X4290Y-3308D02*
X4279Y-3310D01*
X4268Y-3314D01*
X4259Y-3321D01*
X4252Y-3330D01*
X4248Y-3341D01*
X4246Y-3352D01*
Y-3368D01*
X4248Y-3379D01*
X4252Y-3390D01*
X4259Y-3399D01*
X4268Y-3406D01*
X4279Y-3410D01*
X4290Y-3412D01*
X4301Y-3410D01*
X4312Y-3406D01*
X4321Y-3399D01*
X4328Y-3390D01*
X4332Y-3379D01*
X4334Y-3368D01*
Y-3352D01*
X4332Y-3341D01*
X4328Y-3330D01*
X4321Y-3321D01*
X4312Y-3314D01*
X4301Y-3310D01*
X4290Y-3308D01*
D02*
G37*
G36*
X4190D02*
X4179Y-3310D01*
X4168Y-3314D01*
X4159Y-3321D01*
X4152Y-3330D01*
X4148Y-3341D01*
X4146Y-3352D01*
Y-3368D01*
X4148Y-3379D01*
X4152Y-3390D01*
X4159Y-3399D01*
X4168Y-3406D01*
X4179Y-3410D01*
X4190Y-3412D01*
X4201Y-3410D01*
X4212Y-3406D01*
X4221Y-3399D01*
X4228Y-3390D01*
X4232Y-3379D01*
X4234Y-3368D01*
Y-3352D01*
X4232Y-3341D01*
X4228Y-3330D01*
X4221Y-3321D01*
X4212Y-3314D01*
X4201Y-3310D01*
X4190Y-3308D01*
D02*
G37*
G36*
X6640Y-3568D02*
X6629Y-3570D01*
X6618Y-3574D01*
X6609Y-3581D01*
X6602Y-3590D01*
X6598Y-3601D01*
X6596Y-3612D01*
Y-3628D01*
X6598Y-3639D01*
X6602Y-3650D01*
X6609Y-3659D01*
X6618Y-3666D01*
X6629Y-3670D01*
X6640Y-3672D01*
X6651Y-3670D01*
X6662Y-3666D01*
X6671Y-3659D01*
X6678Y-3650D01*
X6682Y-3639D01*
X6684Y-3628D01*
Y-3612D01*
X6682Y-3601D01*
X6678Y-3590D01*
X6671Y-3581D01*
X6662Y-3574D01*
X6651Y-3570D01*
X6640Y-3568D01*
D02*
G37*
G36*
X6540D02*
X6529Y-3570D01*
X6518Y-3574D01*
X6509Y-3581D01*
X6502Y-3590D01*
X6498Y-3601D01*
X6496Y-3612D01*
Y-3628D01*
X6498Y-3639D01*
X6502Y-3650D01*
X6509Y-3659D01*
X6518Y-3666D01*
X6529Y-3670D01*
X6540Y-3672D01*
X6551Y-3670D01*
X6562Y-3666D01*
X6571Y-3659D01*
X6578Y-3650D01*
X6582Y-3639D01*
X6584Y-3628D01*
Y-3612D01*
X6582Y-3601D01*
X6578Y-3590D01*
X6571Y-3581D01*
X6562Y-3574D01*
X6551Y-3570D01*
X6540Y-3568D01*
D02*
G37*
G36*
X6435Y-3625D02*
X6399D01*
Y-3669D01*
X6435D01*
Y-3625D01*
D02*
G37*
G36*
X4855Y-3611D02*
X4847Y-3612D01*
X4835Y-3617D01*
X4825Y-3625D01*
X4817Y-3635D01*
X4812Y-3647D01*
X4811Y-3655D01*
X4855D01*
Y-3611D01*
D02*
G37*
G36*
X6481Y-3625D02*
X6445D01*
Y-3669D01*
X6481D01*
Y-3625D01*
D02*
G37*
G36*
X2510Y-3578D02*
X2497Y-3580D01*
X2484Y-3585D01*
X2473Y-3593D01*
X2465Y-3604D01*
X2460Y-3617D01*
X2458Y-3630D01*
X2460Y-3643D01*
X2465Y-3656D01*
X2473Y-3667D01*
X2484Y-3675D01*
X2497Y-3680D01*
X2510Y-3682D01*
X2523Y-3680D01*
X2536Y-3675D01*
X2547Y-3667D01*
X2555Y-3656D01*
X2560Y-3643D01*
X2562Y-3630D01*
X2560Y-3617D01*
X2555Y-3604D01*
X2547Y-3593D01*
X2536Y-3585D01*
X2523Y-3580D01*
X2510Y-3578D01*
D02*
G37*
G36*
X4485Y-3665D02*
X4448D01*
Y-3668D01*
X4450Y-3679D01*
X4454Y-3689D01*
X4460Y-3697D01*
X4469Y-3704D01*
X4479Y-3708D01*
X4485Y-3709D01*
Y-3665D01*
D02*
G37*
G36*
X4909D02*
X4865D01*
Y-3709D01*
X4873Y-3708D01*
X4885Y-3703D01*
X4895Y-3695D01*
X4903Y-3685D01*
X4908Y-3673D01*
X4909Y-3665D01*
D02*
G37*
G36*
X4532D02*
X4495D01*
Y-3709D01*
X4501Y-3708D01*
X4511Y-3704D01*
X4520Y-3697D01*
X4526Y-3689D01*
X4530Y-3679D01*
X4532Y-3668D01*
Y-3665D01*
D02*
G37*
G36*
X2125Y-3661D02*
Y-3705D01*
X2169D01*
X2168Y-3697D01*
X2163Y-3685D01*
X2155Y-3675D01*
X2145Y-3667D01*
X2133Y-3662D01*
X2125Y-3661D01*
D02*
G37*
G36*
X2115D02*
X2107Y-3662D01*
X2095Y-3667D01*
X2085Y-3675D01*
X2077Y-3685D01*
X2072Y-3697D01*
X2071Y-3705D01*
X2115D01*
Y-3661D01*
D02*
G37*
G36*
X4485Y-3611D02*
X4479Y-3612D01*
X4469Y-3616D01*
X4460Y-3623D01*
X4454Y-3631D01*
X4450Y-3641D01*
X4448Y-3652D01*
Y-3655D01*
X4485D01*
Y-3611D01*
D02*
G37*
G36*
X2948Y-3516D02*
X2932D01*
X2921Y-3518D01*
X2910Y-3522D01*
X2901Y-3529D01*
X2894Y-3538D01*
X2890Y-3549D01*
X2888Y-3560D01*
X2890Y-3571D01*
X2894Y-3582D01*
X2901Y-3591D01*
X2910Y-3598D01*
X2921Y-3602D01*
X2932Y-3604D01*
X2948D01*
X2959Y-3602D01*
X2970Y-3598D01*
X2979Y-3591D01*
X2986Y-3582D01*
X2990Y-3571D01*
X2992Y-3560D01*
X2990Y-3549D01*
X2986Y-3538D01*
X2979Y-3529D01*
X2970Y-3522D01*
X2959Y-3518D01*
X2948Y-3516D01*
D02*
G37*
G36*
X6481Y-3571D02*
X6445D01*
Y-3615D01*
X6481D01*
Y-3571D01*
D02*
G37*
G36*
X5290Y-3498D02*
X5277Y-3500D01*
X5264Y-3505D01*
X5253Y-3513D01*
X5245Y-3524D01*
X5240Y-3537D01*
X5238Y-3550D01*
X5240Y-3563D01*
X5245Y-3576D01*
X5253Y-3587D01*
X5264Y-3595D01*
X5277Y-3600D01*
X5290Y-3602D01*
X5303Y-3600D01*
X5316Y-3595D01*
X5327Y-3587D01*
X5335Y-3576D01*
X5340Y-3563D01*
X5342Y-3550D01*
X5340Y-3537D01*
X5335Y-3524D01*
X5327Y-3513D01*
X5316Y-3505D01*
X5303Y-3500D01*
X5290Y-3498D01*
D02*
G37*
G36*
X7015Y-3531D02*
Y-3575D01*
X7059D01*
X7058Y-3567D01*
X7053Y-3555D01*
X7045Y-3545D01*
X7035Y-3537D01*
X7023Y-3532D01*
X7015Y-3531D01*
D02*
G37*
G36*
X7005D02*
X6997Y-3532D01*
X6985Y-3537D01*
X6975Y-3545D01*
X6967Y-3555D01*
X6962Y-3567D01*
X6961Y-3575D01*
X7005D01*
Y-3531D01*
D02*
G37*
G36*
X6435Y-3571D02*
X6399D01*
Y-3615D01*
X6435D01*
Y-3571D01*
D02*
G37*
G36*
X4865Y-3611D02*
Y-3655D01*
X4909D01*
X4908Y-3647D01*
X4903Y-3635D01*
X4895Y-3625D01*
X4885Y-3617D01*
X4873Y-3612D01*
X4865Y-3611D01*
D02*
G37*
G36*
X4495Y-3611D02*
Y-3655D01*
X4532D01*
Y-3652D01*
X4530Y-3641D01*
X4526Y-3631D01*
X4520Y-3623D01*
X4511Y-3616D01*
X4501Y-3612D01*
X4495Y-3611D01*
D02*
G37*
G36*
X7005Y-3585D02*
X6961D01*
X6962Y-3593D01*
X6967Y-3605D01*
X6975Y-3615D01*
X6985Y-3623D01*
X6997Y-3628D01*
X7005Y-3629D01*
Y-3585D01*
D02*
G37*
G36*
X3258Y-3440D02*
X3220D01*
X3182D01*
Y-3473D01*
X3196D01*
X3198Y-3478D01*
X3192Y-3482D01*
X3186Y-3490D01*
X3182Y-3500D01*
X3180Y-3510D01*
X3182Y-3520D01*
X3186Y-3530D01*
X3192Y-3538D01*
X3200Y-3544D01*
X3202Y-3545D01*
Y-3550D01*
X3200Y-3551D01*
X3192Y-3557D01*
X3186Y-3565D01*
X3182Y-3575D01*
X3180Y-3585D01*
X3182Y-3595D01*
X3186Y-3605D01*
X3192Y-3613D01*
X3200Y-3619D01*
X3210Y-3623D01*
X3220Y-3625D01*
X3230Y-3623D01*
X3240Y-3619D01*
X3248Y-3613D01*
X3254Y-3605D01*
X3258Y-3595D01*
X3260Y-3585D01*
X3258Y-3575D01*
X3254Y-3565D01*
X3248Y-3557D01*
X3240Y-3551D01*
X3238Y-3550D01*
Y-3545D01*
X3240Y-3544D01*
X3248Y-3538D01*
X3254Y-3530D01*
X3258Y-3520D01*
X3260Y-3510D01*
X3258Y-3500D01*
X3254Y-3490D01*
X3248Y-3482D01*
X3242Y-3478D01*
X3244Y-3473D01*
X3258D01*
Y-3440D01*
D02*
G37*
G36*
X7059Y-3585D02*
X7015D01*
Y-3629D01*
X7023Y-3628D01*
X7035Y-3623D01*
X7045Y-3615D01*
X7053Y-3605D01*
X7058Y-3593D01*
X7059Y-3585D01*
D02*
G37*
G36*
X210Y-666D02*
X199Y-668D01*
X188Y-672D01*
X179Y-679D01*
X172Y-688D01*
X168Y-699D01*
X166Y-710D01*
X168Y-721D01*
X169Y-725D01*
X87Y-807D01*
X83Y-813D01*
X82Y-820D01*
Y-1860D01*
X83Y-1867D01*
X87Y-1873D01*
X147Y-1933D01*
X153Y-1937D01*
X160Y-1938D01*
X1220D01*
X1227Y-1937D01*
X1233Y-1933D01*
X1288Y-1878D01*
X1292Y-1872D01*
X1293Y-1865D01*
Y-1750D01*
X1297Y-1749D01*
X1306Y-1742D01*
X1313Y-1733D01*
X1317Y-1722D01*
X1319Y-1711D01*
Y-1695D01*
X1317Y-1684D01*
X1313Y-1673D01*
X1306Y-1664D01*
X1297Y-1657D01*
X1286Y-1653D01*
X1275Y-1651D01*
X1264Y-1653D01*
X1253Y-1657D01*
X1244Y-1664D01*
X1237Y-1673D01*
X1233Y-1684D01*
X1231Y-1695D01*
Y-1711D01*
X1233Y-1722D01*
X1237Y-1733D01*
X1244Y-1742D01*
X1253Y-1749D01*
X1257Y-1750D01*
Y-1858D01*
X1213Y-1902D01*
X167D01*
X118Y-1853D01*
Y-827D01*
X195Y-751D01*
X199Y-752D01*
X210Y-754D01*
X221Y-752D01*
X232Y-748D01*
X241Y-741D01*
X248Y-732D01*
X252Y-721D01*
X254Y-710D01*
X252Y-699D01*
X248Y-688D01*
X241Y-679D01*
X232Y-672D01*
X221Y-668D01*
X210Y-666D01*
D02*
G37*
G36*
X7125Y-781D02*
Y-825D01*
X7162D01*
Y-822D01*
X7160Y-811D01*
X7156Y-801D01*
X7150Y-793D01*
X7141Y-786D01*
X7131Y-782D01*
X7125Y-781D01*
D02*
G37*
G36*
X3520Y-666D02*
X3509Y-668D01*
X3498Y-672D01*
X3489Y-679D01*
X3482Y-688D01*
X3478Y-699D01*
X3476Y-710D01*
X3478Y-721D01*
X3482Y-732D01*
X3489Y-741D01*
X3498Y-748D01*
X3509Y-752D01*
X3520Y-754D01*
X3531Y-752D01*
X3542Y-748D01*
X3551Y-741D01*
X3558Y-732D01*
X3562Y-721D01*
X3564Y-710D01*
X3562Y-699D01*
X3558Y-688D01*
X3551Y-679D01*
X3542Y-672D01*
X3531Y-668D01*
X3520Y-666D01*
D02*
G37*
G36*
X4580Y560D02*
X2960D01*
Y-660D01*
X4580D01*
Y560D01*
D02*
G37*
G36*
X1670D02*
X50D01*
Y-660D01*
X1670D01*
Y560D01*
D02*
G37*
G36*
X7115Y-781D02*
X7109Y-782D01*
X7099Y-786D01*
X7090Y-793D01*
X7084Y-801D01*
X7080Y-811D01*
X7078Y-822D01*
Y-825D01*
X7115D01*
Y-781D01*
D02*
G37*
G36*
X5745D02*
X5739Y-782D01*
X5729Y-786D01*
X5720Y-793D01*
X5714Y-801D01*
X5710Y-811D01*
X5708Y-822D01*
Y-825D01*
X5745D01*
Y-781D01*
D02*
G37*
G36*
X7162Y-835D02*
X7125D01*
Y-879D01*
X7131Y-878D01*
X7141Y-874D01*
X7150Y-867D01*
X7156Y-859D01*
X7160Y-849D01*
X7162Y-838D01*
Y-835D01*
D02*
G37*
G36*
X5755Y-781D02*
Y-825D01*
X5792D01*
Y-822D01*
X5790Y-811D01*
X5786Y-801D01*
X5780Y-793D01*
X5771Y-786D01*
X5761Y-782D01*
X5755Y-781D01*
D02*
G37*
G36*
X5855D02*
Y-825D01*
X5892D01*
Y-822D01*
X5890Y-811D01*
X5886Y-801D01*
X5880Y-793D01*
X5871Y-786D01*
X5861Y-782D01*
X5855Y-781D01*
D02*
G37*
G36*
X5845D02*
X5839Y-782D01*
X5829Y-786D01*
X5820Y-793D01*
X5814Y-801D01*
X5810Y-811D01*
X5808Y-822D01*
Y-825D01*
X5845D01*
Y-781D01*
D02*
G37*
G36*
X5250Y-478D02*
X5239Y-480D01*
X5228Y-484D01*
X5219Y-491D01*
X5212Y-500D01*
X5208Y-511D01*
X5206Y-522D01*
Y-538D01*
X5208Y-549D01*
X5212Y-560D01*
X5219Y-569D01*
X5228Y-576D01*
X5239Y-580D01*
X5250Y-582D01*
X5261Y-580D01*
X5272Y-576D01*
X5281Y-569D01*
X5288Y-560D01*
X5292Y-549D01*
X5294Y-538D01*
Y-522D01*
X5292Y-511D01*
X5288Y-500D01*
X5281Y-491D01*
X5272Y-484D01*
X5261Y-480D01*
X5250Y-478D01*
D02*
G37*
G36*
X7020D02*
X7009Y-480D01*
X6998Y-484D01*
X6989Y-491D01*
X6982Y-500D01*
X6978Y-511D01*
X6976Y-522D01*
Y-538D01*
X6978Y-549D01*
X6982Y-560D01*
X6989Y-569D01*
X6998Y-576D01*
X7009Y-580D01*
X7020Y-582D01*
X7031Y-580D01*
X7042Y-576D01*
X7051Y-569D01*
X7058Y-560D01*
X7062Y-549D01*
X7064Y-538D01*
Y-522D01*
X7062Y-511D01*
X7058Y-500D01*
X7051Y-491D01*
X7042Y-484D01*
X7031Y-480D01*
X7020Y-478D01*
D02*
G37*
G36*
X6920D02*
X6909Y-480D01*
X6898Y-484D01*
X6889Y-491D01*
X6882Y-500D01*
X6878Y-511D01*
X6876Y-522D01*
Y-538D01*
X6878Y-549D01*
X6882Y-560D01*
X6889Y-569D01*
X6898Y-576D01*
X6909Y-580D01*
X6920Y-582D01*
X6931Y-580D01*
X6942Y-576D01*
X6951Y-569D01*
X6958Y-560D01*
X6962Y-549D01*
X6964Y-538D01*
Y-522D01*
X6962Y-511D01*
X6958Y-500D01*
X6951Y-491D01*
X6942Y-484D01*
X6931Y-480D01*
X6920Y-478D01*
D02*
G37*
G36*
X7120D02*
X7109Y-480D01*
X7098Y-484D01*
X7089Y-491D01*
X7082Y-500D01*
X7078Y-511D01*
X7076Y-522D01*
Y-538D01*
X7078Y-549D01*
X7082Y-560D01*
X7089Y-569D01*
X7098Y-576D01*
X7109Y-580D01*
X7120Y-582D01*
X7131Y-580D01*
X7142Y-576D01*
X7151Y-569D01*
X7158Y-560D01*
X7162Y-549D01*
X7164Y-538D01*
Y-522D01*
X7162Y-511D01*
X7158Y-500D01*
X7151Y-491D01*
X7142Y-484D01*
X7131Y-480D01*
X7120Y-478D01*
D02*
G37*
G36*
X5692Y-535D02*
X5655D01*
Y-579D01*
X5661Y-578D01*
X5671Y-574D01*
X5680Y-567D01*
X5686Y-559D01*
X5690Y-549D01*
X5692Y-538D01*
Y-535D01*
D02*
G37*
G36*
X5645D02*
X5608D01*
Y-538D01*
X5610Y-549D01*
X5614Y-559D01*
X5620Y-567D01*
X5629Y-574D01*
X5639Y-578D01*
X5645Y-579D01*
Y-535D01*
D02*
G37*
G36*
X6820Y-478D02*
X6809Y-480D01*
X6798Y-484D01*
X6789Y-491D01*
X6782Y-500D01*
X6778Y-511D01*
X6776Y-522D01*
Y-538D01*
X6778Y-549D01*
X6782Y-560D01*
X6789Y-569D01*
X6798Y-576D01*
X6809Y-580D01*
X6820Y-582D01*
X6831Y-580D01*
X6842Y-576D01*
X6851Y-569D01*
X6858Y-560D01*
X6862Y-549D01*
X6864Y-538D01*
Y-522D01*
X6862Y-511D01*
X6858Y-500D01*
X6851Y-491D01*
X6842Y-484D01*
X6831Y-480D01*
X6820Y-478D01*
D02*
G37*
G36*
X5450D02*
X5439Y-480D01*
X5428Y-484D01*
X5419Y-491D01*
X5412Y-500D01*
X5408Y-511D01*
X5406Y-522D01*
Y-538D01*
X5408Y-549D01*
X5412Y-560D01*
X5419Y-569D01*
X5428Y-576D01*
X5439Y-580D01*
X5450Y-582D01*
X5461Y-580D01*
X5472Y-576D01*
X5481Y-569D01*
X5488Y-560D01*
X5492Y-549D01*
X5494Y-538D01*
Y-522D01*
X5492Y-511D01*
X5488Y-500D01*
X5481Y-491D01*
X5472Y-484D01*
X5461Y-480D01*
X5450Y-478D01*
D02*
G37*
G36*
X5350D02*
X5339Y-480D01*
X5328Y-484D01*
X5319Y-491D01*
X5312Y-500D01*
X5308Y-511D01*
X5306Y-522D01*
Y-538D01*
X5308Y-549D01*
X5312Y-560D01*
X5319Y-569D01*
X5328Y-576D01*
X5339Y-580D01*
X5350Y-582D01*
X5361Y-580D01*
X5372Y-576D01*
X5381Y-569D01*
X5388Y-560D01*
X5392Y-549D01*
X5394Y-538D01*
Y-522D01*
X5392Y-511D01*
X5388Y-500D01*
X5381Y-491D01*
X5372Y-484D01*
X5361Y-480D01*
X5350Y-478D01*
D02*
G37*
G36*
X6520D02*
X6509Y-480D01*
X6498Y-484D01*
X6489Y-491D01*
X6482Y-500D01*
X6478Y-511D01*
X6476Y-522D01*
Y-538D01*
X6478Y-549D01*
X6482Y-560D01*
X6489Y-569D01*
X6498Y-576D01*
X6509Y-580D01*
X6520Y-582D01*
X6531Y-580D01*
X6542Y-576D01*
X6551Y-569D01*
X6558Y-560D01*
X6562Y-549D01*
X6564Y-538D01*
Y-522D01*
X6562Y-511D01*
X6558Y-500D01*
X6551Y-491D01*
X6542Y-484D01*
X6531Y-480D01*
X6520Y-478D01*
D02*
G37*
G36*
X6720D02*
X6709Y-480D01*
X6698Y-484D01*
X6689Y-491D01*
X6682Y-500D01*
X6678Y-511D01*
X6676Y-522D01*
Y-538D01*
X6678Y-549D01*
X6682Y-560D01*
X6689Y-569D01*
X6698Y-576D01*
X6709Y-580D01*
X6720Y-582D01*
X6731Y-580D01*
X6742Y-576D01*
X6751Y-569D01*
X6758Y-560D01*
X6762Y-549D01*
X6764Y-538D01*
Y-522D01*
X6762Y-511D01*
X6758Y-500D01*
X6751Y-491D01*
X6742Y-484D01*
X6731Y-480D01*
X6720Y-478D01*
D02*
G37*
G36*
X6620D02*
X6609Y-480D01*
X6598Y-484D01*
X6589Y-491D01*
X6582Y-500D01*
X6578Y-511D01*
X6576Y-522D01*
Y-538D01*
X6578Y-549D01*
X6582Y-560D01*
X6589Y-569D01*
X6598Y-576D01*
X6609Y-580D01*
X6620Y-582D01*
X6631Y-580D01*
X6642Y-576D01*
X6651Y-569D01*
X6658Y-560D01*
X6662Y-549D01*
X6664Y-538D01*
Y-522D01*
X6662Y-511D01*
X6658Y-500D01*
X6651Y-491D01*
X6642Y-484D01*
X6631Y-480D01*
X6620Y-478D01*
D02*
G37*
G36*
X6720Y-778D02*
X6709Y-780D01*
X6698Y-784D01*
X6689Y-791D01*
X6682Y-800D01*
X6678Y-811D01*
X6676Y-822D01*
Y-838D01*
X6678Y-849D01*
X6682Y-860D01*
X6689Y-869D01*
X6698Y-876D01*
X6702Y-877D01*
Y-1103D01*
X6698Y-1104D01*
X6689Y-1111D01*
X6682Y-1120D01*
X6678Y-1131D01*
X6676Y-1142D01*
Y-1158D01*
X6678Y-1169D01*
X6682Y-1180D01*
X6689Y-1189D01*
X6698Y-1196D01*
X6709Y-1200D01*
X6720Y-1202D01*
X6731Y-1200D01*
X6742Y-1196D01*
X6751Y-1189D01*
X6758Y-1180D01*
X6762Y-1169D01*
X6764Y-1158D01*
Y-1142D01*
X6762Y-1131D01*
X6758Y-1120D01*
X6751Y-1111D01*
X6742Y-1104D01*
X6738Y-1103D01*
Y-877D01*
X6742Y-876D01*
X6751Y-869D01*
X6758Y-860D01*
X6762Y-849D01*
X6764Y-838D01*
Y-822D01*
X6762Y-811D01*
X6758Y-800D01*
X6751Y-791D01*
X6742Y-784D01*
X6731Y-780D01*
X6720Y-778D01*
D02*
G37*
G36*
X6620D02*
X6609Y-780D01*
X6598Y-784D01*
X6589Y-791D01*
X6582Y-800D01*
X6578Y-811D01*
X6576Y-822D01*
Y-838D01*
X6578Y-849D01*
X6582Y-860D01*
X6589Y-869D01*
X6598Y-876D01*
X6602Y-877D01*
Y-1103D01*
X6598Y-1104D01*
X6589Y-1111D01*
X6582Y-1120D01*
X6578Y-1131D01*
X6576Y-1142D01*
Y-1158D01*
X6578Y-1169D01*
X6582Y-1180D01*
X6589Y-1189D01*
X6598Y-1196D01*
X6609Y-1200D01*
X6620Y-1202D01*
X6631Y-1200D01*
X6642Y-1196D01*
X6651Y-1189D01*
X6658Y-1180D01*
X6662Y-1169D01*
X6664Y-1158D01*
Y-1142D01*
X6662Y-1131D01*
X6658Y-1120D01*
X6651Y-1111D01*
X6642Y-1104D01*
X6638Y-1103D01*
Y-877D01*
X6642Y-876D01*
X6651Y-869D01*
X6658Y-860D01*
X6662Y-849D01*
X6664Y-838D01*
Y-822D01*
X6662Y-811D01*
X6658Y-800D01*
X6651Y-791D01*
X6642Y-784D01*
X6631Y-780D01*
X6620Y-778D01*
D02*
G37*
G36*
X6820D02*
X6809Y-780D01*
X6798Y-784D01*
X6789Y-791D01*
X6782Y-800D01*
X6778Y-811D01*
X6776Y-822D01*
Y-838D01*
X6778Y-849D01*
X6782Y-860D01*
X6789Y-869D01*
X6798Y-876D01*
X6802Y-877D01*
Y-1103D01*
X6798Y-1104D01*
X6789Y-1111D01*
X6782Y-1120D01*
X6778Y-1131D01*
X6776Y-1142D01*
Y-1158D01*
X6778Y-1169D01*
X6782Y-1180D01*
X6789Y-1189D01*
X6798Y-1196D01*
X6809Y-1200D01*
X6820Y-1202D01*
X6831Y-1200D01*
X6842Y-1196D01*
X6851Y-1189D01*
X6858Y-1180D01*
X6862Y-1169D01*
X6864Y-1158D01*
Y-1142D01*
X6862Y-1131D01*
X6858Y-1120D01*
X6851Y-1111D01*
X6842Y-1104D01*
X6838Y-1103D01*
Y-877D01*
X6842Y-876D01*
X6851Y-869D01*
X6858Y-860D01*
X6862Y-849D01*
X6864Y-838D01*
Y-822D01*
X6862Y-811D01*
X6858Y-800D01*
X6851Y-791D01*
X6842Y-784D01*
X6831Y-780D01*
X6820Y-778D01*
D02*
G37*
G36*
X3420Y-666D02*
X3409Y-668D01*
X3398Y-672D01*
X3389Y-679D01*
X3382Y-688D01*
X3378Y-699D01*
X3376Y-710D01*
X3378Y-721D01*
X3382Y-732D01*
X3389Y-741D01*
X3398Y-748D01*
X3402Y-749D01*
Y-940D01*
X3403Y-947D01*
X3407Y-953D01*
X3437Y-983D01*
X3443Y-987D01*
X3444Y-987D01*
X3444Y-992D01*
X3347D01*
X3338Y-983D01*
Y-749D01*
X3342Y-748D01*
X3351Y-741D01*
X3358Y-732D01*
X3362Y-721D01*
X3364Y-710D01*
X3362Y-699D01*
X3358Y-688D01*
X3351Y-679D01*
X3342Y-672D01*
X3331Y-668D01*
X3320Y-666D01*
X3309Y-668D01*
X3298Y-672D01*
X3289Y-679D01*
X3282Y-688D01*
X3278Y-699D01*
X3276Y-710D01*
X3278Y-721D01*
X3282Y-732D01*
X3289Y-741D01*
X3298Y-748D01*
X3302Y-749D01*
Y-990D01*
X3303Y-997D01*
X3307Y-1003D01*
X3327Y-1023D01*
X3333Y-1027D01*
X3340Y-1028D01*
X3563D01*
X3582Y-1047D01*
Y-1080D01*
X3577Y-1082D01*
X3543Y-1047D01*
X3537Y-1043D01*
X3530Y-1042D01*
X3257D01*
X3238Y-1023D01*
Y-749D01*
X3242Y-748D01*
X3251Y-741D01*
X3258Y-732D01*
X3262Y-721D01*
X3264Y-710D01*
X3262Y-699D01*
X3258Y-688D01*
X3251Y-679D01*
X3242Y-672D01*
X3231Y-668D01*
X3220Y-666D01*
X3209Y-668D01*
X3198Y-672D01*
X3189Y-679D01*
X3182Y-688D01*
X3178Y-699D01*
X3176Y-710D01*
X3178Y-721D01*
X3182Y-732D01*
X3189Y-741D01*
X3198Y-748D01*
X3202Y-749D01*
Y-1030D01*
X3203Y-1037D01*
X3207Y-1043D01*
X3237Y-1073D01*
X3243Y-1077D01*
X3250Y-1078D01*
X3523D01*
X3558Y-1114D01*
Y-1130D01*
X3554Y-1132D01*
X3529Y-1107D01*
X3523Y-1103D01*
X3516Y-1102D01*
X3147D01*
X3138Y-1093D01*
Y-749D01*
X3142Y-748D01*
X3151Y-741D01*
X3158Y-732D01*
X3162Y-721D01*
X3164Y-710D01*
X3162Y-699D01*
X3158Y-688D01*
X3151Y-679D01*
X3142Y-672D01*
X3131Y-668D01*
X3120Y-666D01*
X3109Y-668D01*
X3098Y-672D01*
X3089Y-679D01*
X3082Y-688D01*
X3078Y-699D01*
X3076Y-710D01*
X3078Y-721D01*
X3082Y-732D01*
X3089Y-741D01*
X3098Y-748D01*
X3102Y-749D01*
Y-1100D01*
X3103Y-1107D01*
X3107Y-1113D01*
X3127Y-1133D01*
X3133Y-1137D01*
X3140Y-1138D01*
X3509D01*
X3535Y-1164D01*
Y-2260D01*
X3475Y-2320D01*
X3470Y-2318D01*
X3470Y-2317D01*
X3465Y-2304D01*
X3457Y-2293D01*
X3446Y-2285D01*
X3433Y-2280D01*
X3420Y-2278D01*
X3407Y-2280D01*
X3394Y-2285D01*
X3383Y-2293D01*
X3375Y-2304D01*
X3370Y-2317D01*
X3368Y-2330D01*
X3370Y-2343D01*
X3375Y-2356D01*
X3383Y-2367D01*
X3394Y-2375D01*
X3407Y-2380D01*
X3420Y-2382D01*
X3433Y-2380D01*
X3446Y-2375D01*
X3457Y-2367D01*
X3457Y-2366D01*
X3462Y-2367D01*
Y-2693D01*
X3457Y-2694D01*
X3457Y-2693D01*
X3446Y-2685D01*
X3433Y-2680D01*
X3420Y-2678D01*
X3407Y-2680D01*
X3394Y-2685D01*
X3383Y-2693D01*
X3375Y-2704D01*
X3370Y-2717D01*
X3368Y-2730D01*
X3370Y-2743D01*
X3375Y-2756D01*
X3383Y-2767D01*
X3394Y-2775D01*
X3407Y-2780D01*
X3420Y-2782D01*
X3433Y-2780D01*
X3446Y-2775D01*
X3457Y-2767D01*
X3457Y-2766D01*
X3462Y-2767D01*
Y-3013D01*
X3443Y-3032D01*
X3257D01*
X3256Y-3029D01*
X3249Y-3021D01*
X3241Y-3014D01*
X3231Y-3010D01*
X3220Y-3008D01*
X3209Y-3010D01*
X3199Y-3014D01*
X3191Y-3021D01*
X3184Y-3029D01*
X3180Y-3039D01*
X3178Y-3050D01*
X3180Y-3061D01*
X3184Y-3071D01*
X3191Y-3079D01*
X3199Y-3086D01*
X3209Y-3090D01*
X3220Y-3092D01*
X3231Y-3090D01*
X3241Y-3086D01*
X3249Y-3079D01*
X3256Y-3071D01*
X3257Y-3068D01*
X3450D01*
X3457Y-3067D01*
X3463Y-3063D01*
X3493Y-3033D01*
X3497Y-3027D01*
X3498Y-3020D01*
Y-2564D01*
X3503Y-2561D01*
X3509Y-2566D01*
X3519Y-2570D01*
X3530Y-2572D01*
X3541Y-2570D01*
X3551Y-2566D01*
X3559Y-2559D01*
X3566Y-2551D01*
X3570Y-2541D01*
X3572Y-2530D01*
X3570Y-2519D01*
X3566Y-2509D01*
X3559Y-2501D01*
X3551Y-2494D01*
X3548Y-2493D01*
Y-2451D01*
X3553Y-2450D01*
X3555Y-2456D01*
X3563Y-2467D01*
X3574Y-2475D01*
X3587Y-2480D01*
X3600Y-2482D01*
X3613Y-2480D01*
X3626Y-2475D01*
X3637Y-2467D01*
X3645Y-2456D01*
X3648Y-2448D01*
X3723D01*
X3742Y-2467D01*
Y-4143D01*
X3739Y-4144D01*
X3731Y-4151D01*
X3724Y-4159D01*
X3720Y-4169D01*
X3718Y-4180D01*
X3720Y-4191D01*
X3724Y-4201D01*
X3731Y-4209D01*
X3739Y-4216D01*
X3749Y-4220D01*
X3760Y-4222D01*
X3771Y-4220D01*
X3781Y-4216D01*
X3789Y-4209D01*
X3796Y-4201D01*
X3800Y-4191D01*
X3802Y-4180D01*
X3800Y-4169D01*
X3796Y-4159D01*
X3789Y-4151D01*
X3781Y-4144D01*
X3778Y-4143D01*
Y-2564D01*
X3783Y-2561D01*
X3789Y-2566D01*
X3792Y-2567D01*
Y-3640D01*
X3793Y-3647D01*
X3797Y-3653D01*
X3817Y-3673D01*
X3823Y-3677D01*
X3830Y-3678D01*
X3847D01*
Y-3711D01*
X3933D01*
Y-3609D01*
X3847D01*
Y-3642D01*
X3837D01*
X3828Y-3633D01*
Y-2567D01*
X3831Y-2566D01*
X3839Y-2559D01*
X3846Y-2551D01*
X3850Y-2541D01*
X3852Y-2530D01*
X3850Y-2519D01*
X3846Y-2509D01*
X3839Y-2501D01*
X3831Y-2494D01*
X3821Y-2490D01*
X3810Y-2488D01*
X3799Y-2490D01*
X3789Y-2494D01*
X3783Y-2499D01*
X3778Y-2496D01*
Y-2460D01*
X3777Y-2453D01*
X3773Y-2447D01*
X3743Y-2417D01*
X3737Y-2413D01*
X3730Y-2412D01*
X3648D01*
X3645Y-2404D01*
X3637Y-2393D01*
X3626Y-2385D01*
X3618Y-2382D01*
Y-1040D01*
X3617Y-1033D01*
X3613Y-1027D01*
X3583Y-997D01*
X3577Y-993D01*
X3576Y-993D01*
X3576Y-988D01*
X3613D01*
X3652Y-1027D01*
Y-1783D01*
X3649Y-1784D01*
X3641Y-1791D01*
X3634Y-1799D01*
X3630Y-1809D01*
X3628Y-1820D01*
X3630Y-1831D01*
X3634Y-1841D01*
X3641Y-1849D01*
X3649Y-1856D01*
X3659Y-1860D01*
X3670Y-1862D01*
X3681Y-1860D01*
X3691Y-1856D01*
X3699Y-1849D01*
X3706Y-1841D01*
X3710Y-1831D01*
X3712Y-1820D01*
X3710Y-1809D01*
X3706Y-1799D01*
X3699Y-1791D01*
X3691Y-1784D01*
X3688Y-1783D01*
Y-1020D01*
X3687Y-1013D01*
X3683Y-1007D01*
X3633Y-957D01*
X3627Y-953D01*
X3620Y-952D01*
X3457D01*
X3438Y-933D01*
Y-749D01*
X3442Y-748D01*
X3451Y-741D01*
X3458Y-732D01*
X3462Y-721D01*
X3464Y-710D01*
X3462Y-699D01*
X3458Y-688D01*
X3451Y-679D01*
X3442Y-672D01*
X3431Y-668D01*
X3420Y-666D01*
D02*
G37*
G36*
X6920Y-778D02*
X6909Y-780D01*
X6898Y-784D01*
X6889Y-791D01*
X6882Y-800D01*
X6878Y-811D01*
X6876Y-822D01*
Y-838D01*
X6878Y-849D01*
X6882Y-860D01*
X6889Y-869D01*
X6898Y-876D01*
X6902Y-877D01*
Y-1103D01*
X6898Y-1104D01*
X6889Y-1111D01*
X6882Y-1120D01*
X6878Y-1131D01*
X6876Y-1142D01*
Y-1158D01*
X6878Y-1169D01*
X6882Y-1180D01*
X6889Y-1189D01*
X6898Y-1196D01*
X6909Y-1200D01*
X6920Y-1202D01*
X6931Y-1200D01*
X6942Y-1196D01*
X6951Y-1189D01*
X6958Y-1180D01*
X6962Y-1169D01*
X6964Y-1158D01*
Y-1142D01*
X6962Y-1131D01*
X6958Y-1120D01*
X6951Y-1111D01*
X6942Y-1104D01*
X6938Y-1103D01*
Y-877D01*
X6942Y-876D01*
X6951Y-869D01*
X6958Y-860D01*
X6962Y-849D01*
X6964Y-838D01*
Y-822D01*
X6962Y-811D01*
X6958Y-800D01*
X6951Y-791D01*
X6942Y-784D01*
X6931Y-780D01*
X6920Y-778D01*
D02*
G37*
G36*
X6520D02*
X6509Y-780D01*
X6498Y-784D01*
X6489Y-791D01*
X6482Y-800D01*
X6478Y-811D01*
X6476Y-822D01*
Y-838D01*
X6478Y-849D01*
X6482Y-860D01*
X6489Y-869D01*
X6498Y-876D01*
X6502Y-877D01*
Y-1103D01*
X6498Y-1104D01*
X6489Y-1111D01*
X6482Y-1120D01*
X6478Y-1131D01*
X6476Y-1142D01*
Y-1158D01*
X6478Y-1169D01*
X6482Y-1180D01*
X6489Y-1189D01*
X6498Y-1196D01*
X6509Y-1200D01*
X6520Y-1202D01*
X6531Y-1200D01*
X6542Y-1196D01*
X6551Y-1189D01*
X6558Y-1180D01*
X6562Y-1169D01*
X6564Y-1158D01*
Y-1142D01*
X6562Y-1131D01*
X6558Y-1120D01*
X6551Y-1111D01*
X6542Y-1104D01*
X6538Y-1103D01*
Y-877D01*
X6542Y-876D01*
X6551Y-869D01*
X6558Y-860D01*
X6562Y-849D01*
X6564Y-838D01*
Y-822D01*
X6562Y-811D01*
X6558Y-800D01*
X6551Y-791D01*
X6542Y-784D01*
X6531Y-780D01*
X6520Y-778D01*
D02*
G37*
G36*
X5850Y-1348D02*
X5839Y-1350D01*
X5828Y-1354D01*
X5819Y-1361D01*
X5812Y-1370D01*
X5808Y-1381D01*
X5806Y-1392D01*
Y-1408D01*
X5808Y-1419D01*
X5812Y-1430D01*
X5819Y-1439D01*
X5828Y-1446D01*
X5839Y-1450D01*
X5850Y-1452D01*
X5861Y-1450D01*
X5872Y-1446D01*
X5881Y-1439D01*
X5888Y-1430D01*
X5892Y-1419D01*
X5894Y-1408D01*
Y-1392D01*
X5892Y-1381D01*
X5888Y-1370D01*
X5881Y-1361D01*
X5872Y-1354D01*
X5861Y-1350D01*
X5850Y-1348D01*
D02*
G37*
G36*
X5750D02*
X5739Y-1350D01*
X5728Y-1354D01*
X5719Y-1361D01*
X5712Y-1370D01*
X5708Y-1381D01*
X5706Y-1392D01*
Y-1408D01*
X5708Y-1419D01*
X5712Y-1430D01*
X5719Y-1439D01*
X5728Y-1446D01*
X5739Y-1450D01*
X5750Y-1452D01*
X5761Y-1450D01*
X5772Y-1446D01*
X5781Y-1439D01*
X5788Y-1430D01*
X5792Y-1419D01*
X5794Y-1408D01*
Y-1392D01*
X5792Y-1381D01*
X5788Y-1370D01*
X5781Y-1361D01*
X5772Y-1354D01*
X5761Y-1350D01*
X5750Y-1348D01*
D02*
G37*
G36*
X3902Y-1336D02*
X3888Y-1338D01*
X3876Y-1343D01*
X3865Y-1351D01*
X3857Y-1362D01*
X3852Y-1374D01*
X3850Y-1388D01*
X3850Y-1389D01*
X3804Y-1434D01*
X3800Y-1442D01*
X3798Y-1450D01*
Y-2250D01*
X3800Y-2258D01*
X3804Y-2266D01*
X3868Y-2330D01*
X3868Y-2331D01*
X3866Y-2342D01*
Y-2358D01*
X3868Y-2369D01*
X3872Y-2380D01*
X3879Y-2389D01*
X3888Y-2396D01*
X3899Y-2400D01*
X3910Y-2402D01*
X3921Y-2400D01*
X3932Y-2396D01*
X3941Y-2389D01*
X3948Y-2380D01*
X3952Y-2369D01*
X3954Y-2358D01*
Y-2342D01*
X3952Y-2331D01*
X3948Y-2320D01*
X3941Y-2311D01*
X3932Y-2304D01*
X3921Y-2300D01*
X3910Y-2298D01*
X3901Y-2300D01*
X3842Y-2241D01*
Y-1459D01*
X3872Y-1429D01*
X3876Y-1432D01*
X3888Y-1437D01*
X3902Y-1439D01*
X3915Y-1437D01*
X3927Y-1432D01*
X3938Y-1424D01*
X3946Y-1413D01*
X3951Y-1401D01*
X3953Y-1388D01*
X3951Y-1374D01*
X3946Y-1362D01*
X3938Y-1351D01*
X3927Y-1343D01*
X3915Y-1338D01*
X3902Y-1336D01*
D02*
G37*
G36*
X4760Y-1328D02*
X4747Y-1330D01*
X4734Y-1335D01*
X4723Y-1343D01*
X4715Y-1354D01*
X4710Y-1367D01*
X4708Y-1380D01*
X4710Y-1393D01*
X4715Y-1406D01*
X4723Y-1417D01*
X4734Y-1425D01*
X4747Y-1430D01*
X4760Y-1432D01*
X4773Y-1430D01*
X4786Y-1425D01*
X4797Y-1417D01*
X4805Y-1406D01*
X4810Y-1393D01*
X4812Y-1380D01*
X4810Y-1367D01*
X4805Y-1354D01*
X4797Y-1343D01*
X4786Y-1335D01*
X4773Y-1330D01*
X4760Y-1328D01*
D02*
G37*
G36*
X4968Y-1331D02*
X4955Y-1333D01*
X4943Y-1338D01*
X4932Y-1346D01*
X4924Y-1357D01*
X4919Y-1369D01*
X4917Y-1382D01*
X4919Y-1396D01*
X4924Y-1408D01*
X4932Y-1419D01*
X4943Y-1427D01*
X4955Y-1432D01*
X4968Y-1434D01*
X4982Y-1432D01*
X4994Y-1427D01*
X5005Y-1419D01*
X5013Y-1408D01*
X5018Y-1396D01*
X5020Y-1382D01*
X5018Y-1369D01*
X5013Y-1357D01*
X5005Y-1346D01*
X4994Y-1338D01*
X4982Y-1333D01*
X4968Y-1331D01*
D02*
G37*
G36*
X4811Y-913D02*
X4767D01*
Y-957D01*
X4774Y-956D01*
X4786Y-951D01*
X4797Y-943D01*
X4805Y-932D01*
X4810Y-920D01*
X4811Y-913D01*
D02*
G37*
G36*
X5792Y-835D02*
X5755D01*
Y-879D01*
X5761Y-878D01*
X5771Y-874D01*
X5780Y-867D01*
X5786Y-859D01*
X5790Y-849D01*
X5792Y-838D01*
Y-835D01*
D02*
G37*
G36*
X5745D02*
X5708D01*
Y-838D01*
X5710Y-849D01*
X5714Y-859D01*
X5720Y-867D01*
X5729Y-874D01*
X5739Y-878D01*
X5745Y-879D01*
Y-835D01*
D02*
G37*
G36*
X5845D02*
X5808D01*
Y-838D01*
X5810Y-849D01*
X5814Y-859D01*
X5820Y-867D01*
X5829Y-874D01*
X5839Y-878D01*
X5845Y-879D01*
Y-835D01*
D02*
G37*
G36*
X7115D02*
X7078D01*
Y-838D01*
X7080Y-849D01*
X7084Y-859D01*
X7090Y-867D01*
X7099Y-874D01*
X7109Y-878D01*
X7115Y-879D01*
Y-835D01*
D02*
G37*
G36*
X5892D02*
X5855D01*
Y-879D01*
X5861Y-878D01*
X5871Y-874D01*
X5880Y-867D01*
X5886Y-859D01*
X5890Y-849D01*
X5892Y-838D01*
Y-835D01*
D02*
G37*
G36*
X6463Y-779D02*
X6377D01*
Y-881D01*
X6463D01*
Y-779D01*
D02*
G37*
G36*
X4757Y-858D02*
X4749Y-859D01*
X4737Y-864D01*
X4726Y-872D01*
X4718Y-883D01*
X4713Y-895D01*
X4712Y-903D01*
X4757D01*
Y-858D01*
D02*
G37*
G36*
Y-913D02*
X4712D01*
X4713Y-920D01*
X4718Y-932D01*
X4726Y-943D01*
X4737Y-951D01*
X4749Y-956D01*
X4757Y-957D01*
Y-913D01*
D02*
G37*
G36*
X4767Y-858D02*
Y-903D01*
X4811D01*
X4810Y-895D01*
X4805Y-883D01*
X4797Y-872D01*
X4786Y-864D01*
X4774Y-859D01*
X4767Y-858D01*
D02*
G37*
G36*
X7020Y-778D02*
X7009Y-780D01*
X6998Y-784D01*
X6989Y-791D01*
X6982Y-800D01*
X6978Y-811D01*
X6976Y-822D01*
Y-838D01*
X6978Y-849D01*
X6982Y-860D01*
X6989Y-869D01*
X6998Y-876D01*
X7009Y-880D01*
X7020Y-882D01*
X7031Y-880D01*
X7042Y-876D01*
X7051Y-869D01*
X7058Y-860D01*
X7062Y-849D01*
X7064Y-838D01*
Y-822D01*
X7062Y-811D01*
X7058Y-800D01*
X7051Y-791D01*
X7042Y-784D01*
X7031Y-780D01*
X7020Y-778D01*
D02*
G37*
G36*
X4762Y-456D02*
X4748Y-458D01*
X4736Y-463D01*
X4725Y-471D01*
X4717Y-482D01*
X4712Y-494D01*
X4710Y-508D01*
X4712Y-521D01*
X4717Y-533D01*
X4725Y-544D01*
X4736Y-552D01*
X4743Y-555D01*
Y-722D01*
X4745Y-728D01*
X4749Y-734D01*
X4787Y-773D01*
X4793Y-777D01*
X4800Y-778D01*
X4953D01*
X4954Y-782D01*
X4961Y-791D01*
X4970Y-798D01*
X4981Y-802D01*
X4992Y-804D01*
X5008D01*
X5019Y-802D01*
X5030Y-798D01*
X5039Y-791D01*
X5046Y-782D01*
X5047Y-778D01*
X5202D01*
X5207Y-779D01*
X5207Y-783D01*
Y-881D01*
X5293D01*
Y-783D01*
X5293Y-779D01*
X5298Y-778D01*
X5321D01*
X5325Y-782D01*
X5324Y-787D01*
X5319Y-791D01*
X5312Y-800D01*
X5308Y-811D01*
X5306Y-822D01*
Y-838D01*
X5308Y-849D01*
X5312Y-860D01*
X5319Y-869D01*
X5328Y-876D01*
X5339Y-880D01*
X5350Y-882D01*
X5361Y-880D01*
X5372Y-876D01*
X5381Y-869D01*
X5388Y-860D01*
X5392Y-849D01*
X5392Y-848D01*
X5408D01*
X5408Y-849D01*
X5412Y-860D01*
X5419Y-869D01*
X5428Y-876D01*
X5439Y-880D01*
X5450Y-882D01*
X5461Y-880D01*
X5471Y-876D01*
X5482Y-887D01*
Y-1356D01*
X5477Y-1358D01*
X5472Y-1354D01*
X5461Y-1350D01*
X5450Y-1348D01*
X5439Y-1350D01*
X5428Y-1354D01*
X5419Y-1361D01*
X5412Y-1370D01*
X5408Y-1381D01*
X5406Y-1392D01*
Y-1408D01*
X5408Y-1419D01*
X5412Y-1430D01*
X5419Y-1439D01*
X5428Y-1446D01*
X5439Y-1450D01*
X5450Y-1452D01*
X5461Y-1450D01*
X5472Y-1446D01*
X5477Y-1442D01*
X5482Y-1444D01*
Y-1650D01*
X5483Y-1657D01*
X5483Y-1657D01*
X5479Y-1660D01*
X5472Y-1654D01*
X5461Y-1650D01*
X5450Y-1648D01*
X5439Y-1650D01*
X5428Y-1654D01*
X5419Y-1661D01*
X5412Y-1670D01*
X5408Y-1681D01*
X5406Y-1692D01*
Y-1708D01*
X5408Y-1719D01*
X5412Y-1730D01*
X5419Y-1739D01*
X5428Y-1746D01*
X5432Y-1747D01*
Y-1903D01*
X5413Y-1922D01*
X5210D01*
X5208Y-1917D01*
X5263Y-1863D01*
X5267Y-1857D01*
X5268Y-1850D01*
Y-1751D01*
X5293D01*
Y-1649D01*
X5207D01*
Y-1751D01*
X5232D01*
Y-1843D01*
X5183Y-1892D01*
X4910D01*
X4903Y-1893D01*
X4897Y-1897D01*
X4857Y-1937D01*
X4853Y-1943D01*
X4852Y-1950D01*
Y-2418D01*
X4851Y-2418D01*
X4840Y-2422D01*
X4831Y-2429D01*
X4824Y-2438D01*
X4823Y-2442D01*
X4347D01*
X4328Y-2423D01*
Y-2397D01*
X4332Y-2396D01*
X4341Y-2389D01*
X4348Y-2380D01*
X4352Y-2369D01*
X4354Y-2358D01*
Y-2342D01*
X4352Y-2331D01*
X4348Y-2320D01*
X4341Y-2311D01*
X4332Y-2304D01*
X4321Y-2300D01*
X4310Y-2298D01*
X4299Y-2300D01*
X4288Y-2304D01*
X4279Y-2311D01*
X4272Y-2320D01*
X4268Y-2331D01*
X4266Y-2342D01*
Y-2358D01*
X4268Y-2369D01*
X4272Y-2380D01*
X4279Y-2389D01*
X4288Y-2396D01*
X4292Y-2397D01*
Y-2430D01*
X4293Y-2437D01*
X4297Y-2443D01*
X4327Y-2473D01*
X4333Y-2477D01*
X4340Y-2478D01*
X4823D01*
X4824Y-2482D01*
X4831Y-2491D01*
X4840Y-2498D01*
X4851Y-2502D01*
X4862Y-2504D01*
X4878D01*
X4889Y-2502D01*
X4900Y-2498D01*
X4909Y-2491D01*
X4916Y-2482D01*
X4920Y-2471D01*
X4922Y-2460D01*
X4920Y-2449D01*
X4916Y-2438D01*
X4909Y-2429D01*
X4900Y-2422D01*
X4889Y-2418D01*
X4888Y-2418D01*
Y-1957D01*
X4917Y-1928D01*
X4960D01*
X4962Y-1933D01*
X4937Y-1957D01*
X4933Y-1963D01*
X4932Y-1970D01*
Y-2533D01*
X4926Y-2538D01*
X4921Y-2536D01*
Y-2517D01*
X4819D01*
Y-2603D01*
X4852D01*
Y-3183D01*
X4847Y-3187D01*
X4843Y-3193D01*
X4842Y-3200D01*
Y-3212D01*
X4834Y-3215D01*
X4823Y-3223D01*
X4815Y-3234D01*
X4810Y-3247D01*
X4808Y-3260D01*
X4810Y-3273D01*
X4815Y-3286D01*
X4823Y-3297D01*
X4834Y-3305D01*
X4847Y-3310D01*
X4860Y-3312D01*
X4873Y-3310D01*
X4886Y-3305D01*
X4897Y-3297D01*
X4905Y-3286D01*
X4910Y-3273D01*
X4912Y-3260D01*
X4910Y-3247D01*
X4905Y-3234D01*
X4897Y-3223D01*
X4886Y-3215D01*
X4879Y-3212D01*
X4878Y-3207D01*
X4883Y-3203D01*
X4887Y-3197D01*
X4888Y-3190D01*
Y-2603D01*
X4921D01*
Y-2578D01*
X4930D01*
X4937Y-2577D01*
X4943Y-2573D01*
X4963Y-2553D01*
X4967Y-2547D01*
X4968Y-2540D01*
Y-1977D01*
X4987Y-1958D01*
X5420D01*
X5427Y-1957D01*
X5433Y-1953D01*
X5463Y-1923D01*
X5467Y-1917D01*
X5468Y-1910D01*
Y-1747D01*
X5472Y-1746D01*
X5481Y-1739D01*
X5488Y-1730D01*
X5492Y-1719D01*
X5494Y-1708D01*
Y-1692D01*
X5492Y-1681D01*
X5488Y-1670D01*
X5492Y-1667D01*
X5508Y-1683D01*
X5506Y-1692D01*
Y-1708D01*
X5508Y-1719D01*
X5512Y-1730D01*
X5519Y-1739D01*
X5528Y-1746D01*
X5539Y-1750D01*
X5550Y-1752D01*
X5561Y-1750D01*
X5572Y-1746D01*
X5581Y-1739D01*
X5588Y-1730D01*
X5592Y-1719D01*
X5594Y-1708D01*
Y-1692D01*
X5592Y-1681D01*
X5588Y-1670D01*
X5581Y-1661D01*
X5572Y-1654D01*
X5561Y-1650D01*
X5550Y-1648D01*
X5539Y-1650D01*
X5529Y-1654D01*
X5518Y-1643D01*
Y-1444D01*
X5523Y-1442D01*
X5528Y-1446D01*
X5539Y-1450D01*
X5550Y-1452D01*
X5561Y-1450D01*
X5572Y-1446D01*
X5581Y-1439D01*
X5588Y-1430D01*
X5592Y-1419D01*
X5594Y-1408D01*
Y-1392D01*
X5592Y-1381D01*
X5588Y-1370D01*
X5581Y-1361D01*
X5572Y-1354D01*
X5561Y-1350D01*
X5550Y-1348D01*
X5539Y-1350D01*
X5528Y-1354D01*
X5523Y-1358D01*
X5518Y-1356D01*
Y-880D01*
X5517Y-873D01*
X5517Y-873D01*
X5521Y-870D01*
X5528Y-876D01*
X5539Y-880D01*
X5550Y-882D01*
X5561Y-880D01*
X5572Y-876D01*
X5581Y-869D01*
X5588Y-860D01*
X5592Y-849D01*
X5594Y-838D01*
Y-822D01*
X5592Y-811D01*
X5588Y-800D01*
X5581Y-791D01*
X5572Y-784D01*
X5561Y-780D01*
X5550Y-778D01*
X5539Y-780D01*
X5528Y-784D01*
X5519Y-791D01*
X5512Y-800D01*
X5508Y-811D01*
X5506Y-822D01*
Y-838D01*
X5508Y-849D01*
X5512Y-860D01*
X5508Y-863D01*
X5492Y-847D01*
X5494Y-838D01*
Y-822D01*
X5492Y-811D01*
X5488Y-800D01*
X5481Y-791D01*
X5472Y-784D01*
X5461Y-780D01*
X5450Y-778D01*
X5439Y-780D01*
X5428Y-784D01*
X5419Y-791D01*
X5412Y-800D01*
X5408Y-811D01*
X5408Y-812D01*
X5392D01*
X5392Y-811D01*
X5388Y-800D01*
X5381Y-791D01*
X5372Y-784D01*
X5368Y-783D01*
Y-780D01*
X5367Y-773D01*
X5363Y-767D01*
X5343Y-747D01*
X5337Y-743D01*
X5330Y-742D01*
X5047D01*
X5046Y-738D01*
X5039Y-729D01*
X5030Y-722D01*
X5019Y-718D01*
X5008Y-716D01*
X4992D01*
X4981Y-718D01*
X4970Y-722D01*
X4961Y-729D01*
X4954Y-738D01*
X4953Y-742D01*
X4807D01*
X4780Y-714D01*
Y-555D01*
X4787Y-552D01*
X4798Y-544D01*
X4806Y-533D01*
X4811Y-521D01*
X4813Y-508D01*
X4811Y-494D01*
X4806Y-482D01*
X4798Y-471D01*
X4787Y-463D01*
X4775Y-458D01*
X4762Y-456D01*
D02*
G37*
G36*
X5728Y104D02*
X5712D01*
X5701Y102D01*
X5690Y98D01*
X5681Y91D01*
X5674Y82D01*
X5673Y78D01*
X5600D01*
X5593Y77D01*
X5587Y73D01*
X5537Y23D01*
X5533Y17D01*
X5532Y10D01*
Y-483D01*
X5528Y-484D01*
X5519Y-491D01*
X5512Y-500D01*
X5508Y-511D01*
X5506Y-522D01*
Y-538D01*
X5508Y-549D01*
X5512Y-560D01*
X5519Y-569D01*
X5528Y-576D01*
X5539Y-580D01*
X5550Y-582D01*
X5561Y-580D01*
X5572Y-576D01*
X5581Y-569D01*
X5588Y-560D01*
X5592Y-549D01*
X5594Y-538D01*
Y-522D01*
X5592Y-511D01*
X5588Y-500D01*
X5581Y-491D01*
X5572Y-484D01*
X5568Y-483D01*
Y3D01*
X5607Y42D01*
X5673D01*
X5674Y38D01*
X5681Y29D01*
X5690Y22D01*
X5701Y18D01*
X5712Y16D01*
X5728D01*
X5739Y18D01*
X5750Y22D01*
X5759Y29D01*
X5766Y38D01*
X5770Y49D01*
X5772Y60D01*
X5770Y71D01*
X5766Y82D01*
X5759Y91D01*
X5750Y98D01*
X5739Y102D01*
X5728Y104D01*
D02*
G37*
G36*
X2433Y28D02*
X2400D01*
Y-5D01*
X2433D01*
Y28D01*
D02*
G37*
G36*
X6028Y104D02*
X6012D01*
X6001Y102D01*
X5990Y98D01*
X5981Y91D01*
X5974Y82D01*
X5970Y71D01*
X5968Y60D01*
X5970Y49D01*
X5974Y38D01*
X5981Y29D01*
X5990Y22D01*
X6001Y18D01*
X6012Y16D01*
X6028D01*
X6039Y18D01*
X6050Y22D01*
X6059Y29D01*
X6066Y38D01*
X6070Y49D01*
X6072Y60D01*
X6070Y71D01*
X6066Y82D01*
X6059Y91D01*
X6050Y98D01*
X6039Y102D01*
X6028Y104D01*
D02*
G37*
G36*
Y204D02*
X6012D01*
X6001Y202D01*
X5990Y198D01*
X5981Y191D01*
X5974Y182D01*
X5970Y171D01*
X5968Y160D01*
X5970Y149D01*
X5974Y138D01*
X5981Y129D01*
X5990Y122D01*
X6001Y118D01*
X6012Y116D01*
X6028D01*
X6039Y118D01*
X6050Y122D01*
X6059Y129D01*
X6066Y138D01*
X6070Y149D01*
X6072Y160D01*
X6070Y171D01*
X6066Y182D01*
X6059Y191D01*
X6050Y198D01*
X6039Y202D01*
X6028Y204D01*
D02*
G37*
G36*
X5728D02*
X5712D01*
X5701Y202D01*
X5690Y198D01*
X5681Y191D01*
X5674Y182D01*
X5670Y171D01*
X5668Y160D01*
X5670Y149D01*
X5674Y138D01*
X5681Y129D01*
X5690Y122D01*
X5701Y118D01*
X5712Y116D01*
X5728D01*
X5739Y118D01*
X5750Y122D01*
X5759Y129D01*
X5766Y138D01*
X5770Y149D01*
X5772Y160D01*
X5770Y171D01*
X5766Y182D01*
X5759Y191D01*
X5750Y198D01*
X5739Y202D01*
X5728Y204D01*
D02*
G37*
G36*
X2910Y44D02*
X2899Y42D01*
X2888Y38D01*
X2879Y31D01*
X2872Y22D01*
X2590D01*
X2582Y20D01*
X2574Y16D01*
X2504Y-54D01*
X2500Y-62D01*
X2498Y-70D01*
Y-504D01*
X2494Y-505D01*
X2483Y-513D01*
X2475Y-524D01*
X2470Y-537D01*
X2468Y-550D01*
X2470Y-563D01*
X2475Y-576D01*
X2483Y-587D01*
X2494Y-595D01*
X2507Y-600D01*
X2520Y-602D01*
X2533Y-600D01*
X2546Y-595D01*
X2557Y-587D01*
X2565Y-576D01*
X2566Y-572D01*
X2701D01*
X2738Y-609D01*
Y-1364D01*
X2729Y-1371D01*
X2722Y-1380D01*
X2718Y-1391D01*
X2716Y-1402D01*
Y-1418D01*
X2718Y-1429D01*
X2722Y-1440D01*
X2729Y-1449D01*
X2738Y-1456D01*
X2749Y-1460D01*
X2760Y-1462D01*
X2771Y-1460D01*
X2782Y-1456D01*
X2791Y-1449D01*
X2798Y-1440D01*
X2802Y-1429D01*
X2804Y-1418D01*
Y-1402D01*
X2802Y-1391D01*
X2798Y-1380D01*
X2791Y-1371D01*
X2782Y-1364D01*
Y-600D01*
X2780Y-592D01*
X2776Y-584D01*
X2726Y-534D01*
X2718Y-530D01*
X2710Y-528D01*
X2566D01*
X2565Y-524D01*
X2557Y-513D01*
X2546Y-505D01*
X2542Y-504D01*
Y-79D01*
X2599Y-22D01*
X2872D01*
X2879Y-31D01*
X2888Y-38D01*
X2899Y-42D01*
X2910Y-44D01*
X2921Y-42D01*
X2932Y-38D01*
X2941Y-31D01*
X2948Y-22D01*
X2952Y-11D01*
X2954Y0D01*
X2952Y11D01*
X2948Y22D01*
X2941Y31D01*
X2932Y38D01*
X2921Y42D01*
X2910Y44D01*
D02*
G37*
G36*
X6028Y4D02*
X6012D01*
X6001Y2D01*
X5990Y-2D01*
X5981Y-9D01*
X5974Y-18D01*
X5970Y-29D01*
X5968Y-40D01*
X5970Y-51D01*
X5974Y-62D01*
X5981Y-71D01*
X5990Y-78D01*
X6001Y-82D01*
X6012Y-84D01*
X6028D01*
X6039Y-82D01*
X6050Y-78D01*
X6059Y-71D01*
X6066Y-62D01*
X6070Y-51D01*
X6072Y-40D01*
X6070Y-29D01*
X6066Y-18D01*
X6059Y-9D01*
X6050Y-2D01*
X6039Y2D01*
X6028Y4D01*
D02*
G37*
G36*
X5728D02*
X5712D01*
X5701Y2D01*
X5690Y-2D01*
X5681Y-9D01*
X5674Y-18D01*
X5670Y-29D01*
X5668Y-40D01*
X5670Y-51D01*
X5674Y-62D01*
X5681Y-71D01*
X5690Y-78D01*
X5701Y-82D01*
X5712Y-84D01*
X5728D01*
X5739Y-82D01*
X5750Y-78D01*
X5759Y-71D01*
X5766Y-62D01*
X5770Y-51D01*
X5772Y-40D01*
X5770Y-29D01*
X5766Y-18D01*
X5759Y-9D01*
X5750Y-2D01*
X5739Y2D01*
X5728Y4D01*
D02*
G37*
G36*
X2120Y262D02*
X2107Y260D01*
X2094Y255D01*
X2083Y247D01*
X2075Y236D01*
X2070Y223D01*
X2068Y210D01*
X2070Y197D01*
X2075Y184D01*
X2083Y173D01*
X2094Y165D01*
X2107Y160D01*
X2120Y158D01*
X2133Y160D01*
X2146Y165D01*
X2157Y173D01*
X2165Y184D01*
X2168Y192D01*
X2203D01*
X2227Y168D01*
Y25D01*
X2225Y24D01*
X2217Y18D01*
X2211Y10D01*
X2207Y0D01*
X2205Y-10D01*
X2207Y-20D01*
X2211Y-30D01*
X2217Y-38D01*
X2225Y-44D01*
X2235Y-48D01*
X2245Y-50D01*
X2255Y-48D01*
X2265Y-44D01*
X2273Y-38D01*
X2279Y-30D01*
X2280Y-28D01*
X2285D01*
X2286Y-30D01*
X2292Y-38D01*
X2300Y-44D01*
X2302Y-45D01*
Y-110D01*
X2303Y-117D01*
X2307Y-123D01*
X2350Y-166D01*
Y-244D01*
X2346Y-245D01*
X2337Y-252D01*
X2330Y-261D01*
X2326Y-272D01*
X2325Y-283D01*
Y-299D01*
X2326Y-310D01*
X2330Y-321D01*
X2337Y-330D01*
X2346Y-337D01*
X2357Y-341D01*
X2368Y-343D01*
X2379Y-341D01*
X2390Y-337D01*
X2399Y-330D01*
X2406Y-321D01*
X2410Y-310D01*
X2412Y-299D01*
Y-283D01*
X2410Y-272D01*
X2406Y-261D01*
X2399Y-252D01*
X2390Y-245D01*
X2386Y-244D01*
Y-158D01*
X2385Y-151D01*
X2381Y-145D01*
X2338Y-103D01*
Y-45D01*
X2340Y-44D01*
X2348Y-38D01*
X2352Y-32D01*
X2357Y-34D01*
Y-48D01*
X2390D01*
Y-10D01*
Y28D01*
X2357D01*
Y14D01*
X2352Y12D01*
X2348Y18D01*
X2340Y24D01*
X2330Y28D01*
X2320Y30D01*
X2310Y28D01*
X2300Y24D01*
X2292Y18D01*
X2286Y10D01*
X2285Y8D01*
X2280D01*
X2279Y10D01*
X2273Y18D01*
X2265Y24D01*
X2263Y25D01*
Y175D01*
X2262Y182D01*
X2258Y188D01*
X2223Y223D01*
X2217Y227D01*
X2210Y228D01*
X2168D01*
X2165Y236D01*
X2157Y247D01*
X2146Y255D01*
X2133Y260D01*
X2120Y262D01*
D02*
G37*
G36*
X0Y44D02*
X-11Y42D01*
X-22Y38D01*
X-31Y31D01*
X-38Y22D01*
X-220D01*
X-228Y20D01*
X-236Y16D01*
X-286Y-34D01*
X-290Y-42D01*
X-292Y-50D01*
Y-2420D01*
Y-4390D01*
X-290Y-4398D01*
X-286Y-4406D01*
X-224Y-4467D01*
X-217Y-4472D01*
X-209Y-4473D01*
X-100D01*
Y-4506D01*
X10D01*
Y-4472D01*
X320D01*
X328Y-4470D01*
X336Y-4466D01*
X394Y-4407D01*
X399Y-4400D01*
X401Y-4392D01*
Y-3729D01*
X404Y-3727D01*
X415Y-3719D01*
X423Y-3708D01*
X428Y-3696D01*
X430Y-3682D01*
X428Y-3669D01*
X423Y-3657D01*
X415Y-3646D01*
X404Y-3638D01*
X392Y-3633D01*
X378Y-3631D01*
X365Y-3633D01*
X353Y-3638D01*
X342Y-3646D01*
X334Y-3657D01*
X329Y-3669D01*
X327Y-3682D01*
X329Y-3696D01*
X334Y-3708D01*
X342Y-3719D01*
X353Y-3727D01*
X356Y-3729D01*
Y-4382D01*
X311Y-4428D01*
X10D01*
Y-4396D01*
X-100D01*
Y-4429D01*
X-200D01*
X-248Y-4381D01*
Y-2442D01*
X-101D01*
X-98Y-2450D01*
X-91Y-2459D01*
X-82Y-2466D01*
X-71Y-2470D01*
X-60Y-2472D01*
X-49Y-2470D01*
X-38Y-2466D01*
X-29Y-2459D01*
X-22Y-2450D01*
X-18Y-2439D01*
X-16Y-2428D01*
Y-2412D01*
X-18Y-2401D01*
X-22Y-2390D01*
X-29Y-2381D01*
X-38Y-2374D01*
X-49Y-2370D01*
X-60Y-2368D01*
X-71Y-2370D01*
X-82Y-2374D01*
X-91Y-2381D01*
X-98Y-2390D01*
X-101Y-2398D01*
X-248D01*
Y-59D01*
X-211Y-22D01*
X-38D01*
X-31Y-31D01*
X-22Y-38D01*
X-11Y-42D01*
X0Y-44D01*
X11Y-42D01*
X22Y-38D01*
X31Y-31D01*
X38Y-22D01*
X42Y-11D01*
X44Y0D01*
X42Y11D01*
X38Y22D01*
X31Y31D01*
X22Y38D01*
X11Y42D01*
X0Y44D01*
D02*
G37*
G36*
X2433Y-15D02*
X2400D01*
Y-48D01*
X2433D01*
Y-15D01*
D02*
G37*
G36*
X2520Y432D02*
X2507Y430D01*
X2494Y425D01*
X2483Y417D01*
X2475Y406D01*
X2470Y393D01*
X2468Y380D01*
X2470Y367D01*
X2475Y354D01*
X2483Y343D01*
X2494Y335D01*
X2502Y332D01*
Y258D01*
X2494Y255D01*
X2483Y247D01*
X2475Y236D01*
X2470Y223D01*
X2468Y210D01*
X2470Y197D01*
X2475Y184D01*
X2483Y173D01*
X2494Y165D01*
X2507Y160D01*
X2520Y158D01*
X2533Y160D01*
X2546Y165D01*
X2557Y173D01*
X2565Y184D01*
X2570Y197D01*
X2572Y210D01*
X2570Y223D01*
X2565Y236D01*
X2557Y247D01*
X2546Y255D01*
X2538Y258D01*
Y332D01*
X2546Y335D01*
X2557Y343D01*
X2565Y354D01*
X2570Y367D01*
X2572Y380D01*
X2570Y393D01*
X2565Y406D01*
X2557Y417D01*
X2546Y425D01*
X2533Y430D01*
X2520Y432D01*
D02*
G37*
G36*
X6670Y579D02*
X6659Y577D01*
X6648Y573D01*
X6639Y566D01*
X6632Y557D01*
X6628Y546D01*
X6626Y535D01*
Y519D01*
X6628Y508D01*
X6632Y497D01*
X6639Y488D01*
X6648Y481D01*
X6659Y477D01*
X6670Y475D01*
X6681Y477D01*
X6692Y481D01*
X6701Y488D01*
X6708Y497D01*
X6712Y508D01*
X6714Y519D01*
Y535D01*
X6712Y546D01*
X6708Y557D01*
X6701Y566D01*
X6692Y573D01*
X6681Y577D01*
X6670Y579D01*
D02*
G37*
G36*
X6570D02*
X6559Y577D01*
X6548Y573D01*
X6539Y566D01*
X6532Y557D01*
X6528Y546D01*
X6526Y535D01*
Y519D01*
X6528Y508D01*
X6532Y497D01*
X6539Y488D01*
X6548Y481D01*
X6559Y477D01*
X6570Y475D01*
X6581Y477D01*
X6592Y481D01*
X6601Y488D01*
X6608Y497D01*
X6612Y508D01*
X6614Y519D01*
Y535D01*
X6612Y546D01*
X6608Y557D01*
X6601Y566D01*
X6592Y573D01*
X6581Y577D01*
X6570Y579D01*
D02*
G37*
G36*
X6770D02*
X6759Y577D01*
X6748Y573D01*
X6739Y566D01*
X6732Y557D01*
X6728Y546D01*
X6726Y535D01*
Y519D01*
X6728Y508D01*
X6732Y497D01*
X6739Y488D01*
X6748Y481D01*
X6759Y477D01*
X6770Y475D01*
X6781Y477D01*
X6792Y481D01*
X6801Y488D01*
X6808Y497D01*
X6812Y508D01*
X6814Y519D01*
Y535D01*
X6812Y546D01*
X6808Y557D01*
X6801Y566D01*
X6792Y573D01*
X6781Y577D01*
X6770Y579D01*
D02*
G37*
G36*
X6970D02*
X6959Y577D01*
X6948Y573D01*
X6939Y566D01*
X6932Y557D01*
X6928Y546D01*
X6926Y535D01*
Y519D01*
X6928Y508D01*
X6932Y497D01*
X6939Y488D01*
X6948Y481D01*
X6959Y477D01*
X6970Y475D01*
X6981Y477D01*
X6992Y481D01*
X7001Y488D01*
X7008Y497D01*
X7012Y508D01*
X7014Y519D01*
Y535D01*
X7012Y546D01*
X7008Y557D01*
X7001Y566D01*
X6992Y573D01*
X6981Y577D01*
X6970Y579D01*
D02*
G37*
G36*
X6870D02*
X6859Y577D01*
X6848Y573D01*
X6839Y566D01*
X6832Y557D01*
X6828Y546D01*
X6826Y535D01*
Y519D01*
X6828Y508D01*
X6832Y497D01*
X6839Y488D01*
X6848Y481D01*
X6859Y477D01*
X6870Y475D01*
X6881Y477D01*
X6892Y481D01*
X6901Y488D01*
X6908Y497D01*
X6912Y508D01*
X6914Y519D01*
Y535D01*
X6912Y546D01*
X6908Y557D01*
X6901Y566D01*
X6892Y573D01*
X6881Y577D01*
X6870Y579D01*
D02*
G37*
G36*
X6028Y504D02*
X6012D01*
X6001Y502D01*
X5990Y498D01*
X5981Y491D01*
X5974Y482D01*
X5970Y471D01*
X5968Y460D01*
X5970Y449D01*
X5974Y438D01*
X5981Y429D01*
X5990Y422D01*
X6001Y418D01*
X6012Y416D01*
X6028D01*
X6039Y418D01*
X6050Y422D01*
X6059Y429D01*
X6066Y438D01*
X6070Y449D01*
X6072Y460D01*
X6070Y471D01*
X6066Y482D01*
X6059Y491D01*
X6050Y498D01*
X6039Y502D01*
X6028Y504D01*
D02*
G37*
G36*
Y304D02*
X6012D01*
X6001Y302D01*
X5990Y298D01*
X5981Y291D01*
X5974Y282D01*
X5970Y271D01*
X5968Y260D01*
X5970Y249D01*
X5974Y238D01*
X5981Y229D01*
X5990Y222D01*
X6001Y218D01*
X6012Y216D01*
X6028D01*
X6039Y218D01*
X6050Y222D01*
X6059Y229D01*
X6066Y238D01*
X6070Y249D01*
X6072Y260D01*
X6070Y271D01*
X6066Y282D01*
X6059Y291D01*
X6050Y298D01*
X6039Y302D01*
X6028Y304D01*
D02*
G37*
G36*
X5728D02*
X5712D01*
X5701Y302D01*
X5690Y298D01*
X5681Y291D01*
X5674Y282D01*
X5670Y271D01*
X5668Y260D01*
X5670Y249D01*
X5674Y238D01*
X5681Y229D01*
X5690Y222D01*
X5701Y218D01*
X5712Y216D01*
X5728D01*
X5739Y218D01*
X5750Y222D01*
X5759Y229D01*
X5766Y238D01*
X5770Y249D01*
X5772Y260D01*
X5770Y271D01*
X5766Y282D01*
X5759Y291D01*
X5750Y298D01*
X5739Y302D01*
X5728Y304D01*
D02*
G37*
G36*
X7120Y414D02*
X7107Y412D01*
X7094Y407D01*
X7083Y399D01*
X7075Y388D01*
X7070Y375D01*
X7068Y362D01*
X7070Y349D01*
X7075Y336D01*
X7083Y325D01*
X7094Y317D01*
X7107Y312D01*
X7120Y310D01*
X7133Y312D01*
X7146Y317D01*
X7157Y325D01*
X7165Y336D01*
X7170Y349D01*
X7172Y362D01*
X7170Y375D01*
X7165Y388D01*
X7157Y399D01*
X7146Y407D01*
X7133Y412D01*
X7120Y414D01*
D02*
G37*
G36*
X2120Y432D02*
X2107Y430D01*
X2094Y425D01*
X2083Y417D01*
X2075Y406D01*
X2072Y398D01*
X1760D01*
X1753Y397D01*
X1747Y393D01*
X1707Y353D01*
X1703Y347D01*
X1702Y340D01*
Y39D01*
X1698Y38D01*
X1689Y31D01*
X1682Y22D01*
X1678Y11D01*
X1676Y0D01*
X1678Y-11D01*
X1682Y-22D01*
X1689Y-31D01*
X1698Y-38D01*
X1709Y-42D01*
X1720Y-44D01*
X1731Y-42D01*
X1742Y-38D01*
X1751Y-31D01*
X1758Y-22D01*
X1762Y-11D01*
X1764Y0D01*
X1762Y11D01*
X1758Y22D01*
X1751Y31D01*
X1742Y38D01*
X1738Y39D01*
Y333D01*
X1767Y362D01*
X2072D01*
X2075Y354D01*
X2083Y343D01*
X2094Y335D01*
X2107Y330D01*
X2120Y328D01*
X2133Y330D01*
X2146Y335D01*
X2157Y343D01*
X2165Y354D01*
X2170Y367D01*
X2172Y380D01*
X2170Y393D01*
X2165Y406D01*
X2157Y417D01*
X2146Y425D01*
X2133Y430D01*
X2120Y432D01*
D02*
G37*
G36*
X6028Y404D02*
X6012D01*
X6001Y402D01*
X5990Y398D01*
X5981Y391D01*
X5974Y382D01*
X5970Y371D01*
X5968Y360D01*
X5970Y349D01*
X5974Y338D01*
X5981Y329D01*
X5990Y322D01*
X6001Y318D01*
X6012Y316D01*
X6028D01*
X6039Y318D01*
X6050Y322D01*
X6059Y329D01*
X6066Y338D01*
X6070Y349D01*
X6072Y360D01*
X6070Y371D01*
X6066Y382D01*
X6059Y391D01*
X6050Y398D01*
X6039Y402D01*
X6028Y404D01*
D02*
G37*
G36*
X-5Y-105D02*
X-41D01*
X-40Y-111D01*
X-36Y-121D01*
X-30Y-130D01*
X-21Y-136D01*
X-11Y-140D01*
X-5Y-141D01*
Y-105D01*
D02*
G37*
G36*
X5769Y-145D02*
X5725D01*
Y-182D01*
X5728D01*
X5739Y-180D01*
X5749Y-176D01*
X5757Y-170D01*
X5764Y-161D01*
X5768Y-151D01*
X5769Y-145D01*
D02*
G37*
G36*
X41Y-105D02*
X5D01*
Y-141D01*
X11Y-140D01*
X21Y-136D01*
X30Y-130D01*
X36Y-121D01*
X40Y-111D01*
X41Y-105D01*
D02*
G37*
G36*
X2951D02*
X2915D01*
Y-141D01*
X2921Y-140D01*
X2931Y-136D01*
X2940Y-130D01*
X2946Y-121D01*
X2950Y-111D01*
X2951Y-105D01*
D02*
G37*
G36*
X2905D02*
X2869D01*
X2870Y-111D01*
X2874Y-121D01*
X2880Y-130D01*
X2889Y-136D01*
X2899Y-140D01*
X2905Y-141D01*
Y-105D01*
D02*
G37*
G36*
X5715Y-145D02*
X5671D01*
X5672Y-151D01*
X5676Y-161D01*
X5683Y-170D01*
X5691Y-176D01*
X5701Y-180D01*
X5712Y-182D01*
X5715D01*
Y-145D01*
D02*
G37*
G36*
X5655Y-481D02*
Y-525D01*
X5692D01*
Y-522D01*
X5690Y-511D01*
X5686Y-501D01*
X5680Y-493D01*
X5671Y-486D01*
X5661Y-482D01*
X5655Y-481D01*
D02*
G37*
G36*
X5645D02*
X5639Y-482D01*
X5629Y-486D01*
X5620Y-493D01*
X5614Y-501D01*
X5610Y-511D01*
X5608Y-522D01*
Y-525D01*
X5645D01*
Y-481D01*
D02*
G37*
G36*
X5771Y603D02*
X5669D01*
Y554D01*
X5637Y523D01*
X5633Y517D01*
X5632Y510D01*
Y440D01*
X5633Y433D01*
X5637Y427D01*
X5667Y397D01*
X5673Y393D01*
X5676Y393D01*
X5678Y387D01*
X5674Y382D01*
X5670Y371D01*
X5668Y360D01*
X5670Y349D01*
X5674Y338D01*
X5681Y329D01*
X5690Y322D01*
X5701Y318D01*
X5712Y316D01*
X5728D01*
X5739Y318D01*
X5750Y322D01*
X5759Y329D01*
X5766Y338D01*
X5770Y349D01*
X5772Y360D01*
X5770Y371D01*
X5766Y382D01*
X5762Y387D01*
X5764Y392D01*
X5813D01*
X5842Y363D01*
Y-413D01*
X5771Y-484D01*
X5761Y-480D01*
X5750Y-478D01*
X5739Y-480D01*
X5728Y-484D01*
X5719Y-491D01*
X5712Y-500D01*
X5708Y-511D01*
X5706Y-522D01*
Y-538D01*
X5708Y-549D01*
X5712Y-560D01*
X5719Y-569D01*
X5728Y-576D01*
X5739Y-580D01*
X5750Y-582D01*
X5761Y-580D01*
X5772Y-576D01*
X5781Y-569D01*
X5788Y-560D01*
X5792Y-549D01*
X5794Y-538D01*
Y-522D01*
X5792Y-513D01*
X5808Y-497D01*
X5812Y-500D01*
X5808Y-511D01*
X5806Y-522D01*
Y-538D01*
X5808Y-549D01*
X5812Y-560D01*
X5819Y-569D01*
X5828Y-576D01*
X5839Y-580D01*
X5850Y-582D01*
X5861Y-580D01*
X5872Y-576D01*
X5881Y-569D01*
X5888Y-560D01*
X5892Y-549D01*
X5894Y-538D01*
Y-522D01*
X5892Y-513D01*
X5903Y-503D01*
X5907Y-497D01*
X5908Y-490D01*
Y440D01*
X5907Y447D01*
X5903Y453D01*
X5881Y475D01*
X5875Y479D01*
X5868Y480D01*
X5766D01*
X5766Y482D01*
X5759Y491D01*
X5750Y498D01*
X5739Y502D01*
X5728Y504D01*
X5712D01*
X5701Y502D01*
X5690Y498D01*
X5681Y491D01*
X5674Y482D01*
X5673Y479D01*
X5668Y480D01*
Y503D01*
X5682Y517D01*
X5771D01*
Y603D01*
D02*
G37*
G36*
X6028Y-96D02*
X6012D01*
X6001Y-98D01*
X5990Y-102D01*
X5981Y-109D01*
X5974Y-118D01*
X5970Y-129D01*
X5968Y-140D01*
X5970Y-151D01*
X5974Y-162D01*
X5981Y-171D01*
X5990Y-178D01*
X6001Y-182D01*
X6012Y-184D01*
X6028D01*
X6039Y-182D01*
X6050Y-178D01*
X6059Y-171D01*
X6066Y-162D01*
X6070Y-151D01*
X6072Y-140D01*
X6070Y-129D01*
X6066Y-118D01*
X6059Y-109D01*
X6050Y-102D01*
X6039Y-98D01*
X6028Y-96D01*
D02*
G37*
G36*
X2311Y-240D02*
X2225D01*
Y-273D01*
X2150D01*
X2143Y-274D01*
X2137Y-278D01*
X2107Y-308D01*
X2103Y-314D01*
X2102Y-321D01*
Y-502D01*
X2094Y-505D01*
X2083Y-513D01*
X2075Y-524D01*
X2070Y-537D01*
X2068Y-550D01*
X2070Y-563D01*
X2075Y-576D01*
X2083Y-587D01*
X2094Y-595D01*
X2107Y-600D01*
X2120Y-602D01*
X2133Y-600D01*
X2146Y-595D01*
X2157Y-587D01*
X2165Y-576D01*
X2170Y-563D01*
X2172Y-550D01*
X2170Y-537D01*
X2165Y-524D01*
X2157Y-513D01*
X2146Y-505D01*
X2138Y-502D01*
Y-329D01*
X2157Y-309D01*
X2225D01*
Y-342D01*
X2311D01*
Y-240D01*
D02*
G37*
G36*
X5715Y-98D02*
X5712D01*
X5701Y-100D01*
X5691Y-104D01*
X5683Y-110D01*
X5676Y-119D01*
X5672Y-129D01*
X5671Y-135D01*
X5715D01*
Y-98D01*
D02*
G37*
G36*
X5Y-59D02*
Y-95D01*
X41D01*
X40Y-89D01*
X36Y-79D01*
X30Y-70D01*
X21Y-64D01*
X11Y-60D01*
X5Y-59D01*
D02*
G37*
G36*
X-5D02*
X-11Y-60D01*
X-21Y-64D01*
X-30Y-70D01*
X-36Y-79D01*
X-40Y-89D01*
X-41Y-95D01*
X-5D01*
Y-59D01*
D02*
G37*
G36*
X2905D02*
X2899Y-60D01*
X2889Y-64D01*
X2880Y-70D01*
X2874Y-79D01*
X2870Y-89D01*
X2869Y-95D01*
X2905D01*
Y-59D01*
D02*
G37*
G36*
X6028Y604D02*
X6012D01*
X6001Y602D01*
X5990Y598D01*
X5981Y591D01*
X5974Y582D01*
X5970Y571D01*
X5968Y560D01*
X5970Y549D01*
X5974Y538D01*
X5981Y529D01*
X5990Y522D01*
X6001Y518D01*
X6012Y516D01*
X6028D01*
X6039Y518D01*
X6050Y522D01*
X6059Y529D01*
X6066Y538D01*
X6381D01*
X6398Y521D01*
Y30D01*
Y-484D01*
X6389Y-491D01*
X6382Y-500D01*
X6378Y-511D01*
X6376Y-522D01*
Y-538D01*
X6378Y-549D01*
X6382Y-560D01*
X6389Y-569D01*
X6398Y-576D01*
Y-601D01*
X6361Y-638D01*
X5051D01*
Y-617D01*
X4949D01*
Y-703D01*
X5051D01*
Y-682D01*
X5628D01*
Y-784D01*
X5619Y-791D01*
X5612Y-800D01*
X5608Y-811D01*
X5606Y-822D01*
Y-838D01*
X5608Y-849D01*
X5612Y-860D01*
X5619Y-869D01*
X5628Y-876D01*
X5639Y-880D01*
X5650Y-882D01*
X5661Y-880D01*
X5672Y-876D01*
X5681Y-869D01*
X5688Y-860D01*
X5692Y-849D01*
X5694Y-838D01*
Y-822D01*
X5692Y-811D01*
X5688Y-800D01*
X5681Y-791D01*
X5672Y-784D01*
Y-682D01*
X6370D01*
X6378Y-680D01*
X6386Y-676D01*
X6436Y-626D01*
X6440Y-618D01*
X6442Y-610D01*
Y-576D01*
X6451Y-569D01*
X6458Y-560D01*
X6462Y-549D01*
X6464Y-538D01*
Y-522D01*
X6462Y-511D01*
X6458Y-500D01*
X6451Y-491D01*
X6442Y-484D01*
Y8D01*
X7043D01*
X7072Y-21D01*
X7070Y-25D01*
X7068Y-38D01*
X7070Y-51D01*
X7075Y-64D01*
X7083Y-75D01*
X7094Y-83D01*
X7107Y-88D01*
X7120Y-90D01*
X7133Y-88D01*
X7146Y-83D01*
X7157Y-75D01*
X7165Y-64D01*
X7170Y-51D01*
X7172Y-38D01*
X7170Y-25D01*
X7165Y-12D01*
X7157Y-1D01*
X7146Y7D01*
X7133Y12D01*
X7120Y14D01*
X7107Y12D01*
X7103Y10D01*
X7068Y46D01*
X7060Y50D01*
X7052Y52D01*
X6442D01*
Y530D01*
X6440Y538D01*
X6436Y546D01*
X6406Y576D01*
X6398Y580D01*
X6390Y582D01*
X6066D01*
X6059Y591D01*
X6050Y598D01*
X6039Y602D01*
X6028Y604D01*
D02*
G37*
G36*
X2915Y-59D02*
Y-95D01*
X2951D01*
X2950Y-89D01*
X2946Y-79D01*
X2940Y-70D01*
X2931Y-64D01*
X2921Y-60D01*
X2915Y-59D01*
D02*
G37*
G36*
X6613Y-22D02*
X6527D01*
Y-124D01*
X6613D01*
Y-22D01*
D02*
G37*
G36*
X6670Y-21D02*
X6659Y-23D01*
X6648Y-27D01*
X6639Y-34D01*
X6632Y-43D01*
X6628Y-54D01*
X6626Y-65D01*
Y-81D01*
X6628Y-92D01*
X6632Y-103D01*
X6639Y-112D01*
X6648Y-119D01*
X6659Y-123D01*
X6670Y-125D01*
X6681Y-123D01*
X6692Y-119D01*
X6701Y-112D01*
X6708Y-103D01*
X6712Y-92D01*
X6714Y-81D01*
Y-65D01*
X6712Y-54D01*
X6708Y-43D01*
X6701Y-34D01*
X6692Y-27D01*
X6681Y-23D01*
X6670Y-21D01*
D02*
G37*
G36*
X5728Y-98D02*
X5725D01*
Y-135D01*
X5769D01*
X5768Y-129D01*
X5764Y-119D01*
X5757Y-110D01*
X5749Y-104D01*
X5739Y-100D01*
X5728Y-98D01*
D02*
G37*
G36*
X6770Y-21D02*
X6759Y-23D01*
X6748Y-27D01*
X6739Y-34D01*
X6732Y-43D01*
X6728Y-54D01*
X6726Y-65D01*
Y-81D01*
X6728Y-92D01*
X6732Y-103D01*
X6739Y-112D01*
X6748Y-119D01*
X6759Y-123D01*
X6770Y-125D01*
X6781Y-123D01*
X6792Y-119D01*
X6801Y-112D01*
X6808Y-103D01*
X6812Y-92D01*
X6814Y-81D01*
Y-65D01*
X6812Y-54D01*
X6808Y-43D01*
X6801Y-34D01*
X6792Y-27D01*
X6781Y-23D01*
X6770Y-21D01*
D02*
G37*
G36*
X6970D02*
X6959Y-23D01*
X6948Y-27D01*
X6939Y-34D01*
X6932Y-43D01*
X6928Y-54D01*
X6926Y-65D01*
Y-81D01*
X6928Y-92D01*
X6932Y-103D01*
X6939Y-112D01*
X6948Y-119D01*
X6959Y-123D01*
X6970Y-125D01*
X6981Y-123D01*
X6992Y-119D01*
X7001Y-112D01*
X7008Y-103D01*
X7012Y-92D01*
X7014Y-81D01*
Y-65D01*
X7012Y-54D01*
X7008Y-43D01*
X7001Y-34D01*
X6992Y-27D01*
X6981Y-23D01*
X6970Y-21D01*
D02*
G37*
G36*
X6870D02*
X6859Y-23D01*
X6848Y-27D01*
X6839Y-34D01*
X6832Y-43D01*
X6828Y-54D01*
X6826Y-65D01*
Y-81D01*
X6828Y-92D01*
X6832Y-103D01*
X6839Y-112D01*
X6848Y-119D01*
X6859Y-123D01*
X6870Y-125D01*
X6881Y-123D01*
X6892Y-119D01*
X6901Y-112D01*
X6908Y-103D01*
X6912Y-92D01*
X6914Y-81D01*
Y-65D01*
X6912Y-54D01*
X6908Y-43D01*
X6901Y-34D01*
X6892Y-27D01*
X6881Y-23D01*
X6870Y-21D01*
D02*
G37*
G36*
X628Y-1324D02*
X615Y-1326D01*
X603Y-1331D01*
X592Y-1339D01*
X584Y-1350D01*
X579Y-1362D01*
X577Y-1375D01*
X579Y-1389D01*
X584Y-1401D01*
X592Y-1412D01*
X603Y-1420D01*
X615Y-1425D01*
X628Y-1427D01*
X642Y-1425D01*
X654Y-1420D01*
X665Y-1412D01*
X673Y-1401D01*
X673Y-1401D01*
X679Y-1400D01*
X697Y-1419D01*
X705Y-1423D01*
X713Y-1425D01*
X1034D01*
X1037Y-1433D01*
X1044Y-1442D01*
X1051Y-1447D01*
X1049Y-1452D01*
X675D01*
X668Y-1453D01*
X662Y-1457D01*
X616Y-1504D01*
X612Y-1510D01*
X610Y-1517D01*
Y-1655D01*
X467D01*
X463Y-1645D01*
X454Y-1634D01*
X443Y-1625D01*
X429Y-1619D01*
X415Y-1617D01*
X401Y-1619D01*
X387Y-1625D01*
X376Y-1634D01*
X367Y-1645D01*
X361Y-1659D01*
X359Y-1673D01*
X361Y-1687D01*
X367Y-1701D01*
X376Y-1712D01*
X387Y-1721D01*
X401Y-1727D01*
X415Y-1729D01*
X429Y-1727D01*
X443Y-1721D01*
X454Y-1712D01*
X463Y-1701D01*
X467Y-1691D01*
X610D01*
Y-1728D01*
X603Y-1731D01*
X592Y-1739D01*
X584Y-1750D01*
X579Y-1762D01*
X577Y-1775D01*
X579Y-1789D01*
X584Y-1801D01*
X592Y-1812D01*
X603Y-1820D01*
X615Y-1825D01*
X628Y-1827D01*
X642Y-1825D01*
X654Y-1820D01*
X665Y-1812D01*
X673Y-1801D01*
X678Y-1789D01*
X680Y-1775D01*
X678Y-1762D01*
X673Y-1750D01*
X665Y-1739D01*
X654Y-1731D01*
X647Y-1728D01*
Y-1524D01*
X682Y-1488D01*
X794D01*
Y-1505D01*
X777D01*
X770Y-1506D01*
X764Y-1510D01*
X737Y-1537D01*
X733Y-1543D01*
X732Y-1550D01*
Y-1803D01*
X693Y-1842D01*
X377D01*
X335Y-1799D01*
Y-1528D01*
X344Y-1524D01*
X356Y-1515D01*
X365Y-1504D01*
X370Y-1491D01*
X372Y-1476D01*
X370Y-1462D01*
X365Y-1448D01*
X356Y-1437D01*
X344Y-1428D01*
X331Y-1422D01*
X317Y-1421D01*
X302Y-1422D01*
X289Y-1428D01*
X277Y-1437D01*
X268Y-1448D01*
X263Y-1462D01*
X261Y-1476D01*
X263Y-1491D01*
X268Y-1504D01*
X277Y-1515D01*
X289Y-1524D01*
X299Y-1528D01*
Y-1807D01*
X300Y-1813D01*
X304Y-1819D01*
X357Y-1873D01*
X363Y-1877D01*
X370Y-1878D01*
X700D01*
X707Y-1877D01*
X713Y-1873D01*
X763Y-1823D01*
X767Y-1817D01*
X768Y-1810D01*
Y-1557D01*
X784Y-1541D01*
X794D01*
Y-1566D01*
X896D01*
Y-1541D01*
X1157D01*
Y-1656D01*
X1153Y-1657D01*
X1144Y-1664D01*
X1137Y-1673D01*
X1133Y-1684D01*
X1131Y-1695D01*
Y-1711D01*
X1133Y-1722D01*
X1137Y-1733D01*
X1144Y-1742D01*
X1153Y-1749D01*
X1164Y-1753D01*
X1175Y-1755D01*
X1186Y-1753D01*
X1197Y-1749D01*
X1206Y-1742D01*
X1213Y-1733D01*
X1217Y-1722D01*
X1219Y-1711D01*
Y-1695D01*
X1217Y-1684D01*
X1213Y-1673D01*
X1206Y-1664D01*
X1197Y-1657D01*
X1193Y-1656D01*
Y-1541D01*
X1237D01*
X1244Y-1540D01*
X1250Y-1536D01*
X1288Y-1498D01*
X1292Y-1492D01*
X1293Y-1485D01*
Y-1450D01*
X1297Y-1449D01*
X1306Y-1442D01*
X1313Y-1433D01*
X1317Y-1422D01*
X1319Y-1411D01*
Y-1395D01*
X1317Y-1384D01*
X1313Y-1373D01*
X1306Y-1364D01*
X1297Y-1357D01*
X1286Y-1353D01*
X1275Y-1351D01*
X1264Y-1353D01*
X1253Y-1357D01*
X1244Y-1364D01*
X1237Y-1373D01*
X1233Y-1384D01*
X1231Y-1395D01*
Y-1411D01*
X1233Y-1422D01*
X1237Y-1433D01*
X1244Y-1442D01*
X1253Y-1449D01*
X1257Y-1450D01*
Y-1478D01*
X1230Y-1505D01*
X896D01*
Y-1488D01*
X1150D01*
X1157Y-1487D01*
X1163Y-1483D01*
X1188Y-1458D01*
X1192Y-1452D01*
X1192Y-1451D01*
X1197Y-1449D01*
X1206Y-1442D01*
X1213Y-1433D01*
X1217Y-1422D01*
X1219Y-1411D01*
Y-1395D01*
X1217Y-1384D01*
X1213Y-1373D01*
X1206Y-1364D01*
X1197Y-1357D01*
X1186Y-1353D01*
X1175Y-1351D01*
X1164Y-1353D01*
X1153Y-1357D01*
X1144Y-1364D01*
X1137Y-1373D01*
X1133Y-1384D01*
X1131Y-1395D01*
Y-1411D01*
X1133Y-1422D01*
X1137Y-1433D01*
X1144Y-1442D01*
X1146Y-1443D01*
X1146Y-1448D01*
X1143Y-1452D01*
X1101D01*
X1099Y-1447D01*
X1106Y-1442D01*
X1113Y-1433D01*
X1117Y-1422D01*
X1119Y-1411D01*
Y-1395D01*
X1117Y-1384D01*
X1113Y-1373D01*
X1106Y-1364D01*
X1097Y-1357D01*
X1086Y-1353D01*
X1075Y-1351D01*
X1064Y-1353D01*
X1053Y-1357D01*
X1044Y-1364D01*
X1037Y-1373D01*
X1034Y-1381D01*
X722D01*
X701Y-1360D01*
X694Y-1355D01*
X685Y-1353D01*
X675D01*
X673Y-1350D01*
X665Y-1339D01*
X654Y-1331D01*
X642Y-1326D01*
X628Y-1324D01*
D02*
G37*
G36*
X6835Y-1911D02*
Y-1955D01*
X6872D01*
Y-1952D01*
X6870Y-1941D01*
X6866Y-1931D01*
X6860Y-1923D01*
X6851Y-1916D01*
X6841Y-1912D01*
X6835Y-1911D01*
D02*
G37*
G36*
X3902Y-1736D02*
X3888Y-1738D01*
X3876Y-1743D01*
X3865Y-1751D01*
X3857Y-1762D01*
X3852Y-1774D01*
X3850Y-1788D01*
X3852Y-1801D01*
X3857Y-1813D01*
X3865Y-1824D01*
X3876Y-1832D01*
X3888Y-1837D01*
X3902Y-1839D01*
X3915Y-1837D01*
X3927Y-1832D01*
X3938Y-1824D01*
X3946Y-1813D01*
X3951Y-1801D01*
X3953Y-1788D01*
X3951Y-1774D01*
X3946Y-1762D01*
X3938Y-1751D01*
X3927Y-1743D01*
X3915Y-1738D01*
X3902Y-1736D01*
D02*
G37*
G36*
X4760Y-1728D02*
X4747Y-1730D01*
X4734Y-1735D01*
X4723Y-1743D01*
X4715Y-1754D01*
X4710Y-1767D01*
X4708Y-1780D01*
X4710Y-1793D01*
X4715Y-1806D01*
X4723Y-1817D01*
X4734Y-1825D01*
X4747Y-1830D01*
X4760Y-1832D01*
X4773Y-1830D01*
X4786Y-1825D01*
X4797Y-1817D01*
X4805Y-1806D01*
X4810Y-1793D01*
X4812Y-1780D01*
X4810Y-1767D01*
X4805Y-1754D01*
X4797Y-1743D01*
X4786Y-1735D01*
X4773Y-1730D01*
X4760Y-1728D01*
D02*
G37*
G36*
X4968Y-1731D02*
X4955Y-1733D01*
X4943Y-1738D01*
X4932Y-1746D01*
X4924Y-1757D01*
X4919Y-1769D01*
X4917Y-1782D01*
X4919Y-1796D01*
X4924Y-1808D01*
X4932Y-1819D01*
X4943Y-1827D01*
X4955Y-1832D01*
X4968Y-1834D01*
X4982Y-1832D01*
X4994Y-1827D01*
X5005Y-1819D01*
X5013Y-1808D01*
X5018Y-1796D01*
X5020Y-1782D01*
X5018Y-1769D01*
X5013Y-1757D01*
X5005Y-1746D01*
X4994Y-1738D01*
X4982Y-1733D01*
X4968Y-1731D01*
D02*
G37*
G36*
X6825Y-1911D02*
X6819Y-1912D01*
X6809Y-1916D01*
X6800Y-1923D01*
X6794Y-1931D01*
X6790Y-1941D01*
X6788Y-1952D01*
Y-1955D01*
X6825D01*
Y-1911D01*
D02*
G37*
G36*
X6930Y-1908D02*
X6919Y-1910D01*
X6908Y-1914D01*
X6899Y-1921D01*
X6892Y-1930D01*
X6888Y-1941D01*
X6886Y-1952D01*
Y-1968D01*
X6888Y-1979D01*
X6892Y-1990D01*
X6899Y-1999D01*
X6908Y-2006D01*
X6919Y-2010D01*
X6930Y-2012D01*
X6941Y-2010D01*
X6952Y-2006D01*
X6961Y-1999D01*
X6968Y-1990D01*
X6972Y-1979D01*
X6974Y-1968D01*
Y-1952D01*
X6972Y-1941D01*
X6968Y-1930D01*
X6961Y-1921D01*
X6952Y-1914D01*
X6941Y-1910D01*
X6930Y-1908D01*
D02*
G37*
G36*
X6730D02*
X6719Y-1910D01*
X6708Y-1914D01*
X6699Y-1921D01*
X6692Y-1930D01*
X6688Y-1941D01*
X6686Y-1952D01*
Y-1968D01*
X6688Y-1979D01*
X6692Y-1990D01*
X6699Y-1999D01*
X6708Y-2006D01*
X6719Y-2010D01*
X6730Y-2012D01*
X6741Y-2010D01*
X6752Y-2006D01*
X6761Y-1999D01*
X6768Y-1990D01*
X6772Y-1979D01*
X6774Y-1968D01*
Y-1952D01*
X6772Y-1941D01*
X6768Y-1930D01*
X6761Y-1921D01*
X6752Y-1914D01*
X6741Y-1910D01*
X6730Y-1908D01*
D02*
G37*
G36*
X7030D02*
X7019Y-1910D01*
X7008Y-1914D01*
X6999Y-1921D01*
X6992Y-1930D01*
X6988Y-1941D01*
X6986Y-1952D01*
Y-1968D01*
X6988Y-1979D01*
X6992Y-1990D01*
X6999Y-1999D01*
X7008Y-2006D01*
X7019Y-2010D01*
X7030Y-2012D01*
X7041Y-2010D01*
X7052Y-2006D01*
X7061Y-1999D01*
X7068Y-1990D01*
X7072Y-1979D01*
X7074Y-1968D01*
Y-1952D01*
X7072Y-1941D01*
X7068Y-1930D01*
X7061Y-1921D01*
X7052Y-1914D01*
X7041Y-1910D01*
X7030Y-1908D01*
D02*
G37*
G36*
X6872Y-1965D02*
X6835D01*
Y-2009D01*
X6841Y-2008D01*
X6851Y-2004D01*
X6860Y-1997D01*
X6866Y-1989D01*
X6870Y-1979D01*
X6872Y-1968D01*
Y-1965D01*
D02*
G37*
G36*
X6825D02*
X6788D01*
Y-1968D01*
X6790Y-1979D01*
X6794Y-1989D01*
X6800Y-1997D01*
X6809Y-2004D01*
X6819Y-2008D01*
X6825Y-2009D01*
Y-1965D01*
D02*
G37*
G36*
X2090Y-1658D02*
X2079Y-1660D01*
X2068Y-1664D01*
X2059Y-1671D01*
X2052Y-1680D01*
X2048Y-1691D01*
X2046Y-1702D01*
Y-1718D01*
X2048Y-1729D01*
X2052Y-1740D01*
X2059Y-1749D01*
X2068Y-1756D01*
X2079Y-1760D01*
X2090Y-1762D01*
X2101Y-1760D01*
X2112Y-1756D01*
X2121Y-1749D01*
X2128Y-1740D01*
X2132Y-1729D01*
X2134Y-1718D01*
Y-1702D01*
X2132Y-1691D01*
X2128Y-1680D01*
X2121Y-1671D01*
X2112Y-1664D01*
X2101Y-1660D01*
X2090Y-1658D01*
D02*
G37*
G36*
X3260D02*
X3249Y-1660D01*
X3238Y-1664D01*
X3229Y-1671D01*
X3222Y-1680D01*
X3218Y-1691D01*
X3216Y-1702D01*
Y-1718D01*
X3218Y-1729D01*
X3222Y-1740D01*
X3229Y-1749D01*
X3238Y-1756D01*
X3249Y-1760D01*
X3260Y-1762D01*
X3271Y-1760D01*
X3282Y-1756D01*
X3291Y-1749D01*
X3298Y-1740D01*
X3302Y-1729D01*
X3304Y-1718D01*
Y-1702D01*
X3302Y-1691D01*
X3298Y-1680D01*
X3291Y-1671D01*
X3282Y-1664D01*
X3271Y-1660D01*
X3260Y-1658D01*
D02*
G37*
G36*
X3160D02*
X3149Y-1660D01*
X3138Y-1664D01*
X3129Y-1671D01*
X3122Y-1680D01*
X3118Y-1691D01*
X3116Y-1702D01*
Y-1718D01*
X3118Y-1729D01*
X3122Y-1740D01*
X3129Y-1749D01*
X3138Y-1756D01*
X3149Y-1760D01*
X3160Y-1762D01*
X3171Y-1760D01*
X3182Y-1756D01*
X3191Y-1749D01*
X3198Y-1740D01*
X3202Y-1729D01*
X3204Y-1718D01*
Y-1702D01*
X3202Y-1691D01*
X3198Y-1680D01*
X3191Y-1671D01*
X3182Y-1664D01*
X3171Y-1660D01*
X3160Y-1658D01*
D02*
G37*
G36*
X3360D02*
X3349Y-1660D01*
X3338Y-1664D01*
X3329Y-1671D01*
X3322Y-1680D01*
X3318Y-1691D01*
X3316Y-1702D01*
Y-1718D01*
X3318Y-1729D01*
X3322Y-1740D01*
X3329Y-1749D01*
X3338Y-1756D01*
X3349Y-1760D01*
X3360Y-1762D01*
X3371Y-1760D01*
X3382Y-1756D01*
X3391Y-1749D01*
X3398Y-1740D01*
X3402Y-1729D01*
X3404Y-1718D01*
Y-1702D01*
X3402Y-1691D01*
X3398Y-1680D01*
X3391Y-1671D01*
X3382Y-1664D01*
X3371Y-1660D01*
X3360Y-1658D01*
D02*
G37*
G36*
X3455Y-1715D02*
X3418D01*
Y-1718D01*
X3420Y-1729D01*
X3424Y-1739D01*
X3430Y-1747D01*
X3439Y-1754D01*
X3449Y-1758D01*
X3455Y-1759D01*
Y-1715D01*
D02*
G37*
G36*
X2803Y-1659D02*
X2717D01*
Y-1761D01*
X2803D01*
Y-1659D01*
D02*
G37*
G36*
X3060Y-1658D02*
X3049Y-1660D01*
X3038Y-1664D01*
X3029Y-1671D01*
X3022Y-1680D01*
X3018Y-1691D01*
X3016Y-1702D01*
Y-1718D01*
X3018Y-1729D01*
X3022Y-1740D01*
X3029Y-1749D01*
X3038Y-1756D01*
X3049Y-1760D01*
X3060Y-1762D01*
X3071Y-1760D01*
X3082Y-1756D01*
X3091Y-1749D01*
X3098Y-1740D01*
X3102Y-1729D01*
X3104Y-1718D01*
Y-1702D01*
X3102Y-1691D01*
X3098Y-1680D01*
X3091Y-1671D01*
X3082Y-1664D01*
X3071Y-1660D01*
X3060Y-1658D01*
D02*
G37*
G36*
X2290D02*
X2279Y-1660D01*
X2268Y-1664D01*
X2259Y-1671D01*
X2252Y-1680D01*
X2248Y-1691D01*
X2246Y-1702D01*
Y-1718D01*
X2248Y-1729D01*
X2252Y-1740D01*
X2259Y-1749D01*
X2268Y-1756D01*
X2279Y-1760D01*
X2290Y-1762D01*
X2301Y-1760D01*
X2312Y-1756D01*
X2321Y-1749D01*
X2328Y-1740D01*
X2332Y-1729D01*
X2334Y-1718D01*
Y-1702D01*
X2332Y-1691D01*
X2328Y-1680D01*
X2321Y-1671D01*
X2312Y-1664D01*
X2301Y-1660D01*
X2290Y-1658D01*
D02*
G37*
G36*
X2190D02*
X2179Y-1660D01*
X2168Y-1664D01*
X2159Y-1671D01*
X2152Y-1680D01*
X2148Y-1691D01*
X2146Y-1702D01*
Y-1718D01*
X2148Y-1729D01*
X2152Y-1740D01*
X2159Y-1749D01*
X2168Y-1756D01*
X2179Y-1760D01*
X2190Y-1762D01*
X2201Y-1760D01*
X2212Y-1756D01*
X2221Y-1749D01*
X2228Y-1740D01*
X2232Y-1729D01*
X2234Y-1718D01*
Y-1702D01*
X2232Y-1691D01*
X2228Y-1680D01*
X2221Y-1671D01*
X2212Y-1664D01*
X2201Y-1660D01*
X2190Y-1658D01*
D02*
G37*
G36*
X2390D02*
X2379Y-1660D01*
X2368Y-1664D01*
X2359Y-1671D01*
X2352Y-1680D01*
X2348Y-1691D01*
X2346Y-1702D01*
Y-1718D01*
X2348Y-1729D01*
X2352Y-1740D01*
X2359Y-1749D01*
X2368Y-1756D01*
X2379Y-1760D01*
X2390Y-1762D01*
X2401Y-1760D01*
X2412Y-1756D01*
X2421Y-1749D01*
X2428Y-1740D01*
X2432Y-1729D01*
X2434Y-1718D01*
Y-1702D01*
X2432Y-1691D01*
X2428Y-1680D01*
X2421Y-1671D01*
X2412Y-1664D01*
X2401Y-1660D01*
X2390Y-1658D01*
D02*
G37*
G36*
X2960D02*
X2949Y-1660D01*
X2938Y-1664D01*
X2929Y-1671D01*
X2922Y-1680D01*
X2918Y-1691D01*
X2916Y-1702D01*
Y-1718D01*
X2918Y-1729D01*
X2922Y-1740D01*
X2929Y-1749D01*
X2938Y-1756D01*
X2949Y-1760D01*
X2960Y-1762D01*
X2971Y-1760D01*
X2982Y-1756D01*
X2991Y-1749D01*
X2998Y-1740D01*
X3002Y-1729D01*
X3004Y-1718D01*
Y-1702D01*
X3002Y-1691D01*
X2998Y-1680D01*
X2991Y-1671D01*
X2982Y-1664D01*
X2971Y-1660D01*
X2960Y-1658D01*
D02*
G37*
G36*
X2860D02*
X2849Y-1660D01*
X2838Y-1664D01*
X2829Y-1671D01*
X2822Y-1680D01*
X2818Y-1691D01*
X2816Y-1702D01*
Y-1718D01*
X2818Y-1729D01*
X2822Y-1740D01*
X2829Y-1749D01*
X2838Y-1756D01*
X2849Y-1760D01*
X2860Y-1762D01*
X2871Y-1760D01*
X2882Y-1756D01*
X2891Y-1749D01*
X2898Y-1740D01*
X2902Y-1729D01*
X2904Y-1718D01*
Y-1702D01*
X2902Y-1691D01*
X2898Y-1680D01*
X2891Y-1671D01*
X2882Y-1664D01*
X2871Y-1660D01*
X2860Y-1658D01*
D02*
G37*
G36*
X2033Y-1659D02*
X1947D01*
Y-1761D01*
X1972D01*
Y-3143D01*
X1969Y-3144D01*
X1961Y-3151D01*
X1954Y-3159D01*
X1950Y-3169D01*
X1948Y-3180D01*
X1950Y-3191D01*
X1954Y-3201D01*
X1961Y-3209D01*
X1969Y-3216D01*
X1979Y-3220D01*
X1990Y-3222D01*
X2001Y-3220D01*
X2011Y-3216D01*
X2019Y-3209D01*
X2026Y-3201D01*
X2030Y-3191D01*
X2032Y-3180D01*
X2030Y-3169D01*
X2026Y-3159D01*
X2019Y-3151D01*
X2011Y-3144D01*
X2008Y-3143D01*
Y-2748D01*
X2013Y-2747D01*
X2014Y-2748D01*
X2022Y-2759D01*
X2033Y-2767D01*
X2045Y-2772D01*
X2058Y-2774D01*
X2072Y-2772D01*
X2084Y-2767D01*
X2085Y-2766D01*
X2198Y-2879D01*
Y-3600D01*
X2200Y-3608D01*
X2204Y-3616D01*
X2275Y-3686D01*
X2270Y-3697D01*
X2268Y-3710D01*
X2270Y-3723D01*
X2275Y-3736D01*
X2283Y-3747D01*
X2294Y-3755D01*
X2307Y-3760D01*
X2320Y-3762D01*
X2333Y-3760D01*
X2346Y-3755D01*
X2357Y-3747D01*
X2365Y-3736D01*
X2370Y-3723D01*
X2372Y-3710D01*
X2370Y-3697D01*
X2365Y-3684D01*
X2357Y-3673D01*
X2346Y-3665D01*
X2333Y-3660D01*
X2320Y-3658D01*
X2311Y-3660D01*
X2242Y-3591D01*
Y-2870D01*
X2240Y-2862D01*
X2236Y-2854D01*
X2109Y-2728D01*
X2110Y-2722D01*
X2108Y-2709D01*
X2103Y-2697D01*
X2095Y-2686D01*
X2084Y-2678D01*
X2072Y-2673D01*
X2058Y-2671D01*
X2045Y-2673D01*
X2033Y-2678D01*
X2022Y-2686D01*
X2014Y-2697D01*
X2013Y-2698D01*
X2008Y-2697D01*
Y-2348D01*
X2013Y-2347D01*
X2014Y-2348D01*
X2022Y-2359D01*
X2033Y-2367D01*
X2045Y-2372D01*
X2058Y-2374D01*
X2072Y-2372D01*
X2084Y-2367D01*
X2095Y-2359D01*
X2103Y-2348D01*
X2108Y-2336D01*
X2110Y-2322D01*
X2108Y-2309D01*
X2103Y-2297D01*
X2095Y-2286D01*
X2084Y-2278D01*
X2072Y-2273D01*
X2058Y-2271D01*
X2045Y-2273D01*
X2033Y-2278D01*
X2022Y-2286D01*
X2014Y-2297D01*
X2013Y-2298D01*
X2008Y-2297D01*
Y-1761D01*
X2033D01*
Y-1659D01*
D02*
G37*
G36*
X490Y-1948D02*
X479Y-1950D01*
X469Y-1954D01*
X461Y-1961D01*
X454Y-1969D01*
X450Y-1979D01*
X448Y-1990D01*
X450Y-2001D01*
X454Y-2011D01*
X461Y-2019D01*
X469Y-2026D01*
X472Y-2027D01*
Y-2376D01*
X467Y-2378D01*
X462Y-2374D01*
X451Y-2370D01*
X440Y-2368D01*
X429Y-2370D01*
X418Y-2374D01*
X409Y-2381D01*
X402Y-2390D01*
X398Y-2401D01*
X396Y-2412D01*
Y-2428D01*
X398Y-2439D01*
X402Y-2450D01*
X409Y-2459D01*
X418Y-2466D01*
X429Y-2470D01*
X440Y-2472D01*
X451Y-2470D01*
X462Y-2466D01*
X467Y-2462D01*
X472Y-2464D01*
Y-2663D01*
X461Y-2674D01*
X451Y-2670D01*
X440Y-2668D01*
X429Y-2670D01*
X418Y-2674D01*
X409Y-2681D01*
X402Y-2690D01*
X398Y-2701D01*
X396Y-2712D01*
Y-2728D01*
X398Y-2739D01*
X402Y-2750D01*
X409Y-2759D01*
X418Y-2766D01*
X422Y-2767D01*
Y-2860D01*
X423Y-2867D01*
X427Y-2873D01*
X457Y-2903D01*
X463Y-2907D01*
X464Y-2907D01*
X464Y-2912D01*
X287D01*
X258Y-2883D01*
Y-2767D01*
X262Y-2766D01*
X271Y-2759D01*
X278Y-2750D01*
X282Y-2739D01*
X284Y-2728D01*
Y-2712D01*
X282Y-2701D01*
X278Y-2690D01*
X271Y-2681D01*
X262Y-2674D01*
X251Y-2670D01*
X240Y-2668D01*
X229Y-2670D01*
X218Y-2674D01*
X209Y-2681D01*
X202Y-2690D01*
X198Y-2701D01*
X196Y-2712D01*
Y-2728D01*
X198Y-2739D01*
X202Y-2750D01*
X209Y-2759D01*
X218Y-2766D01*
X222Y-2767D01*
Y-2890D01*
X223Y-2897D01*
X227Y-2903D01*
X267Y-2943D01*
X273Y-2947D01*
X280Y-2948D01*
X463D01*
X482Y-2967D01*
Y-4573D01*
X479Y-4574D01*
X471Y-4581D01*
X464Y-4589D01*
X460Y-4599D01*
X458Y-4610D01*
X460Y-4621D01*
X464Y-4631D01*
X471Y-4639D01*
X479Y-4646D01*
X489Y-4650D01*
X500Y-4652D01*
X511Y-4650D01*
X521Y-4646D01*
X529Y-4639D01*
X536Y-4631D01*
X540Y-4621D01*
X542Y-4610D01*
X540Y-4599D01*
X536Y-4589D01*
X529Y-4581D01*
X521Y-4574D01*
X518Y-4573D01*
Y-2960D01*
X517Y-2953D01*
X513Y-2947D01*
X483Y-2917D01*
X477Y-2913D01*
X476Y-2913D01*
X476Y-2908D01*
X593D01*
X622Y-2937D01*
Y-3388D01*
X621Y-3388D01*
X610Y-3392D01*
X601Y-3399D01*
X594Y-3408D01*
X590Y-3419D01*
X588Y-3430D01*
X590Y-3441D01*
X594Y-3452D01*
X601Y-3461D01*
X610Y-3468D01*
X621Y-3472D01*
X632Y-3474D01*
X648D01*
X659Y-3472D01*
X670Y-3468D01*
X679Y-3461D01*
X686Y-3452D01*
X687Y-3448D01*
X1043D01*
X1072Y-3477D01*
Y-3642D01*
X1064Y-3645D01*
X1053Y-3653D01*
X1045Y-3664D01*
X1040Y-3677D01*
X1038Y-3690D01*
X1040Y-3703D01*
X1045Y-3716D01*
X1053Y-3727D01*
X1064Y-3735D01*
X1077Y-3740D01*
X1090Y-3742D01*
X1103Y-3740D01*
X1116Y-3735D01*
X1127Y-3727D01*
X1135Y-3716D01*
X1140Y-3703D01*
X1142Y-3690D01*
X1140Y-3677D01*
X1135Y-3664D01*
X1127Y-3653D01*
X1116Y-3645D01*
X1108Y-3642D01*
Y-3470D01*
X1107Y-3463D01*
X1103Y-3457D01*
X1063Y-3417D01*
X1057Y-3413D01*
X1056Y-3413D01*
X1056Y-3408D01*
X1268D01*
X1282Y-3422D01*
Y-3440D01*
Y-3644D01*
X1273Y-3648D01*
X1262Y-3656D01*
X1254Y-3667D01*
X1249Y-3679D01*
X1247Y-3692D01*
X1249Y-3706D01*
X1254Y-3718D01*
X1262Y-3729D01*
X1273Y-3737D01*
X1285Y-3742D01*
X1298Y-3744D01*
X1312Y-3742D01*
X1324Y-3737D01*
X1335Y-3729D01*
X1343Y-3718D01*
X1348Y-3706D01*
X1350Y-3692D01*
X1348Y-3679D01*
X1343Y-3667D01*
X1335Y-3656D01*
X1324Y-3648D01*
X1318Y-3645D01*
Y-3458D01*
X1513D01*
X1514Y-3462D01*
X1521Y-3471D01*
X1530Y-3478D01*
X1541Y-3482D01*
X1552Y-3484D01*
X1568D01*
X1579Y-3482D01*
X1590Y-3478D01*
X1599Y-3471D01*
X1606Y-3462D01*
X1610Y-3451D01*
X1612Y-3440D01*
X1610Y-3429D01*
X1606Y-3418D01*
X1599Y-3409D01*
X1590Y-3402D01*
X1579Y-3398D01*
X1568Y-3396D01*
X1552D01*
X1541Y-3398D01*
X1530Y-3402D01*
X1521Y-3409D01*
X1514Y-3418D01*
X1513Y-3422D01*
X1318D01*
Y-3415D01*
X1317Y-3408D01*
X1313Y-3402D01*
X1288Y-3377D01*
X1282Y-3373D01*
X1275Y-3372D01*
X925D01*
X908Y-3355D01*
Y-3338D01*
X916Y-3335D01*
X927Y-3327D01*
X935Y-3316D01*
X940Y-3303D01*
X942Y-3290D01*
X940Y-3277D01*
X935Y-3264D01*
X927Y-3253D01*
X916Y-3245D01*
X908Y-3242D01*
Y-3117D01*
X911Y-3116D01*
X919Y-3109D01*
X926Y-3101D01*
X930Y-3091D01*
X932Y-3080D01*
X930Y-3069D01*
X926Y-3059D01*
X919Y-3051D01*
X911Y-3044D01*
X901Y-3040D01*
X890Y-3038D01*
X879Y-3040D01*
X869Y-3044D01*
X861Y-3051D01*
X854Y-3059D01*
X850Y-3069D01*
X848Y-3080D01*
X850Y-3091D01*
X854Y-3101D01*
X861Y-3109D01*
X869Y-3116D01*
X872Y-3117D01*
Y-3242D01*
X864Y-3245D01*
X853Y-3253D01*
X845Y-3264D01*
X840Y-3277D01*
X838Y-3290D01*
X840Y-3303D01*
X845Y-3316D01*
X853Y-3327D01*
X864Y-3335D01*
X872Y-3338D01*
Y-3363D01*
X873Y-3369D01*
X877Y-3375D01*
X905Y-3403D01*
X911Y-3407D01*
X912Y-3407D01*
X911Y-3412D01*
X687D01*
X686Y-3408D01*
X679Y-3399D01*
X670Y-3392D01*
X659Y-3388D01*
X658Y-3388D01*
Y-2930D01*
X657Y-2923D01*
X653Y-2917D01*
X613Y-2877D01*
X607Y-2873D01*
X600Y-2872D01*
X477D01*
X458Y-2853D01*
Y-2767D01*
X462Y-2766D01*
X471Y-2759D01*
X478Y-2750D01*
X482Y-2739D01*
X484Y-2728D01*
Y-2712D01*
X482Y-2703D01*
X503Y-2683D01*
X507Y-2677D01*
X508Y-2670D01*
Y-2464D01*
X513Y-2462D01*
X518Y-2466D01*
X529Y-2470D01*
X540Y-2472D01*
X551Y-2470D01*
X562Y-2466D01*
X571Y-2459D01*
X578Y-2450D01*
X582Y-2439D01*
X584Y-2428D01*
Y-2412D01*
X582Y-2401D01*
X578Y-2390D01*
X571Y-2381D01*
X562Y-2374D01*
X551Y-2370D01*
X540Y-2368D01*
X529Y-2370D01*
X518Y-2374D01*
X513Y-2378D01*
X508Y-2376D01*
Y-2027D01*
X511Y-2026D01*
X519Y-2019D01*
X526Y-2011D01*
X530Y-2001D01*
X532Y-1990D01*
X530Y-1979D01*
X526Y-1969D01*
X519Y-1961D01*
X511Y-1954D01*
X501Y-1950D01*
X490Y-1948D01*
D02*
G37*
G36*
X3225Y-2281D02*
X3217Y-2282D01*
X3205Y-2287D01*
X3195Y-2295D01*
X3187Y-2305D01*
X3182Y-2317D01*
X3181Y-2325D01*
X3225D01*
Y-2281D01*
D02*
G37*
G36*
X6630Y-2208D02*
X6619Y-2210D01*
X6608Y-2214D01*
X6599Y-2221D01*
X6592Y-2230D01*
X6588Y-2241D01*
X6586Y-2252D01*
Y-2268D01*
X6588Y-2279D01*
X6592Y-2290D01*
X6599Y-2299D01*
X6608Y-2306D01*
X6619Y-2310D01*
X6630Y-2312D01*
X6641Y-2310D01*
X6652Y-2306D01*
X6661Y-2299D01*
X6668Y-2290D01*
X6672Y-2279D01*
X6674Y-2268D01*
Y-2252D01*
X6672Y-2241D01*
X6668Y-2230D01*
X6661Y-2221D01*
X6652Y-2214D01*
X6641Y-2210D01*
X6630Y-2208D01*
D02*
G37*
G36*
X3235Y-2281D02*
Y-2325D01*
X3279D01*
X3278Y-2317D01*
X3273Y-2305D01*
X3265Y-2295D01*
X3255Y-2287D01*
X3243Y-2282D01*
X3235Y-2281D01*
D02*
G37*
G36*
X3279Y-2335D02*
X3235D01*
Y-2379D01*
X3243Y-2378D01*
X3255Y-2373D01*
X3265Y-2365D01*
X3273Y-2355D01*
X3278Y-2343D01*
X3279Y-2335D01*
D02*
G37*
G36*
X5920Y-2298D02*
X5909Y-2300D01*
X5898Y-2304D01*
X5889Y-2311D01*
X5882Y-2320D01*
X5878Y-2331D01*
X5876Y-2342D01*
Y-2358D01*
X5878Y-2369D01*
X5882Y-2380D01*
X5889Y-2389D01*
X5898Y-2396D01*
X5909Y-2400D01*
X5920Y-2402D01*
X5931Y-2400D01*
X5942Y-2396D01*
X5951Y-2389D01*
X5958Y-2380D01*
X5962Y-2369D01*
X5964Y-2358D01*
Y-2342D01*
X5962Y-2331D01*
X5958Y-2320D01*
X5951Y-2311D01*
X5942Y-2304D01*
X5931Y-2300D01*
X5920Y-2298D01*
D02*
G37*
G36*
X5820D02*
X5809Y-2300D01*
X5798Y-2304D01*
X5789Y-2311D01*
X5782Y-2320D01*
X5778Y-2331D01*
X5776Y-2342D01*
Y-2358D01*
X5778Y-2369D01*
X5782Y-2380D01*
X5789Y-2389D01*
X5798Y-2396D01*
X5809Y-2400D01*
X5820Y-2402D01*
X5831Y-2400D01*
X5842Y-2396D01*
X5851Y-2389D01*
X5858Y-2380D01*
X5862Y-2369D01*
X5864Y-2358D01*
Y-2342D01*
X5862Y-2331D01*
X5858Y-2320D01*
X5851Y-2311D01*
X5842Y-2304D01*
X5831Y-2300D01*
X5820Y-2298D01*
D02*
G37*
G36*
X3038Y-2281D02*
X3025Y-2283D01*
X3013Y-2288D01*
X3002Y-2296D01*
X2994Y-2307D01*
X2989Y-2319D01*
X2987Y-2332D01*
X2989Y-2346D01*
X2994Y-2358D01*
X3002Y-2369D01*
X3013Y-2377D01*
X3025Y-2382D01*
X3038Y-2384D01*
X3052Y-2382D01*
X3064Y-2377D01*
X3075Y-2369D01*
X3083Y-2358D01*
X3088Y-2346D01*
X3090Y-2332D01*
X3088Y-2319D01*
X3083Y-2307D01*
X3075Y-2296D01*
X3064Y-2288D01*
X3052Y-2283D01*
X3038Y-2281D01*
D02*
G37*
G36*
X3225Y-2335D02*
X3181D01*
X3182Y-2343D01*
X3187Y-2355D01*
X3195Y-2365D01*
X3205Y-2373D01*
X3217Y-2378D01*
X3225Y-2379D01*
Y-2335D01*
D02*
G37*
G36*
X2870Y-2278D02*
X2857Y-2280D01*
X2844Y-2285D01*
X2833Y-2293D01*
X2825Y-2304D01*
X2820Y-2317D01*
X2818Y-2330D01*
X2820Y-2343D01*
X2825Y-2356D01*
X2833Y-2367D01*
X2844Y-2375D01*
X2857Y-2380D01*
X2870Y-2382D01*
X2883Y-2380D01*
X2896Y-2375D01*
X2907Y-2367D01*
X2915Y-2356D01*
X2920Y-2343D01*
X2922Y-2330D01*
X2920Y-2317D01*
X2915Y-2304D01*
X2907Y-2293D01*
X2896Y-2285D01*
X2883Y-2280D01*
X2870Y-2278D01*
D02*
G37*
G36*
X6730Y-2208D02*
X6719Y-2210D01*
X6708Y-2214D01*
X6699Y-2221D01*
X6692Y-2230D01*
X6688Y-2241D01*
X6686Y-2252D01*
Y-2268D01*
X6688Y-2279D01*
X6692Y-2290D01*
X6699Y-2299D01*
X6708Y-2306D01*
X6719Y-2310D01*
X6730Y-2312D01*
X6741Y-2310D01*
X6752Y-2306D01*
X6761Y-2299D01*
X6768Y-2290D01*
X6772Y-2279D01*
X6774Y-2268D01*
Y-2252D01*
X6772Y-2241D01*
X6768Y-2230D01*
X6761Y-2221D01*
X6752Y-2214D01*
X6741Y-2210D01*
X6730Y-2208D01*
D02*
G37*
G36*
X7025Y-2211D02*
X7019Y-2212D01*
X7009Y-2216D01*
X7000Y-2223D01*
X6994Y-2231D01*
X6990Y-2241D01*
X6988Y-2252D01*
Y-2255D01*
X7025D01*
Y-2211D01*
D02*
G37*
G36*
X6935D02*
Y-2255D01*
X6972D01*
Y-2252D01*
X6970Y-2241D01*
X6966Y-2231D01*
X6960Y-2223D01*
X6951Y-2216D01*
X6941Y-2212D01*
X6935Y-2211D01*
D02*
G37*
G36*
X7035D02*
Y-2255D01*
X7072D01*
Y-2252D01*
X7070Y-2241D01*
X7066Y-2231D01*
X7060Y-2223D01*
X7051Y-2216D01*
X7041Y-2212D01*
X7035Y-2211D01*
D02*
G37*
G36*
X6530Y-1908D02*
X6519Y-1910D01*
X6508Y-1914D01*
X6499Y-1921D01*
X6492Y-1930D01*
X6488Y-1941D01*
X6486Y-1952D01*
Y-1968D01*
X6488Y-1979D01*
X6492Y-1990D01*
X6499Y-1999D01*
X6508Y-2006D01*
X6519Y-2010D01*
X6530Y-2012D01*
X6541Y-2010D01*
X6552Y-2006D01*
X6561Y-1999D01*
X6568Y-1990D01*
X6572Y-1979D01*
X6574Y-1968D01*
Y-1952D01*
X6572Y-1941D01*
X6568Y-1930D01*
X6561Y-1921D01*
X6552Y-1914D01*
X6541Y-1910D01*
X6530Y-1908D01*
D02*
G37*
G36*
X6430D02*
X6419Y-1910D01*
X6408Y-1914D01*
X6399Y-1921D01*
X6392Y-1930D01*
X6388Y-1941D01*
X6386Y-1952D01*
Y-1968D01*
X6388Y-1979D01*
X6392Y-1990D01*
X6399Y-1999D01*
X6408Y-2006D01*
X6419Y-2010D01*
X6430Y-2012D01*
X6441Y-2010D01*
X6452Y-2006D01*
X6461Y-1999D01*
X6468Y-1990D01*
X6472Y-1979D01*
X6474Y-1968D01*
Y-1952D01*
X6472Y-1941D01*
X6468Y-1930D01*
X6461Y-1921D01*
X6452Y-1914D01*
X6441Y-1910D01*
X6430Y-1908D01*
D02*
G37*
G36*
X6925Y-2211D02*
X6919Y-2212D01*
X6909Y-2216D01*
X6900Y-2223D01*
X6894Y-2231D01*
X6890Y-2241D01*
X6888Y-2252D01*
Y-2255D01*
X6925D01*
Y-2211D01*
D02*
G37*
G36*
Y-2265D02*
X6888D01*
Y-2268D01*
X6890Y-2279D01*
X6894Y-2289D01*
X6900Y-2297D01*
X6909Y-2304D01*
X6919Y-2308D01*
X6925Y-2309D01*
Y-2265D01*
D02*
G37*
G36*
X6600Y-1842D02*
X6240D01*
X6233Y-1843D01*
X6227Y-1847D01*
X6197Y-1877D01*
X6193Y-1883D01*
X6192Y-1890D01*
Y-2223D01*
X6173Y-2242D01*
X5330D01*
X5323Y-2243D01*
X5317Y-2247D01*
X5307Y-2257D01*
X5303Y-2263D01*
X5302Y-2270D01*
Y-2303D01*
X5298Y-2304D01*
X5289Y-2311D01*
X5282Y-2320D01*
X5278Y-2331D01*
X5276Y-2342D01*
Y-2358D01*
X5278Y-2369D01*
X5282Y-2380D01*
X5289Y-2389D01*
X5298Y-2396D01*
X5309Y-2400D01*
X5320Y-2402D01*
X5331Y-2400D01*
X5342Y-2396D01*
X5351Y-2389D01*
X5358Y-2380D01*
X5362Y-2369D01*
X5364Y-2358D01*
Y-2342D01*
X5362Y-2331D01*
X5358Y-2320D01*
X5351Y-2311D01*
X5342Y-2304D01*
X5338Y-2303D01*
Y-2278D01*
X6180D01*
X6187Y-2277D01*
X6193Y-2273D01*
X6223Y-2243D01*
X6227Y-2237D01*
X6228Y-2230D01*
Y-2010D01*
X6233Y-2009D01*
X6234Y-2011D01*
X6241Y-2019D01*
X6249Y-2026D01*
X6252Y-2027D01*
Y-2330D01*
X6253Y-2337D01*
X6257Y-2343D01*
X6297Y-2383D01*
X6303Y-2387D01*
X6310Y-2388D01*
X6500D01*
X6507Y-2387D01*
X6513Y-2383D01*
X6543Y-2353D01*
X6547Y-2347D01*
X6548Y-2340D01*
Y-2307D01*
X6552Y-2306D01*
X6561Y-2299D01*
X6568Y-2290D01*
X6572Y-2279D01*
X6574Y-2268D01*
Y-2252D01*
X6572Y-2241D01*
X6568Y-2230D01*
X6561Y-2221D01*
X6552Y-2214D01*
X6541Y-2210D01*
X6530Y-2208D01*
X6519Y-2210D01*
X6508Y-2214D01*
X6499Y-2221D01*
X6492Y-2230D01*
X6488Y-2241D01*
X6486Y-2252D01*
Y-2268D01*
X6488Y-2279D01*
X6492Y-2290D01*
X6499Y-2299D01*
X6508Y-2306D01*
X6512Y-2307D01*
Y-2333D01*
X6493Y-2352D01*
X6317D01*
X6288Y-2323D01*
Y-2027D01*
X6291Y-2026D01*
X6299Y-2019D01*
X6306Y-2011D01*
X6310Y-2001D01*
X6312Y-1990D01*
X6310Y-1979D01*
X6306Y-1969D01*
X6299Y-1961D01*
X6291Y-1954D01*
X6281Y-1950D01*
X6270Y-1948D01*
X6259Y-1950D01*
X6249Y-1954D01*
X6241Y-1961D01*
X6234Y-1969D01*
X6233Y-1971D01*
X6228Y-1970D01*
Y-1897D01*
X6247Y-1878D01*
X6593D01*
X6612Y-1897D01*
Y-1913D01*
X6608Y-1914D01*
X6599Y-1921D01*
X6592Y-1930D01*
X6588Y-1941D01*
X6586Y-1952D01*
Y-1968D01*
X6588Y-1979D01*
X6592Y-1990D01*
X6599Y-1999D01*
X6608Y-2006D01*
X6612Y-2007D01*
Y-2063D01*
X6583Y-2092D01*
X6460D01*
X6453Y-2093D01*
X6447Y-2097D01*
X6417Y-2127D01*
X6413Y-2133D01*
X6412Y-2140D01*
Y-2209D01*
X6387D01*
Y-2311D01*
X6473D01*
Y-2209D01*
X6448D01*
Y-2147D01*
X6467Y-2128D01*
X6590D01*
X6597Y-2127D01*
X6603Y-2123D01*
X6643Y-2083D01*
X6647Y-2077D01*
X6648Y-2070D01*
Y-2007D01*
X6652Y-2006D01*
X6661Y-1999D01*
X6668Y-1990D01*
X6672Y-1979D01*
X6674Y-1968D01*
Y-1952D01*
X6672Y-1941D01*
X6668Y-1930D01*
X6661Y-1921D01*
X6652Y-1914D01*
X6648Y-1913D01*
Y-1890D01*
X6647Y-1883D01*
X6643Y-1877D01*
X6613Y-1847D01*
X6607Y-1843D01*
X6600Y-1842D01*
D02*
G37*
G36*
X6972Y-2265D02*
X6935D01*
Y-2309D01*
X6941Y-2308D01*
X6951Y-2304D01*
X6960Y-2297D01*
X6966Y-2289D01*
X6970Y-2279D01*
X6972Y-2268D01*
Y-2265D01*
D02*
G37*
G36*
X7072D02*
X7035D01*
Y-2309D01*
X7041Y-2308D01*
X7051Y-2304D01*
X7060Y-2297D01*
X7066Y-2289D01*
X7070Y-2279D01*
X7072Y-2268D01*
Y-2265D01*
D02*
G37*
G36*
X7025D02*
X6988D01*
Y-2268D01*
X6990Y-2279D01*
X6994Y-2289D01*
X7000Y-2297D01*
X7009Y-2304D01*
X7019Y-2308D01*
X7025Y-2309D01*
Y-2265D01*
D02*
G37*
G36*
X6820Y-1398D02*
X6809Y-1400D01*
X6798Y-1404D01*
X6789Y-1411D01*
X6782Y-1420D01*
X6778Y-1431D01*
X6776Y-1442D01*
Y-1458D01*
X6778Y-1469D01*
X6782Y-1480D01*
X6789Y-1489D01*
X6798Y-1496D01*
X6809Y-1500D01*
X6820Y-1502D01*
X6831Y-1500D01*
X6842Y-1496D01*
X6851Y-1489D01*
X6858Y-1480D01*
X6862Y-1469D01*
X6864Y-1458D01*
Y-1442D01*
X6862Y-1431D01*
X6858Y-1420D01*
X6851Y-1411D01*
X6842Y-1404D01*
X6831Y-1400D01*
X6820Y-1398D01*
D02*
G37*
G36*
X6720D02*
X6709Y-1400D01*
X6698Y-1404D01*
X6689Y-1411D01*
X6682Y-1420D01*
X6678Y-1431D01*
X6676Y-1442D01*
Y-1458D01*
X6678Y-1469D01*
X6682Y-1480D01*
X6689Y-1489D01*
X6698Y-1496D01*
X6709Y-1500D01*
X6720Y-1502D01*
X6731Y-1500D01*
X6742Y-1496D01*
X6751Y-1489D01*
X6758Y-1480D01*
X6762Y-1469D01*
X6764Y-1458D01*
Y-1442D01*
X6762Y-1431D01*
X6758Y-1420D01*
X6751Y-1411D01*
X6742Y-1404D01*
X6731Y-1400D01*
X6720Y-1398D01*
D02*
G37*
G36*
X6563Y-1399D02*
X6477D01*
Y-1501D01*
X6563D01*
Y-1399D01*
D02*
G37*
G36*
X4538Y-1467D02*
X4505D01*
Y-1500D01*
X4538D01*
Y-1467D01*
D02*
G37*
G36*
X4495D02*
X4462D01*
Y-1500D01*
X4495D01*
Y-1467D01*
D02*
G37*
G36*
X6620Y-1398D02*
X6609Y-1400D01*
X6598Y-1404D01*
X6589Y-1411D01*
X6582Y-1420D01*
X6578Y-1431D01*
X6576Y-1442D01*
Y-1458D01*
X6578Y-1469D01*
X6582Y-1480D01*
X6589Y-1489D01*
X6598Y-1496D01*
X6609Y-1500D01*
X6620Y-1502D01*
X6631Y-1500D01*
X6642Y-1496D01*
X6651Y-1489D01*
X6658Y-1480D01*
X6662Y-1469D01*
X6664Y-1458D01*
Y-1442D01*
X6662Y-1431D01*
X6658Y-1420D01*
X6651Y-1411D01*
X6642Y-1404D01*
X6631Y-1400D01*
X6620Y-1398D01*
D02*
G37*
G36*
X4173Y-1529D02*
X4087D01*
Y-1631D01*
X4173D01*
Y-1529D01*
D02*
G37*
G36*
X4230Y-1528D02*
X4219Y-1530D01*
X4208Y-1534D01*
X4199Y-1541D01*
X4192Y-1550D01*
X4188Y-1561D01*
X4186Y-1572D01*
Y-1588D01*
X4188Y-1599D01*
X4192Y-1610D01*
X4199Y-1619D01*
X4208Y-1626D01*
X4219Y-1630D01*
X4230Y-1632D01*
X4241Y-1630D01*
X4252Y-1626D01*
X4261Y-1619D01*
X4268Y-1610D01*
X4272Y-1599D01*
X4274Y-1588D01*
Y-1572D01*
X4272Y-1561D01*
X4268Y-1550D01*
X4261Y-1541D01*
X4252Y-1534D01*
X4241Y-1530D01*
X4230Y-1528D01*
D02*
G37*
G36*
X840Y-1581D02*
X837D01*
X826Y-1583D01*
X816Y-1587D01*
X808Y-1593D01*
X801Y-1602D01*
X797Y-1612D01*
X796Y-1618D01*
X840D01*
Y-1581D01*
D02*
G37*
G36*
X1375Y-1351D02*
X1364Y-1353D01*
X1353Y-1357D01*
X1344Y-1364D01*
X1337Y-1373D01*
X1333Y-1384D01*
X1331Y-1395D01*
Y-1411D01*
X1333Y-1422D01*
X1337Y-1433D01*
X1344Y-1442D01*
X1353Y-1449D01*
X1364Y-1453D01*
X1375Y-1455D01*
X1386Y-1453D01*
X1397Y-1449D01*
X1406Y-1442D01*
X1413Y-1433D01*
X1417Y-1422D01*
X1417Y-1421D01*
X1498D01*
X1508Y-1432D01*
X1505Y-1440D01*
X1503Y-1453D01*
X1505Y-1466D01*
X1510Y-1479D01*
X1518Y-1490D01*
X1529Y-1498D01*
X1542Y-1503D01*
X1555Y-1505D01*
X1568Y-1503D01*
X1581Y-1498D01*
X1592Y-1490D01*
X1600Y-1479D01*
X1605Y-1466D01*
X1607Y-1453D01*
X1605Y-1440D01*
X1600Y-1427D01*
X1592Y-1416D01*
X1581Y-1408D01*
X1568Y-1403D01*
X1555Y-1401D01*
X1542Y-1403D01*
X1534Y-1406D01*
X1518Y-1390D01*
X1512Y-1386D01*
X1505Y-1385D01*
X1417D01*
X1417Y-1384D01*
X1413Y-1373D01*
X1406Y-1364D01*
X1397Y-1357D01*
X1386Y-1353D01*
X1375Y-1351D01*
D02*
G37*
G36*
X853Y-1581D02*
X850D01*
Y-1618D01*
X894D01*
X893Y-1612D01*
X889Y-1602D01*
X882Y-1593D01*
X874Y-1587D01*
X864Y-1583D01*
X853Y-1581D01*
D02*
G37*
G36*
X1990Y-1358D02*
X1979Y-1360D01*
X1968Y-1364D01*
X1959Y-1371D01*
X1952Y-1380D01*
X1948Y-1391D01*
X1946Y-1402D01*
Y-1418D01*
X1948Y-1429D01*
X1952Y-1440D01*
X1959Y-1449D01*
X1968Y-1456D01*
X1979Y-1460D01*
X1990Y-1462D01*
X2001Y-1460D01*
X2012Y-1456D01*
X2021Y-1449D01*
X2028Y-1440D01*
X2032Y-1429D01*
X2034Y-1418D01*
Y-1402D01*
X2032Y-1391D01*
X2028Y-1380D01*
X2021Y-1371D01*
X2012Y-1364D01*
X2001Y-1360D01*
X1990Y-1358D01*
D02*
G37*
G36*
X3460D02*
X3449Y-1360D01*
X3438Y-1364D01*
X3429Y-1371D01*
X3422Y-1380D01*
X3418Y-1391D01*
X3416Y-1402D01*
Y-1418D01*
X3418Y-1429D01*
X3422Y-1440D01*
X3429Y-1449D01*
X3438Y-1456D01*
X3449Y-1460D01*
X3460Y-1462D01*
X3471Y-1460D01*
X3482Y-1456D01*
X3491Y-1449D01*
X3498Y-1440D01*
X3502Y-1429D01*
X3504Y-1418D01*
Y-1402D01*
X3502Y-1391D01*
X3498Y-1380D01*
X3491Y-1371D01*
X3482Y-1364D01*
X3471Y-1360D01*
X3460Y-1358D01*
D02*
G37*
G36*
X3360D02*
X3349Y-1360D01*
X3338Y-1364D01*
X3329Y-1371D01*
X3322Y-1380D01*
X3318Y-1391D01*
X3316Y-1402D01*
Y-1418D01*
X3318Y-1429D01*
X3322Y-1440D01*
X3329Y-1449D01*
X3338Y-1456D01*
X3349Y-1460D01*
X3360Y-1462D01*
X3371Y-1460D01*
X3382Y-1456D01*
X3391Y-1449D01*
X3398Y-1440D01*
X3402Y-1429D01*
X3404Y-1418D01*
Y-1402D01*
X3402Y-1391D01*
X3398Y-1380D01*
X3391Y-1371D01*
X3382Y-1364D01*
X3371Y-1360D01*
X3360Y-1358D01*
D02*
G37*
G36*
X5250Y-1348D02*
X5239Y-1350D01*
X5228Y-1354D01*
X5219Y-1361D01*
X5212Y-1370D01*
X5208Y-1381D01*
X5206Y-1392D01*
Y-1408D01*
X5208Y-1419D01*
X5212Y-1430D01*
X5219Y-1439D01*
X5228Y-1446D01*
X5239Y-1450D01*
X5250Y-1452D01*
X5261Y-1450D01*
X5272Y-1446D01*
X5281Y-1439D01*
X5288Y-1430D01*
X5292Y-1419D01*
X5294Y-1408D01*
Y-1392D01*
X5292Y-1381D01*
X5288Y-1370D01*
X5281Y-1361D01*
X5272Y-1354D01*
X5261Y-1350D01*
X5250Y-1348D01*
D02*
G37*
G36*
X5650D02*
X5639Y-1350D01*
X5628Y-1354D01*
X5619Y-1361D01*
X5612Y-1370D01*
X5608Y-1381D01*
X5606Y-1392D01*
Y-1408D01*
X5608Y-1419D01*
X5612Y-1430D01*
X5619Y-1439D01*
X5628Y-1446D01*
X5639Y-1450D01*
X5650Y-1452D01*
X5661Y-1450D01*
X5672Y-1446D01*
X5681Y-1439D01*
X5688Y-1430D01*
X5692Y-1419D01*
X5694Y-1408D01*
Y-1392D01*
X5692Y-1381D01*
X5688Y-1370D01*
X5681Y-1361D01*
X5672Y-1354D01*
X5661Y-1350D01*
X5650Y-1348D01*
D02*
G37*
G36*
X5350D02*
X5339Y-1350D01*
X5328Y-1354D01*
X5319Y-1361D01*
X5312Y-1370D01*
X5308Y-1381D01*
X5306Y-1392D01*
Y-1408D01*
X5308Y-1419D01*
X5312Y-1430D01*
X5319Y-1439D01*
X5328Y-1446D01*
X5339Y-1450D01*
X5350Y-1452D01*
X5361Y-1450D01*
X5372Y-1446D01*
X5381Y-1439D01*
X5388Y-1430D01*
X5392Y-1419D01*
X5394Y-1408D01*
Y-1392D01*
X5392Y-1381D01*
X5388Y-1370D01*
X5381Y-1361D01*
X5372Y-1354D01*
X5361Y-1350D01*
X5350Y-1348D01*
D02*
G37*
G36*
X3260Y-1358D02*
X3249Y-1360D01*
X3238Y-1364D01*
X3229Y-1371D01*
X3222Y-1380D01*
X3218Y-1391D01*
X3216Y-1402D01*
Y-1418D01*
X3218Y-1429D01*
X3222Y-1440D01*
X3229Y-1449D01*
X3238Y-1456D01*
X3249Y-1460D01*
X3260Y-1462D01*
X3271Y-1460D01*
X3282Y-1456D01*
X3291Y-1449D01*
X3298Y-1440D01*
X3302Y-1429D01*
X3304Y-1418D01*
Y-1402D01*
X3302Y-1391D01*
X3298Y-1380D01*
X3291Y-1371D01*
X3282Y-1364D01*
X3271Y-1360D01*
X3260Y-1358D01*
D02*
G37*
G36*
X2190D02*
X2179Y-1360D01*
X2168Y-1364D01*
X2159Y-1371D01*
X2152Y-1380D01*
X2148Y-1391D01*
X2146Y-1402D01*
Y-1418D01*
X2148Y-1429D01*
X2152Y-1440D01*
X2159Y-1449D01*
X2168Y-1456D01*
X2179Y-1460D01*
X2190Y-1462D01*
X2201Y-1460D01*
X2212Y-1456D01*
X2221Y-1449D01*
X2228Y-1440D01*
X2232Y-1429D01*
X2234Y-1418D01*
Y-1402D01*
X2232Y-1391D01*
X2228Y-1380D01*
X2221Y-1371D01*
X2212Y-1364D01*
X2201Y-1360D01*
X2190Y-1358D01*
D02*
G37*
G36*
X2090D02*
X2079Y-1360D01*
X2068Y-1364D01*
X2059Y-1371D01*
X2052Y-1380D01*
X2048Y-1391D01*
X2046Y-1402D01*
Y-1418D01*
X2048Y-1429D01*
X2052Y-1440D01*
X2059Y-1449D01*
X2068Y-1456D01*
X2079Y-1460D01*
X2090Y-1462D01*
X2101Y-1460D01*
X2112Y-1456D01*
X2121Y-1449D01*
X2128Y-1440D01*
X2132Y-1429D01*
X2134Y-1418D01*
Y-1402D01*
X2132Y-1391D01*
X2128Y-1380D01*
X2121Y-1371D01*
X2112Y-1364D01*
X2101Y-1360D01*
X2090Y-1358D01*
D02*
G37*
G36*
X2290D02*
X2279Y-1360D01*
X2268Y-1364D01*
X2259Y-1371D01*
X2252Y-1380D01*
X2248Y-1391D01*
X2246Y-1402D01*
Y-1418D01*
X2248Y-1429D01*
X2252Y-1440D01*
X2259Y-1449D01*
X2268Y-1456D01*
X2279Y-1460D01*
X2290Y-1462D01*
X2301Y-1460D01*
X2312Y-1456D01*
X2321Y-1449D01*
X2328Y-1440D01*
X2332Y-1429D01*
X2334Y-1418D01*
Y-1402D01*
X2332Y-1391D01*
X2328Y-1380D01*
X2321Y-1371D01*
X2312Y-1364D01*
X2301Y-1360D01*
X2290Y-1358D01*
D02*
G37*
G36*
X3130Y-1312D02*
X2940D01*
X2933Y-1313D01*
X2927Y-1317D01*
X2897Y-1347D01*
X2893Y-1353D01*
X2892Y-1360D01*
Y-1366D01*
X2887Y-1368D01*
X2882Y-1364D01*
X2871Y-1360D01*
X2860Y-1358D01*
X2849Y-1360D01*
X2838Y-1364D01*
X2829Y-1371D01*
X2822Y-1380D01*
X2818Y-1391D01*
X2816Y-1402D01*
Y-1418D01*
X2818Y-1429D01*
X2822Y-1440D01*
X2829Y-1449D01*
X2838Y-1456D01*
X2842Y-1457D01*
Y-1503D01*
X2826Y-1518D01*
X1834D01*
X1827Y-1520D01*
X1821Y-1524D01*
X1757Y-1587D01*
X1753Y-1593D01*
X1752Y-1600D01*
Y-2203D01*
X1726Y-2228D01*
X1274D01*
X1267Y-2230D01*
X1261Y-2234D01*
X1217Y-2277D01*
X1213Y-2283D01*
X1212Y-2290D01*
Y-2363D01*
X1208Y-2364D01*
X1199Y-2371D01*
X1192Y-2380D01*
X1188Y-2391D01*
X1186Y-2402D01*
Y-2418D01*
X1188Y-2429D01*
X1192Y-2440D01*
X1199Y-2449D01*
X1208Y-2456D01*
X1212Y-2457D01*
Y-2553D01*
X1193Y-2572D01*
X1060D01*
X1053Y-2573D01*
X1047Y-2577D01*
X1017Y-2607D01*
X1013Y-2613D01*
X1012Y-2620D01*
Y-2659D01*
X987D01*
Y-2761D01*
X1073D01*
Y-2659D01*
X1048D01*
Y-2627D01*
X1067Y-2608D01*
X1200D01*
X1207Y-2607D01*
X1213Y-2603D01*
X1243Y-2573D01*
X1247Y-2567D01*
X1248Y-2560D01*
Y-2457D01*
X1252Y-2456D01*
X1261Y-2449D01*
X1268Y-2440D01*
X1272Y-2429D01*
X1274Y-2418D01*
Y-2402D01*
X1272Y-2391D01*
X1268Y-2380D01*
X1261Y-2371D01*
X1252Y-2364D01*
X1248Y-2363D01*
Y-2297D01*
X1281Y-2264D01*
X1333D01*
X1335Y-2269D01*
X1317Y-2287D01*
X1313Y-2293D01*
X1312Y-2300D01*
Y-2363D01*
X1308Y-2364D01*
X1299Y-2371D01*
X1292Y-2380D01*
X1288Y-2391D01*
X1286Y-2402D01*
Y-2418D01*
X1288Y-2429D01*
X1292Y-2440D01*
X1299Y-2449D01*
X1308Y-2456D01*
X1319Y-2460D01*
X1330Y-2462D01*
X1341Y-2460D01*
X1352Y-2456D01*
X1361Y-2449D01*
X1368Y-2440D01*
X1372Y-2429D01*
X1374Y-2418D01*
Y-2402D01*
X1372Y-2391D01*
X1368Y-2380D01*
X1361Y-2371D01*
X1352Y-2364D01*
X1348Y-2363D01*
Y-2307D01*
X1367Y-2288D01*
X1540D01*
X1542Y-2293D01*
X1517Y-2317D01*
X1513Y-2323D01*
X1512Y-2330D01*
Y-2363D01*
X1508Y-2364D01*
X1499Y-2371D01*
X1492Y-2380D01*
X1488Y-2391D01*
X1486Y-2402D01*
Y-2418D01*
X1488Y-2429D01*
X1492Y-2440D01*
X1499Y-2449D01*
X1508Y-2456D01*
X1519Y-2460D01*
X1530Y-2462D01*
X1541Y-2460D01*
X1552Y-2456D01*
X1561Y-2449D01*
X1568Y-2440D01*
X1572Y-2429D01*
X1574Y-2418D01*
Y-2402D01*
X1572Y-2391D01*
X1568Y-2380D01*
X1561Y-2371D01*
X1552Y-2364D01*
X1548Y-2363D01*
Y-2337D01*
X1567Y-2318D01*
X1800D01*
X1807Y-2317D01*
X1813Y-2313D01*
X1847Y-2278D01*
X1852Y-2280D01*
Y-2353D01*
X1813Y-2392D01*
X1672D01*
X1672Y-2391D01*
X1668Y-2380D01*
X1661Y-2371D01*
X1652Y-2364D01*
X1641Y-2360D01*
X1630Y-2358D01*
X1619Y-2360D01*
X1608Y-2364D01*
X1599Y-2371D01*
X1592Y-2380D01*
X1588Y-2391D01*
X1586Y-2402D01*
Y-2418D01*
X1588Y-2429D01*
X1592Y-2440D01*
X1599Y-2449D01*
X1608Y-2456D01*
X1619Y-2460D01*
X1630Y-2462D01*
X1641Y-2460D01*
X1652Y-2456D01*
X1661Y-2449D01*
X1668Y-2440D01*
X1672Y-2429D01*
X1672Y-2428D01*
X1820D01*
X1827Y-2427D01*
X1833Y-2423D01*
X1883Y-2373D01*
X1887Y-2367D01*
X1888Y-2360D01*
Y-1657D01*
X1917Y-1628D01*
X3010D01*
X3017Y-1627D01*
X3023Y-1623D01*
X3073Y-1573D01*
X3077Y-1567D01*
X3078Y-1560D01*
Y-1457D01*
X3082Y-1456D01*
X3091Y-1449D01*
X3098Y-1440D01*
X3102Y-1429D01*
X3104Y-1418D01*
Y-1402D01*
X3102Y-1391D01*
X3098Y-1380D01*
X3091Y-1371D01*
X3082Y-1364D01*
X3071Y-1360D01*
X3060Y-1358D01*
X3049Y-1360D01*
X3038Y-1364D01*
X3029Y-1371D01*
X3022Y-1380D01*
X3018Y-1391D01*
X3016Y-1402D01*
Y-1418D01*
X3018Y-1429D01*
X3022Y-1440D01*
X3029Y-1449D01*
X3038Y-1456D01*
X3042Y-1457D01*
Y-1553D01*
X3003Y-1592D01*
X2960D01*
X2958Y-1587D01*
X2973Y-1573D01*
X2977Y-1567D01*
X2978Y-1560D01*
Y-1457D01*
X2982Y-1456D01*
X2991Y-1449D01*
X2998Y-1440D01*
X3002Y-1429D01*
X3004Y-1418D01*
Y-1402D01*
X3002Y-1391D01*
X2998Y-1380D01*
X2991Y-1371D01*
X2982Y-1364D01*
X2971Y-1360D01*
X2960Y-1358D01*
X2949Y-1360D01*
X2938Y-1364D01*
X2935Y-1360D01*
X2947Y-1348D01*
X3123D01*
X3135Y-1360D01*
X3134Y-1367D01*
X3129Y-1371D01*
X3122Y-1380D01*
X3118Y-1391D01*
X3116Y-1402D01*
Y-1418D01*
X3118Y-1429D01*
X3122Y-1440D01*
X3129Y-1449D01*
X3138Y-1456D01*
X3149Y-1460D01*
X3160Y-1462D01*
X3171Y-1460D01*
X3182Y-1456D01*
X3191Y-1449D01*
X3198Y-1440D01*
X3202Y-1429D01*
X3204Y-1418D01*
Y-1402D01*
X3202Y-1391D01*
X3198Y-1380D01*
X3191Y-1371D01*
X3182Y-1364D01*
X3178Y-1363D01*
Y-1360D01*
X3177Y-1353D01*
X3173Y-1347D01*
X3143Y-1317D01*
X3137Y-1313D01*
X3130Y-1312D01*
D02*
G37*
G36*
X2390Y-1358D02*
X2379Y-1360D01*
X2368Y-1364D01*
X2359Y-1371D01*
X2352Y-1380D01*
X2348Y-1391D01*
X2346Y-1402D01*
Y-1418D01*
X2348Y-1429D01*
X2352Y-1440D01*
X2359Y-1449D01*
X2368Y-1456D01*
X2379Y-1460D01*
X2390Y-1462D01*
X2401Y-1460D01*
X2412Y-1456D01*
X2421Y-1449D01*
X2428Y-1440D01*
X2432Y-1429D01*
X2434Y-1418D01*
Y-1402D01*
X2432Y-1391D01*
X2428Y-1380D01*
X2421Y-1371D01*
X2412Y-1364D01*
X2401Y-1360D01*
X2390Y-1358D01*
D02*
G37*
G36*
X5845Y-1705D02*
X5808D01*
Y-1708D01*
X5810Y-1719D01*
X5814Y-1729D01*
X5820Y-1737D01*
X5829Y-1744D01*
X5839Y-1748D01*
X5845Y-1749D01*
Y-1705D01*
D02*
G37*
G36*
X5750Y-1648D02*
X5739Y-1650D01*
X5728Y-1654D01*
X5719Y-1661D01*
X5712Y-1670D01*
X5708Y-1681D01*
X5706Y-1692D01*
Y-1708D01*
X5708Y-1719D01*
X5712Y-1730D01*
X5719Y-1739D01*
X5728Y-1746D01*
X5739Y-1750D01*
X5750Y-1752D01*
X5761Y-1750D01*
X5772Y-1746D01*
X5781Y-1739D01*
X5788Y-1730D01*
X5792Y-1719D01*
X5794Y-1708D01*
Y-1692D01*
X5792Y-1681D01*
X5788Y-1670D01*
X5781Y-1661D01*
X5772Y-1654D01*
X5761Y-1650D01*
X5750Y-1648D01*
D02*
G37*
G36*
X5892Y-1705D02*
X5855D01*
Y-1749D01*
X5861Y-1748D01*
X5871Y-1744D01*
X5880Y-1737D01*
X5886Y-1729D01*
X5890Y-1719D01*
X5892Y-1708D01*
Y-1705D01*
D02*
G37*
G36*
X3455Y-1661D02*
X3449Y-1662D01*
X3439Y-1666D01*
X3430Y-1673D01*
X3424Y-1681D01*
X3420Y-1691D01*
X3418Y-1702D01*
Y-1705D01*
X3455D01*
Y-1661D01*
D02*
G37*
G36*
X218Y-1617D02*
X204Y-1619D01*
X190Y-1625D01*
X179Y-1634D01*
X170Y-1645D01*
X164Y-1659D01*
X163Y-1673D01*
X164Y-1687D01*
X170Y-1701D01*
X179Y-1712D01*
X190Y-1721D01*
X204Y-1727D01*
X218Y-1729D01*
X233Y-1727D01*
X246Y-1721D01*
X257Y-1712D01*
X266Y-1701D01*
X272Y-1687D01*
X274Y-1673D01*
X272Y-1659D01*
X266Y-1645D01*
X257Y-1634D01*
X246Y-1625D01*
X233Y-1619D01*
X218Y-1617D01*
D02*
G37*
G36*
X5650Y-1648D02*
X5639Y-1650D01*
X5628Y-1654D01*
X5619Y-1661D01*
X5612Y-1670D01*
X5608Y-1681D01*
X5606Y-1692D01*
Y-1708D01*
X5608Y-1719D01*
X5612Y-1730D01*
X5619Y-1739D01*
X5628Y-1746D01*
X5639Y-1750D01*
X5650Y-1752D01*
X5661Y-1750D01*
X5672Y-1746D01*
X5681Y-1739D01*
X5688Y-1730D01*
X5692Y-1719D01*
X5694Y-1708D01*
Y-1692D01*
X5692Y-1681D01*
X5688Y-1670D01*
X5681Y-1661D01*
X5672Y-1654D01*
X5661Y-1650D01*
X5650Y-1648D01*
D02*
G37*
G36*
X1375Y-1651D02*
X1364Y-1653D01*
X1353Y-1657D01*
X1344Y-1664D01*
X1337Y-1673D01*
X1333Y-1684D01*
X1331Y-1695D01*
Y-1711D01*
X1333Y-1722D01*
X1337Y-1733D01*
X1344Y-1742D01*
X1353Y-1749D01*
X1364Y-1753D01*
X1375Y-1755D01*
X1386Y-1753D01*
X1397Y-1749D01*
X1406Y-1742D01*
X1413Y-1733D01*
X1417Y-1722D01*
X1419Y-1711D01*
Y-1695D01*
X1417Y-1684D01*
X1413Y-1673D01*
X1406Y-1664D01*
X1397Y-1657D01*
X1386Y-1653D01*
X1375Y-1651D01*
D02*
G37*
G36*
X3502Y-1715D02*
X3465D01*
Y-1759D01*
X3471Y-1758D01*
X3481Y-1754D01*
X3490Y-1747D01*
X3496Y-1739D01*
X3500Y-1729D01*
X3502Y-1718D01*
Y-1715D01*
D02*
G37*
G36*
X1070Y-1708D02*
X1034D01*
Y-1752D01*
X1070D01*
Y-1708D01*
D02*
G37*
G36*
X5350Y-1648D02*
X5339Y-1650D01*
X5328Y-1654D01*
X5319Y-1661D01*
X5312Y-1670D01*
X5308Y-1681D01*
X5306Y-1692D01*
Y-1708D01*
X5308Y-1719D01*
X5312Y-1730D01*
X5319Y-1739D01*
X5328Y-1746D01*
X5339Y-1750D01*
X5350Y-1752D01*
X5361Y-1750D01*
X5372Y-1746D01*
X5381Y-1739D01*
X5388Y-1730D01*
X5392Y-1719D01*
X5394Y-1708D01*
Y-1692D01*
X5392Y-1681D01*
X5388Y-1670D01*
X5381Y-1661D01*
X5372Y-1654D01*
X5361Y-1650D01*
X5350Y-1648D01*
D02*
G37*
G36*
X1116Y-1708D02*
X1080D01*
Y-1752D01*
X1116D01*
Y-1708D01*
D02*
G37*
G36*
X3465Y-1661D02*
Y-1705D01*
X3502D01*
Y-1702D01*
X3500Y-1691D01*
X3496Y-1681D01*
X3490Y-1673D01*
X3481Y-1666D01*
X3471Y-1662D01*
X3465Y-1661D01*
D02*
G37*
G36*
X4538Y-1510D02*
X4500D01*
X4462D01*
Y-1543D01*
X4476D01*
X4478Y-1548D01*
X4472Y-1552D01*
X4466Y-1560D01*
X4462Y-1570D01*
X4460Y-1580D01*
X4462Y-1590D01*
X4466Y-1600D01*
X4472Y-1608D01*
X4480Y-1614D01*
X4482Y-1615D01*
Y-1620D01*
X4480Y-1621D01*
X4472Y-1627D01*
X4466Y-1635D01*
X4462Y-1645D01*
X4460Y-1655D01*
X4462Y-1665D01*
X4466Y-1675D01*
X4472Y-1683D01*
X4480Y-1689D01*
X4490Y-1693D01*
X4500Y-1695D01*
X4510Y-1693D01*
X4520Y-1689D01*
X4528Y-1683D01*
X4534Y-1675D01*
X4538Y-1665D01*
X4540Y-1655D01*
X4538Y-1645D01*
X4534Y-1635D01*
X4528Y-1627D01*
X4520Y-1621D01*
X4518Y-1620D01*
Y-1615D01*
X4520Y-1614D01*
X4528Y-1608D01*
X4534Y-1600D01*
X4538Y-1590D01*
X4540Y-1580D01*
X4538Y-1570D01*
X4534Y-1560D01*
X4528Y-1552D01*
X4522Y-1548D01*
X4524Y-1543D01*
X4538D01*
Y-1510D01*
D02*
G37*
G36*
X5855Y-1651D02*
Y-1695D01*
X5892D01*
Y-1692D01*
X5890Y-1681D01*
X5886Y-1671D01*
X5880Y-1663D01*
X5871Y-1656D01*
X5861Y-1652D01*
X5855Y-1651D01*
D02*
G37*
G36*
X840Y-1628D02*
X796D01*
X797Y-1634D01*
X801Y-1644D01*
X808Y-1653D01*
X816Y-1659D01*
X826Y-1663D01*
X837Y-1665D01*
X840D01*
Y-1628D01*
D02*
G37*
G36*
X1550Y-1604D02*
X1542Y-1605D01*
X1530Y-1610D01*
X1520Y-1618D01*
X1512Y-1628D01*
X1507Y-1640D01*
X1506Y-1648D01*
X1550D01*
Y-1604D01*
D02*
G37*
G36*
X894Y-1628D02*
X850D01*
Y-1665D01*
X853D01*
X864Y-1663D01*
X874Y-1659D01*
X882Y-1653D01*
X889Y-1644D01*
X893Y-1634D01*
X894Y-1628D01*
D02*
G37*
G36*
X1560Y-1604D02*
Y-1648D01*
X1604D01*
X1603Y-1640D01*
X1598Y-1628D01*
X1590Y-1618D01*
X1580Y-1610D01*
X1568Y-1605D01*
X1560Y-1604D01*
D02*
G37*
G36*
X1604Y-1658D02*
X1560D01*
Y-1702D01*
X1568Y-1701D01*
X1580Y-1696D01*
X1590Y-1688D01*
X1598Y-1678D01*
X1603Y-1666D01*
X1604Y-1658D01*
D02*
G37*
G36*
X1550D02*
X1506D01*
X1507Y-1666D01*
X1512Y-1678D01*
X1520Y-1688D01*
X1530Y-1696D01*
X1542Y-1701D01*
X1550Y-1702D01*
Y-1658D01*
D02*
G37*
G36*
X1070Y-1654D02*
X1034D01*
Y-1698D01*
X1070D01*
Y-1654D01*
D02*
G37*
G36*
X5845Y-1651D02*
X5839Y-1652D01*
X5829Y-1656D01*
X5820Y-1663D01*
X5814Y-1671D01*
X5810Y-1681D01*
X5808Y-1692D01*
Y-1695D01*
X5845D01*
Y-1651D01*
D02*
G37*
G36*
X1116Y-1654D02*
X1080D01*
Y-1698D01*
X1116D01*
Y-1654D01*
D02*
G37*
%LPD*%
G36*
X5872Y433D02*
Y390D01*
X5867Y388D01*
X5833Y423D01*
X5827Y427D01*
X5820Y428D01*
X5764D01*
X5762Y433D01*
X5766Y438D01*
X5768Y444D01*
X5861D01*
X5872Y433D01*
D02*
G37*
D10*
X3120Y-1100D02*
Y-710D01*
X3140Y-1120D02*
X3516D01*
X3120Y-1100D02*
X3140Y-1120D01*
X3220Y-1030D02*
Y-710D01*
X3250Y-1060D02*
X3530D01*
X3220Y-1030D02*
X3250Y-1060D01*
X3320Y-990D02*
Y-710D01*
X3340Y-1010D02*
X3570D01*
X3320Y-990D02*
X3340Y-1010D01*
X3420Y-940D02*
Y-710D01*
Y-940D02*
X3450Y-970D01*
X3620D01*
X3420Y-710D02*
Y-700D01*
X3220Y-710D02*
Y-700D01*
X100Y-820D02*
X210Y-710D01*
X100Y-1860D02*
Y-820D01*
X4630Y-990D02*
Y0D01*
X4590Y-1030D02*
X4630Y-990D01*
X4460Y-1030D02*
X4590D01*
X1710Y0D02*
X1720Y10D01*
Y340D02*
X1760Y380D01*
X1720Y10D02*
Y340D01*
X3620Y-970D02*
X3670Y-1020D01*
Y-1820D02*
Y-1020D01*
X3480Y-3020D02*
Y-2340D01*
X3220Y-3050D02*
X3450D01*
X3480Y-3020D01*
Y-2340D02*
X3553Y-2267D01*
Y-1156D01*
X3516Y-1120D02*
X3553Y-1156D01*
X3530Y-2530D02*
Y-2340D01*
X3576Y-2294D01*
Y-1106D01*
X3530Y-1060D02*
X3576Y-1106D01*
X3810Y-3640D02*
Y-2530D01*
Y-3640D02*
X3830Y-3660D01*
X3890D01*
X4410Y-1080D02*
X4460Y-1030D01*
X4410Y-2350D02*
Y-1080D01*
X4340Y-2460D02*
X4870D01*
X4310Y-2430D02*
X4340Y-2460D01*
X4310Y-2430D02*
Y-2350D01*
X5500Y-1650D02*
X5550Y-1700D01*
X5500Y-1650D02*
Y-880D01*
X5450Y-830D02*
X5500Y-880D01*
X6630Y-1960D02*
Y-1890D01*
X6600Y-1860D02*
X6630Y-1890D01*
X6240Y-1860D02*
X6600D01*
X6210Y-1890D02*
X6240Y-1860D01*
X6210Y-2230D02*
Y-1890D01*
X6180Y-2260D02*
X6210Y-2230D01*
X5330Y-2260D02*
X6180D01*
X5320Y-2270D02*
X5330Y-2260D01*
X5320Y-2350D02*
Y-2270D01*
X6530Y-2340D02*
Y-2260D01*
X6500Y-2370D02*
X6530Y-2340D01*
X6310Y-2370D02*
X6500D01*
X6270Y-2330D02*
X6310Y-2370D01*
X6270Y-2330D02*
Y-1990D01*
X490Y-2670D02*
Y-1990D01*
X4110Y-2350D02*
Y-1850D01*
X440Y-2720D02*
X490Y-2670D01*
X1610Y-4740D02*
X7210D01*
X1560Y-4690D02*
Y-3540D01*
Y-4690D02*
X1610Y-4740D01*
X500Y-4610D02*
Y-2960D01*
X4390Y-4610D02*
Y-3660D01*
X7210Y-4740D02*
X7300Y-4650D01*
Y-1520D01*
X7230Y-1450D02*
X7300Y-1520D01*
X6940Y-1450D02*
X7230D01*
X4300Y-1770D02*
Y-850D01*
X4210Y-1860D02*
X4300Y-1770D01*
X4210Y-2350D02*
Y-1860D01*
X3810Y-2530D02*
Y-2520D01*
X3600Y-2430D02*
X3730D01*
X3760Y-2460D01*
Y-4180D02*
Y-2460D01*
X4210Y-3050D02*
Y-2650D01*
X2510Y-3420D02*
Y-2990D01*
X4010D02*
Y-2650D01*
X1230Y-3000D02*
Y-2710D01*
Y-3000D02*
X1290Y-3060D01*
X1650D01*
X1700Y-3110D01*
Y-4040D02*
Y-3110D01*
Y-4040D02*
X1770Y-4110D01*
X2600D01*
X640Y-3430D02*
Y-2930D01*
X440Y-2860D02*
Y-2720D01*
Y-2860D02*
X470Y-2890D01*
X600D01*
X640Y-2930D01*
X240Y-2890D02*
Y-2730D01*
Y-2890D02*
X280Y-2930D01*
X470D01*
X500Y-2960D01*
X890Y-3290D02*
Y-3080D01*
X40D02*
Y-2720D01*
X4290Y-3660D02*
Y-3590D01*
X4610Y-3510D02*
Y-3000D01*
X4290Y-3590D02*
X4330Y-3550D01*
X4570D01*
X4610Y-3510D01*
X4390Y-3500D02*
Y-3360D01*
X4692Y-4178D02*
Y-3502D01*
X4690Y-3500D02*
X4692Y-3502D01*
X4110Y-3000D02*
Y-2650D01*
X4860Y-3260D02*
Y-3200D01*
X4870Y-3190D01*
Y-2560D01*
X1230D02*
Y-2410D01*
X1200Y-2590D02*
X1230Y-2560D01*
X1060Y-2590D02*
X1200D01*
X1030Y-2620D02*
X1060Y-2590D01*
X1030Y-2710D02*
Y-2620D01*
X4310Y-3110D02*
Y-2650D01*
X4090Y-3360D02*
Y-3180D01*
X4130Y-3140D01*
X4280D01*
X4310Y-3110D01*
X4980Y-1940D02*
X5420D01*
X4950Y-2540D02*
Y-1970D01*
X4980Y-1940D01*
X4870Y-2560D02*
X4930D01*
X4950Y-2540D01*
X5420Y-1940D02*
X5450Y-1910D01*
Y-1700D01*
X5250Y-1850D02*
Y-1700D01*
X5190Y-1910D02*
X5250Y-1850D01*
X4910Y-1910D02*
X5190D01*
X4870Y-1950D02*
X4910Y-1910D01*
X4870Y-2460D02*
Y-1950D01*
X5350Y-830D02*
Y-780D01*
X5330Y-760D02*
X5350Y-780D01*
X5000Y-760D02*
X5330D01*
X5350Y-830D02*
X5450D01*
X4800Y-760D02*
X5000D01*
X4762Y-722D02*
X4800Y-760D01*
X4762Y-722D02*
Y-508D01*
X6520Y-530D02*
Y-520D01*
X5890Y-490D02*
Y440D01*
X5850Y-530D02*
X5890Y-490D01*
X5750Y-530D02*
X5860Y-420D01*
Y370D01*
X5868Y462D02*
X5890Y440D01*
X5820Y410D02*
X5860Y370D01*
X5650Y510D02*
X5700Y560D01*
X5650Y440D02*
Y510D01*
Y440D02*
X5680Y410D01*
X5820D01*
X5730Y462D02*
X5868D01*
X5550Y-530D02*
Y10D01*
X5600Y60D01*
X5720D01*
X1990Y-1710D02*
Y-1700D01*
Y-3180D02*
Y-1710D01*
X3570Y-1010D02*
X3600Y-1040D01*
Y-2430D02*
Y-1040D01*
X4040Y-3790D02*
Y-3430D01*
X3990Y-3380D02*
X4040Y-3430D01*
X3990Y-3380D02*
Y-3360D01*
Y-3350D01*
X6630Y-2070D02*
Y-1960D01*
X6590Y-2110D02*
X6630Y-2070D01*
X6460Y-2110D02*
X6590D01*
X6430Y-2140D02*
X6460Y-2110D01*
X6430Y-2260D02*
Y-2140D01*
X2870Y-2730D02*
Y-2480D01*
X2845Y-2455D02*
X2870Y-2480D01*
X2640Y-2455D02*
X2845D01*
X6540Y-2960D02*
Y-2950D01*
Y-3320D02*
Y-2960D01*
X1230Y-2410D02*
Y-2290D01*
X1274Y-2246D01*
X1734D01*
X1770Y-2210D01*
Y-1600D01*
X1834Y-1536D01*
X2834D01*
X2860Y-1510D01*
Y-1410D01*
X3130Y-1330D02*
X3160Y-1360D01*
X2940Y-1330D02*
X3130D01*
X3160Y-1400D02*
Y-1360D01*
X2910D02*
X2940Y-1330D01*
X2910Y-1523D02*
Y-1360D01*
X2873Y-1560D02*
X2910Y-1523D01*
X1860Y-1560D02*
X2873D01*
X1810Y-1610D02*
X1860Y-1560D01*
X1810Y-2230D02*
Y-1610D01*
X1770Y-2270D02*
X1810Y-2230D01*
X1360Y-2270D02*
X1770D01*
X1330Y-2300D02*
X1360Y-2270D01*
X1330Y-2410D02*
Y-2300D01*
X1840Y-2260D02*
Y-1640D01*
X1800Y-2300D02*
X1840Y-2260D01*
X1560Y-2300D02*
X1800D01*
X1530Y-2410D02*
Y-2330D01*
Y-2420D02*
Y-2410D01*
Y-2330D02*
X1560Y-2300D01*
X1840Y-1640D02*
X1894Y-1586D01*
X2934D01*
X2960Y-1560D01*
Y-1410D01*
X3060Y-1560D02*
Y-1410D01*
X3010Y-1610D02*
X3060Y-1560D01*
X1910Y-1610D02*
X3010D01*
X1870Y-1650D02*
X1910Y-1610D01*
X1870Y-2360D02*
Y-1650D01*
X1820Y-2410D02*
X1870Y-2360D01*
X1630Y-2410D02*
X1820D01*
X-140Y-3520D02*
X-60D01*
X-170Y-3490D02*
X-140Y-3520D01*
X-170Y-3490D02*
Y-2750D01*
X-140Y-2720D01*
X-60D01*
X2880Y-4280D02*
X3010Y-4410D01*
X4140D01*
X4190Y-4360D01*
Y-3660D01*
X4090Y-4300D02*
Y-3660D01*
X4030Y-4360D02*
X4090Y-4300D01*
X3610Y-4360D02*
X4030D01*
X3990Y-4190D02*
Y-3660D01*
X3920Y-4260D02*
X3990Y-4190D01*
X3620Y-4260D02*
X3920D01*
X3330Y-4320D02*
Y-4110D01*
Y-4320D02*
X3370Y-4360D01*
X3610D01*
X6750Y-4170D02*
X7050D01*
X6700Y-4220D02*
X6750Y-4170D01*
X6700Y-4400D02*
Y-4220D01*
X1300Y-3440D02*
Y-3415D01*
Y-3680D02*
Y-3440D01*
X890Y-3363D02*
Y-3290D01*
Y-3363D02*
X917Y-3390D01*
X1275D01*
X1300Y-3415D01*
Y-3440D02*
X1560D01*
X1090Y-3690D02*
Y-3470D01*
X1050Y-3430D02*
X1090Y-3470D01*
X640Y-3430D02*
X1050D01*
X2150Y-291D02*
X2268D01*
X2120Y-550D02*
Y-321D01*
X2150Y-291D01*
X2368D02*
Y-158D01*
X2320Y-110D02*
X2368Y-158D01*
X2320Y-110D02*
Y-10D01*
X1760Y380D02*
X2120D01*
X2245Y-10D02*
Y175D01*
X2210Y210D02*
X2245Y175D01*
X2120Y210D02*
X2210D01*
X2520D02*
Y380D01*
X3260Y-1710D02*
Y-1700D01*
X100Y-1860D02*
X160Y-1920D01*
X1275Y-1865D02*
Y-1703D01*
X1220Y-1920D02*
X1275Y-1865D01*
X160Y-1920D02*
X1220D01*
X1505Y-1403D02*
X1555Y-1453D01*
X1375Y-1403D02*
X1505D01*
X845Y-1523D02*
X1237D01*
X777D02*
X845D01*
X750Y-1550D02*
X777Y-1523D01*
X750Y-1810D02*
Y-1550D01*
X700Y-1860D02*
X750Y-1810D01*
X370Y-1860D02*
X700D01*
X317Y-1807D02*
X370Y-1860D01*
X317Y-1807D02*
Y-1476D01*
X675Y-1470D02*
X1150D01*
X628Y-1517D02*
X675Y-1470D01*
X628Y-1775D02*
Y-1517D01*
X415Y-1673D02*
X627D01*
X1150Y-1470D02*
X1175Y-1445D01*
Y-1403D01*
Y-1703D02*
Y-1528D01*
X1275Y-1485D02*
Y-1403D01*
X1237Y-1523D02*
X1275Y-1485D01*
X6920Y-1150D02*
Y-830D01*
X6820Y-1150D02*
Y-830D01*
X6720Y-1150D02*
Y-830D01*
X6620Y-1150D02*
Y-830D01*
Y-1160D02*
Y-1150D01*
X6520D02*
Y-830D01*
D11*
X6478Y-2760D02*
X6790D01*
X2690Y-4340D02*
Y-3710D01*
X0Y0D02*
X10D01*
X-220D02*
X0D01*
X3820Y-2250D02*
X3910Y-2340D01*
X3820Y-2250D02*
Y-1450D01*
X3890Y-1380D01*
X5650Y-660D02*
X6370D01*
X5000D02*
X5650D01*
Y-830D02*
Y-660D01*
X6420Y-610D02*
Y-530D01*
X6370Y-660D02*
X6420Y-610D01*
X6440Y-3310D02*
Y-2798D01*
X6830Y-2720D02*
Y-2260D01*
X6790Y-2760D02*
X6830Y-2720D01*
X6440Y-2798D02*
X6478Y-2760D01*
X2070Y-2720D02*
X2220Y-2870D01*
Y-3600D02*
Y-2870D01*
Y-3600D02*
X2320Y-3700D01*
X2520Y-550D02*
X2710D01*
X2760Y-600D01*
Y-1410D02*
Y-600D01*
X6740Y-3620D02*
Y-3510D01*
X6440Y-3430D02*
Y-3330D01*
Y-3430D02*
X6480Y-3470D01*
X6700D01*
X6740Y-3510D01*
Y-3720D02*
Y-3620D01*
Y-3720D02*
X6790Y-3770D01*
X7150D01*
X7180Y-3800D01*
Y-4520D02*
Y-3800D01*
X7130Y-4570D02*
X7180Y-4520D01*
X7050Y-4570D02*
X7130D01*
X5090Y-3780D02*
Y-3680D01*
X5080Y-3790D02*
X5090Y-3780D01*
X5080Y-4250D02*
Y-3790D01*
X-270Y-2420D02*
Y-50D01*
Y-4390D02*
Y-2420D01*
X-60D01*
X-270Y-50D02*
X-220Y0D01*
X-209Y-4451D02*
X-45D01*
X-270Y-4390D02*
X-209Y-4451D01*
X6420Y30D02*
Y530D01*
Y-530D02*
Y30D01*
X7052D01*
X7120Y-38D01*
X6020Y560D02*
X6390D01*
X6420Y530D01*
X2590Y0D02*
X2910D01*
X2520Y-70D02*
X2590Y0D01*
X2520Y-550D02*
Y-70D01*
X378Y-4392D02*
Y-3682D01*
X320Y-4450D02*
X378Y-4392D01*
X-30Y-4450D02*
X320D01*
X2690Y-4340D02*
X2730Y-4380D01*
X2880D01*
X685Y-1375D02*
X713Y-1403D01*
X1075D01*
X628Y-1375D02*
X685D01*
D12*
X3520Y-710D02*
D03*
X3320D02*
D03*
X3120D02*
D03*
X3420D02*
D03*
X3220D02*
D03*
X1720Y0D02*
D03*
X0Y-100D02*
D03*
Y0D02*
D03*
X210Y-710D02*
D03*
X4630Y0D02*
D03*
X2910Y-100D02*
D03*
Y0D02*
D03*
D13*
X3020D02*
D03*
Y-100D02*
D03*
X3120D02*
D03*
Y0D02*
D03*
X3220Y-100D02*
D03*
Y0D02*
D03*
X3320Y-100D02*
D03*
Y0D02*
D03*
X3420Y-100D02*
D03*
Y0D02*
D03*
X3520Y-100D02*
D03*
Y0D02*
D03*
X3620Y-100D02*
D03*
Y0D02*
D03*
X3720Y-100D02*
D03*
Y0D02*
D03*
X3820Y-100D02*
D03*
Y0D02*
D03*
X3920Y-100D02*
D03*
Y0D02*
D03*
X4020Y-100D02*
D03*
Y0D02*
D03*
X4120Y-100D02*
D03*
Y0D02*
D03*
X4220Y-100D02*
D03*
Y0D02*
D03*
X4320Y-100D02*
D03*
Y0D02*
D03*
X4420Y-100D02*
D03*
Y0D02*
D03*
X4520Y-100D02*
D03*
Y0D02*
D03*
Y200D02*
D03*
Y100D02*
D03*
X4420Y200D02*
D03*
Y100D02*
D03*
X4320Y200D02*
D03*
Y100D02*
D03*
X4220Y200D02*
D03*
Y100D02*
D03*
X4120Y200D02*
D03*
Y100D02*
D03*
X4020Y200D02*
D03*
Y100D02*
D03*
X3920Y200D02*
D03*
Y100D02*
D03*
X3820Y200D02*
D03*
Y100D02*
D03*
X3720Y200D02*
D03*
Y100D02*
D03*
X3620Y200D02*
D03*
Y100D02*
D03*
X3520Y200D02*
D03*
Y100D02*
D03*
X3420Y200D02*
D03*
Y100D02*
D03*
X3320Y200D02*
D03*
Y100D02*
D03*
X3220Y200D02*
D03*
Y100D02*
D03*
X3120Y200D02*
D03*
Y100D02*
D03*
X3020D02*
D03*
Y200D02*
D03*
X4520Y400D02*
D03*
Y300D02*
D03*
X4420Y400D02*
D03*
Y300D02*
D03*
X4320Y400D02*
D03*
Y300D02*
D03*
X4220Y400D02*
D03*
Y300D02*
D03*
X4120Y400D02*
D03*
Y300D02*
D03*
X4020Y400D02*
D03*
Y300D02*
D03*
X3920Y400D02*
D03*
Y300D02*
D03*
X3820Y400D02*
D03*
Y300D02*
D03*
X3720Y400D02*
D03*
Y300D02*
D03*
X3620Y400D02*
D03*
Y300D02*
D03*
X3520Y400D02*
D03*
Y300D02*
D03*
X3420Y400D02*
D03*
Y300D02*
D03*
X3320Y400D02*
D03*
Y300D02*
D03*
X3220Y400D02*
D03*
Y300D02*
D03*
X3120Y400D02*
D03*
Y300D02*
D03*
X3020D02*
D03*
Y400D02*
D03*
X4520Y-200D02*
D03*
Y-300D02*
D03*
X4420Y-200D02*
D03*
Y-300D02*
D03*
X4320Y-200D02*
D03*
Y-300D02*
D03*
X4220Y-200D02*
D03*
Y-300D02*
D03*
X4120Y-200D02*
D03*
Y-300D02*
D03*
X4020Y-200D02*
D03*
Y-300D02*
D03*
X3920Y-200D02*
D03*
Y-300D02*
D03*
X3820Y-200D02*
D03*
Y-300D02*
D03*
X3720Y-200D02*
D03*
Y-300D02*
D03*
X3620Y-200D02*
D03*
Y-300D02*
D03*
X3520Y-200D02*
D03*
Y-300D02*
D03*
X3420Y-200D02*
D03*
Y-300D02*
D03*
X3320Y-200D02*
D03*
Y-300D02*
D03*
X3220Y-200D02*
D03*
Y-300D02*
D03*
X3120Y-200D02*
D03*
Y-300D02*
D03*
X3020D02*
D03*
Y-200D02*
D03*
X4520Y-400D02*
D03*
Y-500D02*
D03*
X4420Y-400D02*
D03*
Y-500D02*
D03*
X4320Y-400D02*
D03*
Y-500D02*
D03*
X4220Y-400D02*
D03*
Y-500D02*
D03*
X4120Y-400D02*
D03*
Y-500D02*
D03*
X4020Y-400D02*
D03*
Y-500D02*
D03*
X3920Y-400D02*
D03*
Y-500D02*
D03*
X3820Y-400D02*
D03*
Y-500D02*
D03*
X3720Y-400D02*
D03*
Y-500D02*
D03*
X3620Y-400D02*
D03*
Y-500D02*
D03*
X3520Y-400D02*
D03*
Y-500D02*
D03*
X3420Y-400D02*
D03*
Y-500D02*
D03*
X3320Y-400D02*
D03*
Y-500D02*
D03*
X3220Y-400D02*
D03*
Y-500D02*
D03*
X3120Y-400D02*
D03*
Y-500D02*
D03*
X3020D02*
D03*
Y-400D02*
D03*
Y-600D02*
D03*
X3120D02*
D03*
X3220D02*
D03*
X3320D02*
D03*
X3420D02*
D03*
X3520D02*
D03*
X3620D02*
D03*
X3720D02*
D03*
X3820D02*
D03*
X3920D02*
D03*
X4020D02*
D03*
X4120D02*
D03*
X4220D02*
D03*
X4320D02*
D03*
X4420D02*
D03*
X4520D02*
D03*
X3020Y500D02*
D03*
X3120D02*
D03*
X3220D02*
D03*
X3320D02*
D03*
X3420D02*
D03*
X3520D02*
D03*
X3620D02*
D03*
X3720D02*
D03*
X3820D02*
D03*
X3920D02*
D03*
X4020D02*
D03*
X4120D02*
D03*
X4220D02*
D03*
X4320D02*
D03*
X4420D02*
D03*
X4520D02*
D03*
X2520Y-550D02*
D03*
X2120D02*
D03*
X1610Y500D02*
D03*
X1510D02*
D03*
X1410D02*
D03*
X1310D02*
D03*
X1210D02*
D03*
X1110D02*
D03*
X1010D02*
D03*
X910D02*
D03*
X810D02*
D03*
X710D02*
D03*
X610D02*
D03*
X510D02*
D03*
X410D02*
D03*
X310D02*
D03*
X210D02*
D03*
X110D02*
D03*
X1610Y-600D02*
D03*
X1510D02*
D03*
X1410D02*
D03*
X1310D02*
D03*
X1210D02*
D03*
X1110D02*
D03*
X1010D02*
D03*
X910D02*
D03*
X810D02*
D03*
X710D02*
D03*
X610D02*
D03*
X510D02*
D03*
X410D02*
D03*
X310D02*
D03*
X210D02*
D03*
X110D02*
D03*
Y-400D02*
D03*
Y-500D02*
D03*
X210D02*
D03*
Y-400D02*
D03*
X310Y-500D02*
D03*
Y-400D02*
D03*
X410Y-500D02*
D03*
Y-400D02*
D03*
X510Y-500D02*
D03*
Y-400D02*
D03*
X610Y-500D02*
D03*
Y-400D02*
D03*
X710Y-500D02*
D03*
Y-400D02*
D03*
X810Y-500D02*
D03*
Y-400D02*
D03*
X910Y-500D02*
D03*
Y-400D02*
D03*
X1010Y-500D02*
D03*
Y-400D02*
D03*
X1110Y-500D02*
D03*
Y-400D02*
D03*
X1210Y-500D02*
D03*
Y-400D02*
D03*
X1310Y-500D02*
D03*
Y-400D02*
D03*
X1410Y-500D02*
D03*
Y-400D02*
D03*
X1510Y-500D02*
D03*
Y-400D02*
D03*
X1610Y-500D02*
D03*
Y-400D02*
D03*
X110Y-200D02*
D03*
Y-300D02*
D03*
X210D02*
D03*
Y-200D02*
D03*
X310Y-300D02*
D03*
Y-200D02*
D03*
X410Y-300D02*
D03*
Y-200D02*
D03*
X510Y-300D02*
D03*
Y-200D02*
D03*
X610Y-300D02*
D03*
Y-200D02*
D03*
X710Y-300D02*
D03*
Y-200D02*
D03*
X810Y-300D02*
D03*
Y-200D02*
D03*
X910Y-300D02*
D03*
Y-200D02*
D03*
X1010Y-300D02*
D03*
Y-200D02*
D03*
X1110Y-300D02*
D03*
Y-200D02*
D03*
X1210Y-300D02*
D03*
Y-200D02*
D03*
X1310Y-300D02*
D03*
Y-200D02*
D03*
X1410Y-300D02*
D03*
Y-200D02*
D03*
X1510Y-300D02*
D03*
Y-200D02*
D03*
X1610Y-300D02*
D03*
Y-200D02*
D03*
X110Y400D02*
D03*
Y300D02*
D03*
X210D02*
D03*
Y400D02*
D03*
X310Y300D02*
D03*
Y400D02*
D03*
X410Y300D02*
D03*
Y400D02*
D03*
X510Y300D02*
D03*
Y400D02*
D03*
X610Y300D02*
D03*
Y400D02*
D03*
X710Y300D02*
D03*
Y400D02*
D03*
X810Y300D02*
D03*
Y400D02*
D03*
X910Y300D02*
D03*
Y400D02*
D03*
X1010Y300D02*
D03*
Y400D02*
D03*
X1110Y300D02*
D03*
Y400D02*
D03*
X1210Y300D02*
D03*
Y400D02*
D03*
X1310Y300D02*
D03*
Y400D02*
D03*
X1410Y300D02*
D03*
Y400D02*
D03*
X1510Y300D02*
D03*
Y400D02*
D03*
X1610Y300D02*
D03*
Y400D02*
D03*
X110Y200D02*
D03*
Y100D02*
D03*
X210D02*
D03*
Y200D02*
D03*
X310Y100D02*
D03*
Y200D02*
D03*
X410Y100D02*
D03*
Y200D02*
D03*
X510Y100D02*
D03*
Y200D02*
D03*
X610Y100D02*
D03*
Y200D02*
D03*
X710Y100D02*
D03*
Y200D02*
D03*
X810Y100D02*
D03*
Y200D02*
D03*
X910Y100D02*
D03*
Y200D02*
D03*
X1010Y100D02*
D03*
Y200D02*
D03*
X1110Y100D02*
D03*
Y200D02*
D03*
X1210Y100D02*
D03*
Y200D02*
D03*
X1310Y100D02*
D03*
Y200D02*
D03*
X1410Y100D02*
D03*
Y200D02*
D03*
X1510Y100D02*
D03*
Y200D02*
D03*
X1610Y100D02*
D03*
Y200D02*
D03*
Y0D02*
D03*
Y-100D02*
D03*
X1510Y0D02*
D03*
Y-100D02*
D03*
X1410Y0D02*
D03*
Y-100D02*
D03*
X1310Y0D02*
D03*
Y-100D02*
D03*
X1210Y0D02*
D03*
Y-100D02*
D03*
X1110Y0D02*
D03*
Y-100D02*
D03*
X1010Y0D02*
D03*
Y-100D02*
D03*
X910Y0D02*
D03*
Y-100D02*
D03*
X810Y0D02*
D03*
Y-100D02*
D03*
X710Y0D02*
D03*
Y-100D02*
D03*
X610Y0D02*
D03*
Y-100D02*
D03*
X510Y0D02*
D03*
Y-100D02*
D03*
X410Y0D02*
D03*
Y-100D02*
D03*
X310Y0D02*
D03*
Y-100D02*
D03*
X210Y0D02*
D03*
Y-100D02*
D03*
X110D02*
D03*
Y0D02*
D03*
X5090Y-3660D02*
D03*
Y-3260D02*
D03*
X2520Y380D02*
D03*
X2120D02*
D03*
Y210D02*
D03*
X2520D02*
D03*
X4692Y-4178D02*
D03*
Y-4578D02*
D03*
X3902Y-1388D02*
D03*
Y-1788D02*
D03*
X4760Y-1780D02*
D03*
Y-1380D02*
D03*
X4968Y-1782D02*
D03*
Y-1382D02*
D03*
X378Y-3682D02*
D03*
Y-3282D02*
D03*
X178Y-3682D02*
D03*
Y-3282D02*
D03*
X890Y-3690D02*
D03*
Y-3290D02*
D03*
X1090Y-3690D02*
D03*
Y-3290D02*
D03*
X1298Y-3692D02*
D03*
Y-3292D02*
D03*
X4762Y-508D02*
D03*
Y-908D02*
D03*
X4860Y-3260D02*
D03*
Y-3660D02*
D03*
X7120Y-38D02*
D03*
Y362D02*
D03*
X628Y-1775D02*
D03*
Y-1375D02*
D03*
X1555Y-1453D02*
D03*
Y-1653D02*
D03*
X3330Y-4510D02*
D03*
Y-4110D02*
D03*
X2622Y-4108D02*
D03*
Y-4508D02*
D03*
X3133Y-4105D02*
D03*
Y-4505D02*
D03*
X2688Y-3712D02*
D03*
Y-3312D02*
D03*
X3230Y-2730D02*
D03*
Y-2330D02*
D03*
X3420D02*
D03*
Y-2730D02*
D03*
X2120Y-3310D02*
D03*
Y-3710D02*
D03*
X2320D02*
D03*
Y-3310D02*
D03*
X3600Y-2630D02*
D03*
Y-2430D02*
D03*
X7050Y-4570D02*
D03*
Y-4170D02*
D03*
X2058Y-2722D02*
D03*
Y-2322D02*
D03*
X2510Y-3630D02*
D03*
Y-3430D02*
D03*
X3450Y-3710D02*
D03*
Y-3310D02*
D03*
X5618Y-4582D02*
D03*
Y-4182D02*
D03*
X5080Y-4250D02*
D03*
X4903Y-4506D02*
D03*
X5080D02*
D03*
X4903Y-4250D02*
D03*
X6037D02*
D03*
X5860Y-4506D02*
D03*
X6037D02*
D03*
X5860Y-4250D02*
D03*
X2870Y-2730D02*
D03*
Y-2330D02*
D03*
X5480Y-3660D02*
D03*
Y-3260D02*
D03*
X3038Y-2732D02*
D03*
Y-2332D02*
D03*
X3660Y-3310D02*
D03*
Y-3710D02*
D03*
X5290Y-3350D02*
D03*
Y-3550D02*
D03*
X5698Y-3662D02*
D03*
Y-3262D02*
D03*
X7010Y-3580D02*
D03*
Y-3380D02*
D03*
D14*
X2320Y-10D02*
D03*
X2245D02*
D03*
X4500Y-1580D02*
D03*
Y-1655D02*
D03*
X3220Y-3510D02*
D03*
Y-3585D02*
D03*
X6450Y-4400D02*
D03*
Y-4325D02*
D03*
X2640Y-2530D02*
D03*
Y-2455D02*
D03*
D15*
X2395Y-10D02*
D03*
D16*
X5000Y-660D02*
D03*
X5720Y560D02*
D03*
X-60Y-3420D02*
D03*
X640Y-3530D02*
D03*
X1560Y-3540D02*
D03*
X4870Y-2560D02*
D03*
X845Y-1523D02*
D03*
X2880Y-4380D02*
D03*
X3610Y-4360D02*
D03*
X2940Y-3460D02*
D03*
X6030Y-3430D02*
D03*
D17*
X5000Y-760D02*
D03*
X6020Y560D02*
D03*
Y460D02*
D03*
Y360D02*
D03*
Y260D02*
D03*
X5720D02*
D03*
Y360D02*
D03*
Y460D02*
D03*
Y160D02*
D03*
Y60D02*
D03*
Y-40D02*
D03*
Y-140D02*
D03*
X6020D02*
D03*
Y-40D02*
D03*
Y60D02*
D03*
Y160D02*
D03*
X-60Y-3520D02*
D03*
X640Y-3430D02*
D03*
X1560Y-3440D02*
D03*
X4870Y-2460D02*
D03*
X845Y-1623D02*
D03*
X2880Y-4280D02*
D03*
X3610Y-4260D02*
D03*
X2940Y-3560D02*
D03*
X6030Y-3530D02*
D03*
D18*
X2368Y-291D02*
D03*
X1990Y-1410D02*
D03*
X2090D02*
D03*
X2190D02*
D03*
X2290D02*
D03*
Y-1710D02*
D03*
X2190D02*
D03*
X2090D02*
D03*
X2390D02*
D03*
Y-1410D02*
D03*
X6920Y-1150D02*
D03*
Y-1450D02*
D03*
X6620D02*
D03*
X6720D02*
D03*
X6820D02*
D03*
Y-1150D02*
D03*
X6720D02*
D03*
X6620D02*
D03*
X6520D02*
D03*
X4230Y-1580D02*
D03*
X5250Y-1400D02*
D03*
X5350D02*
D03*
X5550Y-1700D02*
D03*
X5450D02*
D03*
X5350D02*
D03*
X5650D02*
D03*
X5750D02*
D03*
X5850D02*
D03*
Y-1400D02*
D03*
X5750D02*
D03*
X5650D02*
D03*
X5550D02*
D03*
X5450D02*
D03*
X5220Y-2350D02*
D03*
X5320D02*
D03*
X5420D02*
D03*
X5520D02*
D03*
Y-2650D02*
D03*
X5420D02*
D03*
X5320D02*
D03*
X5620D02*
D03*
X5720D02*
D03*
X5820D02*
D03*
X5920D02*
D03*
Y-2350D02*
D03*
X5820D02*
D03*
X5720D02*
D03*
X5620D02*
D03*
X6430Y-1960D02*
D03*
X6530D02*
D03*
X6730Y-2260D02*
D03*
X6630D02*
D03*
X6530D02*
D03*
X6830D02*
D03*
X6930D02*
D03*
X7030D02*
D03*
Y-1960D02*
D03*
X6930D02*
D03*
X6830D02*
D03*
X6730D02*
D03*
X6630D02*
D03*
X-60Y-2420D02*
D03*
X40D02*
D03*
X240Y-2720D02*
D03*
X140D02*
D03*
X40D02*
D03*
X340D02*
D03*
X440D02*
D03*
X540D02*
D03*
Y-2420D02*
D03*
X440D02*
D03*
X340D02*
D03*
X240D02*
D03*
X140D02*
D03*
X6420Y-530D02*
D03*
X6520D02*
D03*
X6620D02*
D03*
X6720D02*
D03*
Y-830D02*
D03*
X6620D02*
D03*
X6520D02*
D03*
X6820D02*
D03*
X6920D02*
D03*
X7020D02*
D03*
X7120D02*
D03*
Y-530D02*
D03*
X7020D02*
D03*
X6920D02*
D03*
X6820D02*
D03*
X5250D02*
D03*
X5350D02*
D03*
X5550Y-830D02*
D03*
X5450D02*
D03*
X5350D02*
D03*
X5650D02*
D03*
X5750D02*
D03*
X5850D02*
D03*
Y-530D02*
D03*
X5750D02*
D03*
X5650D02*
D03*
X5550D02*
D03*
X5450D02*
D03*
X6970Y527D02*
D03*
X6870D02*
D03*
X6770D02*
D03*
X6670D02*
D03*
X6570D02*
D03*
X6970Y-73D02*
D03*
X6870D02*
D03*
X6770D02*
D03*
X6670D02*
D03*
X1175Y-1703D02*
D03*
X1275D02*
D03*
X1375D02*
D03*
Y-1403D02*
D03*
X1275D02*
D03*
X1175D02*
D03*
X1075D02*
D03*
X2760Y-1410D02*
D03*
X2860D02*
D03*
X2960D02*
D03*
X3060D02*
D03*
Y-1710D02*
D03*
X2960D02*
D03*
X2860D02*
D03*
X3160D02*
D03*
X3260D02*
D03*
X3360D02*
D03*
X3460D02*
D03*
Y-1410D02*
D03*
X3360D02*
D03*
X3260D02*
D03*
X3160D02*
D03*
X1030Y-2410D02*
D03*
X1130D02*
D03*
X1330Y-2710D02*
D03*
X1230D02*
D03*
X1130D02*
D03*
X1430D02*
D03*
X1530D02*
D03*
X1630D02*
D03*
Y-2410D02*
D03*
X1530D02*
D03*
X1430D02*
D03*
X1330D02*
D03*
X1230D02*
D03*
X3890Y-3360D02*
D03*
X3990D02*
D03*
X4190Y-3660D02*
D03*
X4090D02*
D03*
X3990D02*
D03*
X4290D02*
D03*
X4390D02*
D03*
X4490D02*
D03*
Y-3360D02*
D03*
X4390D02*
D03*
X4290D02*
D03*
X4190D02*
D03*
X4090D02*
D03*
X3910Y-2350D02*
D03*
X4010D02*
D03*
X4210Y-2650D02*
D03*
X4110D02*
D03*
X4010D02*
D03*
X4310D02*
D03*
X4410D02*
D03*
X4510D02*
D03*
Y-2350D02*
D03*
X4410D02*
D03*
X4310D02*
D03*
X4210D02*
D03*
X4110D02*
D03*
X6800Y-4400D02*
D03*
X2388Y-2531D02*
D03*
X6540Y-3620D02*
D03*
X6640D02*
D03*
X6740D02*
D03*
Y-3320D02*
D03*
X6640D02*
D03*
X6540D02*
D03*
X6440D02*
D03*
D19*
X2268Y-291D02*
D03*
X1990Y-1710D02*
D03*
X6520Y-1450D02*
D03*
X4130Y-1580D02*
D03*
X5250Y-1700D02*
D03*
X5220Y-2650D02*
D03*
X6430Y-2260D02*
D03*
X-60Y-2720D02*
D03*
X6420Y-830D02*
D03*
X5250D02*
D03*
X6570Y-73D02*
D03*
X1075Y-1703D02*
D03*
X2760Y-1710D02*
D03*
X1030Y-2710D02*
D03*
X3890Y-3660D02*
D03*
X3910Y-2650D02*
D03*
X6700Y-4400D02*
D03*
X2288Y-2531D02*
D03*
X6440Y-3620D02*
D03*
D20*
X-45Y-4451D02*
D03*
D21*
Y-4648D02*
D03*
X218Y-1673D02*
D03*
X415D02*
D03*
X317Y-1476D02*
D03*
X6540Y-2960D02*
D03*
X6737D02*
D03*
X6638Y-2763D02*
D03*
D22*
X4500Y-1505D02*
D03*
X3220Y-3435D02*
D03*
X6450Y-4475D02*
D03*
X2640Y-2605D02*
D03*
D23*
X3670Y-1820D02*
D03*
X3530Y-2530D02*
D03*
X6270Y-1990D02*
D03*
X490D02*
D03*
X500Y-4610D02*
D03*
X4390D02*
D03*
X4300Y-850D02*
D03*
X4110Y-1850D02*
D03*
X3810Y-2530D02*
D03*
X3760Y-4180D02*
D03*
X3220Y-3050D02*
D03*
X4210D02*
D03*
X2510Y-2990D02*
D03*
X4010D02*
D03*
X40Y-3080D02*
D03*
X890D02*
D03*
X4390Y-3500D02*
D03*
X4690D02*
D03*
X4610Y-3000D02*
D03*
X4110D02*
D03*
X1990Y-3180D02*
D03*
X4040Y-3790D02*
D03*
M02*
