G04 Layer_Physical_Order=1*
G04 Layer_Color=255*
%FSLAX23Y23*%
%MOIN*%
G70*
G01*
G75*
%ADD10C,0.012*%
%ADD11C,0.020*%
%ADD12C,0.063*%
%ADD13C,0.079*%
%ADD14C,0.055*%
%ADD15R,0.055X0.055*%
%ADD16R,0.079X0.063*%
%ADD17O,0.079X0.063*%
%ADD18O,0.063X0.079*%
%ADD19R,0.063X0.079*%
%ADD20R,0.087X0.087*%
%ADD21C,0.087*%
%ADD22R,0.055X0.055*%
%ADD23C,0.059*%
D10*
X3140Y-3510D02*
Y-3070D01*
Y-3540D02*
Y-3510D01*
X3160Y-3050D02*
X3220D01*
X2940Y-3560D02*
X3120D01*
X3140Y-3070D02*
X3160Y-3050D01*
X3120Y-3560D02*
X3140Y-3540D01*
X3220Y-3050D02*
X4210D01*
X3140Y-3510D02*
X3220D01*
X3800Y-2530D02*
X3810Y-2520D01*
X2440Y-880D02*
X3440D01*
X3470Y-760D02*
X3520Y-710D01*
X3470Y-850D02*
Y-760D01*
X3440Y-880D02*
X3470Y-850D01*
X3510Y-710D02*
X3520D01*
X2500Y-1820D02*
X3670D01*
X2390Y-1710D02*
X2500Y-1820D01*
X2368Y-808D02*
Y-291D01*
Y-808D02*
X2440Y-880D01*
X3530Y-2530D02*
X3800D01*
X2640D02*
X3530D01*
X5450Y-380D02*
Y-80D01*
Y-530D02*
Y-380D01*
X6520Y-530D02*
Y-410D01*
X6490Y-380D02*
X6520Y-410D01*
X5450Y-380D02*
X6490D01*
X4870Y-2450D02*
X4950Y-2530D01*
X5620Y-2650D02*
Y-2560D01*
Y-2660D02*
Y-2650D01*
X4950Y-2530D02*
X5590D01*
X5620Y-2560D01*
X4900Y-1850D02*
X4970Y-1780D01*
X4110Y-2350D02*
Y-2230D01*
X4080Y-2200D02*
X4110Y-2230D01*
X1090Y-2200D02*
X4080D01*
X1030Y-2260D02*
X1090Y-2200D01*
X1030Y-2410D02*
Y-2260D01*
X5574Y-1916D02*
X5650Y-1840D01*
X140Y-2720D02*
X190Y-2670D01*
Y-1980D01*
X254Y-1916D01*
X5574D01*
X5690Y-1940D02*
X5750Y-1880D01*
X430Y-1940D02*
X5690D01*
X390Y-1980D02*
X430Y-1940D01*
X5650Y-1840D02*
Y-1700D01*
X5750Y-1880D02*
Y-1700D01*
X390Y-2670D02*
Y-1980D01*
X340Y-2720D02*
X390Y-2670D01*
X490Y-1990D02*
X6270D01*
X4110Y-1850D02*
X4900D01*
X4530Y-2040D02*
X6400D01*
X4510Y-2350D02*
Y-2060D01*
X4530Y-2040D01*
X6430Y-2010D02*
Y-1960D01*
X6400Y-2040D02*
X6430Y-2010D01*
X500Y-4610D02*
X4390D01*
X5190Y-530D02*
X5250D01*
X5160Y-560D02*
X5190Y-530D01*
X5160Y-810D02*
Y-560D01*
X5120Y-850D02*
X5160Y-810D01*
X4300Y-850D02*
X5120D01*
X6450Y-4400D02*
X6530D01*
X3980D02*
X6450D01*
X3760Y-4180D02*
X3980Y-4400D01*
X2510Y-2990D02*
X4010D01*
X40Y-3080D02*
X890D01*
X4390Y-3500D02*
X4690D01*
X4110Y-3000D02*
X4610D01*
X4760Y-1380D02*
X4762Y-1382D01*
X4968D01*
X1130Y-2710D02*
X1230D01*
X5350Y-1750D02*
Y-1700D01*
X5320Y-1780D02*
X5350Y-1750D01*
X4970Y-1780D02*
X5320D01*
X4760D02*
Y-1680D01*
X4735Y-1655D02*
X4760Y-1680D01*
X4500Y-1655D02*
X4735D01*
X4230Y-1580D02*
X4500D01*
X4130Y-1730D02*
Y-1580D01*
X4072Y-1788D02*
X4130Y-1730D01*
X3902Y-1788D02*
X4072D01*
X6605Y462D02*
X6670Y527D01*
X6682Y362D02*
X6720Y400D01*
Y580D01*
X6680Y620D02*
X6720Y580D01*
X6600Y620D02*
X6680D01*
X6570Y590D02*
X6600Y620D01*
X6570Y527D02*
Y590D01*
X6832Y262D02*
X6870Y300D01*
Y527D01*
X6922Y162D02*
X6970Y210D01*
Y527D01*
X6770D02*
Y590D01*
X6800Y620D01*
X7090D01*
X7120Y590D01*
Y362D02*
Y590D01*
X6828Y62D02*
X6870Y20D01*
Y-73D02*
Y20D01*
X6120Y-40D02*
X6180Y20D01*
X6630D01*
X6130Y-140D02*
X6197Y-73D01*
X6570D01*
X6670D02*
Y-20D01*
X6630Y20D02*
X6670Y-20D01*
X6030Y62D02*
X6828D01*
X6030Y162D02*
X6922D01*
X6020Y-140D02*
X6130D01*
X6020Y-40D02*
X6120D01*
X6030Y262D02*
X6832D01*
X6030Y362D02*
X6682D01*
X6030Y462D02*
X6605D01*
X5250Y-830D02*
Y-730D01*
X5290Y-690D01*
X5410D02*
X5450Y-650D01*
X6820D02*
Y-530D01*
X6790Y-680D02*
X6820Y-650D01*
X5550D02*
X5580Y-680D01*
X5780Y-650D02*
X6590D01*
X6620Y-620D01*
Y-530D01*
X6570Y-490D02*
X6600Y-460D01*
X6570Y-580D02*
Y-490D01*
X6540Y-610D02*
X6570Y-580D01*
X5870Y-610D02*
X6540D01*
X5850Y-590D02*
X5870Y-610D01*
X6600Y-460D02*
X6700D01*
X6720Y-480D01*
Y-530D02*
Y-480D01*
X5580Y-680D02*
X6790D01*
X5290Y-690D02*
X5410D01*
X5450Y-650D02*
Y-530D01*
X5750Y-620D02*
X5780Y-650D01*
X5550D02*
Y-530D01*
X5750Y-620D02*
Y-530D01*
X5850Y-590D02*
Y-530D01*
X5450Y-80D02*
X5490Y-40D01*
X5720D01*
X6820Y-1450D02*
X6920D01*
X6720D02*
X6820D01*
X6620D02*
X6720D01*
X6520D02*
X6620D01*
X6510D02*
X6520D01*
X-60Y-3420D02*
Y-3230D01*
X-10Y-3180D01*
X1990D01*
X2290Y-1710D02*
X2370D01*
X2190D02*
X2290D01*
X2090D02*
X2190D01*
X1990D02*
X2090D01*
X4410Y-2410D02*
Y-2350D01*
X4380Y-2440D02*
X4410Y-2410D01*
X4030Y-2440D02*
X4380D01*
X4010Y-2420D02*
X4030Y-2440D01*
X4010Y-2420D02*
Y-2350D01*
X3600Y-2730D02*
X3830D01*
X3420D02*
X3600D01*
Y-2630D01*
X3830Y-2730D02*
X3910Y-2650D01*
X3230Y-2730D02*
X3410D01*
X3450Y-3510D02*
Y-3320D01*
Y-3510D02*
X3490Y-3550D01*
X3633D01*
X3660Y-3577D01*
Y-3710D02*
Y-3577D01*
X3220Y-3690D02*
Y-3585D01*
Y-3690D02*
X3240Y-3710D01*
X3450D01*
X4490Y-3430D02*
Y-3360D01*
X4470Y-3450D02*
X4490Y-3430D01*
X4210Y-3450D02*
X4470D01*
X4190Y-3430D02*
X4210Y-3450D01*
X4190Y-3430D02*
Y-3360D01*
X4290Y-3150D02*
X5250D01*
X4290Y-3360D02*
Y-3150D01*
X3700D02*
X4290D01*
X3660Y-3310D02*
Y-3190D01*
X3700Y-3150D01*
X5250D02*
X5290Y-3190D01*
Y-3350D02*
Y-3190D01*
X4860Y-3260D02*
X5090D01*
X4040Y-3790D02*
X6600D01*
X6640Y-3750D01*
Y-3620D01*
X6540Y-3710D02*
Y-3620D01*
X6500Y-3750D02*
X6540Y-3710D01*
X5720Y-3750D02*
X6500D01*
X5698Y-3728D02*
X5720Y-3750D01*
X5698Y-3728D02*
Y-3662D01*
X6530Y-2260D02*
X6630D01*
X5620Y-2410D02*
Y-2350D01*
X5600Y-2430D02*
X5620Y-2410D01*
X5390Y-2430D02*
X5600D01*
X5370Y-2410D02*
X5390Y-2430D01*
X5370Y-2410D02*
Y-2120D01*
X5400Y-2090D01*
X6680D01*
X6730Y-2040D01*
Y-1960D01*
X6930Y-2090D02*
Y-1960D01*
X6890Y-2130D02*
X6930Y-2090D01*
X5470Y-2130D02*
X6890D01*
X5420Y-2180D02*
X5470Y-2130D01*
X5420Y-2350D02*
Y-2180D01*
X5520Y-2350D02*
Y-2220D01*
X5570Y-2170D01*
X6990D01*
X7030Y-2130D01*
Y-1960D01*
X2058Y-2498D02*
Y-2322D01*
Y-2498D02*
X2091Y-2531D01*
X2288D01*
X2639D02*
X2640Y-2530D01*
X2388Y-2531D02*
X2639D01*
X4410Y-2800D02*
Y-2650D01*
X4360Y-2850D02*
X4410Y-2800D01*
X3070Y-2850D02*
X4360D01*
X3038Y-2818D02*
X3070Y-2850D01*
X3038Y-2818D02*
Y-2732D01*
X6950Y-3320D02*
X7010Y-3380D01*
X6740Y-3320D02*
X6950D01*
X6540D02*
X6640D01*
X6540Y-3400D02*
Y-3320D01*
X6510Y-3430D02*
X6540Y-3400D01*
X6040Y-3430D02*
X6510D01*
X5290Y-3550D02*
X5665D01*
X5480Y-3547D02*
Y-3260D01*
X5698Y-3662D02*
Y-3583D01*
X5665Y-3550D02*
X5698Y-3583D01*
X3260Y-1710D02*
Y-1560D01*
X3223Y-1523D02*
X3260Y-1560D01*
X2413Y-1523D02*
X3223D01*
X2390Y-1500D02*
X2413Y-1523D01*
X2390Y-1500D02*
Y-1410D01*
X3160Y-1710D02*
Y-1580D01*
X3126Y-1546D02*
X3160Y-1580D01*
X2316Y-1546D02*
X3126D01*
X2290Y-1520D02*
X2316Y-1546D01*
X2290Y-1520D02*
Y-1410D01*
X2220Y-1570D02*
X3030D01*
X2190Y-1540D02*
X2220Y-1570D01*
X2190Y-1540D02*
Y-1410D01*
X3030Y-1570D02*
X3060Y-1600D01*
Y-1710D02*
Y-1600D01*
X2960Y-1710D02*
Y-1630D01*
X2926Y-1596D02*
X2960Y-1630D01*
X2126Y-1596D02*
X2926D01*
X2090Y-1560D02*
X2126Y-1596D01*
X2090Y-1560D02*
Y-1410D01*
X1990Y-1580D02*
Y-1410D01*
Y-1580D02*
X2030Y-1620D01*
X2830D01*
X2860Y-1650D01*
Y-1710D02*
Y-1650D01*
X178Y-3520D02*
X350D01*
X-60D02*
X178D01*
X378Y-3492D02*
Y-3282D01*
X350Y-3520D02*
X378Y-3492D01*
X178Y-3682D02*
Y-3520D01*
X2320Y-3310D02*
X2480D01*
X2120D02*
X2320D01*
X2480D02*
X2510Y-3340D01*
Y-3430D02*
Y-3340D01*
X2688Y-3312D02*
X2882D01*
X2940Y-3370D01*
Y-3460D02*
Y-3370D01*
X2580Y-3560D02*
X2940D01*
X2510Y-3630D02*
X2580Y-3560D01*
X2880Y-4280D02*
Y-4140D01*
X2848Y-4108D02*
X2880Y-4140D01*
X2622Y-4108D02*
X2848D01*
X3133Y-4105D02*
X3138Y-4110D01*
X3330D01*
X4830Y-4178D02*
X4903Y-4250D01*
X4692Y-4178D02*
X4830D01*
X5792Y-4182D02*
X5860Y-4250D01*
X5618Y-4182D02*
X5792D01*
X6450Y-4325D02*
Y-4280D01*
X6420Y-4250D02*
X6450Y-4280D01*
X6037Y-4250D02*
X6420D01*
X6800Y-4470D02*
Y-4400D01*
X6780Y-4490D02*
X6800Y-4470D01*
X6570Y-4490D02*
X6780D01*
X6550Y-4470D02*
X6570Y-4490D01*
X6550Y-4470D02*
Y-4420D01*
X6530Y-4400D02*
X6550Y-4420D01*
X3036Y-2330D02*
X3038Y-2332D01*
X2870Y-2330D02*
X3036D01*
D11*
X5090Y-3650D02*
X5100Y-3660D01*
X2320Y-3710D02*
X2690D01*
X3890Y-3520D02*
Y-3360D01*
Y-3520D02*
X3940Y-3570D01*
X5000D01*
X5090Y-3660D01*
X3340Y-4430D02*
X5004D01*
X3902Y-1388D02*
Y-1252D01*
X2760Y-1250D02*
X5250D01*
X5610D01*
X5250Y-1400D02*
Y-1250D01*
X5650Y-1210D02*
Y-830D01*
X5610Y-1250D02*
X5650Y-1210D01*
X5640Y-4580D02*
X7030D01*
X3330Y-4510D02*
Y-4400D01*
X3310Y-4380D02*
X3330Y-4400D01*
X2880Y-4380D02*
X3310D01*
X5004Y-4430D02*
X5080Y-4506D01*
X2760Y-1410D02*
Y-1250D01*
X1120D02*
X2760D01*
X1075Y-1295D02*
X1120Y-1250D01*
X1075Y-1403D02*
Y-1295D01*
X-60Y-2420D02*
Y-1910D01*
X10Y-1840D01*
X1330D01*
X1375Y-1795D01*
Y-1703D01*
X6830Y-2450D02*
Y-2260D01*
X6800Y-2480D02*
X6830Y-2450D01*
X5260Y-2480D02*
X6800D01*
X5220Y-2440D02*
X5260Y-2480D01*
X5220Y-2440D02*
Y-2350D01*
X640Y-3690D02*
X890D01*
X386D02*
X640D01*
Y-3530D01*
X378Y-3682D02*
X386Y-3690D01*
X5542Y-4506D02*
X5618Y-4582D01*
X5080Y-4506D02*
X5542D01*
X2058Y-2802D02*
Y-2722D01*
X2030Y-2830D02*
X2058Y-2802D01*
X1470Y-2830D02*
X2030D01*
X1430Y-2790D02*
X1470Y-2830D01*
X1430Y-2790D02*
Y-2710D01*
X920Y-3870D02*
X2270D01*
X2320Y-3820D01*
Y-3710D01*
X890Y-3840D02*
X920Y-3870D01*
X890Y-3840D02*
Y-3690D01*
X1375Y-1703D02*
Y-1595D01*
X1320Y-1540D02*
X1375Y-1595D01*
X1110Y-1540D02*
X1320D01*
X1075Y-1505D02*
X1110Y-1540D01*
X1075Y-1505D02*
Y-1403D01*
X3750Y-2350D02*
X3910D01*
X3730Y-2330D02*
X3750Y-2350D01*
X3420Y-2330D02*
X3730D01*
X5100Y-3660D02*
X5480D01*
D12*
X3520Y-710D02*
D03*
X3320D02*
D03*
X3120D02*
D03*
X3420D02*
D03*
X3220D02*
D03*
X1720Y0D02*
D03*
X0Y-100D02*
D03*
Y0D02*
D03*
X210Y-710D02*
D03*
X4630Y0D02*
D03*
X2910Y-100D02*
D03*
Y0D02*
D03*
D13*
X3020D02*
D03*
Y-100D02*
D03*
X3120D02*
D03*
Y0D02*
D03*
X3220Y-100D02*
D03*
Y0D02*
D03*
X3320Y-100D02*
D03*
Y0D02*
D03*
X3420Y-100D02*
D03*
Y0D02*
D03*
X3520Y-100D02*
D03*
Y0D02*
D03*
X3620Y-100D02*
D03*
Y0D02*
D03*
X3720Y-100D02*
D03*
Y0D02*
D03*
X3820Y-100D02*
D03*
Y0D02*
D03*
X3920Y-100D02*
D03*
Y0D02*
D03*
X4020Y-100D02*
D03*
Y0D02*
D03*
X4120Y-100D02*
D03*
Y0D02*
D03*
X4220Y-100D02*
D03*
Y0D02*
D03*
X4320Y-100D02*
D03*
Y0D02*
D03*
X4420Y-100D02*
D03*
Y0D02*
D03*
X4520Y-100D02*
D03*
Y0D02*
D03*
Y200D02*
D03*
Y100D02*
D03*
X4420Y200D02*
D03*
Y100D02*
D03*
X4320Y200D02*
D03*
Y100D02*
D03*
X4220Y200D02*
D03*
Y100D02*
D03*
X4120Y200D02*
D03*
Y100D02*
D03*
X4020Y200D02*
D03*
Y100D02*
D03*
X3920Y200D02*
D03*
Y100D02*
D03*
X3820Y200D02*
D03*
Y100D02*
D03*
X3720Y200D02*
D03*
Y100D02*
D03*
X3620Y200D02*
D03*
Y100D02*
D03*
X3520Y200D02*
D03*
Y100D02*
D03*
X3420Y200D02*
D03*
Y100D02*
D03*
X3320Y200D02*
D03*
Y100D02*
D03*
X3220Y200D02*
D03*
Y100D02*
D03*
X3120Y200D02*
D03*
Y100D02*
D03*
X3020D02*
D03*
Y200D02*
D03*
X4520Y400D02*
D03*
Y300D02*
D03*
X4420Y400D02*
D03*
Y300D02*
D03*
X4320Y400D02*
D03*
Y300D02*
D03*
X4220Y400D02*
D03*
Y300D02*
D03*
X4120Y400D02*
D03*
Y300D02*
D03*
X4020Y400D02*
D03*
Y300D02*
D03*
X3920Y400D02*
D03*
Y300D02*
D03*
X3820Y400D02*
D03*
Y300D02*
D03*
X3720Y400D02*
D03*
Y300D02*
D03*
X3620Y400D02*
D03*
Y300D02*
D03*
X3520Y400D02*
D03*
Y300D02*
D03*
X3420Y400D02*
D03*
Y300D02*
D03*
X3320Y400D02*
D03*
Y300D02*
D03*
X3220Y400D02*
D03*
Y300D02*
D03*
X3120Y400D02*
D03*
Y300D02*
D03*
X3020D02*
D03*
Y400D02*
D03*
X4520Y-200D02*
D03*
Y-300D02*
D03*
X4420Y-200D02*
D03*
Y-300D02*
D03*
X4320Y-200D02*
D03*
Y-300D02*
D03*
X4220Y-200D02*
D03*
Y-300D02*
D03*
X4120Y-200D02*
D03*
Y-300D02*
D03*
X4020Y-200D02*
D03*
Y-300D02*
D03*
X3920Y-200D02*
D03*
Y-300D02*
D03*
X3820Y-200D02*
D03*
Y-300D02*
D03*
X3720Y-200D02*
D03*
Y-300D02*
D03*
X3620Y-200D02*
D03*
Y-300D02*
D03*
X3520Y-200D02*
D03*
Y-300D02*
D03*
X3420Y-200D02*
D03*
Y-300D02*
D03*
X3320Y-200D02*
D03*
Y-300D02*
D03*
X3220Y-200D02*
D03*
Y-300D02*
D03*
X3120Y-200D02*
D03*
Y-300D02*
D03*
X3020D02*
D03*
Y-200D02*
D03*
X4520Y-400D02*
D03*
Y-500D02*
D03*
X4420Y-400D02*
D03*
Y-500D02*
D03*
X4320Y-400D02*
D03*
Y-500D02*
D03*
X4220Y-400D02*
D03*
Y-500D02*
D03*
X4120Y-400D02*
D03*
Y-500D02*
D03*
X4020Y-400D02*
D03*
Y-500D02*
D03*
X3920Y-400D02*
D03*
Y-500D02*
D03*
X3820Y-400D02*
D03*
Y-500D02*
D03*
X3720Y-400D02*
D03*
Y-500D02*
D03*
X3620Y-400D02*
D03*
Y-500D02*
D03*
X3520Y-400D02*
D03*
Y-500D02*
D03*
X3420Y-400D02*
D03*
Y-500D02*
D03*
X3320Y-400D02*
D03*
Y-500D02*
D03*
X3220Y-400D02*
D03*
Y-500D02*
D03*
X3120Y-400D02*
D03*
Y-500D02*
D03*
X3020D02*
D03*
Y-400D02*
D03*
Y-600D02*
D03*
X3120D02*
D03*
X3220D02*
D03*
X3320D02*
D03*
X3420D02*
D03*
X3520D02*
D03*
X3620D02*
D03*
X3720D02*
D03*
X3820D02*
D03*
X3920D02*
D03*
X4020D02*
D03*
X4120D02*
D03*
X4220D02*
D03*
X4320D02*
D03*
X4420D02*
D03*
X4520D02*
D03*
X3020Y500D02*
D03*
X3120D02*
D03*
X3220D02*
D03*
X3320D02*
D03*
X3420D02*
D03*
X3520D02*
D03*
X3620D02*
D03*
X3720D02*
D03*
X3820D02*
D03*
X3920D02*
D03*
X4020D02*
D03*
X4120D02*
D03*
X4220D02*
D03*
X4320D02*
D03*
X4420D02*
D03*
X4520D02*
D03*
X2520Y-550D02*
D03*
X2120D02*
D03*
X1610Y500D02*
D03*
X1510D02*
D03*
X1410D02*
D03*
X1310D02*
D03*
X1210D02*
D03*
X1110D02*
D03*
X1010D02*
D03*
X910D02*
D03*
X810D02*
D03*
X710D02*
D03*
X610D02*
D03*
X510D02*
D03*
X410D02*
D03*
X310D02*
D03*
X210D02*
D03*
X110D02*
D03*
X1610Y-600D02*
D03*
X1510D02*
D03*
X1410D02*
D03*
X1310D02*
D03*
X1210D02*
D03*
X1110D02*
D03*
X1010D02*
D03*
X910D02*
D03*
X810D02*
D03*
X710D02*
D03*
X610D02*
D03*
X510D02*
D03*
X410D02*
D03*
X310D02*
D03*
X210D02*
D03*
X110D02*
D03*
Y-400D02*
D03*
Y-500D02*
D03*
X210D02*
D03*
Y-400D02*
D03*
X310Y-500D02*
D03*
Y-400D02*
D03*
X410Y-500D02*
D03*
Y-400D02*
D03*
X510Y-500D02*
D03*
Y-400D02*
D03*
X610Y-500D02*
D03*
Y-400D02*
D03*
X710Y-500D02*
D03*
Y-400D02*
D03*
X810Y-500D02*
D03*
Y-400D02*
D03*
X910Y-500D02*
D03*
Y-400D02*
D03*
X1010Y-500D02*
D03*
Y-400D02*
D03*
X1110Y-500D02*
D03*
Y-400D02*
D03*
X1210Y-500D02*
D03*
Y-400D02*
D03*
X1310Y-500D02*
D03*
Y-400D02*
D03*
X1410Y-500D02*
D03*
Y-400D02*
D03*
X1510Y-500D02*
D03*
Y-400D02*
D03*
X1610Y-500D02*
D03*
Y-400D02*
D03*
X110Y-200D02*
D03*
Y-300D02*
D03*
X210D02*
D03*
Y-200D02*
D03*
X310Y-300D02*
D03*
Y-200D02*
D03*
X410Y-300D02*
D03*
Y-200D02*
D03*
X510Y-300D02*
D03*
Y-200D02*
D03*
X610Y-300D02*
D03*
Y-200D02*
D03*
X710Y-300D02*
D03*
Y-200D02*
D03*
X810Y-300D02*
D03*
Y-200D02*
D03*
X910Y-300D02*
D03*
Y-200D02*
D03*
X1010Y-300D02*
D03*
Y-200D02*
D03*
X1110Y-300D02*
D03*
Y-200D02*
D03*
X1210Y-300D02*
D03*
Y-200D02*
D03*
X1310Y-300D02*
D03*
Y-200D02*
D03*
X1410Y-300D02*
D03*
Y-200D02*
D03*
X1510Y-300D02*
D03*
Y-200D02*
D03*
X1610Y-300D02*
D03*
Y-200D02*
D03*
X110Y400D02*
D03*
Y300D02*
D03*
X210D02*
D03*
Y400D02*
D03*
X310Y300D02*
D03*
Y400D02*
D03*
X410Y300D02*
D03*
Y400D02*
D03*
X510Y300D02*
D03*
Y400D02*
D03*
X610Y300D02*
D03*
Y400D02*
D03*
X710Y300D02*
D03*
Y400D02*
D03*
X810Y300D02*
D03*
Y400D02*
D03*
X910Y300D02*
D03*
Y400D02*
D03*
X1010Y300D02*
D03*
Y400D02*
D03*
X1110Y300D02*
D03*
Y400D02*
D03*
X1210Y300D02*
D03*
Y400D02*
D03*
X1310Y300D02*
D03*
Y400D02*
D03*
X1410Y300D02*
D03*
Y400D02*
D03*
X1510Y300D02*
D03*
Y400D02*
D03*
X1610Y300D02*
D03*
Y400D02*
D03*
X110Y200D02*
D03*
Y100D02*
D03*
X210D02*
D03*
Y200D02*
D03*
X310Y100D02*
D03*
Y200D02*
D03*
X410Y100D02*
D03*
Y200D02*
D03*
X510Y100D02*
D03*
Y200D02*
D03*
X610Y100D02*
D03*
Y200D02*
D03*
X710Y100D02*
D03*
Y200D02*
D03*
X810Y100D02*
D03*
Y200D02*
D03*
X910Y100D02*
D03*
Y200D02*
D03*
X1010Y100D02*
D03*
Y200D02*
D03*
X1110Y100D02*
D03*
Y200D02*
D03*
X1210Y100D02*
D03*
Y200D02*
D03*
X1310Y100D02*
D03*
Y200D02*
D03*
X1410Y100D02*
D03*
Y200D02*
D03*
X1510Y100D02*
D03*
Y200D02*
D03*
X1610Y100D02*
D03*
Y200D02*
D03*
Y0D02*
D03*
Y-100D02*
D03*
X1510Y0D02*
D03*
Y-100D02*
D03*
X1410Y0D02*
D03*
Y-100D02*
D03*
X1310Y0D02*
D03*
Y-100D02*
D03*
X1210Y0D02*
D03*
Y-100D02*
D03*
X1110Y0D02*
D03*
Y-100D02*
D03*
X1010Y0D02*
D03*
Y-100D02*
D03*
X910Y0D02*
D03*
Y-100D02*
D03*
X810Y0D02*
D03*
Y-100D02*
D03*
X710Y0D02*
D03*
Y-100D02*
D03*
X610Y0D02*
D03*
Y-100D02*
D03*
X510Y0D02*
D03*
Y-100D02*
D03*
X410Y0D02*
D03*
Y-100D02*
D03*
X310Y0D02*
D03*
Y-100D02*
D03*
X210Y0D02*
D03*
Y-100D02*
D03*
X110D02*
D03*
Y0D02*
D03*
X5090Y-3660D02*
D03*
Y-3260D02*
D03*
X2520Y380D02*
D03*
X2120D02*
D03*
Y210D02*
D03*
X2520D02*
D03*
X4692Y-4178D02*
D03*
Y-4578D02*
D03*
X3902Y-1388D02*
D03*
Y-1788D02*
D03*
X4760Y-1780D02*
D03*
Y-1380D02*
D03*
X4968Y-1782D02*
D03*
Y-1382D02*
D03*
X378Y-3682D02*
D03*
Y-3282D02*
D03*
X178Y-3682D02*
D03*
Y-3282D02*
D03*
X890Y-3690D02*
D03*
Y-3290D02*
D03*
X1090Y-3690D02*
D03*
Y-3290D02*
D03*
X1298Y-3692D02*
D03*
Y-3292D02*
D03*
X4762Y-508D02*
D03*
Y-908D02*
D03*
X4860Y-3260D02*
D03*
Y-3660D02*
D03*
X7120Y-38D02*
D03*
Y362D02*
D03*
X628Y-1775D02*
D03*
Y-1375D02*
D03*
X1555Y-1453D02*
D03*
Y-1653D02*
D03*
X3330Y-4510D02*
D03*
Y-4110D02*
D03*
X2622Y-4108D02*
D03*
Y-4508D02*
D03*
X3133Y-4105D02*
D03*
Y-4505D02*
D03*
X2688Y-3712D02*
D03*
Y-3312D02*
D03*
X3230Y-2730D02*
D03*
Y-2330D02*
D03*
X3420D02*
D03*
Y-2730D02*
D03*
X2120Y-3310D02*
D03*
Y-3710D02*
D03*
X2320D02*
D03*
Y-3310D02*
D03*
X3600Y-2630D02*
D03*
Y-2430D02*
D03*
X7050Y-4570D02*
D03*
Y-4170D02*
D03*
X2058Y-2722D02*
D03*
Y-2322D02*
D03*
X2510Y-3630D02*
D03*
Y-3430D02*
D03*
X3450Y-3710D02*
D03*
Y-3310D02*
D03*
X5618Y-4582D02*
D03*
Y-4182D02*
D03*
X5080Y-4250D02*
D03*
X4903Y-4506D02*
D03*
X5080D02*
D03*
X4903Y-4250D02*
D03*
X6037D02*
D03*
X5860Y-4506D02*
D03*
X6037D02*
D03*
X5860Y-4250D02*
D03*
X2870Y-2730D02*
D03*
Y-2330D02*
D03*
X5480Y-3660D02*
D03*
Y-3260D02*
D03*
X3038Y-2732D02*
D03*
Y-2332D02*
D03*
X3660Y-3310D02*
D03*
Y-3710D02*
D03*
X5290Y-3350D02*
D03*
Y-3550D02*
D03*
X5698Y-3662D02*
D03*
Y-3262D02*
D03*
X7010Y-3580D02*
D03*
Y-3380D02*
D03*
D14*
X2320Y-10D02*
D03*
X2245D02*
D03*
X4500Y-1580D02*
D03*
Y-1655D02*
D03*
X3220Y-3510D02*
D03*
Y-3585D02*
D03*
X6450Y-4400D02*
D03*
Y-4325D02*
D03*
X2640Y-2530D02*
D03*
Y-2455D02*
D03*
D15*
X2395Y-10D02*
D03*
D16*
X5000Y-660D02*
D03*
X5720Y560D02*
D03*
X-60Y-3420D02*
D03*
X640Y-3530D02*
D03*
X1560Y-3540D02*
D03*
X4870Y-2560D02*
D03*
X845Y-1523D02*
D03*
X2880Y-4380D02*
D03*
X3610Y-4360D02*
D03*
X2940Y-3460D02*
D03*
X6030Y-3430D02*
D03*
D17*
X5000Y-760D02*
D03*
X6020Y560D02*
D03*
Y460D02*
D03*
Y360D02*
D03*
Y260D02*
D03*
X5720D02*
D03*
Y360D02*
D03*
Y460D02*
D03*
Y160D02*
D03*
Y60D02*
D03*
Y-40D02*
D03*
Y-140D02*
D03*
X6020D02*
D03*
Y-40D02*
D03*
Y60D02*
D03*
Y160D02*
D03*
X-60Y-3520D02*
D03*
X640Y-3430D02*
D03*
X1560Y-3440D02*
D03*
X4870Y-2460D02*
D03*
X845Y-1623D02*
D03*
X2880Y-4280D02*
D03*
X3610Y-4260D02*
D03*
X2940Y-3560D02*
D03*
X6030Y-3530D02*
D03*
D18*
X2368Y-291D02*
D03*
X1990Y-1410D02*
D03*
X2090D02*
D03*
X2190D02*
D03*
X2290D02*
D03*
Y-1710D02*
D03*
X2190D02*
D03*
X2090D02*
D03*
X2390D02*
D03*
Y-1410D02*
D03*
X6920Y-1150D02*
D03*
Y-1450D02*
D03*
X6620D02*
D03*
X6720D02*
D03*
X6820D02*
D03*
Y-1150D02*
D03*
X6720D02*
D03*
X6620D02*
D03*
X6520D02*
D03*
X4230Y-1580D02*
D03*
X5250Y-1400D02*
D03*
X5350D02*
D03*
X5550Y-1700D02*
D03*
X5450D02*
D03*
X5350D02*
D03*
X5650D02*
D03*
X5750D02*
D03*
X5850D02*
D03*
Y-1400D02*
D03*
X5750D02*
D03*
X5650D02*
D03*
X5550D02*
D03*
X5450D02*
D03*
X5220Y-2350D02*
D03*
X5320D02*
D03*
X5420D02*
D03*
X5520D02*
D03*
Y-2650D02*
D03*
X5420D02*
D03*
X5320D02*
D03*
X5620D02*
D03*
X5720D02*
D03*
X5820D02*
D03*
X5920D02*
D03*
Y-2350D02*
D03*
X5820D02*
D03*
X5720D02*
D03*
X5620D02*
D03*
X6430Y-1960D02*
D03*
X6530D02*
D03*
X6730Y-2260D02*
D03*
X6630D02*
D03*
X6530D02*
D03*
X6830D02*
D03*
X6930D02*
D03*
X7030D02*
D03*
Y-1960D02*
D03*
X6930D02*
D03*
X6830D02*
D03*
X6730D02*
D03*
X6630D02*
D03*
X-60Y-2420D02*
D03*
X40D02*
D03*
X240Y-2720D02*
D03*
X140D02*
D03*
X40D02*
D03*
X340D02*
D03*
X440D02*
D03*
X540D02*
D03*
Y-2420D02*
D03*
X440D02*
D03*
X340D02*
D03*
X240D02*
D03*
X140D02*
D03*
X6420Y-530D02*
D03*
X6520D02*
D03*
X6620D02*
D03*
X6720D02*
D03*
Y-830D02*
D03*
X6620D02*
D03*
X6520D02*
D03*
X6820D02*
D03*
X6920D02*
D03*
X7020D02*
D03*
X7120D02*
D03*
Y-530D02*
D03*
X7020D02*
D03*
X6920D02*
D03*
X6820D02*
D03*
X5250D02*
D03*
X5350D02*
D03*
X5550Y-830D02*
D03*
X5450D02*
D03*
X5350D02*
D03*
X5650D02*
D03*
X5750D02*
D03*
X5850D02*
D03*
Y-530D02*
D03*
X5750D02*
D03*
X5650D02*
D03*
X5550D02*
D03*
X5450D02*
D03*
X6970Y527D02*
D03*
X6870D02*
D03*
X6770D02*
D03*
X6670D02*
D03*
X6570D02*
D03*
X6970Y-73D02*
D03*
X6870D02*
D03*
X6770D02*
D03*
X6670D02*
D03*
X1175Y-1703D02*
D03*
X1275D02*
D03*
X1375D02*
D03*
Y-1403D02*
D03*
X1275D02*
D03*
X1175D02*
D03*
X1075D02*
D03*
X2760Y-1410D02*
D03*
X2860D02*
D03*
X2960D02*
D03*
X3060D02*
D03*
Y-1710D02*
D03*
X2960D02*
D03*
X2860D02*
D03*
X3160D02*
D03*
X3260D02*
D03*
X3360D02*
D03*
X3460D02*
D03*
Y-1410D02*
D03*
X3360D02*
D03*
X3260D02*
D03*
X3160D02*
D03*
X1030Y-2410D02*
D03*
X1130D02*
D03*
X1330Y-2710D02*
D03*
X1230D02*
D03*
X1130D02*
D03*
X1430D02*
D03*
X1530D02*
D03*
X1630D02*
D03*
Y-2410D02*
D03*
X1530D02*
D03*
X1430D02*
D03*
X1330D02*
D03*
X1230D02*
D03*
X3890Y-3360D02*
D03*
X3990D02*
D03*
X4190Y-3660D02*
D03*
X4090D02*
D03*
X3990D02*
D03*
X4290D02*
D03*
X4390D02*
D03*
X4490D02*
D03*
Y-3360D02*
D03*
X4390D02*
D03*
X4290D02*
D03*
X4190D02*
D03*
X4090D02*
D03*
X3910Y-2350D02*
D03*
X4010D02*
D03*
X4210Y-2650D02*
D03*
X4110D02*
D03*
X4010D02*
D03*
X4310D02*
D03*
X4410D02*
D03*
X4510D02*
D03*
Y-2350D02*
D03*
X4410D02*
D03*
X4310D02*
D03*
X4210D02*
D03*
X4110D02*
D03*
X6800Y-4400D02*
D03*
X2388Y-2531D02*
D03*
X6540Y-3620D02*
D03*
X6640D02*
D03*
X6740D02*
D03*
Y-3320D02*
D03*
X6640D02*
D03*
X6540D02*
D03*
X6440D02*
D03*
D19*
X2268Y-291D02*
D03*
X1990Y-1710D02*
D03*
X6520Y-1450D02*
D03*
X4130Y-1580D02*
D03*
X5250Y-1700D02*
D03*
X5220Y-2650D02*
D03*
X6430Y-2260D02*
D03*
X-60Y-2720D02*
D03*
X6420Y-830D02*
D03*
X5250D02*
D03*
X6570Y-73D02*
D03*
X1075Y-1703D02*
D03*
X2760Y-1710D02*
D03*
X1030Y-2710D02*
D03*
X3890Y-3660D02*
D03*
X3910Y-2650D02*
D03*
X6700Y-4400D02*
D03*
X2288Y-2531D02*
D03*
X6440Y-3620D02*
D03*
D20*
X-45Y-4451D02*
D03*
D21*
Y-4648D02*
D03*
X218Y-1673D02*
D03*
X415D02*
D03*
X317Y-1476D02*
D03*
X6540Y-2960D02*
D03*
X6737D02*
D03*
X6638Y-2763D02*
D03*
D22*
X4500Y-1505D02*
D03*
X3220Y-3435D02*
D03*
X6450Y-4475D02*
D03*
X2640Y-2605D02*
D03*
D23*
X3670Y-1820D02*
D03*
X3530Y-2530D02*
D03*
X6270Y-1990D02*
D03*
X490D02*
D03*
X500Y-4610D02*
D03*
X4390D02*
D03*
X4300Y-850D02*
D03*
X4110Y-1850D02*
D03*
X3810Y-2530D02*
D03*
X3760Y-4180D02*
D03*
X3220Y-3050D02*
D03*
X4210D02*
D03*
X2510Y-2990D02*
D03*
X4010D02*
D03*
X40Y-3080D02*
D03*
X890D02*
D03*
X4390Y-3500D02*
D03*
X4690D02*
D03*
X4610Y-3000D02*
D03*
X4110D02*
D03*
X1990Y-3180D02*
D03*
X4040Y-3790D02*
D03*
M02*
